<svg
      width="32"
      height="44"
      viewBox="0 0 32 44"
      fill="none"
      xmlns="http://www.w3.org/2000/svg"
    >
      <path
        d="M15.8892 32.567C21.332 32.567 25.7443 28.0442 25.7443 22.4651C25.7443 16.886 21.332 12.3633 15.8892 12.3633C10.4464 12.3633 6.03418 16.886 6.03418 22.4651C6.03418 28.0442 10.4464 32.567 15.8892 32.567Z"
        stroke="white"
        strokeWidth="2.02833"
        strokeMiterlimit="10"
      />
      <path
        d="M1.85254 22.4661C1.85254 20.5767 2.21561 18.7057 2.92101 16.9601C3.62641 15.2144 4.66033 13.6283 5.96374 12.2923C7.26715 10.9562 8.81452 9.8964 10.5175 9.17334C12.2205 8.45028 14.0457 8.07812 15.889 8.07813C17.7323 8.07812 19.5576 8.45028 21.2606 9.17334C22.9636 9.8964 24.5109 10.9562 25.8143 12.2923C27.1178 13.6283 28.1517 15.2144 28.8571 16.9601C29.5625 18.7057 29.9255 20.5767 29.9255 22.4661"
        stroke="white"
        strokeWidth="2.02833"
        strokeMiterlimit="10"
      />
      <path
        d="M16.0508 32.4258L15.889 42.6116"
        stroke="white"
        strokeWidth="2.02833"
        strokeMiterlimit="10"
      />
      <path
        d="M16.0508 0.648438L16.0508 8.76176"
        stroke="white"
        strokeWidth="2.02833"
        strokeMiterlimit="10"
      />
      <path
        d="M3.88086 3.35156L8.61363 9.43656"
        stroke="white"
        strokeWidth="2.02833"
        strokeMiterlimit="10"
      />
      <path
        d="M12.0719 19.0135C12.381 19.2247 12.8028 19.1452 13.014 18.8361C13.2251 18.527 13.1457 18.1052 12.8366 17.8941C12.5275 17.6829 12.1057 17.7623 11.8945 18.0714C11.6834 18.3806 11.7628 18.8023 12.0719 19.0135Z"
        fill="white"
        stroke="white"
        strokeWidth="2.02833"
        strokeMiterlimit="10"
      />
      <path
        d="M19.2657 18.8377C19.5749 19.0489 19.9966 18.9695 20.2078 18.6603C20.419 18.3512 20.3395 17.9294 20.0304 17.7183C19.7213 17.5071 19.2995 17.5865 19.0884 17.8957C18.8772 18.2048 18.9566 18.6266 19.2657 18.8377Z"
        fill="white"
        stroke="white"
        strokeWidth="2.02833"
        strokeMiterlimit="10"
      />
    </svg>