<svg width="76" height="81" viewBox="0 0 76 81" fill="none" xmlns="http://www.w3.org/2000/svg">
<path d="M34.4053 60.0108L34.3767 80.4893L41.8574 80.4997L41.886 60.0212L34.4053 60.0108Z" fill="#8F826A"/>
<path d="M75.7843 38.1421H68.3036C68.3036 21.5116 54.7727 7.98074 38.1423 7.98074C21.5118 7.98074 7.98097 21.5116 7.98097 38.1421H0.500244C0.500244 17.3855 17.3857 0.5 38.1423 0.5C58.8989 0.5 75.7843 17.3855 75.7843 38.1421Z" fill="#8F826A"/>
<path d="M38.1438 63.7502C23.9838 63.7502 12.4663 52.2327 12.4663 38.0726C12.4663 23.9125 23.9838 12.395 38.1438 12.395C52.3039 12.395 63.8213 23.9125 63.8213 38.0726C63.8213 52.2327 52.3039 63.7502 38.1438 63.7502ZM38.1438 19.8758C28.1099 19.8758 19.947 28.0387 19.947 38.0726C19.947 48.1065 28.1099 56.2694 38.1438 56.2694C48.1777 56.2694 56.3406 48.1065 56.3406 38.0726C56.3406 28.0387 48.1777 19.8758 38.1438 19.8758Z" fill="#8F826A"/>
</svg>
