<svg
      width="28"
      height="38"
      viewBox="0 0 28 38"
      fill="none"
      xmlns="http://www.w3.org/2000/svg"
    >
      <path
        d="M14.1255 28.3792C18.9316 28.3792 22.8277 24.3855 22.8277 19.4591C22.8277 14.5327 18.9316 10.5391 14.1255 10.5391C9.31943 10.5391 5.42334 14.5327 5.42334 19.4591C5.42334 24.3855 9.31943 28.3792 14.1255 28.3792Z"
        stroke="white"
        strokeWidth="1.79104"
        strokeMiterlimit="10"
      />
      <path
        d="M1.73096 19.4587C1.73096 17.7903 2.05155 16.1382 2.67443 14.5968C3.29731 13.0554 4.21027 11.6548 5.3612 10.4751C6.51213 9.29531 7.87848 8.35947 9.38224 7.721C10.886 7.08252 12.4977 6.75391 14.1254 6.75391C15.753 6.75391 17.3648 7.08252 18.8685 7.721C20.3723 8.35947 21.7386 9.29531 22.8896 10.4751C24.0405 11.6548 24.9535 13.0554 25.5763 14.5968C26.1992 16.1382 26.5198 17.7903 26.5198 19.4587"
        stroke="white"
        strokeWidth="1.79104"
        strokeMiterlimit="10"
      />
      <path
        d="M14.2686 28.2539L14.1257 37.2481"
        stroke="white"
        strokeWidth="1.79104"
        strokeMiterlimit="10"
      />
      <path
        d="M14.2686 0.193359L14.2686 7.35754"
        stroke="white"
        strokeWidth="1.79104"
        strokeMiterlimit="10"
      />
      <path
        d="M3.52197 2.58203L7.70108 7.95517"
        stroke="white"
        strokeWidth="1.79104"
        strokeMiterlimit="10"
      />
      <path
        d="M9.99983 21.8799C10.2802 22.0715 10.6667 21.9937 10.8631 21.7063C11.0594 21.4189 10.9913 21.0306 10.7109 20.839C10.4304 20.6475 10.044 20.7252 9.84761 21.0126C9.65126 21.3001 9.71941 21.6884 9.99983 21.8799Z"
        fill="white"
        stroke="white"
        strokeWidth="1.79104"
        strokeMiterlimit="10"
      />
      <path
        d="M13.9437 24.5752C14.2241 24.7668 14.6106 24.6891 14.8069 24.4016C15.0033 24.1142 14.9351 23.7259 14.6547 23.5343C14.3743 23.3428 13.9878 23.4205 13.7915 23.708C13.5951 23.9954 13.6633 24.3837 13.9437 24.5752Z"
        fill="white"
        stroke="white"
        strokeWidth="1.79104"
        strokeMiterlimit="10"
      />
    </svg>
