<svg width="29" height="35" viewBox="0 0 29 35" fill="none" xmlns="http://www.w3.org/2000/svg">
<path d="M13.3701 28.5723C16.8683 28.5723 19.7041 25.7365 19.7041 22.2383C19.7041 18.7401 16.8683 15.9043 13.3701 15.9043C9.87196 15.9043 7.03613 18.7401 7.03613 22.2383C7.03613 25.7365 9.87196 28.5723 13.3701 28.5723Z" stroke="#D0D7FB" stroke-width="1.77633" stroke-miterlimit="10"/>
<path d="M3.58081 22.2583C3.58081 16.8504 7.96243 12.4688 13.3704 12.4688C18.7783 12.4688 23.1599 16.8504 23.1599 22.2583" stroke="#D0D7FB" stroke-width="1.77633" stroke-miterlimit="10"/>
<path d="M8.41386 13.8161L4.06698 8.79102L1.00024 11.8578" stroke="#D0D7FB" stroke-width="1.77633" stroke-miterlimit="10"/>
<path d="M13.3701 12.471V6.71094" stroke="#D0D7FB" stroke-width="1.77633" stroke-miterlimit="10"/>
<path d="M13.3701 28.5713V34.3298" stroke="#D0D7FB" stroke-width="1.77633" stroke-miterlimit="10"/>
<circle cx="16.263" cy="20.9818" r="1.11052" transform="rotate(160.236 16.263 20.9818)" fill="#D0D7FB"/>
<circle cx="13.126" cy="18.9847" r="1.11052" transform="rotate(160.236 13.126 18.9847)" fill="#D0D7FB"/>
<path d="M22.9023 8.62399H22.424V6.71084H21.9457M22.424 4.79769H22.4288M26.7286 6.71084C26.7286 7.27613 26.6172 7.83588 26.4009 8.35814C26.1846 8.88039 25.8675 9.35493 25.4678 9.75464C25.0681 10.1544 24.5935 10.4714 24.0713 10.6878C23.549 10.9041 22.9893 11.0154 22.424 11.0154C21.8587 11.0154 21.2989 10.9041 20.7767 10.6878C20.2544 10.4714 19.7799 10.1544 19.3802 9.75464C18.9805 9.35493 18.6634 8.88039 18.4471 8.35814C18.2307 7.83588 18.1194 7.27613 18.1194 6.71084C18.1194 5.56919 18.5729 4.4743 19.3802 3.66704C20.1874 2.85977 21.2823 2.40625 22.424 2.40625C23.5656 2.40625 24.6605 2.85977 25.4678 3.66704C26.275 4.4743 26.7286 5.56919 26.7286 6.71084Z" stroke="#D0D7FB" stroke-width="0.956576" stroke-linecap="round" stroke-linejoin="round"/>
</svg>