<svg
  width="30"
  height="38"
  viewBox="0 0 30 38"
  fill="none"
  xmlns="http://www.w3.org/2000/svg"
>
  <path
    d="M14.0832 28.1858C19.0643 28.1858 23.1023 24.1922 23.1023 19.2658C23.1023 14.3394 19.0643 10.3457 14.0832 10.3457C9.10217 10.3457 5.06421 14.3394 5.06421 19.2658C5.06421 24.1922 9.10217 28.1858 14.0832 28.1858Z"
    stroke="white"
    strokeWidth="1.79104"
    strokeMiterlimit="10"
  />
  <path
    d="M1.23755 19.2653C1.23755 17.5969 1.56982 15.9449 2.21537 14.4034C2.86093 12.862 3.80714 11.4615 4.99998 10.2817C6.19282 9.10195 7.60892 8.16611 9.16744 7.52764C10.726 6.88916 12.3964 6.56055 14.0833 6.56055C15.7702 6.56055 17.4406 6.88916 18.9992 7.52764C20.5577 8.16611 21.9738 9.10195 23.1666 10.2817C24.3594 11.4615 25.3057 12.862 25.9512 14.4034C26.5968 15.9449 26.929 17.5969 26.929 19.2653"
    stroke="white"
    strokeWidth="1.79104"
    strokeMiterlimit="10"
  />
  <path
    d="M14.2314 28.0605L14.0834 37.0546"
    stroke="white"
    strokeWidth="1.79104"
    strokeMiterlimit="10"
  />
  <path
    d="M14.2314 0L14.2314 7.16418"
    stroke="white"
    strokeWidth="1.79104"
    strokeMiterlimit="10"
  />
  <path
    d="M28.8181 5.54883L22.8012 10.1244"
    stroke="white"
    strokeWidth="1.79104"
    strokeMiterlimit="10"
  />
  <path
    d="M18.1453 22.1944C18.4359 22.3859 18.8365 22.3082 19.0399 22.0208C19.2434 21.7333 19.1728 21.345 18.8822 21.1535C18.5916 20.9619 18.191 21.0397 17.9875 21.3271C17.784 21.6145 17.8546 22.0028 18.1453 22.1944Z"
    fill="white"
    stroke="white"
    strokeWidth="1.79104"
    strokeMiterlimit="10"
  />
  <path
    d="M18.1453 17.1944C18.4359 17.3859 18.8365 17.3082 19.0399 17.0208C19.2434 16.7333 19.1728 16.345 18.8822 16.1535C18.5916 15.9619 18.191 16.0397 17.9875 16.3271C17.784 16.6145 17.8546 17.0028 18.1453 17.1944Z"
    fill="white"
    stroke="white"
    strokeWidth="1.79104"
    strokeMiterlimit="10"
  />
</svg>
