<svg width="76" height="81" viewBox="0 0 76 81" fill="none" xmlns="http://www.w3.org/2000/svg">
<path d="M34.4466 60.0108L34.418 80.4893L41.8987 80.4997L41.9273 60.0212L34.4466 60.0108Z" fill="#E2C488"/>
<path d="M75.8256 38.1421H68.3449C68.3449 21.5116 54.814 7.98074 38.1835 7.98074C21.5531 7.98074 8.02223 21.5116 8.02223 38.1421H0.541504C0.541504 17.3855 17.4269 0.5 38.1835 0.5C58.9401 0.5 75.8256 17.3855 75.8256 38.1421Z" fill="#E2C488"/>
<path d="M38.1851 63.7502C24.025 63.7502 12.5076 52.2327 12.5076 38.0726C12.5076 23.9125 24.025 12.395 38.1851 12.395C52.3451 12.395 63.8626 23.9125 63.8626 38.0726C63.8626 52.2327 52.3451 63.7502 38.1851 63.7502ZM38.1851 19.8758C28.1512 19.8758 19.9883 28.0387 19.9883 38.0726C19.9883 48.1065 28.1512 56.2694 38.1851 56.2694C48.219 56.2694 56.3819 48.1065 56.3819 38.0726C56.3819 28.0387 48.219 19.8758 38.1851 19.8758Z" fill="#E2C488"/>
</svg>
