<svg width="19" height="22" viewBox="0 0 19 22" fill="none" xmlns="http://www.w3.org/2000/svg">
<path d="M9.9461 17.0719C12.619 17.0719 14.7857 14.9051 14.7857 12.2322C14.7857 9.55936 12.619 7.39258 9.9461 7.39258C7.27323 7.39258 5.10645 9.55936 5.10645 12.2322C5.10645 14.9051 7.27323 17.0719 9.9461 17.0719Z" stroke="#E9ECFF" stroke-width="1.35725" strokeMiterlimit="10"/>
<path d="M2.46631 12.2475C2.46631 8.11546 5.81419 4.76758 9.94626 4.76758C14.0783 4.76758 17.4262 8.11546 17.4262 12.2475" stroke="#E9ECFF" stroke-width="1.35725" strokeMiterlimit="10"/>
<path d="M6.1587 5.79654L2.83736 1.95703L0.494141 4.30025" stroke="#E9ECFF" stroke-width="1.35725" strokeMiterlimit="10"/>
<path d="M9.9458 4.76829V0.367188" stroke="#E9ECFF" stroke-width="1.35725" strokeMiterlimit="10"/>
<path d="M9.9458 17.0723V21.4722" stroke="#E9ECFF" stroke-width="1.35725" strokeMiterlimit="10"/>
<circle cx="10.5425" cy="14.5457" r="0.84852" transform="rotate(45 10.5425 14.5457)" fill="#E9ECFF"/>
<circle cx="12.4038" cy="12.6844" r="0.84852" transform="rotate(45 12.4038 12.6844)" fill="#E9ECFF"/>
</svg>
