<svg width="13" height="13" viewBox="0 0 13 13" fill="none" xmlns="http://www.w3.org/2000/svg">
<path d="M10.6182 2.94434L2.36816 2.94434" stroke="#E9ECFF" stroke-linecap="round" stroke-linejoin="round"/>
<path d="M5.36816 5.19434V8.19434" stroke="#E9ECFF" stroke-linecap="round" stroke-linejoin="round"/>
<path d="M7.61816 5.19434V8.19434" stroke="#E9ECFF" stroke-linecap="round" stroke-linejoin="round"/>
<path d="M9.86816 2.94434V10.0693C9.86816 10.1688 9.82866 10.2642 9.75833 10.3345C9.688 10.4048 9.59262 10.4443 9.49316 10.4443H3.49316C3.39371 10.4443 3.29833 10.4048 3.228 10.3345C3.15767 10.2642 3.11816 10.1688 3.11816 10.0693V2.94434" stroke="#E9ECFF" stroke-linecap="round" stroke-linejoin="round"/>
<path d="M8.36816 2.94434V2.19434C8.36816 1.99542 8.28915 1.80466 8.14849 1.66401C8.00784 1.52335 7.81708 1.44434 7.61816 1.44434H5.36816C5.16925 1.44434 4.97849 1.52335 4.83783 1.66401C4.69718 1.80466 4.61816 1.99542 4.61816 2.19434V2.94434" stroke="#E9ECFF" stroke-linecap="round" stroke-linejoin="round"/>
</svg>
