<svg width="17" height="17" viewBox="0 0 17 17" fill="none" xmlns="http://www.w3.org/2000/svg">
<path d="M8.99316 8.24561L14.9932 2.24561" stroke="#E9ECFF" stroke-linecap="round" stroke-linejoin="round"/>
<path d="M13.2362 4.00292C12.1734 2.94217 10.7511 2.31899 9.2508 2.25664C7.75049 2.19429 6.28143 2.69733 5.13425 3.66623C3.98707 4.63513 3.24533 5.99931 3.05578 7.4889C2.86623 8.97848 3.24267 10.485 4.11063 11.7103C4.97859 12.9356 6.27485 13.7905 7.74295 14.1059C9.21105 14.4213 10.7441 14.1742 12.0387 13.4135C13.3333 12.6527 14.2952 11.4337 14.7342 9.99774C15.1731 8.56173 15.0571 7.01327 14.4091 5.65871" stroke="#E9ECFF" stroke-linecap="round" stroke-linejoin="round"/>
<path d="M11.1143 6.12422C10.6183 5.62826 9.96425 5.32178 9.26575 5.25803C8.56725 5.19428 7.8685 5.3773 7.29093 5.77527C6.71337 6.17325 6.29351 6.76102 6.10434 7.43644C5.91516 8.11185 5.96863 8.83219 6.25545 9.47227C6.54227 10.1124 7.0443 10.6317 7.67429 10.94C8.30429 11.2484 9.02241 11.3262 9.70384 11.1601C10.3853 10.9939 10.9869 10.5942 11.4043 10.0304C11.8216 9.46669 12.0282 8.77453 11.9881 8.07428" stroke="#E9ECFF" stroke-linecap="round" stroke-linejoin="round"/>
</svg>
