<svg width="9" height="9" viewBox="0 0 9 9" fill="none" xmlns="http://www.w3.org/2000/svg">
<path d="M3.1599 7.11071H1.57976C1.50992 7.11071 1.44293 7.08296 1.39354 7.03357C1.34415 6.98418 1.31641 6.9172 1.31641 6.84735V5.3763C1.31641 5.34171 1.32322 5.30747 1.33645 5.27552C1.34969 5.24356 1.36909 5.21453 1.39354 5.19008L5.34389 1.23973C5.39328 1.19034 5.46026 1.1626 5.53011 1.1626C5.59995 1.1626 5.66694 1.19034 5.71633 1.23973L7.18738 2.71078C7.23677 2.76017 7.26452 2.82716 7.26452 2.89701C7.26452 2.96685 7.23677 3.03384 7.18738 3.08323L3.1599 7.11071Z" stroke="#1C2847" stroke-width="0.5" stroke-linecap="round" stroke-linejoin="round"/>
<path d="M4.47656 2.10693L6.32006 3.95043" stroke="#1C2847" stroke-width="0.5" stroke-linecap="round" stroke-linejoin="round"/>
</svg>
