<svg width="13" height="13" viewBox="0 0 13 13" fill="none" xmlns="http://www.w3.org/2000/svg">
<path d="M4.99316 10.4443H2.74316C2.64371 10.4443 2.54833 10.4048 2.478 10.3344C2.40767 10.2641 2.36816 10.1687 2.36816 10.0693V7.97461C2.36816 7.92536 2.37786 7.8766 2.39671 7.8311C2.41555 7.78561 2.44318 7.74427 2.478 7.70944L8.103 2.08444C8.17333 2.01412 8.26871 1.97461 8.36816 1.97461C8.46762 1.97461 8.563 2.01412 8.63333 2.08444L10.728 4.17911C10.7983 4.24944 10.8378 4.34482 10.8378 4.44428C10.8378 4.54374 10.7983 4.63912 10.728 4.70944L4.99316 10.4443Z" stroke="#E9ECFF" stroke-width="0.838543" stroke-linecap="round" stroke-linejoin="round"/>
<path d="M6.86816 3.31934L9.49316 5.94434" stroke="#E9ECFF" stroke-width="0.838543" stroke-linecap="round" stroke-linejoin="round"/>
</svg>
