<svg width="18" height="18" viewBox="0 0 18 18" fill="none" xmlns="http://www.w3.org/2000/svg">
<path d="M9.99219 9.64307C11.1658 9.64307 12.1172 8.69167 12.1172 7.51807C12.1172 6.34446 11.1658 5.39307 9.99219 5.39307C8.81858 5.39307 7.86719 6.34446 7.86719 7.51807C7.86719 8.69167 8.81858 9.64307 9.99219 9.64307Z" stroke="#E9ECFF" stroke-linecap="round" stroke-linejoin="round"/>
<path d="M3.08594 7.25244H4.67969" stroke="#E9ECFF" stroke-linecap="round" stroke-linejoin="round"/>
<path d="M3.08594 4.59619H4.67969" stroke="#E9ECFF" stroke-linecap="round" stroke-linejoin="round"/>
<path d="M3.08594 9.90869H4.67969" stroke="#E9ECFF" stroke-linecap="round" stroke-linejoin="round"/>
<path d="M3.08594 12.5649H4.67969" stroke="#E9ECFF" stroke-linecap="round" stroke-linejoin="round"/>
<path d="M6.80469 11.2367C7.17588 10.7419 7.65715 10.3403 8.21041 10.0637C8.76368 9.78709 9.37373 9.64308 9.99228 9.64307C10.6108 9.64305 11.2209 9.78703 11.7742 10.0636C12.3274 10.3402 12.8087 10.7417 13.18 11.2365" stroke="#E9ECFF" stroke-linecap="round" stroke-linejoin="round"/>
<path d="M15.3047 14.4243V2.73682C15.3047 2.44342 15.0668 2.20557 14.7734 2.20557L5.21094 2.20557C4.91754 2.20557 4.67969 2.44342 4.67969 2.73682V14.4243C4.67969 14.7177 4.91754 14.9556 5.21094 14.9556H14.7734C15.0668 14.9556 15.3047 14.7177 15.3047 14.4243Z" stroke="#E9ECFF" stroke-linecap="round" stroke-linejoin="round"/>
</svg>
