<svg width="40" height="40" viewBox="0 0 40 40" fill="none" xmlns="http://www.w3.org/2000/svg">
<path d="M20 27.3926C24.0965 27.3926 27.4175 24.0716 27.4175 19.9751C27.4175 15.8785 24.0965 12.5576 20 12.5576C15.9034 12.5576 12.5825 15.8785 12.5825 19.9751C12.5825 24.0716 15.9034 27.3926 20 27.3926Z" stroke="#E9ECFF" stroke-width="2.41" stroke-linecap="round" stroke-linejoin="round"/>
<path d="M28.6011 10.2526C28.997 10.6031 29.3713 10.9774 29.7218 11.3733L33.944 11.9762C34.6286 13.1685 35.1565 14.4441 35.5146 15.7716L32.9564 19.1824C32.9564 19.1824 32.9886 20.2393 32.9565 20.767L35.5157 24.1789C35.1568 25.5061 34.628 26.7814 33.9425 27.9732L29.7218 28.5761C29.7218 28.5761 28.9972 29.3462 28.6014 29.6967L27.9985 33.9188C26.8062 34.6035 25.5305 35.1314 24.2031 35.4894L20.7925 32.9313C20.2647 32.9634 19.7354 32.9634 19.2076 32.9313L15.7958 35.4905C14.4686 35.1316 13.1933 34.6028 12.0015 33.9173L11.3987 29.6969C11.0028 29.3464 10.6285 28.9721 10.278 28.5762L6.05585 27.9733C5.37116 26.781 4.84326 25.5054 4.48524 24.1779L7.04341 20.7671C7.04341 20.7671 7.01123 19.7102 7.04331 19.1825L4.48413 15.7707C4.84304 14.4434 5.37181 13.1681 6.0573 11.9763L10.2778 11.3735C10.6283 10.9776 11.0025 10.6034 11.3984 10.2528L12.0013 6.0307C13.1936 5.34601 14.4693 4.81811 15.7967 4.4601L19.2073 7.01818C19.7351 6.98609 20.2644 6.98609 20.7922 7.01817L24.204 4.45898C25.5312 4.8179 26.8065 5.34666 27.9983 6.03216L28.6011 10.2526Z" stroke="#E9ECFF" stroke-width="2.47249" stroke-linecap="round" stroke-linejoin="round"/>
</svg>
