<svg width="46" height="46" viewBox="0 0 46 46" fill="none" xmlns="http://www.w3.org/2000/svg">
<path d="M20.5108 19.1328C21.3443 17.2363 22.8069 15.6857 24.6516 14.7431C26.4963 13.8005 28.6099 13.5238 30.6351 13.9597C32.6603 14.3956 34.4729 15.5173 35.7664 17.1353C37.06 18.7534 37.7553 20.7684 37.7347 22.8399C37.7141 24.9113 36.9789 26.9121 35.6534 28.5041C34.3279 30.0961 32.4933 31.1816 30.4599 31.5771C28.4264 31.9726 26.3188 31.6539 24.4932 30.6748C22.6676 29.6957 21.236 28.1164 20.4405 26.2037L20.4407 26.2036L18.1131 26.1804L16.0129 24.0381L13.8706 26.1382L11.7705 23.9959L9.6282 26.0961L6.128 22.5255L9.69851 19.0253L20.5111 19.1329L20.5108 19.1328Z" stroke="#A0F2E0" stroke-width="2" stroke-linecap="round" stroke-linejoin="round"/>
<path opacity="0.5" d="M31.9328 23.1357C32.1261 23.3329 32.4427 23.336 32.6399 23.1427C32.8371 22.9494 32.8402 22.6329 32.6469 22.4357C32.4536 22.2385 32.137 22.2353 31.9398 22.4286C31.7426 22.6219 31.7395 22.9385 31.9328 23.1357Z" stroke="#A0F2E0" stroke-width="2" stroke-linecap="round" stroke-linejoin="round"/>
<path d="M31.2183 23.8358C31.7982 24.4274 32.7479 24.4369 33.3395 23.8569C33.9311 23.277 33.9405 22.3273 33.3606 21.7357C32.7807 21.1441 31.831 21.1347 31.2394 21.7146C30.6478 22.2945 30.6384 23.2442 31.2183 23.8358Z" fill="#A0F2E0"/>
</svg>
