<svg width="22" height="22" viewBox="0 0 22 22" fill="none" xmlns="http://www.w3.org/2000/svg">
<path d="M9.79158 9.37049C10.167 8.49265 10.834 7.77135 11.6798 7.32851C12.5256 6.88567 13.4984 6.74845 14.4337 6.94005C15.369 7.13164 16.2095 7.6403 16.813 8.38005C17.4166 9.11979 17.7463 10.0452 17.7463 11C17.7463 11.9547 17.4166 12.8802 16.813 13.6199C16.2095 14.3597 15.369 14.8683 14.4337 15.0599C13.4984 15.2515 12.5256 15.1143 11.6798 14.6714C10.8339 14.2286 10.167 13.5073 9.79158 12.6295L9.79166 12.6294L8.71886 12.6294L7.74119 11.6518L6.76352 12.6294L5.78585 11.6518L4.80818 12.6294L3.17873 11L4.80818 9.37053L9.79169 9.37053L9.79158 9.37049Z" fill="#C08AFF" stroke="#13203D" stroke-width="1.22027" stroke-linecap="round" stroke-linejoin="round"/>
<path opacity="0.5" d="M15.0736 11.1627C15.1636 11.2527 15.3095 11.2527 15.3995 11.1627C15.4895 11.0727 15.4895 10.9268 15.3995 10.8368C15.3095 10.7468 15.1636 10.7468 15.0736 10.8368C14.9836 10.9268 14.9836 11.0727 15.0736 11.1627Z" stroke="#13203D" stroke-width="1.18643" stroke-linecap="round" stroke-linejoin="round"/>
<path d="M14.7477 11.4885C15.0177 11.7585 15.4554 11.7585 15.7254 11.4885C15.9954 11.2185 15.9954 10.7808 15.7254 10.5108C15.4554 10.2408 15.0177 10.2408 14.7477 10.5108C14.4778 10.7808 14.4778 11.2185 14.7477 11.4885Z" fill="#13203D"/>
</svg>
