<svg width="46" height="46" viewBox="0 0 46 46" fill="none" xmlns="http://www.w3.org/2000/svg">
<path d="M20.6226 19.7976C21.4561 17.9011 22.9188 16.3505 24.7635 15.4079C26.6082 14.4653 28.7217 14.1886 30.7469 14.6245C32.7721 15.0604 34.5847 16.1821 35.8783 17.8001C37.1718 19.4182 37.8671 21.4332 37.8465 23.5047C37.8259 25.5761 37.0907 27.5769 35.7652 29.1689C34.4397 30.7609 32.6051 31.8464 30.5717 32.2419C28.5382 32.6374 26.4306 32.3187 24.605 31.3396C22.7794 30.3605 21.3479 28.7812 20.5523 26.8685L20.5525 26.8684L18.2249 26.8452L16.1248 24.7029L13.9824 26.803L11.8823 24.6607L9.74001 26.7609L6.23981 23.1903L9.81033 19.6901L20.6229 19.7977L20.6226 19.7976Z" stroke="#E9ECFF" stroke-width="2" stroke-linecap="round" stroke-linejoin="round"/>
<path opacity="0.5" d="M32.0441 23.8003C32.2374 23.9975 32.554 24.0006 32.7512 23.8073C32.9484 23.614 32.9515 23.2974 32.7582 23.1002C32.5649 22.903 32.2483 22.8999 32.0512 23.0932C31.854 23.2865 31.8508 23.6031 32.0441 23.8003Z" stroke="#E9ECFF" stroke-width="2" stroke-linecap="round" stroke-linejoin="round"/>
<path d="M31.3306 24.5003C31.9105 25.0919 32.8602 25.1013 33.4518 24.5214C34.0434 23.9415 34.0528 22.9918 33.4729 22.4002C32.893 21.8086 31.9433 21.7992 31.3517 22.3791C30.7601 22.959 30.7507 23.9087 31.3306 24.5003Z" fill="#E9ECFF"/>
</svg>
