<svg width="30" height="31" viewBox="0 0 30 31" fill="none" xmlns="http://www.w3.org/2000/svg">
<path d="M13.469 13.099C13.9973 11.8636 14.9359 10.8485 16.1263 10.2253C17.3167 9.60205 18.6857 9.40893 20.002 9.67858C21.3183 9.94822 22.5012 10.6641 23.3506 11.7052C24.2 12.7462 24.6639 14.0487 24.6639 15.3923C24.6639 16.736 24.2 18.0384 23.3506 19.0795C22.5011 20.1205 21.3183 20.8364 20.002 21.106C18.6857 21.3757 17.3166 21.1826 16.1263 20.5593C14.9359 19.9361 13.9973 18.921 13.4689 17.6856L13.4691 17.6855L11.9593 17.6855L10.5833 16.3096L9.20742 17.6855L7.8315 16.3096L6.45558 17.6855L4.16238 15.3923L6.45558 13.0991L13.4691 13.0991L13.469 13.099Z" fill="#1C2847" stroke="#E9ECFF" stroke-width="0.889528" stroke-linecap="round" stroke-linejoin="round"/>
<path opacity="0.5" d="M20.9035 15.6216C21.0301 15.7482 21.2355 15.7482 21.3621 15.6216C21.4888 15.4949 21.4888 15.2896 21.3621 15.1629C21.2355 15.0363 21.0301 15.0363 20.9035 15.1629C20.7768 15.2896 20.7768 15.4949 20.9035 15.6216Z" stroke="#E9ECFF" stroke-width="1.66972" stroke-linecap="round" stroke-linejoin="round"/>
<path d="M20.4449 16.0805C20.8248 16.4604 21.4408 16.4604 21.8208 16.0805C22.2007 15.7005 22.2007 15.0845 21.8208 14.7046C21.4408 14.3246 20.8248 14.3246 20.4449 14.7046C20.0649 15.0845 20.0649 15.7005 20.4449 16.0805Z" fill="#E9ECFF"/>
</svg>
