<svg width="32" height="33" viewBox="0 0 32 33" fill="none" xmlns="http://www.w3.org/2000/svg">
<path d="M16 20.5039C17.3807 20.5039 18.5 19.3846 18.5 18.0039C18.5 16.6232 17.3807 15.5039 16 15.5039C14.6193 15.5039 13.5 16.6232 13.5 18.0039C13.5 19.3846 14.6193 20.5039 16 20.5039Z" stroke="#E9ECFF" stroke-width="2" stroke-linecap="round" stroke-linejoin="round"/>
<path d="M16 20.5039V23.5039" stroke="#E9ECFF" stroke-width="2" stroke-linecap="round" stroke-linejoin="round"/>
<path d="M26 11.5039H6C5.44772 11.5039 5 11.9516 5 12.5039V26.5039C5 27.0562 5.44772 27.5039 6 27.5039H26C26.5523 27.5039 27 27.0562 27 26.5039V12.5039C27 11.9516 26.5523 11.5039 26 11.5039Z" stroke="#E9ECFF" stroke-width="2" stroke-linecap="round" stroke-linejoin="round"/>
<path d="M11.5 11.5039V7.00391C11.5 5.81043 11.9741 4.66584 12.818 3.82193C13.6619 2.97801 14.8065 2.50391 16 2.50391C17.1935 2.50391 18.3381 2.97801 19.182 3.82193C20.0259 4.66584 20.5 5.81043 20.5 7.00391V11.5039" stroke="#E9ECFF" stroke-width="2" stroke-linecap="round" stroke-linejoin="round"/>
</svg>
