<svg 
  width="24" 
  height="24" 
  viewBox="0 0 24 24" 
  fill="none" 
  xmlns="http://www.w3.org/2000/svg">
    <path 
      d="M9.28891 15.6457C9.28112 15.7249 9.17078 15.7363 9.14651 15.6608C8.9977 15.197 8.72527 14.3485 8.57417 13.8852C8.54404 13.7914 8.51408 13.6975 8.48412 13.6037C8.35474 13.1986 8.22553 12.7941 8.08425 12.3925C8.03389 12.246 8.05678 12.1773 8.18956 12.0949C9.35484 11.36 10.5213 10.6252 11.6877 9.89027C12.8541 9.15539 14.0205 8.42051 15.1858 7.68563C15.1883 7.68403 15.191 7.68254 15.1936 7.68105C15.1962 7.67957 15.1989 7.67808 15.2014 7.67648C15.395 7.56292 15.5878 7.82574 15.4225 7.97775C15.1154 8.26046 14.7929 8.55905 14.4678 8.86005C13.7936 9.48432 13.1082 10.1189 12.5256 10.6435L12.3943 10.7621C11.4853 11.5837 10.5723 12.409 9.65932 13.2258C9.54028 13.3357 9.48533 13.4502 9.4716 13.6105C9.42856 14.1265 9.34019 15.1233 9.28891 15.6457Z" fill="#E9ECFF"/>
    <path
      fill-rule="evenodd" 
      clip-rule="evenodd"
      d="M23.3 11.7701C23.3 18.0662 18.196 23.1701 11.9 23.1701C5.60395 23.1701 0.5 18.0662 0.5 11.7701C0.5 5.47407 5.60395 0.370117 11.9 0.370117C18.196 0.370117 23.3 5.47407 23.3 11.7701ZM9.88322 16.5271C10.4372 15.9868 10.9913 15.4465 11.5544 14.9017C11.614 14.9429 11.6643 14.9795 11.7147 15.0207L11.7154 15.0212C12.7545 15.7903 13.7937 16.5593 14.8328 17.3238C15.4509 17.7816 15.982 17.5848 16.1423 16.8293C16.7191 14.1244 17.2926 11.4163 17.8656 8.71042C17.9658 8.23749 18.0659 7.76463 18.1661 7.29187C18.1875 7.18705 18.2105 7.08223 18.2335 6.97733C18.2989 6.67899 18.3645 6.38001 18.395 6.07851C18.5182 5.28823 18.0347 5.12523 17.4152 5.34592C15.8654 5.9434 14.3156 6.54203 12.7658 7.14065C11.2158 7.73935 9.66583 8.33806 8.11585 8.93562C7.83702 9.04318 7.5582 9.1505 7.27943 9.2578C6.33593 9.62097 5.39305 9.9839 4.45289 10.355C4.24227 10.4374 4.055 10.5235 3.88559 10.6746C3.70244 10.8394 3.71572 11.1059 3.92176 11.2433C4.05455 11.3349 4.21022 11.3944 4.36132 11.4447C5.35032 11.7607 6.34847 12.072 7.34205 12.3742C7.47025 12.4154 7.52977 12.4749 7.57098 12.6031C7.79742 13.3095 8.02651 14.0146 8.2554 14.7191C8.4523 15.3251 8.64906 15.9307 8.84386 16.5362C8.90338 16.7148 9.00869 16.7972 9.19642 16.8064C9.47572 16.8201 9.69092 16.7148 9.88322 16.5271Z" 
      fill="#E9ECFF"/>
</svg>
