<svg width="20" height="20" viewBox="0 0 20 20" fill="none" xmlns="http://www.w3.org/2000/svg">
<g clip-path="url(#clip0_2616_116296)">
<path d="M19.6947 10.0368C19.6947 15.4643 15.2943 19.8646 9.86689 19.8646C4.43944 19.8646 0.0390625 15.4643 0.0390625 10.0368C0.0390625 4.60936 4.43944 0.208984 9.86689 0.208984C15.2955 0.208984 19.6947 4.60936 19.6947 10.0368Z" fill="#2081E2"/>
<path d="M4.88708 10.3674L4.92949 10.3007L7.4861 6.30123C7.52345 6.24266 7.61131 6.24873 7.63957 6.31233C8.06669 7.26956 8.43523 8.46001 8.26257 9.20114C8.18886 9.50607 7.98693 9.91905 7.75973 10.3007C7.73044 10.3563 7.69814 10.4108 7.66381 10.4633C7.64765 10.4875 7.62039 10.5017 7.59111 10.5017H4.96179C4.89112 10.5017 4.84973 10.4249 4.88708 10.3674Z" fill="white"/>
<path d="M16.2826 11.1102V11.7433C16.2826 11.7797 16.2604 11.812 16.2281 11.8261C16.0302 11.9109 15.3527 12.2219 15.071 12.6137C14.3521 13.6143 13.8028 15.0451 12.5749 15.0451H7.45266C5.63718 15.0451 4.16602 13.5689 4.16602 11.7474V11.6888C4.16602 11.6403 4.20539 11.6009 4.25388 11.6009H7.10934C7.16588 11.6009 7.20729 11.6534 7.20225 11.709C7.18204 11.8948 7.21638 12.0846 7.30421 12.2573C7.47386 12.6016 7.82524 12.8166 8.2049 12.8166H9.61849V11.713H8.22104C8.14936 11.713 8.10695 11.6302 8.14836 11.5717C8.16349 11.5484 8.18066 11.5242 8.19883 11.4969C8.33111 11.3091 8.51992 11.0173 8.70774 10.6851C8.83596 10.461 8.96016 10.2217 9.06012 9.98136C9.08032 9.93794 9.09648 9.89352 9.11262 9.85008C9.1399 9.77336 9.16816 9.70166 9.18836 9.62998C9.20854 9.5694 9.2247 9.50578 9.24086 9.4462C9.28832 9.24224 9.30852 9.02616 9.30852 8.802C9.30852 8.71416 9.30448 8.62228 9.2964 8.53442C9.29236 8.4385 9.28024 8.34258 9.26812 8.24666C9.26004 8.16184 9.2449 8.07804 9.22874 7.9902C9.20854 7.86196 9.18028 7.73474 9.14796 7.6065L9.13686 7.55804C9.11262 7.4702 9.09244 7.38638 9.06416 7.29854C8.9844 7.02288 8.8925 6.75429 8.79558 6.50288C8.76024 6.40292 8.71984 6.307 8.67945 6.21108C8.61988 6.06667 8.55929 5.93542 8.50378 5.81122C8.4755 5.75467 8.45125 5.70318 8.42703 5.65067C8.39978 5.59109 8.37149 5.53154 8.34323 5.47497C8.32303 5.43156 8.2998 5.39117 8.28366 5.35079L8.11099 5.03172C8.08675 4.9883 8.12715 4.9368 8.17459 4.94993L9.25499 5.24275H9.25803C9.26004 5.24275 9.26107 5.24376 9.26207 5.24376L9.40444 5.28313L9.56095 5.32756L9.61849 5.34372V4.70155C9.61849 4.39155 9.8669 4.14014 10.1739 4.14014C10.3273 4.14014 10.4667 4.20273 10.5666 4.30472C10.6666 4.40671 10.7292 4.54605 10.7292 4.70155V5.65471L10.8443 5.68701C10.8534 5.69005 10.8625 5.69409 10.8706 5.70014C10.8988 5.72135 10.9392 5.75266 10.9907 5.79101C11.0311 5.82334 11.0745 5.86271 11.127 5.9031C11.231 5.98692 11.3552 6.09496 11.4915 6.21914C11.5279 6.25045 11.5632 6.28276 11.5955 6.31508C11.7712 6.47863 11.9681 6.6705 12.1559 6.88254C12.2084 6.94209 12.2599 7.00268 12.3124 7.06629C12.3649 7.13092 12.4205 7.19454 12.4689 7.25816C12.5326 7.34296 12.6012 7.4308 12.6608 7.5227C12.6891 7.56612 12.7214 7.61054 12.7486 7.65395C12.8254 7.77008 12.893 7.89024 12.9576 8.01038C12.9849 8.06592 13.0132 8.1265 13.0374 8.18608C13.1091 8.34662 13.1656 8.5102 13.202 8.67378C13.2131 8.70911 13.2212 8.74749 13.2252 8.78182V8.78988C13.2373 8.83836 13.2414 8.88986 13.2454 8.94236C13.2616 9.10996 13.2535 9.27758 13.2171 9.4462C13.202 9.5179 13.1818 9.58554 13.1576 9.65724C13.1333 9.7259 13.1091 9.79758 13.0778 9.86524C13.0172 10.0056 12.9455 10.1459 12.8607 10.2772C12.8334 10.3257 12.8011 10.3772 12.7688 10.4256C12.7335 10.4771 12.6971 10.5256 12.6648 10.5731C12.6204 10.6336 12.5729 10.6972 12.5245 10.7538C12.4811 10.8134 12.4366 10.8729 12.3881 10.9254C12.3205 11.0052 12.2559 11.0809 12.1882 11.1536C12.1478 11.2011 12.1044 11.2496 12.06 11.293C12.0166 11.3414 11.9721 11.3849 11.9318 11.4252C11.8641 11.4929 11.8076 11.5454 11.7601 11.5888L11.649 11.6908C11.6329 11.7049 11.6117 11.713 11.5895 11.713H10.7292V12.8166H11.8116C12.0539 12.8166 12.2841 12.7308 12.4699 12.5733C12.5336 12.5178 12.8112 12.2774 13.1394 11.915C13.1505 11.9029 13.1646 11.8938 13.1808 11.8897L16.1705 11.0254C16.2261 11.0092 16.2826 11.0517 16.2826 11.1102Z" fill="white"/>
</g>
<defs>
<clipPath id="clip0_2616_116296">
<rect width="19.6556" height="19.6556" fill="white" transform="translate(0.0390625 0.208984)"/>
</clipPath>
</defs>
</svg>
