<svg 
  width="33" 
  height="33" 
  viewBox="0 0 33 33" 
  fill="none" 
  xmlns="http://www.w3.org/2000/svg">
    <path 
      fill-rule="evenodd"
      clip-rule="evenodd" 
      d="M17.4894 23.2914C16.3006 24.4323 15.1312 25.5637 13.9618 26.695C13.5559 27.0881 13.1017 27.3086 12.5122 27.2798C12.1159 27.2606 11.8936 27.0881 11.768 26.7142C11.3569 25.4463 10.9416 24.1785 10.5261 22.9097C10.043 21.4348 9.55918 19.9575 9.08129 18.4785C8.99431 18.2101 8.86867 18.0854 8.59807 17.9991C6.50088 17.3664 4.39403 16.7144 2.30651 16.0529C1.98758 15.9474 1.65899 15.8228 1.37872 15.631C0.943822 15.3434 0.915795 14.7854 1.30237 14.4403C1.65996 14.1239 2.05523 13.9436 2.4998 13.7711C4.48423 12.994 6.47441 12.234 8.46591 11.4736C9.05432 11.2489 9.64284 11.0242 10.2314 10.799C13.503 9.54771 16.7746 8.29407 20.0463 7.04042L20.054 7.03747C23.3226 5.78497 26.5912 4.53248 29.8599 3.28238C31.1675 2.82026 32.188 3.16158 31.9281 4.81637C31.8637 5.44768 31.7253 6.07374 31.5872 6.69843C31.5386 6.91808 31.4901 7.13757 31.4448 7.35705L30.8107 10.3274C29.6012 15.9933 28.3907 21.664 27.1731 27.3278C26.8349 28.9097 25.7138 29.322 24.4091 28.3632C22.2167 26.7632 20.0243 25.1535 17.832 23.5439L17.8291 23.5418L17.8276 23.5407C17.7213 23.4544 17.615 23.3777 17.4894 23.2914ZM12.4069 24.8725C12.4581 25.0307 12.691 25.0068 12.7074 24.8409C12.8157 23.747 13.0022 21.6598 13.0931 20.5793C13.122 20.2437 13.238 20.004 13.4893 19.7739C15.416 18.0637 17.3428 16.3361 19.2611 14.616L19.5392 14.3666C20.769 13.2682 22.2157 11.9394 23.6388 10.6322C24.325 10.002 25.0057 9.37672 25.6539 8.78476C26.0028 8.46645 25.596 7.91613 25.1871 8.1539C25.1818 8.15726 25.1763 8.16037 25.1707 8.16349C25.1652 8.1666 25.1596 8.16972 25.1543 8.17308C22.6947 9.71186 20.2327 11.2507 17.7706 12.7894C15.3086 14.3282 12.8466 15.867 10.387 17.4058C10.1067 17.5784 10.0584 17.7222 10.1647 18.029C10.4629 18.8697 10.7356 19.7168 11.0087 20.565C11.0719 20.7614 11.1352 20.958 11.1988 21.1545C11.5177 22.1248 12.0928 23.9013 12.4069 24.8725Z"
      fill="#E9ECFF"/>
</svg>