<svg width="36" height="30" viewBox="0 0 36 30" fill="none" xmlns="http://www.w3.org/2000/svg">
<g clip-path="url(#clip0_3684_196564)">
<path fill-rule="evenodd" clip-rule="evenodd" d="M35.1979 4.17188C33.9275 4.74152 32.5597 5.12674 31.1249 5.29886C32.5902 4.41367 33.7144 3.01007 34.2441 1.33804C32.8722 2.15766 31.3563 2.75393 29.7368 3.07358C28.4461 1.68227 26.6014 0.813477 24.5598 0.813477C20.6451 0.813477 17.4691 4.02024 17.4691 7.97492C17.4691 8.53636 17.53 9.08141 17.6517 9.60597C11.7563 9.30681 6.53063 6.45862 3.02991 2.12077C2.41906 3.18218 2.07 4.41367 2.07 5.72506C2.07 8.20851 3.32215 10.401 5.22573 11.6858C4.06491 11.6509 2.96903 11.3251 2.01115 10.7924V10.8805C2.01115 14.3516 4.45658 17.2469 7.70362 17.9026C7.10901 18.0706 6.48193 18.1546 5.83455 18.1546C5.37793 18.1546 4.93146 18.1116 4.4992 18.0276C5.40228 20.8717 8.0202 22.9433 11.1252 22.9986C8.69802 24.9206 5.63769 26.066 2.31556 26.066C1.74327 26.066 1.17707 26.0332 0.623047 25.9677C3.76253 27.9962 7.49257 29.1826 11.4966 29.1826C24.5456 29.1826 31.679 18.2714 31.679 8.80683C31.679 8.49538 31.6729 8.18392 31.6607 7.87861C33.0468 6.86843 34.2502 5.60827 35.1979 4.17188Z" fill="#E9ECFF"/>
</g>
<defs>
<clipPath id="clip0_3684_196564">
<rect width="34.5749" height="28.3691" fill="white" transform="translate(0.623047 0.813477)"/>
</clipPath>
</defs>
</svg>
