<svg width="19" height="19" viewBox="0 0 19 19" fill="none" xmlns="http://www.w3.org/2000/svg">
<rect x="0.5" y="0.77002" width="18" height="18" rx="9" fill="#E9ECFF"/>
<path fill-rule="evenodd" clip-rule="evenodd" d="M15.7593 5.7863C15.2965 5.99839 14.7983 6.14182 14.2757 6.2059C14.8094 5.87632 15.2189 5.35373 15.4118 4.7312C14.9122 5.03636 14.36 5.25836 13.7701 5.37738C13.3 4.85936 12.628 4.53589 11.8844 4.53589C10.4585 4.53589 9.30162 5.72984 9.30162 7.20226C9.30162 7.4113 9.3238 7.61424 9.36815 7.80954C7.22078 7.69816 5.31734 6.63771 4.04222 5.02262C3.81972 5.41781 3.69257 5.87632 3.69257 6.36459C3.69257 7.28923 4.14866 8.10555 4.84203 8.58389C4.41921 8.57093 4.02004 8.44962 3.67114 8.25127V8.28407C3.67114 9.57644 4.56187 10.6544 5.74459 10.8986C5.52801 10.9611 5.2996 10.9924 5.06379 10.9924C4.89747 10.9924 4.73485 10.9764 4.5774 10.9451C4.90634 12.004 5.85991 12.7753 6.99088 12.7959C6.1068 13.5115 4.99209 13.938 3.78202 13.938C3.57356 13.938 3.36733 13.9258 3.16553 13.9014C4.30907 14.6567 5.66772 15.0984 7.12616 15.0984C11.8792 15.0984 14.4775 11.0359 14.4775 7.512C14.4775 7.39604 14.4753 7.28008 14.4708 7.1664C14.9757 6.79029 15.4141 6.3211 15.7593 5.7863Z" fill="#1C2847"/>
</svg>
