<svg width="32" height="33" viewBox="0 0 32 33" fill="none" xmlns="http://www.w3.org/2000/svg">
<path fill-rule="evenodd" clip-rule="evenodd" d="M15.999 0.115664C7.16398 0.115664 0 7.46005 0 16.5219C0 23.7689 4.58399 29.9178 10.943 32.0874C11.743 32.2381 12.035 31.7316 12.035 31.2968C12.035 30.9072 12.021 29.8757 12.013 28.5069C7.56198 29.4984 6.62301 26.3076 6.62301 26.3076C5.89601 24.4128 4.84701 23.9083 4.84701 23.9083C3.39401 22.8902 4.95699 22.9107 4.95699 22.9107C6.56199 23.0265 7.40698 24.6015 7.40698 24.6015C8.83498 27.1084 11.152 26.3845 12.064 25.9641C12.209 24.9039 12.623 24.1811 13.08 23.771C9.527 23.3567 5.79199 21.95 5.79199 15.6637C5.79199 13.8725 6.41501 12.4083 7.43901 11.2609C7.27401 10.8457 6.72501 9.17852 7.59501 6.91973C7.59501 6.91973 8.939 6.47882 11.995 8.60125C13.272 8.23726 14.64 8.05577 16.001 8.04859C17.36 8.05577 18.729 8.23726 20.007 8.60125C23.061 6.47882 24.402 6.91973 24.402 6.91973C25.275 9.17852 24.726 10.8457 24.561 11.2609C25.587 12.4083 26.206 13.8725 26.206 15.6637C26.206 21.9654 22.465 23.3526 18.901 23.7586C19.475 24.2651 19.987 25.2659 19.987 26.7967C19.987 28.9899 19.967 30.7585 19.967 31.2968C19.967 31.7357 20.255 32.2463 21.067 32.0853C27.42 29.9116 32 23.7668 32 16.5219C32 7.46005 24.836 0.115664 15.999 0.115664Z" fill="#E9ECFF"/>
</svg>
