<svg 
  width="40"
  height="40" 
  viewBox="0 0 40 40" 
  fill="none" 
  xmlns="http://www.w3.org/2000/svg">
    <path 
      fill-rule="evenodd"
      clip-rule="evenodd"
      d="M21.1693 28.0262C19.7644 29.3746 18.3824 30.7116 17.0004 32.0486C16.5206 32.5132 15.9838 32.7738 15.2871 32.7398C14.8188 32.7171 14.5561 32.5132 14.4076 32.0713C13.9218 30.5729 13.431 29.0745 12.9399 27.5751C12.369 25.832 11.7972 24.0861 11.2324 22.3382C11.1296 22.021 10.9812 21.8737 10.6614 21.7717C8.18286 21.0239 5.69295 20.2534 3.22587 19.4716C2.84896 19.347 2.46063 19.1997 2.1294 18.973C1.61543 18.6331 1.5823 17.9737 2.03917 17.5658C2.46177 17.1919 2.92891 16.9789 3.45431 16.7749C5.79954 15.8565 8.15158 14.9584 10.5052 14.0597C11.2006 13.7942 11.8961 13.5286 12.5916 13.2624C16.4581 11.7837 20.3246 10.3021 24.191 8.8205L24.2001 8.81701C28.0631 7.33679 31.926 5.85657 35.7889 4.37917C37.3343 3.83304 38.5404 4.23641 38.2332 6.19208C38.1571 6.93817 37.9935 7.67805 37.8303 8.41632C37.7729 8.67592 37.7156 8.93531 37.6621 9.1947L36.9127 12.7051C35.4833 19.4011 34.0526 26.1029 32.6137 32.7964C32.214 34.666 30.8891 35.1532 29.3471 34.0201C26.7561 32.1292 24.1651 30.2269 21.5741 28.3246L21.5707 28.3221L21.569 28.3208C21.4434 28.2189 21.3177 28.1282 21.1693 28.0262ZM15.1627 29.8948C15.2232 30.0818 15.4985 30.0534 15.5179 29.8574C15.6458 28.5646 15.8662 26.0979 15.9736 24.8209C16.0079 24.4244 16.1449 24.1411 16.4419 23.8692C18.7189 21.848 20.996 19.8063 23.2631 17.7734L23.5918 17.4787C25.0452 16.1806 26.7549 14.6102 28.4368 13.0653C29.2477 12.3205 30.0522 11.5816 30.8183 10.882C31.2306 10.5058 30.7498 9.85543 30.2666 10.1364C30.2603 10.1404 30.2538 10.1441 30.2472 10.1478C30.2406 10.1514 30.2341 10.1551 30.2278 10.1591C27.321 11.9777 24.4113 13.7962 21.5017 15.6148C18.592 17.4334 15.6824 19.2519 12.7756 21.0705C12.4443 21.2745 12.3872 21.4444 12.5129 21.807C12.8653 22.8006 13.1875 23.8016 13.5103 24.8041C13.585 25.0362 13.6598 25.2686 13.735 25.5008C14.1119 26.6474 14.7915 28.747 15.1627 29.8948Z" 
      fill="#E9ECFF"/>
</svg>