<svg
      width="19"
      height="19"
      viewBox="0 0 19 19"
      fill="none"
      xmlns="http://www.w3.org/2000/svg"
    >
    <path
    fill='white'
    fillRule="evenodd"
    clipRule="evenodd"
    d="M9.1854 0.4375C4.1815 0.4375 0.124023 4.59715 0.124023 9.72951C0.124023 13.834 2.72027 17.3166 6.32183 18.5454C6.77492 18.6307 6.9403 18.3438 6.9403 18.0976C6.9403 17.8769 6.93237 17.2928 6.92784 16.5175C4.40692 17.0791 3.87511 15.2719 3.87511 15.2719C3.46336 14.1987 2.86923 13.913 2.86923 13.913C2.04629 13.3364 2.93152 13.3479 2.93152 13.3479C3.84055 13.4136 4.31913 14.3056 4.31913 14.3056C5.12791 15.7254 6.44021 15.3154 6.95674 15.0773C7.03886 14.4769 7.27333 14.0675 7.53217 13.8352C5.51985 13.6006 3.40444 12.8038 3.40444 9.24347C3.40444 8.22896 3.7573 7.39969 4.33727 6.74987C4.24381 6.51468 3.93288 5.57045 4.42562 4.29113C4.42562 4.29113 5.18682 4.04141 6.91765 5.24349C7.64091 5.03734 8.41572 4.93455 9.18655 4.93049C9.95625 4.93455 10.7316 5.03734 11.4554 5.24349C13.1851 4.04141 13.9446 4.29113 13.9446 4.29113C14.4391 5.57045 14.1281 6.51468 14.0347 6.74987C14.6158 7.39969 14.9664 8.22896 14.9664 9.24347C14.9664 12.8125 12.8476 13.5982 10.829 13.8282C11.1541 14.1151 11.4441 14.6819 11.4441 15.5489C11.4441 16.791 11.4328 17.7927 11.4328 18.0976C11.4328 18.3462 11.5959 18.6354 12.0558 18.5442C15.6539 17.3131 18.2479 13.8328 18.2479 9.72951C18.2479 4.59715 14.1904 0.4375 9.1854 0.4375Z"
    />
</svg>