<svg
width="19"
height="19"
viewBox="0 0 19 19"
fill="none"
xmlns="http://www.w3.org/2000/svg"
>
<path
    fillRule="evenodd"
    clipRule="evenodd"
    d="M9.06137 0C4.05748 0 0 4.15965 0 9.29201C0 13.3965 2.59624 16.8791 6.1978 18.1079C6.6509 18.1932 6.81628 17.9063 6.81628 17.6601C6.81628 17.4394 6.80834 16.8553 6.80381 16.08C4.28289 16.6416 3.75108 14.8344 3.75108 14.8344C3.33933 13.7612 2.74521 13.4755 2.74521 13.4755C1.92227 12.8989 2.8075 12.9104 2.8075 12.9104C3.71653 12.9761 4.19511 13.8681 4.19511 13.8681C5.00388 15.2879 6.31618 14.8779 6.83271 14.6398C6.91484 14.0394 7.14931 13.63 7.40814 13.3977C5.39582 13.1631 3.28042 12.3663 3.28042 8.80597C3.28042 7.79146 3.63328 6.96219 4.21324 6.31237C4.11979 6.07718 3.80886 5.13295 4.3016 3.85363C4.3016 3.85363 5.06279 3.60391 6.79363 4.80599C7.51688 4.59984 8.29169 4.49705 9.06252 4.49299C9.83222 4.49705 10.6076 4.59984 11.3314 4.80599C13.0611 3.60391 13.8206 3.85363 13.8206 3.85363C14.3151 5.13295 14.0041 6.07718 13.9107 6.31237C14.4918 6.96219 14.8423 7.79146 14.8423 8.80597C14.8423 12.375 12.7235 13.1607 10.705 13.3907C11.0301 13.6776 11.3201 14.2444 11.3201 15.1114C11.3201 16.3535 11.3087 17.3552 11.3087 17.6601C11.3087 17.9087 11.4719 18.1979 11.9318 18.1067C15.5299 16.8756 18.1239 13.3953 18.1239 9.29201C18.1239 4.15965 14.0664 0 9.06137 0Z"
    fill="url(#paint0_linear)"
/>
<defs>
    <linearGradient
    id="paint0_linear"
    x1="18.1239"
    y1="9.06193"
    x2="-1.28522e-08"
    y2="9.06193"
    gradientUnits="userSpaceOnUse"
    >
    <stop stopColor="#C08AFF" />
    <stop offset="1" stopColor="#A0F2E0" />
    </linearGradient>
</defs>
</svg>