<svg width="16" height="14" viewBox="0 0 16 14" fill="none" xmlns="http://www.w3.org/2000/svg">
<path d="M11.9717 4.37589C11.6912 4.21559 11.3305 4.21559 11.0099 4.37589L8.7656 5.6984L7.24271 6.54L5.03852 7.86252C4.75799 8.02282 4.3973 8.02282 4.07669 7.86252L2.35342 6.82054C2.07288 6.66023 1.8725 6.33962 1.8725 5.97894V3.97513C1.8725 3.65452 2.03281 3.33391 2.35342 3.13353L4.07669 2.13163C4.35722 1.97132 4.71791 1.97132 5.03852 2.13163L6.76179 3.17361C7.04233 3.33391 7.24271 3.65452 7.24271 4.01521V5.33772L8.7656 4.45604V3.09345C8.7656 2.77284 8.6053 2.45224 8.28469 2.25185L5.0786 0.368275C4.79806 0.207971 4.43738 0.207971 4.11677 0.368275L0.830523 2.29193C0.509914 2.45224 0.349609 2.77284 0.349609 3.09345V6.86061C0.349609 7.18122 0.509914 7.50183 0.830523 7.70221L4.07669 9.58579C4.35722 9.7461 4.71791 9.7461 5.03852 9.58579L7.24271 8.30335L8.7656 7.42168L10.9698 6.13924C11.2503 5.97894 11.611 5.97894 11.9316 6.13924L13.6549 7.14115C13.9354 7.30145 14.1358 7.62206 14.1358 7.98275V9.98655C14.1358 10.3072 13.9755 10.6278 13.6549 10.8282L11.9717 11.8301C11.6912 11.9904 11.3305 11.9904 11.0099 11.8301L9.28659 10.8282C9.00606 10.6678 8.80568 10.3472 8.80568 9.98655V8.70412L7.28278 9.58579V10.9083C7.28278 11.2289 7.44309 11.5495 7.7637 11.7499L11.0099 13.6335C11.2904 13.7938 11.6511 13.7938 11.9717 13.6335L15.2179 11.7499C15.4984 11.5896 15.6988 11.269 15.6988 10.9083V7.10107C15.6988 6.78046 15.5385 6.45985 15.2179 6.25947L11.9717 4.37589Z" fill="#A0F2E0"/>
</svg>
