<svg width="16" height="19" viewBox="0 0 16 19" fill="none" xmlns="http://www.w3.org/2000/svg">
<path d="M0.318567 10.4107L11.3577 0.847067C11.3577 0.847067 12.239 0.702076 11.9775 1.41566C11.7159 2.12923 8.47213 8.36097 8.47213 8.36097L14.6385 8.32685C14.6385 8.32685 15.2327 8.39508 14.9569 9.00347C14.6811 9.61186 3.70167 18.7292 3.70167 18.7292C3.70167 18.7292 2.97103 18.7292 3.15298 18.1833C3.33493 17.6375 6.6896 11.2636 6.6896 11.2636L0.4664 11.2039C0.4664 11.2039 0.111032 11.093 0.130933 10.8173C0.133065 10.7403 0.150795 10.6646 0.183048 10.5948C0.2153 10.5249 0.261405 10.4623 0.318567 10.4107Z" fill="#13203D"/>
</svg>
