<svg width="32" height="32" viewBox="0 0 32 32" fill="none" xmlns="http://www.w3.org/2000/svg">
<path d="M23.4726 10.5988C22.906 10.275 22.1775 10.275 21.53 10.5988L16.9974 13.2698L13.9217 14.9695L9.46997 17.6406C8.90339 17.9643 8.17493 17.9643 7.52742 17.6406L4.047 15.5361C3.48042 15.2124 3.07572 14.5648 3.07572 13.8364V9.78939C3.07572 9.14187 3.39948 8.49435 4.047 8.08965L7.52742 6.06615C8.094 5.74239 8.82245 5.74239 9.46997 6.06615L12.9504 8.17059C13.517 8.49435 13.9217 9.14187 13.9217 9.87033V12.5413L16.9974 10.7607V8.00871C16.9974 7.36119 16.6736 6.71367 16.0261 6.30897L9.55091 2.50479C8.98433 2.18103 8.25587 2.18103 7.60835 2.50479L0.971279 6.38991C0.32376 6.71367 0 7.36119 0 8.00871V15.6171C0 16.2646 0.32376 16.9121 0.971279 17.3168L7.52742 21.121C8.094 21.4447 8.82245 21.4447 9.46997 21.121L13.9217 18.5309L16.9974 16.7502L21.4491 14.1601C22.0157 13.8364 22.7441 13.8364 23.3916 14.1601L26.8721 16.1836C27.4386 16.5074 27.8433 17.1549 27.8433 17.8834V21.9304C27.8433 22.5779 27.5196 23.2254 26.8721 23.6301L23.4726 25.6536C22.906 25.9774 22.1775 25.9774 21.53 25.6536L18.0496 23.6301C17.483 23.3064 17.0783 22.6588 17.0783 21.9304V19.3403L14.0026 21.121V23.792C14.0026 24.4395 14.3264 25.087 14.9739 25.4917L21.53 29.2959C22.0966 29.6197 22.8251 29.6197 23.4726 29.2959L30.0287 25.4917C30.5953 25.168 31 24.5205 31 23.792V16.1027C31 15.4552 30.6762 14.8077 30.0287 14.403L23.4726 10.5988Z" fill="#E9ECFF"/>
</svg>
