<svg width="32" height="32" viewBox="0 0 32 32" fill="none" xmlns="http://www.w3.org/2000/svg">
<path fill-rule="evenodd" clip-rule="evenodd" d="M31.4077 6.1936C30.2687 6.71567 29.0423 7.06872 27.7558 7.22647C29.0696 6.4152 30.0776 5.12881 30.5525 3.59642C29.3225 4.34759 27.9633 4.89407 26.5113 5.18702C25.354 3.91191 23.7 3.11566 21.8695 3.11566C18.3596 3.11566 15.512 6.05463 15.512 9.67904C15.512 10.1936 15.5665 10.6931 15.6757 11.1739C10.3899 10.8997 5.70448 8.28937 2.56572 4.31378C2.01803 5.28655 1.70506 6.4152 1.70506 7.61707C1.70506 9.89313 2.82775 11.9025 4.5345 13.08C3.49371 13.0481 2.51113 12.7495 1.6523 12.2612V12.342C1.6523 15.5232 3.84488 18.1767 6.75619 18.7776C6.22305 18.9316 5.66081 19.0086 5.08037 19.0086C4.67097 19.0086 4.27066 18.9692 3.88309 18.8922C4.6928 21.4988 7.04003 23.3974 9.82398 23.4481C7.64777 25.2096 4.90386 26.2593 1.92523 26.2593C1.41211 26.2593 0.904457 26.2293 0.407715 26.1692C3.22259 28.0283 6.56695 29.1157 10.157 29.1157C21.8568 29.1157 28.2526 19.1157 28.2526 10.4415C28.2526 10.156 28.2471 9.87059 28.2362 9.59078C29.479 8.66496 30.558 7.51003 31.4077 6.1936Z" fill="#E9ECFF"/>
</svg>
