<svg width="15" height="15" viewBox="0 0 15 15" fill="none" xmlns="http://www.w3.org/2000/svg">
<path d="M2.95621 6.87512C2.9562 6.79697 2.97163 6.71959 3.00161 6.64742C3.03159 6.57525 3.07553 6.50972 3.13092 6.45458C3.1863 6.39945 3.25203 6.3558 3.32434 6.32614C3.39664 6.29648 3.47409 6.2814 3.55224 6.28177L4.54038 6.28501C4.69794 6.28501 4.84904 6.3476 4.96045 6.45901C5.07186 6.57042 5.13445 6.72152 5.13445 6.87908V10.6156C5.24576 10.5826 5.38853 10.5475 5.54492 10.5108C5.65351 10.4852 5.75028 10.4237 5.81955 10.3363C5.88882 10.2489 5.92653 10.1406 5.92656 10.029V5.39417C5.92655 5.23659 5.98913 5.08547 6.10054 4.97403C6.21195 4.8626 6.36305 4.79998 6.52063 4.79995H7.51078C7.66835 4.79999 7.81945 4.86261 7.93086 4.97405C8.04226 5.08548 8.10485 5.2366 8.10485 5.39417V9.69594C8.10485 9.69594 8.35263 9.59558 8.59418 9.49366C8.68387 9.45572 8.76041 9.39221 8.81424 9.31105C8.86808 9.2299 8.89683 9.13469 8.89691 9.0373V3.90873C8.8969 3.83072 8.91226 3.75348 8.94211 3.68141C8.97195 3.60933 9.0157 3.54384 9.07086 3.48868C9.12601 3.43352 9.19149 3.38976 9.26356 3.3599C9.33563 3.33004 9.41287 3.31467 9.49088 3.31466H10.481C10.6386 3.31466 10.7897 3.37725 10.9011 3.48866C11.0125 3.60007 11.0751 3.75117 11.0751 3.90873V8.13183C11.9335 7.50974 12.8035 6.76147 13.4939 5.86177C13.594 5.73117 13.6603 5.57781 13.6868 5.41537C13.7133 5.25293 13.6991 5.08645 13.6456 4.93081C13.1785 3.56946 12.3023 2.38563 11.1368 1.54118C9.97136 0.696723 8.57349 0.232868 7.13438 0.213037C3.2537 0.160906 0.0465274 3.32872 0.0469086 7.20987C0.0430982 8.438 0.363636 9.64536 0.97611 10.7099C1.06057 10.8555 1.18484 10.9739 1.3343 11.0514C1.48376 11.1288 1.65221 11.162 1.81987 11.147C2.00719 11.1305 2.2404 11.1072 2.51763 11.0746C2.6383 11.0609 2.7497 11.0033 2.83062 10.9127C2.91154 10.8221 2.95633 10.705 2.95645 10.5835V6.87512" fill="white"/>
<path d="M2.93755 12.8675C3.9812 13.6267 5.21455 14.0824 6.50113 14.1842C7.78771 14.286 9.07737 14.0299 10.2274 13.4443C11.3775 12.8586 12.3431 11.9662 13.0175 10.8658C13.6919 9.76542 14.0487 8.49992 14.0485 7.20932C14.0485 7.04821 14.041 6.88891 14.0303 6.73047C11.4741 10.5426 6.75456 12.325 2.9375 12.8676" fill="#BFCFDA"/>
</svg>
