<svg width="19" height="18" viewBox="0 0 19 18" fill="none" xmlns="http://www.w3.org/2000/svg">
<rect x="0.5" width="18" height="18" rx="9" fill="#E9ECFF"/>
<g clip-path="url(#clip0_3979_227806)">
<path fill-rule="evenodd" clip-rule="evenodd" d="M16.0483 4.89909C15.5671 5.11486 15.049 5.26078 14.5055 5.32598C15.0605 4.99068 15.4864 4.459 15.687 3.82565C15.1674 4.13612 14.5932 4.36198 13.9797 4.48306C13.4908 3.95605 12.792 3.62695 12.0187 3.62695C10.5358 3.62695 9.3328 4.84165 9.3328 6.33965C9.3328 6.55231 9.35586 6.75878 9.40199 6.95748C7.16886 6.84416 5.1894 5.76528 3.86336 4.12215C3.63198 4.5242 3.49975 4.99067 3.49975 5.48742C3.49975 6.42813 3.97406 7.25863 4.69512 7.74528C4.25541 7.73209 3.8403 7.60868 3.47746 7.40687V7.44025C3.47746 8.75507 4.40377 9.85179 5.63372 10.1002C5.40849 10.1638 5.17095 10.1956 4.92573 10.1956C4.75277 10.1956 4.58365 10.1793 4.41991 10.1475C4.76199 11.2248 5.75364 12.0095 6.92978 12.0305C6.01039 12.7585 4.85116 13.1924 3.59277 13.1924C3.37599 13.1924 3.16152 13.18 2.95166 13.1551C4.14087 13.9235 5.55378 14.3729 7.07046 14.3729C12.0133 14.3729 14.7154 10.2399 14.7154 6.65477C14.7154 6.53679 14.7131 6.41881 14.7085 6.30317C15.2335 5.92052 15.6893 5.44318 16.0483 4.89909Z" fill="#1C2847"/>
</g>
<defs>
<clipPath id="clip0_3979_227806">
<rect width="13.0967" height="10.746" fill="white" transform="translate(2.95166 3.62695)"/>
</clipPath>
</defs>
</svg>
