<svg
  width="29"
  height="20"
  viewBox="0 0 29 20"
  fill="none" 
  xmlns="http://www.w3.org/2000/svg">
    <path 
      fill-rule="evenodd" 
      clip-rule="evenodd" 
      d="M10.0696 13.9102C9.38522 14.5671 8.71193 15.2185 8.03864 15.8698C7.80493 16.0962 7.54341 16.2231 7.20398 16.2066C6.97584 16.1955 6.84786 16.0962 6.77552 15.8809C6.53882 15.1509 6.29974 14.4209 6.06048 13.6904C5.78235 12.8412 5.50377 11.9907 5.22862 11.1391C5.17854 10.9846 5.10621 10.9128 4.9504 10.8631C3.74293 10.4988 2.5299 10.1235 1.32799 9.74257C1.14437 9.68185 0.955177 9.61009 0.79381 9.49969C0.543413 9.33409 0.527276 9.01282 0.749851 8.8141C0.955733 8.63194 1.18332 8.52816 1.43928 8.4288C2.58183 7.98139 3.72769 7.54384 4.87431 7.10601C5.21309 6.97664 5.55194 6.84726 5.89078 6.71758C7.77445 5.99717 9.65812 5.27537 11.5418 4.55358L11.5462 4.55187C13.4282 3.83074 15.3101 3.10961 17.192 2.38985C17.9449 2.12379 18.5325 2.3203 18.3828 3.27306C18.3458 3.63654 18.2661 3.997 18.1866 4.35667C18.1586 4.48314 18.1307 4.60951 18.1046 4.73588L17.7395 6.44609C17.0431 9.70824 16.3462 12.9732 15.6451 16.2342C15.4504 17.145 14.8049 17.3823 14.0537 16.8303C12.7914 15.9091 11.5292 14.9823 10.2669 14.0556L10.2652 14.0543L10.2644 14.0537C10.2032 14.0041 10.142 13.9599 10.0696 13.9102ZM7.14335 14.8205C7.17284 14.9116 7.30695 14.8978 7.3164 14.8023C7.37873 14.1725 7.48612 12.9708 7.53842 12.3487C7.55512 12.1555 7.62189 12.0175 7.76656 11.885C8.8759 10.9003 9.98523 9.90562 11.0897 8.91525L11.2499 8.77167C11.9579 8.13927 12.7908 7.3742 13.6102 6.62158C14.0053 6.2587 14.3972 5.89871 14.7705 5.55789C14.9713 5.37462 14.7371 5.05777 14.5017 5.19467C14.4986 5.1966 14.4954 5.1984 14.4922 5.20019C14.489 5.20198 14.4858 5.20378 14.4828 5.20571C13.0666 6.09168 11.6491 6.97765 10.2316 7.86362C8.81406 8.74959 7.39653 9.63556 5.9804 10.5215C5.81903 10.6209 5.79121 10.7037 5.85242 10.8803C6.0241 11.3644 6.18111 11.8521 6.33834 12.3405C6.37474 12.4535 6.41119 12.5668 6.4478 12.6799C6.63143 13.2385 6.96251 14.2614 7.14335 14.8205Z" 
      fill="#FFF"/>
</svg>