<svg width="16" height="14" viewBox="0 0 16 14" fill="none" xmlns="http://www.w3.org/2000/svg">
<path d="M11.528 8.51034C11.8929 7.88 12.4818 7.88 12.8467 8.51034L15.1192 12.4997C15.4842 13.13 15.1856 13.6443 14.4557 13.6443H9.87748C9.15591 13.6443 8.85733 13.13 9.21396 12.4997L11.528 8.51034ZM7.13219 0.830175C7.49713 0.199838 8.0777 0.199838 8.44263 0.830175L8.94856 1.7425L10.1429 3.84086C10.4332 4.43803 10.4332 5.14301 10.1429 5.74017L6.13692 12.6822C5.77199 13.2462 5.16654 13.6028 4.49473 13.6443H1.16887C0.439009 13.6443 0.140428 13.1383 0.50536 12.4997L7.13219 0.830175Z" fill="#A0F2E0"/>
</svg>
