<svg width="13" height="14" viewBox="0 0 13 14" fill="none" xmlns="http://www.w3.org/2000/svg">
<path d="M11.6337 3.82656L11.1665 4.29377C11.5379 4.87778 11.6547 5.61033 11.4001 6.31051C10.9755 7.49948 9.65953 8.12602 8.45977 7.70135C8.28964 7.63787 8.13095 7.5636 7.99256 7.46774L6.49572 8.96459L5.18994 7.64802C4.58499 8.05112 3.8099 8.16792 3.07735 7.91337C1.84585 7.46774 1.20915 6.11944 1.65478 4.89873C1.71826 4.70766 1.81411 4.53753 1.92012 4.37883L1.35769 3.81641L1.25168 3.99669C0.667673 4.95205 0.349641 6.05596 0.349641 7.19161C0.338849 10.5776 3.09893 13.3485 6.48492 13.3485H6.49572C9.88171 13.3485 12.6316 10.5992 12.6418 7.21255C12.6418 6.08706 12.3339 4.98316 11.7499 4.01764L11.6337 3.82656Z" fill="#D0D7FB"/>
<path d="M2.61138 5.06861C2.45205 5.28063 2.35683 5.54661 2.35683 5.8329C2.35683 6.52292 2.91926 7.08535 3.60928 7.08535C3.8962 7.08535 4.16155 6.98949 4.37357 6.82L2.61138 5.06861ZM8.75746 6.71336C8.95932 6.85111 9.19293 6.92538 9.45827 6.92538C10.1483 6.92538 10.7107 6.36295 10.7107 5.67293C10.7107 5.41838 10.6364 5.17398 10.4987 4.97212L8.75746 6.71336ZM6.51727 8.02992L1.44336 2.93443L1.64522 2.72241C2.89767 1.39569 4.60654 0.652344 6.443 0.652344H6.45379C8.3112 0.652344 10.095 1.44838 11.3366 2.82842L11.5277 3.04044L6.51727 8.02992ZM2.27177 2.93443L6.5179 7.19136L10.7107 3.01949C9.58523 1.89464 8.05664 1.24651 6.46458 1.24651H6.45379C4.87188 1.24651 3.39662 1.84131 2.27177 2.93443Z" fill="#D0D7FB"/>
</svg>
