<svg
  width="19"
  height="15"
  viewBox="0 0 19 15"
  fill="none"
  xmlns="http://www.w3.org/2000/svg"
>
  <g clipPath="url(#clip0)">
    <path
      d="M15.6216 1.29199C14.4454 0.744609 13.1842 0.341323 11.8655 0.110344C11.8415 0.105886 11.8175 0.117026 11.8051 0.139308C11.6429 0.431929 11.4632 0.813678 11.3374 1.11373C9.91903 0.898353 8.50794 0.898353 7.11866 1.11373C6.99281 0.807008 6.80661 0.431929 6.64368 0.139308C6.6313 0.11777 6.60731 0.10663 6.5833 0.110344C5.26531 0.340585 4.00406 0.743871 2.82717 1.29199C2.81698 1.29645 2.80825 1.30388 2.80245 1.31353C0.410121 4.93868 -0.245239 8.47472 0.0762589 11.9669C0.0777136 11.984 0.0871693 12.0004 0.100262 12.0107C1.67865 13.1864 3.2076 13.9002 4.70815 14.3733C4.73216 14.3807 4.75761 14.3718 4.77289 14.3517C5.12784 13.8601 5.44425 13.3417 5.71555 12.7965C5.73156 12.7646 5.71627 12.7267 5.68355 12.7141C5.18167 12.521 4.70378 12.2855 4.24408 12.0182C4.20772 11.9966 4.20481 11.9439 4.23826 11.9186C4.335 11.8451 4.43176 11.7686 4.52413 11.6914C4.54084 11.6773 4.56413 11.6743 4.58378 11.6832C7.6038 13.0817 10.8733 13.0817 13.8577 11.6832C13.8774 11.6735 13.9007 11.6765 13.9181 11.6906C14.0105 11.7679 14.1072 11.8451 14.2047 11.9186C14.2381 11.9439 14.236 11.9966 14.1996 12.0182C13.7399 12.2907 13.262 12.521 12.7594 12.7133C12.7267 12.726 12.7121 12.7646 12.7281 12.7965C13.0052 13.3409 13.3217 13.8593 13.6701 14.351C13.6846 14.3718 13.7108 14.3807 13.7348 14.3733C15.2426 13.9002 16.7716 13.1864 18.35 12.0107C18.3638 12.0004 18.3725 11.9847 18.374 11.9677C18.7587 7.93029 17.7295 4.42325 15.6456 1.31427C15.6405 1.30388 15.6318 1.29645 15.6216 1.29199ZM6.16654 9.84054C5.2573 9.84054 4.50812 8.99387 4.50812 7.95407C4.50812 6.91428 5.24277 6.06761 6.16654 6.06761C7.09755 6.06761 7.83948 6.92171 7.82493 7.95407C7.82493 8.99387 7.09027 9.84054 6.16654 9.84054ZM12.2982 9.84054C11.389 9.84054 10.6399 8.99387 10.6399 7.95407C10.6399 6.91428 11.3745 6.06761 12.2982 6.06761C13.2293 6.06761 13.9712 6.92171 13.9567 7.95407C13.9567 8.99387 13.2293 9.84054 12.2982 9.84054Z"
      fill="url(#paint0_linear)"
    />
  </g>
  <defs>
    <linearGradient
      id="paint0_linear"
      x1="18.4534"
      y1="7.24262"
      x2="-1.30859e-08"
      y2="7.24262"
      gradientUnits="userSpaceOnUse"
    >
      <stop stopColor="#C08AFF" />
      <stop offset="1" stopColor="#A0F2E0" />
    </linearGradient>
    <clipPath id="clip0">
      <rect width="18.4534" height="14.4991" fill="white" />
    </clipPath>
  </defs>
</svg>