<svg width="40" height="40" viewBox="0 0 40 40" fill="none" xmlns="http://www.w3.org/2000/svg">
<path fill-rule="evenodd" clip-rule="evenodd" d="M19.9093 0.442139C9.11067 0.442139 0.354492 9.41882 0.354492 20.4946C0.354492 29.3523 5.95728 36.8678 13.7296 39.5196C14.7074 39.7038 15.0643 39.0847 15.0643 38.5533C15.0643 38.0771 15.0471 36.8164 15.0374 35.1434C9.59713 36.3552 8.44946 32.4553 8.44946 32.4553C7.56089 30.1393 6.27875 29.5228 6.27875 29.5228C4.50282 28.2783 6.41318 28.3033 6.41318 28.3033C8.37489 28.445 9.40768 30.3699 9.40768 30.3699C11.1531 33.434 13.985 32.5492 15.0997 32.0354C15.277 30.7396 15.783 29.8561 16.3415 29.3548C11.9989 28.8485 7.43376 27.1291 7.43376 19.4457C7.43376 17.2564 8.19524 15.4668 9.44682 14.0645C9.24515 13.5569 8.57414 11.5192 9.6375 8.75841C9.6375 8.75841 11.2802 8.21951 15.0154 10.8136C16.5762 10.3688 18.2483 10.1469 19.9117 10.1382C21.5728 10.1469 23.246 10.3688 24.8081 10.8136C28.5408 8.21951 30.1799 8.75841 30.1799 8.75841C31.2469 11.5192 30.5759 13.5569 30.3742 14.0645C31.6282 15.4668 32.3848 17.2564 32.3848 19.4457C32.3848 27.1479 27.8124 28.8435 23.4563 29.3398C24.1578 29.9588 24.7836 31.182 24.7836 33.053C24.7836 35.7336 24.7592 37.8954 24.7592 38.5533C24.7592 39.0897 25.1112 39.7138 26.1037 39.517C33.8686 36.8602 39.4665 29.3498 39.4665 20.4946C39.4665 9.41882 30.7103 0.442139 19.9093 0.442139Z" fill="#E9ECFF"/>
</svg>
