<svg width="32" height="32" viewBox="0 0 32 32" fill="none" xmlns="http://www.w3.org/2000/svg">
<path d="M23.9726 10.6968C23.406 10.3731 22.6775 10.3731 22.03 10.6968L17.4974 13.3678L14.4217 15.0676L9.96997 17.7386C9.40339 18.0623 8.67494 18.0623 8.02742 17.7386L4.547 15.6342C3.98042 15.3104 3.57572 14.6629 3.57572 13.9344V9.88741C3.57572 9.2399 3.89948 8.59238 4.547 8.18768L8.02742 6.16418C8.594 5.84042 9.32245 5.84042 9.96997 6.16418L13.4504 8.26862C14.017 8.59238 14.4217 9.2399 14.4217 9.96836V12.6394L17.4974 10.8587V8.10674C17.4974 7.45922 17.1736 6.8117 16.5261 6.407L10.0509 2.60282C9.48433 2.27906 8.75587 2.27906 8.10836 2.60282L1.47128 6.48794C0.82376 6.8117 0.5 7.45922 0.5 8.10674V15.7151C0.5 16.3626 0.82376 17.0101 1.47128 17.4148L8.02742 21.219C8.594 21.5428 9.32245 21.5428 9.96997 21.219L14.4217 18.6289L17.4974 16.8483L21.9491 14.2582C22.5157 13.9344 23.2441 13.9344 23.8916 14.2582L27.3721 16.2817C27.9386 16.6054 28.3433 17.253 28.3433 17.9814V22.0284C28.3433 22.6759 28.0196 23.3234 27.3721 23.7281L23.9726 25.7516C23.406 26.0754 22.6775 26.0754 22.03 25.7516L18.5496 23.7281C17.983 23.4044 17.5783 22.7569 17.5783 22.0284V19.4383L14.5026 21.219V23.89C14.5026 24.5375 14.8264 25.1851 15.4739 25.5898L22.03 29.3939C22.5966 29.7177 23.3251 29.7177 23.9726 29.3939L30.5287 25.5898C31.0953 25.266 31.5 24.6185 31.5 23.89V16.2007C31.5 15.5532 31.1762 14.9057 30.5287 14.501L23.9726 10.6968Z" fill="#7C87C4"/>
</svg>
