<svg
        width="19"
        height="15"
        viewBox="0 0 19 15"
        fill="current"
        xmlns="http://www.w3.org/2000/svg"
    >
    <path
        fill='white'
        d="M15.8692 1.54004C14.693 0.992656 13.4318 0.58937 12.113 0.358391C12.089 0.353933 12.065 0.365073 12.0527 0.387355C11.8904 0.679976 11.7108 1.06172 11.585 1.36178C10.1666 1.1464 8.7555 1.1464 7.36622 1.36178C7.24037 1.05506 7.05417 0.679976 6.89123 0.387355C6.87886 0.365817 6.85487 0.354676 6.83086 0.358391C5.51287 0.588632 4.25161 0.991918 3.07473 1.54004C3.06454 1.54449 3.05581 1.55193 3.05001 1.56158C0.65768 5.18672 0.00232005 8.72277 0.323817 12.215C0.325272 12.2321 0.334728 12.2484 0.347821 12.2588C1.92621 13.4345 3.45515 14.1482 4.9557 14.6213C4.97972 14.6288 5.00516 14.6199 5.02045 14.5998C5.3754 14.1081 5.69181 13.5897 5.9631 13.0446C5.97912 13.0126 5.96383 12.9748 5.93111 12.9621C5.42923 12.769 4.95134 12.5336 4.49164 12.2662C4.45528 12.2447 4.45237 12.1919 4.48582 12.1667C4.58255 12.0932 4.67932 12.0167 4.77169 11.9394C4.7884 11.9253 4.81169 11.9223 4.83134 11.9312C7.85136 13.3298 11.1209 13.3298 14.1053 11.9312C14.1249 11.9216 14.1482 11.9246 14.1657 11.9387C14.2581 12.0159 14.3548 12.0932 14.4523 12.1667C14.4857 12.1919 14.4835 12.2447 14.4472 12.2662C13.9875 12.5388 13.5096 12.769 13.007 12.9614C12.9742 12.974 12.9597 13.0126 12.9757 13.0446C13.2528 13.589 13.5692 14.1074 13.9176 14.5991C13.9322 14.6199 13.9584 14.6288 13.9824 14.6213C15.4902 14.1482 17.0191 13.4345 18.5975 12.2588C18.6113 12.2484 18.6201 12.2328 18.6215 12.2157C19.0063 8.17834 17.9771 4.67129 15.8932 1.56231C15.8881 1.55193 15.8794 1.54449 15.8692 1.54004ZM6.4141 10.0886C5.50486 10.0886 4.75568 9.24192 4.75568 8.20212C4.75568 7.16232 5.49033 6.31565 6.4141 6.31565C7.34511 6.31565 8.08704 7.16976 8.07249 8.20212C8.07249 9.24192 7.33783 10.0886 6.4141 10.0886ZM12.5458 10.0886C11.6366 10.0886 10.8874 9.24192 10.8874 8.20212C10.8874 7.16232 11.622 6.31565 12.5458 6.31565C13.4768 6.31565 14.2188 7.16976 14.2042 8.20212C14.2042 9.24192 13.4768 10.0886 12.5458 10.0886Z"
    />
</svg>