<svg width="17" height="17" viewBox="0 0 17 17" fill="none" xmlns="http://www.w3.org/2000/svg">
<path d="M8.74316 8.24561C8.74316 8.10753 8.85509 7.99561 8.99316 7.99561C9.13124 7.99561 9.24316 8.10753 9.24316 8.24561C9.24316 8.38368 9.13124 8.49561 8.99316 8.49561C8.85509 8.49561 8.74316 8.38368 8.74316 8.24561Z" fill="#E9ECFF" stroke="#E9ECFF" stroke-width="2"/>
<path d="M13.2432 8.24561C13.2432 8.38368 13.1312 8.49561 12.9932 8.49561C12.8551 8.49561 12.7432 8.38368 12.7432 8.24561C12.7432 8.10753 12.8551 7.99561 12.9932 7.99561C13.1312 7.99561 13.2432 8.10753 13.2432 8.24561Z" fill="#E9ECFF" stroke="#E9ECFF"/>
<path d="M4.99316 8.99561C5.40738 8.99561 5.74316 8.65982 5.74316 8.24561C5.74316 7.83139 5.40738 7.49561 4.99316 7.49561C4.57895 7.49561 4.24316 7.83139 4.24316 8.24561C4.24316 8.65982 4.57895 8.99561 4.99316 8.99561Z" fill="#E9ECFF"/>
</svg>
