<svg width="13" height="13" viewBox="0 0 13 13" fill="none" xmlns="http://www.w3.org/2000/svg">
<path d="M7.3457 5.89648H8.8457" stroke="#13203D" stroke-width="0.8" stroke-linecap="round" stroke-linejoin="round"/>
<path d="M3.5957 5.89648H5.0957" stroke="#13203D" stroke-width="0.8" stroke-linecap="round" stroke-linejoin="round"/>
<path d="M4.3457 5.14648V6.64648" stroke="#13203D" stroke-width="0.8" stroke-linecap="round" stroke-linejoin="round"/>
<path d="M8.28383 3.44727L4.15818 3.45946C3.5851 3.45951 3.03034 3.66141 2.5913 4.02974C2.15225 4.39806 1.85698 4.90927 1.75731 5.47362L1.75771 5.47369L0.99063 9.41883C0.942179 9.69372 0.982622 9.9769 1.10608 10.2272C1.22955 10.4776 1.4296 10.682 1.67719 10.8109C1.92478 10.9398 2.20701 10.9864 2.4829 10.944C2.75878 10.9015 3.01395 10.7723 3.21134 10.5749L3.21127 10.5748L5.23793 8.33446L8.28383 8.32227C8.93029 8.32227 9.55028 8.06546 10.0074 7.60834C10.4645 7.15122 10.7213 6.53123 10.7213 5.88477C10.7213 5.2383 10.4645 4.61831 10.0074 4.16119C9.55028 3.70407 8.93029 3.44727 8.28383 3.44727V3.44727Z" stroke="#13203D" stroke-width="0.9" stroke-linecap="round" stroke-linejoin="round"/>
<path d="M10.6845 5.46094L11.451 9.41827C11.4994 9.69316 11.459 9.97634 11.3355 10.2267C11.2121 10.477 11.012 10.6815 10.7644 10.8104C10.5168 10.9393 10.2346 10.9859 9.95871 10.9434C9.68283 10.901 9.42766 10.7717 9.23027 10.5743L9.23034 10.5743L7.20508 8.32603" stroke="#13203D" stroke-width="0.9" stroke-linecap="round" stroke-linejoin="round"/>
</svg>
