<svg width="12" height="13" viewBox="0 0 12 13" fill="none" xmlns="http://www.w3.org/2000/svg">
<path d="M7.125 5.16016H8.625" stroke="#A0F2E0" stroke-width="0.8" stroke-linecap="round" stroke-linejoin="round"/>
<path d="M3.375 5.16016H4.875" stroke="#A0F2E0" stroke-width="0.8" stroke-linecap="round" stroke-linejoin="round"/>
<path d="M4.125 4.41016V5.91016" stroke="#A0F2E0" stroke-width="0.8" stroke-linecap="round" stroke-linejoin="round"/>
<path d="M8.06313 2.71045L3.93748 2.72265C3.36439 2.72269 2.80964 2.92459 2.37059 3.29292C1.93155 3.66125 1.63628 4.17246 1.53661 4.73681L1.53701 4.73688L0.769926 8.68201C0.721475 8.95691 0.761918 9.24009 0.885382 9.49043C1.00884 9.74077 1.2089 9.94523 1.45649 10.0741C1.70408 10.203 1.98631 10.2496 2.26219 10.2072C2.53808 10.1647 2.79325 10.0354 2.99064 9.83808L2.99056 9.838L5.01723 7.59765L8.06313 7.58545C8.70959 7.58545 9.32958 7.32864 9.7867 6.87152C10.2438 6.4144 10.5006 5.79441 10.5006 5.14795C10.5006 4.50148 10.2438 3.8815 9.7867 3.42438C9.32958 2.96726 8.70959 2.71045 8.06313 2.71045V2.71045Z" stroke="#A0F2E0" stroke-width="0.9" stroke-linecap="round" stroke-linejoin="round"/>
<path d="M10.4638 4.72461L11.2303 8.68194C11.2787 8.95683 11.2383 9.24002 11.1148 9.49036C10.9914 9.7407 10.7913 9.94516 10.5437 10.0741C10.2961 10.2029 10.0139 10.2496 9.73801 10.2071C9.46213 10.1647 9.20696 10.0354 9.00956 9.83801L9.00964 9.83793L6.98438 7.5897" stroke="#A0F2E0" stroke-width="0.9" stroke-linecap="round" stroke-linejoin="round"/>
</svg>
