<svg width="11" height="11" viewBox="0 0 11 11" fill="none" xmlns="http://www.w3.org/2000/svg">
<path d="M5.58594 9.45215C7.65701 9.45215 9.33594 7.77322 9.33594 5.70215C9.33594 3.63108 7.65701 1.95215 5.58594 1.95215C3.51487 1.95215 1.83594 3.63108 1.83594 5.70215C1.83594 7.77322 3.51487 9.45215 5.58594 9.45215Z" stroke="#E9ECFF" stroke-width="0.550705" stroke-linecap="round" stroke-linejoin="round"/>
<path d="M6.03748 7.7334C6.03748 7.98278 5.83532 8.18494 5.58594 8.18494C5.33656 8.18494 5.1344 7.98278 5.1344 7.7334C5.1344 7.48402 5.33656 7.28186 5.58594 7.28186C5.83532 7.28186 6.03748 7.48402 6.03748 7.7334Z" fill="#E9ECFF" stroke="#E9ECFF" stroke-width="0.0344191"/>
<path d="M5.58594 6.32715V6.01465C5.80226 6.01465 6.01373 5.9505 6.19359 5.83032C6.37346 5.71014 6.51365 5.53932 6.59643 5.33946C6.67921 5.1396 6.70087 4.91969 6.65867 4.70752C6.61647 4.49535 6.5123 4.30046 6.35934 4.1475C6.20637 3.99454 6.01148 3.89037 5.79932 3.84817C5.58715 3.80596 5.36723 3.82762 5.16738 3.91041C4.96752 3.99319 4.7967 4.13338 4.67652 4.31324C4.55634 4.49311 4.49219 4.70458 4.49219 4.9209" stroke="#E9ECFF" stroke-width="0.550705" stroke-linecap="round" stroke-linejoin="round"/>
</svg>
