<svg width="21" height="21" viewBox="0 0 21 21" fill="none" xmlns="http://www.w3.org/2000/svg">
<path d="M10.5566 13.872C12.6382 13.872 14.3257 12.1846 14.3257 10.103C14.3257 8.02144 12.6382 6.33398 10.5566 6.33398C8.47505 6.33398 6.7876 8.02144 6.7876 10.103C6.7876 12.1846 8.47505 13.872 10.5566 13.872Z" stroke="#e9ecff" stroke-width="1.11675" stroke-linecap="round" stroke-linejoin="round"/>
<path d="M14.9274 5.16266C15.1286 5.34077 15.3187 5.53094 15.4968 5.73211L17.6422 6.03846C17.9901 6.64429 18.2584 7.2925 18.4403 7.96702L17.1404 9.70013C17.1404 9.70013 17.1568 10.2372 17.1405 10.5053L18.4409 12.239C18.2585 12.9134 17.9898 13.5614 17.6415 14.167L15.4968 14.4733C15.4968 14.4733 15.1287 14.8646 14.9275 15.0427L14.6212 17.1881C14.0153 17.536 13.3671 17.8043 12.6926 17.9862L10.9596 16.6864C10.6914 16.7027 10.4225 16.7027 10.1543 16.6864L8.42064 17.9868C7.74624 17.8044 7.09822 17.5357 6.49262 17.1874L6.18633 15.0429C5.98516 14.8647 5.79499 14.6746 5.61688 14.4734L3.47149 14.1671C3.12358 13.5612 2.85533 12.913 2.67342 12.2385L3.9733 10.5054C3.9733 10.5054 3.95695 9.96836 3.97325 9.70018L2.67285 7.96654C2.85523 7.29214 3.1239 6.64411 3.47223 6.03852L5.61676 5.73223C5.79488 5.53106 5.98504 5.34089 6.18621 5.16277L6.49257 3.01738C7.09839 2.66947 7.7466 2.40123 8.42112 2.21931L10.1541 3.51915C10.4223 3.50285 10.6912 3.50284 10.9594 3.51914L12.6931 2.21875C13.3675 2.40112 14.0155 2.6698 14.6211 3.01812L14.9274 5.16266Z" stroke="#e9ecff" stroke-width="1.11675" stroke-linecap="round" stroke-linejoin="round"/>
</svg>
