<svg width="17" height="17" viewBox="0 0 17 17" fill="none" xmlns="http://www.w3.org/2000/svg">
<path d="M8.99316 11.2456C10.65 11.2456 11.9932 9.90246 11.9932 8.24561C11.9932 6.58875 10.65 5.24561 8.99316 5.24561C7.33631 5.24561 5.99316 6.58875 5.99316 8.24561C5.99316 9.90246 7.33631 11.2456 8.99316 11.2456Z" stroke="#E9ECFF" stroke-linecap="round" stroke-linejoin="round"/>
<path d="M12.4719 4.31345C12.632 4.45522 12.7834 4.60659 12.9252 4.76671L14.6328 5.01056C14.9097 5.49277 15.1233 6.00872 15.2681 6.54561L14.2334 7.9251C14.2334 7.9251 14.2464 8.35256 14.2334 8.56602L15.2685 9.94593C15.1233 10.4827 14.9095 10.9985 14.6322 11.4806L12.9252 11.7244C12.9252 11.7244 12.6321 12.0359 12.472 12.1776L12.2282 13.8853C11.7459 14.1622 11.23 14.3757 10.6931 14.5205L9.31371 13.4859C9.10024 13.4989 8.88617 13.4989 8.6727 13.4859L7.29279 14.5209C6.756 14.3758 6.24019 14.1619 5.75816 13.8847L5.51436 12.1777C5.35424 12.0359 5.20288 11.8846 5.0611 11.7244L3.35346 11.4806C3.07653 10.9984 2.86302 10.4824 2.71822 9.94555L3.75288 8.56606C3.75288 8.56606 3.73986 8.1386 3.75284 7.92514L2.71777 6.54523C2.86294 6.00844 3.07679 5.49263 3.35404 5.0106L5.06101 4.7668C5.20278 4.60668 5.35415 4.45532 5.51427 4.31354L5.75812 2.6059C6.24033 2.32897 6.75628 2.11546 7.29317 1.97066L8.67257 3.00528C8.88604 2.9923 9.1001 2.9923 9.31357 3.00528L10.6935 1.97021C11.2303 2.11538 11.7461 2.32924 12.2281 2.60649L12.4719 4.31345Z" stroke="#E9ECFF" stroke-linecap="round" stroke-linejoin="round"/>
</svg>
