<svg width="17" height="17" viewBox="0 0 17 17" fill="none" xmlns="http://www.w3.org/2000/svg">
<path d="M8.99316 8.24561C12.0307 8.24561 14.4932 6.90246 14.4932 5.24561C14.4932 3.58875 12.0307 2.24561 8.99316 2.24561C5.9556 2.24561 3.49316 3.58875 3.49316 5.24561C3.49316 6.90246 5.9556 8.24561 8.99316 8.24561Z" stroke="#E9ECFF" stroke-linecap="round" stroke-linejoin="round"/>
<path d="M3.49316 5.24561V8.24561C3.49316 9.90246 5.9556 11.2456 8.99316 11.2456C12.0307 11.2456 14.4932 9.90246 14.4932 8.24561V5.24561" stroke="#E9ECFF" stroke-linecap="round" stroke-linejoin="round"/>
<path d="M3.49316 8.24561V11.2456C3.49316 12.9025 5.9556 14.2456 8.99316 14.2456C12.0307 14.2456 14.4932 12.9025 14.4932 11.2456V8.24561" stroke="#E9ECFF" stroke-linecap="round" stroke-linejoin="round"/>
</svg>
