<svg width="12" height="13" viewBox="0 0 12 13" fill="none" xmlns="http://www.w3.org/2000/svg">
<path d="M9.74994 5.52148L4.40619 10.8652C4.24614 11.0253 4.05614 11.1522 3.84702 11.2389C3.63791 11.3255 3.41378 11.3701 3.18744 11.3701C2.9611 11.3701 2.73697 11.3255 2.52786 11.2389C2.31874 11.1522 2.12874 11.0253 1.96869 10.8652V10.8652C1.80864 10.7052 1.68168 10.5152 1.59507 10.3061C1.50845 10.097 1.46387 9.87283 1.46387 9.64648C1.46387 9.42014 1.50845 9.19601 1.59507 8.9869C1.68168 8.77779 1.80864 8.58778 1.96869 8.42773L8.06244 2.33398L10.8749 5.14648L9.74994 5.52148Z" stroke="#13203D" stroke-linecap="round" stroke-linejoin="round"/>
<path d="M3.1875 7.20931C3.1875 7.20931 4.125 6.45931 5.625 7.20931C7.125 7.95931 8.0625 7.20931 8.0625 7.20931" stroke="#13203D" stroke-linecap="round" stroke-linejoin="round"/>
</svg>
