<svg width="12" height="13" viewBox="0 0 12 13" fill="none" xmlns="http://www.w3.org/2000/svg">
<path d="M9.75092 5.52148L4.40717 10.8652C4.24712 11.0253 4.05711 11.1522 3.848 11.2389C3.63889 11.3255 3.41476 11.3701 3.18842 11.3701C2.96207 11.3701 2.73795 11.3255 2.52883 11.2389C2.31972 11.1522 2.12972 11.0253 1.96967 10.8652V10.8652C1.80962 10.7052 1.68266 10.5152 1.59604 10.3061C1.50943 10.097 1.46484 9.87283 1.46484 9.64648C1.46484 9.42014 1.50943 9.19601 1.59604 8.9869C1.68266 8.77779 1.80962 8.58778 1.96967 8.42773L8.06342 2.33398L10.8759 5.14648L9.75092 5.52148Z" stroke="#13203D" stroke-linecap="round" stroke-linejoin="round"/>
<path d="M3.1875 7.20931C3.1875 7.20931 4.125 6.45931 5.625 7.20931C7.125 7.95931 8.0625 7.20931 8.0625 7.20931" stroke="#13203D" stroke-linecap="round" stroke-linejoin="round"/>
</svg>
