<svg width="12" height="13" viewBox="0 0 12 13" fill="none" xmlns="http://www.w3.org/2000/svg">
<path d="M9.74994 4.78516L4.40619 10.1289C4.24614 10.289 4.05614 10.4159 3.84702 10.5025C3.63791 10.5891 3.41378 10.6337 3.18744 10.6337C2.9611 10.6337 2.73697 10.5891 2.52786 10.5025C2.31874 10.4159 2.12874 10.289 1.96869 10.1289V10.1289C1.80864 9.96886 1.68168 9.77885 1.59507 9.56974C1.50845 9.36063 1.46387 9.1365 1.46387 8.91016C1.46387 8.68381 1.50845 8.45969 1.59507 8.25057C1.68168 8.04146 1.80864 7.85145 1.96869 7.69141L8.06244 1.59766L10.8749 4.41016L9.74994 4.78516Z" stroke="#E2C488" stroke-linecap="round" stroke-linejoin="round"/>
<path d="M3.1875 6.47298C3.1875 6.47298 4.125 5.72298 5.625 6.47298C7.125 7.22298 8.0625 6.47298 8.0625 6.47298" stroke="#E2C488" stroke-linecap="round" stroke-linejoin="round"/>
</svg>
