<svg width="26" height="26" viewBox="0 0 26 26" fill="none" xmlns="http://www.w3.org/2000/svg">
<path d="M12.5688 25.5851L1.01758 19.9463V8.30127L12.5688 13.9392V25.5851Z" fill="#E9ECFF" stroke="#13203D" stroke-width="0.0627138" stroke-linecap="round" stroke-linejoin="round"/>
<path d="M11.688 24.3157L1.9082 19.5421V9.68408L11.688 14.4577V24.3157Z" fill="#13203D" stroke="#E9ECFF" stroke-width="0.0627138" stroke-linecap="round" stroke-linejoin="round"/>
<path d="M24.85 17.6997L12.5713 25.5939V13.9489L24.85 6.05469V17.6997Z" fill="#E9ECFF" stroke="#13203D" stroke-width="0.0627138" stroke-linecap="round" stroke-linejoin="round"/>
<path d="M23.7654 17.4391L13.6504 23.9414V14.3489L23.7654 7.8457V17.4391Z" fill="#13203D" stroke="#E9ECFF" stroke-width="0.0627138" stroke-linecap="round" stroke-linejoin="round"/>
<path d="M13.2963 0.40625L1.01758 8.30133L12.5696 13.9402L24.8527 6.0538L13.2963 0.40625Z" fill="#E9ECFF" stroke="#13203D" stroke-width="0.0627138" stroke-linecap="round" stroke-linejoin="round"/>
<path d="M13.1222 1.50098L2.8291 8.11822L12.5121 12.8448L22.8078 6.23454L13.1213 1.50098H13.1222Z" fill="#13203D" stroke="#13203D" stroke-width="0.0627138" stroke-linecap="round" stroke-linejoin="round"/>
<path d="M0.8125 10.269L2.18727 10.9402V12.2137L0.8125 11.5312V10.269Z" fill="#13203D" stroke="#E9ECFF" stroke-width="0.0627138" stroke-linecap="round" stroke-linejoin="round"/>
<path d="M1.00519 10.1133L2.37996 10.7844L2.18727 10.9402L0.8125 10.2691L1.00519 10.1133Z" fill="#13203D" stroke="#E9ECFF" stroke-width="0.0627138" stroke-linecap="round" stroke-linejoin="round"/>
<path d="M2.1875 10.9405V12.214L2.38019 12.0582V10.7847L2.1875 10.9405Z" fill="#13203D" stroke="#E9ECFF" stroke-width="0.0627138" stroke-linecap="round" stroke-linejoin="round"/>
<path d="M0.8125 17.0942L2.18727 17.7654V19.0388L0.8125 18.3555V17.0942Z" fill="#13203D" stroke="#E9ECFF" stroke-width="0.0627138" stroke-linecap="round" stroke-linejoin="round"/>
<path d="M1.00519 16.9385L2.37996 17.6096L2.18727 17.7654L0.8125 17.0943L1.00519 16.9385Z" fill="#13203D" stroke="#E9ECFF" stroke-width="0.0627138" stroke-linecap="round" stroke-linejoin="round"/>
<path d="M2.1875 17.7647V19.0382L2.38019 18.8824V17.6089L2.1875 17.7647Z" fill="#13203D" stroke="#E9ECFF" stroke-width="0.0627138" stroke-linecap="round" stroke-linejoin="round"/>
<path d="M11.1967 15.0182L12.6121 15.6946L13.973 14.8154L14.1614 14.9338L12.6121 15.9488L11.0049 15.1741L11.1967 15.0182Z" fill="#13203D" stroke="#E9ECFF" stroke-width="0.0627138" stroke-linecap="round" stroke-linejoin="round"/>
<path d="M12.6104 15.9481V17.2224L14.1597 16.2075V14.9331L12.6104 15.9481Z" fill="#13203D" stroke="#E9ECFF" stroke-width="0.0627138" stroke-linecap="round" stroke-linejoin="round"/>
<path d="M11.0049 15.1733L12.6121 15.9481V17.2224L11.0049 16.4355V15.1733Z" fill="#13203D" stroke="#E9ECFF" stroke-width="0.0627138" stroke-linecap="round" stroke-linejoin="round"/>
<path d="M11.1967 21.6618L12.6121 22.3382L13.973 21.459L14.1614 21.5774L12.6121 22.5923L11.0049 21.8176L11.1967 21.6618Z" fill="#13203D" stroke="#E9ECFF" stroke-width="0.0627138" stroke-linecap="round" stroke-linejoin="round"/>
<path d="M12.6104 22.5916V23.8651L14.1597 22.8501V21.5767L12.6104 22.5916Z" fill="#13203D" stroke="#E9ECFF" stroke-width="0.0627138" stroke-linecap="round" stroke-linejoin="round"/>
<path d="M11.0049 21.8169L12.6121 22.5916V23.8651L11.0049 23.0791V21.8169Z" fill="#13203D" stroke="#E9ECFF" stroke-width="0.0627138" stroke-linecap="round" stroke-linejoin="round"/>
<path d="M23.2568 15.7016L24.864 14.6797L25.0524 14.7981L23.5031 15.8139L23.2568 15.7016Z" fill="#13203D" stroke="#E9ECFF" stroke-width="0.0627138" stroke-linecap="round" stroke-linejoin="round"/>
<path d="M23.5029 15.8147V17.0881L25.0522 16.0732V14.7988L23.5029 15.8147Z" fill="#13203D" stroke="#E9ECFF" stroke-width="0.0627138" stroke-linecap="round" stroke-linejoin="round"/>
<path d="M23.5031 15.8135V17.0869L23.2568 16.8885V15.7012L23.5031 15.8135Z" fill="#13203D" stroke="#E9ECFF" stroke-width="0.0627138" stroke-linecap="round" stroke-linejoin="round"/>
<path d="M23.2568 9.32281L24.864 8.30176L25.0524 8.42014L23.5031 9.4351L23.2568 9.32281Z" fill="#13203D" stroke="#E9ECFF" stroke-width="0.0627138" stroke-linecap="round" stroke-linejoin="round"/>
<path d="M23.5029 9.43586V10.7093L25.0522 9.69438V8.4209L23.5029 9.43586Z" fill="#13203D" stroke="#E9ECFF" stroke-width="0.0627138" stroke-linecap="round" stroke-linejoin="round"/>
<path d="M23.5031 9.43553V10.709L23.2568 10.5114V9.32324L23.5031 9.43553Z" fill="#13203D" stroke="#E9ECFF" stroke-width="0.0627138" stroke-linecap="round" stroke-linejoin="round"/>
<path d="M6.97152 17.8506C6.50491 17.68 6.12557 17.1577 6.12557 16.6885C6.12557 16.2193 6.50491 15.9756 6.97152 16.1462C7.43813 16.3177 7.81746 16.8391 7.81746 17.3083C7.81746 17.7775 7.43813 18.0212 6.97152 17.8506ZM6.97152 15.7954C6.31308 15.5543 5.77734 15.8973 5.77734 16.5605C5.77734 17.1638 6.22149 17.8262 6.79697 18.123V18.9204L7.14347 19.0483V18.2501C7.72069 18.3763 8.16483 18.0395 8.16483 17.4354C8.16483 16.7721 7.62909 16.0365 6.97065 15.7945L6.97152 15.7954Z" fill="#13203D" stroke="#E9ECFF" stroke-width="0.0313569" stroke-miterlimit="23.8"/>
<path d="M7.99012 15.9431L8.38587 15.406L8.08517 15.1187L7.68855 15.6567C7.52005 15.5183 7.33773 15.3999 7.1459 15.3102V14.5138L6.79767 14.3858V15.1823C6.60239 15.1301 6.41574 15.1144 6.24465 15.1309L5.85754 14.3022L5.55511 14.364L5.94395 15.1979C5.50585 15.3581 5.2207 15.7733 5.2207 16.3591L5.56893 16.4871C5.56893 15.708 6.19799 15.305 6.97135 15.5888C7.74471 15.8726 8.37377 16.7369 8.37377 17.516L8.722 17.6439C8.722 17.0546 8.43253 16.427 7.99012 15.9439V15.9431Z" fill="#13203D" stroke="#E9ECFF" stroke-width="0.0313569" stroke-miterlimit="23.8"/>
<path d="M6.96859 17.8545C6.50198 17.6839 6.12264 17.1616 6.12264 16.6924C6.12264 16.2232 6.50198 15.9795 6.96859 16.1501C7.4352 16.3216 7.81453 16.843 7.81453 17.3122C7.81453 17.7814 7.4352 18.0251 6.96859 17.8545V17.8545ZM6.96859 15.7993C6.31015 15.5582 5.77441 15.9012 5.77441 16.5645C5.77441 17.1677 6.21856 17.8301 6.79404 18.1269V18.9243L7.14054 19.0522V18.254C7.71776 18.3802 8.1619 18.0434 8.1619 17.4393C8.1619 16.776 7.62616 16.0404 6.96772 15.7984L6.96859 15.7993Z" fill="#13203D" stroke="#E9ECFF" stroke-width="0.0313569" stroke-miterlimit="23.8"/>
<path d="M7.98719 15.947L8.38294 15.4099L8.08224 15.1226L7.68562 15.6606C7.51712 15.5222 7.3348 15.4038 7.14297 15.3141V14.5177L6.79474 14.3897V15.1862C6.59946 15.134 6.41281 15.1183 6.24172 15.1348L5.85461 14.3062L5.55218 14.368L5.94102 15.2019C5.50292 15.362 5.21777 15.7772 5.21777 16.3631L5.566 16.491C5.566 15.7119 6.19506 15.3089 6.96842 15.5927C7.74178 15.8765 8.37084 16.7408 8.37084 17.5199L8.71907 17.6479C8.71907 17.0586 8.4296 16.4309 7.98719 15.9478V15.947Z" fill="#13203D" stroke="#E9ECFF" stroke-width="0.0313569" stroke-miterlimit="23.8"/>
<path d="M6.96566 17.8559C6.49905 17.6853 6.11971 17.1631 6.11971 16.6939C6.11971 16.2247 6.49905 15.981 6.96566 16.1516C7.43227 16.3231 7.8116 16.8445 7.8116 17.3136C7.8116 17.7828 7.43227 18.0266 6.96566 17.8559V17.8559ZM6.96566 15.8008C6.30722 15.5597 5.77148 15.9026 5.77148 16.5659C5.77148 17.1691 6.21563 17.8316 6.79111 18.1284V18.9257L7.13761 19.0537V18.2555C7.71483 18.3817 8.15897 18.0448 8.15897 17.4407C8.15897 16.7774 7.62323 16.0419 6.96479 15.7999L6.96566 15.8008Z" fill="#13203D" stroke="#E9ECFF" stroke-width="0.0313569" stroke-miterlimit="23.8"/>
<path d="M7.98328 15.9499L8.37903 15.4128L8.07833 15.1256L7.68171 15.6635C7.51321 15.5251 7.33089 15.4067 7.13906 15.3171V14.5206L6.79083 14.3926V15.1891C6.59555 15.1369 6.40891 15.1212 6.23782 15.1378L5.8507 14.3091L5.54827 14.3709L5.93711 15.2048C5.49902 15.365 5.21387 15.7802 5.21387 16.366L5.5621 16.4939C5.5621 15.7149 6.19115 15.3119 6.96452 15.5956C7.73788 15.8794 8.36694 16.7438 8.36694 17.5228L8.71517 17.6508C8.71517 17.0615 8.4257 16.4339 7.98328 15.9508V15.9499Z" fill="#13203D" stroke="#E9ECFF" stroke-width="0.0313569" stroke-miterlimit="23.8"/>
<path d="M6.96371 17.8584C6.4971 17.6878 6.11776 17.1655 6.11776 16.6963C6.11776 16.2271 6.4971 15.9834 6.96371 16.154C7.43032 16.3255 7.80965 16.8469 7.80965 17.3161C7.80965 17.7853 7.43032 18.029 6.96371 17.8584V17.8584ZM6.96371 15.8032C6.30527 15.5621 5.76953 15.9051 5.76953 16.5684C5.76953 17.1716 6.21367 17.834 6.78916 18.1308V18.9282L7.13566 19.0561V18.2579C7.71287 18.3841 8.15702 18.0473 8.15702 17.4432C8.15702 16.7799 7.62128 16.0443 6.96284 15.8024L6.96371 15.8032Z" fill="#13203D" stroke="#E9ECFF" stroke-width="0.0313569" stroke-miterlimit="23.8"/>
<path d="M7.9823 15.9509L8.37806 15.4138L8.07735 15.1266L7.68074 15.6645C7.51224 15.5261 7.32991 15.4077 7.13809 15.3181V14.5216L6.78986 14.3936V15.1901C6.59457 15.1379 6.40793 15.1222 6.23684 15.1387L5.84973 14.3101L5.54729 14.3719L5.93613 15.2058C5.49804 15.3659 5.21289 15.7811 5.21289 16.367L5.56112 16.4949C5.56112 15.7159 6.19018 15.3128 6.96354 15.5966C7.7369 15.8804 8.36596 16.7447 8.36596 17.5238L8.71419 17.6518C8.71419 17.0625 8.42472 16.4349 7.9823 15.9517V15.9509Z" fill="#13203D" stroke="#E9ECFF" stroke-width="0.0313569" stroke-miterlimit="23.8"/>
<path d="M6.96078 17.8613C6.49417 17.6907 6.11483 17.1684 6.11483 16.6992C6.11483 16.2301 6.49417 15.9863 6.96078 16.157C7.42739 16.3284 7.80672 16.8498 7.80672 17.319C7.80672 17.7882 7.42739 18.0319 6.96078 17.8613V17.8613ZM6.96078 15.8062C6.30234 15.565 5.7666 15.908 5.7666 16.5713C5.7666 17.1745 6.21075 17.8369 6.78623 18.1338V18.9311L7.13273 19.0591V18.2609C7.70994 18.3871 8.15409 18.0502 8.15409 17.4461C8.15409 16.7828 7.61835 16.0473 6.95991 15.8053L6.96078 15.8062Z" fill="#13203D" stroke="#E9ECFF" stroke-width="0.0313569" stroke-miterlimit="23.8"/>
<path d="M7.9784 15.9533L8.37415 15.4162L8.07345 15.129L7.67683 15.6669C7.50833 15.5285 7.32601 15.4102 7.13418 15.3205V14.524L6.78595 14.3961V15.1925C6.59067 15.1403 6.40402 15.1246 6.23293 15.1412L5.84582 14.3125L5.54339 14.3743L5.93223 15.2082C5.49413 15.3684 5.20898 15.7836 5.20898 16.3694L5.55721 16.4974C5.55721 15.7183 6.18627 15.3153 6.95963 15.599C7.733 15.8828 8.36205 16.7472 8.36205 17.5262L8.71028 17.6542C8.71028 17.0649 8.42081 16.4373 7.9784 15.9542V15.9533Z" fill="#13203D" stroke="#E9ECFF" stroke-width="0.0313569" stroke-miterlimit="23.8"/>
<path d="M6.95687 17.8652C6.49026 17.6946 6.11092 17.1723 6.11092 16.7032C6.11092 16.234 6.49026 15.9902 6.95687 16.1609C7.42348 16.3323 7.80282 16.8537 7.80282 17.3229C7.80282 17.7921 7.42348 18.0358 6.95687 17.8652ZM6.95687 15.8101C6.29843 15.5689 5.7627 15.9119 5.7627 16.5752C5.7627 17.1784 6.20684 17.8408 6.78232 18.1377V18.935L7.12882 19.063V18.2648C7.70604 18.391 8.15018 18.0541 8.15018 17.45C8.15018 16.7867 7.61444 16.0512 6.95601 15.8092L6.95687 15.8101Z" fill="#13203D" stroke="#E9ECFF" stroke-width="0.0313569" stroke-miterlimit="23.8"/>
<path d="M7.97449 15.9577L8.37024 15.4206L8.06954 15.1334L7.67292 15.6713C7.50443 15.5329 7.3221 15.4145 7.13027 15.3249V14.5284L6.78204 14.4005V15.1969C6.58676 15.1447 6.40012 15.129 6.22903 15.1456L5.84191 14.3169L5.53948 14.3787L5.92832 15.2126C5.49023 15.3728 5.20508 15.788 5.20508 16.3738L5.55331 16.5018C5.55331 15.7227 6.18237 15.3197 6.95573 15.6034C7.72909 15.8872 8.35815 16.7516 8.35815 17.5306L8.70638 17.6586C8.70638 17.0693 8.41691 16.4417 7.97449 15.9586V15.9577Z" fill="#13203D" stroke="#E9ECFF" stroke-width="0.0313569" stroke-miterlimit="23.8"/>
<path d="M6.94906 17.8696C6.48245 17.699 6.10311 17.1767 6.10311 16.7075C6.10311 16.2384 6.48245 15.9946 6.94906 16.1653C7.41567 16.3367 7.795 16.8581 7.795 17.3273C7.795 17.7965 7.41567 18.0402 6.94906 17.8696ZM6.94906 15.8145C6.29062 15.5733 5.75488 15.9163 5.75488 16.5796C5.75488 17.1828 6.19903 17.8452 6.77451 18.1421V18.9394L7.12101 19.0674V18.2692C7.69823 18.3954 8.14237 18.0585 8.14237 17.4544C8.14237 16.7911 7.60663 16.0556 6.94819 15.8136L6.94906 15.8145Z" fill="#13203D" stroke="#E9ECFF" stroke-width="0.0313569" stroke-miterlimit="23.8"/>
<path d="M7.96668 15.9621L8.36243 15.425L8.06173 15.1378L7.66511 15.6757C7.49661 15.5373 7.31429 15.4189 7.12246 15.3293V14.5328L6.77423 14.4049V15.2013C6.57895 15.1491 6.3923 15.1334 6.22121 15.15L5.8341 14.3213L5.53167 14.3831L5.92051 15.217C5.48242 15.3772 5.19727 15.7924 5.19727 16.3782L5.54549 16.5061C5.54549 15.7271 6.17455 15.3241 6.94792 15.6078C7.72128 15.8916 8.35034 16.756 8.35034 17.535L8.69856 17.663C8.69856 17.0737 8.40909 16.4461 7.96668 15.963V15.9621Z" fill="#13203D" stroke="#E9ECFF" stroke-width="0.0313569" stroke-miterlimit="23.8"/>
<path d="M6.94906 17.8716C6.48245 17.701 6.10311 17.1787 6.10311 16.7095C6.10311 16.2403 6.48245 15.9966 6.94906 16.1672C7.41567 16.3387 7.795 16.8601 7.795 17.3293C7.795 17.7984 7.41567 18.0422 6.94906 17.8716V17.8716ZM6.94906 15.8164C6.29062 15.5753 5.75488 15.9183 5.75488 16.5815C5.75488 17.1848 6.19903 17.8472 6.77451 18.144V18.9414L7.12101 19.0693V18.2711C7.69823 18.3973 8.14237 18.0605 8.14237 17.4564C8.14237 16.7931 7.60663 16.0575 6.94819 15.8155L6.94906 15.8164Z" fill="#13203D" stroke="#E9ECFF" stroke-width="0.0313569" stroke-miterlimit="23.8"/>
<path d="M7.96668 15.9641L8.36243 15.427L8.06173 15.1397L7.66511 15.6777C7.49661 15.5393 7.31429 15.4209 7.12246 15.3312V14.5348L6.77423 14.4068V15.2033C6.57895 15.1511 6.3923 15.1354 6.22121 15.1519L5.8341 14.3232L5.53167 14.385L5.92051 15.2189C5.48242 15.3791 5.19727 15.7943 5.19727 16.3801L5.54549 16.5081C5.54549 15.729 6.17455 15.326 6.94792 15.6098C7.72128 15.8936 8.35034 16.7579 8.35034 17.537L8.69857 17.6649C8.69857 17.0756 8.40909 16.448 7.96668 15.9649V15.9641Z" fill="#13203D" stroke="#E9ECFF" stroke-width="0.0313569" stroke-miterlimit="23.8"/>
<path d="M6.94417 17.873C6.47757 17.7024 6.09823 17.1801 6.09823 16.711C6.09823 16.2418 6.47757 15.9981 6.94417 16.1687C7.41078 16.3402 7.79012 16.8616 7.79012 17.3307C7.79012 17.7999 7.41078 18.0436 6.94417 17.873ZM6.94417 15.8179C6.28574 15.5768 5.75 15.9197 5.75 16.583C5.75 17.1862 6.19414 17.8487 6.76963 18.1455V18.9428L7.11613 19.0708V18.2726C7.69334 18.3988 8.13749 18.0619 8.13749 17.4578C8.13749 16.7945 7.60175 16.059 6.94331 15.817L6.94417 15.8179Z" fill="#13203D" stroke="#E9ECFF" stroke-width="0.0313569" stroke-miterlimit="23.8"/>
<path d="M7.9618 15.9655L8.35755 15.4285L8.05685 15.1412L7.66023 15.6791C7.49173 15.5407 7.30941 15.4224 7.11758 15.3327V14.5362L6.76935 14.4083V15.2047C6.57407 15.1525 6.38742 15.1368 6.21633 15.1534L5.82922 14.3247L5.52679 14.3865L5.91563 15.2204C5.47753 15.3806 5.19238 15.7958 5.19238 16.3816L5.54061 16.5096C5.54061 15.7305 6.16967 15.3275 6.94303 15.6112C7.71639 15.895 8.34545 16.7594 8.34545 17.5384L8.69368 17.6664C8.69368 17.0771 8.40421 16.4495 7.9618 15.9664V15.9655Z" fill="#13203D" stroke="#E9ECFF" stroke-width="0.0313569" stroke-miterlimit="23.8"/>
<path d="M6.9432 17.8755C6.47659 17.7049 6.09725 17.1826 6.09725 16.7134C6.09725 16.2442 6.47659 16.0005 6.9432 16.1711C7.40981 16.3426 7.78914 16.864 7.78914 17.3332C7.78914 17.8024 7.40981 18.0461 6.9432 17.8755V17.8755ZM6.9432 15.8203C6.28476 15.5792 5.74902 15.9222 5.74902 16.5855C5.74902 17.1887 6.19317 17.8511 6.76865 18.1479V18.9453L7.11515 19.0732V18.275C7.69237 18.4012 8.13651 18.0644 8.13651 17.4603C8.13651 16.797 7.60077 16.0614 6.94233 15.8194L6.9432 15.8203Z" fill="#13203D" stroke="#E9ECFF" stroke-width="0.0313569" stroke-miterlimit="23.8"/>
<path d="M7.95887 15.968L8.35462 15.4309L8.05392 15.1436L7.6573 15.6816C7.4888 15.5432 7.30648 15.4248 7.11465 15.3351V14.5387L6.76642 14.4107V15.2072C6.57114 15.155 6.38449 15.1393 6.2134 15.1558L5.82629 14.3271L5.52386 14.389L5.9127 15.2229C5.4746 15.383 5.18945 15.7982 5.18945 16.384L5.53768 16.512C5.53768 15.7329 6.16674 15.3299 6.9401 15.6137C7.71346 15.8975 8.34252 16.7618 8.34252 17.5409L8.69075 17.6688C8.69075 17.0795 8.40128 16.4519 7.95887 15.9688V15.968Z" fill="#13203D" stroke="#E9ECFF" stroke-width="0.0313569" stroke-miterlimit="23.8"/>
<path d="M6.93636 17.8784C6.46975 17.7078 6.09042 17.1855 6.09042 16.7163C6.09042 16.2472 6.46975 16.0034 6.93636 16.174C7.40297 16.3455 7.78231 16.8669 7.78231 17.3361C7.78231 17.8053 7.40297 18.049 6.93636 17.8784V17.8784ZM6.93636 15.8232C6.27792 15.5821 5.74219 15.9251 5.74219 16.5884C5.74219 17.1916 6.18633 17.854 6.76182 18.1509V18.9482L7.10832 19.0762V18.2779C7.68553 18.4042 8.12967 18.0673 8.12967 17.4632C8.12967 16.7999 7.59394 16.0644 6.9355 15.8224L6.93636 15.8232Z" fill="#13203D" stroke="#E9ECFF" stroke-width="0.0313569" stroke-miterlimit="23.8"/>
<path d="M7.95398 15.9728L8.34974 15.4358L8.04903 15.1485L7.65242 15.6865C7.48392 15.5481 7.30159 15.4297 7.10977 15.34V14.5436L6.76154 14.4156V15.2121C6.56625 15.1598 6.37961 15.1442 6.20852 15.1607L5.82141 14.332L5.51897 14.3938L5.90781 15.2277C5.46972 15.3879 5.18457 15.8031 5.18457 16.3889L5.5328 16.5169C5.5328 15.7378 6.16186 15.3348 6.93522 15.6186C7.70858 15.9023 8.33764 16.7667 8.33764 17.5458L8.68587 17.6737C8.68587 17.0844 8.3964 16.4568 7.95398 15.9737V15.9728Z" fill="#13203D" stroke="#E9ECFF" stroke-width="0.0313569" stroke-miterlimit="23.8"/>
<path d="M6.92953 17.8799C6.46292 17.7093 6.08358 17.187 6.08358 16.7178C6.08358 16.2486 6.46292 16.0049 6.92953 16.1755C7.39614 16.347 7.77547 16.8684 7.77547 17.3376C7.77547 17.8068 7.39614 18.0505 6.92953 17.8799ZM6.92953 15.8247C6.27109 15.5836 5.73535 15.9266 5.73535 16.5898C5.73535 17.1931 6.1795 17.8555 6.75498 18.1523V18.9497L7.10148 19.0776V18.2794C7.67869 18.4056 8.12284 18.0688 8.12284 17.4647C8.12284 16.8014 7.5871 16.0658 6.92866 15.8238L6.92953 15.8247Z" fill="#13203D" stroke="#E9ECFF" stroke-width="0.0313569" stroke-miterlimit="23.8"/>
<path d="M7.94812 15.9728L8.34388 15.4358L8.04317 15.1485L7.64656 15.6865C7.47806 15.5481 7.29573 15.4297 7.10391 15.34V14.5436L6.75568 14.4156V15.2121C6.56039 15.1598 6.37375 15.1442 6.20266 15.1607L5.81555 14.332L5.51311 14.3938L5.90196 15.2277C5.46386 15.3879 5.17871 15.8031 5.17871 16.3889L5.52694 16.5169C5.52694 15.7378 6.156 15.3348 6.92936 15.6186C7.70272 15.9023 8.33178 16.7667 8.33178 17.5458L8.68001 17.6737C8.68001 17.0844 8.39054 16.4568 7.94812 15.9737V15.9728Z" fill="#13203D" stroke="#E9ECFF" stroke-width="0.0313569" stroke-miterlimit="23.8"/>
<path d="M6.92855 17.8838C6.46194 17.7132 6.0826 17.1909 6.0826 16.7217C6.0826 16.2525 6.46194 16.0088 6.92855 16.1794C7.39516 16.3509 7.7745 16.8723 7.7745 17.3415C7.7745 17.8107 7.39516 18.0544 6.92855 17.8838V17.8838ZM6.92855 15.8286C6.27011 15.5875 5.73438 15.9305 5.73438 16.5938C5.73438 17.197 6.17852 17.8594 6.754 18.1562V18.9536L7.1005 19.0815V18.2833C7.67772 18.4095 8.12186 18.0727 8.12186 17.4686C8.12186 16.8053 7.58612 16.0697 6.92769 15.8277L6.92855 15.8286Z" fill="#13203D" stroke="#E9ECFF" stroke-width="0.0313569" stroke-miterlimit="23.8"/>
<path d="M7.94715 15.9768L8.3429 15.4397L8.0422 15.1524L7.64558 15.6904C7.47708 15.552 7.29476 15.4336 7.10293 15.3439V14.5475L6.7547 14.4195V15.216C6.55942 15.1637 6.37277 15.1481 6.20168 15.1646L5.81457 14.3359L5.51214 14.3977L5.90098 15.2316C5.46288 15.3918 5.17773 15.807 5.17773 16.3928L5.52596 16.5208C5.52596 15.7417 6.15502 15.3387 6.92838 15.6225C7.70175 15.9062 8.3308 16.7706 8.3308 17.5497L8.67903 17.6776C8.67903 17.0883 8.38956 16.4607 7.94715 15.9776V15.9768Z" fill="#13203D" stroke="#E9ECFF" stroke-width="0.0313569" stroke-miterlimit="23.8"/>
<path d="M6.92855 17.8882C6.46194 17.7176 6.0826 17.1953 6.0826 16.7261C6.0826 16.2569 6.46194 16.0132 6.92855 16.1838C7.39516 16.3553 7.7745 16.8767 7.7745 17.3459C7.7745 17.8151 7.39516 18.0588 6.92855 17.8882V17.8882ZM6.92855 15.833C6.27011 15.5919 5.73438 15.9349 5.73438 16.5981C5.73438 17.2014 6.17852 17.8638 6.754 18.1606V18.958L7.1005 19.0859V18.2877C7.67772 18.4139 8.12186 18.0771 8.12186 17.473C8.12186 16.8097 7.58612 16.0741 6.92769 15.8321L6.92855 15.833Z" fill="#13203D" stroke="#E9ECFF" stroke-width="0.0313569" stroke-miterlimit="23.8"/>
<path d="M7.94422 15.9807L8.33997 15.4436L8.03927 15.1563L7.64265 15.6943C7.47415 15.5559 7.29183 15.4375 7.1 15.3478V14.5514L6.75177 14.4234V15.2199C6.55649 15.1677 6.36984 15.152 6.19875 15.1685L5.81164 14.3398L5.50921 14.4016L5.89805 15.2355C5.45995 15.3957 5.1748 15.8109 5.1748 16.3967L5.52303 16.5247C5.52303 15.7456 6.15209 15.3426 6.92545 15.6264C7.69882 15.9102 8.32787 16.7745 8.32787 17.5536L8.6761 17.6815C8.6761 17.0922 8.38663 16.4646 7.94422 15.9815V15.9807Z" fill="#13203D" stroke="#E9ECFF" stroke-width="0.0313569" stroke-miterlimit="23.8"/>
<path d="M6.92074 17.8926C6.45413 17.722 6.07479 17.1997 6.07479 16.7305C6.07479 16.2613 6.45413 16.0176 6.92074 16.1882C7.38735 16.3597 7.76668 16.8811 7.76668 17.3503C7.76668 17.8194 7.38735 18.0632 6.92074 17.8926ZM6.92074 15.8374C6.2623 15.5963 5.72656 15.9392 5.72656 16.6025C5.72656 17.2058 6.17071 17.8682 6.74619 18.165V18.9624L7.09269 19.0903V18.2921C7.6699 18.4183 8.11405 18.0815 8.11405 17.4774C8.11405 16.8141 7.57831 16.0785 6.91987 15.8365L6.92074 15.8374Z" fill="#13203D" stroke="#E9ECFF" stroke-width="0.0313569" stroke-miterlimit="23.8"/>
<path d="M7.94031 15.9846L8.33607 15.4475L8.03536 15.1602L7.63874 15.6982C7.47025 15.5598 7.28792 15.4414 7.09609 15.3517V14.5553L6.74787 14.4273V15.2238C6.55258 15.1716 6.36594 15.1559 6.19485 15.1724L5.80773 14.3438L5.5053 14.4056L5.89414 15.2395C5.45605 15.3996 5.1709 15.8148 5.1709 16.4006L5.51913 16.5286C5.51913 15.7495 6.14819 15.3465 6.92155 15.6303C7.69491 15.9141 8.32397 16.7784 8.32397 17.5575L8.6722 17.6854C8.6722 17.0961 8.38273 16.4685 7.94031 15.9854V15.9846Z" fill="#13203D" stroke="#E9ECFF" stroke-width="0.0313569" stroke-miterlimit="23.8"/>
<path d="M6.92074 17.8935C6.45413 17.7229 6.07479 17.2007 6.07479 16.7315C6.07479 16.2623 6.45413 16.0186 6.92074 16.1892C7.38735 16.3607 7.76668 16.8821 7.76668 17.3512C7.76668 17.8204 7.38735 18.0642 6.92074 17.8935V17.8935ZM6.92074 15.8384C6.2623 15.5973 5.72656 15.9402 5.72656 16.6035C5.72656 17.2067 6.17071 17.8692 6.74619 18.166V18.9633L7.09269 19.0913V18.2931C7.6699 18.4193 8.11405 18.0824 8.11405 17.4783C8.11405 16.815 7.57831 16.0795 6.91987 15.8375L6.92074 15.8384Z" fill="#13203D" stroke="#E9ECFF" stroke-width="0.0313569" stroke-miterlimit="23.8"/>
<path d="M7.93836 15.986L8.33411 15.449L8.03341 15.1617L7.63679 15.6997C7.46829 15.5612 7.28597 15.4429 7.09414 15.3532V14.5567L6.74591 14.4288V15.2253C6.55063 15.173 6.36398 15.1574 6.19289 15.1739L5.80578 14.3452L5.50335 14.407L5.89219 15.2409C5.4541 15.4011 5.16895 15.8163 5.16895 16.4021L5.51717 16.5301C5.51717 15.751 6.14623 15.348 6.91959 15.6318C7.69296 15.9155 8.32202 16.7799 8.32202 17.559L8.67024 17.6869C8.67024 17.0976 8.38077 16.47 7.93836 15.9869V15.986Z" fill="#13203D" stroke="#E9ECFF" stroke-width="0.0313569" stroke-miterlimit="23.8"/>
<path d="M6.91293 17.896C6.44632 17.7254 6.06698 17.2031 6.06698 16.7339C6.06698 16.2647 6.44632 16.021 6.91293 16.1916C7.37953 16.3631 7.75887 16.8845 7.75887 17.3537C7.75887 17.8229 7.37953 18.0666 6.91293 17.896ZM6.91293 15.8408C6.25449 15.5997 5.71875 15.9427 5.71875 16.606C5.71875 17.2092 6.16289 17.8716 6.73838 18.1684V18.9658L7.08488 19.0937V18.2955C7.66209 18.4217 8.10624 18.0849 8.10624 17.4808C8.10624 16.8175 7.5705 16.0819 6.91206 15.84L6.91293 15.8408Z" fill="#13203D" stroke="#E9ECFF" stroke-width="0.0313569" stroke-miterlimit="23.8"/>
<path d="M7.9325 15.989L8.32825 15.4519L8.02755 15.1646L7.63093 15.7026C7.46243 15.5642 7.28011 15.4458 7.08828 15.3561V14.5597L6.74005 14.4317V15.2282C6.54477 15.176 6.35812 15.1603 6.18703 15.1768L5.79992 14.3481L5.49749 14.4099L5.88633 15.2438C5.44824 15.404 5.16309 15.8192 5.16309 16.405L5.51131 16.533C5.51131 15.7539 6.14037 15.3509 6.91374 15.6347C7.6871 15.9185 8.31616 16.7828 8.31616 17.5619L8.66438 17.6898C8.66438 17.1005 8.37491 16.4729 7.9325 15.9898V15.989Z" fill="#13203D" stroke="#E9ECFF" stroke-width="0.0313569" stroke-miterlimit="23.8"/>
<path d="M6.91195 17.8984C6.44534 17.7278 6.066 17.2055 6.066 16.7364C6.066 16.2672 6.44534 16.0235 6.91195 16.1941C7.37856 16.3655 7.75789 16.8869 7.75789 17.3561C7.75789 17.8253 7.37856 18.069 6.91195 17.8984ZM6.91195 15.8433C6.25351 15.6021 5.71777 15.9451 5.71777 16.6084C5.71777 17.2116 6.16192 17.8741 6.7374 18.1709V18.9682L7.0839 19.0962V18.298C7.66112 18.4242 8.10526 18.0873 8.10526 17.4832C8.10526 16.8199 7.56952 16.0844 6.91108 15.8424L6.91195 15.8433Z" fill="#13203D" stroke="#E9ECFF" stroke-width="0.0313569" stroke-miterlimit="23.8"/>
<path d="M7.93055 15.9924L8.3263 15.4553L8.0256 15.1681L7.62898 15.706C7.46048 15.5676 7.27816 15.4492 7.08633 15.3596V14.5631L6.7381 14.4351V15.2316C6.54282 15.1794 6.35617 15.1637 6.18508 15.1802L5.79797 14.3516L5.49554 14.4134L5.88438 15.2473C5.44628 15.4074 5.16113 15.8226 5.16113 16.4085L5.50936 16.5364C5.50936 15.7574 6.13842 15.3543 6.91178 15.6381C7.68514 15.9219 8.3142 16.7862 8.3142 17.5653L8.66243 17.6933C8.66243 17.104 8.37296 16.4764 7.93055 15.9933V15.9924Z" fill="#13203D" stroke="#E9ECFF" stroke-width="0.0313569" stroke-miterlimit="23.8"/>
<path d="M6.90511 17.9018C6.4385 17.7312 6.05917 17.209 6.05917 16.7398C6.05917 16.2706 6.4385 16.0269 6.90511 16.1975C7.37172 16.369 7.75106 16.8904 7.75106 17.3595C7.75106 17.8287 7.37172 18.0725 6.90511 17.9018V17.9018ZM6.90511 15.8467C6.24667 15.6056 5.71094 15.9485 5.71094 16.6118C5.71094 17.215 6.15508 17.8775 6.73057 18.1743V18.9716L7.07707 19.0996V18.3014C7.65428 18.4276 8.09842 18.0907 8.09842 17.4866C8.09842 16.8233 7.56269 16.0878 6.90425 15.8458L6.90511 15.8467Z" fill="#13203D" stroke="#E9ECFF" stroke-width="0.0313569" stroke-miterlimit="23.8"/>
<path d="M7.92469 15.9943L8.32044 15.4573L8.01974 15.17L7.62312 15.708C7.45462 15.5695 7.2723 15.4512 7.08047 15.3615V14.565L6.73224 14.4371V15.2336C6.53696 15.1813 6.35031 15.1657 6.17922 15.1822L5.79211 14.3535L5.48968 14.4153L5.87852 15.2492C5.44042 15.4094 5.15527 15.8246 5.15527 16.4104L5.5035 16.5384C5.5035 15.7593 6.13256 15.3563 6.90592 15.6401C7.67928 15.9238 8.30834 16.7882 8.30834 17.5673L8.65657 17.6952C8.65657 17.1059 8.3671 16.4783 7.92469 15.9952V15.9943Z" fill="#13203D" stroke="#E9ECFF" stroke-width="0.0313569" stroke-miterlimit="23.8"/>
<path d="M6.90511 17.9033C6.4385 17.7327 6.05917 17.2104 6.05917 16.7412C6.05917 16.2721 6.4385 16.0283 6.90511 16.1989C7.37172 16.3704 7.75106 16.8918 7.75106 17.361C7.75106 17.8302 7.37172 18.0739 6.90511 17.9033V17.9033ZM6.90511 15.8481C6.24667 15.607 5.71094 15.95 5.71094 16.6133C5.71094 17.2165 6.15508 17.8789 6.73057 18.1758V18.9731L7.07707 19.1011V18.3028C7.65428 18.4291 8.09842 18.0922 8.09842 17.4881C8.09842 16.8248 7.56269 16.0893 6.90425 15.8473L6.90511 15.8481Z" fill="#13203D" stroke="#E9ECFF" stroke-width="0.0313569" stroke-miterlimit="23.8"/>
<path d="M7.92176 15.9958L8.31751 15.4587L8.01681 15.1715L7.62019 15.7094C7.45169 15.571 7.26937 15.4526 7.07754 15.363V14.5665L6.72931 14.4385V15.235C6.53403 15.1828 6.34738 15.1671 6.17629 15.1837L5.78918 14.355L5.48675 14.4168L5.87559 15.2507C5.43749 15.4108 5.15234 15.8261 5.15234 16.4119L5.50057 16.5398C5.50057 15.7608 6.12963 15.3578 6.90299 15.6415C7.67635 15.9253 8.30541 16.7897 8.30541 17.5687L8.65364 17.6967C8.65364 17.1074 8.36417 16.4798 7.92176 15.9967V15.9958Z" fill="#13203D" stroke="#E9ECFF" stroke-width="0.0313569" stroke-miterlimit="23.8"/>
<path d="M6.90218 17.9077C6.43557 17.7371 6.05624 17.2148 6.05624 16.7456C6.05624 16.2765 6.43557 16.0327 6.90218 16.2033C7.36879 16.3748 7.74813 16.8962 7.74813 17.3654C7.74813 17.8346 7.36879 18.0783 6.90218 17.9077V17.9077ZM6.90218 15.8525C6.24374 15.6114 5.70801 15.9544 5.70801 16.6177C5.70801 17.2209 6.15215 17.8833 6.72764 18.1802V18.9775L7.07414 19.1055V18.3072C7.65135 18.4335 8.09549 18.0966 8.09549 17.4925C8.09549 16.8292 7.55976 16.0937 6.90132 15.8517L6.90218 15.8525Z" fill="#13203D" stroke="#E9ECFF" stroke-width="0.0313569" stroke-miterlimit="23.8"/>
<path d="M7.92176 15.9987L8.31751 15.4617L8.01681 15.1744L7.62019 15.7123C7.45169 15.5739 7.26937 15.4556 7.07754 15.3659V14.5694L6.72931 14.4415V15.2379C6.53403 15.1857 6.34738 15.1701 6.17629 15.1866L5.78918 14.3579L5.48675 14.4197L5.87559 15.2536C5.43749 15.4138 5.15234 15.829 5.15234 16.4148L5.50057 16.5428C5.50057 15.7637 6.12963 15.3607 6.90299 15.6445C7.67635 15.9282 8.30541 16.7926 8.30541 17.5717L8.65364 17.6996C8.65364 17.1103 8.36417 16.4827 7.92176 15.9996V15.9987Z" fill="#13203D" stroke="#E9ECFF" stroke-width="0.0313569" stroke-miterlimit="23.8"/>
<path d="M6.89437 17.9111C6.42776 17.7405 6.04842 17.2182 6.04842 16.7491C6.04842 16.2799 6.42776 16.0361 6.89437 16.2068C7.36098 16.3782 7.74032 16.8996 7.74032 17.3688C7.74032 17.838 7.36098 18.0817 6.89437 17.9111V17.9111ZM6.89437 15.856C6.23593 15.6148 5.7002 15.9578 5.7002 16.6211C5.7002 17.2243 6.14434 17.8867 6.71982 18.1836V18.9809L7.06632 19.1089V18.3107C7.64354 18.4369 8.08768 18.1 8.08768 17.4959C8.08768 16.8326 7.55194 16.0971 6.89351 15.8551L6.89437 15.856Z" fill="#13203D" stroke="#E9ECFF" stroke-width="0.0313569" stroke-miterlimit="23.8"/>
<path d="M7.91297 16.0031L8.30872 15.466L8.00802 15.1788L7.6114 15.7167C7.4429 15.5783 7.26058 15.46 7.06875 15.3703V14.5738L6.72052 14.4459V15.2423C6.52524 15.1901 6.33859 15.1744 6.1675 15.191L5.78039 14.3623L5.47796 14.4241L5.8668 15.258C5.42871 15.4182 5.14355 15.8334 5.14355 16.4192L5.49178 16.5472C5.49178 15.7681 6.12084 15.3651 6.8942 15.6488C7.66757 15.9326 8.29662 16.797 8.29662 17.576L8.64485 17.704C8.64485 17.1147 8.35538 16.4871 7.91297 16.004V16.0031Z" fill="#13203D" stroke="#E9ECFF" stroke-width="0.0313569" stroke-miterlimit="23.8"/>
<path d="M6.89242 17.9131C6.42581 17.7425 6.04647 17.2202 6.04647 16.751C6.04647 16.2818 6.42581 16.0381 6.89242 16.2087C7.35903 16.3802 7.73836 16.9016 7.73836 17.3708C7.73836 17.84 7.35903 18.0837 6.89242 17.9131ZM6.89242 15.8579C6.23398 15.6168 5.69824 15.9598 5.69824 16.623C5.69824 17.2263 6.14239 17.8887 6.71787 18.1855V18.9829L7.06437 19.1108V18.3126C7.64158 18.4388 8.08573 18.102 8.08573 17.4979C8.08573 16.8346 7.54999 16.099 6.89155 15.857L6.89242 15.8579Z" fill="#13203D" stroke="#E9ECFF" stroke-width="0.0313569" stroke-miterlimit="23.8"/>
<path d="M7.91004 16.0056L8.30579 15.4685L8.00509 15.1812L7.60847 15.7192C7.43997 15.5808 7.25765 15.4624 7.06582 15.3727V14.5763L6.71759 14.4483V15.2448C6.52231 15.1926 6.33566 15.1769 6.16457 15.1934L5.77746 14.3647L5.47503 14.4265L5.86387 15.2604C5.42578 15.4206 5.14062 15.8358 5.14062 16.4216L5.48885 16.5496C5.48885 15.7705 6.11791 15.3675 6.89127 15.6513C7.66464 15.9351 8.29369 16.7994 8.29369 17.5785L8.64192 17.7064C8.64192 17.1171 8.35245 16.4895 7.91004 16.0064V16.0056Z" fill="#13203D" stroke="#E9ECFF" stroke-width="0.0313569" stroke-miterlimit="23.8"/>
<path d="M6.89046 17.9145C6.42385 17.7439 6.04452 17.2216 6.04452 16.7525C6.04452 16.2833 6.42385 16.0396 6.89046 16.2102C7.35707 16.3817 7.73641 16.9031 7.73641 17.3722C7.73641 17.8414 7.35707 18.0851 6.89046 17.9145ZM6.89046 15.8594C6.23203 15.6183 5.69629 15.9612 5.69629 16.6245C5.69629 17.2277 6.14043 17.8902 6.71592 18.187V18.9843L7.06242 19.1123V18.3141C7.63963 18.4403 8.08377 18.1034 8.08377 17.4993C8.08377 16.836 7.54804 16.1005 6.8896 15.8585L6.89046 15.8594Z" fill="#13203D" stroke="#E9ECFF" stroke-width="0.0313569" stroke-miterlimit="23.8"/>
<path d="M7.90711 16.0075L8.30286 15.4704L8.00216 15.1832L7.60554 15.7211C7.43704 15.5827 7.25472 15.4644 7.06289 15.3747V14.5782L6.71466 14.4503V15.2467C6.51938 15.1945 6.33273 15.1788 6.16164 15.1954L5.77453 14.3667L5.4721 14.4285L5.86094 15.2624C5.42285 15.4226 5.1377 15.8378 5.1377 16.4236L5.48592 16.5516C5.48592 15.7725 6.11498 15.3695 6.88835 15.6532C7.66171 15.937 8.29077 16.8014 8.29077 17.5804L8.63899 17.7084C8.63899 17.1191 8.34952 16.4915 7.90711 16.0084V16.0075Z" fill="#13203D" stroke="#E9ECFF" stroke-width="0.0313569" stroke-miterlimit="23.8"/>
<path d="M6.8846 17.9184C6.41799 17.7478 6.03866 17.2256 6.03866 16.7564C6.03866 16.2872 6.41799 16.0435 6.8846 16.2141C7.35121 16.3856 7.73055 16.907 7.73055 17.3761C7.73055 17.8453 7.35121 18.0891 6.8846 17.9184ZM6.8846 15.8633C6.22617 15.6222 5.69043 15.9651 5.69043 16.6284C5.69043 17.2316 6.13457 17.8941 6.71006 18.1909V18.9882L7.05656 19.1162V18.318C7.63377 18.4442 8.07791 18.1073 8.07791 17.5032C8.07791 16.8399 7.54218 16.1044 6.88374 15.8624L6.8846 15.8633Z" fill="#13203D" stroke="#E9ECFF" stroke-width="0.0313569" stroke-miterlimit="23.8"/>
<path d="M7.9032 16.0109L8.29896 15.4739L7.99825 15.1866L7.60163 15.7246C7.43314 15.5862 7.25081 15.4678 7.05898 15.3781V14.5816L6.71076 14.4537V15.2502C6.51547 15.1979 6.32883 15.1823 6.15774 15.1988L5.77062 14.3701L5.46819 14.4319L5.85703 15.2658C5.41894 15.426 5.13379 15.8412 5.13379 16.427L5.48202 16.555C5.48202 15.7759 6.11108 15.3729 6.88444 15.6567C7.6578 15.9404 8.28686 16.8048 8.28686 17.5839L8.63509 17.7118C8.63509 17.1225 8.34562 16.4949 7.9032 16.0118V16.0109Z" fill="#13203D" stroke="#E9ECFF" stroke-width="0.0313569" stroke-miterlimit="23.8"/>
<path d="M6.88363 17.9209C6.41702 17.7503 6.03768 17.228 6.03768 16.7588C6.03768 16.2896 6.41702 16.0459 6.88363 16.2165C7.35024 16.388 7.72957 16.9094 7.72957 17.3786C7.72957 17.8478 7.35024 18.0915 6.88363 17.9209ZM6.88363 15.8657C6.22519 15.6246 5.68945 15.9676 5.68945 16.6309C5.68945 17.2341 6.1336 17.8965 6.70908 18.1933V18.9907L7.05558 19.1186V18.3204C7.63279 18.4466 8.07694 18.1098 8.07694 17.5057C8.07694 16.8424 7.5412 16.1068 6.88276 15.8649L6.88363 15.8657Z" fill="#13203D" stroke="#E9ECFF" stroke-width="0.0313569" stroke-miterlimit="23.8"/>
<path d="M7.90125 16.0148L8.297 15.4778L7.9963 15.1905L7.59968 15.7285C7.43118 15.5901 7.24886 15.4717 7.05703 15.382V14.5855L6.7088 14.4576V15.2541C6.51352 15.2018 6.32687 15.1862 6.15578 15.2027L5.76867 14.374L5.46624 14.4358L5.85508 15.2697C5.41699 15.4299 5.13184 15.8451 5.13184 16.4309L5.48007 16.5589C5.48007 15.7798 6.10912 15.3768 6.88249 15.6606C7.65585 15.9443 8.28491 16.8087 8.28491 17.5878L8.63313 17.7157C8.63313 17.1264 8.34366 16.4988 7.90125 16.0157V16.0148Z" fill="#13203D" stroke="#E9ECFF" stroke-width="0.0313569" stroke-miterlimit="23.8"/>
<path d="M6.87874 17.9238C6.41214 17.7532 6.0328 17.2309 6.0328 16.7617C6.0328 16.2926 6.41214 16.0488 6.87874 16.2195C7.34535 16.3909 7.72469 16.9123 7.72469 17.3815C7.72469 17.8507 7.34535 18.0944 6.87874 17.9238V17.9238ZM6.87874 15.8687C6.22031 15.6275 5.68457 15.9705 5.68457 16.6338C5.68457 17.237 6.12871 17.8994 6.7042 18.1963V18.9936L7.0507 19.1216V18.3234C7.62791 18.4496 8.07206 18.1127 8.07206 17.5086C8.07206 16.8453 7.53632 16.1098 6.87788 15.8678L6.87874 15.8687Z" fill="#13203D" stroke="#E9ECFF" stroke-width="0.0313569" stroke-miterlimit="23.8"/>
<path d="M7.89637 16.0163L8.29212 15.4792L7.99142 15.192L7.5948 15.7299C7.4263 15.5915 7.24398 15.4731 7.05215 15.3835V14.587L6.70392 14.4591V15.2555C6.50864 15.2033 6.32199 15.1876 6.1509 15.2042L5.76379 14.3755L5.46136 14.4373L5.8502 15.2712C5.4121 15.4314 5.12695 15.8466 5.12695 16.4324L5.47518 16.5603C5.47518 15.7813 6.10424 15.3783 6.8776 15.662C7.65096 15.9458 8.28002 16.8102 8.28002 17.5892L8.62825 17.7172C8.62825 17.1279 8.33878 16.5003 7.89637 16.0172V16.0163Z" fill="#13203D" stroke="#E9ECFF" stroke-width="0.0313569" stroke-miterlimit="23.8"/>
<path d="M6.87777 17.9267C6.41116 17.7561 6.03182 17.2339 6.03182 16.7647C6.03182 16.2955 6.41116 16.0518 6.87777 16.2224C7.34438 16.3939 7.72371 16.9153 7.72371 17.3844C7.72371 17.8536 7.34438 18.0974 6.87777 17.9267V17.9267ZM6.87777 15.8716C6.21933 15.6305 5.68359 15.9734 5.68359 16.6367C5.68359 17.2399 6.12774 17.9024 6.70322 18.1992V18.9965L7.04972 19.1245V18.3263C7.62694 18.4525 8.07108 18.1156 8.07108 17.5115C8.07108 16.8482 7.53534 16.1127 6.8769 15.8707L6.87777 15.8716Z" fill="#13203D" stroke="#E9ECFF" stroke-width="0.0313569" stroke-miterlimit="23.8"/>
<path d="M7.89539 16.0192L8.29114 15.4822L7.99044 15.1949L7.59382 15.7329C7.42532 15.5945 7.243 15.4761 7.05117 15.3864V14.5899L6.70294 14.462V15.2585C6.50766 15.2062 6.32101 15.1906 6.14992 15.2071L5.76281 14.3784L5.46038 14.4402L5.84922 15.2741C5.41113 15.4343 5.12598 15.8495 5.12598 16.4353L5.47421 16.5633C5.47421 15.7842 6.10326 15.3812 6.87663 15.665C7.64999 15.9487 8.27905 16.8131 8.27905 17.5922L8.62727 17.7201C8.62727 17.1308 8.3378 16.5032 7.89539 16.0201V16.0192Z" fill="#13203D" stroke="#E9ECFF" stroke-width="0.0313569" stroke-miterlimit="23.8"/>
<path d="M6.87484 17.9316C6.40823 17.761 6.02889 17.2387 6.02889 16.7696C6.02889 16.3004 6.40823 16.0567 6.87484 16.2273C7.34145 16.3987 7.72078 16.9202 7.72078 17.3893C7.72078 17.8585 7.34145 18.1022 6.87484 17.9316ZM6.87484 15.8765C6.2164 15.6354 5.68066 15.9783 5.68066 16.6416C5.68066 17.2448 6.12481 17.9073 6.70029 18.2041V19.0014L7.04679 19.1294V18.3312C7.62401 18.4574 8.06815 18.1205 8.06815 17.5164C8.06815 16.8531 7.53241 16.1176 6.87397 15.8756L6.87484 15.8765Z" fill="#13203D" stroke="#E9ECFF" stroke-width="0.0313569" stroke-miterlimit="23.8"/>
<path d="M7.89246 16.0231L8.28821 15.4861L7.98751 15.1988L7.59089 15.7368C7.42239 15.5984 7.24007 15.48 7.04824 15.3903V14.5938L6.70001 14.4659V15.2624C6.50473 15.2101 6.31809 15.1945 6.147 15.211L5.75988 14.3823L5.45745 14.4441L5.84629 15.278C5.4082 15.4382 5.12305 15.8534 5.12305 16.4392L5.47128 16.5672C5.47128 15.7881 6.10033 15.3851 6.8737 15.6689C7.64706 15.9526 8.27612 16.817 8.27612 17.5961L8.62435 17.724C8.62435 17.1347 8.33488 16.5071 7.89246 16.024V16.0231Z" fill="#13203D" stroke="#E9ECFF" stroke-width="0.0313569" stroke-miterlimit="23.8"/>
<path d="M6.868 17.936C6.40139 17.7654 6.02206 17.2431 6.02206 16.774C6.02206 16.3048 6.40139 16.061 6.868 16.2317C7.33461 16.4031 7.71395 16.9245 7.71395 17.3937C7.71395 17.8629 7.33461 18.1066 6.868 17.936V17.936ZM6.868 15.8809C6.20956 15.6397 5.67383 15.9827 5.67383 16.646C5.67383 17.2492 6.11797 17.9116 6.69346 18.2085V19.0058L7.03996 19.1338V18.3356C7.61717 18.4618 8.06131 18.1249 8.06131 17.5208C8.06131 16.8575 7.52558 16.122 6.86714 15.88L6.868 15.8809Z" fill="#13203D" stroke="#E9ECFF" stroke-width="0.0313569" stroke-miterlimit="23.8"/>
<path d="M7.88562 16.0285L8.28138 15.4914L7.98067 15.2042L7.58406 15.7421C7.41556 15.6037 7.23323 15.4853 7.04141 15.3957V14.5992L6.69318 14.4713V15.2677C6.49789 15.2155 6.31125 15.1998 6.14016 15.2164L5.75305 14.3877L5.45061 14.4495L5.83946 15.2834C5.40136 15.4436 5.11621 15.8588 5.11621 16.4446L5.46444 16.5726C5.46444 15.7935 6.0935 15.3905 6.86686 15.6742C7.64022 15.958 8.26928 16.8224 8.26928 17.6014L8.61751 17.7294C8.61751 17.1401 8.32804 16.5125 7.88562 16.0294V16.0285Z" fill="#13203D" stroke="#E9ECFF" stroke-width="0.0313569" stroke-miterlimit="23.8"/>
<path d="M6.868 17.9385C6.40139 17.7679 6.02206 17.2456 6.02206 16.7764C6.02206 16.3072 6.40139 16.0635 6.868 16.2341C7.33461 16.4056 7.71395 16.927 7.71395 17.3962C7.71395 17.8653 7.33461 18.1091 6.868 17.9385ZM6.868 15.8833C6.20956 15.6422 5.67383 15.9851 5.67383 16.6484C5.67383 17.2517 6.11797 17.9141 6.69346 18.2109V19.0083L7.03996 19.1362V18.338C7.61717 18.4642 8.06131 18.1274 8.06131 17.5233C8.06131 16.86 7.52558 16.1244 6.86714 15.8824L6.868 15.8833Z" fill="#13203D" stroke="#E9ECFF" stroke-width="0.0313569" stroke-miterlimit="23.8"/>
<path d="M7.88465 16.0295L8.2804 15.4924L7.9797 15.2052L7.58308 15.7431C7.41458 15.6047 7.23226 15.4863 7.04043 15.3967V14.6002L6.6922 14.4722V15.2687C6.49692 15.2165 6.31027 15.2008 6.13918 15.2174L5.75207 14.3887L5.44964 14.4505L5.83848 15.2844C5.40038 15.4445 5.11523 15.8598 5.11523 16.4456L5.46346 16.5735C5.46346 15.7945 6.09252 15.3914 6.86588 15.6752C7.63925 15.959 8.2683 16.8234 8.2683 17.6024L8.61653 17.7304C8.61653 17.1411 8.32706 16.5135 7.88465 16.0304V16.0295Z" fill="#13203D" stroke="#E9ECFF" stroke-width="0.0313569" stroke-miterlimit="23.8"/>
<path d="M6.86214 17.938C6.39553 17.7674 6.0162 17.2451 6.0162 16.7759C6.0162 16.3067 6.39553 16.063 6.86214 16.2336C7.32875 16.4051 7.70809 16.9265 7.70809 17.3957C7.70809 17.8649 7.32875 18.1086 6.86214 17.938ZM6.86214 15.8828C6.20371 15.6417 5.66797 15.9847 5.66797 16.648C5.66797 17.2512 6.11211 17.9136 6.6876 18.2104V19.0078L7.0341 19.1357V18.3375C7.61131 18.4637 8.05545 18.1269 8.05545 17.5228C8.05545 16.8595 7.51972 16.1239 6.86128 15.8819L6.86214 15.8828Z" fill="#13203D" stroke="#E9ECFF" stroke-width="0.0313569" stroke-miterlimit="23.8"/>
<path d="M7.87976 16.0305L8.27552 15.4934L7.97482 15.2061L7.5782 15.7441C7.4097 15.6057 7.22738 15.4873 7.03555 15.3976V14.6012L6.68732 14.4732V15.2697C6.49203 15.2175 6.30539 15.2018 6.1343 15.2183L5.74719 14.3896L5.44475 14.4515L5.8336 15.2854C5.3955 15.4455 5.11035 15.8607 5.11035 16.4465L5.45858 16.5745C5.45858 15.7954 6.08764 15.3924 6.861 15.6762C7.63436 15.96 8.26342 16.8243 8.26342 17.6034L8.61165 17.7313C8.61165 17.142 8.32218 16.5144 7.87976 16.0313V16.0305Z" fill="#13203D" stroke="#E9ECFF" stroke-width="0.0313569" stroke-miterlimit="23.8"/>
<path d="M6.85921 17.9433C6.3926 17.7727 6.01327 17.2505 6.01327 16.7813C6.01327 16.3121 6.3926 16.0684 6.85921 16.239C7.32582 16.4105 7.70516 16.9319 7.70516 17.401C7.70516 17.8702 7.32582 18.114 6.85921 17.9433V17.9433ZM6.85921 15.8882C6.20078 15.6471 5.66504 15.99 5.66504 16.6533C5.66504 17.2566 6.10918 17.919 6.68467 18.2158V19.0131L7.03117 19.1411V18.3429C7.60838 18.4691 8.05252 18.1322 8.05252 17.5281C8.05252 16.8648 7.51679 16.1293 6.85835 15.8873L6.85921 15.8882Z" fill="#13203D" stroke="#E9ECFF" stroke-width="0.0313569" stroke-miterlimit="23.8"/>
<path d="M7.87586 16.0358L8.27161 15.4988L7.97091 15.2115L7.57429 15.7495C7.40579 15.6111 7.22347 15.4927 7.03164 15.403V14.6065L6.68341 14.4786V15.2751C6.48813 15.2228 6.30148 15.2072 6.13039 15.2237L5.74328 14.395L5.44085 14.4568L5.82969 15.2907C5.3916 15.4509 5.10645 15.8661 5.10645 16.4519L5.45467 16.5799C5.45467 15.8008 6.08373 15.3978 6.85709 15.6816C7.63046 15.9653 8.25951 16.8297 8.25951 17.6088L8.60774 17.7367C8.60774 17.1474 8.31827 16.5198 7.87586 16.0367V16.0358Z" fill="#13203D" stroke="#E9ECFF" stroke-width="0.0313569" stroke-miterlimit="23.8"/>
<path d="M6.85433 17.9443C6.38772 17.7737 6.00839 17.2514 6.00839 16.7823C6.00839 16.3131 6.38772 16.0693 6.85433 16.24C7.32094 16.4114 7.70028 16.9328 7.70028 17.402C7.70028 17.8712 7.32094 18.1149 6.85433 17.9443ZM6.85433 15.8892C6.19589 15.648 5.66016 15.991 5.66016 16.6543C5.66016 17.2575 6.1043 17.9199 6.67978 18.2168V19.0141L7.02628 19.1421V18.3439C7.6035 18.4701 8.04764 18.1332 8.04764 17.5291C8.04764 16.8658 7.5119 16.1303 6.85347 15.8883L6.85433 15.8892Z" fill="#13203D" stroke="#E9ECFF" stroke-width="0.0313569" stroke-miterlimit="23.8"/>
<path d="M7.87098 16.0383L8.26673 15.5012L7.96603 15.214L7.56941 15.7519C7.40091 15.6135 7.21859 15.4951 7.02676 15.4055V14.609L6.67853 14.481V15.2775C6.48324 15.2253 6.2966 15.2096 6.12551 15.2261L5.7384 14.3975L5.43597 14.4593L5.82481 15.2932C5.38671 15.4533 5.10156 15.8685 5.10156 16.4544L5.44979 16.5823C5.44979 15.8033 6.07885 15.4002 6.85221 15.684C7.62557 15.9678 8.25463 16.8321 8.25463 17.6112L8.60286 17.7392C8.60286 17.1499 8.31339 16.5223 7.87098 16.0391V16.0383Z" fill="#13203D" stroke="#E9ECFF" stroke-width="0.0313569" stroke-miterlimit="23.8"/>
<path d="M6.84847 17.9477C6.38186 17.7771 6.00253 17.2549 6.00253 16.7857C6.00253 16.3165 6.38186 16.0728 6.84847 16.2434C7.31508 16.4149 7.69442 16.9363 7.69442 17.4054C7.69442 17.8746 7.31508 18.1183 6.84847 17.9477ZM6.84847 15.8926C6.19003 15.6515 5.6543 15.9944 5.6543 16.6577C5.6543 17.2609 6.09844 17.9234 6.67392 18.2202V19.0175L7.02043 19.1455V18.3473C7.59764 18.4735 8.04178 18.1366 8.04178 17.5325C8.04178 16.8692 7.50605 16.1337 6.84761 15.8917L6.84847 15.8926Z" fill="#13203D" stroke="#E9ECFF" stroke-width="0.0313569" stroke-miterlimit="23.8"/>
<path d="M7.86609 16.0397L8.26185 15.5027L7.96114 15.2154L7.56453 15.7534C7.39603 15.615 7.2137 15.4966 7.02188 15.4069V14.6104L6.67365 14.4825V15.279C6.47836 15.2267 6.29172 15.2111 6.12063 15.2276L5.73352 14.3989L5.43108 14.4607L5.81992 15.2946C5.38183 15.4548 5.09668 15.87 5.09668 16.4558L5.44491 16.5838C5.44491 15.8047 6.07397 15.4017 6.84733 15.6855C7.62069 15.9692 8.24975 16.8336 8.24975 17.6127L8.59798 17.7406C8.59798 17.1513 8.30851 16.5237 7.86609 16.0406V16.0397Z" fill="#13203D" stroke="#E9ECFF" stroke-width="0.0313569" stroke-miterlimit="23.8"/>
<path d="M6.84749 17.9492C6.38089 17.7786 6.00155 17.2563 6.00155 16.7871C6.00155 16.318 6.38089 16.0742 6.84749 16.2448C7.3141 16.4163 7.69344 16.9377 7.69344 17.4069C7.69344 17.8761 7.3141 18.1198 6.84749 17.9492V17.9492ZM6.84749 15.894C6.18906 15.6529 5.65332 15.9959 5.65332 16.6592C5.65332 17.2624 6.09746 17.9248 6.67295 18.2217V19.019L7.01945 19.147V18.3487C7.59666 18.475 8.0408 18.1381 8.0408 17.534C8.0408 16.8707 7.50507 16.1352 6.84663 15.8932L6.84749 15.894Z" fill="#13203D" stroke="#E9ECFF" stroke-width="0.0313569" stroke-miterlimit="23.8"/>
<path d="M7.86512 16.0417L8.26087 15.5046L7.96017 15.2174L7.56355 15.7553C7.39505 15.6169 7.21273 15.4985 7.0209 15.4089V14.6124L6.67267 14.4844V15.2809C6.47739 15.2287 6.29074 15.213 6.11965 15.2296L5.73254 14.4009L5.43011 14.4627L5.81895 15.2966C5.38085 15.4567 5.0957 15.872 5.0957 16.4578L5.44393 16.5857C5.44393 15.8067 6.07299 15.4036 6.84635 15.6874C7.61971 15.9712 8.24877 16.8356 8.24877 17.6146L8.597 17.7426C8.597 17.1533 8.30753 16.5257 7.86512 16.0426V16.0417Z" fill="#13203D" stroke="#E9ECFF" stroke-width="0.0313569" stroke-miterlimit="23.8"/>
<path d="M6.84261 17.9556C6.376 17.7849 5.99667 17.2627 5.99667 16.7935C5.99667 16.3243 6.376 16.0806 6.84261 16.2512C7.30922 16.4227 7.68856 16.9441 7.68856 17.4133C7.68856 17.8824 7.30922 18.1262 6.84261 17.9556ZM6.84261 15.9004C6.18417 15.6593 5.64844 16.0022 5.64844 16.6655C5.64844 17.2688 6.09258 17.9312 6.66807 18.228V19.0253L7.01457 19.1533V18.3551C7.59178 18.4813 8.03592 18.1444 8.03592 17.5403C8.03592 16.8771 7.50019 16.1415 6.84175 15.8995L6.84261 15.9004Z" fill="#13203D" stroke="#E9ECFF" stroke-width="0.0313569" stroke-miterlimit="23.8"/>
<path d="M7.86023 16.048L8.25599 15.511L7.95528 15.2237L7.55867 15.7617C7.39017 15.6233 7.20784 15.5049 7.01602 15.4152V14.6187L6.66779 14.4908V15.2873C6.4725 15.235 6.28586 15.2194 6.11477 15.2359L5.72766 14.4072L5.42522 14.469L5.81406 15.3029C5.37597 15.4631 5.09082 15.8783 5.09082 16.4641L5.43905 16.5921C5.43905 15.813 6.06811 15.41 6.84147 15.6938C7.61483 15.9775 8.24389 16.8419 8.24389 17.621L8.59212 17.7489C8.59212 17.1596 8.30265 16.532 7.86023 16.0489V16.048Z" fill="#13203D" stroke="#E9ECFF" stroke-width="0.0313569" stroke-miterlimit="23.8"/>
<path d="M6.83871 17.9565C6.3721 17.7859 5.99276 17.2636 5.99276 16.7945C5.99276 16.3253 6.3721 16.0816 6.83871 16.2522C7.30532 16.4236 7.68465 16.9451 7.68465 17.4142C7.68465 17.8834 7.30532 18.1271 6.83871 17.9565V17.9565ZM6.83871 15.9014C6.18027 15.6603 5.64453 16.0032 5.64453 16.6665C5.64453 17.2697 6.08867 17.9322 6.66416 18.229V19.0263L7.01066 19.1543V18.3561C7.58787 18.4823 8.03202 18.1454 8.03202 17.5413C8.03202 16.878 7.49628 16.1425 6.83784 15.9005L6.83871 15.9014Z" fill="#13203D" stroke="#E9ECFF" stroke-width="0.0313569" stroke-miterlimit="23.8"/>
<path d="M7.85633 16.0495L8.25208 15.5124L7.95138 15.2252L7.55476 15.7631C7.38626 15.6247 7.20394 15.5063 7.01211 15.4167V14.6202L6.66388 14.4923V15.2887C6.4686 15.2365 6.28195 15.2208 6.11086 15.2374L5.72375 14.4087L5.42132 14.4705L5.81016 15.3044C5.37206 15.4646 5.08691 15.8798 5.08691 16.4656L5.43514 16.5935C5.43514 15.8145 6.0642 15.4115 6.83756 15.6952C7.61093 15.979 8.23998 16.8434 8.23998 17.6224L8.58821 17.7504C8.58821 17.1611 8.29874 16.5335 7.85633 16.0504V16.0495Z" fill="#13203D" stroke="#E9ECFF" stroke-width="0.0313569" stroke-miterlimit="23.8"/>
<path d="M6.83285 17.959C6.36624 17.7884 5.9869 17.2661 5.9869 16.7969C5.9869 16.3277 6.36624 16.084 6.83285 16.2546C7.29946 16.4261 7.67879 16.9475 7.67879 17.4167C7.67879 17.8859 7.29946 18.1296 6.83285 17.959V17.959ZM6.83285 15.9038C6.17441 15.6627 5.63867 16.0057 5.63867 16.6689C5.63867 17.2722 6.08281 17.9346 6.6583 18.2314V19.0288L7.0048 19.1567V18.3585C7.58201 18.4847 8.02616 18.1479 8.02616 17.5438C8.02616 16.8805 7.49042 16.1449 6.83198 15.9029L6.83285 15.9038Z" fill="#13203D" stroke="#E9ECFF" stroke-width="0.0313569" stroke-miterlimit="23.8"/>
<path d="M7.85145 16.0515L8.2472 15.5144L7.9465 15.2271L7.54988 15.7651C7.38138 15.6267 7.19906 15.5083 7.00723 15.4186V14.6222L6.659 14.4942V15.2907C6.46371 15.2385 6.27707 15.2228 6.10598 15.2393L5.71887 14.4106L5.41643 14.4724L5.80528 15.3063C5.36718 15.4665 5.08203 15.8817 5.08203 16.4675L5.43026 16.5955C5.43026 15.8164 6.05932 15.4134 6.83268 15.6972C7.60604 15.981 8.2351 16.8453 8.2351 17.6244L8.58333 17.7523C8.58333 17.163 8.29386 16.5354 7.85145 16.0523V16.0515Z" fill="#13203D" stroke="#E9ECFF" stroke-width="0.0313569" stroke-miterlimit="23.8"/>
<path d="M6.83187 17.9609C6.36526 17.7903 5.98592 17.268 5.98592 16.7989C5.98592 16.3297 6.36526 16.086 6.83187 16.2566C7.29848 16.428 7.67782 16.9494 7.67782 17.4186C7.67782 17.8878 7.29848 18.1315 6.83187 17.9609ZM6.83187 15.9058C6.17343 15.6646 5.6377 16.0076 5.6377 16.6709C5.6377 17.2741 6.08184 17.9365 6.65732 18.2334V19.0307L7.00382 19.1587V18.3605C7.58104 18.4867 8.02518 18.1498 8.02518 17.5457C8.02518 16.8824 7.48944 16.1469 6.83101 15.9049L6.83187 15.9058Z" fill="#13203D" stroke="#E9ECFF" stroke-width="0.0313569" stroke-miterlimit="23.8"/>
<path d="M7.84949 16.0534L8.24525 15.5163L7.94454 15.2291L7.54792 15.767C7.37943 15.6286 7.1971 15.5102 7.00527 15.4206V14.6241L6.65705 14.4962V15.2926C6.46176 15.2404 6.27512 15.2247 6.10403 15.2413L5.71691 14.4126L5.41448 14.4744L5.80332 15.3083C5.36523 15.4685 5.08008 15.8837 5.08008 16.4695L5.42831 16.5975C5.42831 15.8184 6.05737 15.4154 6.83073 15.6991C7.60409 15.9829 8.23315 16.8473 8.23315 17.6263L8.58138 17.7543C8.58138 17.165 8.29191 16.5374 7.84949 16.0543V16.0534Z" fill="#13203D" stroke="#E9ECFF" stroke-width="0.0313569" stroke-miterlimit="23.8"/>
<path d="M6.82894 17.9643C6.36233 17.7937 5.98299 17.2715 5.98299 16.8023C5.98299 16.3331 6.36233 16.0894 6.82894 16.26C7.29555 16.4315 7.67489 16.9529 7.67489 17.422C7.67489 17.8912 7.29555 18.135 6.82894 17.9643ZM6.82894 15.9092C6.1705 15.6681 5.63477 16.011 5.63477 16.6743C5.63477 17.2775 6.07891 17.94 6.65439 18.2368V19.0341L7.00089 19.1621V18.3639C7.57811 18.4901 8.02225 18.1532 8.02225 17.5491C8.02225 16.8858 7.48651 16.1503 6.82808 15.9083L6.82894 15.9092Z" fill="#13203D" stroke="#E9ECFF" stroke-width="0.0313569" stroke-miterlimit="23.8"/>
<path d="M7.84656 16.0568L8.24232 15.5198L7.94161 15.2325L7.54499 15.7705C7.3765 15.632 7.19417 15.5137 7.00234 15.424V14.6275L6.65411 14.4996V15.2961C6.45883 15.2438 6.27219 15.2282 6.1011 15.2447L5.71398 14.416L5.41155 14.4778L5.80039 15.3117C5.3623 15.4719 5.07715 15.8871 5.07715 16.4729L5.42538 16.6009C5.42538 15.8218 6.05444 15.4188 6.8278 15.7026C7.60116 15.9863 8.23022 16.8507 8.23022 17.6298L8.57845 17.7577C8.57845 17.1684 8.28898 16.5408 7.84656 16.0577V16.0568Z" fill="#13203D" stroke="#E9ECFF" stroke-width="0.0313569" stroke-miterlimit="23.8"/>
<path d="M6.82503 17.9663C6.35842 17.7957 5.97909 17.2734 5.97909 16.8042C5.97909 16.3351 6.35842 16.0913 6.82503 16.2619C7.29164 16.4334 7.67098 16.9548 7.67098 17.424C7.67098 17.8932 7.29164 18.1369 6.82503 17.9663ZM6.82503 15.9111C6.1666 15.67 5.63086 16.013 5.63086 16.6763C5.63086 17.2795 6.075 17.9419 6.65049 18.2387V19.0361L6.99699 19.1641V18.3658C7.5742 18.4921 8.01835 18.1552 8.01835 17.5511C8.01835 16.8878 7.48261 16.1523 6.82417 15.9103L6.82503 15.9111Z" fill="#13203D" stroke="#E9ECFF" stroke-width="0.0313569" stroke-miterlimit="23.8"/>
<path d="M7.84266 16.0603L8.23841 15.5232L7.93771 15.2359L7.54109 15.7739C7.37259 15.6355 7.19027 15.5171 6.99844 15.4274V14.631L6.65021 14.503V15.2995C6.45492 15.2472 6.26828 15.2316 6.09719 15.2481L5.71008 14.4194L5.40765 14.4812L5.79649 15.3151C5.35839 15.4753 5.07324 15.8905 5.07324 16.4763L5.42147 16.6043C5.42147 15.8252 6.05053 15.4222 6.82389 15.706C7.59725 15.9897 8.22631 16.8541 8.22631 17.6332L8.57454 17.7611C8.57454 17.1718 8.28507 16.5442 7.84266 16.0611V16.0603Z" fill="#13203D" stroke="#E9ECFF" stroke-width="0.0313569" stroke-miterlimit="23.8"/>
<path d="M6.82308 17.9687C6.35647 17.7981 5.97714 17.2758 5.97714 16.8067C5.97714 16.3375 6.35647 16.0938 6.82308 16.2644C7.28969 16.4359 7.66903 16.9573 7.66903 17.4264C7.66903 17.8956 7.28969 18.1393 6.82308 17.9687ZM6.82308 15.9136C6.16464 15.6725 5.62891 16.0154 5.62891 16.6787C5.62891 17.2819 6.07305 17.9444 6.64853 18.2412V19.0385L6.99504 19.1665V18.3683C7.57225 18.4945 8.01639 18.1576 8.01639 17.5535C8.01639 16.8902 7.48065 16.1547 6.82222 15.9127L6.82308 15.9136Z" fill="#13203D" stroke="#E9ECFF" stroke-width="0.0313569" stroke-miterlimit="23.8"/>
<path d="M7.83973 16.0612L8.23548 15.5242L7.93478 15.2369L7.53816 15.7748C7.36966 15.6364 7.18734 15.5181 6.99551 15.4284V14.6319L6.64728 14.504V15.3004C6.45199 15.2482 6.26535 15.2326 6.09426 15.2491L5.70715 14.4204L5.40472 14.4822L5.79356 15.3161C5.35546 15.4763 5.07031 15.8915 5.07031 16.4773L5.41854 16.6053C5.41854 15.8262 6.0476 15.4232 6.82096 15.707C7.59432 15.9907 8.22338 16.8551 8.22338 17.6342L8.57161 17.7621C8.57161 17.1728 8.28214 16.5452 7.83973 16.0621V16.0612Z" fill="#13203D" stroke="#E9ECFF" stroke-width="0.0313569" stroke-miterlimit="23.8"/>
<path d="M6.81917 17.9722C6.35257 17.8015 5.97323 17.2793 5.97323 16.8101C5.97323 16.3409 6.35257 16.0972 6.81917 16.2678C7.28578 16.4393 7.66512 16.9607 7.66512 17.4299C7.66512 17.899 7.28578 18.1428 6.81917 17.9722V17.9722ZM6.81917 15.917C6.16074 15.6759 5.625 16.0188 5.625 16.6821C5.625 17.2854 6.06914 17.9478 6.64463 18.2446V19.0419L6.99113 19.1699V18.3717C7.56834 18.4979 8.01249 18.161 8.01249 17.5569C8.01249 16.8937 7.47675 16.1581 6.81831 15.9161L6.81917 15.917Z" fill="#13203D" stroke="#E9ECFF" stroke-width="0.0313569" stroke-miterlimit="23.8"/>
<path d="M7.83484 16.0642L8.2306 15.5271L7.92989 15.2398L7.53327 15.7778C7.36478 15.6394 7.18245 15.521 6.99063 15.4313V14.6349L6.6424 14.5069V15.3034C6.44711 15.2511 6.26047 15.2355 6.08938 15.252L5.70227 14.4233L5.39983 14.4851L5.78867 15.319C5.35058 15.4792 5.06543 15.8944 5.06543 16.4802L5.41366 16.6082C5.41366 15.8291 6.04272 15.4261 6.81608 15.7099C7.58944 15.9937 8.2185 16.858 8.2185 17.6371L8.56673 17.765C8.56673 17.1757 8.27726 16.5481 7.83484 16.065V16.0642Z" fill="#13203D" stroke="#E9ECFF" stroke-width="0.0313569" stroke-miterlimit="23.8"/>
<path d="M6.81234 17.9785C6.34573 17.8079 5.96639 17.2856 5.96639 16.8164C5.96639 16.3473 6.34573 16.1035 6.81234 16.2741C7.27895 16.4456 7.65828 16.967 7.65828 17.4362C7.65828 17.9054 7.27895 18.1491 6.81234 17.9785V17.9785ZM6.81234 15.9233C6.1539 15.6822 5.61816 16.0252 5.61816 16.6885C5.61816 17.2917 6.06231 17.9541 6.63779 18.251V19.0483L6.98429 19.1763V18.378C7.56151 18.5043 8.00565 18.1674 8.00565 17.5633C8.00565 16.9 7.46991 16.1645 6.81147 15.9225L6.81234 15.9233Z" fill="#13203D" stroke="#E9ECFF" stroke-width="0.0313569" stroke-miterlimit="23.8"/>
<path d="M7.82996 16.0705L8.22571 15.5334L7.92501 15.2462L7.52839 15.7841C7.35989 15.6457 7.17757 15.5273 6.98574 15.4377V14.6412L6.63751 14.5133V15.3097C6.44223 15.2575 6.25559 15.2418 6.0845 15.2584L5.69738 14.4297L5.39495 14.4915L5.78379 15.3254C5.3457 15.4856 5.06055 15.9008 5.06055 16.4866L5.40878 16.6145C5.40878 15.8355 6.03783 15.4325 6.8112 15.7162C7.58456 16 8.21362 16.8644 8.21362 17.6434L8.56185 17.7714C8.56185 17.1821 8.27238 16.5545 7.82996 16.0714V16.0705Z" fill="#13203D" stroke="#E9ECFF" stroke-width="0.0313569" stroke-miterlimit="23.8"/>
<path d="M6.81136 17.9795C6.34475 17.8089 5.96542 17.2866 5.96542 16.8174C5.96542 16.3482 6.34475 16.1045 6.81136 16.2751C7.27797 16.4466 7.65731 16.968 7.65731 17.4372C7.65731 17.9064 7.27797 18.1501 6.81136 17.9795ZM6.81136 15.9243C6.15292 15.6832 5.61719 16.0262 5.61719 16.6895C5.61719 17.2927 6.06133 17.9551 6.63682 18.2519V19.0493L6.98332 19.1772V18.379C7.56053 18.5052 8.00467 18.1684 8.00467 17.5643C8.00467 16.901 7.46894 16.1654 6.8105 15.9234L6.81136 15.9243Z" fill="#13203D" stroke="#E9ECFF" stroke-width="0.0313569" stroke-miterlimit="23.8"/>
<path d="M7.82996 16.072L8.22571 15.5349L7.92501 15.2476L7.52839 15.7856C7.35989 15.6472 7.17757 15.5288 6.98574 15.4391V14.6427L6.63751 14.5147V15.3112C6.44223 15.259 6.25559 15.2433 6.0845 15.2598L5.69738 14.4312L5.39495 14.493L5.78379 15.3269C5.3457 15.487 5.06055 15.9022 5.06055 16.4881L5.40878 16.616C5.40878 15.8369 6.03783 15.4339 6.8112 15.7177C7.58456 16.0015 8.21362 16.8658 8.21362 17.6449L8.56185 17.7729C8.56185 17.1835 8.27238 16.5559 7.82996 16.0728V16.072Z" fill="#13203D" stroke="#E9ECFF" stroke-width="0.0313569" stroke-miterlimit="23.8"/>
<path d="M6.80453 17.9805C6.33792 17.8098 5.95858 17.2876 5.95858 16.8184C5.95858 16.3492 6.33792 16.1055 6.80453 16.2761C7.27114 16.4476 7.65047 16.969 7.65047 17.4382C7.65047 17.9073 7.27114 18.1511 6.80453 17.9805V17.9805ZM6.80453 15.9253C6.14609 15.6842 5.61035 16.0271 5.61035 16.6904C5.61035 17.2937 6.05449 17.9561 6.62998 18.2529V19.0503L6.97648 19.1782V18.38C7.55369 18.5062 7.99784 18.1693 7.99784 17.5652C7.99784 16.902 7.4621 16.1664 6.80366 15.9244L6.80453 15.9253Z" fill="#13203D" stroke="#E9ECFF" stroke-width="0.0313569" stroke-miterlimit="23.8"/>
<path d="M7.82215 16.0729L8.2179 15.5359L7.9172 15.2486L7.52058 15.7866C7.35208 15.6482 7.16976 15.5298 6.97793 15.4401V14.6437L6.6297 14.5157V15.3122C6.43442 15.2599 6.24777 15.2443 6.07668 15.2608L5.68957 14.4321L5.38714 14.4939L5.77598 15.3278C5.33788 15.488 5.05273 15.9032 5.05273 16.489L5.40096 16.617C5.40096 15.8379 6.03002 15.4349 6.80338 15.7187C7.57675 16.0024 8.2058 16.8668 8.2058 17.6459L8.55403 17.7738C8.55403 17.1845 8.26456 16.5569 7.82215 16.0738V16.0729Z" fill="#13203D" stroke="#E9ECFF" stroke-width="0.0313569" stroke-miterlimit="23.8"/>
<path d="M6.80062 17.9839C6.33401 17.8133 5.95467 17.291 5.95467 16.8218C5.95467 16.3526 6.33401 16.1089 6.80062 16.2795C7.26723 16.451 7.64657 16.9724 7.64657 17.4416C7.64657 17.9108 7.26723 18.1545 6.80062 17.9839ZM6.80062 15.9287C6.14218 15.6876 5.60645 16.0306 5.60645 16.6938C5.60645 17.2971 6.05059 17.9595 6.62607 18.2563V19.0537L6.97257 19.1816V18.3834C7.54979 18.5096 7.99393 18.1728 7.99393 17.5687C7.99393 16.9054 7.45819 16.1698 6.79976 15.9278L6.80062 15.9287Z" fill="#13203D" stroke="#E9ECFF" stroke-width="0.0313569" stroke-miterlimit="23.8"/>
<path d="M7.81824 16.0778L8.214 15.5408L7.91329 15.2535L7.51667 15.7914C7.34818 15.653 7.16585 15.5347 6.97402 15.445V14.6485L6.6258 14.5206V15.317C6.43051 15.2648 6.24387 15.2492 6.07278 15.2657L5.68566 14.437L5.38323 14.4988L5.77207 15.3327C5.33398 15.4929 5.04883 15.9081 5.04883 16.4939L5.39706 16.6219C5.39706 15.8428 6.02612 15.4398 6.79948 15.7236C7.57284 16.0073 8.2019 16.8717 8.2019 17.6508L8.55013 17.7787C8.55013 17.1894 8.26066 16.5618 7.81824 16.0787V16.0778Z" fill="#13203D" stroke="#E9ECFF" stroke-width="0.0313569" stroke-miterlimit="23.8"/>
<path d="M6.79964 17.9878C6.33303 17.8172 5.9537 17.2949 5.9537 16.8257C5.9537 16.3565 6.33303 16.1128 6.79964 16.2834C7.26625 16.4549 7.64559 16.9763 7.64559 17.4455C7.64559 17.9147 7.26625 18.1584 6.79964 17.9878ZM6.79964 15.9326C6.14121 15.6915 5.60547 16.0345 5.60547 16.6978C5.60547 17.301 6.04961 17.9634 6.6251 18.2602V19.0576L6.9716 19.1855V18.3873C7.54881 18.5135 7.99295 18.1767 7.99295 17.5726C7.99295 16.9093 7.45722 16.1737 6.79878 15.9317L6.79964 15.9326Z" fill="#13203D" stroke="#E9ECFF" stroke-width="0.0313569" stroke-miterlimit="23.8"/>
<path d="M7.81629 16.0803L8.21204 15.5432L7.91134 15.2559L7.51472 15.7939C7.34622 15.6555 7.1639 15.5371 6.97207 15.4474V14.651L6.62384 14.523V15.3195C6.42856 15.2673 6.24191 15.2516 6.07082 15.2681L5.68371 14.4395L5.38128 14.5013L5.77012 15.3352C5.33203 15.4953 5.04688 15.9105 5.04688 16.4964L5.3951 16.6243C5.3951 15.8452 6.02416 15.4422 6.79752 15.726C7.57089 16.0098 8.19995 16.8741 8.19995 17.6532L8.54817 17.7812C8.54817 17.1919 8.2587 16.5642 7.81629 16.0811V16.0803Z" fill="#13203D" stroke="#E9ECFF" stroke-width="0.0313569" stroke-miterlimit="23.8"/>
<path d="M6.79281 17.9897C6.3262 17.8191 5.94686 17.2968 5.94686 16.8277C5.94686 16.3585 6.3262 16.1148 6.79281 16.2854C7.25942 16.4569 7.63875 16.9783 7.63875 17.4474C7.63875 17.9166 7.25942 18.1603 6.79281 17.9897V17.9897ZM6.79281 15.9346C6.13437 15.6935 5.59863 16.0364 5.59863 16.6997C5.59863 17.3029 6.04278 17.9654 6.61826 18.2622V19.0595L6.96476 19.1875V18.3893C7.54197 18.5155 7.98612 18.1786 7.98612 17.5745C7.98612 16.9112 7.45038 16.1757 6.79194 15.9337L6.79281 15.9346Z" fill="#13203D" stroke="#E9ECFF" stroke-width="0.0313569" stroke-miterlimit="23.8"/>
<path d="M7.81141 16.0837L8.20716 15.5466L7.90646 15.2594L7.50984 15.7973C7.34134 15.6589 7.15902 15.5405 6.96719 15.4509V14.6544L6.61896 14.5264V15.3229C6.42367 15.2707 6.23703 15.255 6.06594 15.2716L5.67883 14.4429L5.3764 14.5047L5.76524 15.3386C5.32714 15.4987 5.04199 15.914 5.04199 16.4998L5.39022 16.6277C5.39022 15.8487 6.01928 15.4456 6.79264 15.7294C7.566 16.0132 8.19506 16.8776 8.19506 17.6566L8.54329 17.7846C8.54329 17.1953 8.25382 16.5677 7.81141 16.0846V16.0837Z" fill="#13203D" stroke="#E9ECFF" stroke-width="0.0313569" stroke-miterlimit="23.8"/>
<path d="M6.79378 17.9917C6.32717 17.8211 5.94784 17.2988 5.94784 16.8296C5.94784 16.3604 6.32717 16.1167 6.79378 16.2873C7.26039 16.4588 7.63973 16.9802 7.63973 17.4494C7.63973 17.9186 7.26039 18.1623 6.79378 17.9917ZM6.79378 15.9365C6.13535 15.6954 5.59961 16.0384 5.59961 16.7017C5.59961 17.3049 6.04375 17.9673 6.61924 18.2641V19.0615L6.96574 19.1894V18.3912C7.54295 18.5174 7.98709 18.1806 7.98709 17.5765C7.98709 16.9132 7.45136 16.1776 6.79292 15.9357L6.79378 15.9365Z" fill="#13203D" stroke="#E9ECFF" stroke-width="0.0313569" stroke-miterlimit="23.8"/>
<path d="M7.81043 16.0842L8.20618 15.5471L7.90548 15.2599L7.50886 15.7978C7.34036 15.6594 7.15804 15.541 6.96621 15.4514V14.6549L6.61798 14.5269V15.3234C6.4227 15.2712 6.23605 15.2555 6.06496 15.272L5.67785 14.4434L5.37542 14.5052L5.76426 15.3391C5.32617 15.4992 5.04102 15.9144 5.04102 16.5003L5.38924 16.6282C5.38924 15.8492 6.0183 15.4461 6.79166 15.7299C7.56503 16.0137 8.19409 16.878 8.19409 17.6571L8.54231 17.7851C8.54231 17.1958 8.25284 16.5682 7.81043 16.085V16.0842Z" fill="#13203D" stroke="#E9ECFF" stroke-width="0.0313569" stroke-miterlimit="23.8"/>
<path d="M6.78499 17.9951C6.31839 17.8245 5.93905 17.3022 5.93905 16.833C5.93905 16.3639 6.31839 16.1201 6.78499 16.2907C7.2516 16.4622 7.63094 16.9836 7.63094 17.4528C7.63094 17.922 7.2516 18.1657 6.78499 17.9951ZM6.78499 15.9399C6.12656 15.6988 5.59082 16.0418 5.59082 16.7051C5.59082 17.3083 6.03496 17.9707 6.61045 18.2676V19.0649L6.95695 19.1929V18.3946C7.53416 18.5209 7.97831 18.184 7.97831 17.5799C7.97831 16.9166 7.44257 16.1811 6.78413 15.9391L6.78499 15.9399Z" fill="#13203D" stroke="#E9ECFF" stroke-width="0.0313569" stroke-miterlimit="23.8"/>
<path d="M7.80555 16.0876L8.2013 15.5505L7.9006 15.2633L7.50398 15.8012C7.33548 15.6628 7.15316 15.5444 6.96133 15.4548V14.6583L6.6131 14.5303V15.3268C6.41782 15.2746 6.23117 15.2589 6.06008 15.2755L5.67297 14.4468L5.37054 14.5086L5.75938 15.3425C5.32128 15.5026 5.03613 15.9179 5.03613 16.5037L5.38436 16.6316C5.38436 15.8526 6.01342 15.4495 6.78678 15.7333C7.56014 16.0171 8.1892 16.8815 8.1892 17.6605L8.53743 17.7885C8.53743 17.1992 8.24796 16.5716 7.80555 16.0885V16.0876Z" fill="#13203D" stroke="#E9ECFF" stroke-width="0.0313569" stroke-miterlimit="23.8"/>
<path d="M6.78304 17.9995C6.31643 17.8289 5.9371 17.3066 5.9371 16.8374C5.9371 16.3683 6.31643 16.1245 6.78304 16.2951C7.24965 16.4666 7.62899 16.988 7.62899 17.4572C7.62899 17.9264 7.24965 18.1701 6.78304 17.9995V17.9995ZM6.78304 15.9443C6.1246 15.7032 5.58887 16.0462 5.58887 16.7095C5.58887 17.3127 6.03301 17.9751 6.6085 18.272V19.0693L6.955 19.1973V18.399C7.53221 18.5253 7.97635 18.1884 7.97635 17.5843C7.97635 16.921 7.44062 16.1855 6.78218 15.9435L6.78304 15.9443Z" fill="#13203D" stroke="#E9ECFF" stroke-width="0.0313569" stroke-miterlimit="23.8"/>
<path d="M7.79969 16.092L8.19544 15.5549L7.89474 15.2677L7.49812 15.8056C7.32962 15.6672 7.1473 15.5488 6.95547 15.4592V14.6627L6.60724 14.5347V15.3312C6.41196 15.279 6.22531 15.2633 6.05422 15.2799L5.66711 14.4512L5.36468 14.513L5.75352 15.3469C5.31542 15.507 5.03027 15.9223 5.03027 16.5081L5.3785 16.636C5.3785 15.857 6.00756 15.4539 6.78092 15.7377C7.55428 16.0215 8.18334 16.8859 8.18334 17.6649L8.53157 17.7929C8.53157 17.2036 8.2421 16.576 7.79969 16.0929V16.092Z" fill="#13203D" stroke="#E9ECFF" stroke-width="0.0313569" stroke-miterlimit="23.8"/>
<path d="M6.77914 18.0044C6.31253 17.8338 5.93319 17.3115 5.93319 16.8423C5.93319 16.3731 6.31253 16.1294 6.77914 16.3C7.24575 16.4715 7.62508 16.9929 7.62508 17.4621C7.62508 17.9313 7.24575 18.175 6.77914 18.0044ZM6.77914 15.9492C6.1207 15.7081 5.58496 16.0511 5.58496 16.7144C5.58496 17.3176 6.0291 17.98 6.60459 18.2768V19.0742L6.95109 19.2021V18.4039C7.5283 18.5301 7.97245 18.1933 7.97245 17.5892C7.97245 16.9259 7.43671 16.1903 6.77827 15.9484L6.77914 15.9492Z" fill="#13203D" stroke="#E9ECFF" stroke-width="0.0313569" stroke-miterlimit="23.8"/>
<path d="M7.79773 16.0949L8.19349 15.5578L7.89278 15.2706L7.49617 15.8085C7.32767 15.6701 7.14534 15.5518 6.95352 15.4621V14.6656L6.60529 14.5377V15.3341C6.41 15.2819 6.22336 15.2662 6.05227 15.2828L5.66516 14.4541L5.36272 14.5159L5.75156 15.3498C5.31347 15.51 5.02832 15.9252 5.02832 16.511L5.37655 16.639C5.37655 15.8599 6.00561 15.4569 6.77897 15.7406C7.55233 16.0244 8.18139 16.8888 8.18139 17.6678L8.52962 17.7958C8.52962 17.2065 8.24015 16.5789 7.79773 16.0958V16.0949Z" fill="#13203D" stroke="#E9ECFF" stroke-width="0.0313569" stroke-miterlimit="23.8"/>
<path d="M6.77523 18.0044C6.30862 17.8338 5.92928 17.3115 5.92928 16.8423C5.92928 16.3731 6.30862 16.1294 6.77523 16.3C7.24184 16.4715 7.62117 16.9929 7.62117 17.4621C7.62117 17.9313 7.24184 18.175 6.77523 18.0044V18.0044ZM6.77523 15.9492C6.11679 15.7081 5.58105 16.0511 5.58105 16.7144C5.58105 17.3176 6.0252 17.98 6.60068 18.2768V19.0742L6.94718 19.2021V18.4039C7.5244 18.5301 7.96854 18.1933 7.96854 17.5892C7.96854 16.9259 7.4328 16.1903 6.77437 15.9484L6.77523 15.9492Z" fill="#13203D" stroke="#E9ECFF" stroke-width="0.0313569" stroke-miterlimit="23.8"/>
<path d="M7.79285 16.0969L8.18861 15.5598L7.8879 15.2725L7.49128 15.8105C7.32279 15.6721 7.14046 15.5537 6.94863 15.464V14.6676L6.6004 14.5396V15.3361C6.40512 15.2839 6.21848 15.2682 6.04739 15.2847L5.66027 14.4561L5.35784 14.5179L5.74668 15.3518C5.30859 15.5119 5.02344 15.9271 5.02344 16.513L5.37167 16.6409C5.37167 15.8618 6.00073 15.4588 6.77409 15.7426C7.54745 16.0264 8.17651 16.8907 8.17651 17.6698L8.52474 17.7978C8.52474 17.2085 8.23527 16.5808 7.79285 16.0977V16.0969Z" fill="#13203D" stroke="#E9ECFF" stroke-width="0.0313569" stroke-miterlimit="23.8"/>
<path d="M6.77425 18.0083C6.30764 17.8377 5.92831 17.3154 5.92831 16.8462C5.92831 16.377 6.30764 16.1333 6.77425 16.3039C7.24086 16.4754 7.6202 16.9968 7.6202 17.466C7.6202 17.9352 7.24086 18.1789 6.77425 18.0083V18.0083ZM6.77425 15.9531C6.11581 15.712 5.58008 16.055 5.58008 16.7183C5.58008 17.3215 6.02422 17.9839 6.59971 18.2807V19.0781L6.94621 19.206V18.4078C7.52342 18.534 7.96756 18.1972 7.96756 17.5931C7.96756 16.9298 7.43183 16.1942 6.77339 15.9523L6.77425 15.9531Z" fill="#13203D" stroke="#E9ECFF" stroke-width="0.0313569" stroke-miterlimit="23.8"/>
<path d="M7.79187 16.1008L8.18763 15.5637L7.88692 15.2765L7.49031 15.8144C7.32181 15.676 7.13948 15.5576 6.94766 15.468V14.6715L6.59943 14.5435V15.34C6.40414 15.2878 6.2175 15.2721 6.04641 15.2886L5.6593 14.46L5.35686 14.5218L5.74571 15.3557C5.30761 15.5158 5.02246 15.931 5.02246 16.5169L5.37069 16.6448C5.37069 15.8658 5.99975 15.4627 6.77311 15.7465C7.54647 16.0303 8.17553 16.8946 8.17553 17.6737L8.52376 17.8017C8.52376 17.2124 8.23429 16.5848 7.79187 16.1016V16.1008Z" fill="#13203D" stroke="#E9ECFF" stroke-width="0.0313569" stroke-miterlimit="23.8"/>
<path d="M6.76644 18.0098C6.29983 17.8391 5.92049 17.3169 5.92049 16.8477C5.92049 16.3785 6.29983 16.1348 6.76644 16.3054C7.23305 16.4769 7.61239 16.9983 7.61239 17.4675C7.61239 17.9366 7.23305 18.1804 6.76644 18.0098ZM6.76644 15.9546C6.108 15.7135 5.57227 16.0564 5.57227 16.7197C5.57227 17.323 6.01641 17.9854 6.59189 18.2822V19.0795L6.93839 19.2075V18.4093C7.51561 18.5355 7.95975 18.1986 7.95975 17.5945C7.95975 16.9313 7.42401 16.1957 6.76558 15.9537L6.76644 15.9546Z" fill="#13203D" stroke="#E9ECFF" stroke-width="0.0313569" stroke-miterlimit="23.8"/>
<path d="M7.78504 16.1032L8.18079 15.5661L7.88009 15.2789L7.48347 15.8168C7.31497 15.6784 7.13265 15.5601 6.94082 15.4704V14.6739L6.59259 14.546V15.3424C6.39731 15.2902 6.21066 15.2745 6.03957 15.2911L5.65246 14.4624L5.35003 14.5242L5.73887 15.3581C5.30078 15.5183 5.01562 15.9335 5.01562 16.5193L5.36385 16.6473C5.36385 15.8682 5.99291 15.4652 6.76627 15.7489C7.53964 16.0327 8.16869 16.8971 8.16869 17.6761L8.51692 17.8041C8.51692 17.2148 8.22745 16.5872 7.78504 16.1041V16.1032Z" fill="#13203D" stroke="#E9ECFF" stroke-width="0.0313569" stroke-miterlimit="23.8"/>
<path d="M6.76546 18.0127C6.29885 17.8421 5.91952 17.3198 5.91952 16.8506C5.91952 16.3814 6.29885 16.1377 6.76546 16.3083C7.23207 16.4798 7.61141 17.0012 7.61141 17.4704C7.61141 17.9396 7.23207 18.1833 6.76546 18.0127V18.0127ZM6.76546 15.9575C6.10703 15.7164 5.57129 16.0594 5.57129 16.7227C5.57129 17.3259 6.01543 17.9883 6.59092 18.2851V19.0825L6.93742 19.2104V18.4122C7.51463 18.5384 7.95877 18.2016 7.95877 17.5975C7.95877 16.9342 7.42304 16.1986 6.7646 15.9567L6.76546 15.9575Z" fill="#13203D" stroke="#E9ECFF" stroke-width="0.0313569" stroke-miterlimit="23.8"/>
<path d="M7.78406 16.1052L8.17982 15.5681L7.87911 15.2808L7.48249 15.8188C7.314 15.6804 7.13167 15.562 6.93984 15.4723V14.6759L6.59162 14.5479V15.3444C6.39633 15.2922 6.20969 15.2765 6.0386 15.293L5.65148 14.4644L5.34905 14.5262L5.73789 15.3601C5.2998 15.5202 5.01465 15.9354 5.01465 16.5213L5.36288 16.6492C5.36288 15.8701 5.99194 15.4671 6.7653 15.7509C7.53866 16.0347 8.16772 16.899 8.16772 17.6781L8.51595 17.8061C8.51595 17.2168 8.22648 16.5892 7.78406 16.106V16.1052Z" fill="#13203D" stroke="#E9ECFF" stroke-width="0.0313569" stroke-miterlimit="23.8"/>
<path d="M6.75863 18.0146C6.29202 17.844 5.91268 17.3217 5.91268 16.8526C5.91268 16.3834 6.29202 16.1397 6.75863 16.3103C7.22524 16.4818 7.60457 17.0032 7.60457 17.4723C7.60457 17.9415 7.22524 18.1852 6.75863 18.0146ZM6.75863 15.9595C6.10019 15.7184 5.56445 16.0613 5.56445 16.7246C5.56445 17.3278 6.0086 17.9903 6.58408 18.2871V19.0844L6.93058 19.2124V18.4142C7.5078 18.5404 7.95194 18.2035 7.95194 17.5994C7.95194 16.9361 7.4162 16.2006 6.75776 15.9586L6.75863 15.9595Z" fill="#13203D" stroke="#E9ECFF" stroke-width="0.0313569" stroke-miterlimit="23.8"/>
<path d="M7.77723 16.1066L8.17298 15.5696L7.87228 15.2823L7.47566 15.8203C7.30716 15.6819 7.12484 15.5635 6.93301 15.4738V14.6773L6.58478 14.5494V15.3459C6.38949 15.2936 6.20285 15.278 6.03176 15.2945L5.64465 14.4658L5.34222 14.5276L5.73106 15.3615C5.29296 15.5217 5.00781 15.9369 5.00781 16.5227L5.35604 16.6507C5.35604 15.8716 5.9851 15.4686 6.75846 15.7524C7.53182 16.0361 8.16088 16.9005 8.16088 17.6796L8.50911 17.8075C8.50911 17.2182 8.21964 16.5906 7.77723 16.1075V16.1066Z" fill="#13203D" stroke="#E9ECFF" stroke-width="0.0313569" stroke-miterlimit="23.8"/>
<path d="M6.75375 18.021C6.28714 17.8504 5.9078 17.3281 5.9078 16.8589C5.9078 16.3897 6.28714 16.146 6.75375 16.3166C7.22035 16.4881 7.59969 17.0095 7.59969 17.4787C7.59969 17.9479 7.22035 18.1916 6.75375 18.021ZM6.75375 15.9658C6.09531 15.7247 5.55957 16.0677 5.55957 16.731C5.55957 17.3342 6.00371 17.9966 6.5792 18.2934V19.0908L6.9257 19.2187V18.4205C7.50291 18.5467 7.94706 18.2099 7.94706 17.6058C7.94706 16.9425 7.41132 16.2069 6.75288 15.965L6.75375 15.9658Z" fill="#13203D" stroke="#E9ECFF" stroke-width="0.0313569" stroke-miterlimit="23.8"/>
<path d="M7.77234 16.1125L8.1681 15.5754L7.86739 15.2882L7.47077 15.8261C7.30228 15.6877 7.11995 15.5693 6.92813 15.4797V14.6832L6.5799 14.5552V15.3517C6.38461 15.2995 6.19797 15.2838 6.02688 15.3004L5.63977 14.4717L5.33733 14.5335L5.72617 15.3674C5.28808 15.5275 5.00293 15.9428 5.00293 16.5286L5.35116 16.6565C5.35116 15.8775 5.98022 15.4745 6.75358 15.7582C7.52694 16.042 8.156 16.9064 8.156 17.6854L8.50423 17.8134C8.50423 17.2241 8.21476 16.5965 7.77234 16.1134V16.1125Z" fill="#13203D" stroke="#E9ECFF" stroke-width="0.0313569" stroke-miterlimit="23.8"/>
<path d="M6.7557 18.0234C6.28909 17.8528 5.90975 17.3305 5.90975 16.8614C5.90975 16.3922 6.28909 16.1485 6.7557 16.3191C7.22231 16.4905 7.60164 17.0119 7.60164 17.4811C7.60164 17.9503 7.22231 18.194 6.7557 18.0234V18.0234ZM6.7557 15.9683C6.09726 15.7271 5.56152 16.0701 5.56152 16.7334C5.56152 17.3366 6.00567 17.999 6.58115 18.2959V19.0932L6.92765 19.2212V18.423C7.50487 18.5492 7.94901 18.2123 7.94901 17.6082C7.94901 16.9449 7.41327 16.2094 6.75483 15.9674L6.7557 15.9683Z" fill="#13203D" stroke="#E9ECFF" stroke-width="0.0313569" stroke-miterlimit="23.8"/>
<path d="M7.77234 16.1159L8.1681 15.5788L7.86739 15.2916L7.47078 15.8295C7.30228 15.6911 7.11995 15.5727 6.92813 15.4831V14.6866L6.5799 14.5587V15.3551C6.38461 15.3029 6.19797 15.2872 6.02688 15.3038L5.63977 14.4751L5.33733 14.5369L5.72617 15.3708C5.28808 15.531 5.00293 15.9462 5.00293 16.532L5.35116 16.66C5.35116 15.8809 5.98022 15.4779 6.75358 15.7616C7.52694 16.0454 8.156 16.9098 8.156 17.6888L8.50423 17.8168C8.50423 17.2275 8.21476 16.5999 7.77234 16.1168V16.1159Z" fill="#13203D" stroke="#E9ECFF" stroke-width="0.0313569" stroke-miterlimit="23.8"/>
<path d="M6.74886 18.0239C6.28225 17.8533 5.90292 17.331 5.90292 16.8618C5.90292 16.3927 6.28225 16.1489 6.74886 16.3195C7.21547 16.491 7.59481 17.0124 7.59481 17.4816C7.59481 17.9508 7.21547 18.1945 6.74886 18.0239ZM6.74886 15.9688C6.09042 15.7276 5.55469 16.0706 5.55469 16.7339C5.55469 17.3371 5.99883 17.9995 6.57432 18.2964V19.0937L6.92082 19.2217V18.4235C7.49803 18.5497 7.94217 18.2128 7.94217 17.6087C7.94217 16.9454 7.40644 16.2099 6.748 15.9679L6.74886 15.9688Z" fill="#13203D" stroke="#E9ECFF" stroke-width="0.0313569" stroke-miterlimit="23.8"/>
<path d="M7.76746 16.1164L8.16321 15.5793L7.86251 15.2921L7.46589 15.83C7.29739 15.6916 7.11507 15.5732 6.92324 15.4836V14.6871L6.57501 14.5592V15.3556C6.37973 15.3034 6.19308 15.2877 6.02199 15.3043L5.63488 14.4756L5.33245 14.5374L5.72129 15.3713C5.2832 15.5315 4.99805 15.9467 4.99805 16.5325L5.34628 16.6604C5.34628 15.8814 5.97533 15.4784 6.7487 15.7621C7.52206 16.0459 8.15112 16.9103 8.15112 17.6893L8.49935 17.8173C8.49935 17.228 8.20987 16.6004 7.76746 16.1173V16.1164Z" fill="#13203D" stroke="#E9ECFF" stroke-width="0.0313569" stroke-miterlimit="23.8"/>
</svg>
