<svg width="51" height="56" viewBox="0 0 51 56" fill="none" xmlns="http://www.w3.org/2000/svg">
<path d="M25.4728 53.8522L3.22266 43.07V20.8032L25.4728 31.5838V53.8522Z" fill="#E9ECFF" stroke="#13203D" stroke-width="0.160004" stroke-linecap="round" stroke-linejoin="round"/>
<path d="M23.7765 51.4242L4.93848 42.2965V23.4468L23.7765 32.5745V51.4242Z" fill="#13203D" stroke="#E9ECFF" stroke-width="0.160004" stroke-linecap="round" stroke-linejoin="round"/>
<path d="M49.1321 38.7731L25.4805 53.8679V31.6011L49.1321 16.5063V38.7731Z" fill="#E9ECFF" stroke="#13203D" stroke-width="0.160004" stroke-linecap="round" stroke-linejoin="round"/>
<path d="M47.0483 38.2758L27.5645 50.7092V32.3671L47.0483 19.9321V38.2758Z" fill="#13203D" stroke="#E9ECFF" stroke-width="0.160004" stroke-linecap="round" stroke-linejoin="round"/>
<path d="M26.8742 5.70703L3.22266 20.8034L25.4745 31.5856L49.1344 16.5059L26.8742 5.70703Z" fill="#E9ECFF" stroke="#13203D" stroke-width="0.160004" stroke-linecap="round" stroke-linejoin="round"/>
<path d="M26.5445 7.79932L6.71777 20.4523L25.3694 29.4902L45.2011 16.8505L26.5428 7.79932H26.5445Z" fill="#13203D" stroke="#13203D" stroke-width="0.160004" stroke-linecap="round" stroke-linejoin="round"/>
<path d="M2.82812 24.5654L5.47624 25.8487V28.2838L2.82812 26.9789V24.5654Z" fill="#13203D" stroke="#E9ECFF" stroke-width="0.160004" stroke-linecap="round" stroke-linejoin="round"/>
<path d="M3.19929 24.2676L5.84741 25.5509L5.47624 25.8488L2.82812 24.5655L3.19929 24.2676Z" fill="#13203D" stroke="#E9ECFF" stroke-width="0.160004" stroke-linecap="round" stroke-linejoin="round"/>
<path d="M5.47656 25.8487V28.2838L5.84773 27.9858V25.5508L5.47656 25.8487Z" fill="#13203D" stroke="#E9ECFF" stroke-width="0.160004" stroke-linecap="round" stroke-linejoin="round"/>
<path d="M2.82812 37.6157L5.47624 38.899V41.3341L2.82812 40.0275V37.6157Z" fill="#13203D" stroke="#E9ECFF" stroke-width="0.160004" stroke-linecap="round" stroke-linejoin="round"/>
<path d="M3.19929 37.3184L5.84741 38.6016L5.47624 38.8996L2.82812 37.6163L3.19929 37.3184Z" fill="#13203D" stroke="#E9ECFF" stroke-width="0.160004" stroke-linecap="round" stroke-linejoin="round"/>
<path d="M5.47656 38.899V41.3341L5.84773 41.0361V38.6011L5.47656 38.899Z" fill="#13203D" stroke="#E9ECFF" stroke-width="0.160004" stroke-linecap="round" stroke-linejoin="round"/>
<path d="M22.8314 33.6461L25.5578 34.9394L28.1792 33.2583L28.5421 33.4847L25.5578 35.4254L22.4619 33.944L22.8314 33.6461Z" fill="#13203D" stroke="#E9ECFF" stroke-width="0.160004" stroke-linecap="round" stroke-linejoin="round"/>
<path d="M25.5566 35.4246V37.8613L28.541 35.9206V33.4839L25.5566 35.4246Z" fill="#13203D" stroke="#E9ECFF" stroke-width="0.160004" stroke-linecap="round" stroke-linejoin="round"/>
<path d="M22.4619 33.9434L25.5578 35.4247V37.8614L22.4619 36.3568V33.9434Z" fill="#13203D" stroke="#E9ECFF" stroke-width="0.160004" stroke-linecap="round" stroke-linejoin="round"/>
<path d="M22.8314 46.3497L25.5578 47.643L28.1792 45.9619L28.5421 46.1883L25.5578 48.129L22.4619 46.6477L22.8314 46.3497Z" fill="#13203D" stroke="#E9ECFF" stroke-width="0.160004" stroke-linecap="round" stroke-linejoin="round"/>
<path d="M25.5566 48.1282V50.5633L28.541 48.6226V46.1875L25.5566 48.1282Z" fill="#13203D" stroke="#E9ECFF" stroke-width="0.160004" stroke-linecap="round" stroke-linejoin="round"/>
<path d="M22.4619 46.6465L25.5578 48.1278V50.5629L22.4619 49.0599V46.6465Z" fill="#13203D" stroke="#E9ECFF" stroke-width="0.160004" stroke-linecap="round" stroke-linejoin="round"/>
<path d="M46.0664 34.954L49.1623 33L49.5251 33.2264L46.5408 35.1688L46.0664 34.954Z" fill="#13203D" stroke="#E9ECFF" stroke-width="0.160004" stroke-linecap="round" stroke-linejoin="round"/>
<path d="M46.541 35.1704V37.6055L49.5253 35.6648V33.228L46.541 35.1704Z" fill="#13203D" stroke="#E9ECFF" stroke-width="0.160004" stroke-linecap="round" stroke-linejoin="round"/>
<path d="M46.5408 35.1678V37.6029L46.0664 37.2234V34.9531L46.5408 35.1678Z" fill="#13203D" stroke="#E9ECFF" stroke-width="0.160004" stroke-linecap="round" stroke-linejoin="round"/>
<path d="M46.0664 22.7556L49.1623 20.8032L49.5251 21.0296L46.5408 22.9703L46.0664 22.7556Z" fill="#13203D" stroke="#E9ECFF" stroke-width="0.160004" stroke-linecap="round" stroke-linejoin="round"/>
<path d="M46.541 22.972V25.407L49.5253 23.4663V21.0312L46.541 22.972Z" fill="#13203D" stroke="#E9ECFF" stroke-width="0.160004" stroke-linecap="round" stroke-linejoin="round"/>
<path d="M46.5408 22.9711V25.4061L46.0664 25.0283V22.7563L46.5408 22.9711Z" fill="#13203D" stroke="#E9ECFF" stroke-width="0.160004" stroke-linecap="round" stroke-linejoin="round"/>
<path d="M14.6958 39.0621C13.797 38.7359 13.0663 37.7372 13.0663 36.8401C13.0663 35.943 13.797 35.4769 14.6958 35.8032C15.5945 36.131 16.3252 37.128 16.3252 38.0252C16.3252 38.9223 15.5945 39.3883 14.6958 39.0621ZM14.6958 35.1324C13.4275 34.6713 12.3955 35.3271 12.3955 36.5954C12.3955 37.7489 13.251 39.0155 14.3595 39.5831V41.1077L15.027 41.3524V39.8261C16.1388 40.0674 16.9943 39.4233 16.9943 38.2682C16.9943 36.9999 15.9624 35.5934 14.6941 35.1307L14.6958 35.1324Z" fill="#13203D" stroke="#E9ECFF" stroke-width="0.0800021" stroke-miterlimit="23.8"/>
<path d="M16.6568 35.4143L17.4191 34.3874L16.8399 33.8381L16.0759 34.8667C15.7513 34.6021 15.4001 34.3757 15.0306 34.2043V32.6813L14.3599 32.4366V33.9596C13.9837 33.8597 13.6242 33.8298 13.2946 33.8614L12.549 32.2769L11.9664 32.395L12.7154 33.9896C11.8715 34.2958 11.3223 35.0897 11.3223 36.2099L11.993 36.4546C11.993 34.9649 13.2047 34.1943 14.6944 34.7369C16.1841 35.2795 17.3958 36.9323 17.3958 38.4219L18.0665 38.6666C18.0665 37.5398 17.509 36.3397 16.6568 35.416V35.4143Z" fill="#13203D" stroke="#E9ECFF" stroke-width="0.0800021" stroke-miterlimit="23.8"/>
<path d="M14.6909 39.0689C13.7921 38.7427 13.0614 37.7441 13.0614 36.8469C13.0614 35.9498 13.7921 35.4838 14.6909 35.81C15.5897 36.1379 16.3204 37.1349 16.3204 38.032C16.3204 38.9291 15.5897 39.3952 14.6909 39.0689ZM14.6909 35.1392C13.4226 34.6782 12.3906 35.334 12.3906 36.6023C12.3906 37.7557 13.2461 39.0223 14.3547 39.5899V41.1145L15.0221 41.3592V39.8329C16.1339 40.0743 16.9895 39.4301 16.9895 38.275C16.9895 37.0067 15.9575 35.6003 14.6892 35.1376L14.6909 35.1392Z" fill="#13203D" stroke="#E9ECFF" stroke-width="0.0800021" stroke-miterlimit="23.8"/>
<path d="M16.6519 35.4211L17.4142 34.3942L16.835 33.8449L16.071 34.8735C15.7464 34.6089 15.3952 34.3825 15.0257 34.2111V32.6881L14.355 32.4435V33.9664C13.9788 33.8666 13.6193 33.8366 13.2897 33.8682L12.5441 32.2837L11.9615 32.4019L12.7105 33.9964C11.8666 34.3026 11.3174 35.0966 11.3174 36.2167L11.9881 36.4614C11.9881 34.9717 13.1999 34.2011 14.6895 34.7437C16.1792 35.2863 17.3909 36.9391 17.3909 38.4288L18.0617 38.6734C18.0617 37.5466 17.5041 36.3466 16.6519 35.4228V35.4211Z" fill="#13203D" stroke="#E9ECFF" stroke-width="0.0800021" stroke-miterlimit="23.8"/>
<path d="M14.686 39.0724C13.7872 38.7461 13.0565 37.7475 13.0565 36.8504C13.0565 35.9532 13.7872 35.4872 14.686 35.8134C15.5848 36.1413 16.3155 37.1383 16.3155 38.0354C16.3155 38.9326 15.5848 39.3986 14.686 39.0724ZM14.686 35.1426C13.4177 34.6816 12.3857 35.3374 12.3857 36.6057C12.3857 37.7591 13.2413 39.0258 14.3498 39.5933V41.118L15.0172 41.3626V39.8363C16.1291 40.0777 16.9846 39.4336 16.9846 38.2784C16.9846 37.0101 15.9526 35.6037 14.6843 35.141L14.686 35.1426Z" fill="#13203D" stroke="#E9ECFF" stroke-width="0.0800021" stroke-miterlimit="23.8"/>
<path d="M16.6441 35.4275L17.4064 34.4005L16.8272 33.8513L16.0632 34.8799C15.7386 34.6153 15.3874 34.3889 15.0179 34.2175V32.6945L14.3472 32.4498V33.9728C13.971 33.8729 13.6115 33.843 13.2819 33.8746L12.5363 32.29L11.9537 32.4082L12.7027 34.0027C11.8588 34.309 11.3096 35.1029 11.3096 36.2231L11.9803 36.4678C11.9803 34.9781 13.192 34.2075 14.6817 34.7501C16.1714 35.2927 17.3831 36.9455 17.3831 38.4351L18.0539 38.6798C18.0539 37.553 17.4963 36.3529 16.6441 35.4292V35.4275Z" fill="#13203D" stroke="#E9ECFF" stroke-width="0.0800021" stroke-miterlimit="23.8"/>
<path d="M14.6752 39.0763C13.7765 38.75 13.0458 37.7514 13.0458 36.8543C13.0458 35.9571 13.7765 35.4911 14.6752 35.8173C15.574 36.1452 16.3047 37.1422 16.3047 38.0393C16.3047 38.9365 15.574 39.4025 14.6752 39.0763ZM14.6752 35.1465C13.4069 34.6855 12.375 35.3413 12.375 36.6096C12.375 37.763 13.2305 39.0297 14.339 39.5972V41.1219L15.0065 41.3665V39.8402C16.1183 40.0816 16.9738 39.4375 16.9738 38.2823C16.9738 37.014 15.9419 35.6076 14.6736 35.1449L14.6752 35.1465Z" fill="#13203D" stroke="#E9ECFF" stroke-width="0.0800021" stroke-miterlimit="23.8"/>
<path d="M16.6382 35.4285L17.4005 34.4015L16.8213 33.8523L16.0573 34.8809C15.7328 34.6162 15.3816 34.3899 15.0121 34.2184V32.6955L14.3413 32.4508V33.9738C13.9651 33.8739 13.6056 33.8439 13.2761 33.8756L12.5304 32.291L11.9478 32.4092L12.6968 34.0037C11.853 34.31 11.3037 35.1039 11.3037 36.2241L11.9745 36.4687C11.9745 34.9791 13.1862 34.2084 14.6759 34.751C16.1655 35.2937 17.3772 36.9464 17.3772 38.4361L18.048 38.6808C18.048 37.554 17.4904 36.3539 16.6382 35.4301V35.4285Z" fill="#13203D" stroke="#E9ECFF" stroke-width="0.0800021" stroke-miterlimit="23.8"/>
<path d="M14.6704 39.0831C13.7716 38.7569 13.0409 37.7582 13.0409 36.8611C13.0409 35.964 13.7716 35.4979 14.6704 35.8241C15.5692 36.152 16.2998 37.149 16.2998 38.0462C16.2998 38.9433 15.5692 39.4093 14.6704 39.0831ZM14.6704 35.1534C13.4021 34.6923 12.3701 35.3481 12.3701 36.6164C12.3701 37.7699 13.2256 39.0365 14.3341 39.6041V41.1287L15.0016 41.3734V39.8471C16.1134 40.0884 16.9689 39.4443 16.9689 38.2892C16.9689 37.0209 15.937 35.6144 14.6687 35.1517L14.6704 35.1534Z" fill="#13203D" stroke="#E9ECFF" stroke-width="0.0800021" stroke-miterlimit="23.8"/>
<path d="M16.6285 35.4348L17.3908 34.4079L16.8115 33.8586L16.0476 34.8872C15.723 34.6226 15.3718 34.3962 15.0023 34.2248V32.7018L14.3315 32.4571V33.9801C13.9554 33.8802 13.5959 33.8503 13.2663 33.8819L12.5206 32.2974L11.9381 32.4155L12.6871 34.0101C11.8432 34.3163 11.2939 35.1103 11.2939 36.2304L11.9647 36.4751C11.9647 34.9854 13.1764 34.2148 14.6661 34.7574C16.1558 35.3 17.3675 36.9528 17.3675 38.4425L18.0382 38.6871C18.0382 37.5603 17.4806 36.3602 16.6285 35.4365V35.4348Z" fill="#13203D" stroke="#E9ECFF" stroke-width="0.0800021" stroke-miterlimit="23.8"/>
<path d="M14.6655 39.0904C13.7667 38.7642 13.036 37.7655 13.036 36.8684C13.036 35.9713 13.7667 35.5052 14.6655 35.8315C15.5643 36.1594 16.295 37.1564 16.295 38.0535C16.295 38.9506 15.5643 39.4167 14.6655 39.0904ZM14.6655 35.1607C13.3972 34.6997 12.3652 35.3554 12.3652 36.6237C12.3652 37.7772 13.2208 39.0438 14.3293 39.6114V41.136L14.9967 41.3807V39.8544C16.1085 40.0958 16.9641 39.4516 16.9641 38.2965C16.9641 37.0282 15.9321 35.6218 14.6638 35.159L14.6655 35.1607Z" fill="#13203D" stroke="#E9ECFF" stroke-width="0.0800021" stroke-miterlimit="23.8"/>
<path d="M16.6236 35.4436L17.3859 34.4167L16.8067 33.8674L16.0427 34.896C15.7181 34.6314 15.3669 34.405 14.9974 34.2336V32.7106L14.3267 32.4659V33.9889C13.9505 33.889 13.591 33.8591 13.2614 33.8907L12.5158 32.3062L11.9332 32.4243L12.6822 34.0189C11.8383 34.3251 11.2891 35.119 11.2891 36.2392L11.9598 36.4839C11.9598 34.9942 13.1715 34.2236 14.6612 34.7662C16.1509 35.3088 17.3626 36.9616 17.3626 38.4512L18.0333 38.6959C18.0333 37.5691 17.4758 36.369 16.6236 35.4453V35.4436Z" fill="#13203D" stroke="#E9ECFF" stroke-width="0.0800021" stroke-miterlimit="23.8"/>
<path d="M14.6538 39.0973C13.755 38.771 13.0243 37.7724 13.0243 36.8753C13.0243 35.9781 13.755 35.5121 14.6538 35.8383C15.5526 36.1662 16.2832 37.1632 16.2832 38.0603C16.2832 38.9575 15.5526 39.4235 14.6538 39.0973ZM14.6538 35.1675C13.3855 34.7065 12.3535 35.3623 12.3535 36.6306C12.3535 37.784 13.209 39.0507 14.3175 39.6182V41.1429L14.985 41.3875V39.8612C16.0968 40.1026 16.9523 39.4585 16.9523 38.3033C16.9523 37.035 15.9204 35.6286 14.6521 35.1659L14.6538 35.1675Z" fill="#13203D" stroke="#E9ECFF" stroke-width="0.0800021" stroke-miterlimit="23.8"/>
<path d="M16.6148 35.4504L17.3771 34.4235L16.7979 33.8742L16.0339 34.9028C15.7093 34.6382 15.3581 34.4118 14.9886 34.2404V32.7174L14.3179 32.4728V33.9957C13.9417 33.8959 13.5822 33.8659 13.2526 33.8975L12.507 32.313L11.9244 32.4312L12.6734 34.0257C11.8295 34.3319 11.2803 35.1259 11.2803 36.246L11.951 36.4907C11.951 35.001 13.1627 34.2304 14.6524 34.773C16.1421 35.3156 17.3538 36.9684 17.3538 38.4581L18.0246 38.7027C18.0246 37.5759 17.467 36.3759 16.6148 35.4521V35.4504Z" fill="#13203D" stroke="#E9ECFF" stroke-width="0.0800021" stroke-miterlimit="23.8"/>
<path d="M14.6489 39.1017C13.7501 38.7754 13.0194 37.7768 13.0194 36.8796C13.0194 35.9825 13.7501 35.5165 14.6489 35.8427C15.5477 36.1706 16.2784 37.1676 16.2784 38.0647C16.2784 38.9619 15.5477 39.4279 14.6489 39.1017ZM14.6489 35.1719C13.3806 34.7109 12.3486 35.3667 12.3486 36.635C12.3486 37.7884 13.2042 39.0551 14.3127 39.6226V41.1473L14.9801 41.3919V39.8656C16.0919 40.107 16.9475 39.4628 16.9475 38.3077C16.9475 37.0394 15.9155 35.633 14.6472 35.1703L14.6489 35.1719Z" fill="#13203D" stroke="#E9ECFF" stroke-width="0.0800021" stroke-miterlimit="23.8"/>
<path d="M16.6109 35.4544L17.3732 34.4274L16.794 33.8781L16.03 34.9068C15.7054 34.6421 15.3542 34.4157 14.9847 34.2443V32.7214L14.314 32.4767V33.9996C13.9378 33.8998 13.5783 33.8698 13.2487 33.9014L12.5031 32.3169L11.9205 32.4351L12.6695 34.0296C11.8256 34.3359 11.2764 35.1298 11.2764 36.25L11.9471 36.4946C11.9471 35.005 13.1588 34.2343 14.6485 34.7769C16.1382 35.3195 17.3499 36.9723 17.3499 38.462L18.0207 38.7067C18.0207 37.5798 17.4631 36.3798 16.6109 35.456V35.4544Z" fill="#13203D" stroke="#E9ECFF" stroke-width="0.0800021" stroke-miterlimit="23.8"/>
<path d="M14.644 39.1051C13.7452 38.7789 13.0145 37.7802 13.0145 36.8831C13.0145 35.9859 13.7452 35.5199 14.644 35.8461C15.5428 36.174 16.2735 37.171 16.2735 38.0681C16.2735 38.9653 15.5428 39.4313 14.644 39.1051ZM14.644 35.1754C13.3757 34.7143 12.3438 35.3701 12.3438 36.6384C12.3438 37.7918 13.1993 39.0585 14.3078 39.626V41.1507L14.9752 41.3953V39.8691C16.0871 40.1104 16.9426 39.4663 16.9426 38.3111C16.9426 37.0429 15.9106 35.6364 14.6423 35.1737L14.644 35.1754Z" fill="#13203D" stroke="#E9ECFF" stroke-width="0.0800021" stroke-miterlimit="23.8"/>
<path d="M16.6021 35.4573L17.3644 34.4303L16.7852 33.8811L16.0212 34.9097C15.6966 34.645 15.3454 34.4187 14.9759 34.2472V32.7243L14.3052 32.4796V34.0026C13.929 33.9027 13.5695 33.8727 13.2399 33.9044L12.4943 32.3198L11.9117 32.438L12.6607 34.0325C11.8168 34.3388 11.2676 35.1327 11.2676 36.2529L11.9383 36.4976C11.9383 35.0079 13.1501 34.2373 14.6397 34.7799C16.1294 35.3225 17.3411 36.9752 17.3411 38.4649L18.0119 38.7096C18.0119 37.5828 17.4543 36.3827 16.6021 35.4589V35.4573Z" fill="#13203D" stroke="#E9ECFF" stroke-width="0.0800021" stroke-miterlimit="23.8"/>
<path d="M14.6352 39.1095C13.7364 38.7832 13.0057 37.7846 13.0057 36.8875C13.0057 35.9903 13.7364 35.5243 14.6352 35.8505C15.534 36.1784 16.2647 37.1754 16.2647 38.0725C16.2647 38.9697 15.534 39.4357 14.6352 39.1095ZM14.6352 35.1798C13.3669 34.7187 12.335 35.3745 12.335 36.6428C12.335 37.7962 13.1905 39.0629 14.299 39.6304V41.1551L14.9664 41.3997V39.8735C16.0783 40.1148 16.9338 39.4707 16.9338 38.3155C16.9338 37.0472 15.9018 35.6408 14.6335 35.1781L14.6352 35.1798Z" fill="#13203D" stroke="#E9ECFF" stroke-width="0.0800021" stroke-miterlimit="23.8"/>
<path d="M16.5933 35.4622L17.3556 34.4352L16.7764 33.8859L16.0124 34.9146C15.6878 34.6499 15.3366 34.4236 14.9671 34.2521V32.7292L14.2964 32.4845V34.0074C13.9202 33.9076 13.5607 33.8776 13.2311 33.9092L12.4855 32.3247L11.9029 32.4429L12.6519 34.0374C11.8081 34.3437 11.2588 35.1376 11.2588 36.2578L11.9296 36.5024C11.9296 35.0128 13.1413 34.2421 14.6309 34.7847C16.1206 35.3273 17.3323 36.9801 17.3323 38.4698L18.0031 38.7145C18.0031 37.5876 17.4455 36.3876 16.5933 35.4638V35.4622Z" fill="#13203D" stroke="#E9ECFF" stroke-width="0.0800021" stroke-miterlimit="23.8"/>
<path d="M14.6284 39.1163C13.7296 38.7901 12.9989 37.7914 12.9989 36.8943C12.9989 35.9972 13.7296 35.5311 14.6284 35.8574C15.5272 36.1852 16.2579 37.1822 16.2579 38.0794C16.2579 38.9765 15.5272 39.4425 14.6284 39.1163ZM14.6284 35.1866C13.3601 34.7255 12.3281 35.3813 12.3281 36.6496C12.3281 37.8031 13.1836 39.0697 14.2922 39.6373V41.1619L14.9596 41.4066V39.8803C16.0714 40.1216 16.927 39.4775 16.927 38.3224C16.927 37.0541 15.895 35.6476 14.6267 35.1849L14.6284 35.1866Z" fill="#13203D" stroke="#E9ECFF" stroke-width="0.0800021" stroke-miterlimit="23.8"/>
<path d="M16.5865 35.4714L17.3488 34.4445L16.7695 33.8952L16.0056 34.9238C15.681 34.6592 15.3298 34.4328 14.9603 34.2614V32.7384L14.2895 32.4938V34.0167C13.9134 33.9169 13.5539 33.8869 13.2243 33.9185L12.4786 32.334L11.8961 32.4522L12.6451 34.0467C11.8012 34.3529 11.252 35.1469 11.252 36.267L11.9227 36.5117C11.9227 35.022 13.1344 34.2514 14.6241 34.794C16.1138 35.3366 17.3255 36.9894 17.3255 38.4791L17.9962 38.7237C17.9962 37.5969 17.4386 36.3969 16.5865 35.4731V35.4714Z" fill="#13203D" stroke="#E9ECFF" stroke-width="0.0800021" stroke-miterlimit="23.8"/>
<path d="M14.6206 39.1192C13.7218 38.793 12.9911 37.7944 12.9911 36.8972C12.9911 36.0001 13.7218 35.5341 14.6206 35.8603C15.5194 36.1882 16.25 37.1852 16.25 38.0823C16.25 38.9794 15.5194 39.4455 14.6206 39.1192ZM14.6206 35.1895C13.3523 34.7285 12.3203 35.3843 12.3203 36.6526C12.3203 37.806 13.1758 39.0726 14.2843 39.6402V41.1648L14.9518 41.4095V39.8832C16.0636 40.1246 16.9191 39.4804 16.9191 38.3253C16.9191 37.057 15.8872 35.6506 14.6189 35.1879L14.6206 35.1895Z" fill="#13203D" stroke="#E9ECFF" stroke-width="0.0800021" stroke-miterlimit="23.8"/>
<path d="M16.5786 35.4714L17.341 34.4445L16.7617 33.8952L15.9978 34.9238C15.6732 34.6592 15.322 34.4328 14.9525 34.2614V32.7384L14.2817 32.4938V34.0167C13.9056 33.9169 13.5461 33.8869 13.2165 33.9185L12.4708 32.334L11.8883 32.4522L12.6373 34.0467C11.7934 34.3529 11.2441 35.1469 11.2441 36.267L11.9149 36.5117C11.9149 35.022 13.1266 34.2514 14.6163 34.794C16.1059 35.3366 17.3177 36.9894 17.3177 38.4791L17.9884 38.7237C17.9884 37.5969 17.4308 36.3969 16.5786 35.4731V35.4714Z" fill="#13203D" stroke="#E9ECFF" stroke-width="0.0800021" stroke-miterlimit="23.8"/>
<path d="M14.6118 39.1266C13.713 38.8003 12.9823 37.8017 12.9823 36.9045C12.9823 36.0074 13.713 35.5414 14.6118 35.8676C15.5106 36.1955 16.2413 37.1925 16.2413 38.0896C16.2413 38.9868 15.5106 39.4528 14.6118 39.1266ZM14.6118 35.1968C13.3435 34.7358 12.3115 35.3916 12.3115 36.6599C12.3115 37.8133 13.167 39.08 14.2756 39.6475V41.1722L14.943 41.4168V39.8905C16.0548 40.1319 16.9104 39.4877 16.9104 38.3326C16.9104 37.0643 15.8784 35.6579 14.6101 35.1952L14.6118 35.1968Z" fill="#13203D" stroke="#E9ECFF" stroke-width="0.0800021" stroke-miterlimit="23.8"/>
<path d="M16.5728 35.4793L17.3351 34.4523L16.7559 33.903L15.9919 34.9317C15.6673 34.667 15.3161 34.4406 14.9466 34.2692V32.7463L14.2759 32.5016V34.0245C13.8997 33.9247 13.5402 33.8947 13.2106 33.9263L12.465 32.3418L11.8824 32.46L12.6314 34.0545C11.7875 34.3608 11.2383 35.1547 11.2383 36.2749L11.909 36.5195C11.909 35.0299 13.1208 34.2592 14.6104 34.8018C16.1001 35.3444 17.3118 36.9972 17.3118 38.4869L17.9826 38.7316C17.9826 37.6047 17.425 36.4047 16.5728 35.4809V35.4793Z" fill="#13203D" stroke="#E9ECFF" stroke-width="0.0800021" stroke-miterlimit="23.8"/>
<path d="M14.6088 39.1334C13.71 38.8072 12.9794 37.8085 12.9794 36.9114C12.9794 36.0143 13.71 35.5482 14.6088 35.8744C15.5076 36.2023 16.2383 37.1993 16.2383 38.0965C16.2383 38.9936 15.5076 39.4596 14.6088 39.1334ZM14.6088 35.2037C13.3405 34.7426 12.3086 35.3984 12.3086 36.6667C12.3086 37.8202 13.1641 39.0868 14.2726 39.6544V41.179L14.9401 41.4237V39.8974C16.0519 40.1387 16.9074 39.4946 16.9074 38.3395C16.9074 37.0712 15.8755 35.6647 14.6072 35.202L14.6088 35.2037Z" fill="#13203D" stroke="#E9ECFF" stroke-width="0.0800021" stroke-miterlimit="23.8"/>
<path d="M16.5679 35.4861L17.3302 34.4591L16.751 33.9099L15.987 34.9385C15.6625 34.6738 15.3113 34.4475 14.9418 34.276V32.7531L14.271 32.5084V34.0314C13.8948 33.9315 13.5353 33.9015 13.2058 33.9332L12.4601 32.3486L11.8775 32.4668L12.6265 34.0613C11.7827 34.3676 11.2334 35.1615 11.2334 36.2817L11.9042 36.5264C11.9042 35.0367 13.1159 34.2661 14.6055 34.8087C16.0952 35.3513 17.3069 37.0041 17.3069 38.4937L17.9777 38.7384C17.9777 37.6116 17.4201 36.4115 16.5679 35.4878V35.4861Z" fill="#13203D" stroke="#E9ECFF" stroke-width="0.0800021" stroke-miterlimit="23.8"/>
<path d="M14.6001 39.1412C13.7013 38.815 12.9706 37.8163 12.9706 36.9192C12.9706 36.0221 13.7013 35.556 14.6001 35.8823C15.4988 36.2101 16.2295 37.2071 16.2295 38.1043C16.2295 39.0014 15.4988 39.4674 14.6001 39.1412ZM14.6001 35.2115C13.3318 34.7504 12.2998 35.4062 12.2998 36.6745C12.2998 37.828 13.1553 39.0946 14.2638 39.6622V41.1868L14.9313 41.4315V39.9052C16.0431 40.1465 16.8986 39.5024 16.8986 38.3473C16.8986 37.079 15.8667 35.6725 14.5984 35.2098L14.6001 35.2115Z" fill="#13203D" stroke="#E9ECFF" stroke-width="0.0800021" stroke-miterlimit="23.8"/>
<path d="M16.5611 35.4934L17.3234 34.4665L16.7442 33.9172L15.9802 34.9458C15.6556 34.6812 15.3044 34.4548 14.9349 34.2834V32.7604L14.2642 32.5157V34.0387C13.888 33.9388 13.5285 33.9089 13.1989 33.9405L12.4532 32.356L11.8707 32.4741L12.6197 34.0687C11.7758 34.3749 11.2266 35.1688 11.2266 36.289L11.8973 36.5337C11.8973 35.044 13.109 34.2734 14.5987 34.816C16.0884 35.3586 17.3001 37.0114 17.3001 38.501L17.9708 38.7457C17.9708 37.6189 17.4133 36.4188 16.5611 35.4951V35.4934Z" fill="#13203D" stroke="#E9ECFF" stroke-width="0.0800021" stroke-miterlimit="23.8"/>
<path d="M14.5961 39.1446C13.6974 38.8184 12.9667 37.8197 12.9667 36.9226C12.9667 36.0255 13.6974 35.5594 14.5961 35.8857C15.4949 36.2136 16.2256 37.2106 16.2256 38.1077C16.2256 39.0048 15.4949 39.4709 14.5961 39.1446ZM14.5961 35.2149C13.3278 34.7539 12.2959 35.4096 12.2959 36.6779C12.2959 37.8314 13.1514 39.098 14.2599 39.6656V41.1902L14.9274 41.4349V39.9086C16.0392 40.1499 16.8947 39.5058 16.8947 38.3507C16.8947 37.0824 15.8628 35.676 14.5945 35.2132L14.5961 35.2149Z" fill="#13203D" stroke="#E9ECFF" stroke-width="0.0800021" stroke-miterlimit="23.8"/>
<path d="M16.5542 35.4968L17.3165 34.4699L16.7373 33.9206L15.9733 34.9492C15.6488 34.6846 15.2976 34.4582 14.9281 34.2868V32.7638L14.2573 32.5192V34.0421C13.8812 33.9423 13.5216 33.9123 13.1921 33.9439L12.4464 32.3594L11.8639 32.4776L12.6129 34.0721C11.769 34.3783 11.2197 35.1723 11.2197 36.2924L11.8905 36.5371C11.8905 35.0474 13.1022 34.2768 14.5919 34.8194C16.0815 35.362 17.2932 37.0148 17.2932 38.5045L17.964 38.7491C17.964 37.6223 17.4064 36.4223 16.5542 35.4985V35.4968Z" fill="#13203D" stroke="#E9ECFF" stroke-width="0.0800021" stroke-miterlimit="23.8"/>
<path d="M14.5835 39.149C13.6847 38.8228 12.954 37.8241 12.954 36.927C12.954 36.0299 13.6847 35.5638 14.5835 35.8901C15.4822 36.218 16.2129 37.215 16.2129 38.1121C16.2129 39.0092 15.4822 39.4753 14.5835 39.149ZM14.5835 35.2193C13.3152 34.7583 12.2832 35.414 12.2832 36.6823C12.2832 37.8358 13.1387 39.1024 14.2472 39.67V41.1946L14.9147 41.4393V39.913C16.0265 40.1543 16.882 39.5102 16.882 38.3551C16.882 37.0868 15.8501 35.6803 14.5818 35.2176L14.5835 35.2193Z" fill="#13203D" stroke="#E9ECFF" stroke-width="0.0800021" stroke-miterlimit="23.8"/>
<path d="M16.5464 35.5022L17.3087 34.4752L16.7295 33.926L15.9655 34.9546C15.641 34.69 15.2898 34.4636 14.9203 34.2922V32.7692L14.2495 32.5245V34.0475C13.8733 33.9476 13.5138 33.9177 13.1843 33.9493L12.4386 32.3647L11.856 32.4829L12.605 34.0774C11.7612 34.3837 11.2119 35.1776 11.2119 36.2978L11.8827 36.5425C11.8827 35.0528 13.0944 34.2822 14.5841 34.8248C16.0737 35.3674 17.2854 37.0202 17.2854 38.5098L17.9562 38.7545C17.9562 37.6277 17.3986 36.4276 16.5464 35.5039V35.5022Z" fill="#13203D" stroke="#E9ECFF" stroke-width="0.0800021" stroke-miterlimit="23.8"/>
<path d="M14.5756 39.1544C13.6768 38.8282 12.9462 37.8295 12.9462 36.9324C12.9462 36.0353 13.6768 35.5692 14.5756 35.8954C15.4744 36.2233 16.2051 37.2203 16.2051 38.1175C16.2051 39.0146 15.4744 39.4806 14.5756 39.1544ZM14.5756 35.2247C13.3073 34.7636 12.2754 35.4194 12.2754 36.6877C12.2754 37.8412 13.1309 39.1078 14.2394 39.6754V41.2L14.9069 41.4447V39.9184C16.0187 40.1597 16.8742 39.5156 16.8742 38.3605C16.8742 37.0922 15.8423 35.6857 14.574 35.223L14.5756 35.2247Z" fill="#13203D" stroke="#E9ECFF" stroke-width="0.0800021" stroke-miterlimit="23.8"/>
<path d="M16.5376 35.5095L17.2999 34.4826L16.7207 33.9333L15.9567 34.9619C15.6322 34.6973 15.281 34.4709 14.9115 34.2995V32.7765L14.2407 32.5319V34.0548C13.8646 33.9549 13.505 33.925 13.1755 33.9566L12.4298 32.3721L11.8473 32.4902L12.5963 34.0848C11.7524 34.391 11.2031 35.185 11.2031 36.3051L11.8739 36.5498C11.8739 35.0601 13.0856 34.2895 14.5753 34.8321C16.0649 35.3747 17.2766 37.0275 17.2766 38.5172L17.9474 38.7618C17.9474 37.635 17.3898 36.435 16.5376 35.5112V35.5095Z" fill="#13203D" stroke="#E9ECFF" stroke-width="0.0800021" stroke-miterlimit="23.8"/>
<path d="M14.5688 39.1598C13.67 38.8335 12.9393 37.8349 12.9393 36.9378C12.9393 36.0406 13.67 35.5746 14.5688 35.9008C15.4676 36.2287 16.1983 37.2257 16.1983 38.1228C16.1983 39.02 15.4676 39.486 14.5688 39.1598ZM14.5688 35.23C13.3005 34.769 12.2686 35.4248 12.2686 36.6931C12.2686 37.8465 13.1241 39.1132 14.2326 39.6807V41.2054L14.9 41.45V39.9237C16.0119 40.1651 16.8674 39.521 16.8674 38.3658C16.8674 37.0975 15.8354 35.6911 14.5671 35.2284L14.5688 35.23Z" fill="#13203D" stroke="#E9ECFF" stroke-width="0.0800021" stroke-miterlimit="23.8"/>
<path d="M16.5308 35.5129L17.2931 34.486L16.7139 33.9367L15.9499 34.9653C15.6253 34.7007 15.2741 34.4743 14.9046 34.3029V32.7799L14.2339 32.5353V34.0582C13.8577 33.9584 13.4982 33.9284 13.1686 33.96L12.423 32.3755L11.8404 32.4937L12.5894 34.0882C11.7456 34.3944 11.1963 35.1884 11.1963 36.3085L11.8671 36.5532C11.8671 35.0635 13.0788 34.2929 14.5684 34.8355C16.0581 35.3781 17.2698 37.0309 17.2698 38.5206L17.9406 38.7652C17.9406 37.6384 17.383 36.4384 16.5308 35.5146V35.5129Z" fill="#13203D" stroke="#E9ECFF" stroke-width="0.0800021" stroke-miterlimit="23.8"/>
<path d="M14.5639 39.1632C13.6651 38.837 12.9344 37.8383 12.9344 36.9412C12.9344 36.044 13.6651 35.578 14.5639 35.9042C15.4627 36.2321 16.1934 37.2291 16.1934 38.1262C16.1934 39.0234 15.4627 39.4894 14.5639 39.1632ZM14.5639 35.2335C13.2956 34.7724 12.2637 35.4282 12.2637 36.6965C12.2637 37.85 13.1192 39.1166 14.2277 39.6842V41.2088L14.8951 41.4534V39.9272C16.007 40.1685 16.8625 39.5244 16.8625 38.3693C16.8625 37.101 15.8306 35.6945 14.5623 35.2318L14.5639 35.2335Z" fill="#13203D" stroke="#E9ECFF" stroke-width="0.0800021" stroke-miterlimit="23.8"/>
<path d="M16.524 35.5159L17.2863 34.4889L16.707 33.9397L15.9431 34.9683C15.6185 34.7036 15.2673 34.4773 14.8978 34.3058V32.7829L14.227 32.5382V34.0612C13.8509 33.9613 13.4914 33.9313 13.1618 33.963L12.4161 32.3784L11.8336 32.4966L12.5826 34.0911C11.7387 34.3974 11.1895 35.1913 11.1895 36.3115L11.8602 36.5561C11.8602 35.0665 13.0719 34.2958 14.5616 34.8384C16.0513 35.3811 17.263 37.0338 17.263 38.5235L17.9337 38.7682C17.9337 37.6414 17.3761 36.4413 16.524 35.5175V35.5159Z" fill="#13203D" stroke="#E9ECFF" stroke-width="0.0800021" stroke-miterlimit="23.8"/>
<path d="M14.5561 39.171C13.6573 38.8448 12.9266 37.8461 12.9266 36.949C12.9266 36.0519 13.6573 35.5858 14.5561 35.912C15.4549 36.2399 16.1856 37.2369 16.1856 38.1341C16.1856 39.0312 15.4549 39.4972 14.5561 39.171ZM14.5561 35.2413C13.2878 34.7802 12.2559 35.436 12.2559 36.7043C12.2559 37.8578 13.1114 39.1244 14.2199 39.692V41.2166L14.8873 41.4613V39.935C15.9992 40.1763 16.8547 39.5322 16.8547 38.3771C16.8547 37.1088 15.8227 35.7023 14.5544 35.2396L14.5561 35.2413Z" fill="#13203D" stroke="#E9ECFF" stroke-width="0.0800021" stroke-miterlimit="23.8"/>
<path d="M16.5191 35.5203L17.2814 34.4933L16.7022 33.9441L15.9382 34.9727C15.6136 34.708 15.2624 34.4817 14.8929 34.3102V32.7873L14.2222 32.5426V34.0656C13.846 33.9657 13.4865 33.9357 13.1569 33.9674L12.4113 32.3828L11.8287 32.501L12.5777 34.0955C11.7338 34.4018 11.1846 35.1957 11.1846 36.3159L11.8553 36.5605C11.8553 35.0709 13.067 34.3002 14.5567 34.8428C16.0464 35.3854 17.2581 37.0382 17.2581 38.5279L17.9289 38.7726C17.9289 37.6457 17.3713 36.4457 16.5191 35.5219V35.5203Z" fill="#13203D" stroke="#E9ECFF" stroke-width="0.0800021" stroke-miterlimit="23.8"/>
<path d="M14.5483 39.1769C13.6495 38.8506 12.9188 37.852 12.9188 36.9548C12.9188 36.0577 13.6495 35.5917 14.5483 35.9179C15.4471 36.2458 16.1778 37.2428 16.1778 38.1399C16.1778 39.037 15.4471 39.5031 14.5483 39.1769ZM14.5483 35.2471C13.28 34.7861 12.248 35.4419 12.248 36.7102C12.248 37.8636 13.1036 39.1303 14.2121 39.6978V41.2224L14.8795 41.4671V39.9408C15.9914 40.1822 16.8469 39.538 16.8469 38.3829C16.8469 37.1146 15.8149 35.7082 14.5466 35.2455L14.5483 35.2471Z" fill="#13203D" stroke="#E9ECFF" stroke-width="0.0800021" stroke-miterlimit="23.8"/>
<path d="M16.5093 35.5295L17.2716 34.5026L16.6924 33.9533L15.9284 34.9819C15.6039 34.7173 15.2527 34.4909 14.8832 34.3195V32.7965L14.2124 32.5519V34.0748C13.8362 33.975 13.4767 33.945 13.1472 33.9766L12.4015 32.3921L11.8189 32.5103L12.5679 34.1048C11.7241 34.411 11.1748 35.205 11.1748 36.3251L11.8456 36.5698C11.8456 35.0801 13.0573 34.3095 14.5469 34.8521C16.0366 35.3947 17.2483 37.0475 17.2483 38.5372L17.9191 38.7818C17.9191 37.655 17.3615 36.455 16.5093 35.5312V35.5295Z" fill="#13203D" stroke="#E9ECFF" stroke-width="0.0800021" stroke-miterlimit="23.8"/>
<path d="M14.5434 39.1822C13.6446 38.856 12.9139 37.8573 12.9139 36.9602C12.9139 36.0631 13.6446 35.597 14.5434 35.9233C15.4422 36.2512 16.1729 37.2482 16.1729 38.1453C16.1729 39.0424 15.4422 39.5085 14.5434 39.1822ZM14.5434 35.2525C13.2751 34.7915 12.2432 35.4472 12.2432 36.7155C12.2432 37.869 13.0987 39.1356 14.2072 39.7032V41.2278L14.8746 41.4725V39.9462C15.9865 40.1875 16.842 39.5434 16.842 38.3883C16.842 37.12 15.81 35.7136 14.5417 35.2508L14.5434 35.2525Z" fill="#13203D" stroke="#E9ECFF" stroke-width="0.0800021" stroke-miterlimit="23.8"/>
<path d="M16.5015 35.5349L17.2638 34.508L16.6846 33.9587L15.9206 34.9873C15.596 34.7227 15.2449 34.4963 14.8753 34.3249V32.8019L14.2046 32.5572V34.0802C13.8284 33.9803 13.4689 33.9504 13.1393 33.982L12.3937 32.3975L11.8111 32.5156L12.5601 34.1102C11.7163 34.4164 11.167 35.2104 11.167 36.3305L11.8378 36.5752C11.8378 35.0855 13.0495 34.3149 14.5391 34.8575C16.0288 35.4001 17.2405 37.0529 17.2405 38.5425L17.9113 38.7872C17.9113 37.6604 17.3537 36.4603 16.5015 35.5366V35.5349Z" fill="#13203D" stroke="#E9ECFF" stroke-width="0.0800021" stroke-miterlimit="23.8"/>
<path d="M14.5366 39.1852C13.6378 38.8589 12.9071 37.8603 12.9071 36.9631C12.9071 36.066 13.6378 35.6 14.5366 35.9262C15.4354 36.2541 16.1661 37.2511 16.1661 38.1482C16.1661 39.0453 15.4354 39.5114 14.5366 39.1852ZM14.5366 35.2554C13.2683 34.7944 12.2363 35.4502 12.2363 36.7185C12.2363 37.8719 13.0918 39.1386 14.2004 39.7061V41.2307L14.8678 41.4754V39.9491C15.9796 40.1905 16.8352 39.5463 16.8352 38.3912C16.8352 37.1229 15.8032 35.7165 14.5349 35.2538L14.5366 35.2554Z" fill="#13203D" stroke="#E9ECFF" stroke-width="0.0800021" stroke-miterlimit="23.8"/>
<path d="M16.4956 35.5374L17.258 34.5104L16.6787 33.9611L15.9148 34.9898C15.5902 34.7251 15.239 34.4988 14.8695 34.3273V32.8044L14.1987 32.5597V34.0826C13.8226 33.9828 13.463 33.9528 13.1335 33.9844L12.3878 32.3999L11.8053 32.5181L12.5543 34.1126C11.7104 34.4189 11.1611 35.2128 11.1611 36.333L11.8319 36.5776C11.8319 35.088 13.0436 34.3173 14.5333 34.8599C16.0229 35.4025 17.2346 37.0553 17.2346 38.545L17.9054 38.7897C17.9054 37.6628 17.3478 36.4628 16.4956 35.539V35.5374Z" fill="#13203D" stroke="#E9ECFF" stroke-width="0.0800021" stroke-miterlimit="23.8"/>
<path d="M14.5288 39.192C13.63 38.8658 12.8993 37.8671 12.8993 36.97C12.8993 36.0728 13.63 35.6068 14.5288 35.933C15.4276 36.2609 16.1582 37.2579 16.1582 38.1551C16.1582 39.0522 15.4276 39.5182 14.5288 39.192ZM14.5288 35.2623C13.2605 34.8012 12.2285 35.457 12.2285 36.7253C12.2285 37.8788 13.084 39.1454 14.1925 39.713V41.2376L14.86 41.4823V39.956C15.9718 40.1973 16.8273 39.5532 16.8273 38.3981C16.8273 37.1298 15.7954 35.7233 14.5271 35.2606L14.5288 35.2623Z" fill="#13203D" stroke="#E9ECFF" stroke-width="0.0800021" stroke-miterlimit="23.8"/>
<path d="M16.4917 35.5442L17.254 34.5172L16.6748 33.968L15.9108 34.9966C15.5863 34.732 15.2351 34.5056 14.8656 34.3342V32.8112L14.1948 32.5665V34.0895C13.8187 33.9896 13.4591 33.9597 13.1296 33.9913L12.3839 32.4067L11.8014 32.5249L12.5504 34.1194C11.7065 34.4257 11.1572 35.2196 11.1572 36.3398L11.828 36.5845C11.828 35.0948 13.0397 34.3242 14.5294 34.8668C16.019 35.4094 17.2307 37.0622 17.2307 38.5518L17.9015 38.7965C17.9015 37.6697 17.3439 36.4696 16.4917 35.5459V35.5442Z" fill="#13203D" stroke="#E9ECFF" stroke-width="0.0800021" stroke-miterlimit="23.8"/>
<path d="M14.5239 39.1964C13.6251 38.8702 12.8944 37.8715 12.8944 36.9744C12.8944 36.0772 13.6251 35.6112 14.5239 35.9374C15.4227 36.2653 16.1534 37.2623 16.1534 38.1594C16.1534 39.0566 15.4227 39.5226 14.5239 39.1964ZM14.5239 35.2667C13.2556 34.8056 12.2236 35.4614 12.2236 36.7297C12.2236 37.8832 13.0792 39.1498 14.1877 39.7174V41.242L14.8551 41.4866V39.9604C15.9669 40.2017 16.8225 39.5576 16.8225 38.4025C16.8225 37.1342 15.7905 35.7277 14.5222 35.265L14.5239 35.2667Z" fill="#13203D" stroke="#E9ECFF" stroke-width="0.0800021" stroke-miterlimit="23.8"/>
<path d="M16.482 35.552L17.2443 34.5251L16.6651 33.9758L15.9011 35.0044C15.5765 34.7398 15.2253 34.5134 14.8558 34.342V32.819L14.1851 32.5743V34.0973C13.8089 33.9974 13.4494 33.9675 13.1198 33.9991L12.3741 32.4146L11.7916 32.5327L12.5406 34.1273C11.6967 34.4335 11.1475 35.2274 11.1475 36.3476L11.8182 36.5923C11.8182 35.1026 13.0299 34.332 14.5196 34.8746C16.0093 35.4172 17.221 37.07 17.221 38.5596L17.8917 38.8043C17.8917 37.6775 17.3342 36.4774 16.482 35.5537V35.552Z" fill="#13203D" stroke="#E9ECFF" stroke-width="0.0800021" stroke-miterlimit="23.8"/>
<path d="M14.5161 39.2023C13.6173 38.876 12.8866 37.8774 12.8866 36.9802C12.8866 36.0831 13.6173 35.6171 14.5161 35.9433C15.4149 36.2712 16.1455 37.2682 16.1455 38.1653C16.1455 39.0624 15.4149 39.5285 14.5161 39.2023ZM14.5161 35.2725C13.2478 34.8115 12.2158 35.4673 12.2158 36.7356C12.2158 37.889 13.0713 39.1556 14.1799 39.7232V41.2478L14.8473 41.4925V39.9662C15.9591 40.2076 16.8146 39.5634 16.8146 38.4083C16.8146 37.14 15.7827 35.7336 14.5144 35.2709L14.5161 35.2725Z" fill="#13203D" stroke="#E9ECFF" stroke-width="0.0800021" stroke-miterlimit="23.8"/>
<path d="M16.4751 35.5554L17.2374 34.5285L16.6582 33.9792L15.8942 35.0078C15.5697 34.7432 15.2185 34.5168 14.849 34.3454V32.8224L14.1782 32.5778V34.1007C13.8021 34.0008 13.4425 33.9709 13.113 34.0025L12.3673 32.418L11.7848 32.5361L12.5338 34.1307C11.6899 34.4369 11.1406 35.2309 11.1406 36.351L11.8114 36.5957C11.8114 35.106 13.0231 34.3354 14.5128 34.878C16.0024 35.4206 17.2141 37.0734 17.2141 38.5631L17.8849 38.8077C17.8849 37.6809 17.3273 36.4808 16.4751 35.5571V35.5554Z" fill="#13203D" stroke="#E9ECFF" stroke-width="0.0800021" stroke-miterlimit="23.8"/>
<path d="M14.5043 39.2066C13.6056 38.8804 12.8749 37.8818 12.8749 36.9846C12.8749 36.0875 13.6056 35.6215 14.5043 35.9477C15.4031 36.2756 16.1338 37.2726 16.1338 38.1697C16.1338 39.0668 15.4031 39.5329 14.5043 39.2066ZM14.5043 35.2769C13.236 34.8159 12.2041 35.4717 12.2041 36.74C12.2041 37.8934 13.0596 39.16 14.1681 39.7276V41.2522L14.8356 41.4969V39.9706C15.9474 40.212 16.8029 39.5678 16.8029 38.4127C16.8029 37.1444 15.771 35.738 14.5027 35.2753L14.5043 35.2769Z" fill="#13203D" stroke="#E9ECFF" stroke-width="0.0800021" stroke-miterlimit="23.8"/>
<path d="M16.4654 35.5598L17.2277 34.5329L16.6485 33.9836L15.8845 35.0122C15.5599 34.7476 15.2087 34.5212 14.8392 34.3498V32.8268L14.1684 32.5821V34.1051C13.7923 34.0052 13.4328 33.9753 13.1032 34.0069L12.3575 32.4224L11.775 32.5405L12.524 34.1351C11.6801 34.4413 11.1309 35.2353 11.1309 36.3554L11.8016 36.6001C11.8016 35.1104 13.0133 34.3398 14.503 34.8824C15.9927 35.425 17.2044 37.0778 17.2044 38.5675L17.8751 38.8121C17.8751 37.6853 17.3176 36.4852 16.4654 35.5615V35.5598Z" fill="#13203D" stroke="#E9ECFF" stroke-width="0.0800021" stroke-miterlimit="23.8"/>
<path d="M14.4975 39.2184C13.5987 38.8921 12.868 37.8935 12.868 36.9963C12.868 36.0992 13.5987 35.6332 14.4975 35.9594C15.3963 36.2873 16.127 37.2843 16.127 38.1814C16.127 39.0786 15.3963 39.5446 14.4975 39.2184ZM14.4975 35.2886C13.2292 34.8276 12.1973 35.4834 12.1973 36.7517C12.1973 37.9051 13.0528 39.1718 14.1613 39.7393V41.2639L14.8287 41.5086V39.9823C15.9406 40.2237 16.7961 39.5795 16.7961 38.4244C16.7961 37.1561 15.7641 35.7497 14.4958 35.287L14.4975 35.2886Z" fill="#13203D" stroke="#E9ECFF" stroke-width="0.0800021" stroke-miterlimit="23.8"/>
<path d="M16.4605 35.5681L17.2228 34.5412L16.6436 33.9919L15.8796 35.0205C15.555 34.7559 15.2038 34.5295 14.8343 34.3581V32.8351L14.1636 32.5905V34.1134C13.7874 34.0135 13.4279 33.9836 13.0983 34.0152L12.3527 32.4307L11.7701 32.5488L12.5191 34.1434C11.6752 34.4496 11.126 35.2436 11.126 36.3637L11.7967 36.6084C11.7967 35.1187 13.0085 34.3481 14.4981 34.8907C15.9878 35.4333 17.1995 37.0861 17.1995 38.5758L17.8703 38.8204C17.8703 37.6936 17.3127 36.4935 16.4605 35.5698V35.5681Z" fill="#13203D" stroke="#E9ECFF" stroke-width="0.0800021" stroke-miterlimit="23.8"/>
<path d="M14.4956 39.2242C13.5968 38.898 12.8661 37.8993 12.8661 37.0022C12.8661 36.1051 13.5968 35.639 14.4956 35.9653C15.3944 36.2932 16.125 37.2902 16.125 38.1873C16.125 39.0844 15.3944 39.5505 14.4956 39.2242ZM14.4956 35.2945C13.2273 34.8334 12.1953 35.4892 12.1953 36.7575C12.1953 37.911 13.0508 39.1776 14.1593 39.7452V41.2698L14.8268 41.5145V39.9882C15.9386 40.2295 16.7941 39.5854 16.7941 38.4303C16.7941 37.162 15.7622 35.7555 14.4939 35.2928L14.4956 35.2945Z" fill="#13203D" stroke="#E9ECFF" stroke-width="0.0800021" stroke-miterlimit="23.8"/>
<path d="M16.4536 35.5769L17.216 34.55L16.6367 34.0007L15.8728 35.0293C15.5482 34.7647 15.197 34.5383 14.8275 34.3669V32.8439L14.1567 32.5992V34.1222C13.7806 34.0223 13.4211 33.9924 13.0915 34.024L12.3458 32.4395L11.7633 32.5576L12.5123 34.1522C11.6684 34.4584 11.1191 35.2523 11.1191 36.3725L11.7899 36.6172C11.7899 35.1275 13.0016 34.3569 14.4913 34.8995C15.9809 35.4421 17.1927 37.0949 17.1927 38.5845L17.8634 38.8292C17.8634 37.7024 17.3058 36.5023 16.4536 35.5786V35.5769Z" fill="#13203D" stroke="#E9ECFF" stroke-width="0.0800021" stroke-miterlimit="23.8"/>
<path d="M14.4887 39.2281C13.5899 38.9019 12.8592 37.9032 12.8592 37.0061C12.8592 36.109 13.5899 35.6429 14.4887 35.9692C15.3875 36.2971 16.1182 37.2941 16.1182 38.1912C16.1182 39.0883 15.3875 39.5544 14.4887 39.2281ZM14.4887 35.2984C13.2204 34.8374 12.1885 35.4931 12.1885 36.7614C12.1885 37.9149 13.044 39.1815 14.1525 39.7491V41.2737L14.8199 41.5184V39.9921C15.9318 40.2334 16.7873 39.5893 16.7873 38.4342C16.7873 37.1659 15.7554 35.7595 14.4871 35.2967L14.4887 35.2984Z" fill="#13203D" stroke="#E9ECFF" stroke-width="0.0800021" stroke-miterlimit="23.8"/>
<path d="M16.4468 35.5784L17.2091 34.5514L16.6299 34.0022L15.8659 35.0308C15.5414 34.7661 15.1902 34.5398 14.8207 34.3683V32.8454L14.1499 32.6007V34.1237C13.7737 34.0238 13.4142 33.9938 13.0847 34.0255L12.339 32.4409L11.7564 32.5591L12.5054 34.1536C11.6616 34.4599 11.1123 35.2538 11.1123 36.374L11.7831 36.6186C11.7831 35.129 12.9948 34.3583 14.4844 34.9009C15.9741 35.4436 17.1858 37.0963 17.1858 38.586L17.8566 38.8307C17.8566 37.7039 17.299 36.5038 16.4468 35.58V35.5784Z" fill="#13203D" stroke="#E9ECFF" stroke-width="0.0800021" stroke-miterlimit="23.8"/>
<path d="M14.4809 39.2286C13.5821 38.9024 12.8514 37.9037 12.8514 37.0066C12.8514 36.1095 13.5821 35.6434 14.4809 35.9697C15.3797 36.2976 16.1104 37.2945 16.1104 38.1917C16.1104 39.0888 15.3797 39.5548 14.4809 39.2286ZM14.4809 35.2989C13.2126 34.8378 12.1807 35.4936 12.1807 36.7619C12.1807 37.9154 13.0362 39.182 14.1447 39.7496V41.2742L14.8121 41.5189V39.9926C15.924 40.2339 16.7795 39.5898 16.7795 38.4347C16.7795 37.1664 15.7475 35.7599 14.4792 35.2972L14.4809 35.2989Z" fill="#13203D" stroke="#E9ECFF" stroke-width="0.0800021" stroke-miterlimit="23.8"/>
<path d="M16.44 35.5818L17.2023 34.5548L16.6231 34.0056L15.8591 35.0342C15.5345 34.7695 15.1833 34.5432 14.8138 34.3717V32.8488L14.1431 32.6041V34.1271C13.7669 34.0272 13.4074 33.9973 13.0778 34.0289L12.3322 32.4443L11.7496 32.5625L12.4986 34.157C11.6547 34.4633 11.1055 35.2572 11.1055 36.3774L11.7762 36.6221C11.7762 35.1324 12.9879 34.3618 14.4776 34.9044C15.9673 35.447 17.179 37.0998 17.179 38.5894L17.8498 38.8341C17.8498 37.7073 17.2922 36.5072 16.44 35.5835V35.5818Z" fill="#13203D" stroke="#E9ECFF" stroke-width="0.0800021" stroke-miterlimit="23.8"/>
<path d="M14.4702 39.2394C13.5714 38.9131 12.8407 37.9145 12.8407 37.0173C12.8407 36.1202 13.5714 35.6542 14.4702 35.9804C15.369 36.3083 16.0996 37.3053 16.0996 38.2024C16.0996 39.0995 15.369 39.5656 14.4702 39.2394ZM14.4702 35.3096C13.2019 34.8486 12.1699 35.5044 12.1699 36.7727C12.1699 37.9261 13.0254 39.1928 14.134 39.7603V41.2849L14.8014 41.5296V40.0033C15.9132 40.2447 16.7687 39.6005 16.7687 38.4454C16.7687 37.1771 15.7368 35.7707 14.4685 35.308L14.4702 35.3096Z" fill="#13203D" stroke="#E9ECFF" stroke-width="0.0800021" stroke-miterlimit="23.8"/>
<path d="M16.4331 35.592L17.1954 34.5651L16.6162 34.0158L15.8523 35.0444C15.5277 34.7798 15.1765 34.5534 14.807 34.382V32.859L14.1362 32.6144V34.1373C13.7601 34.0375 13.4005 34.0075 13.071 34.0391L12.3253 32.4546L11.7428 32.5728L12.4918 34.1673C11.6479 34.4735 11.0986 35.2675 11.0986 36.3876L11.7694 36.6323C11.7694 35.1426 12.9811 34.372 14.4708 34.9146C15.9604 35.4572 17.1721 37.11 17.1721 38.5997L17.8429 38.8443C17.8429 37.7175 17.2853 36.5175 16.4331 35.5937V35.592Z" fill="#13203D" stroke="#E9ECFF" stroke-width="0.0800021" stroke-miterlimit="23.8"/>
<path d="M14.4672 39.2413C13.5684 38.9151 12.8378 37.9164 12.8378 37.0193C12.8378 36.1222 13.5684 35.6561 14.4672 35.9824C15.366 36.3102 16.0967 37.3072 16.0967 38.2044C16.0967 39.1015 15.366 39.5675 14.4672 39.2413ZM14.4672 35.3116C13.1989 34.8505 12.167 35.5063 12.167 36.7746C12.167 37.9281 13.0225 39.1947 14.131 39.7623V41.2869L14.7985 41.5316V40.0053C15.9103 40.2466 16.7658 39.6025 16.7658 38.4474C16.7658 37.1791 15.7339 35.7726 14.4656 35.3099L14.4672 35.3116Z" fill="#13203D" stroke="#E9ECFF" stroke-width="0.0800021" stroke-miterlimit="23.8"/>
<path d="M16.4253 35.5964L17.1876 34.5695L16.6084 34.0202L15.8444 35.0488C15.5199 34.7842 15.1687 34.5578 14.7992 34.3864V32.8634L14.1284 32.6188V34.1417C13.7522 34.0419 13.3927 34.0119 13.0632 34.0435L12.3175 32.459L11.735 32.5772L12.484 34.1717C11.6401 34.4779 11.0908 35.2719 11.0908 36.392L11.7616 36.6367C11.7616 35.147 12.9733 34.3764 14.463 34.919C15.9526 35.4616 17.1643 37.1144 17.1643 38.6041L17.8351 38.8487C17.8351 37.7219 17.2775 36.5219 16.4253 35.5981V35.5964Z" fill="#13203D" stroke="#E9ECFF" stroke-width="0.0800021" stroke-miterlimit="23.8"/>
<path d="M14.4575 39.2472C13.5587 38.9209 12.828 37.9223 12.828 37.0252C12.828 36.128 13.5587 35.662 14.4575 35.9882C15.3563 36.3161 16.087 37.3131 16.087 38.2102C16.087 39.1074 15.3563 39.5734 14.4575 39.2472ZM14.4575 35.3174C13.1892 34.8564 12.1572 35.5122 12.1572 36.7805C12.1572 37.9339 13.0127 39.2006 14.1213 39.7681V41.2928L14.7887 41.5374V40.0111C15.9005 40.2525 16.7561 39.6084 16.7561 38.4532C16.7561 37.1849 15.7241 35.7785 14.4558 35.3158L14.4575 35.3174Z" fill="#13203D" stroke="#E9ECFF" stroke-width="0.0800021" stroke-miterlimit="23.8"/>
<path d="M16.4185 35.5994L17.1808 34.5724L16.6016 34.0232L15.8376 35.0518C15.513 34.7871 15.1618 34.5608 14.7923 34.3893V32.8664L14.1216 32.6217V34.1447C13.7454 34.0448 13.3859 34.0148 13.0563 34.0465L12.3107 32.4619L11.7281 32.5801L12.4771 34.1746C11.6332 34.4809 11.084 35.2748 11.084 36.395L11.7548 36.6396C11.7548 35.15 12.9665 34.3793 14.4561 34.9219C15.9458 35.4646 17.1575 37.1173 17.1575 38.607L17.8283 38.8517C17.8283 37.7249 17.2707 36.5248 16.4185 35.601V35.5994Z" fill="#13203D" stroke="#E9ECFF" stroke-width="0.0800021" stroke-miterlimit="23.8"/>
<path d="M14.4545 39.2506C13.5557 38.9244 12.8251 37.9257 12.8251 37.0286C12.8251 36.1314 13.5557 35.6654 14.4545 35.9916C15.3533 36.3195 16.084 37.3165 16.084 38.2136C16.084 39.1108 15.3533 39.5768 14.4545 39.2506ZM14.4545 35.3209C13.1862 34.8598 12.1543 35.5156 12.1543 36.7839C12.1543 37.9374 13.0098 39.204 14.1183 39.7716V41.2962L14.7858 41.5408V40.0146C15.8976 40.2559 16.7531 39.6118 16.7531 38.4567C16.7531 37.1884 15.7212 35.7819 14.4529 35.3192L14.4545 35.3209Z" fill="#13203D" stroke="#E9ECFF" stroke-width="0.0800021" stroke-miterlimit="23.8"/>
<path d="M16.4126 35.6028L17.1749 34.5758L16.5957 34.0266L15.8317 35.0552C15.5072 34.7905 15.156 34.5642 14.7865 34.3927V32.8698L14.1157 32.6251V34.1481C13.7396 34.0482 13.38 34.0182 13.0505 34.0499L12.3048 32.4653L11.7223 32.5835L12.4713 34.178C11.6274 34.4843 11.0781 35.2782 11.0781 36.3984L11.7489 36.6431C11.7489 35.1534 12.9606 34.3828 14.4503 34.9254C15.9399 35.468 17.1516 37.1208 17.1516 38.6104L17.8224 38.8551C17.8224 37.7283 17.2648 36.5282 16.4126 35.6045V35.6028Z" fill="#13203D" stroke="#E9ECFF" stroke-width="0.0800021" stroke-miterlimit="23.8"/>
<path d="M14.4467 39.2623C13.5479 38.9361 12.8173 37.9374 12.8173 37.0403C12.8173 36.1432 13.5479 35.6771 14.4467 36.0033C15.3455 36.3312 16.0762 37.3282 16.0762 38.2254C16.0762 39.1225 15.3455 39.5885 14.4467 39.2623ZM14.4467 35.3326C13.1784 34.8715 12.1465 35.5273 12.1465 36.7956C12.1465 37.9491 13.002 39.2157 14.1105 39.7833V41.3079L14.778 41.5526V40.0263C15.8898 40.2676 16.7453 39.6235 16.7453 38.4684C16.7453 37.2001 15.7134 35.7936 14.4451 35.3309L14.4467 35.3326Z" fill="#13203D" stroke="#E9ECFF" stroke-width="0.0800021" stroke-miterlimit="23.8"/>
<path d="M16.4048 35.615L17.1671 34.588L16.5879 34.0388L15.8239 35.0674C15.4994 34.8028 15.1482 34.5764 14.7787 34.405V32.882L14.1079 32.6373V34.1603C13.7317 34.0604 13.3722 34.0305 13.0427 34.0621L12.297 32.4775L11.7144 32.5957L12.4634 34.1902C11.6196 34.4965 11.0703 35.2904 11.0703 36.4106L11.7411 36.6553C11.7411 35.1656 12.9528 34.395 14.4425 34.9376C15.9321 35.4802 17.1438 37.133 17.1438 38.6226L17.8146 38.8673C17.8146 37.7405 17.257 36.5404 16.4048 35.6167V35.615Z" fill="#13203D" stroke="#E9ECFF" stroke-width="0.0800021" stroke-miterlimit="23.8"/>
<path d="M14.434 39.2657C13.5352 38.9395 12.8046 37.9408 12.8046 37.0437C12.8046 36.1466 13.5352 35.6805 14.434 36.0068C15.3328 36.3347 16.0635 37.3317 16.0635 38.2288C16.0635 39.1259 15.3328 39.592 14.434 39.2657ZM14.434 35.336C13.1657 34.875 12.1338 35.5307 12.1338 36.799C12.1338 37.9525 12.9893 39.2191 14.0978 39.7867V41.3113L14.7653 41.556V40.0297C15.8771 40.271 16.7326 39.6269 16.7326 38.4718C16.7326 37.2035 15.7007 35.797 14.4324 35.3343L14.434 35.336Z" fill="#13203D" stroke="#E9ECFF" stroke-width="0.0800021" stroke-miterlimit="23.8"/>
<path d="M16.3951 35.6189L17.1574 34.5919L16.5781 34.0427L15.8142 35.0713C15.4896 34.8067 15.1384 34.5803 14.7689 34.4089V32.8859L14.0981 32.6412V34.1642C13.722 34.0643 13.3625 34.0344 13.0329 34.066L12.2872 32.4814L11.7047 32.5996L12.4537 34.1941C11.6098 34.5004 11.0605 35.2943 11.0605 36.4145L11.7313 36.6592C11.7313 35.1695 12.943 34.3989 14.4327 34.9415C15.9224 35.4841 17.1341 37.1369 17.1341 38.6265L17.8048 38.8712C17.8048 37.7444 17.2472 36.5443 16.3951 35.6206V35.6189Z" fill="#13203D" stroke="#E9ECFF" stroke-width="0.0800021" stroke-miterlimit="23.8"/>
<path d="M14.4311 39.2687C13.5323 38.9424 12.8016 37.9438 12.8016 37.0466C12.8016 36.1495 13.5323 35.6835 14.4311 36.0097C15.3299 36.3376 16.0606 37.3346 16.0606 38.2317C16.0606 39.1288 15.3299 39.5949 14.4311 39.2687ZM14.4311 35.3389C13.1628 34.8779 12.1309 35.5337 12.1309 36.802C12.1309 37.9554 12.9864 39.2221 14.0949 39.7896V41.3142L14.7623 41.5589V40.0326C15.8742 40.274 16.7297 39.6298 16.7297 38.4747C16.7297 37.2064 15.6977 35.8 14.4294 35.3373L14.4311 35.3389Z" fill="#13203D" stroke="#E9ECFF" stroke-width="0.0800021" stroke-miterlimit="23.8"/>
<path d="M16.3892 35.6213L17.1515 34.5944L16.5723 34.0451L15.8083 35.0737C15.4837 34.8091 15.1325 34.5827 14.763 34.4113V32.8883L14.0923 32.6437V34.1666C13.7161 34.0668 13.3566 34.0368 13.027 34.0684L12.2814 32.4839L11.6988 32.6021L12.4478 34.1966C11.604 34.5028 11.0547 35.2968 11.0547 36.4169L11.7255 36.6616C11.7255 35.1719 12.9372 34.4013 14.4268 34.9439C15.9165 35.4865 17.1282 37.1393 17.1282 38.629L17.799 38.8736C17.799 37.7468 17.2414 36.5468 16.3892 35.623V35.6213Z" fill="#13203D" stroke="#E9ECFF" stroke-width="0.0800021" stroke-miterlimit="23.8"/>
<path d="M14.4272 39.2726C13.5284 38.9463 12.7977 37.9477 12.7977 37.0505C12.7977 36.1534 13.5284 35.6874 14.4272 36.0136C15.326 36.3415 16.0567 37.3385 16.0567 38.2356C16.0567 39.1328 15.326 39.5988 14.4272 39.2726ZM14.4272 35.3428C13.1589 34.8818 12.127 35.5376 12.127 36.8059C12.127 37.9593 12.9825 39.226 14.091 39.7935V41.3181L14.7584 41.5628V40.0365C15.8703 40.2779 16.7258 39.6337 16.7258 38.4786C16.7258 37.2103 15.6938 35.8039 14.4255 35.3412L14.4272 35.3428Z" fill="#13203D" stroke="#E9ECFF" stroke-width="0.0800021" stroke-miterlimit="23.8"/>
<path d="M16.3853 35.6257L17.1476 34.5988L16.5684 34.0495L15.8044 35.0781C15.4798 34.8135 15.1286 34.5871 14.7591 34.4157V32.8927L14.0884 32.6481V34.171C13.7122 34.0712 13.3527 34.0412 13.0231 34.0728L12.2775 32.4883L11.6949 32.6065L12.4439 34.201C11.6 34.5072 11.0508 35.3012 11.0508 36.4213L11.7215 36.666C11.7215 35.1763 12.9333 34.4057 14.4229 34.9483C15.9126 35.4909 17.1243 37.1437 17.1243 38.6334L17.7951 38.878C17.7951 37.7512 17.2375 36.5512 16.3853 35.6274V35.6257Z" fill="#13203D" stroke="#E9ECFF" stroke-width="0.0800021" stroke-miterlimit="23.8"/>
<path d="M14.4174 39.2804C13.5186 38.9541 12.788 37.9555 12.788 37.0584C12.788 36.1612 13.5186 35.6952 14.4174 36.0214C15.3162 36.3493 16.0469 37.3463 16.0469 38.2434C16.0469 39.1406 15.3162 39.6066 14.4174 39.2804ZM14.4174 35.3506C13.1491 34.8896 12.1172 35.5454 12.1172 36.8137C12.1172 37.9671 12.9727 39.2338 14.0812 39.8013V41.326L14.7487 41.5706V40.0443C15.8605 40.2857 16.716 39.6416 16.716 38.4864C16.716 37.2181 15.6841 35.8117 14.4158 35.349L14.4174 35.3506Z" fill="#13203D" stroke="#E9ECFF" stroke-width="0.0800021" stroke-miterlimit="23.8"/>
<path d="M16.3755 35.6326L17.1378 34.6056L16.5586 34.0564L15.7946 35.085C15.4701 34.8203 15.1189 34.594 14.7494 34.4225V32.8996L14.0786 32.6549V34.1779C13.7024 34.078 13.3429 34.048 13.0134 34.0797L12.2677 32.4951L11.6852 32.6133L12.4341 34.2078C11.5903 34.5141 11.041 35.308 11.041 36.4282L11.7118 36.6728C11.7118 35.1832 12.9235 34.4125 14.4132 34.9551C15.9028 35.4978 17.1145 37.1505 17.1145 38.6402L17.7853 38.8849C17.7853 37.7581 17.2277 36.558 16.3755 35.6342V35.6326Z" fill="#13203D" stroke="#E9ECFF" stroke-width="0.0800021" stroke-miterlimit="23.8"/>
<path d="M14.4057 39.2838C13.5069 38.9576 12.7762 37.9589 12.7762 37.0618C12.7762 36.1646 13.5069 35.6986 14.4057 36.0248C15.3045 36.3527 16.0352 37.3497 16.0352 38.2469C16.0352 39.144 15.3045 39.61 14.4057 39.2838ZM14.4057 35.3541C13.1374 34.893 12.1055 35.5488 12.1055 36.8171C12.1055 37.9706 12.961 39.2372 14.0695 39.8048V41.3294L14.7369 41.5741V40.0478C15.8488 40.2891 16.7043 39.645 16.7043 38.4899C16.7043 37.2216 15.6723 35.8151 14.404 35.3524L14.4057 35.3541Z" fill="#13203D" stroke="#E9ECFF" stroke-width="0.0800021" stroke-miterlimit="23.8"/>
<path d="M16.3667 35.6389L17.129 34.612L16.5498 34.0627L15.7858 35.0913C15.4613 34.8267 15.1101 34.6003 14.7406 34.4289V32.9059L14.0698 32.6613V34.1842C13.6937 34.0843 13.3341 34.0544 13.0046 34.086L12.2589 32.5015L11.6764 32.6196L12.4254 34.2142C11.5815 34.5204 11.0322 35.3144 11.0322 36.4345L11.703 36.6792C11.703 35.1895 12.9147 34.4189 14.4044 34.9615C15.894 35.5041 17.1057 37.1569 17.1057 38.6466L17.7765 38.8912C17.7765 37.7644 17.2189 36.5643 16.3667 35.6406V35.6389Z" fill="#13203D" stroke="#E9ECFF" stroke-width="0.0800021" stroke-miterlimit="23.8"/>
<path d="M14.4028 39.2877C13.504 38.9615 12.7733 37.9628 12.7733 37.0657C12.7733 36.1686 13.504 35.7025 14.4028 36.0287C15.3016 36.3566 16.0323 37.3536 16.0323 38.2508C16.0323 39.1479 15.3016 39.6139 14.4028 39.2877ZM14.4028 35.358C13.1345 34.8969 12.1025 35.5527 12.1025 36.821C12.1025 37.9745 12.9581 39.2411 14.0666 39.8087V41.3333L14.734 41.578V40.0517C15.8458 40.293 16.7014 39.6489 16.7014 38.4938C16.7014 37.2255 15.6694 35.819 14.4011 35.3563L14.4028 35.358Z" fill="#13203D" stroke="#E9ECFF" stroke-width="0.0800021" stroke-miterlimit="23.8"/>
<path d="M16.3609 35.6399L17.1232 34.6129L16.544 34.0637L15.78 35.0923C15.4554 34.8277 15.1042 34.6013 14.7347 34.4299V32.9069L14.064 32.6622V34.1852C13.6878 34.0853 13.3283 34.0554 12.9987 34.087L12.2531 32.5024L11.6705 32.6206L12.4195 34.2151C11.5756 34.5214 11.0264 35.3153 11.0264 36.4355L11.6971 36.6802C11.6971 35.1905 12.9088 34.4199 14.3985 34.9625C15.8882 35.5051 17.0999 37.1579 17.0999 38.6475L17.7706 38.8922C17.7706 37.7654 17.2131 36.5653 16.3609 35.6416V35.6399Z" fill="#13203D" stroke="#E9ECFF" stroke-width="0.0800021" stroke-miterlimit="23.8"/>
<path d="M14.395 39.294C13.4962 38.9678 12.7655 37.9692 12.7655 37.072C12.7655 36.1749 13.4962 35.7089 14.395 36.0351C15.2938 36.363 16.0245 37.36 16.0245 38.2571C16.0245 39.1542 15.2938 39.6203 14.395 39.294ZM14.395 35.3643C13.1267 34.9033 12.0947 35.5591 12.0947 36.8274C12.0947 37.9808 12.9502 39.2474 14.0588 39.815V41.3396L14.7262 41.5843V40.058C15.838 40.2994 16.6936 39.6552 16.6936 38.5001C16.6936 37.2318 15.6616 35.8254 14.3933 35.3627L14.395 35.3643Z" fill="#13203D" stroke="#E9ECFF" stroke-width="0.0800021" stroke-miterlimit="23.8"/>
<path d="M16.3531 35.6462L17.1154 34.6193L16.5361 34.07L15.7722 35.0986C15.4476 34.834 15.0964 34.6076 14.7269 34.4362V32.9132L14.0561 32.6686V34.1915C13.68 34.0917 13.3205 34.0617 12.9909 34.0933L12.2452 32.5088L11.6627 32.627L12.4117 34.2215C11.5678 34.5277 11.0186 35.3217 11.0186 36.4418L11.6893 36.6865C11.6893 35.1968 12.901 34.4262 14.3907 34.9688C15.8804 35.5114 17.0921 37.1642 17.0921 38.6539L17.7628 38.8985C17.7628 37.7717 17.2053 36.5717 16.3531 35.6479V35.6462Z" fill="#13203D" stroke="#E9ECFF" stroke-width="0.0800021" stroke-miterlimit="23.8"/>
<path d="M14.3911 39.3053C13.4923 38.979 12.7616 37.9804 12.7616 37.0833C12.7616 36.1861 13.4923 35.7201 14.3911 36.0463C15.2899 36.3742 16.0205 37.3712 16.0205 38.2683C16.0205 39.1655 15.2899 39.6315 14.3911 39.3053ZM14.3911 35.3756C13.1228 34.9145 12.0908 35.5703 12.0908 36.8386C12.0908 37.992 12.9463 39.2587 14.0549 39.8262V41.3509L14.7223 41.5955V40.0693C15.8341 40.3106 16.6896 39.6665 16.6896 38.5113C16.6896 37.243 15.6577 35.8366 14.3894 35.3739L14.3911 35.3756Z" fill="#13203D" stroke="#E9ECFF" stroke-width="0.0800021" stroke-miterlimit="23.8"/>
<path d="M16.3492 35.658L17.1115 34.631L16.5322 34.0817L15.7683 35.1104C15.4437 34.8457 15.0925 34.6194 14.723 34.4479V32.925L14.0522 32.6803V34.2032C13.6761 34.1034 13.3166 34.0734 12.987 34.105L12.2413 32.5205L11.6588 32.6387L12.4078 34.2332C11.5639 34.5395 11.0146 35.3334 11.0146 36.4536L11.6854 36.6982C11.6854 35.2086 12.8971 34.4379 14.3868 34.9805C15.8765 35.5231 17.0882 37.1759 17.0882 38.6656L17.7589 38.9103C17.7589 37.7834 17.2013 36.5834 16.3492 35.6596V35.658Z" fill="#13203D" stroke="#E9ECFF" stroke-width="0.0800021" stroke-miterlimit="23.8"/>
<path d="M14.3793 39.3082C13.4806 38.982 12.7499 37.9833 12.7499 37.0862C12.7499 36.1891 13.4806 35.723 14.3793 36.0492C15.2781 36.3771 16.0088 37.3741 16.0088 38.2713C16.0088 39.1684 15.2781 39.6344 14.3793 39.3082ZM14.3793 35.3785C13.1111 34.9174 12.0791 35.5732 12.0791 36.8415C12.0791 37.995 12.9346 39.2616 14.0431 39.8292V41.3538L14.7106 41.5985V40.0722C15.8224 40.3135 16.6779 39.6694 16.6779 38.5143C16.6779 37.246 15.646 35.8395 14.3777 35.3768L14.3793 35.3785Z" fill="#13203D" stroke="#E9ECFF" stroke-width="0.0800021" stroke-miterlimit="23.8"/>
<path d="M16.3423 35.6614L17.1046 34.6344L16.5254 34.0852L15.7614 35.1138C15.4369 34.8491 15.0857 34.6228 14.7162 34.4513V32.9284L14.0454 32.6837V34.2067C13.6692 34.1068 13.3097 34.0768 12.9802 34.1085L12.2345 32.5239L11.6519 32.6421L12.4009 34.2366C11.5571 34.5429 11.0078 35.3368 11.0078 36.457L11.6786 36.7017C11.6786 35.212 12.8903 34.4414 14.38 34.984C15.8696 35.5266 17.0813 37.1793 17.0813 38.669L17.7521 38.9137C17.7521 37.7869 17.1945 36.5868 16.3423 35.663V35.6614Z" fill="#13203D" stroke="#E9ECFF" stroke-width="0.0800021" stroke-miterlimit="23.8"/>
<path d="M14.3706 39.3102C13.4718 38.9839 12.7411 37.9853 12.7411 37.0881C12.7411 36.191 13.4718 35.725 14.3706 36.0512C15.2694 36.3791 16 37.3761 16 38.2732C16 39.1703 15.2694 39.6364 14.3706 39.3102ZM14.3706 35.3804C13.1023 34.9194 12.0703 35.5752 12.0703 36.8435C12.0703 37.9969 12.9258 39.2636 14.0343 39.8311V41.3557L14.7018 41.6004V40.0741C15.8136 40.3155 16.6691 39.6713 16.6691 38.5162C16.6691 37.2479 15.6372 35.8415 14.3689 35.3788L14.3706 35.3804Z" fill="#13203D" stroke="#E9ECFF" stroke-width="0.0800021" stroke-miterlimit="23.8"/>
<path d="M16.3306 35.6624L17.0929 34.6354L16.5137 34.0861L15.7497 35.1148C15.4251 34.8501 15.074 34.6238 14.7045 34.4523V32.9294L14.0337 32.6847V34.2076C13.6575 34.1078 13.298 34.0778 12.9684 34.1094L12.2228 32.5249L11.6402 32.6431L12.3892 34.2376C11.5454 34.5439 10.9961 35.3378 10.9961 36.458L11.6669 36.7026C11.6669 35.213 12.8786 34.4423 14.3682 34.9849C15.8579 35.5275 17.0696 37.1803 17.0696 38.67L17.7404 38.9147C17.7404 37.7878 17.1828 36.5878 16.3306 35.664V35.6624Z" fill="#13203D" stroke="#E9ECFF" stroke-width="0.0800021" stroke-miterlimit="23.8"/>
<path d="M14.3647 39.317C13.4659 38.9908 12.7352 37.9921 12.7352 37.095C12.7352 36.1978 13.4659 35.7318 14.3647 36.058C15.2635 36.3859 15.9942 37.3829 15.9942 38.2801C15.9942 39.1772 15.2635 39.6432 14.3647 39.317ZM14.3647 35.3873C13.0964 34.9262 12.0645 35.582 12.0645 36.8503C12.0645 38.0038 12.92 39.2704 14.0285 39.838V41.3626L14.6959 41.6073V40.081C15.8078 40.3223 16.6633 39.6782 16.6633 38.5231C16.6633 37.2548 15.6313 35.8483 14.363 35.3856L14.3647 35.3873Z" fill="#13203D" stroke="#E9ECFF" stroke-width="0.0800021" stroke-miterlimit="23.8"/>
<path d="M16.3267 35.6721L17.089 34.6452L16.5098 34.0959L15.7458 35.1245C15.4212 34.8599 15.07 34.6335 14.7005 34.4621V32.9391L14.0298 32.6945V34.2174C13.6536 34.1175 13.2941 34.0876 12.9645 34.1192L12.2189 32.5347L11.6363 32.6528L12.3853 34.2474C11.5414 34.5536 10.9922 35.3476 10.9922 36.4677L11.663 36.7124C11.663 35.2227 12.8747 34.4521 14.3643 34.9947C15.854 35.5373 17.0657 37.1901 17.0657 38.6798L17.7365 38.9244C17.7365 37.7976 17.1789 36.5975 16.3267 35.6738V35.6721Z" fill="#13203D" stroke="#E9ECFF" stroke-width="0.0800021" stroke-miterlimit="23.8"/>
<path d="M14.3579 39.3238C13.4591 38.9976 12.7284 37.9989 12.7284 37.1018C12.7284 36.2047 13.4591 35.7386 14.3579 36.0649C15.2567 36.3928 15.9873 37.3898 15.9873 38.2869C15.9873 39.184 15.2567 39.6501 14.3579 39.3238ZM14.3579 35.3941C13.0896 34.9331 12.0576 35.5888 12.0576 36.8571C12.0576 38.0106 12.9131 39.2772 14.0216 39.8448V41.3694L14.6891 41.6141V40.0878C15.8009 40.3291 16.6564 39.685 16.6564 38.5299C16.6564 37.2616 15.6245 35.8552 14.3562 35.3924L14.3579 35.3941Z" fill="#13203D" stroke="#E9ECFF" stroke-width="0.0800021" stroke-miterlimit="23.8"/>
<path d="M16.3208 35.6765L17.0831 34.6496L16.5039 34.1003L15.7399 35.1289C15.4154 34.8643 15.0642 34.6379 14.6947 34.4665V32.9435L14.0239 32.6988V34.2218C13.6478 34.1219 13.2882 34.092 12.9587 34.1236L12.213 32.5391L11.6305 32.6572L12.3795 34.2518C11.5356 34.558 10.9863 35.352 10.9863 36.4721L11.6571 36.7168C11.6571 35.2271 12.8688 34.4565 14.3585 34.9991C15.8481 35.5417 17.0598 37.1945 17.0598 38.6841L17.7306 38.9288C17.7306 37.802 17.173 36.6019 16.3208 35.6782V35.6765Z" fill="#13203D" stroke="#E9ECFF" stroke-width="0.0800021" stroke-miterlimit="23.8"/>
<path d="M14.3491 39.3273C13.4503 39.001 12.7196 38.0024 12.7196 37.1052C12.7196 36.2081 13.4503 35.7421 14.3491 36.0683C15.2479 36.3962 15.9786 37.3932 15.9786 38.2903C15.9786 39.1874 15.2479 39.6535 14.3491 39.3273ZM14.3491 35.3975C13.0808 34.9365 12.0488 35.5923 12.0488 36.8606C12.0488 38.014 12.9043 39.2806 14.0129 39.8482V41.3728L14.6803 41.6175V40.0912C15.7921 40.3326 16.6477 39.6884 16.6477 38.5333C16.6477 37.265 15.6157 35.8586 14.3474 35.3959L14.3491 35.3975Z" fill="#13203D" stroke="#E9ECFF" stroke-width="0.0800021" stroke-miterlimit="23.8"/>
<path d="M16.312 35.6829L17.0744 34.6559L16.4951 34.1066L15.7312 35.1353C15.4066 34.8706 15.0554 34.6443 14.6859 34.4728V32.9499L14.0151 32.7052V34.2282C13.639 34.1283 13.2794 34.0983 12.9499 34.13L12.2042 32.5454L11.6217 32.6636L12.3707 34.2581C11.5268 34.5644 10.9775 35.3583 10.9775 36.4785L11.6483 36.7231C11.6483 35.2335 12.86 34.4628 14.3497 35.0054C15.8393 35.548 17.0511 37.2008 17.0511 38.6905L17.7218 38.9352C17.7218 37.8083 17.1642 36.6083 16.312 35.6845V35.6829Z" fill="#13203D" stroke="#E9ECFF" stroke-width="0.0800021" stroke-miterlimit="23.8"/>
<path d="M14.3491 39.3316C13.4503 39.0054 12.7196 38.0068 12.7196 37.1096C12.7196 36.2125 13.4503 35.7465 14.3491 36.0727C15.2479 36.4006 15.9786 37.3976 15.9786 38.2947C15.9786 39.1918 15.2479 39.6579 14.3491 39.3316ZM14.3491 35.4019C13.0808 34.9409 12.0488 35.5967 12.0488 36.865C12.0488 38.0184 12.9043 39.285 14.0129 39.8526V41.3772L14.6803 41.6219V40.0956C15.7921 40.337 16.6477 39.6928 16.6477 38.5377C16.6477 37.2694 15.6157 35.863 14.3474 35.4003L14.3491 35.4019Z" fill="#13203D" stroke="#E9ECFF" stroke-width="0.0800021" stroke-miterlimit="23.8"/>
<path d="M16.3072 35.6843L17.0695 34.6574L16.4903 34.1081L15.7263 35.1367C15.4017 34.8721 15.0505 34.6457 14.681 34.4743V32.9513L14.0102 32.7067V34.2296C13.6341 34.1298 13.2746 34.0998 12.945 34.1314L12.1993 32.5469L11.6168 32.6651L12.3658 34.2596C11.5219 34.5658 10.9727 35.3598 10.9727 36.4799L11.6434 36.7246C11.6434 35.2349 12.8551 34.4643 14.3448 35.0069C15.8345 35.5495 17.0462 37.2023 17.0462 38.692L17.7169 38.9366C17.7169 37.8098 17.1594 36.6098 16.3072 35.686V35.6843Z" fill="#13203D" stroke="#E9ECFF" stroke-width="0.0800021" stroke-miterlimit="23.8"/>
<path d="M14.3354 39.3385C13.4366 39.0123 12.7059 38.0136 12.7059 37.1165C12.7059 36.2193 13.4366 35.7533 14.3354 36.0795C15.2342 36.4074 15.9649 37.4044 15.9649 38.3015C15.9649 39.1987 15.2342 39.6647 14.3354 39.3385ZM14.3354 35.4088C13.0671 34.9477 12.0352 35.6035 12.0352 36.8718C12.0352 38.0252 12.8907 39.2919 13.9992 39.8594V41.3841L14.6666 41.6287V40.1025C15.7785 40.3438 16.634 39.6997 16.634 38.5445C16.634 37.2762 15.602 35.8698 14.3337 35.4071L14.3354 35.4088Z" fill="#13203D" stroke="#E9ECFF" stroke-width="0.0800021" stroke-miterlimit="23.8"/>
<path d="M16.2974 35.6912L17.0597 34.6642L16.4805 34.1149L15.7165 35.1436C15.3919 34.8789 15.0408 34.6526 14.6712 34.4811V32.9582L14.0005 32.7135V34.2365C13.6243 34.1366 13.2648 34.1066 12.9352 34.1383L12.1896 32.5537L11.607 32.6719L12.356 34.2664C11.5122 34.5727 10.9629 35.3666 10.9629 36.4868L11.6337 36.7314C11.6337 35.2418 12.8454 34.4711 14.335 35.0137C15.8247 35.5563 17.0364 37.2091 17.0364 38.6988L17.7072 38.9435C17.7072 37.8166 17.1496 36.6166 16.2974 35.6928V35.6912Z" fill="#13203D" stroke="#E9ECFF" stroke-width="0.0800021" stroke-miterlimit="23.8"/>
<path d="M14.3315 39.3463C13.4327 39.0201 12.702 38.0214 12.702 37.1243C12.702 36.2271 13.4327 35.7611 14.3315 36.0873C15.2303 36.4152 15.961 37.4122 15.961 38.3094C15.961 39.2065 15.2303 39.6725 14.3315 39.3463ZM14.3315 35.4166C13.0632 34.9555 12.0312 35.6113 12.0312 36.8796C12.0312 38.0331 12.8868 39.2997 13.9953 39.8673V41.3919L14.6627 41.6366V40.1103C15.7746 40.3516 16.6301 39.7075 16.6301 38.5524C16.6301 37.2841 15.5981 35.8776 14.3298 35.4149L14.3315 35.4166Z" fill="#13203D" stroke="#E9ECFF" stroke-width="0.0800021" stroke-miterlimit="23.8"/>
<path d="M16.2906 35.6985L17.0529 34.6715L16.4736 34.1223L15.7097 35.1509C15.3851 34.8862 15.0339 34.6599 14.6644 34.4884V32.9655L13.9936 32.7208V34.2438C13.6175 34.1439 13.258 34.114 12.9284 34.1456L12.1827 32.561L11.6002 32.6792L12.3492 34.2737C11.5053 34.58 10.9561 35.3739 10.9561 36.4941L11.6268 36.7388C11.6268 35.2491 12.8385 34.4785 14.3282 35.0211C15.8179 35.5637 17.0296 37.2165 17.0296 38.7061L17.7003 38.9508C17.7003 37.824 17.1428 36.6239 16.2906 35.7002V35.6985Z" fill="#13203D" stroke="#E9ECFF" stroke-width="0.0800021" stroke-miterlimit="23.8"/>
<path d="M14.3198 39.3551C13.421 39.0289 12.6903 38.0302 12.6903 37.1331C12.6903 36.2359 13.421 35.7699 14.3198 36.0961C15.2186 36.424 15.9493 37.421 15.9493 38.3181C15.9493 39.2153 15.2186 39.6813 14.3198 39.3551ZM14.3198 35.4254C13.0515 34.9643 12.0195 35.6201 12.0195 36.8884C12.0195 38.0418 12.8751 39.3085 13.9836 39.876V41.4007L14.651 41.6453V40.1191C15.7628 40.3604 16.6184 39.7163 16.6184 38.5611C16.6184 37.2929 15.5864 35.8864 14.3181 35.4237L14.3198 35.4254Z" fill="#13203D" stroke="#E9ECFF" stroke-width="0.0800021" stroke-miterlimit="23.8"/>
<path d="M16.2837 35.7048L17.046 34.6779L16.4668 34.1286L15.7028 35.1572C15.3783 34.8926 15.0271 34.6662 14.6576 34.4948V32.9718L13.9868 32.7272V34.2501C13.6106 34.1503 13.2511 34.1203 12.9216 34.1519L12.1759 32.5674L11.5934 32.6856L12.3423 34.2801C11.4985 34.5863 10.9492 35.3803 10.9492 36.5004L11.62 36.7451C11.62 35.2554 12.8317 34.4848 14.3214 35.0274C15.811 35.57 17.0227 37.2228 17.0227 38.7125L17.6935 38.9571C17.6935 37.8303 17.1359 36.6303 16.2837 35.7065V35.7048Z" fill="#13203D" stroke="#E9ECFF" stroke-width="0.0800021" stroke-miterlimit="23.8"/>
<path d="M14.3178 39.3556C13.419 39.0293 12.6883 38.0307 12.6883 37.1336C12.6883 36.2364 13.419 35.7704 14.3178 36.0966C15.2166 36.4245 15.9473 37.4215 15.9473 38.3186C15.9473 39.2158 15.2166 39.6818 14.3178 39.3556ZM14.3178 35.4258C13.0495 34.9648 12.0176 35.6206 12.0176 36.8889C12.0176 38.0423 12.8731 39.309 13.9816 39.8765V41.4012L14.649 41.6458V40.1195C15.7609 40.3609 16.6164 39.7168 16.6164 38.5616C16.6164 37.2933 15.5845 35.8869 14.3162 35.4242L14.3178 35.4258Z" fill="#13203D" stroke="#E9ECFF" stroke-width="0.0800021" stroke-miterlimit="23.8"/>
<path d="M16.2759 35.7087L17.0382 34.6818L16.459 34.1325L15.695 35.1611C15.3705 34.8965 15.0193 34.6701 14.6498 34.4987V32.9757L13.979 32.7311V34.254C13.6028 34.1542 13.2433 34.1242 12.9138 34.1558L12.1681 32.5713L11.5855 32.6895L12.3345 34.284C11.4907 34.5902 10.9414 35.3842 10.9414 36.5043L11.6122 36.749C11.6122 35.2593 12.8239 34.4887 14.3135 35.0313C15.8032 35.5739 17.0149 37.2267 17.0149 38.7164L17.6857 38.961C17.6857 37.8342 17.1281 36.6342 16.2759 35.7104V35.7087Z" fill="#13203D" stroke="#E9ECFF" stroke-width="0.0800021" stroke-miterlimit="23.8"/>
<path d="M14.309 39.3639C13.4102 39.0376 12.6796 38.039 12.6796 37.1419C12.6796 36.2447 13.4102 35.7787 14.309 36.1049C15.2078 36.4328 15.9385 37.4298 15.9385 38.3269C15.9385 39.2241 15.2078 39.6901 14.309 39.3639ZM14.309 35.4341C13.0407 34.9731 12.0088 35.6289 12.0088 36.8972C12.0088 38.0506 12.8643 39.3173 13.9728 39.8848V41.4095L14.6403 41.6541V40.1278C15.7521 40.3692 16.6076 39.7251 16.6076 38.5699C16.6076 37.3016 15.5757 35.8952 14.3074 35.4325L14.309 35.4341Z" fill="#13203D" stroke="#E9ECFF" stroke-width="0.0800021" stroke-miterlimit="23.8"/>
<path d="M16.2701 35.7161L17.0324 34.6891L16.4531 34.1398L15.6892 35.1685C15.3646 34.9038 15.0134 34.6775 14.6439 34.506V32.9831L13.9731 32.7384V34.2614C13.597 34.1615 13.2375 34.1315 12.9079 34.1632L12.1622 32.5786L11.5797 32.6968L12.3287 34.2913C11.4848 34.5976 10.9355 35.3915 10.9355 36.5117L11.6063 36.7563C11.6063 35.2667 12.818 34.496 14.3077 35.0386C15.7974 35.5813 17.0091 37.234 17.0091 38.7237L17.6798 38.9684C17.6798 37.8416 17.1222 36.6415 16.2701 35.7177V35.7161Z" fill="#13203D" stroke="#E9ECFF" stroke-width="0.0800021" stroke-miterlimit="23.8"/>
<path d="M14.3022 39.3648C13.4034 39.0386 12.6727 38.04 12.6727 37.1428C12.6727 36.2457 13.4034 35.7797 14.3022 36.1059C15.201 36.4338 15.9317 37.4308 15.9317 38.3279C15.9317 39.225 15.201 39.6911 14.3022 39.3648ZM14.3022 35.4351C13.0339 34.9741 12.002 35.6299 12.002 36.8982C12.002 38.0516 12.8575 39.3182 13.966 39.8858V41.4104L14.6334 41.6551V40.1288C15.7453 40.3702 16.6008 39.726 16.6008 38.5709C16.6008 37.3026 15.5688 35.8962 14.3005 35.4335L14.3022 35.4351Z" fill="#13203D" stroke="#E9ECFF" stroke-width="0.0800021" stroke-miterlimit="23.8"/>
<path d="M16.2603 35.7205L17.0226 34.6935L16.4434 34.1442L15.6794 35.1729C15.3548 34.9082 15.0036 34.6819 14.6341 34.5104V32.9875L13.9634 32.7428V34.2657C13.5872 34.1659 13.2277 34.1359 12.8981 34.1675L12.1525 32.583L11.5699 32.7012L12.3189 34.2957C11.475 34.602 10.9258 35.3959 10.9258 36.5161L11.5965 36.7607C11.5965 35.2711 12.8083 34.5004 14.2979 35.043C15.7876 35.5856 16.9993 37.2384 16.9993 38.7281L17.6701 38.9728C17.6701 37.8459 17.1125 36.6459 16.2603 35.7221V35.7205Z" fill="#13203D" stroke="#E9ECFF" stroke-width="0.0800021" stroke-miterlimit="23.8"/>
<path d="M14.2944 39.3712C13.3956 39.045 12.6649 38.0463 12.6649 37.1492C12.6649 36.252 13.3956 35.786 14.2944 36.1122C15.1932 36.4401 15.9239 37.4371 15.9239 38.3343C15.9239 39.2314 15.1932 39.6974 14.2944 39.3712ZM14.2944 35.4415C13.0261 34.9804 11.9941 35.6362 11.9941 36.9045C11.9941 38.058 12.8497 39.3246 13.9582 39.8922V41.4168L14.6256 41.6615V40.1352C15.7375 40.3765 16.593 39.7324 16.593 38.5773C16.593 37.309 15.561 35.9025 14.2927 35.4398L14.2944 35.4415Z" fill="#13203D" stroke="#E9ECFF" stroke-width="0.0800021" stroke-miterlimit="23.8"/>
<path d="M16.2574 35.7244L17.0197 34.6974L16.4404 34.1482L15.6765 35.1768C15.3519 34.9121 15.0007 34.6858 14.6312 34.5143V32.9914L13.9604 32.7467V34.2697C13.5843 34.1698 13.2248 34.1398 12.8952 34.1715L12.1495 32.5869L11.567 32.7051L12.316 34.2996C11.4721 34.6059 10.9229 35.3998 10.9229 36.52L11.5936 36.7646C11.5936 35.275 12.8053 34.5043 14.295 35.0469C15.7847 35.5896 16.9964 37.2423 16.9964 38.732L17.6671 38.9767C17.6671 37.8499 17.1095 36.6498 16.2574 35.726V35.7244Z" fill="#13203D" stroke="#E9ECFF" stroke-width="0.0800021" stroke-miterlimit="23.8"/>
<path d="M14.2905 39.3746C13.3917 39.0484 12.661 38.0497 12.661 37.1526C12.661 36.2555 13.3917 35.7894 14.2905 36.1157C15.1893 36.4435 15.92 37.4405 15.92 38.3377C15.92 39.2348 15.1893 39.7008 14.2905 39.3746ZM14.2905 35.4449C13.0222 34.9838 11.9902 35.6396 11.9902 36.9079C11.9902 38.0614 12.8458 39.328 13.9543 39.8956V41.4202L14.6217 41.6649V40.1386C15.7335 40.3799 16.5891 39.7358 16.5891 38.5807C16.5891 37.3124 15.5571 35.9059 14.2888 35.4432L14.2905 35.4449Z" fill="#13203D" stroke="#E9ECFF" stroke-width="0.0800021" stroke-miterlimit="23.8"/>
<path d="M16.2486 35.7273L17.0109 34.7003L16.4317 34.1511L15.6677 35.1797C15.3431 34.9151 14.9919 34.6887 14.6224 34.5173V32.9943L13.9517 32.7496V34.2726C13.5755 34.1727 13.216 34.1428 12.8864 34.1744L12.1408 32.5898L11.5582 32.708L12.3072 34.3025C11.4633 34.6088 10.9141 35.4027 10.9141 36.5229L11.5848 36.7676C11.5848 35.2779 12.7965 34.5073 14.2862 35.0499C15.7759 35.5925 16.9876 37.2453 16.9876 38.7349L17.6583 38.9796C17.6583 37.8528 17.1008 36.6527 16.2486 35.729V35.7273Z" fill="#13203D" stroke="#E9ECFF" stroke-width="0.0800021" stroke-miterlimit="23.8"/>
<path d="M14.2817 39.3883C13.3829 39.0621 12.6522 38.0634 12.6522 37.1663C12.6522 36.2691 13.3829 35.8031 14.2817 36.1293C15.1805 36.4572 15.9112 37.4542 15.9112 38.3513C15.9112 39.2485 15.1805 39.7145 14.2817 39.3883ZM14.2817 35.4586C13.0134 34.9975 11.9814 35.6533 11.9814 36.9216C11.9814 38.075 12.837 39.3417 13.9455 39.9093V41.4339L14.6129 41.6785V40.1523C15.7248 40.3936 16.5803 39.7495 16.5803 38.5944C16.5803 37.3261 15.5483 35.9196 14.28 35.4569L14.2817 35.4586Z" fill="#13203D" stroke="#E9ECFF" stroke-width="0.0800021" stroke-miterlimit="23.8"/>
<path d="M16.2427 35.7385L17.005 34.7116L16.4258 34.1623L15.6618 35.1909C15.3373 34.9263 14.9861 34.6999 14.6166 34.5285V33.0055L13.9458 32.7609V34.2838C13.5696 34.184 13.2101 34.154 12.8806 34.1856L12.1349 32.6011L11.5523 32.7193L12.3013 34.3138C11.4575 34.62 10.9082 35.414 10.9082 36.5341L11.579 36.7788C11.579 35.2891 12.7907 34.5185 14.2803 35.0611C15.77 35.6037 16.9817 37.2565 16.9817 38.7462L17.6525 38.9908C17.6525 37.864 17.0949 36.664 16.2427 35.7402V35.7385Z" fill="#13203D" stroke="#E9ECFF" stroke-width="0.0800021" stroke-miterlimit="23.8"/>
<path d="M14.2768 39.3917C13.378 39.0655 12.6473 38.0668 12.6473 37.1697C12.6473 36.2726 13.378 35.8065 14.2768 36.1327C15.1756 36.4606 15.9063 37.4576 15.9063 38.3548C15.9063 39.2519 15.1756 39.7179 14.2768 39.3917ZM14.2768 35.462C13.0085 35.0009 11.9766 35.6567 11.9766 36.925C11.9766 38.0785 12.8321 39.3451 13.9406 39.9127V41.4373L14.608 41.682V40.1557C15.7199 40.397 16.5754 39.7529 16.5754 38.5978C16.5754 37.3295 15.5434 35.923 14.2751 35.4603L14.2768 35.462Z" fill="#13203D" stroke="#E9ECFF" stroke-width="0.0800021" stroke-miterlimit="23.8"/>
<path d="M16.2349 35.7449L16.9972 34.7179L16.418 34.1687L15.654 35.1973C15.3294 34.9326 14.9783 34.7063 14.6087 34.5348V33.0119L13.938 32.7672V34.2902C13.5618 34.1903 13.2023 34.1603 12.8727 34.192L12.1271 32.6074L11.5445 32.7256L12.2935 34.3201C11.4497 34.6264 10.9004 35.4203 10.9004 36.5405L11.5712 36.7851C11.5712 35.2955 12.7829 34.5248 14.2725 35.0675C15.7622 35.6101 16.9739 37.2628 16.9739 38.7525L17.6447 38.9972C17.6447 37.8704 17.0871 36.6703 16.2349 35.7465V35.7449Z" fill="#13203D" stroke="#E9ECFF" stroke-width="0.0800021" stroke-miterlimit="23.8"/>
<path d="M14.2641 39.3932C13.3653 39.0669 12.6346 38.0683 12.6346 37.1711C12.6346 36.274 13.3653 35.808 14.2641 36.1342C15.1629 36.4621 15.8936 37.4591 15.8936 38.3562C15.8936 39.2534 15.1629 39.7194 14.2641 39.3932ZM14.2641 35.4634C12.9958 35.0024 11.9639 35.6582 11.9639 36.9265C11.9639 38.0799 12.8194 39.3466 13.9279 39.9141V41.4388L14.5953 41.6834V40.1571C15.7072 40.3985 16.5627 39.7543 16.5627 38.5992C16.5627 37.3309 15.5307 35.9245 14.2624 35.4618L14.2641 35.4634Z" fill="#13203D" stroke="#E9ECFF" stroke-width="0.0800021" stroke-miterlimit="23.8"/>
<path d="M16.2281 35.7459L16.9904 34.7189L16.4111 34.1696L15.6472 35.1983C15.3226 34.9336 14.9714 34.7072 14.6019 34.5358V33.0129L13.9311 32.7682V34.2911C13.555 34.1913 13.1955 34.1613 12.8659 34.1929L12.1202 32.6084L11.5377 32.7266L12.2867 34.3211C11.4428 34.6274 10.8936 35.4213 10.8936 36.5415L11.5643 36.7861C11.5643 35.2965 12.776 34.5258 14.2657 35.0684C15.7554 35.611 16.9671 37.2638 16.9671 38.7535L17.6378 38.9982C17.6378 37.8713 17.0803 36.6713 16.2281 35.7475V35.7459Z" fill="#13203D" stroke="#E9ECFF" stroke-width="0.0800021" stroke-miterlimit="23.8"/>
</svg>
