<svg width="16" height="16" viewBox="0 0 16 16" fill="none" xmlns="http://www.w3.org/2000/svg">
<path d="M3.50247 12.3557C2.96004 11.8133 3.31981 10.6745 3.04372 10.0072C2.75751 9.31547 1.70728 8.75873 1.70728 8.02174C1.70728 7.28475 2.75751 6.72803 3.04372 6.0363C3.31982 5.36902 2.96004 4.23021 3.50247 3.68777C4.0449 3.14534 5.18372 3.50511 5.85101 3.22902C6.54275 2.94281 7.09949 1.89258 7.83648 1.89258C8.57346 1.89258 9.13018 2.94282 9.82191 3.22902C10.4892 3.50512 11.628 3.14534 12.1704 3.68777C12.7129 4.23021 12.3531 5.36902 12.6292 6.03631C12.9154 6.72805 13.9656 7.28479 13.9656 8.02178C13.9656 8.75876 12.9154 9.31549 12.6292 10.0072C12.3531 10.6745 12.7129 11.8133 12.1704 12.3557C11.628 12.8982 10.4892 12.5384 9.8219 12.8145C9.13017 13.1007 8.57343 14.1509 7.83643 14.1509C7.09945 14.1509 6.54273 13.1007 5.851 12.8145C5.18371 12.5384 4.0449 12.8982 3.50247 12.3557Z" stroke="#E2C488" stroke-width="0.961992" stroke-linecap="round" stroke-linejoin="round"/>
<path d="M7.83667 5.19336V8.49369" stroke="#E2C488" stroke-width="0.961992" stroke-linecap="round" stroke-linejoin="round"/>
<path d="M7.83661 11.3226C8.22719 11.3226 8.54382 11.006 8.54382 10.6154C8.54382 10.2248 8.22719 9.9082 7.83661 9.9082C7.44602 9.9082 7.12939 10.2248 7.12939 10.6154C7.12939 11.006 7.44602 11.3226 7.83661 11.3226Z" fill="#E2C488"/>
</svg>
