<svg width="40" height="40" viewBox="0 0 40 40" fill="none" xmlns="http://www.w3.org/2000/svg">
<path fill-rule="evenodd" clip-rule="evenodd" d="M4.11717 17.9107H9.69325C10.5257 12.7768 14.9792 8.85714 20.3482 8.85714H31.5069C28.5951 5.85085 24.5158 3.98214 20 3.98214C11.8617 3.98214 5.14093 10.0515 4.11717 17.9107ZM34.0706 12.3393H20.3482C16.9096 12.3393 14.0253 14.7127 13.2443 17.9107H35.8828C35.6228 15.9148 34.9954 14.0343 34.0706 12.3393ZM35.9581 21.3929H13.2443C14.0253 24.5909 16.9096 26.9643 20.3482 26.9643H34.4287C35.2555 25.2544 35.7874 23.3752 35.9581 21.3929ZM32.143 30.4464H20.3482C14.9792 30.4464 10.5257 26.5267 9.69325 21.3929H4.04186C4.7477 29.5871 11.6229 36.0179 20 36.0179C24.855 36.0179 29.2055 33.8579 32.143 30.4464ZM0.5 20C0.5 9.23045 9.23045 0.5 20 0.5C30.7696 0.5 39.5 9.23045 39.5 20C39.5 30.7696 30.7696 39.5 20 39.5C9.23045 39.5 0.5 30.7696 0.5 20Z" fill="white"/>
</svg>
