<svg width="126" height="131" viewBox="0 0 126 131" fill="none" xmlns="http://www.w3.org/2000/svg">
<g clip-path="url(#clip0_527_3536)">
<path fill-rule="evenodd" clip-rule="evenodd" d="M10.2601 126.829C66.7671 115.932 92.2796 61.7236 96.3651 6.02446C96.437 5.06793 97.2401 4.35048 98.159 4.4284C99.0779 4.50632 99.7695 5.34471 99.6976 6.30123C95.5008 63.5606 68.9668 119.049 10.8765 130.25C9.9719 130.427 9.09889 129.802 8.92638 128.855C8.75405 127.913 9.35129 127.006 10.2601 126.829Z" fill="white"/>
<path fill-rule="evenodd" clip-rule="evenodd" d="M97.9555 7.20865C96.3212 9.74319 94.3039 12.9477 94.0648 13.3044C87.5846 22.97 80.0084 31.0661 71.0301 38.286C70.3021 38.8729 69.2497 38.7299 68.6837 37.97C68.1176 37.2101 68.2517 36.1149 68.9797 35.528C77.6882 28.5298 85.0378 20.68 91.3226 11.3034C91.6893 10.7571 96.2197 3.55046 97.2412 2.16524C97.6575 1.59502 98.0637 1.40768 98.1637 1.37296C98.6873 1.16767 99.1088 1.26083 99.4181 1.39802C99.7662 1.55566 100.28 1.96151 100.566 2.77645C100.861 3.63055 101.055 5.5479 101.142 6.02791C102.466 13.2666 103.339 21.4636 105.624 28.8665C107.802 35.9263 111.269 42.2715 117.868 46.168C118.672 46.6416 118.954 47.7071 118.502 48.5425C118.05 49.3778 117.027 49.6689 116.224 49.1953C108.847 44.8373 104.876 37.813 102.441 29.9239C100.171 22.5644 99.2504 14.4441 97.9555 7.20865Z" fill="white"/>
</g>
<defs>
<clipPath id="clip0_527_3536">
<rect width="126" height="121" fill="white" transform="matrix(0.0395202 0.999219 0.999219 -0.0395202 0 5.09766)"/>
</clipPath>
</defs>
</svg>
