<svg width="125" height="21" viewBox="0 0 125 21" fill="none" xmlns="http://www.w3.org/2000/svg">
<path d="M100.701 15.8052C101.372 15.8052 102.027 15.7819 102.666 15.7354C103.306 15.6896 103.887 15.6293 104.412 15.5557C104.935 15.4815 105.396 15.4123 105.795 15.3477C106.191 15.2829 106.496 15.2226 106.707 15.1673V6.12724C106.707 5.36986 106.603 4.66783 106.391 4.02047C106.182 3.37359 105.846 2.81418 105.387 2.3428C104.924 1.87067 104.321 1.50115 103.578 1.23337C102.834 0.965599 101.927 0.831055 100.859 0.831055C99.8108 0.831055 98.9145 0.896448 98.1704 1.02526C97.4262 1.15483 96.8756 1.29303 96.5205 1.44073L96.8033 3.02154C97.0758 2.92918 97.5061 2.80976 98.0914 2.6614C98.6796 2.51371 99.5694 2.43957 100.764 2.43957C101.602 2.43957 102.278 2.55458 102.792 2.78599C103.306 3.01787 103.704 3.32276 103.988 3.70168C104.269 4.08013 104.453 4.505 104.537 4.97713C104.608 5.38001 104.643 5.79548 104.654 6.21913H104.662V6.41343C104.662 6.42029 104.664 6.42592 104.664 6.43288V7.32029H104.662V8.90062H104.664V13.9473C104.244 14.0214 103.735 14.0817 103.138 14.1276C102.541 14.1741 101.843 14.1968 101.046 14.1968C100.398 14.1968 99.8155 14.1458 99.3016 14.0439C98.7895 13.9428 98.3479 13.7813 97.9815 13.5594C97.6151 13.3375 97.3313 13.0421 97.1331 12.6712C96.933 12.3016 96.8343 11.8498 96.8343 11.3129C96.8343 10.7026 96.9809 10.2137 97.274 9.84337C97.5672 9.47375 97.9449 9.18221 98.4071 8.96958C98.8666 8.75724 99.3702 8.61894 99.9151 8.55345C100.461 8.48947 100.985 8.45743 101.488 8.45743C101.883 8.45743 102.235 8.46871 102.553 8.48947V6.95452C102.527 6.95264 102.503 6.94822 102.477 6.94569C102.152 6.91731 101.843 6.9035 101.55 6.9035C100.566 6.9035 99.6539 6.98722 98.8149 7.1537C97.9768 7.32029 97.2533 7.58364 96.6455 7.94378C96.0385 8.30475 95.5659 8.76157 95.2305 9.31666C94.896 9.87099 94.7278 10.5361 94.7278 11.3129C94.7278 12.1269 94.88 12.8152 95.1835 13.3784C95.486 13.9428 95.907 14.4048 96.4416 14.7656C96.9762 15.1257 97.6038 15.3891 98.3272 15.5557C99.0507 15.7216 99.8428 15.8052 100.701 15.8052ZM48.792 15.8052C49.4609 15.8052 50.1167 15.7819 50.7556 15.7354C51.3955 15.6896 51.9771 15.6293 52.5013 15.5557C53.0247 15.4815 53.486 15.4123 53.8844 15.3477C54.2827 15.2829 54.5872 15.2226 54.7967 15.1673V6.12724C54.7967 5.36986 54.6924 4.66783 54.4829 4.02047C54.2733 3.37359 53.937 2.81418 53.4766 2.3428C53.0153 1.87067 52.4121 1.50115 51.668 1.23337C50.9238 0.965599 50.0181 0.831055 48.9489 0.831055C47.9003 0.831055 47.004 0.896448 46.2599 1.02526C45.5157 1.15483 44.9661 1.29303 44.61 1.44073L44.8919 3.02154C45.1644 2.92918 45.5947 2.80976 46.1819 2.6614C46.7682 2.51371 47.6589 2.43957 48.8531 2.43957C49.693 2.43957 50.3667 2.55458 50.8825 2.78599C51.3955 3.01787 51.7929 3.32276 52.0776 3.70168C52.3595 4.08013 52.5417 4.505 52.6282 4.97713C52.6996 5.38001 52.7325 5.79548 52.7438 6.21913H52.7531V13.9473C52.3332 14.0214 51.8267 14.0817 51.2283 14.1276C50.6307 14.1741 49.9335 14.1968 49.1377 14.1968C48.4866 14.1968 47.905 14.1458 47.392 14.0439C46.8781 13.9428 46.4374 13.7813 46.071 13.5594C45.7037 13.3375 45.4218 13.0421 45.2226 12.6712C45.0234 12.3016 44.9248 11.8498 44.9248 11.3129C44.9248 10.7026 45.0704 10.2137 45.3645 9.84337C45.6567 9.47375 46.0344 9.18221 46.4957 8.96958C46.958 8.75724 47.4606 8.61894 48.0046 8.55345C48.5505 8.48947 49.0738 8.45743 49.5765 8.45743C49.9721 8.45743 50.3225 8.46871 50.6429 8.48947V6.95452C50.6166 6.95264 50.594 6.94822 50.5668 6.94569C50.2417 6.91731 49.9335 6.9035 49.6404 6.9035C48.6548 6.9035 47.7425 6.98722 46.9053 7.1537C46.0663 7.32029 45.3438 7.58364 44.7359 7.94378C44.1271 8.30475 43.6554 8.76157 43.32 9.31666C42.9846 9.87099 42.8173 10.5361 42.8173 11.3129C42.8173 12.1269 42.9695 12.8152 43.273 13.3784C43.5774 13.9428 43.9965 14.4048 44.5301 14.7656C45.0648 15.1257 45.6952 15.3891 46.4168 15.5557C47.1402 15.7216 47.9313 15.8052 48.792 15.8052ZM23.835 15.8052C24.5049 15.8052 25.1598 15.7819 25.7996 15.7354C26.4385 15.6896 27.0206 15.6293 27.5449 15.5557C28.0677 15.4815 28.5305 15.4123 28.9279 15.3477C29.3258 15.2829 29.6302 15.2226 29.8397 15.1673V6.12724C29.8397 5.36986 29.735 4.66783 29.5264 4.02047C29.3159 3.37359 28.98 2.81418 28.5196 2.3428C28.0588 1.87067 27.4556 1.50115 26.7115 1.23337C25.9669 0.965599 25.0607 0.831055 23.9915 0.831055C22.9429 0.831055 22.0475 0.896448 21.3034 1.02526C20.5588 1.15483 20.0091 1.29303 19.6526 1.44073L19.9359 3.02154C20.2079 2.92918 20.6372 2.80976 21.2249 2.6614C21.8112 2.51371 22.7024 2.43957 23.8975 2.43957C24.7356 2.43957 25.4116 2.55458 25.9255 2.78599C26.4385 3.01787 26.8378 3.32276 27.1202 3.70168C27.4035 4.08013 27.5862 4.505 27.6708 4.97713C27.7417 5.38001 27.776 5.79548 27.7877 6.21913H27.7957L27.7962 6.4231L27.7967 6.43288V7.32029H27.7957V8.90062H27.7967V13.9473C27.3767 14.0214 26.8693 14.0817 26.2713 14.1276C25.6742 14.1741 24.977 14.1968 24.1808 14.1968C23.5306 14.1968 22.9485 14.1458 22.4355 14.0439C21.9216 13.9428 21.481 13.7813 21.1145 13.5594C20.7476 13.3375 20.4648 13.0421 20.2661 12.6712C20.0669 12.3016 19.9673 11.8498 19.9673 11.3129C19.9673 10.7026 20.1139 10.2137 20.4075 9.84337C20.7002 9.47375 21.0774 9.18221 21.5392 8.96958C22.0005 8.75724 22.5027 8.61894 23.0486 8.55345C23.5931 8.48947 24.1183 8.45743 24.621 8.45743C25.0146 8.45743 25.3665 8.46871 25.6859 8.48947V6.95452C25.6601 6.95264 25.6371 6.94822 25.6112 6.94569C25.2857 6.91731 24.977 6.9035 24.6834 6.9035C23.6978 6.9035 22.786 6.98722 21.9484 7.1537C21.1098 7.32029 20.3864 7.58364 19.7785 7.94378C19.1696 8.30475 18.6985 8.76157 18.363 9.31666C18.0281 9.87099 17.8604 10.5361 17.8604 11.3129C17.8604 12.1269 18.0126 12.8152 18.3161 13.3784C18.62 13.9428 19.0391 14.4048 19.5732 14.7656C20.1087 15.1257 20.7378 15.3891 21.4612 15.5557C22.1842 15.7216 22.9749 15.8052 23.835 15.8052ZM112.755 20.7966V14.7681C113.114 15.0116 113.688 15.2686 114.478 15.54C115.269 15.8101 116.203 15.9462 117.276 15.9462C118.457 15.9462 119.506 15.7592 120.423 15.3853C121.34 15.0116 122.114 14.493 122.747 13.8288C123.379 13.1652 123.86 12.3712 124.185 11.4451C124.512 10.5196 124.676 9.50579 124.676 8.40284C124.676 7.22502 124.48 6.16924 124.091 5.23429C123.7 4.29971 123.152 3.50531 122.448 2.85054C121.741 2.19651 120.896 1.69676 119.917 1.35035C118.937 1.0045 117.847 0.831055 116.645 0.831055C115.189 0.831055 113.989 0.915521 113.041 1.08408C112.092 1.25188 111.311 1.42993 110.7 1.61671V20.7966H112.755ZM34.9504 15.8052V2.93388C35.1243 2.85852 35.4879 2.76391 36.0413 2.64985C36.5942 2.53654 37.3266 2.47922 38.2389 2.47922C39.1066 2.47922 39.8061 2.52235 40.3388 2.60728C40.8701 2.69307 41.2224 2.77284 41.3963 2.84819L41.8186 1.25743C41.5799 1.16281 41.1525 1.06867 40.5338 0.973397C39.9151 0.87869 39.2588 0.831055 38.5635 0.831055C37.1969 0.831055 36.0352 0.940513 35.0796 1.15821C34.125 1.376 33.3762 1.58984 32.8346 1.79776V15.8052H34.9504ZM2.9454 20.7966V14.7681C3.3029 15.0116 3.87744 15.2686 4.66807 15.54C5.45871 15.8101 6.39122 15.9462 7.46607 15.9462C8.64662 15.9462 9.69564 15.7592 10.6126 15.3853C11.5301 15.0116 12.3048 14.493 12.9366 13.8288C13.569 13.1652 14.0486 12.3712 14.3751 11.4451C14.7025 10.5196 14.8655 9.50579 14.8655 8.40284C14.8655 7.22502 14.6706 6.16924 14.2811 5.23429C13.8903 4.29971 13.3425 3.50531 12.6369 2.85054C11.9299 2.19651 11.0871 1.69676 10.1072 1.35035C9.1258 1.0045 8.03591 0.831055 6.83422 0.831055C5.37979 0.831055 4.1781 0.915521 3.22914 1.08408C2.28066 1.25188 1.50083 1.42993 0.889648 1.61671V20.7966H2.9454ZM62.5884 15.8052C64.5023 15.8052 66.0122 15.4673 67.1171 14.7911C68.2201 14.1148 68.7726 13.1197 68.7726 11.8041C68.7726 11.11 68.6354 10.5326 68.3629 10.0714C68.0876 9.61102 67.7315 9.21772 67.29 8.88878C66.8474 8.55984 66.3363 8.27826 65.7604 8.0445C65.1807 7.8113 64.5756 7.58214 63.9451 7.35796C63.3354 7.13322 62.7942 6.92812 62.3197 6.7403C61.8471 6.55389 61.4469 6.35198 61.1208 6.13617C60.7939 5.91913 60.5477 5.66996 60.3805 5.38706C60.2104 5.10472 60.1268 4.76629 60.1268 4.37036C60.1268 4.34828 60.1296 1.74402 60.1315 1.01727L60.1324 0.831055H58.0569C58.0532 0.904152 58.0457 3.83801 58.0447 4.43275V4.53582C58.0447 5.15527 58.1706 5.68151 58.4234 6.11315C58.677 6.54562 59.0115 6.91656 59.4334 7.22633C59.8534 7.5362 60.3372 7.8082 60.8831 8.04318C61.4309 8.27826 62.0087 8.50817 62.6204 8.73357C63.3767 9.01515 64.0137 9.25925 64.5295 9.46605C65.0435 9.67237 65.4597 9.88885 65.7745 10.1142C66.0911 10.3397 66.3156 10.5927 66.4547 10.8748C66.59 11.1565 66.6586 11.4949 66.6586 11.8892C66.6586 12.7154 66.2743 13.3023 65.5067 13.6498C64.74 13.9979 63.7666 14.171 62.5884 14.171C61.9354 14.171 61.3623 14.1339 60.869 14.0585C60.3739 13.9838 59.9492 13.8937 59.5903 13.7909C59.2323 13.688 58.9486 13.5929 58.7391 13.5093C58.5286 13.4243 58.3914 13.3637 58.3285 13.326L57.791 14.9878C58.0447 15.1014 58.5493 15.2656 59.3075 15.4807C60.0638 15.6974 61.1575 15.8052 62.5884 15.8052ZM77.4701 15.8052C77.7961 15.1778 78.1409 14.4726 78.5036 13.6882C78.8643 12.9045 79.2383 12.0669 79.6216 11.1755C80.0059 10.2833 80.378 9.34588 80.7359 8.36169C81.0967 7.37892 81.4397 6.37265 81.7657 5.34337C82.0936 6.3703 82.4384 7.37394 82.7992 8.35558C83.16 9.33658 83.533 10.2729 83.9192 11.1637C84.3044 12.0553 84.6793 12.8923 85.0429 13.6754C85.4065 14.4585 85.755 15.1687 86.0867 15.8052H88.0645C89.1835 13.7704 90.2123 11.6191 91.1444 9.35011C92.0783 7.08173 92.9398 4.57443 93.7291 1.82933H91.6263C91.3858 2.78637 91.0852 3.81941 90.7225 4.92912C90.3608 6.03892 89.9699 7.13923 89.5546 8.22818C89.1356 9.3176 88.7203 10.3526 88.3022 11.3334C87.885 12.3151 87.4895 13.1472 87.1165 13.8316C86.6758 12.9303 86.2427 11.9659 85.8171 10.9377C85.3877 9.91008 84.9837 8.86914 84.6032 7.81581C84.2217 6.76125 83.8722 5.72567 83.5565 4.70795C83.2399 3.68956 82.9852 2.73065 82.7898 1.82933H80.9511C80.6909 2.72943 80.3977 3.68834 80.0717 4.70729C79.7438 5.72624 79.3961 6.75806 79.0269 7.8036C78.6576 8.84951 78.2621 9.88687 77.8412 10.9156C77.4202 11.9451 76.9993 12.9077 76.5803 13.804C76.2082 13.1196 75.807 12.29 75.3805 11.3158C74.9511 10.3421 74.5292 9.31027 74.1111 8.22019C73.694 7.13068 73.3031 6.03216 72.9423 4.92357C72.5797 3.8165 72.2762 2.78514 72.0347 1.82933H69.7704C70.5559 4.56945 71.4118 7.07563 72.3429 9.34635C73.2721 11.6166 74.2972 13.7698 75.4199 15.8052H77.4701ZM117.137 14.807C116.64 14.807 116.166 14.7637 115.713 14.6792C115.258 14.5941 114.836 14.4845 114.447 14.3516C114.057 14.2194 113.717 14.0775 113.426 13.9253C113.135 13.7737 112.891 13.6312 112.697 13.4982V3.22626C113.021 3.13146 113.503 3.04108 114.139 2.9553C114.777 2.87027 115.614 2.82761 116.651 2.82761C118.467 2.82761 119.924 3.34493 121.026 4.37872C122.13 5.41271 122.68 6.89674 122.68 8.83175C122.68 9.6471 122.583 10.421 122.388 11.1505C122.194 11.8813 121.88 12.516 121.448 13.057C121.017 13.5975 120.449 14.0245 119.747 14.3374C119.044 14.6501 118.175 14.807 117.137 14.807ZM7.32655 14.807C6.82858 14.807 6.35411 14.7637 5.9003 14.6792C5.44603 14.5941 5.0251 14.4845 4.63613 14.3516C4.24715 14.2194 3.90656 14.0775 3.6153 13.9253C3.32404 13.7737 3.08069 13.6312 2.88621 13.4982V3.22626C3.20941 3.13146 3.6914 3.04108 4.32842 2.9553C4.96591 2.87027 5.80306 2.82761 6.83939 2.82761C8.65508 2.82761 10.1137 3.34493 11.2149 4.37872C12.3175 5.41271 12.869 6.89674 12.869 8.83175C12.869 9.6471 12.7717 10.421 12.5773 11.1505C12.3828 11.8813 12.0694 12.516 11.6372 13.057C11.2041 13.5975 10.6375 14.0245 9.93523 14.3374C9.23244 14.6501 8.36288 14.807 7.32655 14.807Z" fill="white"/>
</svg>
