<svg width="76" height="64" viewBox="0 0 76 64" fill="none" xmlns="http://www.w3.org/2000/svg">
<path d="M75.7466 38.017H68.2659C68.2659 21.3865 54.735 7.85562 38.1046 7.85562C21.4741 7.85562 7.94325 21.3865 7.94325 38.017H0.462524C0.462524 17.2604 17.348 0.374878 38.1046 0.374878C58.8612 0.374878 75.7466 17.2604 75.7466 38.017Z" fill="#E2C488"/>
<path d="M38.1061 63.6251C23.946 63.6251 12.4286 52.1076 12.4286 37.9475C12.4286 23.7874 23.946 12.2699 38.1061 12.2699C52.2662 12.2699 63.7836 23.7874 63.7836 37.9475C63.7836 52.1076 52.2662 63.6251 38.1061 63.6251ZM38.1061 19.7506C28.0722 19.7506 19.9093 27.9135 19.9093 37.9475C19.9093 47.9814 28.0722 56.1443 38.1061 56.1443C48.14 56.1443 56.3029 47.9814 56.3029 37.9475C56.3029 27.9135 48.14 19.7506 38.1061 19.7506Z" fill="#E2C488"/>
</svg>
