<svg width="137" height="150" viewBox="0 0 137 150" fill="none" xmlns="http://www.w3.org/2000/svg">
<path d="M67.2768 145.377L6.99902 116.167V55.8442L67.2768 85.0498V145.377Z" fill="#E9ECFF" stroke="#13203D" stroke-width="0.450911" stroke-linecap="round" stroke-linejoin="round"/>
<path d="M62.6865 138.798L11.6523 114.07V63.0044L62.6865 87.7324V138.798Z" fill="#13203D" stroke="#E9ECFF" stroke-width="0.450911" stroke-linecap="round" stroke-linejoin="round"/>
<path d="M131.373 104.525L67.2988 145.418V85.0953L131.373 44.2021V104.525Z" fill="#E9ECFF" stroke="#13203D" stroke-width="0.450911" stroke-linecap="round" stroke-linejoin="round"/>
<path d="M125.728 103.172L72.9443 136.856V87.1651L125.728 53.4775V103.172Z" fill="#13203D" stroke="#E9ECFF" stroke-width="0.450911" stroke-linecap="round" stroke-linejoin="round"/>
<path d="M71.0735 14.9468L6.99902 55.8444L67.2813 85.0545L131.378 44.2019L71.0735 14.9468Z" fill="#E9ECFF" stroke="#13203D" stroke-width="0.450911" stroke-linecap="round" stroke-linejoin="round"/>
<path d="M70.1803 20.6191L16.4678 54.8974L66.9969 79.3819L120.723 45.1397L70.1758 20.6191H70.1803Z" fill="#13203D" stroke="#13203D" stroke-width="0.450911" stroke-linecap="round" stroke-linejoin="round"/>
<path d="M85.9939 39.918L84.0685 39.0342L53.0864 58.7074L55.0073 59.6183L85.9939 39.918Z" stroke="#E9ECFF" stroke-width="0.450911" stroke-linecap="round" stroke-linejoin="round"/>
<path d="M55.5212 19.8528L55.3589 59.3933L83.7167 41.3974V2.18164L55.5212 19.8528Z" fill="#E9ECFF" stroke="#13203D" stroke-width="0.450911" stroke-linecap="round" stroke-linejoin="round"/>
<path d="M5.93945 66.0439L13.1135 69.5205V76.1173L5.93945 72.5822V66.0439Z" fill="#13203D" stroke="#E9ECFF" stroke-width="0.450911" stroke-linecap="round" stroke-linejoin="round"/>
<path d="M6.94499 65.2373L14.119 68.7138L13.1135 69.521L5.93945 66.0444L6.94499 65.2373Z" fill="#13203D" stroke="#E9ECFF" stroke-width="0.450911" stroke-linecap="round" stroke-linejoin="round"/>
<path d="M13.1133 69.521V76.1178L14.1188 75.3107V68.7139L13.1133 69.521Z" fill="#13203D" stroke="#E9ECFF" stroke-width="0.450911" stroke-linecap="round" stroke-linejoin="round"/>
<path d="M5.93945 101.387L13.1135 104.863V111.46L5.93945 107.92V101.387Z" fill="#13203D" stroke="#E9ECFF" stroke-width="0.450911" stroke-linecap="round" stroke-linejoin="round"/>
<path d="M6.94499 100.579L14.119 104.056L13.1135 104.863L5.93945 101.386L6.94499 100.579Z" fill="#13203D" stroke="#E9ECFF" stroke-width="0.450911" stroke-linecap="round" stroke-linejoin="round"/>
<path d="M13.1133 104.863V111.46L14.1188 110.653V104.056L13.1133 104.863Z" fill="#13203D" stroke="#E9ECFF" stroke-width="0.450911" stroke-linecap="round" stroke-linejoin="round"/>
<path d="M60.1207 90.6317L67.5066 94.1353L74.6084 89.5811L75.5914 90.1943L67.5066 95.4519L59.1196 91.4388L60.1207 90.6317Z" fill="#13203D" stroke="#E9ECFF" stroke-width="0.450911" stroke-linecap="round" stroke-linejoin="round"/>
<path d="M67.5068 95.4525V102.054L75.5917 96.7962V90.1948L67.5068 95.4525Z" fill="#13203D" stroke="#E9ECFF" stroke-width="0.450911" stroke-linecap="round" stroke-linejoin="round"/>
<path d="M59.1196 91.439L67.5066 95.4521V102.053L59.1196 97.9772V91.439Z" fill="#13203D" stroke="#E9ECFF" stroke-width="0.450911" stroke-linecap="round" stroke-linejoin="round"/>
<path d="M60.1207 125.046L67.5066 128.549L74.6084 123.995L75.5914 124.608L67.5066 129.866L59.1196 125.853L60.1207 125.046Z" fill="#13203D" stroke="#E9ECFF" stroke-width="0.450911" stroke-linecap="round" stroke-linejoin="round"/>
<path d="M67.5068 129.866V136.463L75.5917 131.205V124.608L67.5068 129.866Z" fill="#13203D" stroke="#E9ECFF" stroke-width="0.450911" stroke-linecap="round" stroke-linejoin="round"/>
<path d="M59.1196 125.853L67.5066 129.866V136.463L59.1196 132.391V125.853Z" fill="#13203D" stroke="#E9ECFF" stroke-width="0.450911" stroke-linecap="round" stroke-linejoin="round"/>
<path d="M123.068 94.1755L131.455 88.8818L132.438 89.4951L124.353 94.7572L123.068 94.1755Z" fill="#13203D" stroke="#E9ECFF" stroke-width="0.450911" stroke-linecap="round" stroke-linejoin="round"/>
<path d="M124.353 94.7577V101.355L132.438 96.0969V89.4956L124.353 94.7577Z" fill="#13203D" stroke="#E9ECFF" stroke-width="0.450911" stroke-linecap="round" stroke-linejoin="round"/>
<path d="M124.353 94.7579V101.355L123.068 100.327V94.1763L124.353 94.7579Z" fill="#13203D" stroke="#E9ECFF" stroke-width="0.450911" stroke-linecap="round" stroke-linejoin="round"/>
<path d="M123.068 61.1334L131.455 55.8442L132.438 56.4575L124.353 61.7151L123.068 61.1334Z" fill="#13203D" stroke="#E9ECFF" stroke-width="0.450911" stroke-linecap="round" stroke-linejoin="round"/>
<path d="M124.353 61.7156V68.3125L132.438 63.0548V56.458L124.353 61.7156Z" fill="#13203D" stroke="#E9ECFF" stroke-width="0.450911" stroke-linecap="round" stroke-linejoin="round"/>
<path d="M124.353 61.715V68.3118L123.068 67.2882V61.1333L124.353 61.715Z" fill="#13203D" stroke="#E9ECFF" stroke-width="0.450911" stroke-linecap="round" stroke-linejoin="round"/>
<path d="M65.5899 38.5562C63.9531 35.0616 62.2802 31.4002 62.4155 27.5449L66.1987 34.4348C66.7533 35.4449 67.4702 36.5721 68.611 36.7255L68.3585 33.9343C68.3315 33.6232 68.3044 33.2985 68.4397 33.019C68.7238 32.4193 69.5264 32.3426 70.1892 32.275C72.8451 31.9999 75.3296 30.3992 76.6733 28.095C77.237 27.1301 77.5526 25.7773 76.7635 24.9882C76.0736 24.2983 74.8967 24.4426 74.031 24.8935C72.5655 25.6556 71.56 27.0624 70.6176 28.4197L62.145 40.5898C61.7482 41.1579 61.153 41.7982 60.4946 41.5908C64.2688 33.6457 70.843 27.4412 77.2685 21.4351C70.8566 26.2237 65.8064 32.8206 62.8619 40.2651C62.6049 40.9144 62.4155 41.7802 62.9656 42.2085C63.4436 42.5828 64.1425 42.3393 64.6836 42.0642C68.2548 40.2651 71.4382 37.7039 73.9633 34.6062C74.0806 34.4619 74.2023 34.2996 74.1753 34.1147C74.1482 33.9298 73.8777 33.8126 73.7785 33.9659C73.7785 34.7911 75.0996 34.9849 75.6452 34.3672C76.1909 33.7494 76.1548 32.8296 76.0916 32.0089C76.5651 32.7935 77.1242 33.6322 78.0035 33.8757C78.8828 34.1192 80.0236 33.2895 79.6809 32.4418" stroke="#E9ECFF" stroke-width="0.338183" stroke-linecap="round" stroke-linejoin="round"/>
<path d="M38.0885 105.314C35.6536 104.43 33.6741 101.724 33.6741 99.2941C33.6741 96.8637 35.6536 95.6011 38.0885 96.4849C40.5234 97.3732 42.5029 100.074 42.5029 102.505C42.5029 104.935 40.5234 106.198 38.0885 105.314ZM38.0885 94.6677C34.6526 93.4187 31.8569 95.1953 31.8569 98.6312C31.8569 101.756 34.1746 105.187 37.1777 106.725V110.855L38.9858 111.518V107.383C41.9979 108.037 44.3156 106.292 44.3156 103.163C44.3156 99.7269 41.52 95.9167 38.084 94.6632L38.0885 94.6677Z" fill="#13203D" stroke="#E9ECFF" stroke-width="0.225456" stroke-miterlimit="23.8"/>
<path d="M43.4004 95.4342L45.4656 92.6521L43.8964 91.1641L41.8268 93.9507C40.9475 93.2338 39.9961 92.6206 38.995 92.1561V88.0303L37.1779 87.3674V91.4933C36.1588 91.2227 35.1848 91.1416 34.292 91.2272L32.2719 86.9346L30.6938 87.2547L32.7229 91.5744C30.4367 92.4041 28.9487 94.555 28.9487 97.5896L30.7659 98.2524C30.7659 94.2168 34.0485 92.1291 38.0842 93.599C42.1198 95.069 45.4025 99.5466 45.4025 103.582L47.2197 104.245C47.2197 101.192 45.7091 97.9413 43.4004 95.4388V95.4342Z" fill="#13203D" stroke="#E9ECFF" stroke-width="0.225456" stroke-miterlimit="23.8"/>
<path d="M38.0705 105.327C35.6355 104.444 33.656 101.738 33.656 99.3077C33.656 96.8773 35.6355 95.6148 38.0705 96.4986C40.5054 97.3869 42.4849 100.088 42.4849 102.518C42.4849 104.949 40.5054 106.211 38.0705 105.327ZM38.0705 94.6814C34.6345 93.4324 31.8389 95.209 31.8389 98.6449C31.8389 101.77 34.1565 105.201 37.1596 106.739V110.869L38.9678 111.532V107.397C41.9799 108.051 44.2975 106.306 44.2975 103.177C44.2975 99.7406 41.5019 95.9304 38.0659 94.6769L38.0705 94.6814Z" fill="#13203D" stroke="#E9ECFF" stroke-width="0.225456" stroke-miterlimit="23.8"/>
<path d="M43.3824 95.4479L45.4475 92.6658L43.8784 91.1778L41.8087 93.9644C40.9294 93.2475 39.978 92.6342 38.977 92.1698V88.044L37.1598 87.3811V91.507C36.1407 91.2364 35.1668 91.1552 34.274 91.2409L32.2539 86.9482L30.6757 87.2684L32.7048 91.5881C30.4187 92.4178 28.9307 94.5686 28.9307 97.6033L30.7478 98.2661C30.7478 94.2305 34.0305 92.1427 38.0661 93.6127C42.1018 95.0827 45.3844 99.5602 45.3844 103.596L47.2016 104.259C47.2016 101.206 45.691 97.955 43.3824 95.4524V95.4479Z" fill="#13203D" stroke="#E9ECFF" stroke-width="0.225456" stroke-miterlimit="23.8"/>
<path d="M38.0529 105.34C35.618 104.456 33.6385 101.751 33.6385 99.3204C33.6385 96.89 35.618 95.6275 38.0529 96.5113C40.4878 97.3996 42.4673 100.101 42.4673 102.531C42.4673 104.961 40.4878 106.224 38.0529 105.34ZM38.0529 94.6941C34.6169 93.4451 31.8213 95.2217 31.8213 98.6576C31.8213 101.782 34.139 105.214 37.142 106.751V110.882L38.9502 111.545V107.41C41.9623 108.064 44.28 106.319 44.28 103.189C44.28 99.7533 41.4843 95.9431 38.0484 94.6896L38.0529 94.6941Z" fill="#13203D" stroke="#E9ECFF" stroke-width="0.225456" stroke-miterlimit="23.8"/>
<path d="M43.3648 95.4655L45.43 92.6834L43.8608 91.1954L41.7911 93.982C40.9118 93.265 39.9604 92.6518 38.9594 92.1874V88.0615L37.1422 87.3987V91.5245C36.1232 91.254 35.1492 91.1728 34.2564 91.2585L32.2363 86.9658L30.6581 87.286L32.6872 91.6057C30.4011 92.4354 28.9131 94.5862 28.9131 97.6209L30.7303 98.2837C30.7303 94.248 34.0129 92.1603 38.0485 93.6303C42.0842 95.1003 45.3668 99.5778 45.3668 103.613L47.184 104.276C47.184 101.224 45.6735 97.9726 43.3648 95.47V95.4655Z" fill="#13203D" stroke="#E9ECFF" stroke-width="0.225456" stroke-miterlimit="23.8"/>
<path d="M38.0304 105.359C35.5955 104.475 33.616 101.769 33.616 99.339C33.616 96.9086 35.5955 95.646 38.0304 96.5298C40.4653 97.4181 42.4448 100.119 42.4448 102.549C42.4448 104.98 40.4653 106.242 38.0304 105.359ZM38.0304 94.7126C34.5945 93.4636 31.7988 95.2402 31.7988 98.6762C31.7988 101.801 34.1165 105.232 37.1196 106.77V110.9L38.9277 111.563V107.428C41.9398 108.082 44.2575 106.337 44.2575 103.208C44.2575 99.7719 41.4619 95.9617 38.0259 94.7081L38.0304 94.7126Z" fill="#13203D" stroke="#E9ECFF" stroke-width="0.225456" stroke-miterlimit="23.8"/>
<path d="M43.3467 95.4792L45.4119 92.697L43.8427 91.209L41.773 93.9957C40.8938 93.2787 39.9423 92.6655 38.9413 92.201V88.0752L37.1241 87.4124V91.5382C36.1051 91.2677 35.1311 91.1865 34.2383 91.2722L32.2182 86.9795L30.64 87.2996L32.6691 91.6194C30.383 92.449 28.895 94.5999 28.895 97.6345L30.7122 98.2974C30.7122 94.2617 33.9948 92.174 38.0305 93.644C42.0661 95.1139 45.3488 99.5915 45.3488 103.627L47.1659 104.29C47.1659 101.237 45.6554 97.9862 43.3467 95.4837V95.4792Z" fill="#13203D" stroke="#E9ECFF" stroke-width="0.225456" stroke-miterlimit="23.8"/>
<path d="M38.0124 105.372C35.5774 104.489 33.5979 101.783 33.5979 99.3527C33.5979 96.9223 35.5774 95.6597 38.0124 96.5435C40.4473 97.4318 42.4268 100.133 42.4268 102.563C42.4268 104.994 40.4473 106.256 38.0124 105.372ZM38.0124 94.7263C34.5764 93.4773 31.7808 95.2539 31.7808 98.6898C31.7808 101.815 34.0984 105.246 37.1015 106.784V110.914L38.9097 111.577V107.442C41.9218 108.096 44.2394 106.351 44.2394 103.221C44.2394 99.7855 41.4438 95.9753 38.0078 94.7218L38.0124 94.7263Z" fill="#13203D" stroke="#E9ECFF" stroke-width="0.225456" stroke-miterlimit="23.8"/>
<path d="M43.3243 95.4928L45.3894 92.7107L43.8203 91.2227L41.7506 94.0093C40.8713 93.2924 39.9199 92.6792 38.9189 92.2147V88.0889L37.1017 87.426V91.5519C36.0826 91.2813 35.1087 91.2002 34.2159 91.2858L32.1958 86.9932L30.6176 87.3133L32.6467 91.633C30.3606 92.4627 28.8726 94.6136 28.8726 97.6482L30.6897 98.311C30.6897 94.2754 33.9724 92.1877 38.008 93.6576C42.0437 95.1276 45.3263 99.6052 45.3263 103.641L47.1435 104.304C47.1435 101.251 45.6329 97.9999 43.3243 95.4973V95.4928Z" fill="#13203D" stroke="#E9ECFF" stroke-width="0.225456" stroke-miterlimit="23.8"/>
<path d="M37.9938 105.387C35.5589 104.503 33.5794 101.798 33.5794 99.3673C33.5794 96.9369 35.5589 95.6744 37.9938 96.5581C40.4287 97.4464 42.4082 100.147 42.4082 102.578C42.4082 105.008 40.4287 106.271 37.9938 105.387ZM37.9938 94.741C34.5579 93.4919 31.7622 95.2685 31.7622 98.7045C31.7622 101.829 34.0799 105.261 37.083 106.798V110.929L38.8911 111.592V107.457C41.9032 108.11 44.2209 106.365 44.2209 103.236C44.2209 99.8002 41.4252 95.99 37.9893 94.7365L37.9938 94.741Z" fill="#13203D" stroke="#E9ECFF" stroke-width="0.225456" stroke-miterlimit="23.8"/>
<path d="M43.3057 95.507L45.3709 92.7249L43.8017 91.2369L41.732 94.0235C40.8527 93.3066 39.9013 92.6933 38.9003 92.2289V88.103L37.0831 87.4402V91.566C36.0641 91.2955 35.0901 91.2143 34.1973 91.3L32.1772 87.0073L30.599 87.3275L32.6281 91.6472C30.342 92.4769 28.854 94.6277 28.854 97.6624L30.6712 98.3252C30.6712 94.2895 33.9538 92.2018 37.9895 93.6718C42.0251 95.1418 45.3078 99.6193 45.3078 103.655L47.1249 104.318C47.1249 101.265 45.6144 98.0141 43.3057 95.5115V95.507Z" fill="#13203D" stroke="#E9ECFF" stroke-width="0.225456" stroke-miterlimit="23.8"/>
<path d="M37.9762 105.405C35.5413 104.521 33.5618 101.815 33.5618 99.3849C33.5618 96.9545 35.5413 95.6919 37.9762 96.5757C40.4111 97.464 42.3906 100.165 42.3906 102.595C42.3906 105.026 40.4111 106.288 37.9762 105.405ZM37.9762 94.7585C34.5403 93.5095 31.7446 95.2861 31.7446 98.7221C31.7446 101.847 34.0623 105.278 37.0654 106.816V110.946L38.8735 111.609V107.474C41.8856 108.128 44.2033 106.383 44.2033 103.254C44.2033 99.8178 41.4077 96.0076 37.9717 94.754L37.9762 94.7585Z" fill="#13203D" stroke="#E9ECFF" stroke-width="0.225456" stroke-miterlimit="23.8"/>
<path d="M43.2881 95.5246L45.3533 92.7425L43.7841 91.2545L41.7144 94.0411C40.8352 93.3241 39.8837 92.7109 38.8827 92.2465V88.1206L37.0656 87.4578V91.5836C36.0465 91.3131 35.0725 91.2319 34.1797 91.3176L32.1596 87.0249L30.5815 87.345L32.6106 91.6648C30.3244 92.4945 28.8364 94.6453 28.8364 97.6799L30.6536 98.3428C30.6536 94.3071 33.9362 92.2194 37.9719 93.6894C42.0075 95.1593 45.2902 99.6369 45.2902 103.673L47.1073 104.335C47.1073 101.283 45.5968 98.0316 43.2881 95.5291V95.5246Z" fill="#13203D" stroke="#E9ECFF" stroke-width="0.225456" stroke-miterlimit="23.8"/>
<path d="M37.9586 105.417C35.5237 104.533 33.5442 101.828 33.5442 99.3976C33.5442 96.9672 35.5237 95.7046 37.9586 96.5884C40.3936 97.4767 42.3731 100.178 42.3731 102.608C42.3731 105.038 40.3936 106.301 37.9586 105.417ZM37.9586 94.7712C34.5227 93.5222 31.7271 95.2988 31.7271 98.7348C31.7271 101.86 34.0447 105.291 37.0478 106.829V110.959L38.856 111.622V107.487C41.868 108.141 44.1857 106.396 44.1857 103.266C44.1857 99.8305 41.3901 96.0203 37.9541 94.7667L37.9586 94.7712Z" fill="#13203D" stroke="#E9ECFF" stroke-width="0.225456" stroke-miterlimit="23.8"/>
<path d="M43.2701 95.5378L45.3352 92.7556L43.7661 91.2676L41.6964 94.0543C40.8171 93.3373 39.8657 92.7241 38.8647 92.2596V88.1338L37.0475 87.471V91.5968C36.0284 91.3263 35.0545 91.2451 34.1617 91.3308L32.1416 87.0381L30.5634 87.3582L32.5925 91.678C30.3064 92.5076 28.8184 94.6585 28.8184 97.6931L30.6355 98.356C30.6355 94.3203 33.9182 92.2326 37.9538 93.7026C41.9895 95.1725 45.2721 99.6501 45.2721 103.686L47.0893 104.349C47.0893 101.296 45.5787 98.0448 43.2701 95.5423V95.5378Z" fill="#13203D" stroke="#E9ECFF" stroke-width="0.225456" stroke-miterlimit="23.8"/>
<path d="M37.9352 105.431C35.5003 104.548 33.5208 101.842 33.5208 99.4118C33.5208 96.9813 35.5003 95.7188 37.9352 96.6026C40.3701 97.4909 42.3496 100.192 42.3496 102.622C42.3496 105.053 40.3701 106.315 37.9352 105.431ZM37.9352 94.7854C34.4993 93.5364 31.7036 95.313 31.7036 98.7489C31.7036 101.874 34.0213 105.305 37.0244 106.843V110.973L38.8325 111.636V107.501C41.8446 108.155 44.1623 106.41 44.1623 103.281C44.1623 99.8446 41.3666 96.0344 37.9307 94.7809L37.9352 94.7854Z" fill="#13203D" stroke="#E9ECFF" stroke-width="0.225456" stroke-miterlimit="23.8"/>
<path d="M43.2471 95.5519L45.3123 92.7698L43.7431 91.2818L41.6734 94.0684C40.7942 93.3515 39.8427 92.7382 38.8417 92.2738V88.148L37.0245 87.4851V91.611C36.0055 91.3404 35.0315 91.2592 34.1387 91.3449L32.1186 87.0522L30.5404 87.3724L32.5695 91.6921C30.2834 92.5218 28.7954 94.6726 28.7954 97.7073L30.6126 98.3701C30.6126 94.3345 33.8952 92.2467 37.9309 93.7167C41.9665 95.1867 45.2492 99.6642 45.2492 103.7L47.0663 104.363C47.0663 101.31 45.5558 98.059 43.2471 95.5564V95.5519Z" fill="#13203D" stroke="#E9ECFF" stroke-width="0.225456" stroke-miterlimit="23.8"/>
<path d="M37.9176 105.445C35.4827 104.561 33.5032 101.855 33.5032 99.4249C33.5032 96.9945 35.4827 95.732 37.9176 96.6158C40.3525 97.504 42.332 100.205 42.332 102.635C42.332 105.066 40.3525 106.328 37.9176 105.445ZM37.9176 94.7986C34.4817 93.5496 31.686 95.3261 31.686 98.7621C31.686 101.887 34.0037 105.318 37.0068 106.856V110.986L38.8149 111.649V107.514C41.827 108.168 44.1447 106.423 44.1447 103.294C44.1447 99.8578 41.3491 96.0476 37.9131 94.7941L37.9176 94.7986Z" fill="#13203D" stroke="#E9ECFF" stroke-width="0.225456" stroke-miterlimit="23.8"/>
<path d="M43.2295 95.5646L45.2947 92.7825L43.7255 91.2945L41.6559 94.0811C40.7766 93.3642 39.8252 92.7509 38.8241 92.2865V88.1607L37.007 87.4978V91.6237C35.9879 91.3531 35.0139 91.2719 34.1211 91.3576L32.101 87.0649L30.5229 87.3851L32.552 91.7048C30.2658 92.5345 28.7778 94.6853 28.7778 97.72L30.595 98.3828C30.595 94.3472 33.8776 92.2594 37.9133 93.7294C41.9489 95.1994 45.2316 99.6769 45.2316 103.713L47.0488 104.375C47.0488 101.323 45.5382 98.0717 43.2295 95.5691V95.5646Z" fill="#13203D" stroke="#E9ECFF" stroke-width="0.225456" stroke-miterlimit="23.8"/>
<path d="M37.8996 105.463C35.4646 104.579 33.4851 101.873 33.4851 99.443C33.4851 97.0126 35.4646 95.75 37.8996 96.6338C40.3345 97.5221 42.314 100.223 42.314 102.653C42.314 105.084 40.3345 106.346 37.8996 105.463ZM37.8996 94.8166C34.4636 93.5676 31.668 95.3442 31.668 98.7802C31.668 101.905 33.9857 105.336 36.9887 106.874V111.004L38.7969 111.667V107.532C41.809 108.186 44.1266 106.441 44.1266 103.312C44.1266 99.8759 41.331 96.0657 37.8951 94.8121L37.8996 94.8166Z" fill="#13203D" stroke="#E9ECFF" stroke-width="0.225456" stroke-miterlimit="23.8"/>
<path d="M43.2115 95.5832L45.2766 92.801L43.7075 91.313L41.6378 94.0997C40.7585 93.3827 39.8071 92.7695 38.8061 92.305V88.1792L36.9889 87.5164V91.6422C35.9698 91.3717 34.9959 91.2905 34.1031 91.3762L32.083 87.0835L30.5048 87.4036L32.5339 91.7234C30.2478 92.553 28.7598 94.7039 28.7598 97.7385L30.5769 98.4014C30.5769 94.3657 33.8596 92.278 37.8952 93.748C41.9309 95.2179 45.2135 99.6955 45.2135 103.731L47.0307 104.394C47.0307 101.341 45.5201 98.0902 43.2115 95.5877V95.5832Z" fill="#13203D" stroke="#E9ECFF" stroke-width="0.225456" stroke-miterlimit="23.8"/>
<path d="M37.8815 105.475C35.4466 104.592 33.4671 101.886 33.4671 99.4557C33.4671 97.0253 35.4466 95.7627 37.8815 96.6465C40.3164 97.5348 42.2959 100.236 42.2959 102.666C42.2959 105.097 40.3164 106.359 37.8815 105.475ZM37.8815 94.8293C34.4456 93.5803 31.6499 95.3569 31.6499 98.7929C31.6499 101.918 33.9676 105.349 36.9707 106.887V111.017L38.7788 111.68V107.545C41.7909 108.199 44.1086 106.454 44.1086 103.325C44.1086 99.8886 41.3129 96.0784 37.877 94.8248L37.8815 94.8293Z" fill="#13203D" stroke="#E9ECFF" stroke-width="0.225456" stroke-miterlimit="23.8"/>
<path d="M43.1934 95.5959L45.2586 92.8137L43.6894 91.3257L41.6197 94.1124C40.7404 93.3954 39.789 92.7822 38.788 92.3177V88.1919L36.9708 87.5291V91.6549C35.9518 91.3844 34.9778 91.3032 34.085 91.3889L32.0649 87.0962L30.4867 87.4163L32.5158 91.7361C30.2297 92.5657 28.7417 94.7166 28.7417 97.7512L30.5589 98.4141C30.5589 94.3784 33.8415 92.2907 37.8772 93.7607C41.9128 95.2306 45.1954 99.7082 45.1954 103.744L47.0126 104.407C47.0126 101.354 45.5021 98.1029 43.1934 95.6004V95.5959Z" fill="#13203D" stroke="#E9ECFF" stroke-width="0.225456" stroke-miterlimit="23.8"/>
<path d="M37.8585 105.49C35.4236 104.606 33.4441 101.9 33.4441 99.4699C33.4441 97.0394 35.4236 95.7769 37.8585 96.6607C40.2935 97.549 42.273 100.25 42.273 102.68C42.273 105.111 40.2935 106.373 37.8585 105.49ZM37.8585 94.8435C34.4226 93.5945 31.627 95.3711 31.627 98.807C31.627 101.932 33.9446 105.363 36.9477 106.901V111.031L38.7559 111.694V107.559C41.7679 108.213 44.0856 106.468 44.0856 103.339C44.0856 99.9027 41.29 96.0925 37.854 94.839L37.8585 94.8435Z" fill="#13203D" stroke="#E9ECFF" stroke-width="0.225456" stroke-miterlimit="23.8"/>
<path d="M43.1705 95.6095L45.2356 92.8274L43.6665 91.3394L41.5968 94.126C40.7175 93.4091 39.7661 92.7959 38.765 92.3314V88.2056L36.9479 87.5427V91.6686C35.9288 91.398 34.9549 91.3169 34.062 91.4025L32.042 87.1099L30.4638 87.43L32.4929 91.7497C30.2068 92.5794 28.7188 94.7303 28.7188 97.7649L30.5359 98.4277C30.5359 94.3921 33.8186 92.3044 37.8542 93.7743C41.8899 95.2443 45.1725 99.7218 45.1725 103.758L46.9897 104.42C46.9897 101.368 45.4791 98.1166 43.1705 95.614V95.6095Z" fill="#13203D" stroke="#E9ECFF" stroke-width="0.225456" stroke-miterlimit="23.8"/>
<path d="M37.841 105.503C35.406 104.619 33.4265 101.913 33.4265 99.483C33.4265 97.0526 35.406 95.7901 37.841 96.6739C40.2759 97.5622 42.2554 100.263 42.2554 102.694C42.2554 105.124 40.2759 106.386 37.841 105.503ZM37.841 94.8567C34.405 93.6077 31.6094 95.3843 31.6094 98.8202C31.6094 101.945 33.9271 105.376 36.9301 106.914V111.044L38.7383 111.707V107.572C41.7504 108.226 44.0681 106.481 44.0681 103.352C44.0681 99.9159 41.2724 96.1057 37.8365 94.8522L37.841 94.8567Z" fill="#13203D" stroke="#E9ECFF" stroke-width="0.225456" stroke-miterlimit="23.8"/>
<path d="M43.1529 95.6232L45.2181 92.8411L43.6489 91.3531L41.5792 94.1397C40.6999 93.4228 39.7485 92.8095 38.7475 92.3451V88.2192L36.9303 87.5564V91.6822C35.9112 91.4117 34.9373 91.3305 34.0445 91.4162L32.0244 87.1235L30.4462 87.4437L32.4753 91.7634C30.1892 92.5931 28.7012 94.7439 28.7012 97.7786L30.5183 98.4414C30.5183 94.4057 33.801 92.318 37.8366 93.788C41.8723 95.258 45.1549 99.7355 45.1549 103.771L46.9721 104.434C46.9721 101.381 45.4615 98.1303 43.1529 95.6277V95.6232Z" fill="#13203D" stroke="#E9ECFF" stroke-width="0.225456" stroke-miterlimit="23.8"/>
<path d="M37.8229 105.52C35.388 104.636 33.4085 101.931 33.4085 99.5006C33.4085 97.0702 35.388 95.8077 37.8229 96.6914C40.2578 97.5797 42.2373 100.281 42.2373 102.711C42.2373 105.142 40.2578 106.404 37.8229 105.52ZM37.8229 94.8743C34.387 93.6252 31.5913 95.4018 31.5913 98.8378C31.5913 101.963 33.909 105.394 36.9121 106.932V111.062L38.7202 111.725V107.59C41.7323 108.244 44.05 106.499 44.05 103.369C44.05 99.9335 41.2543 96.1233 37.8184 94.8698L37.8229 94.8743Z" fill="#13203D" stroke="#E9ECFF" stroke-width="0.225456" stroke-miterlimit="23.8"/>
<path d="M43.1348 95.6408L45.2 92.8587L43.6308 91.3707L41.5611 94.1573C40.6819 93.4403 39.7304 92.8271 38.7294 92.3627V88.2368L36.9122 87.574V91.6998C35.8932 91.4293 34.9192 91.3481 34.0264 91.4338L32.0063 87.1411L30.4281 87.4613L32.4572 91.781C30.1711 92.6107 28.6831 94.7615 28.6831 97.7961L30.5003 98.459C30.5003 94.4233 33.7829 92.3356 37.8186 93.8056C41.8542 95.2756 45.1369 99.7531 45.1369 103.789L46.954 104.452C46.954 101.399 45.4435 98.1479 43.1348 95.6453V95.6408Z" fill="#13203D" stroke="#E9ECFF" stroke-width="0.225456" stroke-miterlimit="23.8"/>
<path d="M37.8048 105.535C35.3699 104.651 33.3904 101.946 33.3904 99.5153C33.3904 97.0848 35.3699 95.8223 37.8048 96.7061C40.2398 97.5944 42.2193 100.295 42.2193 102.726C42.2193 105.156 40.2398 106.419 37.8048 105.535ZM37.8048 94.8889C34.3689 93.6399 31.5732 95.4165 31.5732 98.8524C31.5732 101.977 33.8909 105.409 36.894 106.946V111.077L38.7021 111.739V107.605C41.7142 108.258 44.0319 106.513 44.0319 103.384C44.0319 99.9481 41.2363 96.1379 37.8003 94.8844L37.8048 94.8889Z" fill="#13203D" stroke="#E9ECFF" stroke-width="0.225456" stroke-miterlimit="23.8"/>
<path d="M43.1167 95.6554L45.1819 92.8733L43.6127 91.3853L41.5431 94.1719C40.6638 93.455 39.7124 92.8418 38.7113 92.3773V88.2515L36.8942 87.5886V91.7145C35.8751 91.4439 34.9011 91.3628 34.0083 91.4484L31.9883 87.1558L30.4101 87.4759L32.4392 91.7956C30.153 92.6253 28.665 94.7762 28.665 97.8108L30.4822 98.4736C30.4822 94.438 33.7648 92.3503 37.8005 93.8202C41.8362 95.2902 45.1188 99.7677 45.1188 103.803L46.936 104.466C46.936 101.414 45.4254 98.1625 43.1167 95.6599V95.6554Z" fill="#13203D" stroke="#E9ECFF" stroke-width="0.225456" stroke-miterlimit="23.8"/>
<path d="M37.7824 105.548C35.3475 104.664 33.368 101.958 33.368 99.528C33.368 97.0975 35.3475 95.835 37.7824 96.7188C40.2173 97.6071 42.1968 100.308 42.1968 102.738C42.1968 105.169 40.2173 106.431 37.7824 105.548ZM37.7824 94.9016C34.3464 93.6526 31.5508 95.4292 31.5508 98.8651C31.5508 101.99 33.8685 105.421 36.8715 106.959V111.089L38.6797 111.752V107.617C41.6918 108.271 44.0095 106.526 44.0095 103.397C44.0095 99.9608 41.2138 96.1506 37.7779 94.8971L37.7824 94.9016Z" fill="#13203D" stroke="#E9ECFF" stroke-width="0.225456" stroke-miterlimit="23.8"/>
<path d="M43.0987 95.6681L45.1638 92.886L43.5947 91.398L41.525 94.1846C40.6457 93.4677 39.6943 92.8544 38.6933 92.39V88.2642L36.8761 87.6013V91.7272C35.857 91.4566 34.8831 91.3755 33.9903 91.4611L31.9702 87.1685L30.392 87.4886L32.4211 91.8083C30.135 92.638 28.647 94.7889 28.647 97.8235L30.4641 98.4863C30.4641 94.4507 33.7468 92.363 37.7824 93.8329C41.8181 95.3029 45.1007 99.7804 45.1007 103.816L46.9179 104.479C46.9179 101.426 45.4073 98.1752 43.0987 95.6726V95.6681Z" fill="#13203D" stroke="#E9ECFF" stroke-width="0.225456" stroke-miterlimit="23.8"/>
<path d="M37.7643 105.56C35.3294 104.677 33.3499 101.971 33.3499 99.5407C33.3499 97.1102 35.3294 95.8477 37.7643 96.7315C40.1992 97.6198 42.1787 100.321 42.1787 102.751C42.1787 105.182 40.1992 106.444 37.7643 105.56ZM37.7643 94.9143C34.3284 93.6653 31.5327 95.4419 31.5327 98.8778C31.5327 102.003 33.8504 105.434 36.8535 106.972V111.102L38.6616 111.765V107.63C41.6737 108.284 43.9914 106.539 43.9914 103.409C43.9914 99.9735 41.1957 96.1633 37.7598 94.9098L37.7643 94.9143Z" fill="#13203D" stroke="#E9ECFF" stroke-width="0.225456" stroke-miterlimit="23.8"/>
<path d="M43.0762 95.6857L45.1414 92.9036L43.5722 91.4156L41.5025 94.2022C40.6233 93.4853 39.6718 92.872 38.6708 92.4076V88.2817L36.8536 87.6189V91.7447C35.8346 91.4742 34.8606 91.393 33.9678 91.4787L31.9477 87.186L30.3695 87.5062L32.3986 91.8259C30.1125 92.6556 28.6245 94.8064 28.6245 97.8411L30.4417 98.5039C30.4417 94.4682 33.7243 92.3805 37.76 93.8505C41.7956 95.3205 45.0783 99.798 45.0783 103.834L46.8954 104.497C46.8954 101.444 45.3849 98.1928 43.0762 95.6902V95.6857Z" fill="#13203D" stroke="#E9ECFF" stroke-width="0.225456" stroke-miterlimit="23.8"/>
<path d="M37.7462 105.58C35.3113 104.696 33.3318 101.991 33.3318 99.5602C33.3318 97.1298 35.3113 95.8672 37.7462 96.751C40.1812 97.6393 42.1607 100.34 42.1607 102.771C42.1607 105.201 40.1812 106.464 37.7462 105.58ZM37.7462 94.9338C34.3103 93.6848 31.5146 95.4614 31.5146 98.8973C31.5146 102.022 33.8323 105.454 36.8354 106.991V111.122L38.6436 111.784V107.65C41.6556 108.303 43.9733 106.558 43.9733 103.429C43.9733 99.9931 41.1777 96.1829 37.7417 94.9293L37.7462 94.9338Z" fill="#13203D" stroke="#E9ECFF" stroke-width="0.225456" stroke-miterlimit="23.8"/>
<path d="M43.0581 95.7004L45.1233 92.9182L43.5542 91.4302L41.4845 94.2169C40.6052 93.4999 39.6538 92.8867 38.6527 92.4222V88.2964L36.8356 87.6336V91.7594C35.8165 91.4888 34.8425 91.4077 33.9497 91.4934L31.9297 87.2007L30.3515 87.5208L32.3806 91.8406C30.0945 92.6702 28.6064 94.8211 28.6064 97.8557L30.4236 98.5186C30.4236 94.4829 33.7063 92.3952 37.7419 93.8652C41.7776 95.3351 45.0602 99.8127 45.0602 103.848L46.8774 104.511C46.8774 101.458 45.3668 98.2074 43.0581 95.7049V95.7004Z" fill="#13203D" stroke="#E9ECFF" stroke-width="0.225456" stroke-miterlimit="23.8"/>
<path d="M37.7282 105.593C35.2933 104.709 33.3138 102.004 33.3138 99.5734C33.3138 97.143 35.2933 95.8804 37.7282 96.7642C40.1631 97.6525 42.1426 100.353 42.1426 102.784C42.1426 105.214 40.1631 106.477 37.7282 105.593ZM37.7282 94.947C34.2922 93.698 31.4966 95.4746 31.4966 98.9105C31.4966 102.035 33.8143 105.467 36.8173 107.004V111.135L38.6255 111.798V107.663C41.6376 108.317 43.9553 106.572 43.9553 103.442C43.9553 100.006 41.1596 96.196 37.7237 94.9425L37.7282 94.947Z" fill="#13203D" stroke="#E9ECFF" stroke-width="0.225456" stroke-miterlimit="23.8"/>
<path d="M43.0401 95.7135L45.1053 92.9314L43.5361 91.4434L41.4664 94.23C40.5871 93.5131 39.6357 92.8999 38.6347 92.4354V88.3096L36.8175 87.6467V91.7726C35.7984 91.502 34.8245 91.4209 33.9317 91.5065L31.9116 87.2139L30.3334 87.534L32.3625 91.8537C30.0764 92.6834 28.5884 94.8343 28.5884 97.8689L30.4056 98.5317C30.4056 94.4961 33.6882 92.4084 37.7238 93.8783C41.7595 95.3483 45.0421 99.8259 45.0421 103.862L46.8593 104.524C46.8593 101.472 45.3487 98.2206 43.0401 95.7181V95.7135Z" fill="#13203D" stroke="#E9ECFF" stroke-width="0.225456" stroke-miterlimit="23.8"/>
<path d="M37.7057 105.607C35.2708 104.723 33.2913 102.018 33.2913 99.5875C33.2913 97.1571 35.2708 95.8946 37.7057 96.7784C40.1406 97.6666 42.1201 100.368 42.1201 102.798C42.1201 105.228 40.1406 106.491 37.7057 105.607ZM37.7057 94.9612C34.2698 93.7122 31.4741 95.4887 31.4741 98.9247C31.4741 102.05 33.7918 105.481 36.7949 107.019V111.149L38.603 111.812V107.677C41.6151 108.331 43.9328 106.586 43.9328 103.456C43.9328 100.02 41.1371 96.2102 37.7012 94.9567L37.7057 94.9612Z" fill="#13203D" stroke="#E9ECFF" stroke-width="0.225456" stroke-miterlimit="23.8"/>
<path d="M43.022 95.7277L45.0872 92.9456L43.518 91.4576L41.4483 94.2442C40.5691 93.5273 39.6176 92.914 38.6166 92.4496V88.3237L36.7994 87.6609V91.7867C35.7804 91.5162 34.8064 91.435 33.9136 91.5207L31.8935 87.228L30.3153 87.5482L32.3444 91.8679C30.0583 92.6976 28.5703 94.8484 28.5703 97.8831L30.3875 98.5459C30.3875 94.5102 33.6701 92.4225 37.7058 93.8925C41.7414 95.3625 45.0241 99.84 45.0241 103.876L46.8412 104.539C46.8412 101.486 45.3307 98.2348 43.022 95.7322V95.7277Z" fill="#13203D" stroke="#E9ECFF" stroke-width="0.225456" stroke-miterlimit="23.8"/>
<path d="M37.6876 105.625C35.2527 104.741 33.2732 102.036 33.2732 99.6051C33.2732 97.1747 35.2527 95.9121 37.6876 96.7959C40.1226 97.6842 42.1021 100.385 42.1021 102.816C42.1021 105.246 40.1226 106.509 37.6876 105.625ZM37.6876 94.9788C34.2517 93.7297 31.4561 95.5063 31.4561 98.9423C31.4561 102.067 33.7737 105.499 36.7768 107.036V111.166L38.585 111.829V107.694C41.597 108.348 43.9147 106.603 43.9147 103.474C43.9147 100.038 41.1191 96.2278 37.6831 94.9743L37.6876 94.9788Z" fill="#13203D" stroke="#E9ECFF" stroke-width="0.225456" stroke-miterlimit="23.8"/>
<path d="M42.9996 95.7453L45.0647 92.9632L43.4956 91.4751L41.4259 94.2618C40.5466 93.5448 39.5952 92.9316 38.5942 92.4672V88.3413L36.777 87.6785V91.8043C35.7579 91.5338 34.784 91.4526 33.8911 91.5383L31.8711 87.2456L30.2929 87.5657L32.322 91.8855C30.0359 92.7152 28.5479 94.866 28.5479 97.9006L30.365 98.5635C30.365 94.5278 33.6477 92.4401 37.6833 93.9101C41.719 95.38 45.0016 99.8576 45.0016 103.893L46.8188 104.556C46.8188 101.503 45.3082 98.2523 42.9996 95.7498V95.7453Z" fill="#13203D" stroke="#E9ECFF" stroke-width="0.225456" stroke-miterlimit="23.8"/>
<path d="M37.6696 105.638C35.2347 104.754 33.2552 102.049 33.2552 99.6183C33.2552 97.1879 35.2347 95.9253 37.6696 96.8091C40.1045 97.6974 42.084 100.398 42.084 102.829C42.084 105.259 40.1045 106.522 37.6696 105.638ZM37.6696 94.9919C34.2336 93.7429 31.438 95.5195 31.438 98.9554C31.438 102.08 33.7557 105.512 36.7587 107.049V111.18L38.5669 111.842V107.708C41.579 108.361 43.8967 106.616 43.8967 103.487C43.8967 100.051 41.101 96.241 37.6651 94.9874L37.6696 94.9919Z" fill="#13203D" stroke="#E9ECFF" stroke-width="0.225456" stroke-miterlimit="23.8"/>
<path d="M42.9815 95.7585L45.0467 92.9763L43.4775 91.4883L41.4078 94.275C40.5285 93.558 39.5771 92.9448 38.5761 92.4803V88.3545L36.7589 87.6917V91.8175C35.7399 91.547 34.7659 91.4658 33.8731 91.5515L31.853 87.2588L30.2748 87.5789L32.3039 91.8987C30.0178 92.7283 28.5298 94.8792 28.5298 97.9138L30.347 98.5767C30.347 94.541 33.6296 92.4533 37.6652 93.9233C41.7009 95.3932 44.9835 99.8708 44.9835 103.906L46.8007 104.569C46.8007 101.517 45.2902 98.2655 42.9815 95.763V95.7585Z" fill="#13203D" stroke="#E9ECFF" stroke-width="0.225456" stroke-miterlimit="23.8"/>
<path d="M37.6515 105.652C35.2166 104.768 33.2371 102.062 33.2371 99.632C33.2371 97.2015 35.2166 95.939 37.6515 96.8228C40.0864 97.7111 42.0659 100.412 42.0659 102.842C42.0659 105.273 40.0864 106.535 37.6515 105.652ZM37.6515 95.0056C34.2156 93.7566 31.4199 95.5332 31.4199 98.9691C31.4199 102.094 33.7376 105.525 36.7407 107.063V111.193L38.5488 111.856V107.721C41.5609 108.375 43.8786 106.63 43.8786 103.501C43.8786 100.065 41.0829 96.2546 37.647 95.0011L37.6515 95.0056Z" fill="#13203D" stroke="#E9ECFF" stroke-width="0.225456" stroke-miterlimit="23.8"/>
<path d="M42.9634 95.7721L45.0286 92.99L43.4594 91.502L41.3897 94.2886C40.5105 93.5717 39.559 92.9585 38.558 92.494V88.3682L36.7408 87.7053V91.8312C35.7218 91.5606 34.7478 91.4795 33.855 91.5651L31.8349 87.2725L30.2567 87.5926L32.2858 91.9123C29.9997 92.742 28.5117 94.8929 28.5117 97.9275L30.3289 98.5903C30.3289 94.5547 33.6115 92.467 37.6472 93.9369C41.6828 95.4069 44.9655 99.8844 44.9655 103.92L46.7826 104.583C46.7826 101.53 45.2721 98.2792 42.9634 95.7766V95.7721Z" fill="#13203D" stroke="#E9ECFF" stroke-width="0.225456" stroke-miterlimit="23.8"/>
<path d="M37.6291 105.666C35.1941 104.782 33.2146 102.077 33.2146 99.6461C33.2146 97.2157 35.1941 95.9532 37.6291 96.8369C40.064 97.7252 42.0435 100.426 42.0435 102.857C42.0435 105.287 40.064 106.55 37.6291 105.666ZM37.6291 95.0198C34.1931 93.7707 31.3975 95.5473 31.3975 98.9833C31.3975 102.108 33.7151 105.54 36.7182 107.077V111.207L38.5264 111.87V107.735C41.5385 108.389 43.8561 106.644 43.8561 103.515C43.8561 100.079 41.0605 96.2688 37.6245 95.0153L37.6291 95.0198Z" fill="#13203D" stroke="#E9ECFF" stroke-width="0.225456" stroke-miterlimit="23.8"/>
<path d="M42.9454 95.7863L45.0105 93.0042L43.4414 91.5162L41.3717 94.3028C40.4924 93.5858 39.541 92.9726 38.54 92.5082V88.3823L36.7228 87.7195V91.8453C35.7037 91.5748 34.7298 91.4936 33.837 91.5793L31.8169 87.2866L30.2387 87.6068L32.2678 91.9265C29.9817 92.7562 28.4937 94.907 28.4937 97.9416L30.3108 98.6045C30.3108 94.5688 33.5935 92.4811 37.6291 93.9511C41.6648 95.4211 44.9474 99.8986 44.9474 103.934L46.7646 104.597C46.7646 101.544 45.254 98.2934 42.9454 95.7908V95.7863Z" fill="#13203D" stroke="#E9ECFF" stroke-width="0.225456" stroke-miterlimit="23.8"/>
<path d="M37.611 105.683C35.1761 104.8 33.1966 102.094 33.1966 99.6637C33.1966 97.2333 35.1761 95.9707 37.611 96.8545C40.0459 97.7428 42.0254 100.444 42.0254 102.874C42.0254 105.305 40.0459 106.567 37.611 105.683ZM37.611 95.0374C34.175 93.7883 31.3794 95.5649 31.3794 99.0009C31.3794 102.126 33.6971 105.557 36.7001 107.095V111.225L38.5083 111.888V107.753C41.5204 108.407 43.8381 106.662 43.8381 103.533C43.8381 100.097 41.0424 96.2864 37.6065 95.0328L37.611 95.0374Z" fill="#13203D" stroke="#E9ECFF" stroke-width="0.225456" stroke-miterlimit="23.8"/>
<path d="M42.9229 95.8039L44.9881 93.0218L43.4189 91.5337L41.3492 94.3204C40.4699 93.6034 39.5185 92.9902 38.5175 92.5258V88.3999L36.7003 87.7371V91.8629C35.6813 91.5924 34.7073 91.5112 33.8145 91.5969L31.7944 87.3042L30.2162 87.6243L32.2453 91.9441C29.9592 92.7738 28.4712 94.9246 28.4712 97.9592L30.2884 98.6221C30.2884 94.5864 33.571 92.4987 37.6067 93.9687C41.6423 95.4386 44.9249 99.9162 44.9249 103.952L46.7421 104.615C46.7421 101.562 45.2316 98.3109 42.9229 95.8084V95.8039Z" fill="#13203D" stroke="#E9ECFF" stroke-width="0.225456" stroke-miterlimit="23.8"/>
<path d="M37.5924 105.697C35.1575 104.813 33.178 102.108 33.178 99.6774C33.178 97.247 35.1575 95.9844 37.5924 96.8682C40.0274 97.7565 42.0069 100.457 42.0069 102.888C42.0069 105.318 40.0274 106.581 37.5924 105.697ZM37.5924 95.051C34.1565 93.802 31.3608 95.5786 31.3608 99.0145C31.3608 102.139 33.6785 105.571 36.6816 107.108V111.239L38.4897 111.902V107.767C41.5018 108.421 43.8195 106.676 43.8195 103.546C43.8195 100.11 41.0239 96.3 37.5879 95.0465L37.5924 95.051Z" fill="#13203D" stroke="#E9ECFF" stroke-width="0.225456" stroke-miterlimit="23.8"/>
<path d="M42.9043 95.8175L44.9695 93.0354L43.4003 91.5474L41.3307 94.334C40.4514 93.6171 39.5 93.0039 38.4989 92.5394V88.4136L36.6818 87.7507V91.8766C35.6627 91.606 34.6887 91.5249 33.7959 91.6105L31.7759 87.3179L30.1977 87.638L32.2268 91.9578C29.9406 92.7874 28.4526 94.9383 28.4526 97.9729L30.2698 98.6357C30.2698 94.6001 33.5524 92.5124 37.5881 93.9823C41.6238 95.4523 44.9064 99.9299 44.9064 103.966L46.7236 104.628C46.7236 101.576 45.213 98.3246 42.9043 95.8221V95.8175Z" fill="#13203D" stroke="#E9ECFF" stroke-width="0.225456" stroke-miterlimit="23.8"/>
<path d="M37.5749 105.711C35.1399 104.827 33.1604 102.121 33.1604 99.691C33.1604 97.2606 35.1399 95.9981 37.5749 96.8819C40.0098 97.7702 41.9893 100.471 41.9893 102.902C41.9893 105.332 40.0098 106.594 37.5749 105.711ZM37.5749 95.0647C34.1389 93.8157 31.3433 95.5923 31.3433 99.0282C31.3433 102.153 33.6609 105.584 36.664 107.122V111.252L38.4722 111.915V107.78C41.4843 108.434 43.8019 106.689 43.8019 103.56C43.8019 100.124 41.0063 96.3137 37.5703 95.0602L37.5749 95.0647Z" fill="#13203D" stroke="#E9ECFF" stroke-width="0.225456" stroke-miterlimit="23.8"/>
<path d="M42.8868 95.8312L44.9519 93.0491L43.3828 91.5611L41.3131 94.3477C40.4338 93.6308 39.4824 93.0175 38.4814 92.5531V88.4273L36.6642 87.7644V91.8903C35.6451 91.6197 34.6712 91.5385 33.7784 91.6242L31.7583 87.3315L30.1801 87.6517L32.2092 91.9714C29.9231 92.8011 28.4351 94.9519 28.4351 97.9866L30.2522 98.6494C30.2522 94.6138 33.5349 92.526 37.5705 93.996C41.6062 95.466 44.8888 99.9435 44.8888 103.979L46.706 104.642C46.706 101.589 45.1954 98.3383 42.8868 95.8357V95.8312Z" fill="#13203D" stroke="#E9ECFF" stroke-width="0.225456" stroke-miterlimit="23.8"/>
<path d="M37.5524 105.723C35.1175 104.84 33.138 102.134 33.138 99.7037C33.138 97.2733 35.1175 96.0108 37.5524 96.8946C39.9873 97.7829 41.9668 100.484 41.9668 102.914C41.9668 105.345 39.9873 106.607 37.5524 105.723ZM37.5524 95.0774C34.1165 93.8284 31.3208 95.605 31.3208 99.0409C31.3208 102.166 33.6385 105.597 36.6416 107.135V111.265L38.4497 111.928V107.793C41.4618 108.447 43.7795 106.702 43.7795 103.573C43.7795 100.137 40.9838 96.3264 37.5479 95.0729L37.5524 95.0774Z" fill="#13203D" stroke="#E9ECFF" stroke-width="0.225456" stroke-miterlimit="23.8"/>
<path d="M42.8687 95.8439L44.9339 93.0618L43.3647 91.5738L41.295 94.3604C40.4157 93.6435 39.4643 93.0302 38.4633 92.5658V88.44L36.6461 87.7771V91.903C35.6271 91.6324 34.6531 91.5512 33.7603 91.6369L31.7402 87.3442L30.162 87.6644L32.1911 91.9841C29.905 92.8138 28.417 94.9646 28.417 97.9993L30.2342 98.6621C30.2342 94.6265 33.5168 92.5387 37.5525 94.0087C41.5881 95.4787 44.8707 99.9562 44.8707 103.992L46.6879 104.655C46.6879 101.602 45.1774 98.351 42.8687 95.8484V95.8439Z" fill="#13203D" stroke="#E9ECFF" stroke-width="0.225456" stroke-miterlimit="23.8"/>
<path d="M37.5343 105.742C35.0994 104.859 33.1199 102.153 33.1199 99.7228C33.1199 97.2924 35.0994 96.0298 37.5343 96.9136C39.9692 97.8019 41.9487 100.503 41.9487 102.933C41.9487 105.364 39.9692 106.626 37.5343 105.742ZM37.5343 95.0964C34.0984 93.8474 31.3027 95.624 31.3027 99.0599C31.3027 102.185 33.6204 105.616 36.6235 107.154V111.284L38.4316 111.947V107.812C41.4437 108.466 43.7614 106.721 43.7614 103.592C43.7614 100.156 40.9658 96.3455 37.5298 95.0919L37.5343 95.0964Z" fill="#13203D" stroke="#E9ECFF" stroke-width="0.225456" stroke-miterlimit="23.8"/>
<path d="M42.8462 95.863L44.9114 93.0808L43.3422 91.5928L41.2726 94.3795C40.3933 93.6625 39.4419 93.0493 38.4408 92.5848V88.459L36.6237 87.7962V91.922C35.6046 91.6514 34.6306 91.5703 33.7378 91.656L31.7177 87.3633L30.1396 87.6834L32.1687 92.0032C29.8825 92.8328 28.3945 94.9837 28.3945 98.0183L30.2117 98.6812C30.2117 94.6455 33.4943 92.5578 37.53 94.0277C41.5656 95.4977 44.8483 99.9753 44.8483 104.011L46.6655 104.674C46.6655 101.621 45.1549 98.37 42.8462 95.8675V95.863Z" fill="#13203D" stroke="#E9ECFF" stroke-width="0.225456" stroke-miterlimit="23.8"/>
<path d="M37.5163 105.756C35.0813 104.872 33.1018 102.166 33.1018 99.736C33.1018 97.3056 35.0813 96.043 37.5163 96.9268C39.9512 97.8151 41.9307 100.516 41.9307 102.946C41.9307 105.377 39.9512 106.639 37.5163 105.756ZM37.5163 95.1096C34.0803 93.8606 31.2847 95.6372 31.2847 99.0731C31.2847 102.198 33.6024 105.629 36.6054 107.167V111.297L38.4136 111.96V107.825C41.4257 108.479 43.7433 106.734 43.7433 103.605C43.7433 100.169 40.9477 96.3586 37.5118 95.1051L37.5163 95.1096Z" fill="#13203D" stroke="#E9ECFF" stroke-width="0.225456" stroke-miterlimit="23.8"/>
<path d="M42.8282 95.8761L44.8933 93.094L43.3242 91.606L41.2545 94.3926C40.3752 93.6757 39.4238 93.0625 38.4228 92.598V88.4722L36.6056 87.8093V91.9352C35.5865 91.6646 34.6126 91.5835 33.7198 91.6691L31.6997 87.3765L30.1215 87.6966L32.1506 92.0163C29.8645 92.846 28.3765 94.9969 28.3765 98.0315L30.1936 98.6943C30.1936 94.6587 33.4763 92.571 37.5119 94.0409C41.5476 95.5109 44.8302 99.9885 44.8302 104.024L46.6474 104.687C46.6474 101.634 45.1368 98.3832 42.8282 95.8807V95.8761Z" fill="#13203D" stroke="#E9ECFF" stroke-width="0.225456" stroke-miterlimit="23.8"/>
<path d="M37.4982 105.768C35.0633 104.885 33.0838 102.179 33.0838 99.7487C33.0838 97.3183 35.0633 96.0557 37.4982 96.9395C39.9331 97.8278 41.9126 100.529 41.9126 102.959C41.9126 105.39 39.9331 106.652 37.4982 105.768ZM37.4982 95.1223C34.0623 93.8733 31.2666 95.6499 31.2666 99.0858C31.2666 102.211 33.5843 105.642 36.5874 107.18V111.31L38.3955 111.973V107.838C41.4076 108.492 43.7253 106.747 43.7253 103.617C43.7253 100.182 40.9296 96.3713 37.4937 95.1178L37.4982 95.1223Z" fill="#13203D" stroke="#E9ECFF" stroke-width="0.225456" stroke-miterlimit="23.8"/>
<path d="M42.8101 95.8888L44.8753 93.1067L43.3061 91.6187L41.2364 94.4053C40.3571 93.6884 39.4057 93.0752 38.4047 92.6107V88.4849L36.5875 87.822V91.9479C35.5685 91.6773 34.5945 91.5962 33.7017 91.6818L31.6816 87.3892L30.1034 87.7093L32.1325 92.029C29.8464 92.8587 28.3584 95.0096 28.3584 98.0442L30.1756 98.707C30.1756 94.6714 33.4582 92.5837 37.4939 94.0536C41.5295 95.5236 44.8121 100.001 44.8121 104.037L46.6293 104.7C46.6293 101.647 45.1188 98.3959 42.8101 95.8933V95.8888Z" fill="#13203D" stroke="#E9ECFF" stroke-width="0.225456" stroke-miterlimit="23.8"/>
<path d="M37.4757 105.783C35.0408 104.9 33.0613 102.194 33.0613 99.7638C33.0613 97.3334 35.0408 96.0708 37.4757 96.9546C39.9107 97.8429 41.8902 100.544 41.8902 102.974C41.8902 105.405 39.9107 106.667 37.4757 105.783ZM37.4757 95.1374C34.0398 93.8884 31.2441 95.665 31.2441 99.101C31.2441 102.226 33.5618 105.657 36.5649 107.195V111.325L38.373 111.988V107.853C41.3851 108.507 43.7028 106.762 43.7028 103.633C43.7028 100.197 40.9072 96.3865 37.4712 95.1329L37.4757 95.1374Z" fill="#13203D" stroke="#E9ECFF" stroke-width="0.225456" stroke-miterlimit="23.8"/>
<path d="M42.792 95.9079L44.8572 93.1258L43.288 91.6377L41.2184 94.4244C40.3391 93.7074 39.3877 93.0942 38.3866 92.6297V88.5039L36.5695 87.8411V91.9669C35.5504 91.6964 34.5764 91.6152 33.6836 91.7009L31.6635 87.4082L30.0854 87.7283L32.1145 92.0481C29.8283 92.8778 28.3403 95.0286 28.3403 98.0632L30.1575 98.7261C30.1575 94.6904 33.4401 92.6027 37.4758 94.0727C41.5114 95.5426 44.7941 100.02 44.7941 104.056L46.6113 104.719C46.6113 101.666 45.1007 98.4149 42.792 95.9124V95.9079Z" fill="#13203D" stroke="#E9ECFF" stroke-width="0.225456" stroke-miterlimit="23.8"/>
<path d="M37.4577 105.801C35.0227 104.917 33.0432 102.211 33.0432 99.7809C33.0432 97.3505 35.0227 96.0879 37.4577 96.9717C39.8926 97.86 41.8721 100.561 41.8721 102.991C41.8721 105.422 39.8926 106.684 37.4577 105.801ZM37.4577 95.1545C34.0217 93.9055 31.2261 95.6821 31.2261 99.118C31.2261 102.243 33.5438 105.674 36.5468 107.212V111.342L38.355 112.005V107.87C41.3671 108.524 43.6847 106.779 43.6847 103.65C43.6847 100.214 40.8891 96.4036 37.4532 95.15L37.4577 95.1545Z" fill="#13203D" stroke="#E9ECFF" stroke-width="0.225456" stroke-miterlimit="23.8"/>
<path d="M42.7696 95.9211L44.8348 93.1389L43.2656 91.6509L41.1959 94.4376C40.3166 93.7206 39.3652 93.1074 38.3642 92.6429V88.5171L36.547 87.8543V91.9801C35.5279 91.7096 34.554 91.6284 33.6612 91.7141L31.6411 87.4214L30.0629 87.7415L32.092 92.0613C29.8059 92.8909 28.3179 95.0418 28.3179 98.0764L30.135 98.7393C30.135 94.7036 33.4177 92.6159 37.4533 94.0859C41.489 95.5558 44.7716 100.033 44.7716 104.069L46.5888 104.732C46.5888 101.679 45.0782 98.4281 42.7696 95.9256V95.9211Z" fill="#13203D" stroke="#E9ECFF" stroke-width="0.225456" stroke-miterlimit="23.8"/>
<path d="M37.4391 105.815C35.0042 104.931 33.0247 102.225 33.0247 99.795C33.0247 97.3646 35.0042 96.1021 37.4391 96.9859C39.874 97.8742 41.8535 100.575 41.8535 103.006C41.8535 105.436 39.874 106.698 37.4391 105.815ZM37.4391 95.1687C34.0032 93.9197 31.2075 95.6963 31.2075 99.1322C31.2075 102.257 33.5252 105.688 36.5283 107.226V111.356L38.3364 112.019V107.884C41.3485 108.538 43.6662 106.793 43.6662 103.664C43.6662 100.228 40.8705 96.4177 37.4346 95.1642L37.4391 95.1687Z" fill="#13203D" stroke="#E9ECFF" stroke-width="0.225456" stroke-miterlimit="23.8"/>
<path d="M42.751 95.9352L44.8162 93.1531L43.247 91.6651L41.1773 94.4517C40.2981 93.7348 39.3466 93.1215 38.3456 92.6571V88.5313L36.5284 87.8684V91.9943C35.5094 91.7237 34.5354 91.6425 33.6426 91.7282L31.6225 87.4355L30.0443 87.7557L32.0734 92.0754C29.7873 92.9051 28.2993 95.0559 28.2993 98.0906L30.1165 98.7534C30.1165 94.7178 33.3991 92.63 37.4348 94.1C41.4704 95.57 44.7531 100.048 44.7531 104.083L46.5702 104.746C46.5702 101.693 45.0597 98.4423 42.751 95.9397V95.9352Z" fill="#13203D" stroke="#E9ECFF" stroke-width="0.225456" stroke-miterlimit="23.8"/>
<path d="M37.422 105.827C34.9871 104.944 33.0076 102.238 33.0076 99.8077C33.0076 97.3773 34.9871 96.1148 37.422 96.9986C39.8569 97.8869 41.8364 100.588 41.8364 103.018C41.8364 105.449 39.8569 106.711 37.422 105.827ZM37.422 95.1814C33.9861 93.9324 31.1904 95.709 31.1904 99.1449C31.1904 102.27 33.5081 105.701 36.5112 107.239V111.369L38.3193 112.032V107.897C41.3314 108.551 43.6491 106.806 43.6491 103.677C43.6491 100.241 40.8535 96.4304 37.4175 95.1769L37.422 95.1814Z" fill="#13203D" stroke="#E9ECFF" stroke-width="0.225456" stroke-miterlimit="23.8"/>
<path d="M42.7334 95.9479L44.7986 93.1658L43.2294 91.6778L41.1598 94.4644C40.2805 93.7475 39.3291 93.1342 38.328 92.6698V88.544L36.5109 87.8811V92.007C35.4918 91.7364 34.5178 91.6552 33.625 91.7409L31.605 87.4482L30.0268 87.7684L32.0559 92.0881C29.7697 92.9178 28.2817 95.0686 28.2817 98.1033L30.0989 98.7661C30.0989 94.7305 33.3815 92.6427 37.4172 94.1127C41.4529 95.5827 44.7355 100.06 44.7355 104.096L46.5527 104.759C46.5527 101.706 45.0421 98.455 42.7334 95.9524V95.9479Z" fill="#13203D" stroke="#E9ECFF" stroke-width="0.225456" stroke-miterlimit="23.8"/>
<path d="M37.4035 105.845C34.9685 104.962 32.989 102.256 32.989 99.8258C32.989 97.3954 34.9685 96.1328 37.4035 97.0166C39.8384 97.9049 41.8179 100.606 41.8179 103.036C41.8179 105.467 39.8384 106.729 37.4035 105.845ZM37.4035 95.1995C33.9675 93.9504 31.1719 95.727 31.1719 99.163C31.1719 102.288 33.4896 105.719 36.4926 107.257V111.387L38.3008 112.05V107.915C41.3129 108.569 43.6306 106.824 43.6306 103.695C43.6306 100.259 40.8349 96.4485 37.399 95.1949L37.4035 95.1995Z" fill="#13203D" stroke="#E9ECFF" stroke-width="0.225456" stroke-miterlimit="23.8"/>
<path d="M42.7154 95.966L44.7806 93.1839L43.2114 91.6959L41.1417 94.4825C40.2624 93.7655 39.311 93.1523 38.31 92.6879V88.562L36.4928 87.8992V92.025C35.4737 91.7545 34.4998 91.6733 33.607 91.759L31.5869 87.4663L30.0087 87.7865L32.0378 92.1062C29.7517 92.9359 28.2637 95.0867 28.2637 98.1213L30.0808 98.7842C30.0808 94.7485 33.3635 92.6608 37.3991 94.1308C41.4348 95.6007 44.7174 100.078 44.7174 104.114L46.5346 104.777C46.5346 101.724 45.024 98.4731 42.7154 95.9705V95.966Z" fill="#13203D" stroke="#E9ECFF" stroke-width="0.225456" stroke-miterlimit="23.8"/>
<path d="M37.381 105.86C34.9461 104.976 32.9666 102.27 32.9666 99.84C32.9666 97.4096 34.9461 96.147 37.381 97.0308C39.8159 97.9191 41.7954 100.62 41.7954 103.05C41.7954 105.481 39.8159 106.743 37.381 105.86ZM37.381 95.2136C33.9451 93.9646 31.1494 95.7412 31.1494 99.1771C31.1494 102.302 33.4671 105.733 36.4702 107.271V111.401L38.2783 112.064V107.929C41.2904 108.583 43.6081 106.838 43.6081 103.709C43.6081 100.273 40.8124 96.4626 37.3765 95.2091L37.381 95.2136Z" fill="#13203D" stroke="#E9ECFF" stroke-width="0.225456" stroke-miterlimit="23.8"/>
<path d="M42.6929 95.9801L44.7581 93.198L43.1889 91.71L41.1192 94.4966C40.24 93.7797 39.2885 93.1665 38.2875 92.702V88.5762L36.4703 87.9133V92.0392C35.4513 91.7686 34.4773 91.6875 33.5845 91.7731L31.5644 87.4805L29.9862 87.8006L32.0153 92.1203C29.7292 92.95 28.2412 95.1009 28.2412 98.1355L30.0584 98.7983C30.0584 94.7627 33.341 92.675 37.3767 94.1449C41.4123 95.6149 44.695 100.092 44.695 104.128L46.5121 104.791C46.5121 101.738 45.0016 98.4872 42.6929 95.9847V95.9801Z" fill="#13203D" stroke="#E9ECFF" stroke-width="0.225456" stroke-miterlimit="23.8"/>
<path d="M37.3629 105.873C34.928 104.99 32.9485 102.284 32.9485 99.8536C32.9485 97.4232 34.928 96.1607 37.3629 97.0445C39.7979 97.9328 41.7774 100.634 41.7774 103.064C41.7774 105.495 39.7979 106.757 37.3629 105.873ZM37.3629 95.2273C33.927 93.9783 31.1313 95.7549 31.1313 99.1908C31.1313 102.316 33.449 105.747 36.4521 107.285V111.415L38.2603 112.078V107.943C41.2723 108.597 43.59 106.852 43.59 103.722C43.59 100.287 40.7944 96.4763 37.3584 95.2228L37.3629 95.2273Z" fill="#13203D" stroke="#E9ECFF" stroke-width="0.225456" stroke-miterlimit="23.8"/>
<path d="M42.6748 95.9933L44.74 93.2112L43.1709 91.7232L41.1012 94.5098C40.2219 93.7929 39.2705 93.1796 38.2694 92.7152V88.5894L36.4523 87.9265V92.0524C35.4332 91.7818 34.4592 91.7007 33.5664 91.7863L31.5464 87.4937L29.9682 87.8138L31.9973 92.1335C29.7112 92.9632 28.2231 95.1141 28.2231 98.1487L30.0403 98.8115C30.0403 94.7759 33.323 92.6881 37.3586 94.1581C41.3943 95.6281 44.6769 100.106 44.6769 104.141L46.4941 104.804C46.4941 101.751 44.9835 98.5004 42.6748 95.9978V95.9933Z" fill="#13203D" stroke="#E9ECFF" stroke-width="0.225456" stroke-miterlimit="23.8"/>
<path d="M37.3449 105.886C34.91 105.002 32.9305 102.297 32.9305 99.8663C32.9305 97.4359 34.91 96.1734 37.3449 97.0572C39.7798 97.9455 41.7593 100.646 41.7593 103.077C41.7593 105.507 39.7798 106.77 37.3449 105.886ZM37.3449 95.24C33.9089 93.991 31.1133 95.7676 31.1133 99.2035C31.1133 102.328 33.431 105.76 36.434 107.297V111.428L38.2422 112.091V107.956C41.2543 108.61 43.572 106.864 43.572 103.735C43.572 100.299 40.7763 96.489 37.3404 95.2355L37.3449 95.24Z" fill="#13203D" stroke="#E9ECFF" stroke-width="0.225456" stroke-miterlimit="23.8"/>
<path d="M42.6568 96.0065L44.722 93.2244L43.1528 91.7364L41.0831 94.523C40.2038 93.8061 39.2524 93.1928 38.2514 92.7284V88.6026L36.4342 87.9397V92.0655C35.4151 91.795 34.4412 91.7138 33.5484 91.7995L31.5283 87.5068L29.9501 87.827L31.9792 92.1467C29.6931 92.9764 28.2051 95.1272 28.2051 98.1619L30.0222 98.8247C30.0222 94.7891 33.3049 92.7013 37.3405 94.1713C41.3762 95.6413 44.6588 100.119 44.6588 104.154L46.476 104.817C46.476 101.765 44.9654 98.5136 42.6568 96.011V96.0065Z" fill="#13203D" stroke="#E9ECFF" stroke-width="0.225456" stroke-miterlimit="23.8"/>
<path d="M37.3268 105.904C34.8919 105.02 32.9124 102.314 32.9124 99.8839C32.9124 97.4535 34.8919 96.191 37.3268 97.0747C39.7617 97.963 41.7412 100.664 41.7412 103.094C41.7412 105.525 39.7617 106.787 37.3268 105.904ZM37.3268 95.2576C33.8909 94.0085 31.0952 95.7851 31.0952 99.2211C31.0952 102.346 33.4129 105.777 36.416 107.315V111.445L38.2241 112.108V107.973C41.2362 108.627 43.5539 106.882 43.5539 103.753C43.5539 100.317 40.7582 96.5066 37.3223 95.2531L37.3268 95.2576Z" fill="#13203D" stroke="#E9ECFF" stroke-width="0.225456" stroke-miterlimit="23.8"/>
<path d="M42.6387 96.0241L44.7039 93.242L43.1347 91.754L41.065 94.5406C40.1858 93.8236 39.2343 93.2104 38.2333 92.746V88.6201L36.4161 87.9573V92.0831C35.3971 91.8126 34.4231 91.7314 33.5303 91.8171L31.5102 87.5244L29.932 87.8446L31.9611 92.1643C29.675 92.994 28.187 95.1448 28.187 98.1794L30.0042 98.8423C30.0042 94.8066 33.2868 92.7189 37.3225 94.1889C41.3581 95.6589 44.6408 100.136 44.6408 104.172L46.4579 104.835C46.4579 101.782 44.9474 98.5312 42.6387 96.0286V96.0241Z" fill="#13203D" stroke="#E9ECFF" stroke-width="0.225456" stroke-miterlimit="23.8"/>
<path d="M37.3043 105.918C34.8694 105.034 32.8899 102.329 32.8899 99.8986C32.8899 97.4682 34.8694 96.2056 37.3043 97.0894C39.7393 97.9777 41.7188 100.679 41.7188 103.109C41.7188 105.539 39.7393 106.802 37.3043 105.918ZM37.3043 95.2722C33.8684 94.0232 31.0728 95.7998 31.0728 99.2357C31.0728 102.361 33.3904 105.792 36.3935 107.33V111.46L38.2017 112.123V107.988C41.2137 108.642 43.5314 106.897 43.5314 103.767C43.5314 100.331 40.7358 96.5212 37.2998 95.2677L37.3043 95.2722Z" fill="#13203D" stroke="#E9ECFF" stroke-width="0.225456" stroke-miterlimit="23.8"/>
<path d="M42.6163 96.0383L44.6814 93.2561L43.1123 91.7681L41.0426 94.5548C40.1633 93.8378 39.2119 93.2246 38.2109 92.7601V88.6343L36.3937 87.9715V92.0973C35.3746 91.8267 34.4007 91.7456 33.5078 91.8313L31.4878 87.5386L29.9096 87.8587L31.9387 92.1784C29.6526 93.0081 28.1646 95.159 28.1646 98.1936L29.9817 98.8564C29.9817 94.8208 33.2644 92.7331 37.3 94.203C41.3357 95.673 44.6183 100.151 44.6183 104.186L46.4355 104.849C46.4355 101.796 44.9249 98.5453 42.6163 96.0428V96.0383Z" fill="#13203D" stroke="#E9ECFF" stroke-width="0.225456" stroke-miterlimit="23.8"/>
<path d="M37.2863 105.931C34.8514 105.048 32.8719 102.342 32.8719 99.9118C32.8719 97.4813 34.8514 96.2188 37.2863 97.1026C39.7212 97.9909 41.7007 100.692 41.7007 103.122C41.7007 105.553 39.7212 106.815 37.2863 105.931ZM37.2863 95.2854C33.8503 94.0364 31.0547 95.813 31.0547 99.2489C31.0547 102.374 33.3724 105.805 36.3754 107.343V111.473L38.1836 112.136V108.001C41.1957 108.655 43.5134 106.91 43.5134 103.781C43.5134 100.345 40.7177 96.5344 37.2818 95.2809L37.2863 95.2854Z" fill="#13203D" stroke="#E9ECFF" stroke-width="0.225456" stroke-miterlimit="23.8"/>
<path d="M42.5982 96.0519L44.6634 93.2698L43.0942 91.7818L41.0245 94.5684C40.1452 93.8515 39.1938 93.2382 38.1928 92.7738V88.648L36.3756 87.9851V92.111C35.3566 91.8404 34.3826 91.7592 33.4898 91.8449L31.4697 87.5522L29.8915 87.8724L31.9206 92.1921C29.6345 93.0218 28.1465 95.1726 28.1465 98.2073L29.9637 98.8701C29.9637 94.8345 33.2463 92.7467 37.2819 94.2167C41.3176 95.6867 44.6002 100.164 44.6002 104.2L46.4174 104.863C46.4174 101.81 44.9069 98.559 42.5982 96.0564V96.0519Z" fill="#13203D" stroke="#E9ECFF" stroke-width="0.225456" stroke-miterlimit="23.8"/>
<path d="M37.2682 105.946C34.8333 105.062 32.8538 102.356 32.8538 99.9259C32.8538 97.4955 34.8333 96.2329 37.2682 97.1167C39.7031 98.005 41.6826 100.706 41.6826 103.136C41.6826 105.567 39.7031 106.829 37.2682 105.946ZM37.2682 95.2996C33.8323 94.0505 31.0366 95.8271 31.0366 99.2631C31.0366 102.388 33.3543 105.819 36.3574 107.357V111.487L38.1655 112.15V108.015C41.1776 108.669 43.4953 106.924 43.4953 103.795C43.4953 100.359 40.6996 96.5486 37.2637 95.295L37.2682 95.2996Z" fill="#13203D" stroke="#E9ECFF" stroke-width="0.225456" stroke-miterlimit="23.8"/>
<path d="M42.5801 96.0661L44.6453 93.284L43.0761 91.796L41.0064 94.5826C40.1272 93.8656 39.1757 93.2524 38.1747 92.788V88.6621L36.3575 87.9993V92.1251C35.3385 91.8546 34.3645 91.7734 33.4717 91.8591L31.4516 87.5664L29.8734 87.8866L31.9025 92.2063C29.6164 93.036 28.1284 95.1868 28.1284 98.2214L29.9456 98.8843C29.9456 94.8486 33.2282 92.7609 37.2639 94.2309C41.2995 95.7008 44.5822 100.178 44.5822 104.214L46.3993 104.877C46.3993 101.824 44.8888 98.5731 42.5801 96.0706V96.0661Z" fill="#13203D" stroke="#E9ECFF" stroke-width="0.225456" stroke-miterlimit="23.8"/>
<path d="M37.2501 105.963C34.8152 105.079 32.8357 102.374 32.8357 99.9435C32.8357 97.5131 34.8152 96.2505 37.2501 97.1343C39.6851 98.0226 41.6646 100.724 41.6646 103.154C41.6646 105.584 39.6851 106.847 37.2501 105.963ZM37.2501 95.3171C33.8142 94.0681 31.0186 95.8447 31.0186 99.2806C31.0186 102.405 33.3362 105.837 36.3393 107.375V111.505L38.1475 112.168V108.033C41.1595 108.687 43.4772 106.942 43.4772 103.812C43.4772 100.376 40.6816 96.5662 37.2456 95.3126L37.2501 95.3171Z" fill="#13203D" stroke="#E9ECFF" stroke-width="0.225456" stroke-miterlimit="23.8"/>
<path d="M42.5621 96.0832L44.6272 93.301L43.0581 91.813L40.9884 94.5997C40.1091 93.8827 39.1577 93.2695 38.1567 92.805V88.6792L36.3395 88.0164V92.1422C35.3204 91.8717 34.3465 91.7905 33.4536 91.8762L31.4336 87.5835L29.8554 87.9036L31.8845 92.2234C29.5984 93.053 28.1104 95.2039 28.1104 98.2385L29.9275 98.9014C29.9275 94.8657 33.2102 92.778 37.2458 94.248C41.2815 95.7179 44.5641 100.195 44.5641 104.231L46.3813 104.894C46.3813 101.841 44.8707 98.5902 42.5621 96.0877V96.0832Z" fill="#13203D" stroke="#E9ECFF" stroke-width="0.225456" stroke-miterlimit="23.8"/>
<path d="M37.2277 105.976C34.7928 105.093 32.8133 102.387 32.8133 99.9567C32.8133 97.5263 34.7928 96.2637 37.2277 97.1475C39.6626 98.0358 41.6421 100.737 41.6421 103.167C41.6421 105.598 39.6626 106.86 37.2277 105.976ZM37.2277 95.3303C33.7917 94.0813 30.9961 95.8579 30.9961 99.2938C30.9961 102.419 33.3138 105.85 36.3168 107.388V111.518L38.125 112.181V108.046C41.1371 108.7 43.4548 106.955 43.4548 103.825C43.4548 100.39 40.6591 96.5793 37.2232 95.3258L37.2277 95.3303Z" fill="#13203D" stroke="#E9ECFF" stroke-width="0.225456" stroke-miterlimit="23.8"/>
<path d="M42.544 96.0968L44.6092 93.3147L43.04 91.8267L40.9703 94.6133C40.091 93.8964 39.1396 93.2832 38.1386 92.8187V88.6929L36.3214 88.03V92.1559C35.3024 91.8853 34.3284 91.8042 33.4356 91.8898L31.4155 87.5972L29.8373 87.9173L31.8664 92.237C29.5803 93.0667 28.0923 95.2176 28.0923 98.2522L29.9095 98.915C29.9095 94.8794 33.1921 92.7917 37.2277 94.2616C41.2634 95.7316 44.546 100.209 44.546 104.245L46.3632 104.908C46.3632 101.855 44.8527 98.6039 42.544 96.1014V96.0968Z" fill="#13203D" stroke="#E9ECFF" stroke-width="0.225456" stroke-miterlimit="23.8"/>
<path d="M37.2091 105.99C34.7742 105.107 32.7947 102.401 32.7947 99.9708C32.7947 97.5404 34.7742 96.2779 37.2091 97.1617C39.6441 98.0499 41.6236 100.751 41.6236 103.181C41.6236 105.612 39.6441 106.874 37.2091 105.99ZM37.2091 95.3445C33.7732 94.0955 30.9775 95.872 30.9775 99.308C30.9775 102.433 33.2952 105.864 36.2983 107.402V111.532L38.1064 112.195V108.06C41.1185 108.714 43.4362 106.969 43.4362 103.84C43.4362 100.404 40.6406 96.5935 37.2046 95.34L37.2091 95.3445Z" fill="#13203D" stroke="#E9ECFF" stroke-width="0.225456" stroke-miterlimit="23.8"/>
<path d="M42.521 96.111L44.5862 93.3289L43.017 91.8409L40.9474 94.6275C40.0681 93.9106 39.1167 93.2973 38.1156 92.8329V88.707L36.2985 88.0442V92.17C35.2794 91.8995 34.3054 91.8183 33.4126 91.904L31.3926 87.6113L29.8144 87.9315L31.8435 92.2512C29.5573 93.0809 28.0693 95.2317 28.0693 98.2664L29.8865 98.9292C29.8865 94.8935 33.1691 92.8058 37.2048 94.2758C41.2405 95.7458 44.5231 100.223 44.5231 104.259L46.3403 104.922C46.3403 101.869 44.8297 98.6181 42.521 96.1155V96.111Z" fill="#13203D" stroke="#E9ECFF" stroke-width="0.225456" stroke-miterlimit="23.8"/>
<path d="M37.1916 106.003C34.7566 105.119 32.7771 102.414 32.7771 99.9835C32.7771 97.5531 34.7566 96.2906 37.1916 97.1743C39.6265 98.0626 41.606 100.764 41.606 103.194C41.606 105.624 39.6265 106.887 37.1916 106.003ZM37.1916 95.3572C33.7556 94.1082 30.96 95.8847 30.96 99.3207C30.96 102.446 33.2776 105.877 36.2807 107.415V111.545L38.0889 112.208V108.073C41.101 108.727 43.4186 106.982 43.4186 103.852C43.4186 100.416 40.623 96.6062 37.187 95.3527L37.1916 95.3572Z" fill="#13203D" stroke="#E9ECFF" stroke-width="0.225456" stroke-miterlimit="23.8"/>
<path d="M42.5035 96.1286L44.5686 93.3465L42.9995 91.8585L40.9298 94.6451C40.0505 93.9281 39.0991 93.3149 38.0981 92.8505V88.7246L36.2809 88.0618V92.1876C35.2618 91.9171 34.2879 91.8359 33.3951 91.9216L31.375 87.6289L29.7968 87.9491L31.8259 92.2688C29.5398 93.0985 28.0518 95.2493 28.0518 98.2839L29.8689 98.9468C29.8689 94.9111 33.1516 92.8234 37.1872 94.2934C41.2229 95.7633 44.5055 100.241 44.5055 104.277L46.3227 104.939C46.3227 101.887 44.8121 98.6356 42.5035 96.1331V96.1286Z" fill="#13203D" stroke="#E9ECFF" stroke-width="0.225456" stroke-miterlimit="23.8"/>
<path d="M37.1735 106.022C34.7386 105.138 32.7591 102.432 32.7591 100.002C32.7591 97.5717 34.7386 96.3091 37.1735 97.1929C39.6084 98.0812 41.5879 100.782 41.5879 103.213C41.5879 105.643 39.6084 106.906 37.1735 106.022ZM37.1735 95.3757C33.7375 94.1267 30.9419 95.9033 30.9419 99.3392C30.9419 102.464 33.2596 105.895 36.2626 107.433V111.563L38.0708 112.226V108.091C41.0829 108.745 43.4006 107 43.4006 103.871C43.4006 100.435 40.6049 96.6248 37.169 95.3712L37.1735 95.3757Z" fill="#13203D" stroke="#E9ECFF" stroke-width="0.225456" stroke-miterlimit="23.8"/>
<path d="M42.4854 96.1423L44.5506 93.3601L42.9814 91.8721L40.9117 94.6588C40.0324 93.9418 39.081 93.3286 38.08 92.8641V88.7383L36.2628 88.0755V92.2013C35.2438 91.9307 34.2698 91.8496 33.377 91.9353L31.3569 87.6426L29.7787 87.9627L31.8078 92.2825C29.5217 93.1121 28.0337 95.263 28.0337 98.2976L29.8509 98.9605C29.8509 94.9248 33.1335 92.8371 37.1692 94.307C41.2048 95.777 44.4874 100.255 44.4874 104.29L46.3046 104.953C46.3046 101.9 44.7941 98.6493 42.4854 96.1468V96.1423Z" fill="#13203D" stroke="#E9ECFF" stroke-width="0.225456" stroke-miterlimit="23.8"/>
<path d="M37.151 106.035C34.7161 105.152 32.7366 102.446 32.7366 100.016C32.7366 97.5853 34.7161 96.3228 37.151 97.2066C39.5859 98.0949 41.5654 100.796 41.5654 103.226C41.5654 105.657 39.5859 106.919 37.151 106.035ZM37.151 95.3894C33.7151 94.1404 30.9194 95.917 30.9194 99.3529C30.9194 102.478 33.2371 105.909 36.2402 107.447V111.577L38.0483 112.24V108.105C41.0604 108.759 43.3781 107.014 43.3781 103.885C43.3781 100.449 40.5825 96.6384 37.1465 95.3849L37.151 95.3894Z" fill="#13203D" stroke="#E9ECFF" stroke-width="0.225456" stroke-miterlimit="23.8"/>
<path d="M42.4673 96.1559L44.5325 93.3738L42.9633 91.8858L40.8936 94.6724C40.0144 93.9555 39.0629 93.3422 38.0619 92.8778V88.752L36.2448 88.0891V92.215C35.2257 91.9444 34.2517 91.8633 33.3589 91.9489L31.3388 87.6562L29.7607 87.9764L31.7898 92.2961C29.5036 93.1258 28.0156 95.2767 28.0156 98.3113L29.8328 98.9741C29.8328 94.9385 33.1154 92.8507 37.1511 94.3207C41.1867 95.7907 44.4694 100.268 44.4694 104.304L46.2865 104.967C46.2865 101.914 44.776 98.663 42.4673 96.1604V96.1559Z" fill="#13203D" stroke="#E9ECFF" stroke-width="0.225456" stroke-miterlimit="23.8"/>
<path d="M37.133 106.049C34.698 105.165 32.7185 102.459 32.7185 100.029C32.7185 97.5985 34.698 96.336 37.133 97.2198C39.5679 98.1081 41.5474 100.809 41.5474 103.239C41.5474 105.67 39.5679 106.932 37.133 106.049ZM37.133 95.4026C33.697 94.1536 30.9014 95.9301 30.9014 99.3661C30.9014 102.491 33.219 105.922 36.2221 107.46V111.59L38.0303 112.253V108.118C41.0424 108.772 43.36 107.027 43.36 103.898C43.36 100.462 40.5644 96.6516 37.1284 95.3981L37.133 95.4026Z" fill="#13203D" stroke="#E9ECFF" stroke-width="0.225456" stroke-miterlimit="23.8"/>
<path d="M42.4449 96.1691L44.51 93.387L42.9409 91.899L40.8712 94.6856C39.9919 93.9687 39.0405 93.3554 38.0395 92.891V88.7652L36.2223 88.1023V92.2281C35.2032 91.9576 34.2293 91.8764 33.3365 91.9621L31.3164 87.6694L29.7382 87.9896L31.7673 92.3093C29.4812 93.139 27.9932 95.2898 27.9932 98.3245L29.8103 98.9873C29.8103 94.9517 33.093 92.8639 37.1286 94.3339C41.1643 95.8039 44.4469 100.281 44.4469 104.317L46.2641 104.98C46.2641 101.927 44.7535 98.6762 42.4449 96.1736V96.1691Z" fill="#13203D" stroke="#E9ECFF" stroke-width="0.225456" stroke-miterlimit="23.8"/>
<path d="M37.1149 106.067C34.68 105.183 32.7005 102.477 32.7005 100.047C32.7005 97.6166 34.68 96.354 37.1149 97.2378C39.5498 98.1261 41.5293 100.827 41.5293 103.257C41.5293 105.688 39.5498 106.95 37.1149 106.067ZM37.1149 95.4207C33.679 94.1716 30.8833 95.9482 30.8833 99.3842C30.8833 102.509 33.201 105.94 36.2041 107.478V111.608L38.0122 112.271V108.136C41.0243 108.79 43.342 107.045 43.342 103.916C43.342 100.48 40.5463 96.6697 37.1104 95.4161L37.1149 95.4207Z" fill="#13203D" stroke="#E9ECFF" stroke-width="0.225456" stroke-miterlimit="23.8"/>
<path d="M42.4268 96.1872L44.492 93.4051L42.9228 91.917L40.8531 94.7037C39.9738 93.9867 39.0224 93.3735 38.0214 92.9091V88.7832L36.2042 88.1204V92.2462C35.1852 91.9757 34.2112 91.8945 33.3184 91.9802L31.2983 87.6875L29.7201 88.0076L31.7492 92.3274C29.4631 93.157 27.9751 95.3079 27.9751 98.3425L29.7923 99.0054C29.7923 94.9697 33.0749 92.882 37.1106 94.352C41.1462 95.8219 44.4288 100.299 44.4288 104.335L46.246 104.998C46.246 101.945 44.7355 98.6942 42.4268 96.1917V96.1872Z" fill="#13203D" stroke="#E9ECFF" stroke-width="0.225456" stroke-miterlimit="23.8"/>
<path d="M37.0968 106.08C34.6619 105.197 32.6824 102.491 32.6824 100.061C32.6824 97.6303 34.6619 96.3677 37.0968 97.2515C39.5317 98.1398 41.5112 100.841 41.5112 103.271C41.5112 105.702 39.5317 106.964 37.0968 106.08ZM37.0968 95.4343C33.6609 94.1853 30.8652 95.9619 30.8652 99.3978C30.8652 102.523 33.1829 105.954 36.186 107.492V111.622L37.9941 112.285V108.15C41.0062 108.804 43.3239 107.059 43.3239 103.929C43.3239 100.494 40.5283 96.6834 37.0923 95.4298L37.0968 95.4343Z" fill="#13203D" stroke="#E9ECFF" stroke-width="0.225456" stroke-miterlimit="23.8"/>
<path d="M42.4087 96.2009L44.4739 93.4187L42.9047 91.9307L40.8351 94.7173C39.9558 94.0004 39.0044 93.3872 38.0033 92.9227V88.7969L36.1862 88.134V92.2599C35.1671 91.9893 34.1931 91.9082 33.3003 91.9938L31.2802 87.7012L29.7021 88.0213L31.7312 92.341C29.445 93.1707 27.957 95.3216 27.957 98.3562L29.7742 99.019C29.7742 94.9834 33.0568 92.8957 37.0925 94.3656C41.1281 95.8356 44.4108 100.313 44.4108 104.349L46.228 105.012C46.228 101.959 44.7174 98.7079 42.4087 96.2054V96.2009Z" fill="#13203D" stroke="#E9ECFF" stroke-width="0.225456" stroke-miterlimit="23.8"/>
<path d="M37.0744 106.094C34.6394 105.211 32.6599 102.505 32.6599 100.075C32.6599 97.6444 34.6394 96.3819 37.0744 97.2657C39.5093 98.154 41.4888 100.855 41.4888 103.285C41.4888 105.716 39.5093 106.978 37.0744 106.094ZM37.0744 95.4485C33.6384 94.1995 30.8428 95.9761 30.8428 99.412C30.8428 102.537 33.1605 105.968 36.1635 107.506V111.636L37.9717 112.299V108.164C40.9838 108.818 43.3015 107.073 43.3015 103.944C43.3015 100.508 40.5058 96.6975 37.0699 95.444L37.0744 95.4485Z" fill="#13203D" stroke="#E9ECFF" stroke-width="0.225456" stroke-miterlimit="23.8"/>
<path d="M42.3907 96.215L44.4558 93.4329L42.8867 91.9449L40.817 94.7315C39.9377 94.0146 38.9863 93.4013 37.9853 92.9369V88.811L36.1681 88.1482V92.274C35.149 92.0035 34.1751 91.9223 33.2823 92.008L31.2622 87.7153L29.684 88.0355L31.7131 92.3552C29.427 93.1849 27.939 95.3357 27.939 98.3704L29.7561 99.0332C29.7561 94.9976 33.0388 92.9098 37.0744 94.3798C41.1101 95.8498 44.3927 100.327 44.3927 104.363L46.2099 105.026C46.2099 101.973 44.6993 98.7221 42.3907 96.2195V96.215Z" fill="#13203D" stroke="#E9ECFF" stroke-width="0.225456" stroke-miterlimit="23.8"/>
<path d="M37.0568 106.107C34.6219 105.223 32.6424 102.517 32.6424 100.087C32.6424 97.6566 34.6219 96.3941 37.0568 97.2779C39.4917 98.1662 41.4712 100.867 41.4712 103.298C41.4712 105.728 39.4917 106.99 37.0568 106.107ZM37.0568 95.4607C33.6208 94.2117 30.8252 95.9883 30.8252 99.4242C30.8252 102.549 33.1429 105.98 36.1459 107.518V111.648L37.9541 112.311V108.176C40.9662 108.83 43.2839 107.085 43.2839 103.956C43.2839 100.52 40.4882 96.7097 37.0523 95.4562L37.0568 95.4607Z" fill="#13203D" stroke="#E9ECFF" stroke-width="0.225456" stroke-miterlimit="23.8"/>
<path d="M42.3682 96.2272L44.4334 93.4451L42.8642 91.9571L40.7945 94.7437C39.9152 94.0268 38.9638 93.4135 37.9628 92.9491V88.8233L36.1456 88.1604V92.2863C35.1266 92.0157 34.1526 91.9345 33.2598 92.0202L31.2397 87.7275L29.6615 88.0477L31.6906 92.3674C29.4045 93.1971 27.9165 95.3479 27.9165 98.3826L29.7337 99.0454C29.7337 95.0098 33.0163 92.922 37.052 94.392C41.0876 95.862 44.3703 100.34 44.3703 104.375L46.1874 105.038C46.1874 101.985 44.6769 98.7343 42.3682 96.2317V96.2272Z" fill="#13203D" stroke="#E9ECFF" stroke-width="0.225456" stroke-miterlimit="23.8"/>
<path d="M37.0382 106.126C34.6033 105.242 32.6238 102.537 32.6238 100.107C32.6238 97.6762 34.6033 96.4136 37.0382 97.2974C39.4732 98.1857 41.4527 100.887 41.4527 103.317C41.4527 105.747 39.4732 107.01 37.0382 106.126ZM37.0382 95.4802C33.6023 94.2312 30.8066 96.0078 30.8066 99.4437C30.8066 102.569 33.1243 106 36.1274 107.538V111.668L37.9355 112.331V108.196C40.9476 108.85 43.2653 107.105 43.2653 103.975C43.2653 100.539 40.4697 96.7292 37.0337 95.4757L37.0382 95.4802Z" fill="#13203D" stroke="#E9ECFF" stroke-width="0.225456" stroke-miterlimit="23.8"/>
<path d="M42.3501 96.2463L44.4153 93.4641L42.8461 91.9761L40.7765 94.7628C39.8972 94.0458 38.9458 93.4326 37.9447 92.9681V88.8423L36.1276 88.1795V92.3053C35.1085 92.0347 34.1345 91.9536 33.2417 92.0393L31.2217 87.7466L29.6435 88.0667L31.6726 92.3865C29.3864 93.2161 27.8984 95.367 27.8984 98.4016L29.7156 99.0644C29.7156 95.0288 32.9982 92.9411 37.0339 94.411C41.0696 95.881 44.3522 100.359 44.3522 104.394L46.1694 105.057C46.1694 102.004 44.6588 98.7533 42.3501 96.2508V96.2463Z" fill="#13203D" stroke="#E9ECFF" stroke-width="0.225456" stroke-miterlimit="23.8"/>
<path d="M37.0202 106.139C34.5852 105.255 32.6057 102.55 32.6057 100.119C32.6057 97.6889 34.5852 96.4263 37.0202 97.3101C39.4551 98.1984 41.4346 100.899 41.4346 103.33C41.4346 105.76 39.4551 107.023 37.0202 106.139ZM37.0202 95.4929C33.5842 94.2439 30.7886 96.0205 30.7886 99.4564C30.7886 102.581 33.1063 106.013 36.1093 107.55V111.681L37.9175 112.343V108.209C40.9296 108.862 43.2472 107.117 43.2472 103.988C43.2472 100.552 40.4516 96.7419 37.0157 95.4884L37.0202 95.4929Z" fill="#13203D" stroke="#E9ECFF" stroke-width="0.225456" stroke-miterlimit="23.8"/>
<path d="M42.3321 96.2589L44.3972 93.4768L42.8281 91.9888L40.7584 94.7755C39.8791 94.0585 38.9277 93.4453 37.9267 92.9808V88.855L36.1095 88.1921V92.318C35.0904 92.0474 34.1165 91.9663 33.2237 92.0519L31.2036 87.7593L29.6254 88.0794L31.6545 92.3992C29.3684 93.2288 27.8804 95.3797 27.8804 98.4143L29.6975 99.0771C29.6975 95.0415 32.9802 92.9538 37.0158 94.4237C41.0515 95.8937 44.3341 100.371 44.3341 104.407L46.1513 105.07C46.1513 102.017 44.6407 98.766 42.3321 96.2635V96.2589Z" fill="#13203D" stroke="#E9ECFF" stroke-width="0.225456" stroke-miterlimit="23.8"/>
<path d="M36.9977 106.152C34.5628 105.268 32.5833 102.563 32.5833 100.132C32.5833 97.702 34.5628 96.4395 36.9977 97.3233C39.4326 98.2116 41.4121 100.913 41.4121 103.343C41.4121 105.773 39.4326 107.036 36.9977 106.152ZM36.9977 95.5061C33.5618 94.2571 30.7661 96.0337 30.7661 99.4696C30.7661 102.594 33.0838 106.026 36.0869 107.563V111.694L37.895 112.357V108.222C40.9071 108.876 43.2248 107.131 43.2248 104.001C43.2248 100.565 40.4291 96.7551 36.9932 95.5016L36.9977 95.5061Z" fill="#13203D" stroke="#E9ECFF" stroke-width="0.225456" stroke-miterlimit="23.8"/>
<path d="M42.314 96.2726L44.3792 93.4905L42.81 92.0025L40.7403 94.7891C39.8611 94.0722 38.9096 93.4589 37.9086 92.9945V88.8687L36.0914 88.2058V92.3317C35.0724 92.0611 34.0984 91.9799 33.2056 92.0656L31.1855 87.7729L29.6073 88.0931L31.6364 92.4128C29.3503 93.2425 27.8623 95.3933 27.8623 98.428L29.6795 99.0908C29.6795 95.0552 32.9621 92.9674 36.9978 94.4374C41.0334 95.9074 44.3161 100.385 44.3161 104.421L46.1332 105.083C46.1332 102.031 44.6227 98.7797 42.314 96.2771V96.2726Z" fill="#13203D" stroke="#E9ECFF" stroke-width="0.225456" stroke-miterlimit="23.8"/>
<path d="M36.9796 106.166C34.5447 105.282 32.5652 102.577 32.5652 100.147C32.5652 97.7162 34.5447 96.4536 36.9796 97.3374C39.4146 98.2257 41.3941 100.927 41.3941 103.357C41.3941 105.788 39.4146 107.05 36.9796 106.166ZM36.9796 95.5203C33.5437 94.2712 30.748 96.0478 30.748 99.4838C30.748 102.609 33.0657 106.04 36.0688 107.578V111.708L37.877 112.371V108.236C40.889 108.89 43.2067 107.145 43.2067 104.015C43.2067 100.579 40.4111 96.7693 36.9751 95.5158L36.9796 95.5203Z" fill="#13203D" stroke="#E9ECFF" stroke-width="0.225456" stroke-miterlimit="23.8"/>
<path d="M42.2915 96.2863L44.3567 93.5042L42.7876 92.0162L40.7179 94.8028C39.8386 94.0858 38.8872 93.4726 37.8861 93.0082V88.8823L36.069 88.2195V92.3453C35.0499 92.0748 34.0759 91.9936 33.1831 92.0793L31.1631 87.7866L29.5849 88.1068L31.614 92.4265C29.3279 93.2562 27.8398 95.407 27.8398 98.4416L29.657 99.1045C29.657 95.0688 32.9397 92.9811 36.9753 94.4511C41.011 95.9211 44.2936 100.399 44.2936 104.434L46.1108 105.097C46.1108 102.044 44.6002 98.7934 42.2915 96.2908V96.2863Z" fill="#13203D" stroke="#E9ECFF" stroke-width="0.225456" stroke-miterlimit="23.8"/>
<path d="M36.9616 106.184C34.5267 105.3 32.5472 102.595 32.5472 100.164C32.5472 97.7338 34.5267 96.4712 36.9616 97.355C39.3965 98.2433 41.376 100.944 41.376 103.375C41.376 105.805 39.3965 107.068 36.9616 106.184ZM36.9616 95.5378C33.5256 94.2888 30.73 96.0654 30.73 99.5013C30.73 102.626 33.0477 106.058 36.0507 107.595V111.726L37.8589 112.388V108.254C40.871 108.907 43.1887 107.162 43.1887 104.033C43.1887 100.597 40.393 96.7869 36.9571 95.5333L36.9616 95.5378Z" fill="#13203D" stroke="#E9ECFF" stroke-width="0.225456" stroke-miterlimit="23.8"/>
<path d="M42.2735 96.3039L44.3387 93.5218L42.7695 92.0337L40.6998 94.8204C39.8205 94.1034 38.8691 93.4902 37.8681 93.0258V88.8999L36.0509 88.2371V92.3629C35.0318 92.0924 34.0579 92.0112 33.1651 92.0969L31.145 87.8042L29.5668 88.1243L31.5959 92.4441C29.3098 93.2738 27.8218 95.4246 27.8218 98.4592L29.6389 99.1221C29.6389 95.0864 32.9216 92.9987 36.9572 94.4687C40.9929 95.9386 44.2755 100.416 44.2755 104.452L46.0927 105.115C46.0927 102.062 44.5821 98.8109 42.2735 96.3084V96.3039Z" fill="#13203D" stroke="#E9ECFF" stroke-width="0.225456" stroke-miterlimit="23.8"/>
<path d="M36.9435 106.197C34.5086 105.313 32.5291 102.608 32.5291 100.177C32.5291 97.747 34.5086 96.4844 36.9435 97.3682C39.3784 98.2565 41.3579 100.957 41.3579 103.388C41.3579 105.818 39.3784 107.081 36.9435 106.197ZM36.9435 95.551C33.5076 94.302 30.7119 96.0786 30.7119 99.5145C30.7119 102.639 33.0296 106.071 36.0327 107.608V111.739L37.8408 112.402V108.267C40.8529 108.921 43.1706 107.176 43.1706 104.046C43.1706 100.61 40.3749 96.8 36.939 95.5465L36.9435 95.551Z" fill="#13203D" stroke="#E9ECFF" stroke-width="0.225456" stroke-miterlimit="23.8"/>
<path d="M42.2554 96.3175L44.3206 93.5354L42.7514 92.0474L40.6817 94.834C39.8025 94.1171 38.851 93.5039 37.85 93.0394V88.9136L36.0328 88.2507V92.3766C35.0138 92.106 34.0398 92.0249 33.147 92.1105L31.1269 87.8179L29.5487 88.138L31.5778 92.4578C29.2917 93.2874 27.8037 95.4383 27.8037 98.4729L29.6209 99.1357C29.6209 95.1001 32.9035 93.0124 36.9392 94.4823C40.9748 95.9523 44.2575 100.43 44.2575 104.466L46.0746 105.128C46.0746 102.076 44.5641 98.8246 42.2554 96.3221V96.3175Z" fill="#13203D" stroke="#E9ECFF" stroke-width="0.225456" stroke-miterlimit="23.8"/>
<path d="M36.921 106.211C34.4861 105.327 32.5066 102.622 32.5066 100.192C32.5066 97.7611 34.4861 96.4986 36.921 97.3824C39.356 98.2707 41.3355 100.972 41.3355 103.402C41.3355 105.832 39.356 107.095 36.921 106.211ZM36.921 95.5652C33.4851 94.3162 30.6895 96.0927 30.6895 99.5287C30.6895 102.654 33.0071 106.085 36.0102 107.623V111.753L37.8184 112.416V108.281C40.8304 108.935 43.1481 107.19 43.1481 104.06C43.1481 100.624 40.3525 96.8142 36.9165 95.5607L36.921 95.5652Z" fill="#13203D" stroke="#E9ECFF" stroke-width="0.225456" stroke-miterlimit="23.8"/>
<path d="M42.2373 96.3317L44.3025 93.5496L42.7333 92.0616L40.6637 94.8482C39.7844 94.1313 38.833 93.518 37.8319 93.0536V88.9277L36.0148 88.2649V92.3907C34.9957 92.1202 34.0217 92.039 33.1289 92.1247L31.1089 87.832L29.5307 88.1522L31.5598 92.4719C29.2737 93.3016 27.7856 95.4524 27.7856 98.4871L29.6028 99.1499C29.6028 95.1142 32.8854 93.0265 36.9211 94.4965C40.9568 95.9665 44.2394 100.444 44.2394 104.48L46.0566 105.143C46.0566 102.09 44.546 98.8388 42.2373 96.3362V96.3317Z" fill="#13203D" stroke="#E9ECFF" stroke-width="0.225456" stroke-miterlimit="23.8"/>
</svg>
