<svg width="88" height="36" viewBox="0 0 88 36" fill="none" xmlns="http://www.w3.org/2000/svg">
<path d="M7.78488 35.48C5.22488 35.48 3.28888 34.76 1.97688 33.32C0.664881 31.848 0.00888094 29.752 0.00888094 27.032V25.112H5.00088V27.416C5.00088 29.592 5.91288 30.68 7.73688 30.68C8.63288 30.68 9.30488 30.424 9.75288 29.912C10.2329 29.368 10.4729 28.504 10.4729 27.32C10.4729 25.912 10.1529 24.68 9.51288 23.624C8.87288 22.536 7.68888 21.24 5.96088 19.736C3.78488 17.816 2.26488 16.088 1.40088 14.552C0.536881 12.984 0.104881 11.224 0.104881 9.272C0.104881 6.616 0.776881 4.568 2.12088 3.128C3.46488 1.656 5.41688 0.919998 7.97688 0.919998C10.5049 0.919998 12.4089 1.656 13.6889 3.128C15.0009 4.568 15.6569 6.648 15.6569 9.368V10.76H10.6649V9.032C10.6649 7.88 10.4409 7.048 9.99288 6.536C9.54488 5.992 8.88888 5.72 8.02488 5.72C6.26488 5.72 5.38488 6.792 5.38488 8.936C5.38488 10.152 5.70488 11.288 6.34488 12.344C7.01688 13.4 8.21688 14.68 9.94488 16.184C12.1529 18.104 13.6729 19.848 14.5049 21.416C15.3369 22.984 15.7529 24.824 15.7529 26.936C15.7529 29.688 15.0649 31.8 13.6889 33.272C12.3449 34.744 10.3769 35.48 7.78488 35.48ZM18.7803 1.4H24.0603V35H18.7803V1.4ZM34.8786 35.48C32.3186 35.48 30.3826 34.76 29.0706 33.32C27.7586 31.848 27.1026 29.752 27.1026 27.032V25.112H32.0946V27.416C32.0946 29.592 33.0066 30.68 34.8306 30.68C35.7266 30.68 36.3986 30.424 36.8466 29.912C37.3266 29.368 37.5666 28.504 37.5666 27.32C37.5666 25.912 37.2466 24.68 36.6066 23.624C35.9666 22.536 34.7826 21.24 33.0546 19.736C30.8786 17.816 29.3586 16.088 28.4946 14.552C27.6306 12.984 27.1986 11.224 27.1986 9.272C27.1986 6.616 27.8706 4.568 29.2146 3.128C30.5586 1.656 32.5106 0.919998 35.0706 0.919998C37.5986 0.919998 39.5026 1.656 40.7826 3.128C42.0946 4.568 42.7506 6.648 42.7506 9.368V10.76H37.7586V9.032C37.7586 7.88 37.5346 7.048 37.0866 6.536C36.6386 5.992 35.9826 5.72 35.1186 5.72C33.3586 5.72 32.4786 6.792 32.4786 8.936C32.4786 10.152 32.7986 11.288 33.4386 12.344C34.1106 13.4 35.3106 14.68 37.0386 16.184C39.2466 18.104 40.7666 19.848 41.5986 21.416C42.4306 22.984 42.8466 24.824 42.8466 26.936C42.8466 29.688 42.1586 31.8 40.7826 33.272C39.4386 34.744 37.4706 35.48 34.8786 35.48ZM45.874 1.4H53.41L56.77 25.448H56.866L60.226 1.4H67.762V35H62.77V9.56H62.674L58.834 35H54.418L50.578 9.56H50.482V35H45.874V1.4ZM79.3341 35.48C76.7421 35.48 74.7581 34.744 73.3821 33.272C72.0061 31.8 71.3181 29.72 71.3181 27.032V9.368C71.3181 6.68 72.0061 4.6 73.3821 3.128C74.7581 1.656 76.7421 0.919998 79.3341 0.919998C81.9261 0.919998 83.9101 1.656 85.2861 3.128C86.6621 4.6 87.3501 6.68 87.3501 9.368V27.032C87.3501 29.72 86.6621 31.8 85.2861 33.272C83.9101 34.744 81.9261 35.48 79.3341 35.48ZM79.3341 30.68C81.1581 30.68 82.0701 29.576 82.0701 27.368V9.032C82.0701 6.824 81.1581 5.72 79.3341 5.72C77.5101 5.72 76.5981 6.824 76.5981 9.032V27.368C76.5981 29.576 77.5101 30.68 79.3341 30.68Z" fill="#13203D"/>
</svg>
