<svg width="59" height="23" viewBox="0 0 59 23" fill="none" xmlns="http://www.w3.org/2000/svg">
<path d="M0.0704346 17.2467V15.9854H3.42439V17.4989C3.42439 19.0756 4.13388 19.6432 5.26261 19.6432C6.39135 19.6432 7.13309 19.0756 7.13309 17.4359C7.13309 15.607 6.3591 14.4718 4.03713 12.4852C1.07017 9.93104 0.0704346 8.10213 0.0704346 5.5795C0.0704346 2.11088 1.90866 0.0927734 5.35936 0.0927734C8.81006 0.0927734 10.5193 2.11088 10.5193 5.64256V6.55702H7.16533V5.42183C7.16533 3.84519 6.52034 3.24606 5.39161 3.24606C4.26287 3.24606 3.58563 3.84519 3.58563 5.35877C3.58563 6.96695 4.39187 8.10213 6.71384 10.0887C9.6808 12.6429 10.6483 14.4402 10.6483 17.1836C10.6483 20.7784 8.77781 22.7965 5.29486 22.7965C1.81191 22.7965 0.0704346 20.7784 0.0704346 17.2467Z" fill="white"/>
<path d="M12.6478 0.408203H16.1952V22.4812H12.6478V0.408203Z" fill="white"/>
<path d="M18.2256 17.2467V15.9854H21.5795V17.4989C21.5795 19.0756 22.289 19.6432 23.4178 19.6432C24.5465 19.6432 25.2882 19.0756 25.2882 17.4359C25.2882 15.607 24.5142 14.4718 22.1923 12.4852C19.2253 9.93104 18.2256 8.10213 18.2256 5.5795C18.2256 2.11088 20.0638 0.0927734 23.5145 0.0927734C26.9652 0.0927734 28.6744 2.11088 28.6744 5.64256V6.55702H25.3205V5.42183C25.3205 3.84519 24.6755 3.24606 23.5468 3.24606C22.418 3.24606 21.7408 3.84519 21.7408 5.35877C21.7408 6.96695 22.547 8.10213 24.869 10.0887C27.836 12.6429 28.8034 14.4402 28.8034 17.1836C28.8034 20.7784 26.933 22.7965 23.45 22.7965C19.9671 22.7965 18.2256 20.7784 18.2256 17.2467Z" fill="white"/>
<path d="M30.8029 0.408203H35.8016L38.1558 16.4269L40.51 0.408203H45.5087V22.4812H42.1548V5.7688L39.5103 22.4812H36.5433L33.8989 5.7688V22.4812H30.8029V0.408203Z" fill="white"/>
<path d="M47.8951 17.2467V5.64256C47.8951 2.11088 49.7979 0.0927734 53.2808 0.0927734C56.7638 0.0927734 58.6665 2.11088 58.6665 5.64256V17.2467C58.6665 20.7784 56.7638 22.7965 53.2808 22.7965C49.7979 22.7965 47.8951 20.7784 47.8951 17.2467ZM55.119 17.4674V5.42183C55.119 3.84519 54.4095 3.24606 53.2808 3.24606C52.1521 3.24606 51.4426 3.84519 51.4426 5.42183V17.4674C51.4426 19.044 52.1521 19.6432 53.2808 19.6432C54.4095 19.6432 55.119 19.044 55.119 17.4674Z" fill="white"/>
</svg>
