<svg width="137" height="150" viewBox="0 0 137 150" fill="none" xmlns="http://www.w3.org/2000/svg">
<path d="M67.2768 145.347L6.99902 116.137V55.814L67.2768 85.0195V145.347Z" fill="#A0F2E0" stroke="#13203D" stroke-width="0.450911" stroke-linecap="round" stroke-linejoin="round"/>
<path d="M62.6865 138.768L11.6523 114.04V62.9741L62.6865 87.7021V138.768Z" fill="#13203D" stroke="#A0F2E0" stroke-width="0.450911" stroke-linecap="round" stroke-linejoin="round"/>
<path d="M131.374 104.495L67.2993 145.388V85.065L131.374 44.1719V104.495Z" fill="#A0F2E0" stroke="#13203D" stroke-width="0.450911" stroke-linecap="round" stroke-linejoin="round"/>
<path d="M125.728 103.142L72.9448 136.825V87.1348L125.728 53.4473V103.142Z" fill="#13203D" stroke="#A0F2E0" stroke-width="0.450911" stroke-linecap="round" stroke-linejoin="round"/>
<path d="M71.0735 14.9165L6.99902 55.8142L67.2813 85.0242L131.378 44.1716L71.0735 14.9165Z" fill="#A0F2E0" stroke="#13203D" stroke-width="0.450911" stroke-linecap="round" stroke-linejoin="round"/>
<path d="M70.1808 20.5889L16.4683 54.8671L66.9974 79.3516L120.723 45.1094L70.1763 20.5889H70.1808Z" fill="#13203D" stroke="#13203D" stroke-width="0.450911" stroke-linecap="round" stroke-linejoin="round"/>
<path d="M85.9944 39.8877L84.069 39.0039L53.0869 58.6772L55.0078 59.588L85.9944 39.8877Z" stroke="#A0F2E0" stroke-width="0.450911" stroke-linecap="round" stroke-linejoin="round"/>
<path d="M55.5217 19.8226L55.3594 59.363L83.7172 41.3671V2.15137L55.5217 19.8226Z" fill="#A0F2E0" stroke="#13203D" stroke-width="0.450911" stroke-linecap="round" stroke-linejoin="round"/>
<path d="M5.93945 66.0137L13.1135 69.4902V76.087L5.93945 72.5519V66.0137Z" fill="#13203D" stroke="#A0F2E0" stroke-width="0.450911" stroke-linecap="round" stroke-linejoin="round"/>
<path d="M6.94499 65.207L14.119 68.6836L13.1135 69.4907L5.93945 66.0142L6.94499 65.207Z" fill="#13203D" stroke="#A0F2E0" stroke-width="0.450911" stroke-linecap="round" stroke-linejoin="round"/>
<path d="M13.1133 69.4907V76.0876L14.1188 75.2804V68.6836L13.1133 69.4907Z" fill="#13203D" stroke="#A0F2E0" stroke-width="0.450911" stroke-linecap="round" stroke-linejoin="round"/>
<path d="M5.93945 101.356L13.1135 104.833V111.43L5.93945 107.89V101.356Z" fill="#13203D" stroke="#A0F2E0" stroke-width="0.450911" stroke-linecap="round" stroke-linejoin="round"/>
<path d="M6.94499 100.549L14.119 104.025L13.1135 104.832L5.93945 101.356L6.94499 100.549Z" fill="#13203D" stroke="#A0F2E0" stroke-width="0.450911" stroke-linecap="round" stroke-linejoin="round"/>
<path d="M13.1133 104.833V111.43L14.1188 110.623V104.026L13.1133 104.833Z" fill="#13203D" stroke="#A0F2E0" stroke-width="0.450911" stroke-linecap="round" stroke-linejoin="round"/>
<path d="M60.1211 90.6014L67.5071 94.105L74.6089 89.5508L75.5919 90.164L67.5071 95.4216L59.1201 91.4085L60.1211 90.6014Z" fill="#13203D" stroke="#A0F2E0" stroke-width="0.450911" stroke-linecap="round" stroke-linejoin="round"/>
<path d="M67.5073 95.4222V102.024L75.5922 96.7659V90.1646L67.5073 95.4222Z" fill="#13203D" stroke="#A0F2E0" stroke-width="0.450911" stroke-linecap="round" stroke-linejoin="round"/>
<path d="M59.1201 91.4087L67.5071 95.4218V102.023L59.1201 97.9469V91.4087Z" fill="#13203D" stroke="#A0F2E0" stroke-width="0.450911" stroke-linecap="round" stroke-linejoin="round"/>
<path d="M60.1211 125.015L67.5071 128.519L74.6089 123.965L75.5919 124.578L67.5071 129.836L59.1201 125.823L60.1211 125.015Z" fill="#13203D" stroke="#A0F2E0" stroke-width="0.450911" stroke-linecap="round" stroke-linejoin="round"/>
<path d="M67.5073 129.836V136.433L75.5922 131.175V124.578L67.5073 129.836Z" fill="#13203D" stroke="#A0F2E0" stroke-width="0.450911" stroke-linecap="round" stroke-linejoin="round"/>
<path d="M59.1201 125.823L67.5071 129.836V136.433L59.1201 132.361V125.823Z" fill="#13203D" stroke="#A0F2E0" stroke-width="0.450911" stroke-linecap="round" stroke-linejoin="round"/>
<path d="M123.068 94.1453L131.455 88.8516L132.438 89.4648L124.353 94.7269L123.068 94.1453Z" fill="#13203D" stroke="#A0F2E0" stroke-width="0.450911" stroke-linecap="round" stroke-linejoin="round"/>
<path d="M124.354 94.7275V101.324L132.438 96.0667V89.4653L124.354 94.7275Z" fill="#13203D" stroke="#A0F2E0" stroke-width="0.450911" stroke-linecap="round" stroke-linejoin="round"/>
<path d="M124.353 94.7277V101.325L123.068 100.296V94.146L124.353 94.7277Z" fill="#13203D" stroke="#A0F2E0" stroke-width="0.450911" stroke-linecap="round" stroke-linejoin="round"/>
<path d="M123.068 61.1032L131.455 55.814L132.438 56.4272L124.353 61.6848L123.068 61.1032Z" fill="#13203D" stroke="#A0F2E0" stroke-width="0.450911" stroke-linecap="round" stroke-linejoin="round"/>
<path d="M124.354 61.6854V68.2822L132.438 63.0246V56.4277L124.354 61.6854Z" fill="#13203D" stroke="#A0F2E0" stroke-width="0.450911" stroke-linecap="round" stroke-linejoin="round"/>
<path d="M124.353 61.6847V68.2815L123.068 67.258V61.103L124.353 61.6847Z" fill="#13203D" stroke="#A0F2E0" stroke-width="0.450911" stroke-linecap="round" stroke-linejoin="round"/>
<path d="M65.5904 38.5259C63.9536 35.0313 62.2807 31.3699 62.416 27.5146L66.1991 34.4046C66.7538 35.4146 67.4707 36.5419 68.6115 36.6952L68.359 33.904C68.332 33.5929 68.3049 33.2683 68.4402 32.9887C68.7242 32.389 69.5269 32.3123 70.1897 32.2447C72.8456 31.9696 75.3301 30.3689 76.6738 28.0647C77.2375 27.0998 77.5531 25.7471 76.764 24.958C76.0741 24.2681 74.8972 24.4124 74.0315 24.8633C72.566 25.6253 71.5605 27.0322 70.6181 28.3894L62.1455 40.5595C61.7487 41.1276 61.1534 41.7679 60.4951 41.5605C64.2692 33.6155 70.8435 27.4109 77.269 21.4048C70.8571 26.1935 65.8069 32.7903 62.8624 40.2348C62.6054 40.8841 62.416 41.7499 62.9661 42.1783C63.4441 42.5525 64.143 42.309 64.6841 42.034C68.2553 40.2348 71.4387 37.6737 73.9638 34.5759C74.0811 34.4316 74.2028 34.2693 74.1758 34.0844C74.1487 33.8995 73.8782 33.7823 73.779 33.9356C73.779 34.7608 75.1001 34.9547 75.6457 34.3369C76.1913 33.7192 76.1553 32.7993 76.0921 31.9787C76.5656 32.7632 77.1247 33.6019 78.004 33.8454C78.8833 34.0889 80.0241 33.2592 79.6814 32.4115" stroke="#A0F2E0" stroke-width="0.338183" stroke-linecap="round" stroke-linejoin="round"/>
<path d="M38.089 105.283C35.6541 104.4 33.6746 101.694 33.6746 99.2638C33.6746 96.8334 35.6541 95.5708 38.089 96.4546C40.5239 97.3429 42.5034 100.044 42.5034 102.474C42.5034 104.905 40.5239 106.167 38.089 105.283ZM38.089 94.6374C34.6531 93.3884 31.8574 95.165 31.8574 98.601C31.8574 101.726 34.1751 105.157 37.1782 106.695V110.825L38.9863 111.488V107.353C41.9984 108.007 44.3161 106.262 44.3161 103.133C44.3161 99.6967 41.5205 95.8865 38.0845 94.6329L38.089 94.6374Z" fill="#13203D" stroke="#A0F2E0" stroke-width="0.225456" stroke-miterlimit="23.8"/>
<path d="M43.4009 95.404L45.4661 92.6218L43.8969 91.1338L41.8272 93.9205C40.948 93.2035 39.9965 92.5903 38.9955 92.1258V88L37.1783 87.3372V91.463C36.1593 91.1925 35.1853 91.1113 34.2925 91.197L32.2724 86.9043L30.6942 87.2244L32.7233 91.5442C30.4372 92.3738 28.9492 94.5247 28.9492 97.5593L30.7664 98.2222C30.7664 94.1865 34.049 92.0988 38.0847 93.5688C42.1203 95.0387 45.403 99.5163 45.403 103.552L47.2201 104.215C47.2201 101.162 45.7096 97.911 43.4009 95.4085V95.404Z" fill="#13203D" stroke="#A0F2E0" stroke-width="0.225456" stroke-miterlimit="23.8"/>
<path d="M38.0709 105.297C35.636 104.413 33.6565 101.708 33.6565 99.2775C33.6565 96.8471 35.636 95.5845 38.0709 96.4683C40.5059 97.3566 42.4854 100.058 42.4854 102.488C42.4854 104.918 40.5059 106.181 38.0709 105.297ZM38.0709 94.6511C34.635 93.4021 31.8394 95.1787 31.8394 98.6146C31.8394 101.739 34.157 105.171 37.1601 106.708V110.839L38.9683 111.502V107.367C41.9803 108.021 44.298 106.276 44.298 103.146C44.298 99.7103 41.5024 95.9001 38.0664 94.6466L38.0709 94.6511Z" fill="#13203D" stroke="#A0F2E0" stroke-width="0.225456" stroke-miterlimit="23.8"/>
<path d="M43.3829 95.4176L45.448 92.6355L43.8789 91.1475L41.8092 93.9341C40.9299 93.2172 39.9785 92.604 38.9775 92.1395V88.0137L37.1603 87.3508V91.4767C36.1412 91.2061 35.1673 91.125 34.2744 91.2106L32.2544 86.918L30.6762 87.2381L32.7053 91.5578C30.4192 92.3875 28.9312 94.5384 28.9312 97.573L30.7483 98.2358C30.7483 94.2002 34.031 92.1125 38.0666 93.5824C42.1023 95.0524 45.3849 99.53 45.3849 103.566L47.2021 104.228C47.2021 101.176 45.6915 97.9247 43.3829 95.4222V95.4176Z" fill="#13203D" stroke="#A0F2E0" stroke-width="0.225456" stroke-miterlimit="23.8"/>
<path d="M38.0534 105.31C35.6184 104.426 33.6389 101.721 33.6389 99.2902C33.6389 96.8598 35.6184 95.5972 38.0534 96.481C40.4883 97.3693 42.4678 100.07 42.4678 102.501C42.4678 104.931 40.4883 106.194 38.0534 105.31ZM38.0534 94.6638C34.6174 93.4148 31.8218 95.1914 31.8218 98.6273C31.8218 101.752 34.1395 105.184 37.1425 106.721V110.852L38.9507 111.514V107.38C41.9628 108.033 44.2805 106.288 44.2805 103.159C44.2805 99.723 41.4848 95.9128 38.0489 94.6593L38.0534 94.6638Z" fill="#13203D" stroke="#A0F2E0" stroke-width="0.225456" stroke-miterlimit="23.8"/>
<path d="M43.3653 95.4352L45.4305 92.6531L43.8613 91.1651L41.7916 93.9517C40.9123 93.2348 39.9609 92.6215 38.9599 92.1571V88.0313L37.1427 87.3684V91.4943C36.1236 91.2237 35.1497 91.1426 34.2569 91.2282L32.2368 86.9355L30.6586 87.2557L32.6877 91.5754C30.4016 92.4051 28.9136 94.5559 28.9136 97.5906L30.7307 98.2534C30.7307 94.2178 34.0134 92.13 38.049 93.6C42.0847 95.07 45.3673 99.5475 45.3673 103.583L47.1845 104.246C47.1845 101.193 45.6739 97.9423 43.3653 95.4397V95.4352Z" fill="#13203D" stroke="#A0F2E0" stroke-width="0.225456" stroke-miterlimit="23.8"/>
<path d="M38.0309 105.328C35.596 104.445 33.6165 101.739 33.6165 99.3087C33.6165 96.8783 35.596 95.6158 38.0309 96.4995C40.4658 97.3878 42.4453 100.089 42.4453 102.519C42.4453 104.95 40.4658 106.212 38.0309 105.328ZM38.0309 94.6824C34.595 93.4333 31.7993 95.2099 31.7993 98.6459C31.7993 101.771 34.117 105.202 37.1201 106.74V110.87L38.9282 111.533V107.398C41.9403 108.052 44.258 106.307 44.258 103.178C44.258 99.7416 41.4623 95.9314 38.0264 94.6779L38.0309 94.6824Z" fill="#13203D" stroke="#A0F2E0" stroke-width="0.225456" stroke-miterlimit="23.8"/>
<path d="M43.3472 95.4489L45.4124 92.6668L43.8432 91.1788L41.7735 93.9654C40.8943 93.2484 39.9428 92.6352 38.9418 92.1708V88.0449L37.1246 87.3821V91.5079C36.1056 91.2374 35.1316 91.1562 34.2388 91.2419L32.2187 86.9492L30.6405 87.2694L32.6696 91.5891C30.3835 92.4188 28.8955 94.5696 28.8955 97.6043L30.7127 98.2671C30.7127 94.2314 33.9953 92.1437 38.031 93.6137C42.0666 95.0837 45.3493 99.5612 45.3493 103.597L47.1664 104.26C47.1664 101.207 45.6559 97.956 43.3472 95.4534V95.4489Z" fill="#13203D" stroke="#A0F2E0" stroke-width="0.225456" stroke-miterlimit="23.8"/>
<path d="M38.0128 105.342C35.5779 104.458 33.5984 101.753 33.5984 99.3224C33.5984 96.892 35.5779 95.6294 38.0128 96.5132C40.4478 97.4015 42.4273 100.102 42.4273 102.533C42.4273 104.963 40.4478 106.226 38.0128 105.342ZM38.0128 94.696C34.5769 93.447 31.7812 95.2236 31.7812 98.6595C31.7812 101.784 34.0989 105.216 37.102 106.753V110.884L38.9102 111.547V107.412C41.9222 108.066 44.2399 106.321 44.2399 103.191C44.2399 99.7553 41.4443 95.9451 38.0083 94.6915L38.0128 94.696Z" fill="#13203D" stroke="#A0F2E0" stroke-width="0.225456" stroke-miterlimit="23.8"/>
<path d="M43.3247 95.4626L45.3899 92.6804L43.8208 91.1924L41.7511 93.9791C40.8718 93.2621 39.9204 92.6489 38.9193 92.1844V88.0586L37.1022 87.3958V91.5216C36.0831 91.2511 35.1091 91.1699 34.2163 91.2556L32.1963 86.9629L30.6181 87.283L32.6472 91.6028C30.3611 92.4324 28.873 94.5833 28.873 97.6179L30.6902 98.2808C30.6902 94.2451 33.9729 92.1574 38.0085 93.6274C42.0442 95.0973 45.3268 99.5749 45.3268 103.611L47.144 104.273C47.144 101.221 45.6334 97.9696 43.3247 95.4671V95.4626Z" fill="#13203D" stroke="#A0F2E0" stroke-width="0.225456" stroke-miterlimit="23.8"/>
<path d="M37.9943 105.357C35.5594 104.473 33.5799 101.767 33.5799 99.337C33.5799 96.9066 35.5594 95.6441 37.9943 96.5279C40.4292 97.4162 42.4087 100.117 42.4087 102.548C42.4087 104.978 40.4292 106.24 37.9943 105.357ZM37.9943 94.7107C34.5583 93.4617 31.7627 95.2383 31.7627 98.6742C31.7627 101.799 34.0804 105.23 37.0834 106.768V110.898L38.8916 111.561V107.426C41.9037 108.08 44.2214 106.335 44.2214 103.206C44.2214 99.7699 41.4257 95.9597 37.9898 94.7062L37.9943 94.7107Z" fill="#13203D" stroke="#A0F2E0" stroke-width="0.225456" stroke-miterlimit="23.8"/>
<path d="M43.3062 95.4767L45.3714 92.6946L43.8022 91.2066L41.7325 93.9932C40.8532 93.2763 39.9018 92.663 38.9008 92.1986V88.0728L37.0836 87.4099V91.5358C36.0646 91.2652 35.0906 91.1841 34.1978 91.2697L32.1777 86.9771L30.5995 87.2972L32.6286 91.6169C30.3425 92.4466 28.8545 94.5975 28.8545 97.6321L30.6717 98.2949C30.6717 94.2593 33.9543 92.1716 37.99 93.6415C42.0256 95.1115 45.3082 99.589 45.3082 103.625L47.1254 104.288C47.1254 101.235 45.6149 97.9838 43.3062 95.4812V95.4767Z" fill="#13203D" stroke="#A0F2E0" stroke-width="0.225456" stroke-miterlimit="23.8"/>
<path d="M37.9767 105.374C35.5418 104.49 33.5623 101.785 33.5623 99.3546C33.5623 96.9242 35.5418 95.6617 37.9767 96.5454C40.4116 97.4337 42.3911 100.135 42.3911 102.565C42.3911 104.996 40.4116 106.258 37.9767 105.374ZM37.9767 94.7283C34.5408 93.4792 31.7451 95.2558 31.7451 98.6918C31.7451 101.817 34.0628 105.248 37.0659 106.786V110.916L38.874 111.579V107.444C41.8861 108.098 44.2038 106.353 44.2038 103.223C44.2038 99.7875 41.4081 95.9773 37.9722 94.7238L37.9767 94.7283Z" fill="#13203D" stroke="#A0F2E0" stroke-width="0.225456" stroke-miterlimit="23.8"/>
<path d="M43.2886 95.4943L45.3538 92.7122L43.7846 91.2242L41.7149 94.0108C40.8357 93.2939 39.8842 92.6806 38.8832 92.2162V88.0903L37.066 87.4275V91.5533C36.047 91.2828 35.073 91.2016 34.1802 91.2873L32.1601 86.9946L30.5819 87.3148L32.611 91.6345C30.3249 92.4642 28.8369 94.615 28.8369 97.6497L30.6541 98.3125C30.6541 94.2768 33.9367 92.1891 37.9724 93.6591C42.008 95.1291 45.2907 99.6066 45.2907 103.642L47.1078 104.305C47.1078 101.252 45.5973 98.0014 43.2886 95.4988V95.4943Z" fill="#13203D" stroke="#A0F2E0" stroke-width="0.225456" stroke-miterlimit="23.8"/>
<path d="M37.9591 105.387C35.5242 104.503 33.5447 101.798 33.5447 99.3673C33.5447 96.9369 35.5242 95.6743 37.9591 96.5581C40.3941 97.4464 42.3735 100.147 42.3735 102.578C42.3735 105.008 40.3941 106.271 37.9591 105.387ZM37.9591 94.741C34.5232 93.4919 31.7275 95.2685 31.7275 98.7045C31.7275 101.829 34.0452 105.261 37.0483 106.798V110.929L38.8564 111.592V107.457C41.8685 108.11 44.1862 106.365 44.1862 103.236C44.1862 99.8002 41.3906 95.99 37.9546 94.7365L37.9591 94.741Z" fill="#13203D" stroke="#A0F2E0" stroke-width="0.225456" stroke-miterlimit="23.8"/>
<path d="M43.2706 95.5075L45.3357 92.7254L43.7666 91.2374L41.6969 94.024C40.8176 93.307 39.8662 92.6938 38.8651 92.2294V88.1035L37.048 87.4407V91.5665C36.0289 91.296 35.0549 91.2148 34.1621 91.3005L32.1421 87.0078L30.5639 87.328L32.593 91.6477C30.3069 92.4774 28.8188 94.6282 28.8188 97.6628L30.636 98.3257C30.636 94.29 33.9187 92.2023 37.9543 93.6723C41.99 95.1423 45.2726 99.6198 45.2726 103.655L47.0898 104.318C47.0898 101.266 45.5792 98.0146 43.2706 95.512V95.5075Z" fill="#13203D" stroke="#A0F2E0" stroke-width="0.225456" stroke-miterlimit="23.8"/>
<path d="M37.9357 105.401C35.5008 104.517 33.5213 101.812 33.5213 99.3815C33.5213 96.9511 35.5008 95.6885 37.9357 96.5723C40.3706 97.4606 42.3501 100.162 42.3501 102.592C42.3501 105.022 40.3706 106.285 37.9357 105.401ZM37.9357 94.7551C34.4998 93.5061 31.7041 95.2827 31.7041 98.7186C31.7041 101.843 34.0218 105.275 37.0249 106.812V110.943L38.833 111.606V107.471C41.8451 108.125 44.1628 106.38 44.1628 103.25C44.1628 99.8144 41.3671 96.0042 37.9312 94.7506L37.9357 94.7551Z" fill="#13203D" stroke="#A0F2E0" stroke-width="0.225456" stroke-miterlimit="23.8"/>
<path d="M43.2476 95.5217L45.3128 92.7395L43.7436 91.2515L41.6739 94.0381C40.7946 93.3212 39.8432 92.708 38.8422 92.2435V88.1177L37.025 87.4549V91.5807C36.006 91.3101 35.032 91.229 34.1392 91.3146L32.1191 87.022L30.5409 87.3421L32.57 91.6619C30.2839 92.4915 28.7959 94.6424 28.7959 97.677L30.6131 98.3398C30.6131 94.3042 33.8957 92.2165 37.9314 93.6864C41.967 95.1564 45.2496 99.634 45.2496 103.67L47.0668 104.332C47.0668 101.28 45.5563 98.0287 43.2476 95.5262V95.5217Z" fill="#13203D" stroke="#A0F2E0" stroke-width="0.225456" stroke-miterlimit="23.8"/>
<path d="M37.9181 105.414C35.4832 104.531 33.5037 101.825 33.5037 99.3947C33.5037 96.9642 35.4832 95.7017 37.9181 96.5855C40.353 97.4738 42.3325 100.175 42.3325 102.605C42.3325 105.036 40.353 106.298 37.9181 105.414ZM37.9181 94.7683C34.4822 93.5193 31.6865 95.2959 31.6865 98.7318C31.6865 101.857 34.0042 105.288 37.0073 106.826V110.956L38.8154 111.619V107.484C41.8275 108.138 44.1452 106.393 44.1452 103.263C44.1452 99.8275 41.3495 96.0173 37.9136 94.7638L37.9181 94.7683Z" fill="#13203D" stroke="#A0F2E0" stroke-width="0.225456" stroke-miterlimit="23.8"/>
<path d="M43.23 95.5343L45.2952 92.7522L43.726 91.2642L41.6563 94.0508C40.7771 93.3339 39.8256 92.7207 38.8246 92.2562V88.1304L37.0075 87.4675V91.5934C35.9884 91.3228 35.0144 91.2417 34.1216 91.3273L32.1015 87.0347L30.5233 87.3548L32.5524 91.6745C30.2663 92.5042 28.7783 94.6551 28.7783 97.6897L30.5955 98.3525C30.5955 94.3169 33.8781 92.2292 37.9138 93.6991C41.9494 95.1691 45.2321 99.6467 45.2321 103.682L47.0492 104.345C47.0492 101.292 45.5387 98.0414 43.23 95.5389V95.5343Z" fill="#13203D" stroke="#A0F2E0" stroke-width="0.225456" stroke-miterlimit="23.8"/>
<path d="M37.9 105.432C35.4651 104.549 33.4856 101.843 33.4856 99.4127C33.4856 96.9823 35.4651 95.7198 37.9 96.6035C40.335 97.4918 42.3145 100.193 42.3145 102.623C42.3145 105.054 40.335 106.316 37.9 105.432ZM37.9 94.7864C34.4641 93.5374 31.6685 95.3139 31.6685 98.7499C31.6685 101.875 33.9861 105.306 36.9892 106.844V110.974L38.7974 111.637V107.502C41.8095 108.156 44.1271 106.411 44.1271 103.282C44.1271 99.8456 41.3315 96.0354 37.8955 94.7819L37.9 94.7864Z" fill="#13203D" stroke="#A0F2E0" stroke-width="0.225456" stroke-miterlimit="23.8"/>
<path d="M43.212 95.5529L45.2771 92.7708L43.708 91.2828L41.6383 94.0694C40.759 93.3525 39.8076 92.7392 38.8066 92.2748V88.1489L36.9894 87.4861V91.6119C35.9703 91.3414 34.9964 91.2602 34.1036 91.3459L32.0835 87.0532L30.5053 87.3734L32.5344 91.6931C30.2483 92.5228 28.7603 94.6736 28.7603 97.7082L30.5774 98.3711C30.5774 94.3354 33.8601 92.2477 37.8957 93.7177C41.9314 95.1877 45.214 99.6652 45.214 103.701L47.0312 104.364C47.0312 101.311 45.5206 98.06 43.212 95.5574V95.5529Z" fill="#13203D" stroke="#A0F2E0" stroke-width="0.225456" stroke-miterlimit="23.8"/>
<path d="M37.882 105.445C35.4471 104.561 33.4676 101.856 33.4676 99.4254C33.4676 96.995 35.4471 95.7325 37.882 96.6162C40.3169 97.5045 42.2964 100.205 42.2964 102.636C42.2964 105.066 40.3169 106.329 37.882 105.445ZM37.882 94.7991C34.446 93.55 31.6504 95.3266 31.6504 98.7626C31.6504 101.887 33.9681 105.319 36.9711 106.856V110.987L38.7793 111.65V107.515C41.7914 108.169 44.1091 106.424 44.1091 103.294C44.1091 99.8583 41.3134 96.0481 37.8775 94.7946L37.882 94.7991Z" fill="#13203D" stroke="#A0F2E0" stroke-width="0.225456" stroke-miterlimit="23.8"/>
<path d="M43.1939 95.5656L45.2591 92.7835L43.6899 91.2955L41.6202 94.0821C40.7409 93.3651 39.7895 92.7519 38.7885 92.2875V88.1616L36.9713 87.4988V91.6246C35.9523 91.3541 34.9783 91.2729 34.0855 91.3586L32.0654 87.0659L30.4872 87.3861L32.5163 91.7058C30.2302 92.5355 28.7422 94.6863 28.7422 97.7209L30.5594 98.3838C30.5594 94.3481 33.842 92.2604 37.8776 93.7304C41.9133 95.2004 45.1959 99.6779 45.1959 103.714L47.0131 104.376C47.0131 101.324 45.5026 98.0727 43.1939 95.5701V95.5656Z" fill="#13203D" stroke="#A0F2E0" stroke-width="0.225456" stroke-miterlimit="23.8"/>
<path d="M37.859 105.459C35.4241 104.575 33.4446 101.87 33.4446 99.4396C33.4446 97.0092 35.4241 95.7466 37.859 96.6304C40.294 97.5187 42.2735 100.22 42.2735 102.65C42.2735 105.08 40.294 106.343 37.859 105.459ZM37.859 94.8132C34.4231 93.5642 31.6274 95.3408 31.6274 98.7767C31.6274 101.902 33.9451 105.333 36.9482 106.871V111.001L38.7563 111.664V107.529C41.7684 108.183 44.0861 106.438 44.0861 103.308C44.0861 99.8725 41.2905 96.0623 37.8545 94.8087L37.859 94.8132Z" fill="#13203D" stroke="#A0F2E0" stroke-width="0.225456" stroke-miterlimit="23.8"/>
<path d="M43.1709 95.5793L45.2361 92.7971L43.6669 91.3091L41.5973 94.0958C40.718 93.3788 39.7666 92.7656 38.7655 92.3011V88.1753L36.9484 87.5125V91.6383C35.9293 91.3678 34.9553 91.2866 34.0625 91.3723L32.0425 87.0796L30.4643 87.3997L32.4934 91.7195C30.2072 92.5491 28.7192 94.7 28.7192 97.7346L30.5364 98.3975C30.5364 94.3618 33.819 92.2741 37.8547 93.7441C41.8904 95.214 45.173 99.6916 45.173 103.727L46.9902 104.39C46.9902 101.337 45.4796 98.0863 43.1709 95.5838V95.5793Z" fill="#13203D" stroke="#A0F2E0" stroke-width="0.225456" stroke-miterlimit="23.8"/>
<path d="M37.8415 105.472C35.4065 104.589 33.427 101.883 33.427 99.4528C33.427 97.0224 35.4065 95.7598 37.8415 96.6436C40.2764 97.5319 42.2559 100.233 42.2559 102.663C42.2559 105.094 40.2764 106.356 37.8415 105.472ZM37.8415 94.8264C34.4055 93.5774 31.6099 95.354 31.6099 98.7899C31.6099 101.915 33.9275 105.346 36.9306 106.884V111.014L38.7388 111.677V107.542C41.7509 108.196 44.0685 106.451 44.0685 103.322C44.0685 99.8856 41.2729 96.0754 37.8369 94.8219L37.8415 94.8264Z" fill="#13203D" stroke="#A0F2E0" stroke-width="0.225456" stroke-miterlimit="23.8"/>
<path d="M43.1534 95.5929L45.2185 92.8108L43.6494 91.3228L41.5797 94.1094C40.7004 93.3925 39.749 92.7793 38.748 92.3148V88.189L36.9308 87.5261V91.652C35.9117 91.3814 34.9378 91.3003 34.045 91.3859L32.0249 87.0933L30.4467 87.4134L32.4758 91.7331C30.1897 92.5628 28.7017 94.7137 28.7017 97.7483L30.5188 98.4111C30.5188 94.3755 33.8015 92.2878 37.8371 93.7577C41.8728 95.2277 45.1554 99.7052 45.1554 103.741L46.9726 104.404C46.9726 101.351 45.462 98.1 43.1534 95.5974V95.5929Z" fill="#13203D" stroke="#A0F2E0" stroke-width="0.225456" stroke-miterlimit="23.8"/>
<path d="M37.8234 105.49C35.3885 104.606 33.409 101.901 33.409 99.4703C33.409 97.0399 35.3885 95.7774 37.8234 96.6612C40.2583 97.5495 42.2378 100.25 42.2378 102.681C42.2378 105.111 40.2583 106.374 37.8234 105.49ZM37.8234 94.844C34.3874 93.595 31.5918 95.3716 31.5918 98.8075C31.5918 101.932 33.9095 105.364 36.9126 106.901V111.032L38.7207 111.695V107.56C41.7328 108.214 44.0505 106.468 44.0505 103.339C44.0505 99.9032 41.2548 96.093 37.8189 94.8395L37.8234 94.844Z" fill="#13203D" stroke="#A0F2E0" stroke-width="0.225456" stroke-miterlimit="23.8"/>
<path d="M43.1353 95.6105L45.2005 92.8284L43.6313 91.3404L41.5616 94.127C40.6823 93.4101 39.7309 92.7968 38.7299 92.3324V88.2066L36.9127 87.5437V91.6696C35.8937 91.399 34.9197 91.3178 34.0269 91.4035L32.0068 87.1108L30.4286 87.431L32.4577 91.7507C30.1716 92.5804 28.6836 94.7312 28.6836 97.7659L30.5008 98.4287C30.5008 94.3931 33.7834 92.3053 37.8191 93.7753C41.8547 95.2453 45.1373 99.7228 45.1373 103.758L46.9545 104.421C46.9545 101.369 45.444 98.1176 43.1353 95.615V95.6105Z" fill="#13203D" stroke="#A0F2E0" stroke-width="0.225456" stroke-miterlimit="23.8"/>
<path d="M37.8053 105.505C35.3704 104.621 33.3909 101.915 33.3909 99.485C33.3909 97.0546 35.3704 95.792 37.8053 96.6758C40.2402 97.5641 42.2197 100.265 42.2197 102.695C42.2197 105.126 40.2402 106.388 37.8053 105.505ZM37.8053 94.8586C34.3694 93.6096 31.5737 95.3862 31.5737 98.8221C31.5737 101.947 33.8914 105.378 36.8945 106.916V111.046L38.7026 111.709V107.574C41.7147 108.228 44.0324 106.483 44.0324 103.354C44.0324 99.9179 41.2368 96.1077 37.8008 94.8541L37.8053 94.8586Z" fill="#13203D" stroke="#A0F2E0" stroke-width="0.225456" stroke-miterlimit="23.8"/>
<path d="M43.1172 95.6252L45.1824 92.843L43.6132 91.355L41.5436 94.1417C40.6643 93.4247 39.7129 92.8115 38.7118 92.347V88.2212L36.8947 87.5584V91.6842C35.8756 91.4137 34.9016 91.3325 34.0088 91.4182L31.9887 87.1255L30.4106 87.4456L32.4397 91.7654C30.1535 92.595 28.6655 94.7459 28.6655 97.7805L30.4827 98.4434C30.4827 94.4077 33.7653 92.32 37.801 93.79C41.8366 95.2599 45.1193 99.7375 45.1193 103.773L46.9364 104.436C46.9364 101.383 45.4259 98.1322 43.1172 95.6297V95.6252Z" fill="#13203D" stroke="#A0F2E0" stroke-width="0.225456" stroke-miterlimit="23.8"/>
<path d="M37.7829 105.517C35.3479 104.634 33.3684 101.928 33.3684 99.4977C33.3684 97.0673 35.3479 95.8047 37.7829 96.6885C40.2178 97.5768 42.1973 100.278 42.1973 102.708C42.1973 105.139 40.2178 106.401 37.7829 105.517ZM37.7829 94.8713C34.3469 93.6223 31.5513 95.3989 31.5513 98.8348C31.5513 101.96 33.869 105.391 36.872 106.929V111.059L38.6802 111.722V107.587C41.6923 108.241 44.0099 106.496 44.0099 103.367C44.0099 99.9306 41.2143 96.1204 37.7784 94.8668L37.7829 94.8713Z" fill="#13203D" stroke="#A0F2E0" stroke-width="0.225456" stroke-miterlimit="23.8"/>
<path d="M43.0992 95.6379L45.1643 92.8557L43.5952 91.3677L41.5255 94.1544C40.6462 93.4374 39.6948 92.8242 38.6938 92.3597V88.2339L36.8766 87.5711V91.6969C35.8575 91.4263 34.8836 91.3452 33.9908 91.4309L31.9707 87.1382L30.3925 87.4583L32.4216 91.7781C30.1355 92.6077 28.6475 94.7586 28.6475 97.7932L30.4646 98.4561C30.4646 94.4204 33.7473 92.3327 37.7829 93.8027C41.8186 95.2726 45.1012 99.7502 45.1012 103.786L46.9184 104.449C46.9184 101.396 45.4078 98.1449 43.0992 95.6424V95.6379Z" fill="#13203D" stroke="#A0F2E0" stroke-width="0.225456" stroke-miterlimit="23.8"/>
<path d="M37.7648 105.53C35.3299 104.646 33.3504 101.941 33.3504 99.5104C33.3504 97.08 35.3299 95.8174 37.7648 96.7012C40.1997 97.5895 42.1792 100.29 42.1792 102.721C42.1792 105.151 40.1997 106.414 37.7648 105.53ZM37.7648 94.884C34.3289 93.635 31.5332 95.4116 31.5332 98.8475C31.5332 101.972 33.8509 105.404 36.854 106.941V111.072L38.6621 111.735V107.6C41.6742 108.254 43.9919 106.509 43.9919 103.379C43.9919 99.9433 41.1962 96.1331 37.7603 94.8795L37.7648 94.884Z" fill="#13203D" stroke="#A0F2E0" stroke-width="0.225456" stroke-miterlimit="23.8"/>
<path d="M43.0767 95.6554L45.1419 92.8733L43.5727 91.3853L41.503 94.1719C40.6237 93.455 39.6723 92.8418 38.6713 92.3773V88.2515L36.8541 87.5886V91.7145C35.8351 91.4439 34.8611 91.3628 33.9683 91.4484L31.9482 87.1558L30.37 87.4759L32.3991 91.7956C30.113 92.6253 28.625 94.7762 28.625 97.8108L30.4422 98.4736C30.4422 94.438 33.7248 92.3503 37.7605 93.8202C41.7961 95.2902 45.0787 99.7677 45.0787 103.803L46.8959 104.466C46.8959 101.414 45.3854 98.1625 43.0767 95.6599V95.6554Z" fill="#13203D" stroke="#A0F2E0" stroke-width="0.225456" stroke-miterlimit="23.8"/>
<path d="M37.7467 105.55C35.3118 104.666 33.3323 101.96 33.3323 99.5299C33.3323 97.0995 35.3118 95.8369 37.7467 96.7207C40.1817 97.609 42.1611 100.31 42.1611 102.74C42.1611 105.171 40.1817 106.433 37.7467 105.55ZM37.7467 94.9036C34.3108 93.6545 31.5151 95.4311 31.5151 98.8671C31.5151 101.992 33.8328 105.423 36.8359 106.961V111.091L38.644 111.754V107.619C41.6561 108.273 43.9738 106.528 43.9738 103.399C43.9738 99.9628 41.1782 96.1526 37.7422 94.8991L37.7467 94.9036Z" fill="#13203D" stroke="#A0F2E0" stroke-width="0.225456" stroke-miterlimit="23.8"/>
<path d="M43.0586 95.6701L45.1238 92.888L43.5546 91.4L41.485 94.1866C40.6057 93.4696 39.6543 92.8564 38.6532 92.392V88.2661L36.8361 87.6033V91.7291C35.817 91.4586 34.843 91.3774 33.9502 91.4631L31.9301 87.1704L30.352 87.4906L32.3811 91.8103C30.0949 92.64 28.6069 94.7908 28.6069 97.8254L30.4241 98.4883C30.4241 94.4526 33.7067 92.3649 37.7424 93.8349C41.778 95.3048 45.0607 99.7824 45.0607 103.818L46.8779 104.481C46.8779 101.428 45.3673 98.1772 43.0586 95.6746V95.6701Z" fill="#13203D" stroke="#A0F2E0" stroke-width="0.225456" stroke-miterlimit="23.8"/>
<path d="M37.7287 105.563C35.2937 104.679 33.3142 101.974 33.3142 99.5431C33.3142 97.1127 35.2937 95.8501 37.7287 96.7339C40.1636 97.6222 42.1431 100.323 42.1431 102.754C42.1431 105.184 40.1636 106.447 37.7287 105.563ZM37.7287 94.9167C34.2927 93.6677 31.4971 95.4443 31.4971 98.8803C31.4971 102.005 33.8148 105.437 36.8178 106.974V111.104L38.626 111.767V107.632C41.6381 108.286 43.9557 106.541 43.9557 103.412C43.9557 99.976 41.1601 96.1658 37.7242 94.9122L37.7287 94.9167Z" fill="#13203D" stroke="#A0F2E0" stroke-width="0.225456" stroke-miterlimit="23.8"/>
<path d="M43.0406 95.6833L45.1057 92.9012L43.5366 91.4131L41.4669 94.1998C40.5876 93.4828 39.6362 92.8696 38.6352 92.4051V88.2793L36.818 87.6165V91.7423C35.7989 91.4718 34.825 91.3906 33.9322 91.4763L31.9121 87.1836L30.3339 87.5037L32.363 91.8235C30.0769 92.6531 28.5889 94.804 28.5889 97.8386L30.406 98.5015C30.406 94.4658 33.6887 92.3781 37.7243 93.8481C41.76 95.318 45.0426 99.7956 45.0426 103.831L46.8598 104.494C46.8598 101.441 45.3492 98.1903 43.0406 95.6878V95.6833Z" fill="#13203D" stroke="#A0F2E0" stroke-width="0.225456" stroke-miterlimit="23.8"/>
<path d="M37.7062 105.577C35.2713 104.693 33.2918 101.988 33.2918 99.5573C33.2918 97.1268 35.2713 95.8643 37.7062 96.7481C40.1411 97.6364 42.1206 100.337 42.1206 102.768C42.1206 105.198 40.1411 106.461 37.7062 105.577ZM37.7062 94.9309C34.2703 93.6819 31.4746 95.4585 31.4746 98.8944C31.4746 102.019 33.7923 105.451 36.7954 106.988V111.119L38.6035 111.781V107.647C41.6156 108.3 43.9333 106.555 43.9333 103.426C43.9333 99.9901 41.1376 96.1799 37.7017 94.9264L37.7062 94.9309Z" fill="#13203D" stroke="#A0F2E0" stroke-width="0.225456" stroke-miterlimit="23.8"/>
<path d="M43.0225 95.6974L45.0877 92.9153L43.5185 91.4273L41.4488 94.2139C40.5695 93.497 39.6181 92.8837 38.6171 92.4193V88.2935L36.7999 87.6306V91.7565C35.7809 91.4859 34.8069 91.4048 33.9141 91.4904L31.894 87.1978L30.3158 87.5179L32.3449 91.8376C30.0588 92.6673 28.5708 94.8182 28.5708 97.8528L30.388 98.5156C30.388 94.48 33.6706 92.3923 37.7063 93.8622C41.7419 95.3322 45.0246 99.8097 45.0246 103.845L46.8417 104.508C46.8417 101.456 45.3312 98.2045 43.0225 95.7019V95.6974Z" fill="#13203D" stroke="#A0F2E0" stroke-width="0.225456" stroke-miterlimit="23.8"/>
<path d="M37.6881 105.594C35.2532 104.711 33.2737 102.005 33.2737 99.5748C33.2737 97.1444 35.2532 95.8819 37.6881 96.7657C40.1231 97.654 42.1026 100.355 42.1026 102.785C42.1026 105.216 40.1231 106.478 37.6881 105.594ZM37.6881 94.9485C34.2522 93.6995 31.4565 95.476 31.4565 98.912C31.4565 102.037 33.7742 105.468 36.7773 107.006V111.136L38.5855 111.799V107.664C41.5975 108.318 43.9152 106.573 43.9152 103.444C43.9152 100.008 41.1196 96.1975 37.6836 94.944L37.6881 94.9485Z" fill="#13203D" stroke="#A0F2E0" stroke-width="0.225456" stroke-miterlimit="23.8"/>
<path d="M43 95.715L45.0652 92.9329L43.496 91.4449L41.4264 94.2315C40.5471 93.5146 39.5957 92.9013 38.5946 92.4369V88.311L36.7775 87.6482V91.774C35.7584 91.5035 34.7844 91.4223 33.8916 91.508L31.8716 87.2153L30.2934 87.5355L32.3225 91.8552C30.0363 92.6849 28.5483 94.8357 28.5483 97.8704L30.3655 98.5332C30.3655 94.4975 33.6481 92.4098 37.6838 93.8798C41.7195 95.3498 45.0021 99.8273 45.0021 103.863L46.8193 104.526C46.8193 101.473 45.3087 98.2221 43 95.7195V95.715Z" fill="#13203D" stroke="#A0F2E0" stroke-width="0.225456" stroke-miterlimit="23.8"/>
<path d="M37.6701 105.608C35.2352 104.724 33.2557 102.018 33.2557 99.588C33.2557 97.1576 35.2352 95.8951 37.6701 96.7788C40.105 97.6671 42.0845 100.368 42.0845 102.799C42.0845 105.229 40.105 106.491 37.6701 105.608ZM37.6701 94.9617C34.2341 93.7126 31.4385 95.4892 31.4385 98.9252C31.4385 102.05 33.7562 105.481 36.7592 107.019V111.149L38.5674 111.812V107.677C41.5795 108.331 43.8972 106.586 43.8972 103.457C43.8972 100.021 41.1015 96.2107 37.6656 94.9572L37.6701 94.9617Z" fill="#13203D" stroke="#A0F2E0" stroke-width="0.225456" stroke-miterlimit="23.8"/>
<path d="M42.982 95.7282L45.0471 92.9461L43.478 91.4581L41.4083 94.2447C40.529 93.5277 39.5776 92.9145 38.5766 92.4501V88.3242L36.7594 87.6614V91.7872C35.7403 91.5167 34.7664 91.4355 33.8736 91.5212L31.8535 87.2285L30.2753 87.5487L32.3044 91.8684C30.0183 92.6981 28.5303 94.8489 28.5303 97.8835L30.3474 98.5464C30.3474 94.5107 33.6301 92.423 37.6657 93.893C41.7014 95.363 44.984 99.8405 44.984 103.876L46.8012 104.539C46.8012 101.486 45.2906 98.2353 42.982 95.7327V95.7282Z" fill="#13203D" stroke="#A0F2E0" stroke-width="0.225456" stroke-miterlimit="23.8"/>
<path d="M37.652 105.621C35.2171 104.738 33.2376 102.032 33.2376 99.6017C33.2376 97.1713 35.2171 95.9087 37.652 96.7925C40.0869 97.6808 42.0664 100.382 42.0664 102.812C42.0664 105.243 40.0869 106.505 37.652 105.621ZM37.652 94.9753C34.2161 93.7263 31.4204 95.5029 31.4204 98.9389C31.4204 102.064 33.7381 105.495 36.7412 107.033V111.163L38.5493 111.826V107.691C41.5614 108.345 43.8791 106.6 43.8791 103.471C43.8791 100.035 41.0834 96.2244 37.6475 94.9708L37.652 94.9753Z" fill="#13203D" stroke="#A0F2E0" stroke-width="0.225456" stroke-miterlimit="23.8"/>
<path d="M42.9639 95.7419L45.0291 92.9597L43.4599 91.4717L41.3902 94.2584C40.511 93.5414 39.5595 92.9282 38.5585 92.4637V88.3379L36.7413 87.6751V91.8009C35.7223 91.5304 34.7483 91.4492 33.8555 91.5349L31.8354 87.2422L30.2572 87.5623L32.2863 91.8821C30.0002 92.7117 28.5122 94.8626 28.5122 97.8972L30.3294 98.5601C30.3294 94.5244 33.612 92.4367 37.6477 93.9067C41.6833 95.3766 44.966 99.8542 44.966 103.89L46.7831 104.553C46.7831 101.5 45.2726 98.2489 42.9639 95.7464V95.7419Z" fill="#13203D" stroke="#A0F2E0" stroke-width="0.225456" stroke-miterlimit="23.8"/>
<path d="M37.6295 105.636C35.1946 104.752 33.2151 102.046 33.2151 99.6159C33.2151 97.1854 35.1946 95.9229 37.6295 96.8067C40.0645 97.695 42.044 100.396 42.044 102.826C42.044 105.257 40.0645 106.519 37.6295 105.636ZM37.6295 94.9895C34.1936 93.7405 31.3979 95.5171 31.3979 98.953C31.3979 102.078 33.7156 105.509 36.7187 107.047V111.177L38.5269 111.84V107.705C41.5389 108.359 43.8566 106.614 43.8566 103.485C43.8566 100.049 41.061 96.2385 37.625 94.985L37.6295 94.9895Z" fill="#13203D" stroke="#A0F2E0" stroke-width="0.225456" stroke-miterlimit="23.8"/>
<path d="M42.9458 95.756L45.011 92.9739L43.4418 91.4859L41.3722 94.2725C40.4929 93.5556 39.5415 92.9423 38.5404 92.4779V88.3521L36.7233 87.6892V91.8151C35.7042 91.5445 34.7302 91.4634 33.8374 91.549L31.8174 87.2563L30.2392 87.5765L32.2683 91.8962C29.9821 92.7259 28.4941 94.8767 28.4941 97.9114L30.3113 98.5742C30.3113 94.5386 33.5939 92.4508 37.6296 93.9208C41.6653 95.3908 44.9479 99.8683 44.9479 103.904L46.7651 104.567C46.7651 101.514 45.2545 98.2631 42.9458 95.7605V95.756Z" fill="#13203D" stroke="#A0F2E0" stroke-width="0.225456" stroke-miterlimit="23.8"/>
<path d="M37.6115 105.653C35.1766 104.769 33.1971 102.064 33.1971 99.6334C33.1971 97.203 35.1766 95.9405 37.6115 96.8242C40.0464 97.7125 42.0259 100.413 42.0259 102.844C42.0259 105.274 40.0464 106.537 37.6115 105.653ZM37.6115 95.0071C34.1755 93.7581 31.3799 95.5346 31.3799 98.9706C31.3799 102.095 33.6976 105.527 36.7006 107.064V111.195L38.5088 111.858V107.723C41.5209 108.377 43.8386 106.632 43.8386 103.502C43.8386 100.066 41.0429 96.2561 37.607 95.0026L37.6115 95.0071Z" fill="#13203D" stroke="#A0F2E0" stroke-width="0.225456" stroke-miterlimit="23.8"/>
<path d="M42.9234 95.7736L44.9886 92.9915L43.4194 91.5035L41.3497 94.2901C40.4704 93.5732 39.519 92.9599 38.518 92.4955V88.3696L36.7008 87.7068V91.8326C35.6818 91.5621 34.7078 91.4809 33.815 91.5666L31.7949 87.2739L30.2167 87.5941L32.2458 91.9138C29.9597 92.7435 28.4717 94.8943 28.4717 97.929L30.2889 98.5918C30.2889 94.5561 33.5715 92.4684 37.6071 93.9384C41.6428 95.4084 44.9254 99.8859 44.9254 103.922L46.7426 104.584C46.7426 101.532 45.232 98.2807 42.9234 95.7781V95.7736Z" fill="#13203D" stroke="#A0F2E0" stroke-width="0.225456" stroke-miterlimit="23.8"/>
<path d="M37.5929 105.667C35.158 104.783 33.1785 102.078 33.1785 99.6471C33.1785 97.2167 35.158 95.9541 37.5929 96.8379C40.0278 97.7262 42.0073 100.427 42.0073 102.858C42.0073 105.288 40.0278 106.551 37.5929 105.667ZM37.5929 95.0208C34.157 93.7717 31.3613 95.5483 31.3613 98.9843C31.3613 102.109 33.679 105.541 36.6821 107.078V111.208L38.4902 111.871V107.736C41.5023 108.39 43.82 106.645 43.82 103.516C43.82 100.08 41.0244 96.2698 37.5884 95.0162L37.5929 95.0208Z" fill="#13203D" stroke="#A0F2E0" stroke-width="0.225456" stroke-miterlimit="23.8"/>
<path d="M42.9048 95.7873L44.97 93.0052L43.4008 91.5171L41.3311 94.3038C40.4519 93.5868 39.5004 92.9736 38.4994 92.5092V88.3833L36.6823 87.7205V91.8463C35.6632 91.5758 34.6892 91.4946 33.7964 91.5803L31.7763 87.2876L30.1981 87.6077L32.2272 91.9275C29.9411 92.7572 28.4531 94.908 28.4531 97.9426L30.2703 98.6055C30.2703 94.5698 33.5529 92.4821 37.5886 93.9521C41.6242 95.422 44.9069 99.8996 44.9069 103.935L46.724 104.598C46.724 101.545 45.2135 98.2943 42.9048 95.7918V95.7873Z" fill="#13203D" stroke="#A0F2E0" stroke-width="0.225456" stroke-miterlimit="23.8"/>
<path d="M37.5753 105.68C35.1404 104.797 33.1609 102.091 33.1609 99.6608C33.1609 97.2304 35.1404 95.9678 37.5753 96.8516C40.0103 97.7399 41.9898 100.441 41.9898 102.871C41.9898 105.302 40.0103 106.564 37.5753 105.68ZM37.5753 95.0344C34.1394 93.7854 31.3438 95.562 31.3438 98.9979C31.3438 102.123 33.6614 105.554 36.6645 107.092V111.222L38.4727 111.885V107.75C41.4847 108.404 43.8024 106.659 43.8024 103.53C43.8024 100.094 41.0068 96.2834 37.5708 95.0299L37.5753 95.0344Z" fill="#13203D" stroke="#A0F2E0" stroke-width="0.225456" stroke-miterlimit="23.8"/>
<path d="M42.8873 95.8009L44.9524 93.0188L43.3833 91.5308L41.3136 94.3175C40.4343 93.6005 39.4829 92.9873 38.4818 92.5228V88.397L36.6647 87.7341V91.86C35.6456 91.5894 34.6716 91.5083 33.7788 91.5939L31.7588 87.3013L30.1806 87.6214L32.2097 91.9411C29.9236 92.7708 28.4355 94.9217 28.4355 97.9563L30.2527 98.6191C30.2527 94.5835 33.5354 92.4958 37.571 93.9657C41.6067 95.4357 44.8893 99.9133 44.8893 103.949L46.7065 104.612C46.7065 101.559 45.1959 98.308 42.8873 95.8055V95.8009Z" fill="#13203D" stroke="#A0F2E0" stroke-width="0.225456" stroke-miterlimit="23.8"/>
<path d="M37.5529 105.693C35.118 104.809 33.1385 102.104 33.1385 99.6735C33.1385 97.2431 35.118 95.9805 37.5529 96.8643C39.9878 97.7526 41.9673 100.454 41.9673 102.884C41.9673 105.314 39.9878 106.577 37.5529 105.693ZM37.5529 95.0471C34.1169 93.7981 31.3213 95.5747 31.3213 99.0106C31.3213 102.135 33.639 105.567 36.642 107.104V111.235L38.4502 111.898V107.763C41.4623 108.417 43.78 106.672 43.78 103.542C43.78 100.106 40.9843 96.2961 37.5484 95.0426L37.5529 95.0471Z" fill="#13203D" stroke="#A0F2E0" stroke-width="0.225456" stroke-miterlimit="23.8"/>
<path d="M42.8692 95.8136L44.9344 93.0315L43.3652 91.5435L41.2955 94.3301C40.4162 93.6132 39.4648 93 38.4638 92.5355V88.4097L36.6466 87.7468V91.8727C35.6276 91.6021 34.6536 91.521 33.7608 91.6066L31.7407 87.314L30.1625 87.6341L32.1916 91.9538C29.9055 92.7835 28.4175 94.9344 28.4175 97.969L30.2347 98.6318C30.2347 94.5962 33.5173 92.5085 37.5529 93.9784C41.5886 95.4484 44.8712 99.926 44.8712 103.962L46.6884 104.624C46.6884 101.572 45.1779 98.3207 42.8692 95.8182V95.8136Z" fill="#13203D" stroke="#A0F2E0" stroke-width="0.225456" stroke-miterlimit="23.8"/>
<path d="M37.5348 105.712C35.0999 104.828 33.1204 102.123 33.1204 99.6925C33.1204 97.2621 35.0999 95.9995 37.5348 96.8833C39.9697 97.7716 41.9492 100.473 41.9492 102.903C41.9492 105.333 39.9697 106.596 37.5348 105.712ZM37.5348 95.0662C34.0989 93.8171 31.3032 95.5937 31.3032 99.0297C31.3032 102.154 33.6209 105.586 36.624 107.124V111.254L38.4321 111.917V107.782C41.4442 108.436 43.7619 106.691 43.7619 103.561C43.7619 100.125 40.9662 96.3152 37.5303 95.0617L37.5348 95.0662Z" fill="#13203D" stroke="#A0F2E0" stroke-width="0.225456" stroke-miterlimit="23.8"/>
<path d="M42.8467 95.8327L44.9119 93.0506L43.3427 91.5626L41.273 94.3492C40.3938 93.6322 39.4423 93.019 38.4413 92.5546V88.4287L36.6241 87.7659V91.8917C35.6051 91.6212 34.6311 91.54 33.7383 91.6257L31.7182 87.333L30.14 87.6532L32.1691 91.9729C29.883 92.8026 28.395 94.9534 28.395 97.988L30.2122 98.6509C30.2122 94.6152 33.4948 92.5275 37.5305 93.9975C41.5661 95.4674 44.8488 99.945 44.8488 103.981L46.6659 104.643C46.6659 101.591 45.1554 98.3398 42.8467 95.8372V95.8327Z" fill="#13203D" stroke="#A0F2E0" stroke-width="0.225456" stroke-miterlimit="23.8"/>
<path d="M37.5167 105.725C35.0818 104.842 33.1023 102.136 33.1023 99.7057C33.1023 97.2753 35.0818 96.0127 37.5167 96.8965C39.9517 97.7848 41.9312 100.486 41.9312 102.916C41.9312 105.347 39.9517 106.609 37.5167 105.725ZM37.5167 95.0793C34.0808 93.8303 31.2852 95.6069 31.2852 99.0429C31.2852 102.168 33.6028 105.599 36.6059 107.137V111.267L38.4141 111.93V107.795C41.4261 108.449 43.7438 106.704 43.7438 103.575C43.7438 100.139 40.9482 96.3284 37.5122 95.0748L37.5167 95.0793Z" fill="#13203D" stroke="#A0F2E0" stroke-width="0.225456" stroke-miterlimit="23.8"/>
<path d="M42.8287 95.8459L44.8938 93.0637L43.3247 91.5757L41.255 94.3624C40.3757 93.6454 39.4243 93.0322 38.4233 92.5677V88.4419L36.6061 87.7791V91.9049C35.587 91.6344 34.6131 91.5532 33.7203 91.6389L31.7002 87.3462L30.122 87.6663L32.1511 91.9861C29.865 92.8157 28.377 94.9666 28.377 98.0012L30.1941 98.6641C30.1941 94.6284 33.4768 92.5407 37.5124 94.0107C41.5481 95.4806 44.8307 99.9582 44.8307 103.994L46.6479 104.657C46.6479 101.604 45.1373 98.3529 42.8287 95.8504V95.8459Z" fill="#13203D" stroke="#A0F2E0" stroke-width="0.225456" stroke-miterlimit="23.8"/>
<path d="M37.4987 105.738C35.0638 104.854 33.0843 102.149 33.0843 99.7184C33.0843 97.288 35.0638 96.0254 37.4987 96.9092C39.9336 97.7975 41.9131 100.498 41.9131 102.929C41.9131 105.359 39.9336 106.622 37.4987 105.738ZM37.4987 95.092C34.0627 93.843 31.2671 95.6196 31.2671 99.0556C31.2671 102.18 33.5848 105.612 36.5878 107.149V111.28L38.396 111.943V107.808C41.4081 108.462 43.7258 106.717 43.7258 103.587C43.7258 100.151 40.9301 96.3411 37.4942 95.0875L37.4987 95.092Z" fill="#13203D" stroke="#A0F2E0" stroke-width="0.225456" stroke-miterlimit="23.8"/>
<path d="M42.8106 95.8586L44.8758 93.0764L43.3066 91.5884L41.2369 94.3751C40.3576 93.6581 39.4062 93.0449 38.4052 92.5804V88.4546L36.588 87.7918V91.9176C35.569 91.6471 34.595 91.5659 33.7022 91.6516L31.6821 87.3589L30.1039 87.679L32.133 91.9988C29.8469 92.8284 28.3589 94.9793 28.3589 98.0139L30.1761 98.6768C30.1761 94.6411 33.4587 92.5534 37.4943 94.0234C41.53 95.4933 44.8126 99.9709 44.8126 104.007L46.6298 104.669C46.6298 101.617 45.1193 98.3656 42.8106 95.8631V95.8586Z" fill="#13203D" stroke="#A0F2E0" stroke-width="0.225456" stroke-miterlimit="23.8"/>
<path d="M37.4762 105.753C35.0413 104.869 33.0618 102.164 33.0618 99.7335C33.0618 97.3031 35.0413 96.0406 37.4762 96.9243C39.9111 97.8126 41.8906 100.514 41.8906 102.944C41.8906 105.374 39.9111 106.637 37.4762 105.753ZM37.4762 95.1072C34.0403 93.8582 31.2446 95.6347 31.2446 99.0707C31.2446 102.195 33.5623 105.627 36.5654 107.165V111.295L38.3735 111.958V107.823C41.3856 108.477 43.7033 106.732 43.7033 103.602C43.7033 100.166 40.9077 96.3562 37.4717 95.1027L37.4762 95.1072Z" fill="#13203D" stroke="#A0F2E0" stroke-width="0.225456" stroke-miterlimit="23.8"/>
<path d="M42.7925 95.8776L44.8577 93.0955L43.2885 91.6075L41.2188 94.3941C40.3396 93.6772 39.3881 93.0639 38.3871 92.5995V88.4736L36.5699 87.8108V91.9366C35.5509 91.6661 34.5769 91.5849 33.6841 91.6706L31.664 87.3779L30.0858 87.6981L32.1149 92.0178C29.8288 92.8475 28.3408 94.9983 28.3408 98.033L30.158 98.6958C30.158 94.6601 33.4406 92.5724 37.4763 94.0424C41.5119 95.5124 44.7946 99.9899 44.7946 104.026L46.6117 104.688C46.6117 101.636 45.1012 98.3847 42.7925 95.8821V95.8776Z" fill="#13203D" stroke="#A0F2E0" stroke-width="0.225456" stroke-miterlimit="23.8"/>
<path d="M37.4582 105.77C35.0232 104.886 33.0437 102.181 33.0437 99.7506C33.0437 97.3202 35.0232 96.0577 37.4582 96.9414C39.8931 97.8297 41.8726 100.531 41.8726 102.961C41.8726 105.392 39.8931 106.654 37.4582 105.77ZM37.4582 95.1243C34.0222 93.8752 31.2266 95.6518 31.2266 99.0878C31.2266 102.213 33.5442 105.644 36.5473 107.182V111.312L38.3555 111.975V107.84C41.3676 108.494 43.6852 106.749 43.6852 103.619C43.6852 100.183 40.8896 96.3733 37.4536 95.1198L37.4582 95.1243Z" fill="#13203D" stroke="#A0F2E0" stroke-width="0.225456" stroke-miterlimit="23.8"/>
<path d="M42.7701 95.8908L44.8352 93.1087L43.2661 91.6207L41.1964 94.4073C40.3171 93.6903 39.3657 93.0771 38.3647 92.6127V88.4868L36.5475 87.824V91.9498C35.5284 91.6793 34.5545 91.5981 33.6617 91.6838L31.6416 87.3911L30.0634 87.7113L32.0925 92.031C29.8064 92.8607 28.3184 95.0115 28.3184 98.0461L30.1355 98.709C30.1355 94.6733 33.4182 92.5856 37.4538 94.0556C41.4895 95.5256 44.7721 100.003 44.7721 104.039L46.5893 104.702C46.5893 101.649 45.0787 98.3979 42.7701 95.8953V95.8908Z" fill="#13203D" stroke="#A0F2E0" stroke-width="0.225456" stroke-miterlimit="23.8"/>
<path d="M37.4396 105.784C35.0047 104.901 33.0252 102.195 33.0252 99.7648C33.0252 97.3344 35.0047 96.0718 37.4396 96.9556C39.8745 97.8439 41.854 100.545 41.854 102.975C41.854 105.406 39.8745 106.668 37.4396 105.784ZM37.4396 95.1384C34.0037 93.8894 31.208 95.666 31.208 99.1019C31.208 102.227 33.5257 105.658 36.5288 107.196V111.326L38.3369 111.989V107.854C41.349 108.508 43.6667 106.763 43.6667 103.634C43.6667 100.198 40.871 96.3875 37.4351 95.1339L37.4396 95.1384Z" fill="#13203D" stroke="#A0F2E0" stroke-width="0.225456" stroke-miterlimit="23.8"/>
<path d="M42.7515 95.9049L44.8167 93.1228L43.2475 91.6348L41.1778 94.4215C40.2986 93.7045 39.3471 93.0913 38.3461 92.6268V88.501L36.5289 87.8381V91.964C35.5099 91.6934 34.5359 91.6123 33.6431 91.6979L31.623 87.4053L30.0448 87.7254L32.0739 92.0451C29.7878 92.8748 28.2998 95.0257 28.2998 98.0603L30.117 98.7231C30.117 94.6875 33.3996 92.5998 37.4353 94.0697C41.4709 95.5397 44.7536 100.017 44.7536 104.053L46.5707 104.716C46.5707 101.663 45.0602 98.412 42.7515 95.9095V95.9049Z" fill="#13203D" stroke="#A0F2E0" stroke-width="0.225456" stroke-miterlimit="23.8"/>
<path d="M37.4225 105.797C34.9876 104.913 33.0081 102.208 33.0081 99.7775C33.0081 97.3471 34.9876 96.0845 37.4225 96.9683C39.8574 97.8566 41.8369 100.558 41.8369 102.988C41.8369 105.418 39.8574 106.681 37.4225 105.797ZM37.4225 95.1511C33.9866 93.9021 31.1909 95.6787 31.1909 99.1146C31.1909 102.239 33.5086 105.671 36.5117 107.208V111.339L38.3198 112.002V107.867C41.3319 108.521 43.6496 106.776 43.6496 103.646C43.6496 100.21 40.8539 96.4001 37.418 95.1466L37.4225 95.1511Z" fill="#13203D" stroke="#A0F2E0" stroke-width="0.225456" stroke-miterlimit="23.8"/>
<path d="M42.7339 95.9176L44.7991 93.1355L43.2299 91.6475L41.1603 94.4341C40.281 93.7172 39.3296 93.104 38.3285 92.6395V88.5137L36.5114 87.8508V91.9767C35.4923 91.7061 34.5183 91.625 33.6255 91.7106L31.6054 87.418L30.0273 87.7381L32.0564 92.0578C29.7702 92.8875 28.2822 95.0384 28.2822 98.073L30.0994 98.7358C30.0994 94.7002 33.382 92.6125 37.4177 94.0824C41.4533 95.5524 44.736 100.03 44.736 104.066L46.5531 104.728C46.5531 101.676 45.0426 98.4247 42.7339 95.9222V95.9176Z" fill="#13203D" stroke="#A0F2E0" stroke-width="0.225456" stroke-miterlimit="23.8"/>
<path d="M37.404 105.815C34.969 104.931 32.9895 102.226 32.9895 99.7955C32.9895 97.3651 34.969 96.1026 37.404 96.9864C39.8389 97.8747 41.8184 100.576 41.8184 103.006C41.8184 105.436 39.8389 106.699 37.404 105.815ZM37.404 95.1692C33.968 93.9202 31.1724 95.6968 31.1724 99.1327C31.1724 102.258 33.49 105.689 36.4931 107.227V111.357L38.3013 112.02V107.885C41.3134 108.539 43.631 106.794 43.631 103.664C43.631 100.228 40.8354 96.4182 37.3994 95.1647L37.404 95.1692Z" fill="#13203D" stroke="#A0F2E0" stroke-width="0.225456" stroke-miterlimit="23.8"/>
<path d="M42.7159 95.9357L44.781 93.1536L43.2119 91.6656L41.1422 94.4522C40.2629 93.7353 39.3115 93.122 38.3105 92.6576V88.5318L36.4933 87.8689V91.9947C35.4742 91.7242 34.5003 91.643 33.6075 91.7287L31.5874 87.436L30.0092 87.7562L32.0383 92.0759C29.7522 92.9056 28.2642 95.0564 28.2642 98.0911L30.0813 98.7539C30.0813 94.7183 33.364 92.6305 37.3996 94.1005C41.4353 95.5705 44.7179 100.048 44.7179 104.084L46.5351 104.747C46.5351 101.694 45.0245 98.4428 42.7159 95.9402V95.9357Z" fill="#13203D" stroke="#A0F2E0" stroke-width="0.225456" stroke-miterlimit="23.8"/>
<path d="M37.3815 105.829C34.9466 104.946 32.9671 102.24 32.9671 99.8097C32.9671 97.3793 34.9466 96.1167 37.3815 97.0005C39.8164 97.8888 41.7959 100.59 41.7959 103.02C41.7959 105.451 39.8164 106.713 37.3815 105.829ZM37.3815 95.1833C33.9456 93.9343 31.1499 95.7109 31.1499 99.1469C31.1499 102.272 33.4676 105.703 36.4707 107.241V111.371L38.2788 112.034V107.899C41.2909 108.553 43.6086 106.808 43.6086 103.679C43.6086 100.243 40.8129 96.4324 37.377 95.1788L37.3815 95.1833Z" fill="#13203D" stroke="#A0F2E0" stroke-width="0.225456" stroke-miterlimit="23.8"/>
<path d="M42.6934 95.9499L44.7586 93.1678L43.1894 91.6797L41.1197 94.4664C40.2404 93.7494 39.289 93.1362 38.288 92.6717V88.5459L36.4708 87.8831V92.0089C35.4518 91.7384 34.4778 91.6572 33.585 91.7429L31.5649 87.4502L29.9867 87.7703L32.0158 92.0901C29.7297 92.9198 28.2417 95.0706 28.2417 98.1052L30.0589 98.7681C30.0589 94.7324 33.3415 92.6447 37.3772 94.1147C41.4128 95.5846 44.6954 100.062 44.6954 104.098L46.5126 104.761C46.5126 101.708 45.0021 98.4569 42.6934 95.9544V95.9499Z" fill="#13203D" stroke="#A0F2E0" stroke-width="0.225456" stroke-miterlimit="23.8"/>
<path d="M37.3634 105.843C34.9285 104.959 32.949 102.254 32.949 99.8234C32.949 97.393 34.9285 96.1304 37.3634 97.0142C39.7983 97.9025 41.7778 100.603 41.7778 103.034C41.7778 105.464 39.7983 106.727 37.3634 105.843ZM37.3634 95.197C33.9275 93.948 31.1318 95.7246 31.1318 99.1605C31.1318 102.285 33.4495 105.717 36.4526 107.254V111.385L38.2607 112.048V107.913C41.2728 108.567 43.5905 106.822 43.5905 103.692C43.5905 100.256 40.7949 96.446 37.3589 95.1925L37.3634 95.197Z" fill="#13203D" stroke="#A0F2E0" stroke-width="0.225456" stroke-miterlimit="23.8"/>
<path d="M42.6753 95.9631L44.7405 93.1809L43.1713 91.6929L41.1017 94.4796C40.2224 93.7626 39.271 93.1494 38.2699 92.6849V88.5591L36.4528 87.8963V92.0221C35.4337 91.7515 34.4597 91.6704 33.5669 91.7561L31.5468 87.4634L29.9687 87.7835L31.9978 92.1033C29.7116 92.9329 28.2236 95.0838 28.2236 98.1184L30.0408 98.7813C30.0408 94.7456 33.3234 92.6579 37.3591 94.1278C41.3947 95.5978 44.6774 100.075 44.6774 104.111L46.4946 104.774C46.4946 101.721 44.984 98.4701 42.6753 95.9676V95.9631Z" fill="#13203D" stroke="#A0F2E0" stroke-width="0.225456" stroke-miterlimit="23.8"/>
<path d="M37.3454 105.856C34.9104 104.972 32.9309 102.266 32.9309 99.8361C32.9309 97.4057 34.9104 96.1431 37.3454 97.0269C39.7803 97.9152 41.7598 100.616 41.7598 103.047C41.7598 105.477 39.7803 106.74 37.3454 105.856ZM37.3454 95.2097C33.9094 93.9607 31.1138 95.7373 31.1138 99.1732C31.1138 102.298 33.4315 105.729 36.4345 107.267V111.397L38.2427 112.06V107.925C41.2548 108.579 43.5724 106.834 43.5724 103.705C43.5724 100.269 40.7768 96.4587 37.3409 95.2052L37.3454 95.2097Z" fill="#13203D" stroke="#A0F2E0" stroke-width="0.225456" stroke-miterlimit="23.8"/>
<path d="M42.6573 95.9762L44.7224 93.1941L43.1533 91.7061L41.0836 94.4927C40.2043 93.7758 39.2529 93.1626 38.2519 92.6981V88.5723L36.4347 87.9094V92.0353C35.4156 91.7647 34.4417 91.6836 33.5489 91.7692L31.5288 87.4766L29.9506 87.7967L31.9797 92.1164C29.6936 92.9461 28.2056 95.097 28.2056 98.1316L30.0227 98.7944C30.0227 94.7588 33.3054 92.6711 37.341 94.141C41.3767 95.611 44.6593 100.089 44.6593 104.124L46.4765 104.787C46.4765 101.734 44.9659 98.4833 42.6573 95.9807V95.9762Z" fill="#13203D" stroke="#A0F2E0" stroke-width="0.225456" stroke-miterlimit="23.8"/>
<path d="M37.3273 105.873C34.8924 104.99 32.9129 102.284 32.9129 99.8536C32.9129 97.4232 34.8924 96.1607 37.3273 97.0445C39.7622 97.9328 41.7417 100.634 41.7417 103.064C41.7417 105.495 39.7622 106.757 37.3273 105.873ZM37.3273 95.2273C33.8914 93.9783 31.0957 95.7549 31.0957 99.1908C31.0957 102.316 33.4134 105.747 36.4165 107.285V111.415L38.2246 112.078V107.943C41.2367 108.597 43.5544 106.852 43.5544 103.722C43.5544 100.287 40.7587 96.4763 37.3228 95.2228L37.3273 95.2273Z" fill="#13203D" stroke="#A0F2E0" stroke-width="0.225456" stroke-miterlimit="23.8"/>
<path d="M42.6392 95.9938L44.7044 93.2117L43.1352 91.7237L41.0655 94.5103C40.1862 93.7934 39.2348 93.1801 38.2338 92.7157V88.5899L36.4166 87.927V92.0529C35.3976 91.7823 34.4236 91.7011 33.5308 91.7868L31.5107 87.4941L29.9325 87.8143L31.9616 92.134C29.6755 92.9637 28.1875 95.1145 28.1875 98.1492L30.0047 98.812C30.0047 94.7764 33.2873 92.6886 37.323 94.1586C41.3586 95.6286 44.6413 100.106 44.6413 104.142L46.4584 104.805C46.4584 101.752 44.9479 98.5009 42.6392 95.9983V95.9938Z" fill="#13203D" stroke="#A0F2E0" stroke-width="0.225456" stroke-miterlimit="23.8"/>
<path d="M37.3048 105.888C34.8699 105.004 32.8904 102.299 32.8904 99.8683C32.8904 97.4379 34.8699 96.1753 37.3048 97.0591C39.7398 97.9474 41.7193 100.648 41.7193 103.079C41.7193 105.509 39.7398 106.772 37.3048 105.888ZM37.3048 95.2419C33.8689 93.9929 31.0732 95.7695 31.0732 99.2055C31.0732 102.33 33.3909 105.762 36.394 107.299V111.43L38.2021 112.092V107.958C41.2142 108.611 43.5319 106.866 43.5319 103.737C43.5319 100.301 40.7363 96.491 37.3003 95.2374L37.3048 95.2419Z" fill="#13203D" stroke="#A0F2E0" stroke-width="0.225456" stroke-miterlimit="23.8"/>
<path d="M42.6167 96.008L44.6819 93.2259L43.1127 91.7379L41.0431 94.5245C40.1638 93.8075 39.2124 93.1943 38.2113 92.7299V88.604L36.3942 87.9412V92.067C35.3751 91.7965 34.4011 91.7153 33.5083 91.801L31.4883 87.5083L29.9101 87.8285L31.9392 92.1482C29.653 92.9779 28.165 95.1287 28.165 98.1633L29.9822 98.8262C29.9822 94.7905 33.2648 92.7028 37.3005 94.1728C41.3362 95.6427 44.6188 100.12 44.6188 104.156L46.436 104.819C46.436 101.766 44.9254 98.515 42.6167 96.0125V96.008Z" fill="#13203D" stroke="#A0F2E0" stroke-width="0.225456" stroke-miterlimit="23.8"/>
<path d="M37.2868 105.901C34.8518 105.017 32.8723 102.312 32.8723 99.8815C32.8723 97.4511 34.8518 96.1885 37.2868 97.0723C39.7217 97.9606 41.7012 100.662 41.7012 103.092C41.7012 105.522 39.7217 106.785 37.2868 105.901ZM37.2868 95.2551C33.8508 94.0061 31.0552 95.7827 31.0552 99.2186C31.0552 102.343 33.3729 105.775 36.3759 107.312V111.443L38.1841 112.106V107.971C41.1962 108.625 43.5139 106.88 43.5139 103.75C43.5139 100.314 40.7182 96.5042 37.2823 95.2506L37.2868 95.2551Z" fill="#13203D" stroke="#A0F2E0" stroke-width="0.225456" stroke-miterlimit="23.8"/>
<path d="M42.5987 96.0217L44.6638 93.2395L43.0947 91.7515L41.025 94.5381C40.1457 93.8212 39.1943 93.208 38.1933 92.7435V88.6177L36.3761 87.9549V92.0807C35.357 91.8101 34.3831 91.729 33.4903 91.8146L31.4702 87.522L29.892 87.8421L31.9211 92.1618C29.635 92.9915 28.147 95.1424 28.147 98.177L29.9641 98.8398C29.9641 94.8042 33.2468 92.7165 37.2824 94.1864C41.3181 95.6564 44.6007 100.134 44.6007 104.17L46.4179 104.832C46.4179 101.78 44.9073 98.5287 42.5987 96.0262V96.0217Z" fill="#13203D" stroke="#A0F2E0" stroke-width="0.225456" stroke-miterlimit="23.8"/>
<path d="M37.2687 105.915C34.8338 105.032 32.8543 102.326 32.8543 99.8956C32.8543 97.4652 34.8338 96.2027 37.2687 97.0865C39.7036 97.9748 41.6831 100.676 41.6831 103.106C41.6831 105.537 39.7036 106.799 37.2687 105.915ZM37.2687 95.2693C33.8328 94.0203 31.0371 95.7968 31.0371 99.2328C31.0371 102.358 33.3548 105.789 36.3579 107.327V111.457L38.166 112.12V107.985C41.1781 108.639 43.4958 106.894 43.4958 103.764C43.4958 100.329 40.7001 96.5183 37.2642 95.2648L37.2687 95.2693Z" fill="#13203D" stroke="#A0F2E0" stroke-width="0.225456" stroke-miterlimit="23.8"/>
<path d="M42.5806 96.0358L44.6458 93.2537L43.0766 91.7657L41.0069 94.5523C40.1277 93.8354 39.1762 93.2221 38.1752 92.7577V88.6319L36.358 87.969V92.0948C35.339 91.8243 34.365 91.7431 33.4722 91.8288L31.4521 87.5361L29.8739 87.8563L31.903 92.176C29.6169 93.0057 28.1289 95.1565 28.1289 98.1912L29.9461 98.854C29.9461 94.8184 33.2287 92.7306 37.2644 94.2006C41.3 95.6706 44.5827 100.148 44.5827 104.184L46.3998 104.847C46.3998 101.794 44.8893 98.5429 42.5806 96.0403V96.0358Z" fill="#13203D" stroke="#A0F2E0" stroke-width="0.225456" stroke-miterlimit="23.8"/>
<path d="M37.2506 105.933C34.8157 105.049 32.8362 102.344 32.8362 99.9132C32.8362 97.4828 34.8157 96.2202 37.2506 97.104C39.6856 97.9923 41.6651 100.693 41.6651 103.124C41.6651 105.554 39.6856 106.817 37.2506 105.933ZM37.2506 95.2869C33.8147 94.0378 31.019 95.8144 31.019 99.2504C31.019 102.375 33.3367 105.807 36.3398 107.344V111.475L38.1479 112.137V108.003C41.16 108.656 43.4777 106.911 43.4777 103.782C43.4777 100.346 40.6821 96.5359 37.2461 95.2824L37.2506 95.2869Z" fill="#13203D" stroke="#A0F2E0" stroke-width="0.225456" stroke-miterlimit="23.8"/>
<path d="M42.5625 96.0529L44.6277 93.2708L43.0585 91.7828L40.9889 94.5694C40.1096 93.8525 39.1582 93.2392 38.1571 92.7748V88.6489L36.34 87.9861V92.1119C35.3209 91.8414 34.3469 91.7602 33.4541 91.8459L31.4341 87.5532L29.8559 87.8734L31.885 92.1931C29.5988 93.0228 28.1108 95.1736 28.1108 98.2082L29.928 98.8711C29.928 94.8354 33.2106 92.7477 37.2463 94.2177C41.282 95.6877 44.5646 100.165 44.5646 104.201L46.3818 104.864C46.3818 101.811 44.8712 98.56 42.5625 96.0574V96.0529Z" fill="#13203D" stroke="#A0F2E0" stroke-width="0.225456" stroke-miterlimit="23.8"/>
<path d="M37.2282 105.946C34.7933 105.062 32.8138 102.357 32.8138 99.9264C32.8138 97.496 34.7933 96.2334 37.2282 97.1172C39.6631 98.0055 41.6426 100.706 41.6426 103.137C41.6426 105.567 39.6631 106.83 37.2282 105.946ZM37.2282 95.3C33.7922 94.051 30.9966 95.8276 30.9966 99.2636C30.9966 102.388 33.3143 105.82 36.3173 107.357V111.488L38.1255 112.151V108.016C41.1376 108.67 43.4553 106.925 43.4553 103.795C43.4553 100.359 40.6596 96.5491 37.2237 95.2955L37.2282 95.3Z" fill="#13203D" stroke="#A0F2E0" stroke-width="0.225456" stroke-miterlimit="23.8"/>
<path d="M42.5445 96.0666L44.6097 93.2844L43.0405 91.7964L40.9708 94.5831C40.0915 93.8661 39.1401 93.2529 38.1391 92.7884V88.6626L36.3219 87.9998V92.1256C35.3028 91.8551 34.3289 91.7739 33.4361 91.8596L31.416 87.5669L29.8378 87.887L31.8669 92.2068C29.5808 93.0364 28.0928 95.1873 28.0928 98.2219L29.9099 98.8848C29.9099 94.8491 33.1926 92.7614 37.2282 94.2314C41.2639 95.7013 44.5465 100.179 44.5465 104.215L46.3637 104.877C46.3637 101.825 44.8531 98.5736 42.5445 96.0711V96.0666Z" fill="#13203D" stroke="#A0F2E0" stroke-width="0.225456" stroke-miterlimit="23.8"/>
<path d="M37.2096 105.96C34.7747 105.076 32.7952 102.371 32.7952 99.9406C32.7952 97.5101 34.7747 96.2476 37.2096 97.1314C39.6445 98.0197 41.624 100.721 41.624 103.151C41.624 105.581 39.6445 106.844 37.2096 105.96ZM37.2096 95.3142C33.7737 94.0652 30.978 95.8418 30.978 99.2777C30.978 102.403 33.2957 105.834 36.2988 107.372V111.502L38.1069 112.165V108.03C41.119 108.684 43.4367 106.939 43.4367 103.809C43.4367 100.373 40.6411 96.5632 37.2051 95.3097L37.2096 95.3142Z" fill="#13203D" stroke="#A0F2E0" stroke-width="0.225456" stroke-miterlimit="23.8"/>
<path d="M42.5215 96.0807L44.5867 93.2986L43.0175 91.8106L40.9478 94.5972C40.0686 93.8803 39.1171 93.267 38.1161 92.8026V88.6768L36.299 88.0139V92.1398C35.2799 91.8692 34.3059 91.7881 33.4131 91.8737L31.393 87.5811L29.8149 87.9012L31.844 92.2209C29.5578 93.0506 28.0698 95.2014 28.0698 98.2361L29.887 98.8989C29.887 94.8633 33.1696 92.7756 37.2053 94.2455C41.2409 95.7155 44.5236 100.193 44.5236 104.229L46.3407 104.892C46.3407 101.839 44.8302 98.5878 42.5215 96.0852V96.0807Z" fill="#13203D" stroke="#A0F2E0" stroke-width="0.225456" stroke-miterlimit="23.8"/>
<path d="M37.192 105.973C34.7571 105.089 32.7776 102.384 32.7776 99.9533C32.7776 97.5228 34.7571 96.2603 37.192 97.1441C39.627 98.0324 41.6065 100.733 41.6065 103.164C41.6065 105.594 39.627 106.857 37.192 105.973ZM37.192 95.3269C33.7561 94.0779 30.9604 95.8545 30.9604 99.2904C30.9604 102.415 33.2781 105.847 36.2812 107.384V111.515L38.0894 112.177V108.043C41.1014 108.696 43.4191 106.951 43.4191 103.822C43.4191 100.386 40.6235 96.5759 37.1875 95.3224L37.192 95.3269Z" fill="#13203D" stroke="#A0F2E0" stroke-width="0.225456" stroke-miterlimit="23.8"/>
<path d="M42.5039 96.0983L44.5691 93.3162L43 91.8282L40.9303 94.6148C40.051 93.8979 39.0996 93.2846 38.0985 92.8202V88.6944L36.2814 88.0315V92.1573C35.2623 91.8868 34.2883 91.8056 33.3955 91.8913L31.3755 87.5986L29.7973 87.9188L31.8264 92.2385C29.5403 93.0682 28.0522 95.219 28.0522 98.2537L29.8694 98.9165C29.8694 94.8809 33.152 92.7931 37.1877 94.2631C41.2234 95.7331 44.506 100.211 44.506 104.246L46.3232 104.909C46.3232 101.856 44.8126 98.6054 42.5039 96.1028V96.0983Z" fill="#13203D" stroke="#A0F2E0" stroke-width="0.225456" stroke-miterlimit="23.8"/>
<path d="M37.174 105.991C34.7391 105.108 32.7596 102.402 32.7596 99.9718C32.7596 97.5414 34.7391 96.2788 37.174 97.1626C39.6089 98.0509 41.5884 100.752 41.5884 103.182C41.5884 105.613 39.6089 106.875 37.174 105.991ZM37.174 95.3455C33.738 94.0964 30.9424 95.873 30.9424 99.309C30.9424 102.434 33.2601 105.865 36.2631 107.403V111.533L38.0713 112.196V108.061C41.0834 108.715 43.4011 106.97 43.4011 103.841C43.4011 100.405 40.6054 96.5945 37.1695 95.3409L37.174 95.3455Z" fill="#13203D" stroke="#A0F2E0" stroke-width="0.225456" stroke-miterlimit="23.8"/>
<path d="M42.4859 96.112L44.5511 93.3299L42.9819 91.8419L40.9122 94.6285C40.0329 93.9115 39.0815 93.2983 38.0805 92.8339V88.708L36.2633 88.0452V92.171C35.2442 91.9005 34.2703 91.8193 33.3775 91.905L31.3574 87.6123L29.7792 87.9325L31.8083 92.2522C29.5222 93.0819 28.0342 95.2327 28.0342 98.2673L29.8514 98.9302C29.8514 94.8945 33.134 92.8068 37.1696 94.2768C41.2053 95.7467 44.4879 100.224 44.4879 104.26L46.3051 104.923C46.3051 101.87 44.7945 98.619 42.4859 96.1165V96.112Z" fill="#13203D" stroke="#A0F2E0" stroke-width="0.225456" stroke-miterlimit="23.8"/>
<path d="M37.1515 106.005C34.7166 105.121 32.7371 102.416 32.7371 99.9855C32.7371 97.5551 34.7166 96.2925 37.1515 97.1763C39.5864 98.0646 41.5659 100.766 41.5659 103.196C41.5659 105.626 39.5864 106.889 37.1515 106.005ZM37.1515 95.3591C33.7156 94.1101 30.9199 95.8867 30.9199 99.3226C30.9199 102.447 33.2376 105.879 36.2407 107.416V111.547L38.0488 112.21V108.075C41.0609 108.729 43.3786 106.984 43.3786 103.854C43.3786 100.418 40.5829 96.6081 37.147 95.3546L37.1515 95.3591Z" fill="#13203D" stroke="#A0F2E0" stroke-width="0.225456" stroke-miterlimit="23.8"/>
<path d="M42.4678 96.1257L44.533 93.3435L42.9638 91.8555L40.8941 94.6422C40.0149 93.9252 39.0634 93.312 38.0624 92.8475V88.7217L36.2452 88.0589V92.1847C35.2262 91.9141 34.2522 91.833 33.3594 91.9187L31.3393 87.626L29.7611 87.9461L31.7902 92.2659C29.5041 93.0955 28.0161 95.2464 28.0161 98.281L29.8333 98.9439C29.8333 94.9082 33.1159 92.8205 37.1516 94.2904C41.1872 95.7604 44.4699 100.238 44.4699 104.274L46.287 104.936C46.287 101.884 44.7765 98.6327 42.4678 96.1302V96.1257Z" fill="#13203D" stroke="#A0F2E0" stroke-width="0.225456" stroke-miterlimit="23.8"/>
<path d="M37.1334 106.018C34.6985 105.135 32.719 102.429 32.719 99.9987C32.719 97.5682 34.6985 96.3057 37.1334 97.1895C39.5684 98.0778 41.5479 100.779 41.5479 103.209C41.5479 105.64 39.5684 106.902 37.1334 106.018ZM37.1334 95.3723C33.6975 94.1233 30.9019 95.8999 30.9019 99.3358C30.9019 102.461 33.2195 105.892 36.2226 107.43V111.56L38.0308 112.223V108.088C41.0428 108.742 43.3605 106.997 43.3605 103.867C43.3605 100.432 40.5649 96.6213 37.1289 95.3678L37.1334 95.3723Z" fill="#13203D" stroke="#A0F2E0" stroke-width="0.225456" stroke-miterlimit="23.8"/>
<path d="M42.4454 96.1388L44.5105 93.3567L42.9414 91.8687L40.8717 94.6553C39.9924 93.9384 39.041 93.3252 38.04 92.8607V88.7349L36.2228 88.072V92.1979C35.2037 91.9273 34.2298 91.8462 33.337 91.9318L31.3169 87.6392L29.7387 87.9593L31.7678 92.279C29.4817 93.1087 27.9937 95.2596 27.9937 98.2942L29.8108 98.957C29.8108 94.9214 33.0935 92.8337 37.1291 94.3036C41.1648 95.7736 44.4474 100.251 44.4474 104.287L46.2646 104.95C46.2646 101.897 44.754 98.6459 42.4454 96.1433V96.1388Z" fill="#13203D" stroke="#A0F2E0" stroke-width="0.225456" stroke-miterlimit="23.8"/>
<path d="M37.1154 106.036C34.6805 105.153 32.701 102.447 32.701 100.017C32.701 97.5863 34.6805 96.3238 37.1154 97.2075C39.5503 98.0958 41.5298 100.797 41.5298 103.227C41.5298 105.658 39.5503 106.92 37.1154 106.036ZM37.1154 95.3904C33.6794 94.1414 30.8838 95.9179 30.8838 99.3539C30.8838 102.479 33.2015 105.91 36.2045 107.448V111.578L38.0127 112.241V108.106C41.0248 108.76 43.3425 107.015 43.3425 103.886C43.3425 100.45 40.5468 96.6394 37.1109 95.3859L37.1154 95.3904Z" fill="#13203D" stroke="#A0F2E0" stroke-width="0.225456" stroke-miterlimit="23.8"/>
<path d="M42.4273 96.1569L44.4925 93.3748L42.9233 91.8868L40.8536 94.6734C39.9743 93.9565 39.0229 93.3432 38.0219 92.8788V88.7529L36.2047 88.0901V92.2159C35.1857 91.9454 34.2117 91.8642 33.3189 91.9499L31.2988 87.6572L29.7206 87.9774L31.7497 92.2971C29.4636 93.1268 27.9756 95.2776 27.9756 98.3123L29.7928 98.9751C29.7928 94.9394 33.0754 92.8517 37.111 94.3217C41.1467 95.7917 44.4293 100.269 44.4293 104.305L46.2465 104.968C46.2465 101.915 44.736 98.664 42.4273 96.1614V96.1569Z" fill="#13203D" stroke="#A0F2E0" stroke-width="0.225456" stroke-miterlimit="23.8"/>
<path d="M37.0973 106.05C34.6624 105.166 32.6829 102.461 32.6829 100.03C32.6829 97.6 34.6624 96.3374 37.0973 97.2212C39.5322 98.1095 41.5117 100.81 41.5117 103.241C41.5117 105.671 39.5322 106.934 37.0973 106.05ZM37.0973 95.4041C33.6614 94.155 30.8657 95.9316 30.8657 99.3676C30.8657 102.492 33.1834 105.924 36.1865 107.461V111.592L37.9946 112.255V108.12C41.0067 108.774 43.3244 107.029 43.3244 103.899C43.3244 100.463 40.5287 96.6531 37.0928 95.3995L37.0973 95.4041Z" fill="#13203D" stroke="#A0F2E0" stroke-width="0.225456" stroke-miterlimit="23.8"/>
<path d="M42.4092 96.1706L44.4744 93.3884L42.9052 91.9004L40.8355 94.6871C39.9563 93.9701 39.0048 93.3569 38.0038 92.8925V88.7666L36.1867 88.1038V92.2296C35.1676 91.9591 34.1936 91.8779 33.3008 91.9636L31.2807 87.6709L29.7025 87.991L31.7316 92.3108C29.4455 93.1404 27.9575 95.2913 27.9575 98.3259L29.7747 98.9888C29.7747 94.9531 33.0573 92.8654 37.093 94.3354C41.1286 95.8053 44.4113 100.283 44.4113 104.319L46.2284 104.981C46.2284 101.929 44.7179 98.6776 42.4092 96.1751V96.1706Z" fill="#13203D" stroke="#A0F2E0" stroke-width="0.225456" stroke-miterlimit="23.8"/>
<path d="M37.0749 106.064C34.6399 105.18 32.6604 102.475 32.6604 100.045C32.6604 97.6142 34.6399 96.3516 37.0749 97.2354C39.5098 98.1237 41.4893 100.825 41.4893 103.255C41.4893 105.685 39.5098 106.948 37.0749 106.064ZM37.0749 95.4182C33.6389 94.1692 30.8433 95.9458 30.8433 99.3817C30.8433 102.507 33.1609 105.938 36.164 107.476V111.606L37.9722 112.269V108.134C40.9843 108.788 43.3019 107.043 43.3019 103.913C43.3019 100.477 40.5063 96.6672 37.0703 95.4137L37.0749 95.4182Z" fill="#13203D" stroke="#A0F2E0" stroke-width="0.225456" stroke-miterlimit="23.8"/>
<path d="M42.3912 96.1847L44.4563 93.4026L42.8872 91.9146L40.8175 94.7012C39.9382 93.9843 38.9868 93.371 37.9858 92.9066V88.7808L36.1686 88.1179V92.2438C35.1495 91.9732 34.1756 91.8921 33.2828 91.9777L31.2627 87.6851L29.6845 88.0052L31.7136 92.3249C29.4275 93.1546 27.9395 95.3055 27.9395 98.3401L29.7566 99.0029C29.7566 94.9673 33.0393 92.8796 37.0749 94.3495C41.1106 95.8195 44.3932 100.297 44.3932 104.333L46.2104 104.996C46.2104 101.943 44.6998 98.6918 42.3912 96.1892V96.1847Z" fill="#13203D" stroke="#A0F2E0" stroke-width="0.225456" stroke-miterlimit="23.8"/>
<path d="M37.0573 106.076C34.6224 105.193 32.6429 102.487 32.6429 100.057C32.6429 97.6264 34.6224 96.3638 37.0573 97.2476C39.4922 98.1359 41.4717 100.837 41.4717 103.267C41.4717 105.698 39.4922 106.96 37.0573 106.076ZM37.0573 95.4304C33.6213 94.1814 30.8257 95.958 30.8257 99.3939C30.8257 102.519 33.1434 105.95 36.1464 107.488V111.618L37.9546 112.281V108.146C40.9667 108.8 43.2844 107.055 43.2844 103.926C43.2844 100.49 40.4887 96.6794 37.0528 95.4259L37.0573 95.4304Z" fill="#13203D" stroke="#A0F2E0" stroke-width="0.225456" stroke-miterlimit="23.8"/>
<path d="M42.3687 96.1969L44.4339 93.4148L42.8647 91.9268L40.795 94.7134C39.9157 93.9965 38.9643 93.3833 37.9633 92.9188V88.793L36.1461 88.1301V92.256C35.1271 91.9854 34.1531 91.9043 33.2603 91.9899L31.2402 87.6973L29.662 88.0174L31.6911 92.3371C29.405 93.1668 27.917 95.3177 27.917 98.3523L29.7342 99.0151C29.7342 94.9795 33.0168 92.8918 37.0525 94.3617C41.0881 95.8317 44.3707 100.309 44.3707 104.345L46.1879 105.008C46.1879 101.955 44.6774 98.704 42.3687 96.2015V96.1969Z" fill="#13203D" stroke="#A0F2E0" stroke-width="0.225456" stroke-miterlimit="23.8"/>
<path d="M37.0387 106.096C34.6038 105.212 32.6243 102.507 32.6243 100.076C32.6243 97.6459 34.6038 96.3833 37.0387 97.2671C39.4736 98.1554 41.4531 100.856 41.4531 103.287C41.4531 105.717 39.4736 106.98 37.0387 106.096ZM37.0387 95.4499C33.6028 94.2009 30.8071 95.9775 30.8071 99.4135C30.8071 102.538 33.1248 105.97 36.1279 107.507V111.638L37.936 112.3V108.166C40.9481 108.819 43.2658 107.074 43.2658 103.945C43.2658 100.509 40.4702 96.699 37.0342 95.4454L37.0387 95.4499Z" fill="#13203D" stroke="#A0F2E0" stroke-width="0.225456" stroke-miterlimit="23.8"/>
<path d="M42.3506 96.216L44.4158 93.4339L42.8466 91.9459L40.7769 94.7325C39.8977 94.0155 38.9462 93.4023 37.9452 92.9379V88.812L36.1281 88.1492V92.275C35.109 92.0045 34.135 91.9233 33.2422 92.009L31.2221 87.7163L29.644 88.0365L31.6731 92.3562C29.3869 93.1859 27.8989 95.3367 27.8989 98.3713L29.7161 99.0342C29.7161 94.9985 32.9987 92.9108 37.0344 94.3808C41.07 95.8507 44.3527 100.328 44.3527 104.364L46.1698 105.027C46.1698 101.974 44.6593 98.723 42.3506 96.2205V96.216Z" fill="#13203D" stroke="#A0F2E0" stroke-width="0.225456" stroke-miterlimit="23.8"/>
<path d="M37.0207 106.109C34.5857 105.225 32.6062 102.519 32.6062 100.089C32.6062 97.6586 34.5857 96.396 37.0207 97.2798C39.4556 98.1681 41.4351 100.869 41.4351 103.299C41.4351 105.73 39.4556 106.992 37.0207 106.109ZM37.0207 95.4626C33.5847 94.2136 30.7891 95.9902 30.7891 99.4262C30.7891 102.551 33.1067 105.982 36.1098 107.52V111.65L37.918 112.313V108.178C40.9301 108.832 43.2477 107.087 43.2477 103.958C43.2477 100.522 40.4521 96.7117 37.0161 95.4581L37.0207 95.4626Z" fill="#13203D" stroke="#A0F2E0" stroke-width="0.225456" stroke-miterlimit="23.8"/>
<path d="M42.3326 96.2287L44.3977 93.4466L42.8286 91.9585L40.7589 94.7452C39.8796 94.0282 38.9282 93.415 37.9272 92.9505V88.8247L36.11 88.1619V92.2877C35.0909 92.0172 34.117 91.936 33.2242 92.0217L31.2041 87.729L29.6259 88.0491L31.655 92.3689C29.3689 93.1986 27.8809 95.3494 27.8809 98.384L29.698 99.0469C29.698 95.0112 32.9807 92.9235 37.0163 94.3935C41.052 95.8634 44.3346 100.341 44.3346 104.377L46.1518 105.039C46.1518 101.987 44.6412 98.7357 42.3326 96.2332V96.2287Z" fill="#13203D" stroke="#A0F2E0" stroke-width="0.225456" stroke-miterlimit="23.8"/>
<path d="M36.9982 106.122C34.5633 105.238 32.5838 102.533 32.5838 100.102C32.5838 97.6718 34.5633 96.4092 36.9982 97.293C39.4331 98.1813 41.4126 100.882 41.4126 103.313C41.4126 105.743 39.4331 107.006 36.9982 106.122ZM36.9982 95.4758C33.5623 94.2268 30.7666 96.0034 30.7666 99.4393C30.7666 102.564 33.0843 105.996 36.0874 107.533V111.664L37.8955 112.326V108.192C40.9076 108.845 43.2253 107.1 43.2253 103.971C43.2253 100.535 40.4296 96.7249 36.9937 95.4713L36.9982 95.4758Z" fill="#13203D" stroke="#A0F2E0" stroke-width="0.225456" stroke-miterlimit="23.8"/>
<path d="M42.3145 96.2423L44.3797 93.4602L42.8105 91.9722L40.7408 94.7589C39.8615 94.0419 38.9101 93.4287 37.9091 92.9642V88.8384L36.0919 88.1755V92.3014C35.0729 92.0308 34.0989 91.9497 33.2061 92.0353L31.186 87.7427L29.6078 88.0628L31.6369 92.3825C29.3508 93.2122 27.8628 95.3631 27.8628 98.3977L29.68 99.0605C29.68 95.0249 32.9626 92.9372 36.9983 94.4071C41.0339 95.8771 44.3165 100.355 44.3165 104.39L46.1337 105.053C46.1337 102 44.6232 98.7494 42.3145 96.2469V96.2423Z" fill="#13203D" stroke="#A0F2E0" stroke-width="0.225456" stroke-miterlimit="23.8"/>
<path d="M36.9801 106.136C34.5452 105.252 32.5657 102.547 32.5657 100.116C32.5657 97.6859 34.5452 96.4234 36.9801 97.3072C39.415 98.1955 41.3945 100.896 41.3945 103.327C41.3945 105.757 39.415 107.02 36.9801 106.136ZM36.9801 95.49C33.5442 94.241 30.7485 96.0176 30.7485 99.4535C30.7485 102.578 33.0662 106.01 36.0693 107.547V111.678L37.8774 112.341V108.206C40.8895 108.86 43.2072 107.114 43.2072 103.985C43.2072 100.549 40.4116 96.739 36.9756 95.4855L36.9801 95.49Z" fill="#13203D" stroke="#A0F2E0" stroke-width="0.225456" stroke-miterlimit="23.8"/>
<path d="M42.292 96.256L44.3572 93.4739L42.788 91.9859L40.7184 94.7725C39.8391 94.0556 38.8877 93.4423 37.8866 92.9779V88.8521L36.0695 88.1892V92.3151C35.0504 92.0445 34.0764 91.9633 33.1836 92.049L31.1635 87.7563L29.5854 88.0765L31.6145 92.3962C29.3283 93.2259 27.8403 95.3767 27.8403 98.4114L29.6575 99.0742C29.6575 95.0386 32.9401 92.9508 36.9758 94.4208C41.0114 95.8908 44.2941 100.368 44.2941 104.404L46.1113 105.067C46.1113 102.014 44.6007 98.7631 42.292 96.2605V96.256Z" fill="#13203D" stroke="#A0F2E0" stroke-width="0.225456" stroke-miterlimit="23.8"/>
<path d="M36.9621 106.154C34.5271 105.27 32.5476 102.564 32.5476 100.134C32.5476 97.7035 34.5271 96.441 36.9621 97.3247C39.397 98.213 41.3765 100.914 41.3765 103.344C41.3765 105.775 39.397 107.037 36.9621 106.154ZM36.9621 95.5076C33.5261 94.2585 30.7305 96.0351 30.7305 99.4711C30.7305 102.596 33.0482 106.027 36.0512 107.565V111.695L37.8594 112.358V108.223C40.8715 108.877 43.1891 107.132 43.1891 104.003C43.1891 100.567 40.3935 96.7566 36.9576 95.5031L36.9621 95.5076Z" fill="#13203D" stroke="#A0F2E0" stroke-width="0.225456" stroke-miterlimit="23.8"/>
<path d="M42.274 96.2736L44.3391 93.4915L42.77 92.0035L40.7003 94.7901C39.821 94.0732 38.8696 93.4599 37.8686 92.9955V88.8696L36.0514 88.2068V92.3326C35.0323 92.0621 34.0584 91.9809 33.1656 92.0666L31.1455 87.7739L29.5673 88.0941L31.5964 92.4138C29.3103 93.2435 27.8223 95.3943 27.8223 98.429L29.6394 99.0918C29.6394 95.0561 32.9221 92.9684 36.9577 94.4384C40.9934 95.9084 44.276 100.386 44.276 104.422L46.0932 105.084C46.0932 102.032 44.5826 98.7807 42.274 96.2781V96.2736Z" fill="#13203D" stroke="#A0F2E0" stroke-width="0.225456" stroke-miterlimit="23.8"/>
<path d="M36.944 106.167C34.5091 105.283 32.5296 102.578 32.5296 100.147C32.5296 97.7167 34.5091 96.4541 36.944 97.3379C39.3789 98.2262 41.3584 100.927 41.3584 103.358C41.3584 105.788 39.3789 107.051 36.944 106.167ZM36.944 95.5208C33.5081 94.2717 30.7124 96.0483 30.7124 99.4843C30.7124 102.609 33.0301 106.041 36.0332 107.578V111.708L37.8413 112.371V108.236C40.8534 108.89 43.1711 107.145 43.1711 104.016C43.1711 100.58 40.3754 96.7698 36.9395 95.5162L36.944 95.5208Z" fill="#13203D" stroke="#A0F2E0" stroke-width="0.225456" stroke-miterlimit="23.8"/>
<path d="M42.2559 96.2873L44.3211 93.5052L42.7519 92.0171L40.6822 94.8038C39.8029 94.0868 38.8515 93.4736 37.8505 93.0092V88.8833L36.0333 88.2205V92.3463C35.0143 92.0758 34.0403 91.9946 33.1475 92.0803L31.1274 87.7876L29.5492 88.1077L31.5783 92.4275C29.2922 93.2572 27.8042 95.408 27.8042 98.4426L29.6214 99.1055C29.6214 95.0698 32.904 92.9821 36.9397 94.4521C40.9753 95.922 44.2579 100.4 44.2579 104.435L46.0751 105.098C46.0751 102.045 44.5646 98.7943 42.2559 96.2918V96.2873Z" fill="#13203D" stroke="#A0F2E0" stroke-width="0.225456" stroke-miterlimit="23.8"/>
<path d="M36.9215 106.181C34.4866 105.297 32.5071 102.592 32.5071 100.161C32.5071 97.7308 34.4866 96.4683 36.9215 97.3521C39.3565 98.2404 41.336 100.941 41.336 103.372C41.336 105.802 39.3565 107.065 36.9215 106.181ZM36.9215 95.5349C33.4856 94.2859 30.6899 96.0625 30.6899 99.4984C30.6899 102.623 33.0076 106.055 36.0107 107.592V111.723L37.8188 112.385V108.251C40.8309 108.904 43.1486 107.159 43.1486 104.03C43.1486 100.594 40.353 96.7839 36.917 95.5304L36.9215 95.5349Z" fill="#13203D" stroke="#A0F2E0" stroke-width="0.225456" stroke-miterlimit="23.8"/>
<path d="M42.2378 96.3014L44.303 93.5193L42.7338 92.0313L40.6642 94.8179C39.7849 94.101 38.8335 93.4877 37.8324 93.0233V88.8975L36.0153 88.2346V92.3605C34.9962 92.0899 34.0222 92.0088 33.1294 92.0944L31.1093 87.8018L29.5312 88.1219L31.5603 92.4416C29.2741 93.2713 27.7861 95.4222 27.7861 98.4568L29.6033 99.1196C29.6033 95.084 32.8859 92.9963 36.9216 94.4662C40.9572 95.9362 44.2399 100.414 44.2399 104.449L46.0571 105.112C46.0571 102.06 44.5465 98.8085 42.2378 96.3059V96.3014Z" fill="#13203D" stroke="#A0F2E0" stroke-width="0.225456" stroke-miterlimit="23.8"/>
</svg>
