<svg width="280" height="71" viewBox="0 0 280 71" fill="none" xmlns="http://www.w3.org/2000/svg">
<circle cx="52.791" cy="18" r="10" fill="#C08AFF"/>
<path d="M33.1776 46V37.2727H38.6491V38.4062H34.4943V41.0653H38.3636V42.1946H34.4943V44.8665H38.7003V46H33.1776ZM41.5799 37.2727V46H40.3058V37.2727H41.5799ZM43.294 46V39.4545H44.5682V46H43.294ZM43.9375 38.4446C43.7159 38.4446 43.5256 38.3707 43.3665 38.223C43.2102 38.0724 43.1321 37.8935 43.1321 37.6861C43.1321 37.4759 43.2102 37.2969 43.3665 37.1491C43.5256 36.9986 43.7159 36.9233 43.9375 36.9233C44.1591 36.9233 44.348 36.9986 44.5043 37.1491C44.6634 37.2969 44.7429 37.4759 44.7429 37.6861C44.7429 37.8935 44.6634 38.0724 44.5043 38.223C44.348 38.3707 44.1591 38.4446 43.9375 38.4446ZM49.0266 48.5909C48.5067 48.5909 48.0593 48.5227 47.6843 48.3864C47.3121 48.25 47.0082 48.0696 46.7724 47.8452C46.5366 47.6207 46.3604 47.375 46.244 47.108L47.3391 46.6562C47.4158 46.7812 47.5181 46.9134 47.646 47.0526C47.7766 47.1946 47.9528 47.3153 48.1744 47.4148C48.3988 47.5142 48.6871 47.5639 49.0394 47.5639C49.5224 47.5639 49.9215 47.446 50.2369 47.2102C50.5522 46.9773 50.7099 46.6051 50.7099 46.0938V44.8068H50.6289C50.5522 44.946 50.4414 45.1009 50.2965 45.2713C50.1545 45.4418 49.9585 45.5895 49.7085 45.7145C49.4585 45.8395 49.1332 45.902 48.7326 45.902C48.2156 45.902 47.7496 45.7812 47.3349 45.5398C46.9229 45.2955 46.5962 44.9361 46.3548 44.4616C46.1161 43.9844 45.9968 43.3977 45.9968 42.7017C45.9968 42.0057 46.1147 41.4091 46.3505 40.9119C46.5891 40.4148 46.9158 40.0341 47.3306 39.7699C47.7454 39.5028 48.2156 39.3693 48.7411 39.3693C49.1474 39.3693 49.4755 39.4375 49.7255 39.5739C49.9755 39.7074 50.1701 39.8636 50.3093 40.0426C50.4513 40.2216 50.5607 40.3793 50.6374 40.5156H50.7312V39.4545H51.9798V46.1449C51.9798 46.7074 51.8491 47.169 51.5877 47.5298C51.3263 47.8906 50.9727 48.1577 50.5266 48.331C50.0835 48.5043 49.5835 48.5909 49.0266 48.5909ZM49.0138 44.8452C49.3803 44.8452 49.69 44.7599 49.9428 44.5895C50.1985 44.4162 50.3917 44.169 50.5224 43.848C50.6559 43.5241 50.7227 43.1364 50.7227 42.6847C50.7227 42.2443 50.6573 41.8565 50.5266 41.5213C50.396 41.1861 50.2042 40.9247 49.9513 40.7372C49.6985 40.5469 49.386 40.4517 49.0138 40.4517C48.6303 40.4517 48.3107 40.5511 48.055 40.75C47.7994 40.946 47.6062 41.2131 47.4755 41.5511C47.3477 41.8892 47.2837 42.267 47.2837 42.6847C47.2837 43.1136 47.3491 43.4901 47.4798 43.8139C47.6104 44.1378 47.8036 44.3906 48.0593 44.5724C48.3178 44.7543 48.636 44.8452 49.0138 44.8452ZM53.6886 46V39.4545H54.9627V46H53.6886ZM54.332 38.4446C54.1104 38.4446 53.9201 38.3707 53.761 38.223C53.6048 38.0724 53.5266 37.8935 53.5266 37.6861C53.5266 37.4759 53.6048 37.2969 53.761 37.1491C53.9201 36.9986 54.1104 36.9233 54.332 36.9233C54.5536 36.9233 54.7425 36.9986 54.8988 37.1491C55.0579 37.2969 55.1374 37.4759 55.1374 37.6861C55.1374 37.8935 55.0579 38.0724 54.8988 38.223C54.7425 38.3707 54.5536 38.4446 54.332 38.4446ZM56.7791 46V37.2727H58.0533V40.5156H58.13C58.2038 40.3793 58.3104 40.2216 58.4496 40.0426C58.5888 39.8636 58.782 39.7074 59.0291 39.5739C59.2763 39.4375 59.603 39.3693 60.0092 39.3693C60.5376 39.3693 61.0092 39.5028 61.424 39.7699C61.8388 40.0369 62.1641 40.4219 62.3999 40.9247C62.6385 41.4276 62.7578 42.0327 62.7578 42.7401C62.7578 43.4474 62.6399 44.054 62.4041 44.5597C62.1683 45.0625 61.8445 45.4503 61.4325 45.723C61.0206 45.9929 60.5504 46.1278 60.022 46.1278C59.6243 46.1278 59.299 46.0611 59.0462 45.9276C58.7962 45.794 58.6001 45.6378 58.4581 45.4588C58.3161 45.2798 58.2067 45.1207 58.13 44.9815H58.0234V46H56.7791ZM58.0277 42.7273C58.0277 43.1875 58.0945 43.5909 58.228 43.9375C58.3615 44.2841 58.5547 44.5554 58.8075 44.7514C59.0604 44.9446 59.37 45.0412 59.7365 45.0412C60.1172 45.0412 60.4354 44.9403 60.6911 44.7386C60.9467 44.5341 61.1399 44.2571 61.2706 43.9077C61.4041 43.5582 61.4709 43.1648 61.4709 42.7273C61.4709 42.2955 61.4055 41.9077 61.2749 41.5639C61.147 41.2202 60.9538 40.9489 60.6953 40.75C60.4396 40.5511 60.12 40.4517 59.7365 40.4517C59.3672 40.4517 59.0547 40.5469 58.799 40.7372C58.5462 40.9276 58.3544 41.1932 58.2237 41.5341C58.093 41.875 58.0277 42.2727 58.0277 42.7273ZM65.4627 37.2727V46H64.1886V37.2727H65.4627ZM69.9979 46.1321C69.353 46.1321 68.7976 45.9943 68.3317 45.7188C67.8686 45.4403 67.5107 45.0497 67.2578 44.5469C67.0078 44.0412 66.8828 43.4489 66.8828 42.7699C66.8828 42.0994 67.0078 41.5085 67.2578 40.9972C67.5107 40.4858 67.8629 40.0866 68.3146 39.7997C68.7692 39.5128 69.3004 39.3693 69.9084 39.3693C70.2777 39.3693 70.6357 39.4304 70.9822 39.5526C71.3288 39.6747 71.6399 39.8665 71.9155 40.1278C72.1911 40.3892 72.4084 40.7287 72.5675 41.1463C72.7266 41.5611 72.8061 42.0653 72.8061 42.6591V43.1108H67.603V42.1562H71.5575C71.5575 41.821 71.4893 41.5241 71.353 41.2656C71.2166 41.0043 71.0249 40.7983 70.7777 40.6477C70.5334 40.4972 70.2464 40.4219 69.9169 40.4219C69.5589 40.4219 69.2464 40.5099 68.9794 40.6861C68.7152 40.8594 68.5107 41.0866 68.3658 41.3679C68.2237 41.6463 68.1527 41.9489 68.1527 42.2756V43.0213C68.1527 43.4588 68.2294 43.831 68.3828 44.1378C68.5391 44.4446 68.7564 44.679 69.0348 44.8409C69.3132 45 69.6385 45.0795 70.0107 45.0795C70.2521 45.0795 70.4723 45.0455 70.6712 44.9773C70.87 44.9062 71.0419 44.8011 71.1868 44.6619C71.3317 44.5227 71.4425 44.3509 71.5192 44.1463L72.7251 44.3636C72.6286 44.7187 72.4553 45.0298 72.2053 45.2969C71.9581 45.5611 71.647 45.767 71.272 45.9148C70.8999 46.0597 70.4751 46.1321 69.9979 46.1321ZM32.3258 64.1449C31.911 64.1449 31.536 64.0682 31.2008 63.9148C30.8656 63.7585 30.6 63.5327 30.4039 63.2372C30.2108 62.9418 30.1142 62.5795 30.1142 62.1506C30.1142 61.7812 30.1852 61.4773 30.3272 61.2386C30.4693 61 30.661 60.8111 30.9025 60.6719C31.144 60.5327 31.4139 60.4276 31.7122 60.3565C32.0105 60.2855 32.3145 60.2315 32.6241 60.1946C33.0162 60.1491 33.3343 60.1122 33.5787 60.0838C33.823 60.0526 34.0005 60.0028 34.1113 59.9347C34.2221 59.8665 34.2775 59.7557 34.2775 59.6023V59.5724C34.2775 59.2003 34.1724 58.9119 33.9622 58.7074C33.7548 58.5028 33.4451 58.4006 33.0332 58.4006C32.6042 58.4006 32.2662 58.4957 32.019 58.6861C31.7747 58.8736 31.6056 59.0824 31.5119 59.3125L30.3145 59.0398C30.4565 58.642 30.6639 58.321 30.9366 58.0767C31.2122 57.8295 31.5289 57.6506 31.8869 57.5398C32.2449 57.4261 32.6213 57.3693 33.0162 57.3693C33.2775 57.3693 33.5545 57.4006 33.8471 57.4631C34.1426 57.5227 34.4181 57.6335 34.6738 57.7955C34.9324 57.9574 35.144 58.1889 35.3088 58.4901C35.4735 58.7884 35.5559 59.1761 35.5559 59.6534V64H34.3116V63.1051H34.2605C34.1781 63.2699 34.0545 63.4318 33.8897 63.5909C33.725 63.75 33.5133 63.8821 33.2548 63.9872C32.9963 64.0923 32.6866 64.1449 32.3258 64.1449ZM32.6028 63.1222C32.9551 63.1222 33.2562 63.0526 33.5062 62.9134C33.7591 62.7741 33.9508 62.5923 34.0815 62.3679C34.215 62.1406 34.2818 61.8977 34.2818 61.6392V60.7955C34.2363 60.8409 34.1483 60.8835 34.0176 60.9233C33.8897 60.9602 33.7434 60.9929 33.5787 61.0213C33.4139 61.0469 33.2534 61.071 33.0971 61.0938C32.9409 61.1136 32.8102 61.1307 32.7051 61.1449C32.4579 61.1761 32.2321 61.2287 32.0275 61.3026C31.8258 61.3764 31.6639 61.483 31.5417 61.6222C31.4224 61.7585 31.3627 61.9403 31.3627 62.1676C31.3627 62.483 31.4792 62.7216 31.7122 62.8835C31.9451 63.0426 32.242 63.1222 32.6028 63.1222ZM40.0101 64.1321C39.3766 64.1321 38.8311 63.9886 38.3738 63.7017C37.9192 63.4119 37.5698 63.0128 37.3255 62.5043C37.0811 61.9957 36.959 61.4134 36.959 60.7571C36.959 60.0923 37.084 59.5057 37.334 58.9972C37.584 58.4858 37.9363 58.0866 38.3908 57.7997C38.8453 57.5128 39.3809 57.3693 39.9973 57.3693C40.4945 57.3693 40.9377 57.4616 41.3269 57.6463C41.7161 57.8281 42.03 58.0838 42.2686 58.4134C42.5101 58.7429 42.6536 59.1278 42.699 59.5682H41.459C41.3908 59.2614 41.2346 58.9972 40.9902 58.7756C40.7488 58.554 40.4249 58.4432 40.0186 58.4432C39.6635 58.4432 39.3525 58.5369 39.0854 58.7244C38.8212 58.9091 38.6152 59.1733 38.4675 59.517C38.3198 59.858 38.2459 60.2614 38.2459 60.7273C38.2459 61.2045 38.3184 61.6165 38.4632 61.9631C38.6081 62.3097 38.8127 62.5781 39.0769 62.7685C39.3439 62.9588 39.6578 63.054 40.0186 63.054C40.2601 63.054 40.4789 63.0099 40.6749 62.9219C40.8738 62.831 41.04 62.7017 41.1735 62.5341C41.3098 62.3665 41.405 62.1648 41.459 61.929H42.699C42.6536 62.3523 42.5158 62.7301 42.2857 63.0625C42.0556 63.3949 41.7473 63.6562 41.361 63.8466C40.9775 64.0369 40.5272 64.1321 40.0101 64.1321ZM46.8187 64.1321C46.1852 64.1321 45.6397 63.9886 45.1824 63.7017C44.7278 63.4119 44.3784 63.0128 44.1341 62.5043C43.8897 61.9957 43.7676 61.4134 43.7676 60.7571C43.7676 60.0923 43.8926 59.5057 44.1426 58.9972C44.3926 58.4858 44.7449 58.0866 45.1994 57.7997C45.6539 57.5128 46.1895 57.3693 46.8059 57.3693C47.3031 57.3693 47.7463 57.4616 48.1355 57.6463C48.5247 57.8281 48.8386 58.0838 49.0772 58.4134C49.3187 58.7429 49.4622 59.1278 49.5076 59.5682H48.2676C48.1994 59.2614 48.0431 58.9972 47.7988 58.7756C47.5574 58.554 47.2335 58.4432 46.8272 58.4432C46.4721 58.4432 46.161 58.5369 45.894 58.7244C45.6298 58.9091 45.4238 59.1733 45.2761 59.517C45.1284 59.858 45.0545 60.2614 45.0545 60.7273C45.0545 61.2045 45.127 61.6165 45.2718 61.9631C45.4167 62.3097 45.6213 62.5781 45.8855 62.7685C46.1525 62.9588 46.4664 63.054 46.8272 63.054C47.0687 63.054 47.2875 63.0099 47.4835 62.9219C47.6824 62.831 47.8485 62.7017 47.9821 62.5341C48.1184 62.3665 48.2136 62.1648 48.2676 61.929H49.5076C49.4622 62.3523 49.3244 62.7301 49.0943 63.0625C48.8642 63.3949 48.5559 63.6562 48.1696 63.8466C47.786 64.0369 47.3358 64.1321 46.8187 64.1321ZM53.6273 64.1321C53.0137 64.1321 52.4782 63.9915 52.0208 63.7102C51.5634 63.429 51.2083 63.0355 50.9554 62.5298C50.7026 62.0241 50.5762 61.4332 50.5762 60.7571C50.5762 60.0781 50.7026 59.4844 50.9554 58.9759C51.2083 58.4673 51.5634 58.0724 52.0208 57.7912C52.4782 57.5099 53.0137 57.3693 53.6273 57.3693C54.2409 57.3693 54.7765 57.5099 55.2338 57.7912C55.6912 58.0724 56.0463 58.4673 56.2992 58.9759C56.552 59.4844 56.6784 60.0781 56.6784 60.7571C56.6784 61.4332 56.552 62.0241 56.2992 62.5298C56.0463 63.0355 55.6912 63.429 55.2338 63.7102C54.7765 63.9915 54.2409 64.1321 53.6273 64.1321ZM53.6316 63.0625C54.0293 63.0625 54.3588 62.9574 54.6202 62.7472C54.8816 62.5369 55.0748 62.2571 55.1998 61.9077C55.3276 61.5582 55.3915 61.1733 55.3915 60.7528C55.3915 60.3352 55.3276 59.9517 55.1998 59.6023C55.0748 59.25 54.8816 58.9673 54.6202 58.7543C54.3588 58.5412 54.0293 58.4347 53.6316 58.4347C53.231 58.4347 52.8986 58.5412 52.6344 58.7543C52.373 58.9673 52.1784 59.25 52.0506 59.6023C51.9256 59.9517 51.8631 60.3352 51.8631 60.7528C51.8631 61.1733 51.9256 61.5582 52.0506 61.9077C52.1784 62.2571 52.373 62.5369 52.6344 62.7472C52.8986 62.9574 53.231 63.0625 53.6316 63.0625ZM62.247 61.2855V57.4545H63.5254V64H62.2725V62.8665H62.2044C62.0538 63.2159 61.8123 63.5071 61.4799 63.7401C61.1504 63.9702 60.7399 64.0852 60.2484 64.0852C59.8279 64.0852 59.4558 63.9929 59.1319 63.8082C58.8109 63.6207 58.5581 63.3438 58.3734 62.9773C58.1916 62.6108 58.1007 62.1577 58.1007 61.6179V57.4545H59.3748V61.4645C59.3748 61.9105 59.4984 62.2656 59.7456 62.5298C59.9927 62.794 60.3137 62.9261 60.7086 62.9261C60.9473 62.9261 61.1845 62.8665 61.4203 62.7472C61.6589 62.6278 61.8564 62.4474 62.0126 62.206C62.1717 61.9645 62.2498 61.6577 62.247 61.2855ZM66.5115 60.1136V64H65.2374V57.4545H66.4604V58.5199H66.5414C66.6919 58.1733 66.9277 57.8949 67.2488 57.6847C67.5726 57.4744 67.9803 57.3693 68.4718 57.3693C68.9178 57.3693 69.3084 57.4631 69.6436 57.6506C69.9789 57.8352 70.2388 58.1108 70.4235 58.4773C70.6081 58.8437 70.7005 59.2969 70.7005 59.8366V64H69.4263V59.9901C69.4263 59.5156 69.3027 59.1449 69.0556 58.8778C68.8084 58.608 68.4689 58.473 68.0371 58.473C67.7417 58.473 67.4789 58.5369 67.2488 58.6648C67.0215 58.7926 66.8411 58.9801 66.7076 59.2273C66.5769 59.4716 66.5115 59.767 66.5115 60.1136ZM75.4647 57.4545V58.4773H71.8894V57.4545H75.4647ZM72.8482 55.8864H74.1223V62.0781C74.1223 62.3253 74.1593 62.5114 74.2331 62.6364C74.307 62.7585 74.4022 62.8423 74.5186 62.8878C74.638 62.9304 74.7672 62.9517 74.9064 62.9517C75.0087 62.9517 75.0982 62.9446 75.1749 62.9304C75.2516 62.9162 75.3113 62.9048 75.3539 62.8963L75.584 63.9489C75.5101 63.9773 75.405 64.0057 75.2686 64.0341C75.1323 64.0653 74.9618 64.0824 74.7573 64.0852C74.4221 64.0909 74.1096 64.0312 73.8198 63.9062C73.53 63.7812 73.2956 63.5881 73.1167 63.3267C72.9377 63.0653 72.8482 62.7372 72.8482 62.3423V55.8864Z" fill="#C08AFF"/>
<path d="M107.233 13V12.1222L111.822 5.40625H107.195V4.27273H113.433V5.15057L108.844 11.8665H113.472V13H107.233ZM115.123 13V4.27273H116.44V8.44034H116.546L120.207 4.27273H121.864L118.344 8.2017L121.877 13H120.292L117.471 9.10085L116.44 10.2855V13H115.123ZM126.267 13V4.27273H129.463C130.083 4.27273 130.596 4.375 131.002 4.57955C131.408 4.78125 131.712 5.0554 131.914 5.40199C132.115 5.74574 132.216 6.13352 132.216 6.56534C132.216 6.92898 132.15 7.2358 132.016 7.4858C131.882 7.73295 131.703 7.93182 131.479 8.08239C131.257 8.23011 131.013 8.33807 130.746 8.40625V8.49148C131.036 8.50568 131.319 8.59943 131.594 8.77273C131.873 8.94318 132.103 9.18608 132.284 9.50142C132.466 9.81676 132.557 10.2003 132.557 10.652C132.557 11.098 132.452 11.4986 132.242 11.8537C132.034 12.206 131.713 12.4858 131.279 12.6932C130.844 12.8977 130.289 13 129.613 13H126.267ZM127.584 11.8707H129.485C130.115 11.8707 130.567 11.7486 130.84 11.5043C131.113 11.2599 131.249 10.9545 131.249 10.5881C131.249 10.3125 131.179 10.0597 131.04 9.82955C130.901 9.59943 130.702 9.41619 130.444 9.27983C130.188 9.14347 129.884 9.07528 129.532 9.07528H127.584V11.8707ZM127.584 8.0483H129.348C129.644 8.0483 129.909 7.99148 130.145 7.87784C130.384 7.7642 130.573 7.60511 130.712 7.40057C130.854 7.19318 130.925 6.94886 130.925 6.66761C130.925 6.30682 130.799 6.00426 130.546 5.75994C130.293 5.51562 129.905 5.39347 129.382 5.39347H127.584V8.0483ZM135.922 13.1449C135.507 13.1449 135.132 13.0682 134.797 12.9148C134.461 12.7585 134.196 12.5327 134 12.2372C133.806 11.9418 133.71 11.5795 133.71 11.1506C133.71 10.7812 133.781 10.4773 133.923 10.2386C134.065 10 134.257 9.81108 134.498 9.67188C134.74 9.53267 135.01 9.42756 135.308 9.35653C135.606 9.28551 135.91 9.23153 136.22 9.1946C136.612 9.14915 136.93 9.11222 137.174 9.08381C137.419 9.05256 137.596 9.00284 137.707 8.93466C137.818 8.86648 137.873 8.75568 137.873 8.60227V8.57244C137.873 8.20028 137.768 7.91193 137.558 7.70739C137.35 7.50284 137.041 7.40057 136.629 7.40057C136.2 7.40057 135.862 7.49574 135.615 7.68608C135.37 7.87358 135.201 8.08239 135.108 8.3125L133.91 8.03977C134.052 7.64205 134.26 7.32102 134.532 7.0767C134.808 6.82955 135.125 6.65057 135.483 6.53977C135.841 6.42614 136.217 6.36932 136.612 6.36932C136.873 6.36932 137.15 6.40057 137.443 6.46307C137.738 6.52273 138.014 6.63352 138.27 6.79545C138.528 6.95739 138.74 7.18892 138.904 7.49006C139.069 7.78835 139.152 8.17614 139.152 8.65341V13H137.907V12.1051H137.856C137.774 12.2699 137.65 12.4318 137.485 12.5909C137.321 12.75 137.109 12.8821 136.85 12.9872C136.592 13.0923 136.282 13.1449 135.922 13.1449ZM136.199 12.1222C136.551 12.1222 136.852 12.0526 137.102 11.9134C137.355 11.7741 137.547 11.5923 137.677 11.3679C137.811 11.1406 137.877 10.8977 137.877 10.6392V9.79545C137.832 9.84091 137.744 9.88352 137.613 9.9233C137.485 9.96023 137.339 9.9929 137.174 10.0213C137.01 10.0469 136.849 10.071 136.693 10.0938C136.537 10.1136 136.406 10.1307 136.301 10.1449C136.054 10.1761 135.828 10.2287 135.623 10.3026C135.422 10.3764 135.26 10.483 135.137 10.6222C135.018 10.7585 134.958 10.9403 134.958 11.1676C134.958 11.483 135.075 11.7216 135.308 11.8835C135.541 12.0426 135.838 12.1222 136.199 12.1222ZM143.299 13.1278C142.771 13.1278 142.299 12.9929 141.884 12.723C141.472 12.4503 141.148 12.0625 140.913 11.5597C140.68 11.054 140.563 10.4474 140.563 9.74006C140.563 9.03267 140.681 8.42756 140.917 7.92472C141.156 7.42187 141.482 7.03693 141.897 6.76989C142.312 6.50284 142.782 6.36932 143.308 6.36932C143.714 6.36932 144.04 6.4375 144.288 6.57386C144.538 6.70739 144.731 6.86364 144.867 7.04261C145.006 7.22159 145.114 7.37926 145.191 7.51562H145.268V4.27273H146.542V13H145.298V11.9815H145.191C145.114 12.1207 145.004 12.2798 144.859 12.4588C144.717 12.6378 144.521 12.794 144.271 12.9276C144.021 13.0611 143.697 13.1278 143.299 13.1278ZM143.58 12.0412C143.947 12.0412 144.256 11.9446 144.509 11.7514C144.765 11.5554 144.958 11.2841 145.089 10.9375C145.222 10.5909 145.289 10.1875 145.289 9.72727C145.289 9.27273 145.224 8.875 145.093 8.53409C144.962 8.19318 144.771 7.92756 144.518 7.73722C144.265 7.54687 143.952 7.4517 143.58 7.4517C143.197 7.4517 142.877 7.55114 142.621 7.75C142.366 7.94886 142.173 8.22017 142.042 8.56392C141.914 8.90767 141.85 9.29545 141.85 9.72727C141.85 10.1648 141.915 10.5582 142.046 10.9077C142.177 11.2571 142.37 11.5341 142.626 11.7386C142.884 11.9403 143.202 12.0412 143.58 12.0412ZM151.105 15.5909C150.585 15.5909 150.137 15.5227 149.762 15.3864C149.39 15.25 149.086 15.0696 148.85 14.8452C148.615 14.6207 148.439 14.375 148.322 14.108L149.417 13.6562C149.494 13.7812 149.596 13.9134 149.724 14.0526C149.855 14.1946 150.031 14.3153 150.252 14.4148C150.477 14.5142 150.765 14.5639 151.118 14.5639C151.6 14.5639 152 14.446 152.315 14.2102C152.63 13.9773 152.788 13.6051 152.788 13.0938V11.8068H152.707C152.63 11.946 152.52 12.1009 152.375 12.2713C152.233 12.4418 152.037 12.5895 151.787 12.7145C151.537 12.8395 151.211 12.902 150.811 12.902C150.294 12.902 149.828 12.7812 149.413 12.5398C149.001 12.2955 148.674 11.9361 148.433 11.4616C148.194 10.9844 148.075 10.3977 148.075 9.7017C148.075 9.00568 148.193 8.40909 148.429 7.91193C148.667 7.41477 148.994 7.03409 149.409 6.76989C149.824 6.50284 150.294 6.36932 150.819 6.36932C151.225 6.36932 151.554 6.4375 151.804 6.57386C152.054 6.70739 152.248 6.86364 152.387 7.04261C152.529 7.22159 152.639 7.37926 152.716 7.51562H152.809V6.45455H154.058V13.1449C154.058 13.7074 153.927 14.169 153.666 14.5298C153.404 14.8906 153.051 15.1577 152.605 15.331C152.162 15.5043 151.662 15.5909 151.105 15.5909ZM151.092 11.8452C151.458 11.8452 151.768 11.7599 152.021 11.5895C152.277 11.4162 152.47 11.169 152.6 10.848C152.734 10.5241 152.801 10.1364 152.801 9.68466C152.801 9.24432 152.735 8.85653 152.605 8.52131C152.474 8.18608 152.282 7.92472 152.029 7.73722C151.777 7.54687 151.464 7.4517 151.092 7.4517C150.708 7.4517 150.389 7.55114 150.133 7.75C149.877 7.94602 149.684 8.21307 149.554 8.55114C149.426 8.8892 149.362 9.26705 149.362 9.68466C149.362 10.1136 149.427 10.4901 149.558 10.8139C149.689 11.1378 149.882 11.3906 150.137 11.5724C150.396 11.7543 150.714 11.8452 151.092 11.8452ZM158.588 13.1321C157.943 13.1321 157.387 12.9943 156.922 12.7188C156.458 12.4403 156.1 12.0497 155.848 11.5469C155.598 11.0412 155.473 10.4489 155.473 9.76989C155.473 9.09943 155.598 8.50852 155.848 7.99716C156.1 7.4858 156.453 7.08665 156.904 6.79972C157.359 6.51278 157.89 6.36932 158.498 6.36932C158.868 6.36932 159.225 6.4304 159.572 6.55256C159.919 6.67472 160.23 6.86648 160.505 7.12784C160.781 7.3892 160.998 7.72869 161.157 8.14631C161.316 8.56108 161.396 9.06534 161.396 9.65909V10.1108H156.193V9.15625H160.147C160.147 8.82102 160.079 8.52415 159.943 8.26562C159.806 8.00426 159.615 7.7983 159.368 7.64773C159.123 7.49716 158.836 7.42188 158.507 7.42188C158.149 7.42188 157.836 7.50994 157.569 7.68608C157.305 7.85937 157.1 8.08665 156.956 8.3679C156.814 8.64631 156.743 8.94886 156.743 9.27557V10.0213C156.743 10.4588 156.819 10.831 156.973 11.1378C157.129 11.4446 157.346 11.679 157.625 11.8409C157.903 12 158.228 12.0795 158.6 12.0795C158.842 12.0795 159.062 12.0455 159.261 11.9773C159.46 11.9062 159.632 11.8011 159.777 11.6619C159.922 11.5227 160.032 11.3509 160.109 11.1463L161.315 11.3636C161.218 11.7187 161.045 12.0298 160.795 12.2969C160.548 12.5611 160.237 12.767 159.862 12.9148C159.49 13.0597 159.065 13.1321 158.588 13.1321Z" fill="#E2C488"/>
<path d="M179.063 21.3536C179.258 21.1583 179.258 20.8417 179.063 20.6464L175.881 17.4645C175.685 17.2692 175.369 17.2692 175.174 17.4645C174.978 17.6597 174.978 17.9763 175.174 18.1716L178.002 21L175.174 23.8284C174.978 24.0237 174.978 24.3403 175.174 24.5355C175.369 24.7308 175.685 24.7308 175.881 24.5355L179.063 21.3536ZM90.291 21.5H178.709V20.5H90.291V21.5Z" fill="#E9ECFF"/>
<path d="M136.428 69.6877L153.648 57.1767C154.208 56.7695 154.625 56.1954 154.839 55.5367C155.053 54.878 155.053 54.1685 154.839 53.5097L148.262 33.268C148.048 32.609 147.631 32.0345 147.071 31.627C146.51 31.2196 145.835 31.0001 145.143 31H123.86C123.166 30.9996 122.491 31.2189 121.93 31.6264C121.369 32.0339 120.952 32.6086 120.738 33.268L114.161 53.5097C113.947 54.1685 113.947 54.878 114.161 55.5367C114.375 56.1954 114.792 56.7695 115.352 57.1767L132.572 69.6877C133.133 70.0948 133.807 70.314 134.5 70.314C135.193 70.314 135.867 70.0948 136.428 69.6877Z" fill="#E2C488"/>
<circle cx="221.709" cy="18" r="10" fill="#A0F2E0"/>
<path d="M192.768 46H189.943V37.2727H192.858C193.713 37.2727 194.447 37.4474 195.061 37.7969C195.675 38.1435 196.145 38.642 196.472 39.2926C196.801 39.9403 196.966 40.7173 196.966 41.6236C196.966 42.5327 196.8 43.3139 196.467 43.9673C196.138 44.6207 195.661 45.1236 195.036 45.4759C194.411 45.8253 193.655 46 192.768 46ZM191.26 44.8494H192.696C193.361 44.8494 193.913 44.7244 194.354 44.4744C194.794 44.2216 195.124 43.8565 195.342 43.3793C195.561 42.8991 195.67 42.3139 195.67 41.6236C195.67 40.9389 195.561 40.358 195.342 39.8807C195.126 39.4034 194.804 39.0412 194.375 38.794C193.946 38.5469 193.413 38.4233 192.777 38.4233H191.26V44.8494ZM201.322 46.1321C200.677 46.1321 200.122 45.9943 199.656 45.7188C199.193 45.4403 198.835 45.0497 198.582 44.5469C198.332 44.0412 198.207 43.4489 198.207 42.7699C198.207 42.0994 198.332 41.5085 198.582 40.9972C198.835 40.4858 199.187 40.0866 199.639 39.7997C200.093 39.5128 200.625 39.3693 201.233 39.3693C201.602 39.3693 201.96 39.4304 202.306 39.5526C202.653 39.6747 202.964 39.8665 203.24 40.1278C203.515 40.3892 203.733 40.7287 203.892 41.1463C204.051 41.5611 204.13 42.0653 204.13 42.6591V43.1108H198.927V42.1562H202.882C202.882 41.821 202.814 41.5241 202.677 41.2656C202.541 41.0043 202.349 40.7983 202.102 40.6477C201.858 40.4972 201.571 40.4219 201.241 40.4219C200.883 40.4219 200.571 40.5099 200.304 40.6861C200.039 40.8594 199.835 41.0866 199.69 41.3679C199.548 41.6463 199.477 41.9489 199.477 42.2756V43.0213C199.477 43.4588 199.554 43.831 199.707 44.1378C199.863 44.4446 200.081 44.679 200.359 44.8409C200.637 45 200.963 45.0795 201.335 45.0795C201.576 45.0795 201.797 45.0455 201.995 44.9773C202.194 44.9062 202.366 44.8011 202.511 44.6619C202.656 44.5227 202.767 44.3509 202.843 44.1463L204.049 44.3636C203.953 44.7187 203.779 45.0298 203.529 45.2969C203.282 45.5611 202.971 45.767 202.596 45.9148C202.224 46.0597 201.799 46.1321 201.322 46.1321ZM210.449 41.0526L209.294 41.2571C209.246 41.1094 209.169 40.9687 209.064 40.8352C208.962 40.7017 208.822 40.5923 208.646 40.5071C208.47 40.4219 208.25 40.3793 207.986 40.3793C207.625 40.3793 207.324 40.4602 207.082 40.6222C206.841 40.7812 206.72 40.9872 206.72 41.2401C206.72 41.4588 206.801 41.6349 206.963 41.7685C207.125 41.902 207.386 42.0114 207.747 42.0966L208.787 42.3352C209.389 42.4744 209.838 42.6889 210.134 42.9787C210.429 43.2685 210.577 43.6449 210.577 44.108C210.577 44.5 210.463 44.8494 210.236 45.1562C210.011 45.4602 209.697 45.6989 209.294 45.8722C208.893 46.0455 208.429 46.1321 207.901 46.1321C207.168 46.1321 206.57 45.9759 206.107 45.6634C205.643 45.348 205.359 44.9006 205.254 44.321L206.486 44.1335C206.563 44.4545 206.72 44.6974 206.959 44.8622C207.197 45.0241 207.509 45.1051 207.892 45.1051C208.31 45.1051 208.643 45.0185 208.893 44.8452C209.143 44.669 209.268 44.4545 209.268 44.2017C209.268 43.9972 209.192 43.8253 209.038 43.6861C208.888 43.5469 208.656 43.4418 208.344 43.3707L207.236 43.1278C206.625 42.9886 206.173 42.767 205.881 42.4631C205.591 42.1591 205.446 41.7741 205.446 41.3082C205.446 40.9219 205.554 40.5838 205.77 40.294C205.986 40.0043 206.284 39.7784 206.665 39.6165C207.045 39.4517 207.482 39.3693 207.973 39.3693C208.68 39.3693 209.237 39.5227 209.643 39.8295C210.05 40.1335 210.318 40.5412 210.449 41.0526ZM215.033 39.4545V40.4773H211.458V39.4545H215.033ZM212.417 37.8864H213.691V44.0781C213.691 44.3253 213.728 44.5114 213.801 44.6364C213.875 44.7585 213.971 44.8423 214.087 44.8878C214.206 44.9304 214.336 44.9517 214.475 44.9517C214.577 44.9517 214.667 44.9446 214.743 44.9304C214.82 44.9162 214.88 44.9048 214.922 44.8963L215.152 45.9489C215.078 45.9773 214.973 46.0057 214.837 46.0341C214.701 46.0653 214.53 46.0824 214.326 46.0852C213.99 46.0909 213.678 46.0312 213.388 45.9062C213.098 45.7812 212.864 45.5881 212.685 45.3267C212.506 45.0653 212.417 44.7372 212.417 44.3423V37.8864ZM216.442 46V39.4545H217.717V46H216.442ZM217.086 38.4446C216.864 38.4446 216.674 38.3707 216.515 38.223C216.359 38.0724 216.281 37.8935 216.281 37.6861C216.281 37.4759 216.359 37.2969 216.515 37.1491C216.674 36.9986 216.864 36.9233 217.086 36.9233C217.308 36.9233 217.496 36.9986 217.653 37.1491C217.812 37.2969 217.891 37.4759 217.891 37.6861C217.891 37.8935 217.812 38.0724 217.653 38.223C217.496 38.3707 217.308 38.4446 217.086 38.4446ZM220.705 42.1136V46H219.431V39.4545H220.654V40.5199H220.735C220.885 40.1733 221.121 39.8949 221.442 39.6847C221.766 39.4744 222.174 39.3693 222.665 39.3693C223.111 39.3693 223.502 39.4631 223.837 39.6506C224.172 39.8352 224.432 40.1108 224.617 40.4773C224.801 40.8437 224.894 41.2969 224.894 41.8366V46H223.62V41.9901C223.62 41.5156 223.496 41.1449 223.249 40.8778C223.002 40.608 222.662 40.473 222.23 40.473C221.935 40.473 221.672 40.5369 221.442 40.6648C221.215 40.7926 221.034 40.9801 220.901 41.2273C220.77 41.4716 220.705 41.767 220.705 42.1136ZM228.507 46.1449C228.093 46.1449 227.718 46.0682 227.382 45.9148C227.047 45.7585 226.782 45.5327 226.586 45.2372C226.392 44.9418 226.296 44.5795 226.296 44.1506C226.296 43.7812 226.367 43.4773 226.509 43.2386C226.651 43 226.843 42.8111 227.084 42.6719C227.326 42.5327 227.596 42.4276 227.894 42.3565C228.192 42.2855 228.496 42.2315 228.806 42.1946C229.198 42.1491 229.516 42.1122 229.76 42.0838C230.005 42.0526 230.182 42.0028 230.293 41.9347C230.404 41.8665 230.459 41.7557 230.459 41.6023V41.5724C230.459 41.2003 230.354 40.9119 230.144 40.7074C229.936 40.5028 229.627 40.4006 229.215 40.4006C228.786 40.4006 228.448 40.4957 228.201 40.6861C227.956 40.8736 227.787 41.0824 227.694 41.3125L226.496 41.0398C226.638 40.642 226.846 40.321 227.118 40.0767C227.394 39.8295 227.711 39.6506 228.069 39.5398C228.426 39.4261 228.803 39.3693 229.198 39.3693C229.459 39.3693 229.736 39.4006 230.029 39.4631C230.324 39.5227 230.6 39.6335 230.855 39.7955C231.114 39.9574 231.326 40.1889 231.49 40.4901C231.655 40.7884 231.738 41.1761 231.738 41.6534V46H230.493V45.1051H230.442C230.36 45.2699 230.236 45.4318 230.071 45.5909C229.907 45.75 229.695 45.8821 229.436 45.9872C229.178 46.0923 228.868 46.1449 228.507 46.1449ZM228.784 45.1222C229.137 45.1222 229.438 45.0526 229.688 44.9134C229.941 44.7741 230.132 44.5923 230.263 44.3679C230.397 44.1406 230.463 43.8977 230.463 43.6392V42.7955C230.418 42.8409 230.33 42.8835 230.199 42.9233C230.071 42.9602 229.925 42.9929 229.76 43.0213C229.596 43.0469 229.435 43.071 229.279 43.0938C229.123 43.1136 228.992 43.1307 228.887 43.1449C228.64 43.1761 228.414 43.2287 228.209 43.3026C228.007 43.3764 227.846 43.483 227.723 43.6222C227.604 43.7585 227.544 43.9403 227.544 44.1676C227.544 44.483 227.661 44.7216 227.894 44.8835C228.127 45.0426 228.424 45.1222 228.784 45.1222ZM236.49 39.4545V40.4773H232.915V39.4545H236.49ZM233.874 37.8864H235.148V44.0781C235.148 44.3253 235.185 44.5114 235.259 44.6364C235.332 44.7585 235.428 44.8423 235.544 44.8878C235.663 44.9304 235.793 44.9517 235.932 44.9517C236.034 44.9517 236.124 44.9446 236.2 44.9304C236.277 44.9162 236.337 44.9048 236.379 44.8963L236.609 45.9489C236.536 45.9773 236.43 46.0057 236.294 46.0341C236.158 46.0653 235.987 46.0824 235.783 46.0852C235.447 46.0909 235.135 46.0312 234.845 45.9062C234.555 45.7812 234.321 45.5881 234.142 45.3267C233.963 45.0653 233.874 44.7372 233.874 44.3423V37.8864ZM237.9 46V39.4545H239.174V46H237.9ZM238.543 38.4446C238.321 38.4446 238.131 38.3707 237.972 38.223C237.816 38.0724 237.738 37.8935 237.738 37.6861C237.738 37.4759 237.816 37.2969 237.972 37.1491C238.131 36.9986 238.321 36.9233 238.543 36.9233C238.765 36.9233 238.953 36.9986 239.11 37.1491C239.269 37.2969 239.348 37.4759 239.348 37.6861C239.348 37.8935 239.269 38.0724 239.11 38.223C238.953 38.3707 238.765 38.4446 238.543 38.4446ZM243.645 46.1321C243.031 46.1321 242.496 45.9915 242.038 45.7102C241.581 45.429 241.226 45.0355 240.973 44.5298C240.72 44.0241 240.594 43.4332 240.594 42.7571C240.594 42.0781 240.72 41.4844 240.973 40.9759C241.226 40.4673 241.581 40.0724 242.038 39.7912C242.496 39.5099 243.031 39.3693 243.645 39.3693C244.259 39.3693 244.794 39.5099 245.251 39.7912C245.709 40.0724 246.064 40.4673 246.317 40.9759C246.57 41.4844 246.696 42.0781 246.696 42.7571C246.696 43.4332 246.57 44.0241 246.317 44.5298C246.064 45.0355 245.709 45.429 245.251 45.7102C244.794 45.9915 244.259 46.1321 243.645 46.1321ZM243.649 45.0625C244.047 45.0625 244.376 44.9574 244.638 44.7472C244.899 44.5369 245.092 44.2571 245.217 43.9077C245.345 43.5582 245.409 43.1733 245.409 42.7528C245.409 42.3352 245.345 41.9517 245.217 41.6023C245.092 41.25 244.899 40.9673 244.638 40.7543C244.376 40.5412 244.047 40.4347 243.649 40.4347C243.249 40.4347 242.916 40.5412 242.652 40.7543C242.391 40.9673 242.196 41.25 242.068 41.6023C241.943 41.9517 241.881 42.3352 241.881 42.7528C241.881 43.1733 241.943 43.5582 242.068 43.9077C242.196 44.2571 242.391 44.5369 242.652 44.7472C242.916 44.9574 243.249 45.0625 243.649 45.0625ZM249.392 42.1136V46H248.118V39.4545H249.341V40.5199H249.422C249.573 40.1733 249.809 39.8949 250.13 39.6847C250.453 39.4744 250.861 39.3693 251.353 39.3693C251.799 39.3693 252.189 39.4631 252.525 39.6506C252.86 39.8352 253.12 40.1108 253.304 40.4773C253.489 40.8437 253.581 41.2969 253.581 41.8366V46H252.307V41.9901C252.307 41.5156 252.184 41.1449 251.936 40.8778C251.689 40.608 251.35 40.473 250.918 40.473C250.623 40.473 250.36 40.5369 250.13 40.6648C249.902 40.7926 249.722 40.9801 249.588 41.2273C249.458 41.4716 249.392 41.767 249.392 42.1136ZM201.244 64.1449C200.829 64.1449 200.454 64.0682 200.119 63.9148C199.784 63.7585 199.518 63.5327 199.322 63.2372C199.129 62.9418 199.032 62.5795 199.032 62.1506C199.032 61.7812 199.103 61.4773 199.245 61.2386C199.387 61 199.579 60.8111 199.82 60.6719C200.062 60.5327 200.332 60.4276 200.63 60.3565C200.928 60.2855 201.232 60.2315 201.542 60.1946C201.934 60.1491 202.252 60.1122 202.497 60.0838C202.741 60.0526 202.919 60.0028 203.029 59.9347C203.14 59.8665 203.195 59.7557 203.195 59.6023V59.5724C203.195 59.2003 203.09 58.9119 202.88 58.7074C202.673 58.5028 202.363 58.4006 201.951 58.4006C201.522 58.4006 201.184 58.4957 200.937 58.6861C200.693 58.8736 200.524 59.0824 200.43 59.3125L199.232 59.0398C199.374 58.642 199.582 58.321 199.855 58.0767C200.13 57.8295 200.447 57.6506 200.805 57.5398C201.163 57.4261 201.539 57.3693 201.934 57.3693C202.195 57.3693 202.472 57.4006 202.765 57.4631C203.061 57.5227 203.336 57.6335 203.592 57.7955C203.85 57.9574 204.062 58.1889 204.227 58.4901C204.392 58.7884 204.474 59.1761 204.474 59.6534V64H203.23V63.1051H203.178C203.096 63.2699 202.972 63.4318 202.808 63.5909C202.643 63.75 202.431 63.8821 202.173 63.9872C201.914 64.0923 201.605 64.1449 201.244 64.1449ZM201.521 63.1222C201.873 63.1222 202.174 63.0526 202.424 62.9134C202.677 62.7741 202.869 62.5923 202.999 62.3679C203.133 62.1406 203.2 61.8977 203.2 61.6392V60.7955C203.154 60.8409 203.066 60.8835 202.936 60.9233C202.808 60.9602 202.661 60.9929 202.497 61.0213C202.332 61.0469 202.171 61.071 202.015 61.0938C201.859 61.1136 201.728 61.1307 201.623 61.1449C201.376 61.1761 201.15 61.2287 200.945 61.3026C200.744 61.3764 200.582 61.483 200.46 61.6222C200.34 61.7585 200.281 61.9403 200.281 62.1676C200.281 62.483 200.397 62.7216 200.63 62.8835C200.863 63.0426 201.16 63.1222 201.521 63.1222ZM208.928 64.1321C208.295 64.1321 207.749 63.9886 207.292 63.7017C206.837 63.4119 206.488 63.0128 206.243 62.5043C205.999 61.9957 205.877 61.4134 205.877 60.7571C205.877 60.0923 206.002 59.5057 206.252 58.9972C206.502 58.4858 206.854 58.0866 207.309 57.7997C207.763 57.5128 208.299 57.3693 208.915 57.3693C209.412 57.3693 209.856 57.4616 210.245 57.6463C210.634 57.8281 210.948 58.0838 211.187 58.4134C211.428 58.7429 211.572 59.1278 211.617 59.5682H210.377C210.309 59.2614 210.153 58.9972 209.908 58.7756C209.667 58.554 209.343 58.4432 208.937 58.4432C208.581 58.4432 208.27 58.5369 208.003 58.7244C207.739 58.9091 207.533 59.1733 207.385 59.517C207.238 59.858 207.164 60.2614 207.164 60.7273C207.164 61.2045 207.236 61.6165 207.381 61.9631C207.526 62.3097 207.731 62.5781 207.995 62.7685C208.262 62.9588 208.576 63.054 208.937 63.054C209.178 63.054 209.397 63.0099 209.593 62.9219C209.792 62.831 209.958 62.7017 210.091 62.5341C210.228 62.3665 210.323 62.1648 210.377 61.929H211.617C211.572 62.3523 211.434 62.7301 211.204 63.0625C210.974 63.3949 210.665 63.6562 210.279 63.8466C209.895 64.0369 209.445 64.1321 208.928 64.1321ZM215.737 64.1321C215.103 64.1321 214.558 63.9886 214.1 63.7017C213.646 63.4119 213.296 63.0128 213.052 62.5043C212.808 61.9957 212.686 61.4134 212.686 60.7571C212.686 60.0923 212.811 59.5057 213.061 58.9972C213.311 58.4858 213.663 58.0866 214.117 57.7997C214.572 57.5128 215.107 57.3693 215.724 57.3693C216.221 57.3693 216.664 57.4616 217.053 57.6463C217.443 57.8281 217.757 58.0838 217.995 58.4134C218.237 58.7429 218.38 59.1278 218.426 59.5682H217.186C217.117 59.2614 216.961 58.9972 216.717 58.7756C216.475 58.554 216.151 58.4432 215.745 58.4432C215.39 58.4432 215.079 58.5369 214.812 58.7244C214.548 58.9091 214.342 59.1733 214.194 59.517C214.046 59.858 213.972 60.2614 213.972 60.7273C213.972 61.2045 214.045 61.6165 214.19 61.9631C214.335 62.3097 214.539 62.5781 214.803 62.7685C215.07 62.9588 215.384 63.054 215.745 63.054C215.987 63.054 216.205 63.0099 216.401 62.9219C216.6 62.831 216.767 62.7017 216.9 62.5341C217.036 62.3665 217.132 62.1648 217.186 61.929H218.426C218.38 62.3523 218.242 62.7301 218.012 63.0625C217.782 63.3949 217.474 63.6562 217.088 63.8466C216.704 64.0369 216.254 64.1321 215.737 64.1321ZM222.545 64.1321C221.932 64.1321 221.396 63.9915 220.939 63.7102C220.481 63.429 220.126 63.0355 219.873 62.5298C219.621 62.0241 219.494 61.4332 219.494 60.7571C219.494 60.0781 219.621 59.4844 219.873 58.9759C220.126 58.4673 220.481 58.0724 220.939 57.7912C221.396 57.5099 221.932 57.3693 222.545 57.3693C223.159 57.3693 223.694 57.5099 224.152 57.7912C224.609 58.0724 224.964 58.4673 225.217 58.9759C225.47 59.4844 225.596 60.0781 225.596 60.7571C225.596 61.4332 225.47 62.0241 225.217 62.5298C224.964 63.0355 224.609 63.429 224.152 63.7102C223.694 63.9915 223.159 64.1321 222.545 64.1321ZM222.55 63.0625C222.947 63.0625 223.277 62.9574 223.538 62.7472C223.8 62.5369 223.993 62.2571 224.118 61.9077C224.246 61.5582 224.309 61.1733 224.309 60.7528C224.309 60.3352 224.246 59.9517 224.118 59.6023C223.993 59.25 223.8 58.9673 223.538 58.7543C223.277 58.5412 222.947 58.4347 222.55 58.4347C222.149 58.4347 221.817 58.5412 221.552 58.7543C221.291 58.9673 221.096 59.25 220.969 59.6023C220.844 59.9517 220.781 60.3352 220.781 60.7528C220.781 61.1733 220.844 61.5582 220.969 61.9077C221.096 62.2571 221.291 62.5369 221.552 62.7472C221.817 62.9574 222.149 63.0625 222.55 63.0625ZM231.165 61.2855V57.4545H232.443V64H231.191V62.8665H231.122C230.972 63.2159 230.73 63.5071 230.398 63.7401C230.068 63.9702 229.658 64.0852 229.166 64.0852C228.746 64.0852 228.374 63.9929 228.05 63.8082C227.729 63.6207 227.476 63.3438 227.291 62.9773C227.11 62.6108 227.019 62.1577 227.019 61.6179V57.4545H228.293V61.4645C228.293 61.9105 228.416 62.2656 228.664 62.5298C228.911 62.794 229.232 62.9261 229.627 62.9261C229.865 62.9261 230.102 62.8665 230.338 62.7472C230.577 62.6278 230.774 62.4474 230.931 62.206C231.09 61.9645 231.168 61.6577 231.165 61.2855ZM235.43 60.1136V64H234.155V57.4545H235.378V58.5199H235.459C235.61 58.1733 235.846 57.8949 236.167 57.6847C236.491 57.4744 236.898 57.3693 237.39 57.3693C237.836 57.3693 238.226 57.4631 238.562 57.6506C238.897 57.8352 239.157 58.1108 239.341 58.4773C239.526 58.8437 239.618 59.2969 239.618 59.8366V64H238.344V59.9901C238.344 59.5156 238.221 59.1449 237.974 58.8778C237.726 58.608 237.387 58.473 236.955 58.473C236.66 58.473 236.397 58.5369 236.167 58.6648C235.939 58.7926 235.759 58.9801 235.626 59.2273C235.495 59.4716 235.43 59.767 235.43 60.1136ZM244.383 57.4545V58.4773H240.807V57.4545H244.383ZM241.766 55.8864H243.04V62.0781C243.04 62.3253 243.077 62.5114 243.151 62.6364C243.225 62.7585 243.32 62.8423 243.437 62.8878C243.556 62.9304 243.685 62.9517 243.824 62.9517C243.927 62.9517 244.016 62.9446 244.093 62.9304C244.17 62.9162 244.229 62.9048 244.272 62.8963L244.502 63.9489C244.428 63.9773 244.323 64.0057 244.187 64.0341C244.05 64.0653 243.88 64.0824 243.675 64.0852C243.34 64.0909 243.028 64.0312 242.738 63.9062C242.448 63.7812 242.214 63.5881 242.035 63.3267C241.856 63.0653 241.766 62.7372 241.766 62.3423V55.8864Z" fill="#A0F2E0"/>
</svg>
