<svg width="137" height="149" viewBox="0 0 137 149" fill="none" xmlns="http://www.w3.org/2000/svg">
<path d="M67.1792 145.1L6.90137 115.89V55.5674L67.1792 84.7729V145.1Z" fill="#D0D7FB" stroke="#13203D" stroke-width="0.450911" stroke-linecap="round" stroke-linejoin="round"/>
<path d="M62.5888 138.521L11.5547 113.793V62.7275L62.5888 87.4555V138.521Z" fill="#13203D" stroke="#D0D7FB" stroke-width="0.450911" stroke-linecap="round" stroke-linejoin="round"/>
<path d="M131.276 104.248L67.2014 145.141V84.8179L131.276 43.9248V104.248Z" fill="#D0D7FB" stroke="#13203D" stroke-width="0.450911" stroke-linecap="round" stroke-linejoin="round"/>
<path d="M125.631 102.895L72.8469 136.578V86.8878L125.631 53.2002V102.895Z" fill="#13203D" stroke="#D0D7FB" stroke-width="0.450911" stroke-linecap="round" stroke-linejoin="round"/>
<path d="M70.9759 14.6699L6.90137 55.5676L67.1837 84.7776L131.281 43.925L70.9759 14.6699Z" fill="#D0D7FB" stroke="#13203D" stroke-width="0.450911" stroke-linecap="round" stroke-linejoin="round"/>
<path d="M70.0829 20.3418L16.3704 54.6201L66.8995 79.1045L120.626 44.8624L70.0784 20.3418H70.0829Z" fill="#13203D" stroke="#13203D" stroke-width="0.450911" stroke-linecap="round" stroke-linejoin="round"/>
<path d="M85.8965 39.6406L83.9711 38.7568L52.989 58.4301L54.9099 59.3409L85.8965 39.6406Z" stroke="#D0D7FB" stroke-width="0.450911" stroke-linecap="round" stroke-linejoin="round"/>
<path d="M55.4238 19.5755L55.2615 59.1159L83.6193 41.12V1.9043L55.4238 19.5755Z" fill="#D0D7FB" stroke="#13203D" stroke-width="0.450911" stroke-linecap="round" stroke-linejoin="round"/>
<path d="M5.84155 65.7666L13.0156 69.2431V75.84L5.84155 72.3048V65.7666Z" fill="#13203D" stroke="#D0D7FB" stroke-width="0.450911" stroke-linecap="round" stroke-linejoin="round"/>
<path d="M6.84708 64.96L14.0211 68.4365L13.0156 69.2436L5.84155 65.7671L6.84708 64.96Z" fill="#13203D" stroke="#D0D7FB" stroke-width="0.450911" stroke-linecap="round" stroke-linejoin="round"/>
<path d="M13.0156 69.2437V75.8405L14.0212 75.0334V68.4365L13.0156 69.2437Z" fill="#13203D" stroke="#D0D7FB" stroke-width="0.450911" stroke-linecap="round" stroke-linejoin="round"/>
<path d="M5.84155 101.109L13.0156 104.586V111.183L5.84155 107.643V101.109Z" fill="#13203D" stroke="#D0D7FB" stroke-width="0.450911" stroke-linecap="round" stroke-linejoin="round"/>
<path d="M6.84708 100.302L14.0211 103.778L13.0156 104.585L5.84155 101.109L6.84708 100.302Z" fill="#13203D" stroke="#D0D7FB" stroke-width="0.450911" stroke-linecap="round" stroke-linejoin="round"/>
<path d="M13.0156 104.585V111.182L14.0212 110.375V103.778L13.0156 104.585Z" fill="#13203D" stroke="#D0D7FB" stroke-width="0.450911" stroke-linecap="round" stroke-linejoin="round"/>
<path d="M60.023 90.3543L67.4089 93.8579L74.5108 89.3037L75.4938 89.917L67.4089 95.1746L59.022 91.1615L60.023 90.3543Z" fill="#13203D" stroke="#D0D7FB" stroke-width="0.450911" stroke-linecap="round" stroke-linejoin="round"/>
<path d="M67.4092 95.1756V101.777L75.494 96.5193V89.918L67.4092 95.1756Z" fill="#13203D" stroke="#D0D7FB" stroke-width="0.450911" stroke-linecap="round" stroke-linejoin="round"/>
<path d="M59.022 91.1611L67.4089 95.1742V101.776L59.022 97.6993V91.1611Z" fill="#13203D" stroke="#D0D7FB" stroke-width="0.450911" stroke-linecap="round" stroke-linejoin="round"/>
<path d="M60.023 124.768L67.4089 128.272L74.5108 123.718L75.4938 124.331L67.4089 129.589L59.022 125.576L60.023 124.768Z" fill="#13203D" stroke="#D0D7FB" stroke-width="0.450911" stroke-linecap="round" stroke-linejoin="round"/>
<path d="M67.4092 129.589V136.186L75.494 130.928V124.331L67.4092 129.589Z" fill="#13203D" stroke="#D0D7FB" stroke-width="0.450911" stroke-linecap="round" stroke-linejoin="round"/>
<path d="M59.022 125.576L67.4089 129.589V136.186L59.022 132.114V125.576Z" fill="#13203D" stroke="#D0D7FB" stroke-width="0.450911" stroke-linecap="round" stroke-linejoin="round"/>
<path d="M122.97 93.8982L131.357 88.6045L132.34 89.2177L124.255 94.4799L122.97 93.8982Z" fill="#13203D" stroke="#D0D7FB" stroke-width="0.450911" stroke-linecap="round" stroke-linejoin="round"/>
<path d="M124.255 94.4799V101.077L132.34 95.8191V89.2178L124.255 94.4799Z" fill="#13203D" stroke="#D0D7FB" stroke-width="0.450911" stroke-linecap="round" stroke-linejoin="round"/>
<path d="M124.255 94.4801V101.077L122.97 100.049V93.8984L124.255 94.4801Z" fill="#13203D" stroke="#D0D7FB" stroke-width="0.450911" stroke-linecap="round" stroke-linejoin="round"/>
<path d="M122.97 60.8556L131.357 55.5664L132.34 56.1796L124.256 61.4373L122.97 60.8556Z" fill="#13203D" stroke="#D0D7FB" stroke-width="0.450911" stroke-linecap="round" stroke-linejoin="round"/>
<path d="M124.256 61.4373V68.0341L132.34 62.7765V56.1797L124.256 61.4373Z" fill="#13203D" stroke="#D0D7FB" stroke-width="0.450911" stroke-linecap="round" stroke-linejoin="round"/>
<path d="M124.256 61.4371V68.034L122.97 67.0104V60.8555L124.256 61.4371Z" fill="#13203D" stroke="#D0D7FB" stroke-width="0.450911" stroke-linecap="round" stroke-linejoin="round"/>
<path d="M65.4928 38.2793C63.856 34.7847 62.1831 31.1233 62.3183 27.2681L66.1015 34.158C66.6561 35.168 67.3731 36.2953 68.5139 36.4486L68.2614 33.6575C68.2343 33.3463 68.2072 33.0217 68.3425 32.7421C68.6266 32.1424 69.4292 32.0657 70.0921 31.9981C72.7479 31.7231 75.2324 30.1223 76.5762 27.8182C77.1398 26.8532 77.4554 25.5005 76.6663 24.7114C75.9764 24.0215 74.7996 24.1658 73.9338 24.6167C72.4684 25.3787 71.4628 26.7856 70.5204 28.1428L62.0478 40.3129C61.651 40.8811 61.0558 41.5214 60.3975 41.3139C64.1716 33.3689 70.7459 27.1643 77.1714 21.1582C70.7594 25.9469 65.7092 32.5437 62.7647 39.9883C62.5077 40.6376 62.3183 41.5033 62.8685 41.9317C63.3464 42.3059 64.0453 42.0624 64.5864 41.7874C68.1576 39.9883 71.3411 37.4271 73.8662 34.3293C73.9834 34.185 74.1052 34.0227 74.0781 33.8378C74.0511 33.653 73.7805 33.5357 73.6813 33.689C73.6813 34.5142 75.0025 34.7081 75.5481 34.0903C76.0937 33.4726 76.0576 32.5527 75.9945 31.7321C76.4679 32.5167 77.0271 33.3554 77.9063 33.5988C78.7856 33.8423 79.9264 33.0127 79.5837 32.1649" stroke="#D0D7FB" stroke-width="0.338183" stroke-linecap="round" stroke-linejoin="round"/>
<path d="M37.9916 105.037C35.5567 104.153 33.5772 101.448 33.5772 99.0172C33.5772 96.5868 35.5567 95.3243 37.9916 96.208C40.4265 97.0963 42.406 99.7973 42.406 102.228C42.406 104.658 40.4265 105.921 37.9916 105.037ZM37.9916 94.3909C34.5557 93.1418 31.76 94.9184 31.76 98.3544C31.76 101.479 34.0777 104.911 37.0808 106.448V110.579L38.8889 111.241V107.107C41.901 107.76 44.2187 106.015 44.2187 102.886C44.2187 99.4501 41.423 95.6399 37.9871 94.3864L37.9916 94.3909Z" fill="#13203D" stroke="#D0D7FB" stroke-width="0.225456" stroke-miterlimit="23.8"/>
<path d="M43.3033 95.1569L45.3684 92.3748L43.7993 90.8868L41.7296 93.6734C40.8503 92.9565 39.8989 92.3432 38.8979 91.8788V87.7529L37.0807 87.0901V91.2159C36.0616 90.9454 35.0877 90.8642 34.1949 90.9499L32.1748 86.6572L30.5966 86.9774L32.6257 91.2971C30.3396 92.1268 28.8516 94.2776 28.8516 97.3123L30.6687 97.9751C30.6687 93.9394 33.9514 91.8517 37.987 93.3217C42.0227 94.7917 45.3053 99.2692 45.3053 103.305L47.1225 103.968C47.1225 100.915 45.6119 97.664 43.3033 95.1614V95.1569Z" fill="#13203D" stroke="#D0D7FB" stroke-width="0.225456" stroke-miterlimit="23.8"/>
<path d="M37.9735 105.051C35.5386 104.167 33.5591 101.461 33.5591 99.0309C33.5591 96.6005 35.5386 95.3379 37.9735 96.2217C40.4085 97.11 42.388 99.811 42.388 102.241C42.388 104.672 40.4085 105.934 37.9735 105.051ZM37.9735 94.4045C34.5376 93.1555 31.7419 94.9321 31.7419 98.3681C31.7419 101.493 34.0596 104.924 37.0627 106.462V110.592L38.8708 111.255V107.12C41.8829 107.774 44.2006 106.029 44.2006 102.9C44.2006 99.4638 41.405 95.6536 37.969 94.4L37.9735 94.4045Z" fill="#13203D" stroke="#D0D7FB" stroke-width="0.225456" stroke-miterlimit="23.8"/>
<path d="M43.2852 95.1706L45.3504 92.3884L43.7812 90.9004L41.7115 93.6871C40.8322 92.9701 39.8808 92.3569 38.8798 91.8925V87.7666L37.0626 87.1038V91.2296C36.0436 90.9591 35.0696 90.8779 34.1768 90.9636L32.1567 86.6709L30.5785 86.991L32.6076 91.3108C30.3215 92.1404 28.8335 94.2913 28.8335 97.3259L30.6507 97.9888C30.6507 93.9531 33.9333 91.8654 37.969 93.3354C42.0046 94.8053 45.2872 99.2829 45.2872 103.319L47.1044 103.981C47.1044 100.929 45.5939 97.6776 43.2852 95.1751V95.1706Z" fill="#13203D" stroke="#D0D7FB" stroke-width="0.225456" stroke-miterlimit="23.8"/>
<path d="M37.9557 105.063C35.5208 104.179 33.5413 101.474 33.5413 99.0436C33.5413 96.6132 35.5208 95.3506 37.9557 96.2344C40.3906 97.1227 42.3701 99.8237 42.3701 102.254C42.3701 104.684 40.3906 105.947 37.9557 105.063ZM37.9557 94.4172C34.5198 93.1682 31.7241 94.9448 31.7241 98.3807C31.7241 101.506 34.0418 104.937 37.0449 106.475V110.605L38.853 111.268V107.133C41.8651 107.787 44.1828 106.042 44.1828 102.912C44.1828 99.4765 41.3871 95.6663 37.9512 94.4127L37.9557 94.4172Z" fill="#13203D" stroke="#D0D7FB" stroke-width="0.225456" stroke-miterlimit="23.8"/>
<path d="M43.2674 95.1882L45.3326 92.406L43.7634 90.918L41.6937 93.7047C40.8144 92.9877 39.863 92.3745 38.862 91.91V87.7842L37.0448 87.1214V91.2472C36.0257 90.9766 35.0518 90.8955 34.159 90.9812L32.1389 86.6885L30.5607 87.0086L32.5898 91.3284C30.3037 92.158 28.8157 94.3089 28.8157 97.3435L30.6328 98.0064C30.6328 93.9707 33.9155 91.883 37.9511 93.3529C41.9868 94.8229 45.2694 99.3005 45.2694 103.336L47.0866 103.999C47.0866 100.946 45.576 97.6952 43.2674 95.1927V95.1882Z" fill="#13203D" stroke="#D0D7FB" stroke-width="0.225456" stroke-miterlimit="23.8"/>
<path d="M37.933 105.082C35.4981 104.198 33.5186 101.493 33.5186 99.0621C33.5186 96.6317 35.4981 95.3692 37.933 96.253C40.3679 97.1413 42.3474 99.8422 42.3474 102.273C42.3474 104.703 40.3679 105.966 37.933 105.082ZM37.933 94.4358C34.4971 93.1868 31.7014 94.9634 31.7014 98.3993C31.7014 101.524 34.0191 104.956 37.0222 106.493V110.623L38.8303 111.286V107.151C41.8424 107.805 44.1601 106.06 44.1601 102.931C44.1601 99.495 41.3644 95.6848 37.9285 94.4313L37.933 94.4358Z" fill="#13203D" stroke="#D0D7FB" stroke-width="0.225456" stroke-miterlimit="23.8"/>
<path d="M43.2493 95.2018L45.3145 92.4197L43.7453 90.9317L41.6756 93.7183C40.7964 93.0014 39.8449 92.3881 38.8439 91.9237V87.7979L37.0267 87.135V91.2609C36.0077 90.9903 35.0337 90.9092 34.1409 90.9948L32.1208 86.7021L30.5426 87.0223L32.5717 91.342C30.2856 92.1717 28.7976 94.3225 28.7976 97.3572L30.6148 98.02C30.6148 93.9844 33.8974 91.8966 37.9331 93.3666C41.9687 94.8366 45.2514 99.3141 45.2514 103.35L47.0685 104.013C47.0685 100.96 45.558 97.7089 43.2493 95.2063V95.2018Z" fill="#13203D" stroke="#D0D7FB" stroke-width="0.225456" stroke-miterlimit="23.8"/>
<path d="M37.9149 105.095C35.48 104.212 33.5005 101.506 33.5005 99.0758C33.5005 96.6454 35.48 95.3828 37.9149 96.2666C40.3499 97.1549 42.3294 99.8559 42.3294 102.286C42.3294 104.717 40.3499 105.979 37.9149 105.095ZM37.9149 94.4495C34.479 93.2004 31.6833 94.977 31.6833 98.413C31.6833 101.538 34.001 104.969 37.0041 106.507V110.637L38.8123 111.3V107.165C41.8243 107.819 44.142 106.074 44.142 102.945C44.142 99.5087 41.3464 95.6985 37.9104 94.4449L37.9149 94.4495Z" fill="#13203D" stroke="#D0D7FB" stroke-width="0.225456" stroke-miterlimit="23.8"/>
<path d="M43.2266 95.2155L45.2918 92.4334L43.7226 90.9454L41.6529 93.732C40.7736 93.0151 39.8222 92.4018 38.8212 91.9374V87.8115L37.004 87.1487V91.2745C35.985 91.004 35.011 90.9228 34.1182 91.0085L32.0981 86.7158L30.5199 87.036L32.549 91.3557C30.2629 92.1854 28.7749 94.3362 28.7749 97.3709L30.5921 98.0337C30.5921 93.998 33.8747 91.9103 37.9104 93.3803C41.946 94.8503 45.2287 99.3278 45.2287 103.363L47.0458 104.026C47.0458 100.974 45.5353 97.7226 43.2266 95.22V95.2155Z" fill="#13203D" stroke="#D0D7FB" stroke-width="0.225456" stroke-miterlimit="23.8"/>
<path d="M37.8969 105.11C35.462 104.226 33.4825 101.521 33.4825 99.0905C33.4825 96.66 35.462 95.3975 37.8969 96.2813C40.3318 97.1696 42.3113 99.8705 42.3113 102.301C42.3113 104.731 40.3318 105.994 37.8969 105.11ZM37.8969 94.4641C34.4609 93.2151 31.6653 94.9917 31.6653 98.4276C31.6653 101.552 33.983 104.984 36.986 106.521V110.652L38.7942 111.315V107.18C41.8063 107.834 44.124 106.089 44.124 102.959C44.124 99.5233 41.3283 95.7131 37.8924 94.4596L37.8969 94.4641Z" fill="#13203D" stroke="#D0D7FB" stroke-width="0.225456" stroke-miterlimit="23.8"/>
<path d="M43.2085 95.2301L45.2737 92.448L43.7045 90.96L41.6349 93.7467C40.7556 93.0297 39.8042 92.4165 38.8031 91.952V87.8262L36.986 87.1633V91.2892C35.9669 91.0186 34.9929 90.9375 34.1001 91.0231L32.0801 86.7305L30.5019 87.0506L32.531 91.3703C30.2448 92.2 28.7568 94.3509 28.7568 97.3855L30.574 98.0483C30.574 94.0127 33.8566 91.925 37.8923 93.3949C41.928 94.8649 45.2106 99.3425 45.2106 103.378L47.0278 104.041C47.0278 100.988 45.5172 97.7372 43.2085 95.2347V95.2301Z" fill="#13203D" stroke="#D0D7FB" stroke-width="0.225456" stroke-miterlimit="23.8"/>
<path d="M37.8786 105.128C35.4436 104.244 33.4641 101.538 33.4641 99.108C33.4641 96.6776 35.4436 95.4151 37.8786 96.2989C40.3135 97.1872 42.293 99.8881 42.293 102.319C42.293 104.749 40.3135 106.011 37.8786 105.128ZM37.8786 94.4817C34.4426 93.2327 31.647 95.0093 31.647 98.4452C31.647 101.57 33.9647 105.001 36.9677 106.539V110.669L38.7759 111.332V107.197C41.788 107.851 44.1057 106.106 44.1057 102.977C44.1057 99.5409 41.31 95.7307 37.8741 94.4772L37.8786 94.4817Z" fill="#13203D" stroke="#D0D7FB" stroke-width="0.225456" stroke-miterlimit="23.8"/>
<path d="M43.1905 95.2477L45.2556 92.4656L43.6865 90.9776L41.6168 93.7642C40.7375 93.0473 39.7861 92.434 38.7851 91.9696V87.8438L36.9679 87.1809V91.3068C35.9488 91.0362 34.9749 90.9551 34.0821 91.0407L32.062 86.748L30.4838 87.0682L32.5129 91.3879C30.2268 92.2176 28.7388 94.3684 28.7388 97.4031L30.5559 98.0659C30.5559 94.0303 33.8386 91.9425 37.8742 93.4125C41.9099 94.8825 45.1925 99.36 45.1925 103.396L47.0097 104.059C47.0097 101.006 45.4991 97.7548 43.1905 95.2522V95.2477Z" fill="#13203D" stroke="#D0D7FB" stroke-width="0.225456" stroke-miterlimit="23.8"/>
<path d="M37.8607 105.139C35.4258 104.256 33.4463 101.55 33.4463 99.1198C33.4463 96.6893 35.4258 95.4268 37.8607 96.3106C40.2957 97.1989 42.2752 99.8998 42.2752 102.33C42.2752 104.761 40.2957 106.023 37.8607 105.139ZM37.8607 94.4934C34.4248 93.2444 31.6292 95.021 31.6292 98.4569C31.6292 101.582 33.9468 105.013 36.9499 106.551V110.681L38.7581 111.344V107.209C41.7701 107.863 44.0878 106.118 44.0878 102.989C44.0878 99.5526 41.2922 95.7424 37.8562 94.4889L37.8607 94.4934Z" fill="#13203D" stroke="#D0D7FB" stroke-width="0.225456" stroke-miterlimit="23.8"/>
<path d="M43.1724 95.2604L45.2376 92.4783L43.6684 90.9903L41.5987 93.7769C40.7194 93.06 39.768 92.4467 38.767 91.9823V87.8565L36.9498 87.1936V91.3195C35.9308 91.0489 34.9568 90.9677 34.064 91.0534L32.0439 86.7607L30.4657 87.0809L32.4948 91.4006C30.2087 92.2303 28.7207 94.3811 28.7207 97.4158L30.5379 98.0786C30.5379 94.043 33.8205 91.9552 37.8562 93.4252C41.8918 94.8952 45.1745 99.3727 45.1745 103.408L46.9916 104.071C46.9916 101.019 45.4811 97.7675 43.1724 95.2649V95.2604Z" fill="#13203D" stroke="#D0D7FB" stroke-width="0.225456" stroke-miterlimit="23.8"/>
<path d="M37.8383 105.154C35.4034 104.27 33.4239 101.565 33.4239 99.1344C33.4239 96.704 35.4034 95.4414 37.8383 96.3252C40.2732 97.2135 42.2527 99.9145 42.2527 102.345C42.2527 104.775 40.2732 106.038 37.8383 105.154ZM37.8383 94.5081C34.4023 93.259 31.6067 95.0356 31.6067 98.4716C31.6067 101.596 33.9244 105.028 36.9274 106.565V110.696L38.7356 111.359V107.224C41.7477 107.878 44.0654 106.133 44.0654 103.003C44.0654 99.5673 41.2697 95.7571 37.8338 94.5035L37.8383 94.5081Z" fill="#13203D" stroke="#D0D7FB" stroke-width="0.225456" stroke-miterlimit="23.8"/>
<path d="M43.1499 95.2741L45.2151 92.492L43.6459 91.004L41.5763 93.7906C40.697 93.0736 39.7456 92.4604 38.7445 91.996V87.8701L36.9274 87.2073V91.3331C35.9083 91.0626 34.9343 90.9814 34.0415 91.0671L32.0215 86.7744L30.4433 87.0946L32.4724 91.4143C30.1862 92.244 28.6982 94.3948 28.6982 97.4294L30.5154 98.0923C30.5154 94.0566 33.798 91.9689 37.8337 93.4389C41.8694 94.9089 45.152 99.3864 45.152 103.422L46.9692 104.085C46.9692 101.032 45.4586 97.7812 43.1499 95.2786V95.2741Z" fill="#13203D" stroke="#D0D7FB" stroke-width="0.225456" stroke-miterlimit="23.8"/>
<path d="M37.8202 105.168C35.3853 104.284 33.4058 101.578 33.4058 99.1481C33.4058 96.7177 35.3853 95.4551 37.8202 96.3389C40.2551 97.2272 42.2346 99.9281 42.2346 102.359C42.2346 104.789 40.2551 106.052 37.8202 105.168ZM37.8202 94.5217C34.3843 93.2727 31.5886 95.0493 31.5886 98.4852C31.5886 101.61 33.9063 105.041 36.9094 106.579V110.709L38.7175 111.372V107.237C41.7296 107.891 44.0473 106.146 44.0473 103.017C44.0473 99.5809 41.2516 95.7707 37.8157 94.5172L37.8202 94.5217Z" fill="#13203D" stroke="#D0D7FB" stroke-width="0.225456" stroke-miterlimit="23.8"/>
<path d="M43.1319 95.2878L45.1971 92.5056L43.6279 91.0176L41.5582 93.8043C40.6789 93.0873 39.7275 92.4741 38.7265 92.0096V87.8838L36.9093 87.221V91.3468C35.8902 91.0763 34.9163 90.9951 34.0235 91.0808L32.0034 86.7881L30.4252 87.1082L32.4543 91.428C30.1682 92.2576 28.6802 94.4085 28.6802 97.4431L30.4973 98.106C30.4973 94.0703 33.78 91.9826 37.8156 93.4526C41.8513 94.9225 45.1339 99.4001 45.1339 103.436L46.9511 104.099C46.9511 101.046 45.4405 97.7948 43.1319 95.2923V95.2878Z" fill="#13203D" stroke="#D0D7FB" stroke-width="0.225456" stroke-miterlimit="23.8"/>
<path d="M37.8021 105.184C35.3672 104.301 33.3877 101.595 33.3877 99.1647C33.3877 96.7343 35.3672 95.4717 37.8021 96.3555C40.2371 97.2438 42.2166 99.9448 42.2166 102.375C42.2166 104.806 40.2371 106.068 37.8021 105.184ZM37.8021 94.5383C34.3662 93.2893 31.5706 95.0659 31.5706 98.5018C31.5706 101.627 33.8882 105.058 36.8913 106.596V110.726L38.6995 111.389V107.254C41.7116 107.908 44.0292 106.163 44.0292 103.033C44.0292 99.5976 41.2336 95.7874 37.7976 94.5338L37.8021 94.5383Z" fill="#13203D" stroke="#D0D7FB" stroke-width="0.225456" stroke-miterlimit="23.8"/>
<path d="M43.1138 95.3053L45.179 92.5232L43.6098 91.0352L41.5401 93.8218C40.6609 93.1049 39.7094 92.4916 38.7084 92.0272V87.9014L36.8912 87.2385V91.3644C35.8722 91.0938 34.8982 91.0127 34.0054 91.0983L31.9853 86.8057L30.4071 87.1258L32.4362 91.4455C30.1501 92.2752 28.6621 94.4261 28.6621 97.4607L30.4793 98.1235C30.4793 94.0879 33.7619 92.0002 37.7976 93.4701C41.8332 94.9401 45.1159 99.4176 45.1159 103.453L46.933 104.116C46.933 101.063 45.4225 97.8124 43.1138 95.3098V95.3053Z" fill="#13203D" stroke="#D0D7FB" stroke-width="0.225456" stroke-miterlimit="23.8"/>
<path d="M37.7841 105.198C35.3492 104.314 33.3697 101.609 33.3697 99.1783C33.3697 96.7479 35.3492 95.4854 37.7841 96.3692C40.219 97.2575 42.1985 99.9584 42.1985 102.389C42.1985 104.819 40.219 106.082 37.7841 105.198ZM37.7841 94.552C34.3481 93.303 31.5525 95.0796 31.5525 98.5155C31.5525 101.64 33.8702 105.072 36.8732 106.609V110.74L38.6814 111.403V107.268C41.6935 107.922 44.0112 106.176 44.0112 103.047C44.0112 99.6112 41.2155 95.801 37.7796 94.5475L37.7841 94.552Z" fill="#13203D" stroke="#D0D7FB" stroke-width="0.225456" stroke-miterlimit="23.8"/>
<path d="M43.0957 95.318L45.1609 92.5359L43.5918 91.0479L41.5221 93.8345C40.6428 93.1176 39.6914 92.5044 38.6903 92.0399V87.9141L36.8732 87.2512V91.3771C35.8541 91.1065 34.8801 91.0254 33.9873 91.111L31.9673 86.8184L30.3891 87.1385L32.4182 91.4582C30.1321 92.2879 28.644 94.4388 28.644 97.4734L30.4612 98.1362C30.4612 94.1006 33.7438 92.0129 37.7795 93.4828C41.8152 94.9528 45.0978 99.4303 45.0978 103.466L46.915 104.129C46.915 101.076 45.4044 97.8251 43.0957 95.3225V95.318Z" fill="#13203D" stroke="#D0D7FB" stroke-width="0.225456" stroke-miterlimit="23.8"/>
<path d="M37.7614 105.213C35.3265 104.329 33.347 101.623 33.347 99.193C33.347 96.7626 35.3265 95.5 37.7614 96.3838C40.1963 97.2721 42.1758 99.9731 42.1758 102.403C42.1758 104.834 40.1963 106.096 37.7614 105.213ZM37.7614 94.5666C34.3254 93.3176 31.5298 95.0942 31.5298 98.5302C31.5298 101.655 33.8475 105.086 36.8505 106.624V110.754L38.6587 111.417V107.282C41.6708 107.936 43.9885 106.191 43.9885 103.062C43.9885 99.6259 41.1928 95.8157 37.7569 94.5621L37.7614 94.5666Z" fill="#13203D" stroke="#D0D7FB" stroke-width="0.225456" stroke-miterlimit="23.8"/>
<path d="M43.0733 95.3327L45.1385 92.5506L43.5693 91.0626L41.4996 93.8492C40.6203 93.1322 39.6689 92.519 38.6679 92.0546V87.9287L36.8507 87.2659V91.3917C35.8317 91.1212 34.8577 91.04 33.9649 91.1257L31.9448 86.833L30.3666 87.1532L32.3957 91.4729C30.1096 92.3026 28.6216 94.4534 28.6216 97.488L30.4388 98.1509C30.4388 94.1152 33.7214 92.0275 37.757 93.4975C41.7927 94.9674 45.0753 99.445 45.0753 103.481L46.8925 104.143C46.8925 101.091 45.382 97.8398 43.0733 95.3372V95.3327Z" fill="#13203D" stroke="#D0D7FB" stroke-width="0.225456" stroke-miterlimit="23.8"/>
<path d="M37.7438 105.226C35.3089 104.343 33.3294 101.637 33.3294 99.2067C33.3294 96.7763 35.3089 95.5137 37.7438 96.3975C40.1787 97.2858 42.1582 99.9867 42.1582 102.417C42.1582 104.848 40.1787 106.11 37.7438 105.226ZM37.7438 94.5803C34.3079 93.3313 31.5122 95.1079 31.5122 98.5438C31.5122 101.669 33.8299 105.1 36.833 106.638V110.768L38.6411 111.431V107.296C41.6532 107.95 43.9709 106.205 43.9709 103.075C43.9709 99.6395 41.1752 95.8293 37.7393 94.5758L37.7438 94.5803Z" fill="#13203D" stroke="#D0D7FB" stroke-width="0.225456" stroke-miterlimit="23.8"/>
<path d="M43.0555 95.3464L45.1206 92.5642L43.5515 91.0762L41.4818 93.8629C40.6025 93.1459 39.6511 92.5327 38.6501 92.0682V87.9424L36.8329 87.2796V91.4054C35.8138 91.1348 34.8399 91.0537 33.9471 91.1394L31.927 86.8467L30.3488 87.1668L32.3779 91.4866C30.0918 92.3162 28.6038 94.4671 28.6038 97.5017L30.4209 98.1645C30.4209 94.1289 33.7036 92.0412 37.7392 93.5111C41.7749 94.9811 45.0575 99.4587 45.0575 103.494L46.8747 104.157C46.8747 101.104 45.3641 97.8534 43.0555 95.3509V95.3464Z" fill="#13203D" stroke="#D0D7FB" stroke-width="0.225456" stroke-miterlimit="23.8"/>
<path d="M37.7257 105.244C35.2908 104.36 33.3113 101.655 33.3113 99.2242C33.3113 96.7938 35.2908 95.5313 37.7257 96.4151C40.1607 97.3034 42.1402 100.004 42.1402 102.435C42.1402 104.865 40.1607 106.128 37.7257 105.244ZM37.7257 94.5979C34.2898 93.3489 31.4941 95.1255 31.4941 98.5614C31.4941 101.686 33.8118 105.118 36.8149 106.655V110.786L38.623 111.448V107.314C41.6351 107.967 43.9528 106.222 43.9528 103.093C43.9528 99.6571 41.1572 95.8469 37.7212 94.5934L37.7257 94.5979Z" fill="#13203D" stroke="#D0D7FB" stroke-width="0.225456" stroke-miterlimit="23.8"/>
<path d="M43.0374 95.3639L45.1026 92.5818L43.5334 91.0938L41.4637 93.8804C40.5844 93.1635 39.633 92.5502 38.632 92.0858V87.96L36.8148 87.2971V91.423C35.7958 91.1524 34.8218 91.0713 33.929 91.1569L31.9089 86.8643L30.3307 87.1844L32.3598 91.5041C30.0737 92.3338 28.5857 94.4847 28.5857 97.5193L30.4029 98.1821C30.4029 94.1465 33.6855 92.0588 37.7212 93.5287C41.7568 94.9987 45.0394 99.4762 45.0394 103.512L46.8566 104.175C46.8566 101.122 45.3461 97.871 43.0374 95.3684V95.3639Z" fill="#13203D" stroke="#D0D7FB" stroke-width="0.225456" stroke-miterlimit="23.8"/>
<path d="M37.7074 105.258C35.2725 104.374 33.293 101.668 33.293 99.2379C33.293 96.8075 35.2725 95.545 37.7074 96.4287C40.1423 97.317 42.1218 100.018 42.1218 102.448C42.1218 104.879 40.1423 106.141 37.7074 105.258ZM37.7074 94.6116C34.2715 93.3625 31.4758 95.1391 31.4758 98.5751C31.4758 101.7 33.7935 105.131 36.7966 106.669V110.799L38.6047 111.462V107.327C41.6168 107.981 43.9345 106.236 43.9345 103.107C43.9345 99.6708 41.1389 95.8606 37.7029 94.6071L37.7074 94.6116Z" fill="#13203D" stroke="#D0D7FB" stroke-width="0.225456" stroke-miterlimit="23.8"/>
<path d="M43.0193 95.3776L45.0845 92.5955L43.5153 91.1075L41.4457 93.8941C40.5664 93.1772 39.615 92.5639 38.6139 92.0995V87.9736L36.7968 87.3108V91.4366C35.7777 91.1661 34.8037 91.0849 33.9109 91.1706L31.8908 86.8779L30.3127 87.1981L32.3418 91.5178C30.0556 92.3475 28.5676 94.4983 28.5676 97.533L30.3848 98.1958C30.3848 94.1601 33.6674 92.0724 37.7031 93.5424C41.7387 95.0124 45.0214 99.4899 45.0214 103.526L46.8385 104.188C46.8385 101.136 45.328 97.8847 43.0193 95.3821V95.3776Z" fill="#13203D" stroke="#D0D7FB" stroke-width="0.225456" stroke-miterlimit="23.8"/>
<path d="M37.6847 105.271C35.2498 104.387 33.2703 101.682 33.2703 99.2516C33.2703 96.8212 35.2498 95.5586 37.6847 96.4424C40.1196 97.3307 42.0991 100.032 42.0991 102.462C42.0991 104.892 40.1196 106.155 37.6847 105.271ZM37.6847 94.6252C34.2488 93.3762 31.4531 95.1528 31.4531 98.5887C31.4531 101.714 33.7708 105.145 36.7739 106.683V110.813L38.582 111.476V107.341C41.5941 107.995 43.9118 106.25 43.9118 103.12C43.9118 99.6845 41.1162 95.8743 37.6802 94.6207L37.6847 94.6252Z" fill="#13203D" stroke="#D0D7FB" stroke-width="0.225456" stroke-miterlimit="23.8"/>
<path d="M43.001 95.3913L45.0662 92.6092L43.497 91.1212L41.4273 93.9078C40.5481 93.1908 39.5966 92.5776 38.5956 92.1132V87.9873L36.7784 87.3245V91.4503C35.7594 91.1798 34.7854 91.0986 33.8926 91.1843L31.8725 86.8916L30.2943 87.2118L32.3234 91.5315C30.0373 92.3612 28.5493 94.512 28.5493 97.5466L30.3665 98.2095C30.3665 94.1738 33.6491 92.0861 37.6848 93.5561C41.7204 95.026 45.0031 99.5036 45.0031 103.539L46.8202 104.202C46.8202 101.149 45.3097 97.8983 43.001 95.3958V95.3913Z" fill="#13203D" stroke="#D0D7FB" stroke-width="0.225456" stroke-miterlimit="23.8"/>
<path d="M37.6669 105.284C35.232 104.4 33.2525 101.695 33.2525 99.2643C33.2525 96.8339 35.232 95.5713 37.6669 96.4551C40.1018 97.3434 42.0813 100.044 42.0813 102.475C42.0813 104.905 40.1018 106.168 37.6669 105.284ZM37.6669 94.6379C34.231 93.3889 31.4353 95.1655 31.4353 98.6014C31.4353 101.726 33.753 105.158 36.7561 106.695V110.826L38.5642 111.488V107.354C41.5763 108.007 43.894 106.262 43.894 103.133C43.894 99.6972 41.0983 95.887 37.6624 94.6334L37.6669 94.6379Z" fill="#13203D" stroke="#D0D7FB" stroke-width="0.225456" stroke-miterlimit="23.8"/>
<path d="M42.9786 95.4089L45.0437 92.6267L43.4746 91.1387L41.4049 93.9254C40.5256 93.2084 39.5742 92.5952 38.5732 92.1307V88.0049L36.756 87.3421V91.4679C35.7369 91.1973 34.763 91.1162 33.8702 91.2019L31.8501 86.9092L30.2719 87.2293L32.301 91.5491C30.0149 92.3787 28.5269 94.5296 28.5269 97.5642L30.344 98.227C30.344 94.1914 33.6267 92.1037 37.6623 93.5736C41.698 95.0436 44.9806 99.5212 44.9806 103.557L46.7978 104.22C46.7978 101.167 45.2872 97.9159 42.9786 95.4134V95.4089Z" fill="#13203D" stroke="#D0D7FB" stroke-width="0.225456" stroke-miterlimit="23.8"/>
<path d="M37.6486 105.303C35.2137 104.419 33.2342 101.713 33.2342 99.2828C33.2342 96.8524 35.2137 95.5899 37.6486 96.4737C40.0835 97.362 42.063 100.063 42.063 102.493C42.063 104.924 40.0835 106.186 37.6486 105.303ZM37.6486 94.6565C34.2126 93.4075 31.417 95.1841 31.417 98.62C31.417 101.745 33.7347 105.176 36.7377 106.714V110.844L38.5459 111.507V107.372C41.558 108.026 43.8757 106.281 43.8757 103.152C43.8757 99.7157 41.08 95.9055 37.6441 94.652L37.6486 94.6565Z" fill="#13203D" stroke="#D0D7FB" stroke-width="0.225456" stroke-miterlimit="23.8"/>
<path d="M42.9605 95.4225L45.0257 92.6404L43.4565 91.1524L41.3868 93.939C40.5075 93.2221 39.5561 92.6088 38.5551 92.1444V88.0186L36.7379 87.3557V91.4816C35.7189 91.211 34.7449 91.1299 33.8521 91.2155L31.832 86.9229L30.2538 87.243L32.2829 91.5627C29.9968 92.3924 28.5088 94.5433 28.5088 97.5779L30.326 98.2407C30.326 94.2051 33.6086 92.1173 37.6442 93.5873C41.6799 95.0573 44.9625 99.5348 44.9625 103.57L46.7797 104.233C46.7797 101.181 45.2692 97.9296 42.9605 95.427V95.4225Z" fill="#13203D" stroke="#D0D7FB" stroke-width="0.225456" stroke-miterlimit="23.8"/>
<path d="M37.631 105.316C35.1961 104.432 33.2166 101.727 33.2166 99.2965C33.2166 96.8661 35.1961 95.6036 37.631 96.4873C40.0659 97.3756 42.0454 100.077 42.0454 102.507C42.0454 104.937 40.0659 106.2 37.631 105.316ZM37.631 94.6702C34.1951 93.4211 31.3994 95.1977 31.3994 98.6337C31.3994 101.758 33.7171 105.19 36.7202 106.728V110.858L38.5283 111.521V107.386C41.5404 108.04 43.8581 106.295 43.8581 103.165C43.8581 99.7294 41.0624 95.9192 37.6265 94.6657L37.631 94.6702Z" fill="#13203D" stroke="#D0D7FB" stroke-width="0.225456" stroke-miterlimit="23.8"/>
<path d="M42.9427 95.4362L45.0078 92.6541L43.4387 91.1661L41.369 93.9527C40.4897 93.2358 39.5383 92.6225 38.5373 92.1581V88.0322L36.7201 87.3694V91.4952C35.701 91.2247 34.7271 91.1435 33.8343 91.2292L31.8142 86.9365L30.236 87.2567L32.2651 91.5764C29.979 92.4061 28.491 94.5569 28.491 97.5916L30.3081 98.2544C30.3081 94.2187 33.5908 92.131 37.6264 93.601C41.6621 95.071 44.9447 99.5485 44.9447 103.584L46.7619 104.247C46.7619 101.194 45.2513 97.9433 42.9427 95.4407V95.4362Z" fill="#13203D" stroke="#D0D7FB" stroke-width="0.225456" stroke-miterlimit="23.8"/>
<path d="M37.6081 105.331C35.1731 104.447 33.1936 101.742 33.1936 99.3112C33.1936 96.8807 35.1731 95.6182 37.6081 96.502C40.043 97.3903 42.0225 100.091 42.0225 102.522C42.0225 104.952 40.043 106.215 37.6081 105.331ZM37.6081 94.6848C34.1721 93.4358 31.3765 95.2124 31.3765 98.6483C31.3765 101.773 33.6941 105.205 36.6972 106.742V110.873L38.5054 111.535V107.401C41.5175 108.054 43.8351 106.309 43.8351 103.18C43.8351 99.744 41.0395 95.9338 37.6036 94.6803L37.6081 94.6848Z" fill="#13203D" stroke="#D0D7FB" stroke-width="0.225456" stroke-miterlimit="23.8"/>
<path d="M42.9244 95.4509L44.9895 92.6687L43.4204 91.1807L41.3507 93.9673C40.4714 93.2504 39.52 92.6372 38.519 92.1727V88.0469L36.7018 87.384V91.5099C35.6827 91.2393 34.7088 91.1582 33.816 91.2438L31.7959 86.9512L30.2177 87.2713L32.2468 91.5911C29.9607 92.4207 28.4727 94.5716 28.4727 97.6062L30.2898 98.269C30.2898 94.2334 33.5725 92.1457 37.6081 93.6156C41.6438 95.0856 44.9264 99.5632 44.9264 103.599L46.7436 104.262C46.7436 101.209 45.233 97.9579 42.9244 95.4554V95.4509Z" fill="#13203D" stroke="#D0D7FB" stroke-width="0.225456" stroke-miterlimit="23.8"/>
<path d="M37.5902 105.348C35.1553 104.465 33.1758 101.759 33.1758 99.3287C33.1758 96.8983 35.1553 95.6358 37.5902 96.5196C40.0252 97.4079 42.0047 100.109 42.0047 102.539C42.0047 104.97 40.0252 106.232 37.5902 105.348ZM37.5902 94.7024C34.1543 93.4534 31.3586 95.23 31.3586 98.6659C31.3586 101.791 33.6763 105.222 36.6794 106.76V110.89L38.4876 111.553V107.418C41.4996 108.072 43.8173 106.327 43.8173 103.198C43.8173 99.7616 41.0217 95.9514 37.5857 94.6979L37.5902 94.7024Z" fill="#13203D" stroke="#D0D7FB" stroke-width="0.225456" stroke-miterlimit="23.8"/>
<path d="M42.9019 95.4684L44.9671 92.6863L43.3979 91.1983L41.3282 93.9849C40.4489 93.268 39.4975 92.6547 38.4965 92.1903V88.0645L36.6793 87.4016V91.5275C35.6603 91.2569 34.6863 91.1757 33.7935 91.2614L31.7734 86.9688L30.1952 87.2889L32.2243 91.6086C29.9382 92.4383 28.4502 94.5891 28.4502 97.6238L30.2674 98.2866C30.2674 94.251 33.55 92.1632 37.5857 93.6332C41.6213 95.1032 44.9039 99.5807 44.9039 103.616L46.7211 104.279C46.7211 101.227 45.2106 97.9755 42.9019 95.4729V95.4684Z" fill="#13203D" stroke="#D0D7FB" stroke-width="0.225456" stroke-miterlimit="23.8"/>
<path d="M37.5722 105.36C35.1373 104.476 33.1578 101.771 33.1578 99.3405C33.1578 96.91 35.1373 95.6475 37.5722 96.5313C40.0071 97.4196 41.9866 100.121 41.9866 102.551C41.9866 104.981 40.0071 106.244 37.5722 105.36ZM37.5722 94.7141C34.1362 93.4651 31.3406 95.2417 31.3406 98.6776C31.3406 101.802 33.6583 105.234 36.6613 106.771V110.902L38.4695 111.565V107.43C41.4816 108.084 43.7993 106.339 43.7993 103.209C43.7993 99.7733 41.0036 95.9631 37.5677 94.7096L37.5722 94.7141Z" fill="#13203D" stroke="#D0D7FB" stroke-width="0.225456" stroke-miterlimit="23.8"/>
<path d="M42.8841 95.4811L44.9492 92.699L43.3801 91.211L41.3104 93.9976C40.4311 93.2807 39.4797 92.6674 38.4787 92.203V88.0772L36.6615 87.4143V91.5402C35.6424 91.2696 34.6685 91.1884 33.7757 91.2741L31.7556 86.9814L30.1774 87.3016L32.2065 91.6213C29.9204 92.451 28.4324 94.6018 28.4324 97.6365L30.2495 98.2993C30.2495 94.2637 33.5322 92.1759 37.5678 93.6459C41.6035 95.1159 44.8861 99.5934 44.8861 103.629L46.7033 104.292C46.7033 101.239 45.1927 97.9882 42.8841 95.4856V95.4811Z" fill="#13203D" stroke="#D0D7FB" stroke-width="0.225456" stroke-miterlimit="23.8"/>
<path d="M37.5543 105.375C35.1194 104.491 33.1399 101.786 33.1399 99.3551C33.1399 96.9247 35.1194 95.6621 37.5543 96.5459C39.9893 97.4342 41.9688 100.135 41.9688 102.566C41.9688 104.996 39.9893 106.259 37.5543 105.375ZM37.5543 94.7288C34.1184 93.4797 31.3228 95.2563 31.3228 98.6923C31.3228 101.817 33.6404 105.249 36.6435 106.786V110.916L38.4517 111.579V107.444C41.4637 108.098 43.7814 106.353 43.7814 103.224C43.7814 99.788 40.9858 95.9778 37.5498 94.7243L37.5543 94.7288Z" fill="#13203D" stroke="#D0D7FB" stroke-width="0.225456" stroke-miterlimit="23.8"/>
<path d="M42.866 95.4948L44.9312 92.7127L43.362 91.2247L41.2923 94.0113C40.4131 93.2943 39.4616 92.6811 38.4606 92.2167V88.0908L36.6434 87.428V91.5538C35.6244 91.2833 34.6504 91.2021 33.7576 91.2878L31.7375 86.9951L30.1593 87.3153L32.1884 91.635C29.9023 92.4647 28.4143 94.6155 28.4143 97.6501L30.2315 98.313C30.2315 94.2773 33.5141 92.1896 37.5498 93.6596C41.5854 95.1296 44.8681 99.6071 44.8681 103.643L46.6852 104.306C46.6852 101.253 45.1747 98.0019 42.866 95.4993V95.4948Z" fill="#13203D" stroke="#D0D7FB" stroke-width="0.225456" stroke-miterlimit="23.8"/>
<path d="M37.5312 105.387C35.0962 104.504 33.1167 101.798 33.1167 99.3678C33.1167 96.9374 35.0962 95.6748 37.5312 96.5586C39.9661 97.4469 41.9456 100.148 41.9456 102.578C41.9456 105.009 39.9661 106.271 37.5312 105.387ZM37.5312 94.7415C34.0952 93.4924 31.2996 95.269 31.2996 98.705C31.2996 101.83 33.6172 105.261 36.6203 106.799V110.929L38.4285 111.592V107.457C41.4406 108.111 43.7582 106.366 43.7582 103.237C43.7582 99.8007 40.9626 95.9905 37.5266 94.7369L37.5312 94.7415Z" fill="#13203D" stroke="#D0D7FB" stroke-width="0.225456" stroke-miterlimit="23.8"/>
<path d="M42.8477 95.5085L44.9129 92.7263L43.3437 91.2383L41.274 94.025C40.3947 93.308 39.4433 92.6948 38.4423 92.2303V88.1045L36.6251 87.4417V91.5675C35.6061 91.297 34.6321 91.2158 33.7393 91.3015L31.7192 87.0088L30.141 87.3289L32.1701 91.6487C29.884 92.4783 28.396 94.6292 28.396 97.6638L30.2132 98.3267C30.2132 94.291 33.4958 92.2033 37.5315 93.6733C41.5671 95.1432 44.8497 99.6208 44.8497 103.656L46.6669 104.319C46.6669 101.267 45.1564 98.0155 42.8477 95.513V95.5085Z" fill="#13203D" stroke="#D0D7FB" stroke-width="0.225456" stroke-miterlimit="23.8"/>
<path d="M37.5138 105.407C35.0789 104.523 33.0994 101.818 33.0994 99.3873C33.0994 96.9569 35.0789 95.6944 37.5138 96.5782C39.9487 97.4665 41.9282 100.167 41.9282 102.598C41.9282 105.028 39.9487 106.291 37.5138 105.407ZM37.5138 94.761C34.0779 93.512 31.2822 95.2885 31.2822 98.7245C31.2822 101.849 33.5999 105.281 36.603 106.818V110.949L38.4111 111.612V107.477C41.4232 108.131 43.7409 106.385 43.7409 103.256C43.7409 99.8202 40.9453 96.01 37.5093 94.7565L37.5138 94.761Z" fill="#13203D" stroke="#D0D7FB" stroke-width="0.225456" stroke-miterlimit="23.8"/>
<path d="M42.8255 95.527L44.8907 92.7449L43.3215 91.2569L41.2518 94.0435C40.3725 93.3266 39.4211 92.7133 38.4201 92.2489V88.1231L36.6029 87.4602V91.5861C35.5839 91.3155 34.6099 91.2343 33.7171 91.32L31.697 87.0273L30.1188 87.3475L32.1479 91.6672C29.8618 92.4969 28.3738 94.6477 28.3738 97.6824L30.191 98.3452C30.191 94.3096 33.4736 92.2218 37.5092 93.6918C41.5449 95.1618 44.8275 99.6393 44.8275 103.675L46.6447 104.338C46.6447 101.285 45.1341 98.0341 42.8255 95.5315V95.527Z" fill="#13203D" stroke="#D0D7FB" stroke-width="0.225456" stroke-miterlimit="23.8"/>
<path d="M37.4955 105.42C35.0606 104.536 33.0811 101.83 33.0811 99.4C33.0811 96.9696 35.0606 95.7071 37.4955 96.5909C39.9304 97.4791 41.9099 100.18 41.9099 102.611C41.9099 105.041 39.9304 106.303 37.4955 105.42ZM37.4955 94.7737C34.0596 93.5247 31.2639 95.3012 31.2639 98.7372C31.2639 101.862 33.5816 105.293 36.5847 106.831V110.961L38.3928 111.624V107.489C41.4049 108.143 43.7226 106.398 43.7226 103.269C43.7226 99.8329 40.9269 96.0227 37.491 94.7692L37.4955 94.7737Z" fill="#13203D" stroke="#D0D7FB" stroke-width="0.225456" stroke-miterlimit="23.8"/>
<path d="M42.8072 95.5397L44.8723 92.7576L43.3032 91.2696L41.2335 94.0562C40.3542 93.3393 39.4028 92.726 38.4018 92.2616V88.1358L36.5846 87.4729V91.5988C35.5655 91.3282 34.5916 91.247 33.6988 91.3327L31.6787 87.04L30.1005 87.3602L32.1296 91.6799C29.8435 92.5096 28.3555 94.6604 28.3555 97.6951L30.1726 98.3579C30.1726 94.3223 33.4553 92.2345 37.4909 93.7045C41.5266 95.1745 44.8092 99.652 44.8092 103.688L46.6264 104.351C46.6264 101.298 45.1158 98.0468 42.8072 95.5442V95.5397Z" fill="#13203D" stroke="#D0D7FB" stroke-width="0.225456" stroke-miterlimit="23.8"/>
<path d="M37.4774 105.433C35.0425 104.55 33.063 101.844 33.063 99.4137C33.063 96.9833 35.0425 95.7207 37.4774 96.6045C39.9124 97.4928 41.8919 100.194 41.8919 102.624C41.8919 105.055 39.9124 106.317 37.4774 105.433ZM37.4774 94.7874C34.0415 93.5383 31.2458 95.3149 31.2458 98.7509C31.2458 101.876 33.5635 105.307 36.5666 106.845V110.975L38.3748 111.638V107.503C41.3868 108.157 43.7045 106.412 43.7045 103.283C43.7045 99.8466 40.9089 96.0364 37.4729 94.7828L37.4774 94.7874Z" fill="#13203D" stroke="#D0D7FB" stroke-width="0.225456" stroke-miterlimit="23.8"/>
<path d="M42.7891 95.5534L44.8543 92.7713L43.2851 91.2833L41.2154 94.0699C40.3361 93.3529 39.3847 92.7397 38.3837 92.2753V88.1494L36.5665 87.4866V91.6124C35.5475 91.3419 34.5735 91.2607 33.6807 91.3464L31.6606 87.0537L30.0824 87.3739L32.1115 91.6936C29.8254 92.5233 28.3374 94.6741 28.3374 97.7087L30.1546 98.3716C30.1546 94.3359 33.4372 92.2482 37.4729 93.7182C41.5085 95.1881 44.7912 99.6657 44.7912 103.701L46.6083 104.364C46.6083 101.312 45.0978 98.0605 42.7891 95.5579V95.5534Z" fill="#13203D" stroke="#D0D7FB" stroke-width="0.225456" stroke-miterlimit="23.8"/>
<path d="M37.4547 105.447C35.0198 104.563 33.0403 101.858 33.0403 99.4274C33.0403 96.997 35.0198 95.7344 37.4547 96.6182C39.8897 97.5065 41.8692 100.207 41.8692 102.638C41.8692 105.068 39.8897 106.331 37.4547 105.447ZM37.4547 94.801C34.0188 93.552 31.2231 95.3286 31.2231 98.7645C31.2231 101.889 33.5408 105.321 36.5439 106.858V110.989L38.352 111.652V107.517C41.3641 108.171 43.6818 106.426 43.6818 103.296C43.6818 99.8602 40.8862 96.0501 37.4502 94.7965L37.4547 94.801Z" fill="#13203D" stroke="#D0D7FB" stroke-width="0.225456" stroke-miterlimit="23.8"/>
<path d="M42.771 95.5671L44.8362 92.7849L43.267 91.2969L41.1974 94.0836C40.3181 93.3666 39.3667 92.7534 38.3656 92.2889V88.1631L36.5485 87.5003V91.6261C35.5294 91.3555 34.5554 91.2744 33.6626 91.3601L31.6426 87.0674L30.0644 87.3875L32.0935 91.7073C29.8073 92.5369 28.3193 94.6878 28.3193 97.7224L30.1365 98.3853C30.1365 94.3496 33.4191 92.2619 37.4548 93.7319C41.4905 95.2018 44.7731 99.6794 44.7731 103.715L46.5903 104.378C46.5903 101.325 45.0797 98.0741 42.771 95.5716V95.5671Z" fill="#13203D" stroke="#D0D7FB" stroke-width="0.225456" stroke-miterlimit="23.8"/>
<path d="M37.4369 105.466C35.002 104.582 33.0225 101.876 33.0225 99.4459C33.0225 97.0155 35.002 95.753 37.4369 96.6367C39.8718 97.525 41.8513 100.226 41.8513 102.656C41.8513 105.087 39.8718 106.349 37.4369 105.466ZM37.4369 94.8196C34.001 93.5706 31.2053 95.3471 31.2053 98.7831C31.2053 101.908 33.523 105.339 36.5261 106.877V111.007L38.3342 111.67V107.535C41.3463 108.189 43.664 106.444 43.664 103.315C43.664 99.8788 40.8683 96.0686 37.4324 94.8151L37.4369 94.8196Z" fill="#13203D" stroke="#D0D7FB" stroke-width="0.225456" stroke-miterlimit="23.8"/>
<path d="M42.7486 95.5856L44.8138 92.8035L43.2446 91.3155L41.1749 94.1021C40.2956 93.3852 39.3442 92.7719 38.3432 92.3075V88.1816L36.526 87.5188V91.6446C35.5069 91.3741 34.533 91.2929 33.6402 91.3786L31.6201 87.0859L30.0419 87.4061L32.071 91.7258C29.7849 92.5555 28.2969 94.7063 28.2969 97.741L30.114 98.4038C30.114 94.3682 33.3967 92.2804 37.4323 93.7504C41.468 95.2204 44.7506 99.6979 44.7506 103.734L46.5678 104.396C46.5678 101.344 45.0572 98.0927 42.7486 95.5901V95.5856Z" fill="#13203D" stroke="#D0D7FB" stroke-width="0.225456" stroke-miterlimit="23.8"/>
<path d="M37.4186 105.478C34.9837 104.595 33.0042 101.889 33.0042 99.4586C33.0042 97.0282 34.9837 95.7657 37.4186 96.6494C39.8535 97.5377 41.833 100.239 41.833 102.669C41.833 105.1 39.8535 106.362 37.4186 105.478ZM37.4186 94.8323C33.9827 93.5832 31.187 95.3598 31.187 98.7958C31.187 101.921 33.5047 105.352 36.5078 106.89V111.02L38.3159 111.683V107.548C41.328 108.202 43.6457 106.457 43.6457 103.327C43.6457 99.8915 40.85 96.0813 37.4141 94.8278L37.4186 94.8323Z" fill="#13203D" stroke="#D0D7FB" stroke-width="0.225456" stroke-miterlimit="23.8"/>
<path d="M42.7305 95.5983L44.7957 92.8162L43.2265 91.3282L41.1568 94.1148C40.2776 93.3979 39.3261 92.7846 38.3251 92.3202V88.1943L36.5079 87.5315V91.6573C35.4889 91.3868 34.5149 91.3056 33.6221 91.3913L31.602 87.0986L30.0238 87.4188L32.0529 91.7385C29.7668 92.5682 28.2788 94.719 28.2788 97.7537L30.096 98.4165C30.096 94.3809 33.3786 92.2931 37.4143 93.7631C41.4499 95.2331 44.7326 99.7106 44.7326 103.746L46.5497 104.409C46.5497 101.356 45.0392 98.1054 42.7305 95.6028V95.5983Z" fill="#13203D" stroke="#D0D7FB" stroke-width="0.225456" stroke-miterlimit="23.8"/>
<path d="M37.401 105.492C34.9661 104.608 32.9866 101.903 32.9866 99.4723C32.9866 97.0419 34.9661 95.7793 37.401 96.6631C39.8359 97.5514 41.8154 100.252 41.8154 102.683C41.8154 105.113 39.8359 106.376 37.401 105.492ZM37.401 94.8459C33.9651 93.5969 31.1694 95.3735 31.1694 98.8095C31.1694 101.934 33.4871 105.366 36.4902 106.903V111.034L38.2983 111.697V107.562C41.3104 108.215 43.6281 106.47 43.6281 103.341C43.6281 99.9052 40.8325 96.095 37.3965 94.8414L37.401 94.8459Z" fill="#13203D" stroke="#D0D7FB" stroke-width="0.225456" stroke-miterlimit="23.8"/>
<path d="M42.7127 95.612L44.7779 92.8299L43.2087 91.3419L41.139 94.1285C40.2597 93.4115 39.3083 92.7983 38.3073 92.3339V88.208L36.4901 87.5452V91.671C35.4711 91.4005 34.4971 91.3193 33.6043 91.405L31.5842 87.1123L30.006 87.4325L32.0351 91.7522C29.749 92.5819 28.261 94.7327 28.261 97.7673L30.0782 98.4302C30.0782 94.3945 33.3608 92.3068 37.3964 93.7768C41.4321 95.2467 44.7147 99.7243 44.7147 103.76L46.5319 104.423C46.5319 101.37 45.0214 98.119 42.7127 95.6165V95.612Z" fill="#13203D" stroke="#D0D7FB" stroke-width="0.225456" stroke-miterlimit="23.8"/>
<path d="M37.3783 105.506C34.9434 104.622 32.9639 101.916 32.9639 99.486C32.9639 97.0556 34.9434 95.793 37.3783 96.6768C39.8132 97.5651 41.7927 100.266 41.7927 102.696C41.7927 105.127 39.8132 106.389 37.3783 105.506ZM37.3783 94.8596C33.9424 93.6106 31.1467 95.3872 31.1467 98.8231C31.1467 101.948 33.4644 105.379 36.4675 106.917V111.047L38.2756 111.71V107.575C41.2877 108.229 43.6054 106.484 43.6054 103.355C43.6054 99.9188 40.8098 96.1086 37.3738 94.8551L37.3783 94.8596Z" fill="#13203D" stroke="#D0D7FB" stroke-width="0.225456" stroke-miterlimit="23.8"/>
<path d="M42.6946 95.6305L44.7598 92.8484L43.1906 91.3604L41.1209 94.147C40.2417 93.4301 39.2902 92.8168 38.2892 92.3524V88.2266L36.472 87.5637V91.6896C35.453 91.419 34.479 91.3379 33.5862 91.4235L31.5661 87.1309L29.9879 87.451L32.017 91.7707C29.7309 92.6004 28.2429 94.7513 28.2429 97.7859L30.0601 98.4487C30.0601 94.4131 33.3427 92.3254 37.3784 93.7953C41.414 95.2653 44.6967 99.7428 44.6967 103.778L46.5138 104.441C46.5138 101.389 45.0033 98.1376 42.6946 95.635V95.6305Z" fill="#13203D" stroke="#D0D7FB" stroke-width="0.225456" stroke-miterlimit="23.8"/>
<path d="M37.3603 105.523C34.9253 104.639 32.9458 101.934 32.9458 99.5035C32.9458 97.0731 34.9253 95.8106 37.3603 96.6944C39.7952 97.5827 41.7747 100.284 41.7747 102.714C41.7747 105.144 39.7952 106.407 37.3603 105.523ZM37.3603 94.8772C33.9243 93.6282 31.1287 95.4048 31.1287 98.8407C31.1287 101.966 33.4463 105.397 36.4494 106.935V111.065L38.2576 111.728V107.593C41.2697 108.247 43.5873 106.502 43.5873 103.372C43.5873 99.9364 40.7917 96.1262 37.3557 94.8727L37.3603 94.8772Z" fill="#13203D" stroke="#D0D7FB" stroke-width="0.225456" stroke-miterlimit="23.8"/>
<path d="M42.6719 95.6432L44.7371 92.8611L43.1679 91.3731L41.0982 94.1597C40.219 93.4428 39.2675 92.8295 38.2665 92.3651V88.2393L36.4493 87.5764V91.7023C35.4303 91.4317 34.4563 91.3506 33.5635 91.4362L31.5434 87.1436L29.9652 87.4637L31.9943 91.7834C29.7082 92.6131 28.2202 94.7639 28.2202 97.7986L30.0374 98.4614C30.0374 94.4258 33.32 92.3381 37.3557 93.808C41.3913 95.278 44.674 99.7555 44.674 103.791L46.4911 104.454C46.4911 101.401 44.9806 98.1503 42.6719 95.6477V95.6432Z" fill="#13203D" stroke="#D0D7FB" stroke-width="0.225456" stroke-miterlimit="23.8"/>
<path d="M37.3422 105.538C34.9073 104.654 32.9278 101.949 32.9278 99.5182C32.9278 97.0878 34.9073 95.8252 37.3422 96.709C39.7771 97.5973 41.7566 100.298 41.7566 102.729C41.7566 105.159 39.7771 106.422 37.3422 105.538ZM37.3422 94.8918C33.9062 93.6428 31.1106 95.4194 31.1106 98.8554C31.1106 101.98 33.4283 105.412 36.4313 106.949V111.08L38.2395 111.742V107.608C41.2516 108.261 43.5693 106.516 43.5693 103.387C43.5693 99.9511 40.7736 96.1409 37.3377 94.8873L37.3422 94.8918Z" fill="#13203D" stroke="#D0D7FB" stroke-width="0.225456" stroke-miterlimit="23.8"/>
<path d="M42.6539 95.6579L44.719 92.8758L43.1499 91.3877L41.0802 94.1744C40.2009 93.4574 39.2495 92.8442 38.2485 92.3798V88.2539L36.4313 87.5911V91.7169C35.4122 91.4464 34.4383 91.3652 33.5454 91.4509L31.5254 87.1582L29.9472 87.4783L31.9763 91.7981C29.6902 92.6278 28.2021 94.7786 28.2021 97.8132L30.0193 98.4761C30.0193 94.4404 33.302 92.3527 37.3376 93.8227C41.3733 95.2926 44.6559 99.7702 44.6559 103.806L46.4731 104.469C46.4731 101.416 44.9625 98.1649 42.6539 95.6624V95.6579Z" fill="#13203D" stroke="#D0D7FB" stroke-width="0.225456" stroke-miterlimit="23.8"/>
<path d="M37.3244 105.551C34.8894 104.667 32.9099 101.961 32.9099 99.5309C32.9099 97.1005 34.8894 95.8379 37.3244 96.7217C39.7593 97.61 41.7388 100.311 41.7388 102.741C41.7388 105.172 39.7593 106.434 37.3244 105.551ZM37.3244 94.9045C33.8884 93.6555 31.0928 95.4321 31.0928 98.8681C31.0928 101.993 33.4105 105.424 36.4135 106.962V111.092L38.2217 111.755V107.62C41.2338 108.274 43.5514 106.529 43.5514 103.4C43.5514 99.9638 40.7558 96.1536 37.3199 94.9L37.3244 94.9045Z" fill="#13203D" stroke="#D0D7FB" stroke-width="0.225456" stroke-miterlimit="23.8"/>
<path d="M42.636 95.6706L44.7012 92.8884L43.132 91.4004L41.0624 94.1871C40.1831 93.4701 39.2317 92.8569 38.2306 92.3925V88.2666L36.4135 87.6038V91.7296C35.3944 91.4591 34.4204 91.3779 33.5276 91.4636L31.5075 87.1709L29.9294 87.491L31.9585 91.8108C29.6723 92.6404 28.1843 94.7913 28.1843 97.8259L30.0015 98.4888C30.0015 94.4531 33.2841 92.3654 37.3198 93.8354C41.3554 95.3053 44.6381 99.7829 44.6381 103.819L46.4552 104.481C46.4552 101.429 44.9447 98.1776 42.636 95.6751V95.6706Z" fill="#13203D" stroke="#D0D7FB" stroke-width="0.225456" stroke-miterlimit="23.8"/>
<path d="M37.3058 105.568C34.8709 104.684 32.8914 101.979 32.8914 99.5485C32.8914 97.1181 34.8709 95.8555 37.3058 96.7393C39.7407 97.6276 41.7202 100.329 41.7202 102.759C41.7202 105.189 39.7407 106.452 37.3058 105.568ZM37.3058 94.9221C33.8699 93.6731 31.0742 95.4497 31.0742 98.8856C31.0742 102.01 33.3919 105.442 36.395 106.979V111.11L38.2031 111.773V107.638C41.2152 108.292 43.5329 106.547 43.5329 103.417C43.5329 99.9813 40.7372 96.1711 37.3013 94.9176L37.3058 94.9221Z" fill="#13203D" stroke="#D0D7FB" stroke-width="0.225456" stroke-miterlimit="23.8"/>
<path d="M42.6177 95.6882L44.6829 92.906L43.1137 91.418L41.044 94.2047C40.1648 93.4877 39.2133 92.8745 38.2123 92.41V88.2842L36.3951 87.6214V91.7472C35.3761 91.4766 34.4021 91.3955 33.5093 91.4812L31.4892 87.1885L29.911 87.5086L31.9401 91.8284C29.654 92.658 28.166 94.8089 28.166 97.8435L29.9832 98.5064C29.9832 94.4707 33.2658 92.383 37.3015 93.8529C41.3371 95.3229 44.6198 99.8005 44.6198 103.836L46.4369 104.499C46.4369 101.446 44.9264 98.1952 42.6177 95.6927V95.6882Z" fill="#13203D" stroke="#D0D7FB" stroke-width="0.225456" stroke-miterlimit="23.8"/>
<path d="M37.2836 105.583C34.8487 104.699 32.8692 101.994 32.8692 99.5631C32.8692 97.1327 34.8487 95.8702 37.2836 96.7539C39.7185 97.6422 41.698 100.343 41.698 102.774C41.698 105.204 39.7185 106.467 37.2836 105.583ZM37.2836 94.9368C33.8477 93.6877 31.052 95.4643 31.052 98.9003C31.052 102.025 33.3697 105.457 36.3728 106.994V111.124L38.1809 111.787V107.652C41.193 108.306 43.5107 106.561 43.5107 103.432C43.5107 99.996 40.715 96.1858 37.2791 94.9323L37.2836 94.9368Z" fill="#13203D" stroke="#D0D7FB" stroke-width="0.225456" stroke-miterlimit="23.8"/>
<path d="M42.5953 95.7028L44.6604 92.9207L43.0913 91.4327L41.0216 94.2193C40.1423 93.5024 39.1909 92.8891 38.1899 92.4247V88.2988L36.3727 87.636V91.7618C35.3536 91.4913 34.3797 91.4101 33.4869 91.4958L31.4668 87.2031L29.8886 87.5233L31.9177 91.843C29.6316 92.6727 28.1436 94.8235 28.1436 97.8582L29.9607 98.521C29.9607 94.4853 33.2434 92.3976 37.279 93.8676C41.3147 95.3376 44.5973 99.8151 44.5973 103.851L46.4145 104.514C46.4145 101.461 44.9039 98.2099 42.5953 95.7073V95.7028Z" fill="#13203D" stroke="#D0D7FB" stroke-width="0.225456" stroke-miterlimit="23.8"/>
<path d="M37.2658 105.596C34.8309 104.713 32.8514 102.007 32.8514 99.5768C32.8514 97.1464 34.8309 95.8838 37.2658 96.7676C39.7007 97.6559 41.6802 100.357 41.6802 102.787C41.6802 105.218 39.7007 106.48 37.2658 105.596ZM37.2658 94.9504C33.8298 93.7014 31.0342 95.478 31.0342 98.9139C31.0342 102.039 33.3519 105.47 36.3549 107.008V111.138L38.1631 111.801V107.666C41.1752 108.32 43.4929 106.575 43.4929 103.446C43.4929 100.01 40.6972 96.1995 37.2613 94.9459L37.2658 94.9504Z" fill="#13203D" stroke="#D0D7FB" stroke-width="0.225456" stroke-miterlimit="23.8"/>
<path d="M42.5774 95.7165L44.6426 92.9344L43.0734 91.4463L41.0038 94.233C40.1245 93.516 39.1731 92.9028 38.172 92.4383V88.3125L36.3549 87.6497V91.7755C35.3358 91.505 34.3618 91.4238 33.469 91.5095L31.4489 87.2168L29.8708 87.5369L31.8999 91.8567C29.6137 92.6864 28.1257 94.8372 28.1257 97.8718L29.9429 98.5347C29.9429 94.499 33.2255 92.4113 37.2612 93.8813C41.2968 95.3512 44.5795 99.8288 44.5795 103.864L46.3967 104.527C46.3967 101.475 44.8861 98.2235 42.5774 95.721V95.7165Z" fill="#13203D" stroke="#D0D7FB" stroke-width="0.225456" stroke-miterlimit="23.8"/>
<path d="M37.2475 105.608C34.8125 104.724 32.833 102.019 32.833 99.5885C32.833 97.1581 34.8125 95.8955 37.2475 96.7793C39.6824 97.6676 41.6619 100.369 41.6619 102.799C41.6619 105.229 39.6824 106.492 37.2475 105.608ZM37.2475 94.9622C33.8115 93.7131 31.0159 95.4897 31.0159 98.9257C31.0159 102.05 33.3336 105.482 36.3366 107.02V111.15L38.1448 111.813V107.678C41.1569 108.332 43.4745 106.587 43.4745 103.457C43.4745 100.021 40.6789 96.2112 37.243 94.9576L37.2475 94.9622Z" fill="#13203D" stroke="#D0D7FB" stroke-width="0.225456" stroke-miterlimit="23.8"/>
<path d="M42.5591 95.7292L44.6243 92.947L43.0551 91.459L40.9854 94.2457C40.1062 93.5287 39.1547 92.9155 38.1537 92.451V88.3252L36.3366 87.6624V91.7882C35.3175 91.5177 34.3435 91.4365 33.4507 91.5222L31.4306 87.2295L29.8524 87.5496L31.8815 91.8694C29.5954 92.699 28.1074 94.8499 28.1074 97.8845L29.9246 98.5474C29.9246 94.5117 33.2072 92.424 37.2429 93.894C41.2785 95.3639 44.5612 99.8415 44.5612 103.877L46.3783 104.54C46.3783 101.487 44.8678 98.2362 42.5591 95.7337V95.7292Z" fill="#13203D" stroke="#D0D7FB" stroke-width="0.225456" stroke-miterlimit="23.8"/>
<path d="M37.2294 105.626C34.7945 104.742 32.815 102.036 32.815 99.6061C32.815 97.1757 34.7945 95.9131 37.2294 96.7969C39.6643 97.6852 41.6438 100.386 41.6438 102.817C41.6438 105.247 39.6643 106.51 37.2294 105.626ZM37.2294 94.9797C33.7935 93.7307 30.9978 95.5073 30.9978 98.9432C30.9978 102.068 33.3155 105.499 36.3186 107.037V111.167L38.1267 111.83V107.695C41.1388 108.349 43.4565 106.604 43.4565 103.475C43.4565 100.039 40.6608 96.2288 37.2249 94.9752L37.2294 94.9797Z" fill="#13203D" stroke="#D0D7FB" stroke-width="0.225456" stroke-miterlimit="23.8"/>
<path d="M42.5413 95.7467L44.6065 92.9646L43.0373 91.4766L40.9676 94.2632C40.0883 93.5463 39.1369 92.9331 38.1359 92.4686V88.3428L36.3187 87.6799V91.8058C35.2997 91.5352 34.3257 91.4541 33.4329 91.5397L31.4128 87.2471L29.8346 87.5672L31.8637 91.8869C29.5776 92.7166 28.0896 94.8675 28.0896 97.9021L29.9068 98.5649C29.9068 94.5293 33.1894 92.4416 37.2251 93.9115C41.2607 95.3815 44.5434 99.8591 44.5434 103.895L46.3605 104.558C46.3605 101.505 44.85 98.2538 42.5413 95.7513V95.7467Z" fill="#13203D" stroke="#D0D7FB" stroke-width="0.225456" stroke-miterlimit="23.8"/>
<path d="M37.2069 105.641C34.772 104.758 32.7925 102.052 32.7925 99.6217C32.7925 97.1913 34.772 95.9287 37.2069 96.8125C39.6419 97.7008 41.6214 100.402 41.6214 102.832C41.6214 105.263 39.6419 106.525 37.2069 105.641ZM37.2069 94.9954C33.771 93.7463 30.9753 95.5229 30.9753 98.9589C30.9753 102.084 33.293 105.515 36.2961 107.053V111.183L38.1042 111.846V107.711C41.1163 108.365 43.434 106.62 43.434 103.491C43.434 100.055 40.6384 96.2444 37.2024 94.9909L37.2069 94.9954Z" fill="#13203D" stroke="#D0D7FB" stroke-width="0.225456" stroke-miterlimit="23.8"/>
<path d="M42.5188 95.7614L44.584 92.9793L43.0148 91.4913L40.9452 94.2779C40.0659 93.5609 39.1145 92.9477 38.1134 92.4833V88.3574L36.2963 87.6946V91.8204C35.2772 91.5499 34.3032 91.4687 33.4104 91.5544L31.3904 87.2617L29.8122 87.5819L31.8413 91.9016C29.5551 92.7313 28.0671 94.8821 28.0671 97.9168L29.8843 98.5796C29.8843 94.5439 33.1669 92.4562 37.2026 93.9262C41.2383 95.3962 44.5209 99.8737 44.5209 103.909L46.3381 104.572C46.3381 101.52 44.8275 98.2685 42.5188 95.7659V95.7614Z" fill="#13203D" stroke="#D0D7FB" stroke-width="0.225456" stroke-miterlimit="23.8"/>
<path d="M37.1889 105.654C34.7539 104.77 32.7744 102.065 32.7744 99.6344C32.7744 97.204 34.7539 95.9414 37.1889 96.8252C39.6238 97.7135 41.6033 100.414 41.6033 102.845C41.6033 105.275 39.6238 106.538 37.1889 105.654ZM37.1889 95.0081C33.7529 93.759 30.9573 95.5356 30.9573 98.9716C30.9573 102.096 33.275 105.528 36.278 107.065V111.196L38.0862 111.859V107.724C41.0983 108.378 43.416 106.633 43.416 103.503C43.416 100.067 40.6203 96.2571 37.1844 95.0035L37.1889 95.0081Z" fill="#13203D" stroke="#D0D7FB" stroke-width="0.225456" stroke-miterlimit="23.8"/>
<path d="M42.5005 95.7741L44.5657 92.992L42.9965 91.504L40.9269 94.2906C40.0476 93.5736 39.0962 92.9604 38.0951 92.496V88.3701L36.278 87.7073V91.8331C35.2589 91.5626 34.2849 91.4814 33.3921 91.5671L31.372 87.2744L29.7939 87.5946L31.823 91.9143C29.5368 92.744 28.0488 94.8948 28.0488 97.9294L29.866 98.5923C29.866 94.5566 33.1486 92.4689 37.1843 93.9389C41.2199 95.4089 44.5026 99.8864 44.5026 103.922L46.3197 104.585C46.3197 101.532 44.8092 98.2812 42.5005 95.7786V95.7741Z" fill="#13203D" stroke="#D0D7FB" stroke-width="0.225456" stroke-miterlimit="23.8"/>
<path d="M37.171 105.669C34.7361 104.785 32.7566 102.079 32.7566 99.649C32.7566 97.2186 34.7361 95.9561 37.171 96.8399C39.606 97.7282 41.5855 100.429 41.5855 102.86C41.5855 105.29 39.606 106.552 37.171 105.669ZM37.171 95.0227C33.7351 93.7737 30.9395 95.5503 30.9395 98.9862C30.9395 102.111 33.2571 105.542 36.2602 107.08V111.21L38.0684 111.873V107.738C41.0804 108.392 43.3981 106.647 43.3981 103.518C43.3981 100.082 40.6025 96.2717 37.1665 95.0182L37.171 95.0227Z" fill="#13203D" stroke="#D0D7FB" stroke-width="0.225456" stroke-miterlimit="23.8"/>
<path d="M42.4827 95.7887L44.5479 93.0066L42.9787 91.5186L40.909 94.3052C40.0298 93.5883 39.0783 92.9751 38.0773 92.5106V88.3848L36.2601 87.7219V91.8478C35.2411 91.5772 34.2671 91.4961 33.3743 91.5817L31.3542 87.2891L29.776 87.6092L31.8051 91.9289C29.519 92.7586 28.031 94.9095 28.031 97.9441L29.8482 98.6069C29.8482 94.5713 33.1308 92.4836 37.1665 93.9535C41.2021 95.4235 44.4848 99.901 44.4848 103.937L46.3019 104.6C46.3019 101.547 44.7914 98.2958 42.4827 95.7932V95.7887Z" fill="#13203D" stroke="#D0D7FB" stroke-width="0.225456" stroke-miterlimit="23.8"/>
<path d="M37.153 105.686C34.7181 104.803 32.7386 102.097 32.7386 99.6666C32.7386 97.2362 34.7181 95.9737 37.153 96.8575C39.5879 97.7457 41.5674 100.447 41.5674 102.877C41.5674 105.308 39.5879 106.57 37.153 105.686ZM37.153 95.0403C33.717 93.7913 30.9214 95.5678 30.9214 99.0038C30.9214 102.129 33.2391 105.56 36.2421 107.098V111.228L38.0503 111.891V107.756C41.0624 108.41 43.3801 106.665 43.3801 103.535C43.3801 100.1 40.5844 96.2893 37.1485 95.0358L37.153 95.0403Z" fill="#13203D" stroke="#D0D7FB" stroke-width="0.225456" stroke-miterlimit="23.8"/>
<path d="M42.4646 95.8063L44.5298 93.0242L42.9606 91.5362L40.891 94.3228C40.0117 93.6059 39.0603 92.9926 38.0592 92.5282V88.4024L36.2421 87.7395V91.8654C35.223 91.5948 34.249 91.5136 33.3562 91.5993L31.3362 87.3066L29.758 87.6268L31.7871 91.9465C29.5009 92.7762 28.0129 94.927 28.0129 97.9617L29.8301 98.6245C29.8301 94.5889 33.1127 92.5011 37.1484 93.9711C41.1841 95.4411 44.4667 99.9186 44.4667 103.954L46.2839 104.617C46.2839 101.564 44.7733 98.3134 42.4646 95.8108V95.8063Z" fill="#13203D" stroke="#D0D7FB" stroke-width="0.225456" stroke-miterlimit="23.8"/>
<path d="M37.1303 105.699C34.6954 104.815 32.7159 102.11 32.7159 99.6793C32.7159 97.2489 34.6954 95.9864 37.1303 96.8701C39.5652 97.7584 41.5447 100.459 41.5447 102.89C41.5447 105.32 39.5652 106.583 37.1303 105.699ZM37.1303 95.053C33.6943 93.804 30.8987 95.5805 30.8987 99.0165C30.8987 102.141 33.2164 105.573 36.2194 107.11V111.241L38.0276 111.904V107.769C41.0397 108.422 43.3574 106.677 43.3574 103.548C43.3574 100.112 40.5617 96.302 37.1258 95.0485L37.1303 95.053Z" fill="#13203D" stroke="#D0D7FB" stroke-width="0.225456" stroke-miterlimit="23.8"/>
<path d="M42.4466 95.819L44.5118 93.0369L42.9426 91.5489L40.8729 94.3355C39.9936 93.6186 39.0422 93.0053 38.0412 92.5409V88.415L36.224 87.7522V91.878C35.2049 91.6075 34.231 91.5263 33.3382 91.612L31.3181 87.3193L29.7399 87.6395L31.769 91.9592C29.4829 92.7889 27.9949 94.9397 27.9949 97.9744L29.812 98.6372C29.812 94.6015 33.0947 92.5138 37.1303 93.9838C41.166 95.4538 44.4486 99.9313 44.4486 103.967L46.2658 104.63C46.2658 101.577 44.7552 98.3261 42.4466 95.8235V95.819Z" fill="#13203D" stroke="#D0D7FB" stroke-width="0.225456" stroke-miterlimit="23.8"/>
<path d="M37.1122 105.714C34.6773 104.83 32.6978 102.124 32.6978 99.694C32.6978 97.2636 34.6773 96.001 37.1122 96.8848C39.5471 97.7731 41.5266 100.474 41.5266 102.904C41.5266 105.335 39.5471 106.597 37.1122 105.714ZM37.1122 95.0676C33.6763 93.8186 30.8806 95.5952 30.8806 99.0311C30.8806 102.156 33.1983 105.587 36.2014 107.125V111.255L38.0095 111.918V107.783C41.0216 108.437 43.3393 106.692 43.3393 103.563C43.3393 100.127 40.5436 96.3167 37.1077 95.0631L37.1122 95.0676Z" fill="#13203D" stroke="#D0D7FB" stroke-width="0.225456" stroke-miterlimit="23.8"/>
<path d="M42.4239 95.8337L44.489 93.0515L42.9199 91.5635L40.8502 94.3502C39.9709 93.6332 39.0195 93.02 38.0185 92.5555V88.4297L36.2013 87.7669V91.8927C35.1822 91.6221 34.2083 91.541 33.3155 91.6267L31.2954 87.334L29.7172 87.6541L31.7463 91.9739C29.4602 92.8035 27.9722 94.9544 27.9722 97.989L29.7893 98.6519C29.7893 94.6162 33.072 92.5285 37.1076 93.9985C41.1433 95.4684 44.4259 99.946 44.4259 103.982L46.2431 104.644C46.2431 101.592 44.7325 98.3407 42.4239 95.8382V95.8337Z" fill="#13203D" stroke="#D0D7FB" stroke-width="0.225456" stroke-miterlimit="23.8"/>
<path d="M37.0941 105.726C34.6592 104.843 32.6797 102.137 32.6797 99.7067C32.6797 97.2763 34.6592 96.0137 37.0941 96.8975C39.5291 97.7858 41.5086 100.487 41.5086 102.917C41.5086 105.348 39.5291 106.61 37.0941 105.726ZM37.0941 95.0803C33.6582 93.8313 30.8625 95.6079 30.8625 99.0438C30.8625 102.169 33.1802 105.6 36.1833 107.138V111.268L37.9915 111.931V107.796C41.0035 108.45 43.3212 106.705 43.3212 103.575C43.3212 100.14 40.5256 96.3293 37.0896 95.0758L37.0941 95.0803Z" fill="#13203D" stroke="#D0D7FB" stroke-width="0.225456" stroke-miterlimit="23.8"/>
<path d="M42.4058 95.8512L44.471 93.0691L42.9018 91.5811L40.8321 94.3677C39.9528 93.6508 39.0014 93.0376 38.0004 92.5731V88.4473L36.1832 87.7844V91.9103C35.1642 91.6397 34.1902 91.5586 33.2974 91.6442L31.2773 87.3516L29.6991 87.6717L31.7282 91.9914C29.4421 92.8211 27.9541 94.972 27.9541 98.0066L29.7713 98.6694C29.7713 94.6338 33.0539 92.5461 37.0896 94.016C41.1252 95.486 44.4079 99.9635 44.4079 103.999L46.225 104.662C46.225 101.609 44.7145 98.3583 42.4058 95.8557V95.8512Z" fill="#13203D" stroke="#D0D7FB" stroke-width="0.225456" stroke-miterlimit="23.8"/>
<path d="M37.0763 105.745C34.6414 104.861 32.6619 102.156 32.6619 99.7252C32.6619 97.2948 34.6414 96.0323 37.0763 96.916C39.5112 97.8043 41.4907 100.505 41.4907 102.936C41.4907 105.366 39.5112 106.629 37.0763 105.745ZM37.0763 95.0989C33.6404 93.8499 30.8447 95.6264 30.8447 99.0624C30.8447 102.187 33.1624 105.619 36.1655 107.156V111.287L37.9736 111.949V107.815C40.9857 108.468 43.3034 106.723 43.3034 103.594C43.3034 100.158 40.5078 96.3479 37.0718 95.0944L37.0763 95.0989Z" fill="#13203D" stroke="#D0D7FB" stroke-width="0.225456" stroke-miterlimit="23.8"/>
<path d="M42.388 95.8649L44.4532 93.0828L42.884 91.5948L40.8143 94.3814C39.935 93.6645 38.9836 93.0512 37.9826 92.5868V88.461L36.1654 87.7981V91.9239C35.1463 91.6534 34.1724 91.5722 33.2796 91.6579L31.2595 87.3652L29.6813 87.6854L31.7104 92.0051C29.4243 92.8348 27.9363 94.9856 27.9363 98.0203L29.7535 98.6831C29.7535 94.6475 33.0361 92.5597 37.0717 94.0297C41.1074 95.4997 44.39 99.9772 44.39 104.013L46.2072 104.676C46.2072 101.623 44.6966 98.372 42.388 95.8694V95.8649Z" fill="#13203D" stroke="#D0D7FB" stroke-width="0.225456" stroke-miterlimit="23.8"/>
<path d="M37.0536 105.759C34.6187 104.875 32.6392 102.169 32.6392 99.7389C32.6392 97.3085 34.6187 96.0459 37.0536 96.9297C39.4885 97.818 41.468 100.519 41.468 102.949C41.468 105.38 39.4885 106.642 37.0536 105.759ZM37.0536 95.1125C33.6177 93.8635 30.822 95.6401 30.822 99.0761C30.822 102.201 33.1397 105.632 36.1428 107.17V111.3L37.9509 111.963V107.828C40.963 108.482 43.2807 106.737 43.2807 103.608C43.2807 100.172 40.485 96.3616 37.0491 95.108L37.0536 95.1125Z" fill="#13203D" stroke="#D0D7FB" stroke-width="0.225456" stroke-miterlimit="23.8"/>
<path d="M42.3699 95.8786L44.4351 93.0965L42.8659 91.6085L40.7962 94.3951C39.917 93.6781 38.9655 93.0649 37.9645 92.6005V88.4746L36.1473 87.8118V91.9376C35.1283 91.6671 34.1543 91.5859 33.2615 91.6716L31.2414 87.3789L29.6632 87.6991L31.6923 92.0188C29.4062 92.8485 27.9182 94.9993 27.9182 98.0339L29.7354 98.6968C29.7354 94.6611 33.018 92.5734 37.0537 94.0434C41.0893 95.5133 44.372 99.9909 44.372 104.027L46.1891 104.689C46.1891 101.637 44.6786 98.3856 42.3699 95.8831V95.8786Z" fill="#13203D" stroke="#D0D7FB" stroke-width="0.225456" stroke-miterlimit="23.8"/>
<path d="M37.0355 105.771C34.6006 104.887 32.6211 102.182 32.6211 99.7516C32.6211 97.3212 34.6006 96.0586 37.0355 96.9424C39.4705 97.8307 41.45 100.532 41.45 102.962C41.45 105.392 39.4705 106.655 37.0355 105.771ZM37.0355 95.1252C33.5996 93.8762 30.804 95.6528 30.804 99.0887C30.804 102.214 33.1216 105.645 36.1247 107.183V111.313L37.9329 111.976V107.841C40.9449 108.495 43.2626 106.75 43.2626 103.62C43.2626 100.184 40.467 96.3743 37.031 95.1207L37.0355 95.1252Z" fill="#13203D" stroke="#D0D7FB" stroke-width="0.225456" stroke-miterlimit="23.8"/>
<path d="M42.3472 95.8913L44.4124 93.1092L42.8432 91.6212L40.7735 94.4078C39.8943 93.6908 38.9428 93.0776 37.9418 92.6132V88.4873L36.1246 87.8245V91.9503C35.1056 91.6798 34.1316 91.5986 33.2388 91.6843L31.2187 87.3916L29.6405 87.7118L31.6696 92.0315C29.3835 92.8612 27.8955 95.012 27.8955 98.0466L29.7127 98.7095C29.7127 94.6738 32.9953 92.5861 37.031 94.0561C41.0666 95.526 44.3493 100.004 44.3493 104.039L46.1664 104.702C46.1664 101.649 44.6559 98.3983 42.3472 95.8958V95.8913Z" fill="#13203D" stroke="#D0D7FB" stroke-width="0.225456" stroke-miterlimit="23.8"/>
<path d="M37.0175 105.789C34.5826 104.905 32.6031 102.2 32.6031 99.7692C32.6031 97.3388 34.5826 96.0762 37.0175 96.96C39.4524 97.8483 41.4319 100.549 41.4319 102.98C41.4319 105.41 39.4524 106.673 37.0175 105.789ZM37.0175 95.1428C33.5815 93.8938 30.7859 95.6704 30.7859 99.1063C30.7859 102.231 33.1036 105.663 36.1066 107.2V111.331L37.9148 111.993V107.859C40.9269 108.512 43.2446 106.767 43.2446 103.638C43.2446 100.202 40.4489 96.3918 37.013 95.1383L37.0175 95.1428Z" fill="#13203D" stroke="#D0D7FB" stroke-width="0.225456" stroke-miterlimit="23.8"/>
<path d="M42.3294 95.9098L44.3946 93.1277L42.8254 91.6397L40.7557 94.4263C39.8764 93.7094 38.925 93.0961 37.924 92.6317V88.5059L36.1068 87.843V91.9689C35.0878 91.6983 34.1138 91.6172 33.221 91.7028L31.2009 87.4102L29.6227 87.7303L31.6518 92.05C29.3657 92.8797 27.8777 95.0306 27.8777 98.0652L29.6949 98.728C29.6949 94.6924 32.9775 92.6047 37.0131 94.0746C41.0488 95.5446 44.3314 100.022 44.3314 104.058L46.1486 104.721C46.1486 101.668 44.6381 98.4169 42.3294 95.9143V95.9098Z" fill="#13203D" stroke="#D0D7FB" stroke-width="0.225456" stroke-miterlimit="23.8"/>
<path d="M36.9997 105.803C34.5647 104.92 32.5852 102.214 32.5852 99.7838C32.5852 97.3534 34.5647 96.0909 36.9997 96.9746C39.4346 97.8629 41.4141 100.564 41.4141 102.994C41.4141 105.425 39.4346 106.687 36.9997 105.803ZM36.9997 95.1575C33.5637 93.9084 30.7681 95.685 30.7681 99.121C30.7681 102.246 33.0858 105.677 36.0888 107.215V111.345L37.897 112.008V107.873C40.9091 108.527 43.2267 106.782 43.2267 103.653C43.2267 100.217 40.4311 96.4065 36.9951 95.153L36.9997 95.1575Z" fill="#13203D" stroke="#D0D7FB" stroke-width="0.225456" stroke-miterlimit="23.8"/>
<path d="M42.3113 95.9235L44.3765 93.1414L42.8073 91.6534L40.7376 94.44C39.8584 93.7231 38.9069 93.1098 37.9059 92.6454V88.5195L36.0887 87.8567V91.9825C35.0697 91.712 34.0957 91.6308 33.2029 91.7165L31.1828 87.4238L29.6046 87.744L31.6337 92.0637C29.3476 92.8934 27.8596 95.0442 27.8596 98.0789L29.6768 98.7417C29.6768 94.706 32.9594 92.6183 36.9951 94.0883C41.0307 95.5583 44.3134 100.036 44.3134 104.071L46.1305 104.734C46.1305 101.682 44.62 98.4306 42.3113 95.928V95.9235Z" fill="#13203D" stroke="#D0D7FB" stroke-width="0.225456" stroke-miterlimit="23.8"/>
<path d="M36.977 105.816C34.542 104.932 32.5625 102.227 32.5625 99.7965C32.5625 97.3661 34.542 96.1035 36.977 96.9873C39.4119 97.8756 41.3914 100.577 41.3914 103.007C41.3914 105.437 39.4119 106.7 36.977 105.816ZM36.977 95.1702C33.541 93.9211 30.7454 95.6977 30.7454 99.1337C30.7454 102.258 33.063 105.69 36.0661 107.228V111.358L37.8743 112.021V107.886C40.8864 108.54 43.204 106.795 43.204 103.665C43.204 100.229 40.4084 96.4192 36.9724 95.1657L36.977 95.1702Z" fill="#13203D" stroke="#D0D7FB" stroke-width="0.225456" stroke-miterlimit="23.8"/>
<path d="M42.2933 95.9372L44.3584 93.1551L42.7893 91.667L40.7196 94.4537C39.8403 93.7367 38.8889 93.1235 37.8879 92.6591V88.5332L36.0707 87.8704V91.9962C35.0516 91.7257 34.0777 91.6445 33.1848 91.7302L31.1648 87.4375L29.5866 87.7576L31.6157 92.0774C29.3296 92.907 27.8416 95.0579 27.8416 98.0925L29.6587 98.7554C29.6587 94.7197 32.9414 92.632 36.977 94.102C41.0127 95.5719 44.2953 100.049 44.2953 104.085L46.1125 104.748C46.1125 101.695 44.6019 98.4442 42.2933 95.9417V95.9372Z" fill="#13203D" stroke="#D0D7FB" stroke-width="0.225456" stroke-miterlimit="23.8"/>
<path d="M36.9591 105.829C34.5242 104.945 32.5447 102.24 32.5447 99.8092C32.5447 97.3788 34.5242 96.1163 36.9591 97C39.3941 97.8883 41.3735 100.589 41.3735 103.02C41.3735 105.45 39.3941 106.713 36.9591 105.829ZM36.9591 95.1829C33.5232 93.9338 30.7275 95.7104 30.7275 99.1464C30.7275 102.271 33.0452 105.703 36.0483 107.24V111.371L37.8564 112.033V107.899C40.8685 108.552 43.1862 106.807 43.1862 103.678C43.1862 100.242 40.3906 96.4319 36.9546 95.1784L36.9591 95.1829Z" fill="#13203D" stroke="#D0D7FB" stroke-width="0.225456" stroke-miterlimit="23.8"/>
<path d="M42.2706 95.9499L44.3357 93.1678L42.7666 91.6797L40.6969 94.4664C39.8176 93.7494 38.8662 93.1362 37.8651 92.6717V88.5459L36.048 87.8831V92.0089C35.0289 91.7384 34.0549 91.6572 33.1621 91.7429L31.1421 87.4502L29.5639 87.7703L31.593 92.0901C29.3069 92.9198 27.8188 95.0706 27.8188 98.1052L29.636 98.7681C29.636 94.7324 32.9187 92.6447 36.9543 94.1147C40.99 95.5846 44.2726 100.062 44.2726 104.098L46.0898 104.761C46.0898 101.708 44.5792 98.4569 42.2706 95.9544V95.9499Z" fill="#13203D" stroke="#D0D7FB" stroke-width="0.225456" stroke-miterlimit="23.8"/>
<path d="M36.9408 105.849C34.5059 104.966 32.5264 102.26 32.5264 99.8297C32.5264 97.3993 34.5059 96.1368 36.9408 97.0205C39.3757 97.9088 41.3552 100.61 41.3552 103.04C41.3552 105.471 39.3757 106.733 36.9408 105.849ZM36.9408 95.2034C33.5049 93.9543 30.7092 95.7309 30.7092 99.1669C30.7092 102.292 33.0269 105.723 36.03 107.261V111.391L37.8381 112.054V107.919C40.8502 108.573 43.1679 106.828 43.1679 103.699C43.1679 100.263 40.3723 96.4524 36.9363 95.1989L36.9408 95.2034Z" fill="#13203D" stroke="#D0D7FB" stroke-width="0.225456" stroke-miterlimit="23.8"/>
<path d="M42.2525 95.9694L44.3177 93.1873L42.7485 91.6993L40.6788 94.4859C39.7995 93.769 38.8481 93.1557 37.8471 92.6913V88.5654L36.0299 87.9026V92.0284C35.0108 91.7579 34.0369 91.6767 33.1441 91.7624L31.124 87.4697L29.5458 87.7899L31.5749 92.1096C29.2888 92.9393 27.8008 95.0901 27.8008 98.1248L29.618 98.7876C29.618 94.7519 32.9006 92.6642 36.9362 94.1342C40.9719 95.6042 44.2545 100.082 44.2545 104.117L46.0717 104.78C46.0717 101.728 44.5611 98.4765 42.2525 95.9739V95.9694Z" fill="#13203D" stroke="#D0D7FB" stroke-width="0.225456" stroke-miterlimit="23.8"/>
<path d="M36.9228 105.862C34.4878 104.978 32.5083 102.273 32.5083 99.8424C32.5083 97.412 34.4878 96.1494 36.9228 97.0332C39.3577 97.9215 41.3372 100.622 41.3372 103.053C41.3372 105.483 39.3577 106.746 36.9228 105.862ZM36.9228 95.2161C33.4868 93.967 30.6912 95.7436 30.6912 99.1796C30.6912 102.304 33.0088 105.736 36.0119 107.273V111.404L37.8201 112.067V107.932C40.8322 108.586 43.1498 106.841 43.1498 103.711C43.1498 100.275 40.3542 96.4651 36.9182 95.2116L36.9228 95.2161Z" fill="#13203D" stroke="#D0D7FB" stroke-width="0.225456" stroke-miterlimit="23.8"/>
<path d="M42.2347 95.9821L44.2998 93.2L42.7307 91.712L40.661 94.4986C39.7817 93.7817 38.8303 93.1684 37.8293 92.704V88.5781L36.0121 87.9153V92.0411C34.993 91.7706 34.0191 91.6894 33.1263 91.7751L31.1062 87.4824L29.528 87.8026L31.5571 92.1223C29.271 92.952 27.783 95.1028 27.783 98.1374L29.6001 98.8003C29.6001 94.7646 32.8828 92.6769 36.9184 94.1469C40.9541 95.6169 44.2367 100.094 44.2367 104.13L46.0539 104.793C46.0539 101.74 44.5433 98.4892 42.2347 95.9866V95.9821Z" fill="#13203D" stroke="#D0D7FB" stroke-width="0.225456" stroke-miterlimit="23.8"/>
<path d="M36.9003 105.876C34.4654 104.992 32.4859 102.286 32.4859 99.8561C32.4859 97.4257 34.4654 96.1631 36.9003 97.0469C39.3352 97.9352 41.3147 100.636 41.3147 103.067C41.3147 105.497 39.3352 106.76 36.9003 105.876ZM36.9003 95.2297C33.4644 93.9807 30.6687 95.7573 30.6687 99.1932C30.6687 102.318 32.9864 105.749 35.9895 107.287V111.417L37.7976 112.08V107.945C40.8097 108.599 43.1274 106.854 43.1274 103.725C43.1274 100.289 40.3317 96.4788 36.8958 95.2252L36.9003 95.2297Z" fill="#13203D" stroke="#D0D7FB" stroke-width="0.225456" stroke-miterlimit="23.8"/>
<path d="M42.2166 95.9958L44.2818 93.2136L42.7126 91.7256L40.6429 94.5123C39.7636 93.7953 38.8122 93.1821 37.8112 92.7176V88.5918L35.994 87.929V92.0548C34.975 91.7843 34.001 91.7031 33.1082 91.7888L31.0881 87.4961L29.5099 87.8162L31.539 92.136C29.2529 92.9656 27.7649 95.1165 27.7649 98.1511L29.5821 98.814C29.5821 94.7783 32.8647 92.6906 36.9004 94.1606C40.936 95.6305 44.2186 100.108 44.2186 104.144L46.0358 104.807C46.0358 101.754 44.5253 98.5028 42.2166 96.0003V95.9958Z" fill="#13203D" stroke="#D0D7FB" stroke-width="0.225456" stroke-miterlimit="23.8"/>
<path d="M36.8825 105.889C34.4476 105.006 32.4681 102.3 32.4681 99.8698C32.4681 97.4393 34.4476 96.1768 36.8825 97.0606C39.3174 97.9489 41.2969 100.65 41.2969 103.08C41.2969 105.511 39.3174 106.773 36.8825 105.889ZM36.8825 95.2434C33.4465 93.9944 30.6509 95.771 30.6509 99.2069C30.6509 102.332 32.9686 105.763 35.9716 107.301V111.431L37.7798 112.094V107.959C40.7919 108.613 43.1096 106.868 43.1096 103.739C43.1096 100.303 40.3139 96.4924 36.878 95.2389L36.8825 95.2434Z" fill="#13203D" stroke="#D0D7FB" stroke-width="0.225456" stroke-miterlimit="23.8"/>
<path d="M42.1941 96.0094L44.2593 93.2273L42.6901 91.7393L40.6205 94.5259C39.7412 93.809 38.7898 93.1958 37.7887 92.7313V88.6055L35.9716 87.9426V92.0685C34.9525 91.7979 33.9785 91.7168 33.0857 91.8024L31.0656 87.5098L29.4875 87.8299L31.5166 92.1496C29.2304 92.9793 27.7424 95.1302 27.7424 98.1648L29.5596 98.8276C29.5596 94.792 32.8422 92.7043 36.8779 94.1742C40.9135 95.6442 44.1962 100.122 44.1962 104.157L46.0134 104.82C46.0134 101.768 44.5028 98.5165 42.1941 96.014V96.0094Z" fill="#13203D" stroke="#D0D7FB" stroke-width="0.225456" stroke-miterlimit="23.8"/>
<path d="M36.8639 105.907C34.429 105.023 32.4495 102.318 32.4495 99.8873C32.4495 97.4569 34.429 96.1944 36.8639 97.0782C39.2988 97.9665 41.2783 100.667 41.2783 103.098C41.2783 105.528 39.2988 106.791 36.8639 105.907ZM36.8639 95.261C33.428 94.012 30.6323 95.7885 30.6323 99.2245C30.6323 102.349 32.95 105.781 35.9531 107.318V111.449L37.7612 112.112V107.977C40.7733 108.631 43.091 106.885 43.091 103.756C43.091 100.32 40.2954 96.51 36.8594 95.2565L36.8639 95.261Z" fill="#13203D" stroke="#D0D7FB" stroke-width="0.225456" stroke-miterlimit="23.8"/>
<path d="M42.1758 96.027L44.241 93.2449L42.6718 91.7569L40.6021 94.5435C39.7229 93.8266 38.7714 93.2133 37.7704 92.7489V88.6231L35.9532 87.9602V92.0861C34.9342 91.8155 33.9602 91.7343 33.0674 91.82L31.0473 87.5273L29.4691 87.8475L31.4982 92.1672C29.2121 92.9969 27.7241 95.1477 27.7241 98.1824L29.5413 98.8452C29.5413 94.8096 32.8239 92.7218 36.8596 94.1918C40.8952 95.6618 44.1779 100.139 44.1779 104.175L45.995 104.838C45.995 101.785 44.4845 98.5341 42.1758 96.0315V96.027Z" fill="#13203D" stroke="#D0D7FB" stroke-width="0.225456" stroke-miterlimit="23.8"/>
<path d="M36.8463 105.921C34.4114 105.037 32.4319 102.331 32.4319 99.901C32.4319 97.4706 34.4114 96.208 36.8463 97.0918C39.2813 97.9801 41.2608 100.681 41.2608 103.111C41.2608 105.542 39.2813 106.804 36.8463 105.921ZM36.8463 95.2747C33.4104 94.0256 30.6147 95.8022 30.6147 99.2382C30.6147 102.363 32.9324 105.794 35.9355 107.332V111.462L37.7437 112.125V107.99C40.7557 108.644 43.0734 106.899 43.0734 103.77C43.0734 100.334 40.2778 96.5237 36.8418 95.2701L36.8463 95.2747Z" fill="#13203D" stroke="#D0D7FB" stroke-width="0.225456" stroke-miterlimit="23.8"/>
<path d="M42.158 96.0407L44.2232 93.2586L42.654 91.7706L40.5843 94.5572C39.705 93.8402 38.7536 93.227 37.7526 92.7626V88.6367L35.9354 87.9739V92.0997C34.9164 91.8292 33.9424 91.748 33.0496 91.8337L31.0295 87.541L29.4513 87.8612L31.4804 92.1809C29.1943 93.0106 27.7063 95.1614 27.7063 98.196L29.5235 98.8589C29.5235 94.8232 32.8061 92.7355 36.8418 94.2055C40.8774 95.6755 44.16 100.153 44.16 104.189L45.9772 104.851C45.9772 101.799 44.4667 98.5478 42.158 96.0452V96.0407Z" fill="#13203D" stroke="#D0D7FB" stroke-width="0.225456" stroke-miterlimit="23.8"/>
<path d="M36.8236 105.934C34.3887 105.051 32.4092 102.345 32.4092 99.9147C32.4092 97.4843 34.3887 96.2217 36.8236 97.1055C39.2586 97.9938 41.2381 100.695 41.2381 103.125C41.2381 105.556 39.2586 106.818 36.8236 105.934ZM36.8236 95.2883C33.3877 94.0393 30.592 95.8159 30.592 99.2518C30.592 102.377 32.9097 105.808 35.9128 107.346V111.476L37.7209 112.139V108.004C40.733 108.658 43.0507 106.913 43.0507 103.783C43.0507 100.348 40.2551 96.5373 36.8191 95.2838L36.8236 95.2883Z" fill="#13203D" stroke="#D0D7FB" stroke-width="0.225456" stroke-miterlimit="23.8"/>
<path d="M42.1399 96.0544L44.2051 93.2722L42.6359 91.7842L40.5663 94.5709C39.687 93.8539 38.7356 93.2407 37.7345 92.7762V88.6504L35.9174 87.9876V92.1134C34.8983 91.8429 33.9243 91.7617 33.0315 91.8474L31.0114 87.5547L29.4333 87.8748L31.4624 92.1946C29.1762 93.0242 27.6882 95.1751 27.6882 98.2097L29.5054 98.8726C29.5054 94.8369 32.788 92.7492 36.8237 94.2192C40.8593 95.6891 44.142 100.167 44.142 104.202L45.9592 104.865C45.9592 101.812 44.4486 98.5614 42.1399 96.0589V96.0544Z" fill="#13203D" stroke="#D0D7FB" stroke-width="0.225456" stroke-miterlimit="23.8"/>
</svg>
