<svg width="86" height="86" viewBox="0 0 86 86" fill="none" xmlns="http://www.w3.org/2000/svg">
<rect x="0.0917969" y="0.0673828" width="85.8164" height="85.8164" rx="42.9082" fill="#3F4973"/>
<path d="M55 39.1409V26.8105C55 26.6331 54.9528 26.4589 54.8632 26.3057C54.7736 26.1525 54.6449 26.026 54.4903 25.939L43.4903 19.7515C43.3406 19.6673 43.1717 19.623 43 19.623C42.8283 19.623 42.6594 19.6673 42.5097 19.7515L31.5097 25.939C31.3551 26.026 31.2264 26.1525 31.1368 26.3057C31.0472 26.4589 31 26.6331 31 26.8105V39.1409C31 39.3183 31.0472 39.4925 31.1368 39.6457C31.2264 39.7989 31.3551 39.9254 31.5097 40.0124L42.5097 46.1999C42.6594 46.2841 42.8283 46.3284 43 46.3284C43.1717 46.3284 43.3406 46.2841 43.4903 46.1999L54.4903 40.0124C54.6449 39.9254 54.7736 39.7989 54.8632 39.6457C54.9528 39.4925 55 39.3183 55 39.1409Z" stroke="#13203D" stroke-width="1.7" stroke-linecap="round" stroke-linejoin="round"/>
<path d="M54.8621 26.3039L43.1186 32.9756L31.1384 26.3027" stroke="#13203D" stroke-width="1.7" stroke-linecap="round" stroke-linejoin="round"/>
<path d="M43.1186 32.9756L43.0012 46.3282" stroke="#13203D" stroke-width="1.7" stroke-linecap="round" stroke-linejoin="round"/>
<path d="M67 59.1409V46.8105C67 46.6331 66.9528 46.4589 66.8632 46.3057C66.7736 46.1525 66.6449 46.026 66.4903 45.939L55.4903 39.7515C55.3406 39.6673 55.1717 39.623 55 39.623C54.8283 39.623 54.6594 39.6673 54.5097 39.7515L43.5097 45.939C43.3551 46.026 43.2264 46.1525 43.1368 46.3057C43.0472 46.4589 43 46.6331 43 46.8105V59.1409C43 59.3183 43.0472 59.4925 43.1368 59.6457C43.2264 59.7989 43.3551 59.9254 43.5097 60.0124L54.5097 66.1999C54.6594 66.2841 54.8283 66.3284 55 66.3284C55.1717 66.3284 55.3406 66.2841 55.4903 66.1999L66.4903 60.0124C66.6449 59.9254 66.7736 59.7989 66.8632 59.6457C66.9528 59.4925 67 59.3183 67 59.1409Z" stroke="#13203D" stroke-width="1.7" stroke-linecap="round" stroke-linejoin="round"/>
<path d="M66.8621 46.3039L55.1186 52.9756L43.1384 46.3027" stroke="#13203D" stroke-width="1.7" stroke-linecap="round" stroke-linejoin="round"/>
<path d="M55.1186 52.9756L55.0012 66.3282" stroke="#13203D" stroke-width="1.7" stroke-linecap="round" stroke-linejoin="round"/>
<path d="M43 59.1409V46.8105C43 46.6331 42.9528 46.4589 42.8632 46.3057C42.7736 46.1525 42.6449 46.026 42.4903 45.939L31.4903 39.7515C31.3406 39.6673 31.1717 39.623 31 39.623C30.8283 39.623 30.6594 39.6673 30.5097 39.7515L19.5097 45.939C19.3551 46.026 19.2264 46.1525 19.1368 46.3057C19.0472 46.4589 19 46.6331 19 46.8105V59.1409C19 59.3183 19.0472 59.4925 19.1368 59.6457C19.2264 59.7989 19.3551 59.9254 19.5097 60.0124L30.5097 66.1999C30.6594 66.2841 30.8283 66.3284 31 66.3284C31.1717 66.3284 31.3406 66.2841 31.4903 66.1999L42.4903 60.0124C42.6449 59.9254 42.7736 59.7989 42.8632 59.6457C42.9528 59.4925 43 59.3183 43 59.1409Z" stroke="#13203D" stroke-width="1.7" stroke-linecap="round" stroke-linejoin="round"/>
<path d="M42.8621 46.3039L31.1186 52.9756L19.1384 46.3027" stroke="#13203D" stroke-width="1.7" stroke-linecap="round" stroke-linejoin="round"/>
<path d="M31.1186 52.9756L31.0012 66.3282" stroke="#13203D" stroke-width="1.7" stroke-linecap="round" stroke-linejoin="round"/>
</svg>
