<svg width="131" height="131" viewBox="0 0 131 131" fill="none" xmlns="http://www.w3.org/2000/svg">
<path d="M14.0401 0.457031H130.203V116.62C130.203 123.84 124.342 129.7 117.122 129.7H0.959473V13.5377C0.959473 6.31715 6.81959 0.457031 14.0401 0.457031Z" stroke="#A0F2E0" stroke-width="0.7" stroke-miterlimit="10"/>
<g clip-path="url(#clip0_96_4479)">
<g filter="url(#filter0_i_96_4479)">
<path d="M65.5809 98.2038C83.8755 98.2038 98.7063 83.3731 98.7063 65.0785C98.7063 46.7839 83.8755 31.9531 65.5809 31.9531C47.2863 31.9531 32.4556 46.7839 32.4556 65.0785C32.4556 83.3731 47.2863 98.2038 65.5809 98.2038Z" fill="#A0F2E0"/>
<path d="M87.9405 83.2973L67.2583 46.8594L46.5751 83.2973H87.9405ZM52.7239 63.9396L62.2268 46.8594H43.2212L52.7239 63.9396ZM79.4937 78.474H55.0224L67.2583 56.9168L79.4937 78.474Z" fill="#13203D"/>
</g>
</g>
<defs>
<filter id="filter0_i_96_4479" x="32.4556" y="31.9531" width="66.2507" height="66.251" filterUnits="userSpaceOnUse" color-interpolation-filters="sRGB">
<feFlood flood-opacity="0" result="BackgroundImageFix"/>
<feBlend mode="normal" in="SourceGraphic" in2="BackgroundImageFix" result="shape"/>
<feColorMatrix in="SourceAlpha" type="matrix" values="0 0 0 0 0 0 0 0 0 0 0 0 0 0 0 0 0 0 127 0" result="hardAlpha"/>
<feOffset/>
<feGaussianBlur stdDeviation="2.81216"/>
<feComposite in2="hardAlpha" operator="arithmetic" k2="-1" k3="1"/>
<feColorMatrix type="matrix" values="0 0 0 0 0 0 0 0 0 0 0 0 0 0 0 0 0 0 0.1 0"/>
<feBlend mode="normal" in2="shape" result="effect1_innerShadow_96_4479"/>
</filter>
<clipPath id="clip0_96_4479">
<rect width="67.4919" height="67.4919" fill="white" transform="translate(31.835 31.333)"/>
</clipPath>
</defs>
</svg>
