<svg width="260" height="60" viewBox="0 0 260 60" fill="none" xmlns="http://www.w3.org/2000/svg">
<path d="M103.646 35.529H104.711L106.563 40.0517H106.632L108.484 35.529H109.549V41.3472H108.714V37.1369H108.66L106.944 41.3386H106.251L104.535 37.1341H104.481V41.3472H103.646V35.529ZM110.757 41.3472V36.9835H111.607V41.3472H110.757ZM111.186 36.3102C111.039 36.3102 110.912 36.261 110.806 36.1625C110.701 36.0621 110.649 35.9428 110.649 35.8046C110.649 35.6644 110.701 35.5451 110.806 35.4466C110.912 35.3462 111.039 35.296 111.186 35.296C111.334 35.296 111.46 35.3462 111.564 35.4466C111.67 35.5451 111.723 35.6644 111.723 35.8046C111.723 35.9428 111.67 36.0621 111.564 36.1625C111.46 36.261 111.334 36.3102 111.186 36.3102ZM113.599 38.7563V41.3472H112.749V36.9835H113.565V37.6938H113.619C113.719 37.4627 113.876 37.2771 114.09 37.1369C114.306 36.9968 114.578 36.9267 114.906 36.9267C115.203 36.9267 115.464 36.9892 115.687 37.1142C115.91 37.2373 116.084 37.421 116.207 37.6653C116.33 37.9097 116.392 38.2118 116.392 38.5716V41.3472H115.542V38.6739C115.542 38.3576 115.46 38.1104 115.295 37.9324C115.13 37.7525 114.904 37.6625 114.616 37.6625C114.419 37.6625 114.244 37.7051 114.09 37.7903C113.939 37.8756 113.819 38.0006 113.73 38.1653C113.642 38.3282 113.599 38.5252 113.599 38.7563ZM119.568 36.9835V37.6653H117.184V36.9835H119.568ZM117.823 35.9381H118.673V40.0659C118.673 40.2307 118.697 40.3547 118.747 40.4381C118.796 40.5195 118.859 40.5754 118.937 40.6057C119.017 40.6341 119.103 40.6483 119.196 40.6483C119.264 40.6483 119.323 40.6436 119.374 40.6341C119.426 40.6246 119.465 40.6171 119.494 40.6114L119.647 41.3131C119.598 41.332 119.528 41.351 119.437 41.3699C119.346 41.3907 119.232 41.4021 119.096 41.404C118.873 41.4078 118.664 41.368 118.471 41.2847C118.278 41.2013 118.122 41.0725 118.002 40.8983C117.883 40.7241 117.823 40.5053 117.823 40.2421V35.9381Z" fill="#E9ECFF"/>
<path d="M34.3704 58.6728L60.3937 39.766C61.2404 39.1507 61.8706 38.2831 62.194 37.2877C62.5175 36.2922 62.5176 35.2199 62.1944 34.2244L52.2542 3.63487C51.9313 2.63887 51.3012 1.77073 50.4543 1.15498C49.6075 0.539233 48.5874 0.207511 47.5403 0.207398H15.3772C14.3296 0.20685 13.3088 0.538266 12.4613 1.15406C11.6138 1.76986 10.9833 2.63836 10.6602 3.63487L0.720006 34.2244C0.396763 35.2199 0.396882 36.2922 0.720347 37.2877C1.04381 38.2831 1.67403 39.1507 2.52072 39.766L28.544 58.6728C29.3908 59.288 30.4106 59.6193 31.4572 59.6193C32.5038 59.6193 33.5236 59.288 34.3704 58.6728Z" fill="#E9ECFF"/>
<path d="M142.929 30.2662C143.124 30.0713 143.124 29.7554 142.929 29.5605L139.754 26.385C139.559 26.1902 139.243 26.1902 139.048 26.385C138.853 26.5799 138.853 26.8958 139.048 27.0907L141.871 29.9133L139.048 32.736C138.853 32.9308 138.853 33.2468 139.048 33.4416C139.243 33.6365 139.559 33.6365 139.754 33.4416L142.929 30.2662ZM80.4368 30.4123L142.576 30.4123L142.576 29.4144L80.4368 29.4144L80.4368 30.4123Z" fill="#E9ECFF"/>
<circle cx="169.01" cy="29.9133" r="8.43393" fill="#E9ECFF"/>
<path d="M183.403 28.9133V20.1861H184.72V23.9787H189.071V20.1861H190.392V28.9133H189.071V25.1079H184.72V28.9133H183.403ZM195.028 29.0454C194.383 29.0454 193.828 28.9076 193.362 28.6321C192.899 28.3537 192.541 27.963 192.288 27.4602C192.038 26.9545 191.913 26.3622 191.913 25.6832C191.913 25.0128 192.038 24.4219 192.288 23.9105C192.541 23.3991 192.893 23 193.345 22.713C193.799 22.4261 194.33 22.2826 194.938 22.2826C195.308 22.2826 195.666 22.3437 196.012 22.4659C196.359 22.588 196.67 22.7798 196.946 23.0412C197.221 23.3025 197.438 23.642 197.598 24.0596C197.757 24.4744 197.836 24.9787 197.836 25.5724V26.0241H192.633V25.0696H196.588C196.588 24.7344 196.519 24.4375 196.383 24.179C196.247 23.9176 196.055 23.7116 195.808 23.5611C195.563 23.4105 195.276 23.3352 194.947 23.3352C194.589 23.3352 194.276 23.4233 194.009 23.5994C193.745 23.7727 193.541 24 193.396 24.2812C193.254 24.5596 193.183 24.8622 193.183 25.1889V25.9346C193.183 26.3721 193.259 26.7443 193.413 27.0511C193.569 27.3579 193.786 27.5923 194.065 27.7542C194.343 27.9133 194.669 27.9929 195.041 27.9929C195.282 27.9929 195.502 27.9588 195.701 27.8906C195.9 27.8196 196.072 27.7145 196.217 27.5753C196.362 27.4361 196.473 27.2642 196.549 27.0596L197.755 27.277C197.659 27.6321 197.485 27.9432 197.235 28.2102C196.988 28.4744 196.677 28.6804 196.302 28.8281C195.93 28.973 195.505 29.0454 195.028 29.0454ZM200.524 20.1861V28.9133H199.25V20.1861H200.524ZM203.512 20.1861V28.9133H202.238V20.1861H203.512ZM207.984 29.0454C207.37 29.0454 206.834 28.9048 206.377 28.6236C205.92 28.3423 205.564 27.9488 205.312 27.4432C205.059 26.9375 204.932 26.3466 204.932 25.6704C204.932 24.9915 205.059 24.3977 205.312 23.8892C205.564 23.3807 205.92 22.9858 206.377 22.7045C206.834 22.4233 207.37 22.2826 207.984 22.2826C208.597 22.2826 209.133 22.4233 209.59 22.7045C210.047 22.9858 210.403 23.3807 210.655 23.8892C210.908 24.3977 211.035 24.9915 211.035 25.6704C211.035 26.3466 210.908 26.9375 210.655 27.4432C210.403 27.9488 210.047 28.3423 209.59 28.6236C209.133 28.9048 208.597 29.0454 207.984 29.0454ZM207.988 27.9758C208.385 27.9758 208.715 27.8707 208.976 27.6605C209.238 27.4503 209.431 27.1704 209.556 26.821C209.684 26.4716 209.748 26.0866 209.748 25.6662C209.748 25.2486 209.684 24.865 209.556 24.5156C209.431 24.1633 209.238 23.8807 208.976 23.6676C208.715 23.4545 208.385 23.348 207.988 23.348C207.587 23.348 207.255 23.4545 206.991 23.6676C206.729 23.8807 206.535 24.1633 206.407 24.5156C206.282 24.865 206.219 25.2486 206.219 25.6662C206.219 26.0866 206.282 26.4716 206.407 26.821C206.535 27.1704 206.729 27.4503 206.991 27.6605C207.255 27.8707 207.587 27.9758 207.988 27.9758ZM213.296 28.9943C213.063 28.9943 212.863 28.9119 212.696 28.7471C212.528 28.5795 212.444 28.3778 212.444 28.142C212.444 27.9091 212.528 27.7102 212.696 27.5454C212.863 27.3778 213.063 27.294 213.296 27.294C213.529 27.294 213.73 27.3778 213.897 27.5454C214.065 27.7102 214.149 27.9091 214.149 28.142C214.149 28.2983 214.109 28.4417 214.029 28.5724C213.953 28.7003 213.85 28.8025 213.723 28.8792C213.595 28.9559 213.453 28.9943 213.296 28.9943ZM218.676 29.0454C218.031 29.0454 217.476 28.9076 217.01 28.6321C216.547 28.3537 216.189 27.963 215.936 27.4602C215.686 26.9545 215.561 26.3622 215.561 25.6832C215.561 25.0128 215.686 24.4219 215.936 23.9105C216.189 23.3991 216.541 23 216.993 22.713C217.448 22.4261 217.979 22.2826 218.587 22.2826C218.956 22.2826 219.314 22.3437 219.661 22.4659C220.007 22.588 220.318 22.7798 220.594 23.0412C220.87 23.3025 221.087 23.642 221.246 24.0596C221.405 24.4744 221.485 24.9787 221.485 25.5724V26.0241H216.281V25.0696H220.236C220.236 24.7344 220.168 24.4375 220.031 24.179C219.895 23.9176 219.703 23.7116 219.456 23.5611C219.212 23.4105 218.925 23.3352 218.595 23.3352C218.237 23.3352 217.925 23.4233 217.658 23.5994C217.394 23.7727 217.189 24 217.044 24.2812C216.902 24.5596 216.831 24.8622 216.831 25.1889V25.9346C216.831 26.3721 216.908 26.7443 217.061 27.0511C217.218 27.3579 217.435 27.5923 217.713 27.7542C217.992 27.9133 218.317 27.9929 218.689 27.9929C218.931 27.9929 219.151 27.9588 219.35 27.8906C219.548 27.8196 219.72 27.7145 219.865 27.5753C220.01 27.4361 220.121 27.2642 220.198 27.0596L221.404 27.277C221.307 27.6321 221.134 27.9432 220.884 28.2102C220.637 28.4744 220.325 28.6804 219.95 28.8281C219.578 28.973 219.154 29.0454 218.676 29.0454ZM225.954 22.3679V23.3906H222.378V22.3679H225.954ZM223.337 20.7997H224.611V26.9915C224.611 27.2386 224.648 27.4247 224.722 27.5497C224.796 27.6719 224.891 27.7557 225.008 27.8011C225.127 27.8437 225.256 27.865 225.395 27.865C225.498 27.865 225.587 27.8579 225.664 27.8437C225.741 27.8295 225.8 27.8182 225.843 27.8096L226.073 28.8622C225.999 28.8906 225.894 28.919 225.758 28.9474C225.621 28.9787 225.451 28.9957 225.246 28.9986C224.911 29.0042 224.599 28.9446 224.309 28.8196C224.019 28.6946 223.785 28.5014 223.606 28.24C223.427 27.9787 223.337 27.6505 223.337 27.2557V20.7997ZM228.778 25.027V28.9133H227.504V20.1861H228.761V23.4332H228.842C228.995 23.0809 229.23 22.8011 229.545 22.5937C229.86 22.3863 230.272 22.2826 230.781 22.2826C231.23 22.2826 231.622 22.375 231.957 22.5596C232.295 22.7443 232.556 23.0199 232.741 23.3863C232.928 23.75 233.022 24.2045 233.022 24.75V28.9133H231.748V24.9034C231.748 24.4233 231.624 24.0511 231.377 23.7869C231.13 23.5199 230.786 23.3863 230.346 23.3863C230.045 23.3863 229.775 23.4503 229.536 23.5781C229.301 23.7059 229.115 23.8934 228.978 24.1406C228.845 24.3849 228.778 24.6804 228.778 25.027Z" fill="#E9ECFF"/>
<path d="M184.967 40.9133H183.083V35.0951H185.026C185.597 35.0951 186.086 35.2116 186.495 35.4446C186.904 35.6756 187.218 36.008 187.436 36.4417C187.655 36.8736 187.765 37.3915 187.765 37.9957C187.765 38.6018 187.654 39.1226 187.433 39.5582C187.213 39.9938 186.895 40.329 186.478 40.5639C186.062 40.7969 185.558 40.9133 184.967 40.9133ZM183.961 40.1463H184.919C185.362 40.1463 185.73 40.063 186.024 39.8963C186.317 39.7277 186.537 39.4844 186.683 39.1662C186.829 38.8461 186.901 38.4559 186.901 37.9957C186.901 37.5393 186.829 37.152 186.683 36.8338C186.539 36.5156 186.324 36.2741 186.038 36.1094C185.752 35.9446 185.397 35.8622 184.973 35.8622H183.961V40.1463ZM190.669 41.0014C190.239 41.0014 189.869 40.9095 189.558 40.7258C189.25 40.5402 189.011 40.2798 188.843 39.9446C188.676 39.6075 188.593 39.2126 188.593 38.7599C188.593 38.313 188.676 37.919 188.843 37.5781C189.011 37.2372 189.246 36.9711 189.547 36.7798C189.85 36.5885 190.204 36.4929 190.61 36.4929C190.856 36.4929 191.094 36.5336 191.325 36.615C191.557 36.6965 191.764 36.8243 191.948 36.9986C192.131 37.1728 192.276 37.3991 192.382 37.6775C192.488 37.954 192.541 38.2902 192.541 38.6861V38.9872H189.073V38.3508H191.709C191.709 38.1273 191.664 37.9294 191.573 37.7571C191.482 37.5828 191.354 37.4455 191.189 37.3451C191.026 37.2448 190.835 37.1946 190.615 37.1946C190.377 37.1946 190.168 37.2533 189.99 37.3707C189.814 37.4862 189.678 37.6378 189.581 37.8253C189.486 38.0109 189.439 38.2126 189.439 38.4304V38.9275C189.439 39.2192 189.49 39.4673 189.593 39.6719C189.697 39.8764 189.842 40.0326 190.027 40.1406C190.213 40.2467 190.43 40.2997 190.678 40.2997C190.839 40.2997 190.986 40.277 191.118 40.2315C191.251 40.1842 191.365 40.1141 191.462 40.0213C191.558 39.9285 191.632 39.8139 191.683 39.6775L192.487 39.8224C192.423 40.0592 192.307 40.2665 192.141 40.4446C191.976 40.6207 191.769 40.758 191.519 40.8565C191.271 40.9531 190.987 41.0014 190.669 41.0014ZM196.754 37.615L195.984 37.7514C195.952 37.6529 195.901 37.5592 195.83 37.4701C195.762 37.3811 195.669 37.3082 195.552 37.2514C195.435 37.1946 195.288 37.1662 195.112 37.1662C194.871 37.1662 194.67 37.2201 194.509 37.3281C194.348 37.4342 194.268 37.5715 194.268 37.74C194.268 37.8859 194.322 38.0033 194.43 38.0923C194.538 38.1813 194.712 38.2542 194.953 38.3111L195.646 38.4701C196.047 38.563 196.347 38.7059 196.544 38.8991C196.74 39.0923 196.839 39.3433 196.839 39.652C196.839 39.9133 196.763 40.1463 196.612 40.3508C196.462 40.5535 196.253 40.7126 195.984 40.8281C195.717 40.9436 195.407 41.0014 195.055 41.0014C194.566 41.0014 194.168 40.8972 193.859 40.6889C193.55 40.4787 193.361 40.1804 193.291 39.794L194.112 39.669C194.163 39.883 194.268 40.045 194.427 40.1548C194.586 40.2628 194.794 40.3167 195.049 40.3167C195.328 40.3167 195.55 40.259 195.717 40.1434C195.883 40.026 195.967 39.883 195.967 39.7145C195.967 39.5781 195.916 39.4635 195.813 39.3707C195.713 39.2779 195.559 39.2078 195.35 39.1605L194.612 38.9986C194.205 38.9058 193.903 38.758 193.708 38.5554C193.515 38.3527 193.419 38.0961 193.419 37.7855C193.419 37.5279 193.49 37.3025 193.634 37.1094C193.778 36.9162 193.977 36.7656 194.231 36.6576C194.485 36.5478 194.776 36.4929 195.103 36.4929C195.575 36.4929 195.946 36.5951 196.217 36.7997C196.488 37.0023 196.667 37.2741 196.754 37.615ZM199.81 36.5497V37.2315H197.426V36.5497H199.81ZM198.066 35.5042H198.915V39.6321C198.915 39.7969 198.94 39.9209 198.989 40.0042C199.038 40.0857 199.102 40.1415 199.179 40.1719C199.259 40.2003 199.345 40.2145 199.438 40.2145C199.506 40.2145 199.566 40.2097 199.617 40.2003C199.668 40.1908 199.708 40.1832 199.736 40.1775L199.889 40.8792C199.84 40.8982 199.77 40.9171 199.679 40.9361C199.588 40.9569 199.475 40.9683 199.338 40.9701C199.115 40.9739 198.906 40.9342 198.713 40.8508C198.52 40.7675 198.364 40.6387 198.245 40.4645C198.125 40.2902 198.066 40.0715 198.066 39.8082V35.5042ZM200.749 40.9133V36.5497H201.599V40.9133H200.749ZM201.178 35.8764C201.031 35.8764 200.904 35.8272 200.798 35.7287C200.694 35.6283 200.642 35.509 200.642 35.3707C200.642 35.2306 200.694 35.1112 200.798 35.0128C200.904 34.9124 201.031 34.8622 201.178 34.8622C201.326 34.8622 201.452 34.9124 201.556 35.0128C201.662 35.1112 201.715 35.2306 201.715 35.3707C201.715 35.509 201.662 35.6283 201.556 35.7287C201.452 35.8272 201.326 35.8764 201.178 35.8764ZM203.591 38.3224V40.9133H202.742V36.5497H203.557V37.2599H203.611C203.711 37.0289 203.869 36.8433 204.083 36.7031C204.298 36.563 204.57 36.4929 204.898 36.4929C205.195 36.4929 205.456 36.5554 205.679 36.6804C205.903 36.8035 206.076 36.9872 206.199 37.2315C206.322 37.4758 206.384 37.7779 206.384 38.1378V40.9133H205.534V38.24C205.534 37.9237 205.452 37.6766 205.287 37.4986C205.122 37.3186 204.896 37.2287 204.608 37.2287C204.411 37.2287 204.236 37.2713 204.083 37.3565C203.931 37.4417 203.811 37.5667 203.722 37.7315C203.635 37.8944 203.591 38.0914 203.591 38.3224ZM208.793 41.0099C208.516 41.0099 208.266 40.9588 208.043 40.8565C207.819 40.7523 207.642 40.6018 207.512 40.4048C207.383 40.2078 207.318 39.9664 207.318 39.6804C207.318 39.4342 207.366 39.2315 207.46 39.0724C207.555 38.9133 207.683 38.7874 207.844 38.6946C208.005 38.6018 208.185 38.5317 208.384 38.4844C208.583 38.437 208.785 38.401 208.992 38.3764C209.253 38.3461 209.465 38.3215 209.628 38.3025C209.791 38.2817 209.909 38.2486 209.983 38.2031C210.057 38.1576 210.094 38.0838 210.094 37.9815V37.9616C210.094 37.7135 210.024 37.5213 209.884 37.3849C209.745 37.2486 209.539 37.1804 209.264 37.1804C208.978 37.1804 208.753 37.2438 208.588 37.3707C208.425 37.4957 208.313 37.6349 208.25 37.7883L207.452 37.6065C207.547 37.3414 207.685 37.1273 207.867 36.9645C208.05 36.7997 208.262 36.6804 208.5 36.6065C208.739 36.5308 208.99 36.4929 209.253 36.4929C209.427 36.4929 209.612 36.5137 209.807 36.5554C210.004 36.5951 210.188 36.669 210.358 36.777C210.531 36.8849 210.672 37.0393 210.781 37.24C210.891 37.4389 210.946 37.6974 210.946 38.0156V40.9133H210.117V40.3167H210.083C210.028 40.4266 209.945 40.5345 209.835 40.6406C209.726 40.7467 209.584 40.8347 209.412 40.9048C209.24 40.9749 209.033 41.0099 208.793 41.0099ZM208.977 40.3281C209.212 40.3281 209.413 40.2817 209.58 40.1889C209.748 40.0961 209.876 39.9749 209.963 39.8253C210.052 39.6737 210.097 39.5118 210.097 39.3395V38.777C210.066 38.8073 210.008 38.8357 209.921 38.8622C209.835 38.8868 209.738 38.9086 209.628 38.9275C209.518 38.9446 209.411 38.9607 209.307 38.9758C209.203 38.9891 209.116 39.0005 209.046 39.0099C208.881 39.0308 208.73 39.0658 208.594 39.115C208.459 39.1643 208.352 39.2353 208.27 39.3281C208.191 39.419 208.151 39.5402 208.151 39.6917C208.151 39.902 208.228 40.0611 208.384 40.169C208.539 40.2751 208.737 40.3281 208.977 40.3281ZM214.115 36.5497V37.2315H211.731V36.5497H214.115ZM212.37 35.5042H213.22V39.6321C213.22 39.7969 213.244 39.9209 213.294 40.0042C213.343 40.0857 213.406 40.1415 213.484 40.1719C213.563 40.2003 213.65 40.2145 213.742 40.2145C213.811 40.2145 213.87 40.2097 213.921 40.2003C213.973 40.1908 214.012 40.1832 214.041 40.1775L214.194 40.8792C214.145 40.8982 214.075 40.9171 213.984 40.9361C213.893 40.9569 213.779 40.9683 213.643 40.9701C213.419 40.9739 213.211 40.9342 213.018 40.8508C212.825 40.7675 212.669 40.6387 212.549 40.4645C212.43 40.2902 212.37 40.0715 212.37 39.8082V35.5042ZM215.054 40.9133V36.5497H215.904V40.9133H215.054ZM215.483 35.8764C215.335 35.8764 215.209 35.8272 215.102 35.7287C214.998 35.6283 214.946 35.509 214.946 35.3707C214.946 35.2306 214.998 35.1112 215.102 35.0128C215.209 34.9124 215.335 34.8622 215.483 34.8622C215.631 34.8622 215.757 34.9124 215.861 35.0128C215.967 35.1112 216.02 35.2306 216.02 35.3707C216.02 35.509 215.967 35.6283 215.861 35.7287C215.757 35.8272 215.631 35.8764 215.483 35.8764ZM218.884 41.0014C218.475 41.0014 218.118 40.9076 217.813 40.7201C217.508 40.5326 217.272 40.2703 217.103 39.9332C216.935 39.5961 216.85 39.2022 216.85 38.7514C216.85 38.2987 216.935 37.9029 217.103 37.5639C217.272 37.2249 217.508 36.9616 217.813 36.7741C218.118 36.5866 218.475 36.4929 218.884 36.4929C219.294 36.4929 219.651 36.5866 219.955 36.7741C220.26 36.9616 220.497 37.2249 220.666 37.5639C220.834 37.9029 220.919 38.2987 220.919 38.7514C220.919 39.2022 220.834 39.5961 220.666 39.9332C220.497 40.2703 220.26 40.5326 219.955 40.7201C219.651 40.9076 219.294 41.0014 218.884 41.0014ZM218.887 40.2883C219.152 40.2883 219.372 40.2183 219.546 40.0781C219.721 39.938 219.849 39.7514 219.933 39.5184C220.018 39.2855 220.061 39.0289 220.061 38.7486C220.061 38.4701 220.018 38.2145 219.933 37.9815C219.849 37.7467 219.721 37.5582 219.546 37.4162C219.372 37.2741 219.152 37.2031 218.887 37.2031C218.62 37.2031 218.399 37.2741 218.223 37.4162C218.048 37.5582 217.919 37.7467 217.833 37.9815C217.75 38.2145 217.708 38.4701 217.708 38.7486C217.708 39.0289 217.75 39.2855 217.833 39.5184C217.919 39.7514 218.048 39.938 218.223 40.0781C218.399 40.2183 218.62 40.2883 218.887 40.2883ZM222.716 38.3224V40.9133H221.867V36.5497H222.682V37.2599H222.736C222.836 37.0289 222.994 36.8433 223.208 36.7031C223.423 36.563 223.695 36.4929 224.023 36.4929C224.32 36.4929 224.581 36.5554 224.804 36.6804C225.028 36.8035 225.201 36.9872 225.324 37.2315C225.447 37.4758 225.509 37.7779 225.509 38.1378V40.9133H224.659V38.24C224.659 37.9237 224.577 37.6766 224.412 37.4986C224.247 37.3186 224.021 37.2287 223.733 37.2287C223.536 37.2287 223.361 37.2713 223.208 37.3565C223.056 37.4417 222.936 37.5667 222.847 37.7315C222.76 37.8944 222.716 38.0914 222.716 38.3224ZM230.035 41.0099C229.758 41.0099 229.508 40.9588 229.285 40.8565C229.062 40.7523 228.884 40.6018 228.754 40.4048C228.625 40.2078 228.561 39.9664 228.561 39.6804C228.561 39.4342 228.608 39.2315 228.703 39.0724C228.797 38.9133 228.925 38.7874 229.086 38.6946C229.247 38.6018 229.427 38.5317 229.626 38.4844C229.825 38.437 230.027 38.401 230.234 38.3764C230.495 38.3461 230.707 38.3215 230.87 38.3025C231.033 38.2817 231.151 38.2486 231.225 38.2031C231.299 38.1576 231.336 38.0838 231.336 37.9815V37.9616C231.336 37.7135 231.266 37.5213 231.126 37.3849C230.988 37.2486 230.781 37.1804 230.507 37.1804C230.221 37.1804 229.995 37.2438 229.83 37.3707C229.668 37.4957 229.555 37.6349 229.492 37.7883L228.694 37.6065C228.789 37.3414 228.927 37.1273 229.109 36.9645C229.293 36.7997 229.504 36.6804 229.742 36.6065C229.981 36.5308 230.232 36.4929 230.495 36.4929C230.669 36.4929 230.854 36.5137 231.049 36.5554C231.246 36.5951 231.43 36.669 231.6 36.777C231.773 36.8849 231.914 37.0393 232.024 37.24C232.133 37.4389 232.188 37.6974 232.188 38.0156V40.9133H231.359V40.3167H231.325C231.27 40.4266 231.187 40.5345 231.078 40.6406C230.968 40.7467 230.827 40.8347 230.654 40.9048C230.482 40.9749 230.276 41.0099 230.035 41.0099ZM230.22 40.3281C230.455 40.3281 230.655 40.2817 230.822 40.1889C230.99 40.0961 231.118 39.9749 231.205 39.8253C231.294 39.6737 231.339 39.5118 231.339 39.3395V38.777C231.309 38.8073 231.25 38.8357 231.163 38.8622C231.078 38.8868 230.98 38.9086 230.87 38.9275C230.76 38.9446 230.653 38.9607 230.549 38.9758C230.445 38.9891 230.358 39.0005 230.288 39.0099C230.123 39.0308 229.973 39.0658 229.836 39.115C229.702 39.1643 229.594 39.2353 229.512 39.3281C229.433 39.419 229.393 39.5402 229.393 39.6917C229.393 39.902 229.471 40.0611 229.626 40.169C229.781 40.2751 229.979 40.3281 230.22 40.3281ZM235.158 41.0014C234.736 41.0014 234.372 40.9058 234.067 40.7145C233.764 40.5213 233.531 40.2552 233.368 39.9162C233.205 39.5772 233.124 39.1889 233.124 38.7514C233.124 38.3082 233.207 37.9171 233.374 37.5781C233.54 37.2372 233.775 36.9711 234.078 36.7798C234.381 36.5885 234.738 36.4929 235.149 36.4929C235.481 36.4929 235.776 36.5544 236.036 36.6775C236.295 36.7987 236.504 36.9692 236.664 37.1889C236.825 37.4086 236.92 37.6652 236.95 37.9588H236.124C236.078 37.7542 235.974 37.5781 235.811 37.4304C235.65 37.2826 235.434 37.2088 235.164 37.2088C234.927 37.2088 234.719 37.2713 234.541 37.3963C234.365 37.5194 234.228 37.6955 234.129 37.9247C234.031 38.152 233.982 38.4209 233.982 38.7315C233.982 39.0497 234.03 39.3243 234.127 39.5554C234.223 39.7864 234.36 39.9654 234.536 40.0923C234.714 40.2192 234.923 40.2826 235.164 40.2826C235.325 40.2826 235.47 40.2533 235.601 40.1946C235.734 40.134 235.844 40.0478 235.933 39.9361C236.024 39.8243 236.088 39.6898 236.124 39.5326H236.95C236.92 39.8148 236.828 40.0667 236.675 40.2883C236.522 40.5099 236.316 40.6842 236.058 40.8111C235.803 40.938 235.503 41.0014 235.158 41.0014ZM239.697 41.0014C239.275 41.0014 238.911 40.9058 238.606 40.7145C238.303 40.5213 238.07 40.2552 237.907 39.9162C237.744 39.5772 237.663 39.1889 237.663 38.7514C237.663 38.3082 237.746 37.9171 237.913 37.5781C238.08 37.2372 238.314 36.9711 238.617 36.7798C238.92 36.5885 239.277 36.4929 239.688 36.4929C240.02 36.4929 240.315 36.5544 240.575 36.6775C240.834 36.7987 241.044 36.9692 241.203 37.1889C241.364 37.4086 241.459 37.6652 241.49 37.9588H240.663C240.617 37.7542 240.513 37.5781 240.35 37.4304C240.189 37.2826 239.973 37.2088 239.703 37.2088C239.466 37.2088 239.258 37.2713 239.08 37.3963C238.904 37.5194 238.767 37.6955 238.669 37.9247C238.57 38.152 238.521 38.4209 238.521 38.7315C238.521 39.0497 238.569 39.3243 238.666 39.5554C238.762 39.7864 238.899 39.9654 239.075 40.0923C239.253 40.2192 239.462 40.2826 239.703 40.2826C239.864 40.2826 240.009 40.2533 240.14 40.1946C240.273 40.134 240.383 40.0478 240.473 39.9361C240.563 39.8243 240.627 39.6898 240.663 39.5326H241.49C241.459 39.8148 241.367 40.0667 241.214 40.2883C241.061 40.5099 240.855 40.6842 240.598 40.8111C240.342 40.938 240.042 41.0014 239.697 41.0014ZM244.236 41.0014C243.827 41.0014 243.47 40.9076 243.165 40.7201C242.86 40.5326 242.623 40.2703 242.455 39.9332C242.286 39.5961 242.202 39.2022 242.202 38.7514C242.202 38.2987 242.286 37.9029 242.455 37.5639C242.623 37.2249 242.86 36.9616 243.165 36.7741C243.47 36.5866 243.827 36.4929 244.236 36.4929C244.645 36.4929 245.002 36.5866 245.307 36.7741C245.612 36.9616 245.849 37.2249 246.017 37.5639C246.186 37.9029 246.27 38.2987 246.27 38.7514C246.27 39.2022 246.186 39.5961 246.017 39.9332C245.849 40.2703 245.612 40.5326 245.307 40.7201C245.002 40.9076 244.645 41.0014 244.236 41.0014ZM244.239 40.2883C244.504 40.2883 244.724 40.2183 244.898 40.0781C245.072 39.938 245.201 39.7514 245.284 39.5184C245.37 39.2855 245.412 39.0289 245.412 38.7486C245.412 38.4701 245.37 38.2145 245.284 37.9815C245.201 37.7467 245.072 37.5582 244.898 37.4162C244.724 37.2741 244.504 37.2031 244.239 37.2031C243.972 37.2031 243.75 37.2741 243.574 37.4162C243.4 37.5582 243.27 37.7467 243.185 37.9815C243.102 38.2145 243.06 38.4701 243.06 38.7486C243.06 39.0289 243.102 39.2855 243.185 39.5184C243.27 39.7514 243.4 39.938 243.574 40.0781C243.75 40.2183 243.972 40.2883 244.239 40.2883ZM249.982 39.1037V36.5497H250.835V40.9133H249.999V40.1576H249.954C249.854 40.3906 249.693 40.5847 249.471 40.74C249.251 40.8934 248.978 40.9701 248.65 40.9701C248.37 40.9701 248.122 40.9086 247.906 40.7855C247.692 40.6605 247.523 40.4758 247.4 40.2315C247.279 39.9872 247.218 39.6851 247.218 39.3253V36.5497H248.068V39.223C248.068 39.5203 248.15 39.7571 248.315 39.9332C248.48 40.1094 248.694 40.1974 248.957 40.1974C249.116 40.1974 249.274 40.1576 249.431 40.0781C249.59 39.9986 249.722 39.8783 249.826 39.7173C249.932 39.5563 249.984 39.3518 249.982 39.1037ZM252.825 38.3224V40.9133H251.976V36.5497H252.791V37.2599H252.845C252.946 37.0289 253.103 36.8433 253.317 36.7031C253.533 36.563 253.805 36.4929 254.132 36.4929C254.43 36.4929 254.69 36.5554 254.914 36.6804C255.137 36.8035 255.31 36.9872 255.433 37.2315C255.557 37.4758 255.618 37.7779 255.618 38.1378V40.9133H254.769V38.24C254.769 37.9237 254.686 37.6766 254.522 37.4986C254.357 37.3186 254.13 37.2287 253.843 37.2287C253.646 37.2287 253.47 37.2713 253.317 37.3565C253.165 37.4417 253.045 37.5667 252.956 37.7315C252.869 37.8944 252.825 38.0914 252.825 38.3224ZM258.794 36.5497V37.2315H256.411V36.5497H258.794ZM257.05 35.5042H257.899V39.6321C257.899 39.7969 257.924 39.9209 257.973 40.0042C258.022 40.0857 258.086 40.1415 258.164 40.1719C258.243 40.2003 258.329 40.2145 258.422 40.2145C258.49 40.2145 258.55 40.2097 258.601 40.2003C258.652 40.1908 258.692 40.1832 258.72 40.1775L258.874 40.8792C258.825 40.8982 258.754 40.9171 258.664 40.9361C258.573 40.9569 258.459 40.9683 258.323 40.9701C258.099 40.9739 257.891 40.9342 257.698 40.8508C257.504 40.7675 257.348 40.6387 257.229 40.4645C257.11 40.2902 257.05 40.0715 257.05 39.8082V35.5042Z" fill="#A0F2E0"/>
</svg>
