<svg width="268" height="86" viewBox="0 0 268 86" fill="none" xmlns="http://www.w3.org/2000/svg">
<path d="M10.927 30.5375C14.9117 30.5375 18.142 28.7755 18.142 26.602C18.142 24.4285 14.9117 22.6665 10.927 22.6665C6.94219 22.6665 3.7119 24.4285 3.7119 26.602C3.7119 28.7755 6.94219 30.5375 10.927 30.5375Z" stroke="#A0F2E0" stroke-width="1.31183" stroke-linecap="round" stroke-linejoin="round"/>
<path d="M3.7119 26.6021V30.5375C3.7119 32.711 6.94219 34.473 10.927 34.473C14.9117 34.473 18.142 32.711 18.142 30.5375V26.6021" stroke="#A0F2E0" stroke-width="1.31183" stroke-linecap="round" stroke-linejoin="round"/>
<path d="M3.7119 30.5376V34.4731C3.7119 36.6466 6.94219 38.4086 10.927 38.4086C14.9117 38.4086 18.142 36.6466 18.142 34.4731V30.5376" stroke="#A0F2E0" stroke-width="1.31183" stroke-linecap="round" stroke-linejoin="round"/>
<path d="M10.927 55.4623C14.9117 55.4623 18.142 53.7003 18.142 51.5268C18.142 49.3533 14.9117 47.5913 10.927 47.5913C6.94219 47.5913 3.7119 49.3533 3.7119 51.5268C3.7119 53.7003 6.94219 55.4623 10.927 55.4623Z" stroke="#C08AFF" stroke-width="1.31183" stroke-linecap="round" stroke-linejoin="round"/>
<path d="M3.7119 51.5269V55.4623C3.7119 57.6358 6.94219 59.3978 10.927 59.3978C14.9117 59.3978 18.142 57.6358 18.142 55.4623V51.5269" stroke="#C08AFF" stroke-width="1.31183" stroke-linecap="round" stroke-linejoin="round"/>
<path d="M3.7119 55.4624V59.3979C3.7119 61.5714 6.94219 63.3334 10.927 63.3334C14.9117 63.3334 18.142 61.5714 18.142 59.3979V55.4624" stroke="#C08AFF" stroke-width="1.31183" stroke-linecap="round" stroke-linejoin="round"/>
<path d="M35.8517 30.5375C39.8364 30.5375 43.0667 28.7755 43.0667 26.602C43.0667 24.4285 39.8364 22.6665 35.8517 22.6665C31.8669 22.6665 28.6366 24.4285 28.6366 26.602C28.6366 28.7755 31.8669 30.5375 35.8517 30.5375Z" stroke="#EE526E" stroke-width="1.31183" stroke-linecap="round" stroke-linejoin="round"/>
<path d="M28.6366 26.6021V30.5375C28.6366 32.711 31.8669 34.473 35.8517 34.473C39.8364 34.473 43.0667 32.711 43.0667 30.5375V26.6021" stroke="#EE526E" stroke-width="1.31183" stroke-linecap="round" stroke-linejoin="round"/>
<path d="M28.6366 30.5376V34.4731C28.6366 36.6466 31.8669 38.4086 35.8517 38.4086C39.8364 38.4086 43.0667 36.6466 43.0667 34.4731V30.5376" stroke="#EE526E" stroke-width="1.31183" stroke-linecap="round" stroke-linejoin="round"/>
<path d="M35.8517 55.4623C39.8364 55.4623 43.0667 53.7003 43.0667 51.5268C43.0667 49.3533 39.8364 47.5913 35.8517 47.5913C31.8669 47.5913 28.6366 49.3533 28.6366 51.5268C28.6366 53.7003 31.8669 55.4623 35.8517 55.4623Z" stroke="#E2C488" stroke-width="1.31183" stroke-linecap="round" stroke-linejoin="round"/>
<path d="M28.6366 51.5269V55.4623C28.6366 57.6358 31.8669 59.3978 35.8517 59.3978C39.8364 59.3978 43.0667 57.6358 43.0667 55.4623V51.5269" stroke="#E2C488" stroke-width="1.31183" stroke-linecap="round" stroke-linejoin="round"/>
<path d="M28.6366 55.4624V59.3979C28.6366 61.5714 31.8669 63.3334 35.8517 63.3334C39.8364 63.3334 43.0667 61.5714 43.0667 59.3979V55.4624" stroke="#E2C488" stroke-width="1.31183" stroke-linecap="round" stroke-linejoin="round"/>
<circle cx="60.7764" cy="42.9998" r="1.31183" fill="#E9ECFF"/>
<circle cx="70.6151" cy="43" r="1.96774" fill="#E9ECFF"/>
<circle cx="81.7657" cy="43.0001" r="2.62366" fill="#E9ECFF"/>
<path d="M135.006 82.9341L100.922 66.4178V32.3091L135.006 48.8229V82.9341Z" fill="#E9ECFF" stroke="#13203D" stroke-width="0.245097" stroke-linecap="round" stroke-linejoin="round"/>
<path d="M132.408 79.2153L103.551 65.2332V36.3589L132.408 50.3409V79.2153Z" fill="#13203D" stroke="#E9ECFF" stroke-width="0.245097" stroke-linecap="round" stroke-linejoin="round"/>
<path d="M171.244 59.8357L135.015 82.9581V48.8495L171.244 25.7271V59.8357Z" fill="#E9ECFF" stroke="#13203D" stroke-width="0.245097" stroke-linecap="round" stroke-linejoin="round"/>
<path d="M168.055 59.0738L138.21 78.1194V50.0227L168.055 30.9746V59.0738Z" fill="#13203D" stroke="#E9ECFF" stroke-width="0.245097" stroke-linecap="round" stroke-linejoin="round"/>
<path d="M137.152 9.18457L100.922 32.3095L135.008 48.8259L171.251 25.7264L137.152 9.18457Z" fill="#E9ECFF" stroke="#13203D" stroke-width="0.245097" stroke-linecap="round" stroke-linejoin="round"/>
<path d="M136.648 12.3901L106.277 31.7723L134.848 45.6167L165.227 26.2549L136.646 12.3901H136.648Z" fill="#13203D" stroke="#13203D" stroke-width="0.245097" stroke-linecap="round" stroke-linejoin="round"/>
<path d="M100.317 38.0723L104.374 40.038V43.7681L100.317 41.7692V38.0723Z" fill="#13203D" stroke="#E9ECFF" stroke-width="0.245097" stroke-linecap="round" stroke-linejoin="round"/>
<path d="M100.886 37.6162L104.942 39.582L104.374 40.0383L100.317 38.0726L100.886 37.6162Z" fill="#13203D" stroke="#E9ECFF" stroke-width="0.245097" stroke-linecap="round" stroke-linejoin="round"/>
<path d="M104.376 40.0379V43.768L104.944 43.3116V39.5815L104.376 40.0379Z" fill="#13203D" stroke="#E9ECFF" stroke-width="0.245097" stroke-linecap="round" stroke-linejoin="round"/>
<path d="M100.317 58.063L104.374 60.0287V63.7588L100.317 61.7574V58.063Z" fill="#13203D" stroke="#E9ECFF" stroke-width="0.245097" stroke-linecap="round" stroke-linejoin="round"/>
<path d="M100.886 57.6074L104.942 59.5732L104.374 60.0296L100.317 58.0638L100.886 57.6074Z" fill="#13203D" stroke="#E9ECFF" stroke-width="0.245097" stroke-linecap="round" stroke-linejoin="round"/>
<path d="M104.376 60.0282V63.7582L104.944 63.3019V59.5718L104.376 60.0282Z" fill="#13203D" stroke="#E9ECFF" stroke-width="0.245097" stroke-linecap="round" stroke-linejoin="round"/>
<path d="M130.962 51.9822L135.138 53.9633L139.153 51.3882L139.709 51.7349L135.138 54.7078L130.396 52.4386L130.962 51.9822Z" fill="#13203D" stroke="#E9ECFF" stroke-width="0.245097" stroke-linecap="round" stroke-linejoin="round"/>
<path d="M135.138 54.7062V58.4389L139.71 55.466V51.7334L135.138 54.7062Z" fill="#13203D" stroke="#E9ECFF" stroke-width="0.245097" stroke-linecap="round" stroke-linejoin="round"/>
<path d="M130.396 52.4375L135.138 54.7067V58.4393L130.396 56.1344V52.4375Z" fill="#13203D" stroke="#E9ECFF" stroke-width="0.245097" stroke-linecap="round" stroke-linejoin="round"/>
<path d="M130.962 71.4417L135.138 73.4228L139.153 70.8477L139.709 71.1944L135.138 74.1673L130.396 71.8981L130.962 71.4417Z" fill="#13203D" stroke="#E9ECFF" stroke-width="0.245097" stroke-linecap="round" stroke-linejoin="round"/>
<path d="M135.138 74.1657V77.8958L139.71 74.923V71.1929L135.138 74.1657Z" fill="#13203D" stroke="#E9ECFF" stroke-width="0.245097" stroke-linecap="round" stroke-linejoin="round"/>
<path d="M130.396 71.8955L135.138 74.1647V77.8947L130.396 75.5924V71.8955Z" fill="#13203D" stroke="#E9ECFF" stroke-width="0.245097" stroke-linecap="round" stroke-linejoin="round"/>
<path d="M166.552 53.9854L171.294 50.9922L171.85 51.3389L167.279 54.3143L166.552 53.9854Z" fill="#13203D" stroke="#E9ECFF" stroke-width="0.245097" stroke-linecap="round" stroke-linejoin="round"/>
<path d="M167.28 54.3167V58.0468L171.851 55.0739V51.3413L167.28 54.3167Z" fill="#13203D" stroke="#E9ECFF" stroke-width="0.245097" stroke-linecap="round" stroke-linejoin="round"/>
<path d="M167.279 54.3133V58.0434L166.552 57.462V53.9844L167.279 54.3133Z" fill="#13203D" stroke="#E9ECFF" stroke-width="0.245097" stroke-linecap="round" stroke-linejoin="round"/>
<path d="M166.552 35.2998L171.294 32.3091L171.85 32.6558L167.279 35.6287L166.552 35.2998Z" fill="#13203D" stroke="#E9ECFF" stroke-width="0.245097" stroke-linecap="round" stroke-linejoin="round"/>
<path d="M167.28 35.631V39.3611L171.851 36.3883V32.6582L167.28 35.631Z" fill="#13203D" stroke="#E9ECFF" stroke-width="0.245097" stroke-linecap="round" stroke-linejoin="round"/>
<path d="M167.279 35.6302V39.3602L166.552 38.7815V35.3013L167.279 35.6302Z" fill="#13203D" stroke="#E9ECFF" stroke-width="0.245097" stroke-linecap="round" stroke-linejoin="round"/>
<path d="M118.497 60.2778C117.121 59.7781 116.001 58.2483 116.001 56.8741C116.001 55.4999 117.121 54.786 118.497 55.2857C119.874 55.788 120.994 57.3152 120.994 58.6894C120.994 60.0637 119.874 60.7776 118.497 60.2778ZM118.497 54.2582C116.555 53.552 114.974 54.5565 114.974 56.4993C114.974 58.2662 116.284 60.2064 117.982 61.0759V63.4113L119.005 63.7861V61.4481C120.708 61.8178 122.018 60.8311 122.018 59.0617C122.018 57.1189 120.438 54.9644 118.495 54.2557L118.497 54.2582Z" fill="#13203D" stroke="#E9ECFF" stroke-width="0.122549" stroke-miterlimit="23.8"/>
<path d="M121.5 54.6903L122.668 53.1172L121.781 52.2758L120.611 53.8515C120.114 53.4461 119.576 53.0993 119.01 52.8367V50.5038L117.982 50.129V52.4619C117.406 52.309 116.855 52.2631 116.35 52.3115L115.208 49.8843L114.316 50.0653L115.463 52.5078C114.17 52.977 113.329 54.1931 113.329 55.909L114.356 56.2838C114.356 54.0019 116.213 52.8214 118.495 53.6526C120.776 54.4838 122.633 57.0155 122.633 59.2974L123.66 59.6722C123.66 57.9461 122.806 56.1079 121.5 54.6928V54.6903Z" fill="#13203D" stroke="#E9ECFF" stroke-width="0.122549" stroke-miterlimit="23.8"/>
<path d="M118.49 60.2881C117.113 59.7884 115.994 58.2586 115.994 56.8844C115.994 55.5101 117.113 54.7962 118.49 55.296C119.867 55.7982 120.986 57.3254 120.986 58.6997C120.986 60.0739 119.867 60.7878 118.49 60.2881V60.2881ZM118.49 54.2685C116.547 53.5622 114.966 54.5668 114.966 56.5096C114.966 58.2764 116.277 60.2167 117.975 61.0861V63.4216L118.997 63.7964V61.4584C120.7 61.8281 122.011 60.8414 122.011 59.0719C122.011 57.1291 120.43 54.9747 118.487 54.2659L118.49 54.2685Z" fill="#13203D" stroke="#E9ECFF" stroke-width="0.122549" stroke-miterlimit="23.8"/>
<path d="M121.493 54.7005L122.661 53.1274L121.773 52.2861L120.603 53.8617C120.106 53.4563 119.568 53.1096 119.002 52.847V50.5141L117.974 50.1393V52.4722C117.398 52.3192 116.848 52.2733 116.343 52.3218L115.201 49.8945L114.308 50.0756L115.455 52.5181C114.163 52.9872 113.321 54.2034 113.321 55.9193L114.349 56.294C114.349 54.0121 116.205 52.8317 118.487 53.6629C120.769 54.494 122.625 57.0258 122.625 59.3077L123.652 59.6825C123.652 57.9564 122.798 56.1181 121.493 54.7031V54.7005Z" fill="#13203D" stroke="#E9ECFF" stroke-width="0.122549" stroke-miterlimit="23.8"/>
<path d="M118.481 60.2935C117.104 59.7937 115.985 58.264 115.985 56.8897C115.985 55.5155 117.104 54.8016 118.481 55.3013C119.858 55.8036 120.977 57.3308 120.977 58.7051C120.977 60.0793 119.858 60.7932 118.481 60.2935V60.2935ZM118.481 54.2738C116.538 53.5676 114.958 54.5721 114.958 56.5149C114.958 58.2818 116.268 60.2221 117.966 61.0915V63.4269L118.989 63.8017V61.4637C120.692 61.8334 122.002 60.8467 122.002 59.0773C122.002 57.1345 120.421 54.9801 118.479 54.2713L118.481 54.2738Z" fill="#13203D" stroke="#E9ECFF" stroke-width="0.122549" stroke-miterlimit="23.8"/>
<path d="M121.479 54.7103L122.647 53.1372L121.759 52.2958L120.589 53.8715C120.092 53.4661 119.554 53.1194 118.988 52.8567V50.5239L117.961 50.1491V52.482C117.384 52.329 116.834 52.2831 116.329 52.3315L115.187 49.9043L114.294 50.0853L115.442 52.5278C114.149 52.997 113.308 54.2131 113.308 55.929L114.335 56.3038C114.335 54.0219 116.191 52.8414 118.473 53.6726C120.755 54.5038 122.611 57.0356 122.611 59.3175L123.639 59.6922C123.639 57.9662 122.784 56.1279 121.479 54.7129V54.7103Z" fill="#13203D" stroke="#E9ECFF" stroke-width="0.122549" stroke-miterlimit="23.8"/>
<path d="M118.466 60.3003C117.089 59.8006 115.97 58.2708 115.97 56.8966C115.97 55.5223 117.089 54.8084 118.466 55.3082C119.843 55.8104 120.962 57.3376 120.962 58.7119C120.962 60.0861 119.843 60.8 118.466 60.3003V60.3003ZM118.466 54.2807C116.523 53.5744 114.942 54.579 114.942 56.5218C114.942 58.2887 116.253 60.2289 117.951 61.0983V63.4338L118.973 63.8086V61.4706C120.676 61.8403 121.987 60.8536 121.987 59.0841C121.987 57.1413 120.406 54.9869 118.463 54.2781L118.466 54.2807Z" fill="#13203D" stroke="#E9ECFF" stroke-width="0.122549" stroke-miterlimit="23.8"/>
<path d="M121.471 54.7123L122.639 53.1392L121.752 52.2978L120.582 53.8734C120.084 53.4681 119.547 53.1213 118.981 52.8587V50.5258L117.953 50.151V52.4839C117.377 52.3309 116.826 52.285 116.321 52.3335L115.179 49.9062L114.287 50.0873L115.434 52.5298C114.141 52.9989 113.3 54.2151 113.3 55.931L114.327 56.3058C114.327 54.0239 116.184 52.8434 118.465 53.6746C120.747 54.5057 122.603 57.0375 122.603 59.3194L123.631 59.6942C123.631 57.9681 122.777 56.1298 121.471 54.7148V54.7123Z" fill="#13203D" stroke="#E9ECFF" stroke-width="0.122549" stroke-miterlimit="23.8"/>
<path d="M118.458 60.3105C117.082 59.8108 115.962 58.2811 115.962 56.9068C115.962 55.5326 117.082 54.8187 118.458 55.3184C119.835 55.8207 120.955 57.3479 120.955 58.7221C120.955 60.0964 119.835 60.8103 118.458 60.3105V60.3105ZM118.458 54.2909C116.516 53.5847 114.935 54.5892 114.935 56.532C114.935 58.2989 116.245 60.2392 117.943 61.1086V63.444L118.966 63.8188V61.4808C120.669 61.8505 121.979 60.8638 121.979 59.0944C121.979 57.1516 120.399 54.9972 118.456 54.2884L118.458 54.2909Z" fill="#13203D" stroke="#E9ECFF" stroke-width="0.122549" stroke-miterlimit="23.8"/>
<path d="M121.456 54.722L122.624 53.1489L121.737 52.3076L120.567 53.8832C120.069 53.4778 119.532 53.1311 118.966 52.8685V50.5356L117.938 50.1608V52.4937C117.362 52.3407 116.811 52.2948 116.306 52.3432L115.164 49.916L114.272 50.097L115.419 52.5396C114.126 53.0087 113.285 54.2249 113.285 55.9407L114.312 56.3155C114.312 54.0336 116.169 52.8532 118.45 53.6843C120.732 54.5155 122.589 57.0473 122.589 59.3292L123.616 59.704C123.616 57.9779 122.762 56.1396 121.456 54.7246V54.722Z" fill="#13203D" stroke="#E9ECFF" stroke-width="0.122549" stroke-miterlimit="23.8"/>
<path d="M118.451 60.3218C117.074 59.8221 115.955 58.2923 115.955 56.918C115.955 55.5438 117.074 54.8299 118.451 55.3296C119.828 55.8319 120.947 57.3591 120.947 58.7334C120.947 60.1076 119.828 60.8215 118.451 60.3218ZM118.451 54.3022C116.508 53.5959 114.927 54.6005 114.927 56.5433C114.927 58.3101 116.238 60.2504 117.936 61.1198V63.4552L118.958 63.83V61.492C120.661 61.8617 121.972 60.875 121.972 59.1056C121.972 57.1628 120.391 55.0084 118.448 54.2996L118.451 54.3022Z" fill="#13203D" stroke="#E9ECFF" stroke-width="0.122549" stroke-miterlimit="23.8"/>
<path d="M121.449 54.7352L122.617 53.1621L121.729 52.3207L120.559 53.8964C120.062 53.491 119.524 53.1443 118.958 52.8816V50.5488L117.93 50.174V52.5069C117.354 52.3539 116.803 52.308 116.299 52.3564L115.156 49.9292L114.264 50.1102L115.411 52.5527C114.119 53.0219 113.277 54.238 113.277 55.9539L114.305 56.3287C114.305 54.0468 116.161 52.8664 118.443 53.6975C120.725 54.5287 122.581 57.0605 122.581 59.3424L123.608 59.7172C123.608 57.9911 122.754 56.1528 121.449 54.7378V54.7352Z" fill="#13203D" stroke="#E9ECFF" stroke-width="0.122549" stroke-miterlimit="23.8"/>
<path d="M118.434 60.332C117.057 59.8323 115.938 58.3025 115.938 56.9283C115.938 55.5541 117.057 54.8402 118.434 55.3399C119.811 55.8422 120.93 57.3694 120.93 58.7436C120.93 60.1179 119.811 60.8318 118.434 60.332ZM118.434 54.3124C116.491 53.6062 114.91 54.6107 114.91 56.5535C114.91 58.3204 116.221 60.2606 117.919 61.1301V63.4655L118.941 63.8403V61.5023C120.644 61.872 121.955 60.8853 121.955 59.1159C121.955 57.1731 120.374 55.0186 118.431 54.3099L118.434 54.3124Z" fill="#13203D" stroke="#E9ECFF" stroke-width="0.122549" stroke-miterlimit="23.8"/>
<path d="M121.437 54.7455L122.605 53.1724L121.717 52.331L120.547 53.9066C120.05 53.5013 119.512 53.1545 118.946 52.8919V50.559L117.918 50.1842V52.5171C117.342 52.3641 116.791 52.3182 116.287 52.3667L115.144 49.9395L114.252 50.1205L115.399 52.563C114.107 53.0321 113.265 54.2483 113.265 55.9642L114.293 56.339C114.293 54.0571 116.149 52.8766 118.431 53.7078C120.713 54.5389 122.569 57.0707 122.569 59.3526L123.596 59.7274C123.596 58.0013 122.742 56.163 121.437 54.748V54.7455Z" fill="#13203D" stroke="#E9ECFF" stroke-width="0.122549" stroke-miterlimit="23.8"/>
<path d="M118.422 60.3384C117.045 59.8387 115.926 58.3089 115.926 56.9347C115.926 55.5604 117.045 54.8465 118.422 55.3462C119.799 55.8485 120.918 57.3757 120.918 58.75C120.918 60.1242 119.799 60.8381 118.422 60.3384V60.3384ZM118.422 54.3188C116.479 53.6125 114.898 54.6171 114.898 56.5599C114.898 58.3267 116.209 60.267 117.907 61.1364V63.4719L118.929 63.8466V61.5087C120.632 61.8783 121.943 60.8916 121.943 59.1222C121.943 57.1794 120.362 55.025 118.419 54.3162L118.422 54.3188Z" fill="#13203D" stroke="#E9ECFF" stroke-width="0.122549" stroke-miterlimit="23.8"/>
<path d="M121.427 54.7518L122.595 53.1787L121.708 52.3373L120.538 53.913C120.04 53.5076 119.502 53.1609 118.936 52.8982V50.5654L117.909 50.1906V52.5235C117.333 52.3705 116.782 52.3246 116.277 52.373L115.135 49.9458L114.243 50.1268L115.39 52.5693C114.097 53.0385 113.256 54.2546 113.256 55.9705L114.283 56.3453C114.283 54.0634 116.139 52.883 118.421 53.7141C120.703 54.5453 122.559 57.0771 122.559 59.359L123.587 59.7338C123.587 58.0077 122.733 56.1694 121.427 54.7544V54.7518Z" fill="#13203D" stroke="#E9ECFF" stroke-width="0.122549" stroke-miterlimit="23.8"/>
<path d="M118.421 60.3438C117.044 59.844 115.925 58.3143 115.925 56.94C115.925 55.5658 117.044 54.8519 118.421 55.3516C119.797 55.8539 120.917 57.3811 120.917 58.7553C120.917 60.1296 119.797 60.8435 118.421 60.3438ZM118.421 54.3241C116.478 53.6179 114.897 54.6224 114.897 56.5652C114.897 58.3321 116.208 60.2724 117.906 61.1418V63.4772L118.928 63.852V61.514C120.631 61.8837 121.942 60.897 121.942 59.1276C121.942 57.1848 120.361 55.0304 118.418 54.3216L118.421 54.3241Z" fill="#13203D" stroke="#E9ECFF" stroke-width="0.122549" stroke-miterlimit="23.8"/>
<path d="M121.419 54.7562L122.586 53.1831L121.699 52.3417L120.529 53.9174C120.032 53.512 119.494 53.1653 118.928 52.9026V50.5698L117.9 50.195V52.5279C117.324 52.3749 116.773 52.329 116.268 52.3774L115.126 49.9502L114.234 50.1312L115.381 52.5737C114.088 53.0429 113.247 54.259 113.247 55.9749L114.275 56.3497C114.275 54.0678 116.131 52.8873 118.413 53.7185C120.694 54.5497 122.551 57.0815 122.551 59.3634L123.578 59.7381C123.578 58.0121 122.724 56.1738 121.419 54.7588V54.7562Z" fill="#13203D" stroke="#E9ECFF" stroke-width="0.122549" stroke-miterlimit="23.8"/>
<path d="M118.407 60.3501C117.03 59.8504 115.911 58.3206 115.911 56.9464C115.911 55.5721 117.03 54.8582 118.407 55.358C119.784 55.8602 120.903 57.3875 120.903 58.7617C120.903 60.1359 119.784 60.8498 118.407 60.3501V60.3501ZM118.407 54.3305C116.464 53.6242 114.883 54.6288 114.883 56.5716C114.883 58.3385 116.194 60.2787 117.892 61.1481V63.4836L118.914 63.8584V61.5204C120.617 61.8901 121.928 60.9034 121.928 59.1339C121.928 57.1911 120.347 55.0367 118.404 54.3279L118.407 54.3305Z" fill="#13203D" stroke="#E9ECFF" stroke-width="0.122549" stroke-miterlimit="23.8"/>
<path d="M121.405 54.763L122.572 53.1899L121.685 52.3486L120.515 53.9242C120.018 53.5188 119.48 53.1721 118.914 52.9095V50.5766L117.886 50.2018V52.5347C117.31 52.3817 116.759 52.3358 116.254 52.3843L115.112 49.957L114.22 50.1381L115.367 52.5806C114.075 53.0497 113.233 54.2659 113.233 55.9818L114.261 56.3566C114.261 54.0747 116.117 52.8942 118.399 53.7254C120.681 54.5565 122.537 57.0883 122.537 59.3702L123.564 59.745C123.564 58.0189 122.71 56.1806 121.405 54.7656V54.763Z" fill="#13203D" stroke="#E9ECFF" stroke-width="0.122549" stroke-miterlimit="23.8"/>
<path d="M118.395 60.3618C117.018 59.8621 115.899 58.3323 115.899 56.9581C115.899 55.5838 117.018 54.87 118.395 55.3697C119.772 55.872 120.891 57.3992 120.891 58.7734C120.891 60.1477 119.772 60.8615 118.395 60.3618V60.3618ZM118.395 54.3422C116.452 53.6359 114.871 54.6405 114.871 56.5833C114.871 58.3502 116.182 60.2904 117.88 61.1598V63.4953L118.902 63.8701V61.5321C120.605 61.9018 121.916 60.9151 121.916 59.1457C121.916 57.2029 120.335 55.0484 118.392 54.3396L118.395 54.3422Z" fill="#13203D" stroke="#E9ECFF" stroke-width="0.122549" stroke-miterlimit="23.8"/>
<path d="M121.393 54.7787L122.56 53.2056L121.673 52.3642L120.503 53.9398C120.006 53.5345 119.468 53.1877 118.902 52.9251V50.5922L117.874 50.2174V52.5503C117.298 52.3973 116.747 52.3514 116.242 52.3999L115.1 49.9727L114.208 50.1537L115.355 52.5962C114.063 53.0653 113.221 54.2815 113.221 55.9974L114.249 56.3722C114.249 54.0903 116.105 52.9098 118.387 53.741C120.669 54.5722 122.525 57.1039 122.525 59.3858L123.552 59.7606C123.552 58.0345 122.698 56.1963 121.393 54.7812V54.7787Z" fill="#13203D" stroke="#E9ECFF" stroke-width="0.122549" stroke-miterlimit="23.8"/>
<path d="M118.38 60.3667C117.003 59.867 115.884 58.3372 115.884 56.963C115.884 55.5887 117.003 54.8748 118.38 55.3746C119.756 55.8768 120.876 57.4041 120.876 58.7783C120.876 60.1525 119.756 60.8664 118.38 60.3667ZM118.38 54.3471C116.437 53.6408 114.856 54.6454 114.856 56.5882C114.856 58.3551 116.167 60.2953 117.865 61.1647V63.5002L118.887 63.875V61.537C120.59 61.9067 121.901 60.92 121.901 59.1505C121.901 57.2077 120.32 55.0533 118.377 54.3445L118.38 54.3471Z" fill="#13203D" stroke="#E9ECFF" stroke-width="0.122549" stroke-miterlimit="23.8"/>
<path d="M121.378 54.7787L122.545 53.2056L121.658 52.3642L120.488 53.9398C119.991 53.5345 119.453 53.1877 118.887 52.9251V50.5922L117.859 50.2174V52.5503C117.283 52.3973 116.732 52.3514 116.227 52.3999L115.085 49.9727L114.193 50.1537L115.34 52.5962C114.047 53.0653 113.206 54.2815 113.206 55.9974L114.234 56.3722C114.234 54.0903 116.09 52.9098 118.372 53.741C120.653 54.5722 122.51 57.1039 122.51 59.3858L123.537 59.7606C123.537 58.0345 122.683 56.1963 121.378 54.7812V54.7787Z" fill="#13203D" stroke="#E9ECFF" stroke-width="0.122549" stroke-miterlimit="23.8"/>
<path d="M118.367 60.3765C116.99 59.8767 115.871 58.347 115.871 56.9727C115.871 55.5985 116.99 54.8846 118.367 55.3843C119.744 55.8866 120.863 57.4138 120.863 58.7881C120.863 60.1623 119.744 60.8762 118.367 60.3765V60.3765ZM118.367 54.3568C116.424 53.6506 114.843 54.6551 114.843 56.5979C114.843 58.3648 116.154 60.3051 117.852 61.1745V63.5099L118.874 63.8847V61.5467C120.578 61.9164 121.888 60.9297 121.888 59.1603C121.888 57.2175 120.307 55.0631 118.364 54.3543L118.367 54.3568Z" fill="#13203D" stroke="#E9ECFF" stroke-width="0.122549" stroke-miterlimit="23.8"/>
<path d="M121.37 54.7894L122.538 53.2163L121.65 52.3749L120.48 53.9506C119.983 53.5452 119.445 53.1985 118.879 52.9358V50.603L117.852 50.2282V52.5611C117.275 52.4081 116.725 52.3622 116.22 52.4106L115.078 49.9834L114.185 50.1644L115.333 52.6069C114.04 53.0761 113.199 54.2922 113.199 56.0081L114.226 56.3829C114.226 54.101 116.082 52.9205 118.364 53.7517C120.646 54.5829 122.502 57.1147 122.502 59.3966L123.53 59.7713C123.53 58.0453 122.675 56.207 121.37 54.792V54.7894Z" fill="#13203D" stroke="#E9ECFF" stroke-width="0.122549" stroke-miterlimit="23.8"/>
<path d="M118.361 60.3877C116.984 59.888 115.865 58.3582 115.865 56.984C115.865 55.6097 116.984 54.8958 118.361 55.3956C119.737 55.8978 120.857 57.4251 120.857 58.7993C120.857 60.1735 119.737 60.8874 118.361 60.3877V60.3877ZM118.361 54.3681C116.418 53.6618 114.837 54.6664 114.837 56.6092C114.837 58.3761 116.148 60.3163 117.846 61.1857V63.5212L118.868 63.896V61.558C120.571 61.9277 121.882 60.941 121.882 59.1715C121.882 57.2287 120.301 55.0743 118.358 54.3655L118.361 54.3681Z" fill="#13203D" stroke="#E9ECFF" stroke-width="0.122549" stroke-miterlimit="23.8"/>
<path d="M121.364 54.8002L122.531 53.227L121.644 52.3857L120.474 53.9613C119.977 53.5559 119.439 53.2092 118.873 52.9466V50.6137L117.845 50.2389V52.5718C117.269 52.4188 116.718 52.3729 116.213 52.4214L115.071 49.9941L114.179 50.1752L115.326 52.6177C114.034 53.0868 113.192 54.303 113.192 56.0189L114.22 56.3937C114.22 54.1118 116.076 52.9313 118.358 53.7625C120.64 54.5936 122.496 57.1254 122.496 59.4073L123.523 59.7821C123.523 58.056 122.669 56.2177 121.364 54.8027V54.8002Z" fill="#13203D" stroke="#E9ECFF" stroke-width="0.122549" stroke-miterlimit="23.8"/>
<path d="M118.349 60.3989C116.972 59.8992 115.853 58.3694 115.853 56.9952C115.853 55.621 116.972 54.9071 118.349 55.4068C119.725 55.9091 120.845 57.4363 120.845 58.8105C120.845 60.1848 119.725 60.8987 118.349 60.3989ZM118.349 54.3793C116.406 53.6731 114.825 54.6776 114.825 56.6204C114.825 58.3873 116.136 60.3275 117.834 61.197V63.5324L118.856 63.9072V61.5692C120.559 61.9389 121.87 60.9522 121.87 59.1828C121.87 57.24 120.289 55.0855 118.346 54.3767L118.349 54.3793Z" fill="#13203D" stroke="#E9ECFF" stroke-width="0.122549" stroke-miterlimit="23.8"/>
<path d="M121.352 54.8114L122.519 53.2383L121.632 52.3969L120.462 53.9726C119.965 53.5672 119.427 53.2204 118.861 52.9578V50.6249L117.833 50.2501V52.583C117.257 52.43 116.706 52.3842 116.202 52.4326L115.059 50.0054L114.167 50.1864L115.314 52.6289C114.022 53.098 113.18 54.3142 113.18 56.0301L114.208 56.4049C114.208 54.123 116.064 52.9425 118.346 53.7737C120.628 54.6049 122.484 57.1366 122.484 59.4185L123.511 59.7933C123.511 58.0672 122.657 56.229 121.352 54.8139V54.8114Z" fill="#13203D" stroke="#E9ECFF" stroke-width="0.122549" stroke-miterlimit="23.8"/>
<path d="M118.346 60.4043C116.969 59.9046 115.85 58.3748 115.85 57.0006C115.85 55.6263 116.969 54.9124 118.346 55.4122C119.723 55.9144 120.842 57.4416 120.842 58.8159C120.842 60.1901 119.723 60.904 118.346 60.4043V60.4043ZM118.346 54.3847C116.403 53.6784 114.823 54.683 114.823 56.6258C114.823 58.3927 116.133 60.3329 117.831 61.2023V63.5378L118.854 63.9126V61.5746C120.557 61.9443 121.867 60.9576 121.867 59.1881C121.867 57.2453 120.287 55.0909 118.344 54.3821L118.346 54.3847Z" fill="#13203D" stroke="#E9ECFF" stroke-width="0.122549" stroke-miterlimit="23.8"/>
<path d="M121.344 54.8168L122.512 53.2436L121.625 52.4023L120.454 53.9779C119.957 53.5725 119.419 53.2258 118.853 52.9632V50.6303L117.826 50.2555V52.5884C117.249 52.4354 116.699 52.3895 116.194 52.438L115.052 50.0107L114.159 50.1918L115.307 52.6343C114.014 53.1034 113.173 54.3196 113.173 56.0355L114.2 56.4103C114.2 54.1284 116.056 52.9479 118.338 53.7791C120.62 54.6102 122.476 57.142 122.476 59.4239L123.504 59.7987C123.504 58.0726 122.65 56.2343 121.344 54.8193V54.8168Z" fill="#13203D" stroke="#E9ECFF" stroke-width="0.122549" stroke-miterlimit="23.8"/>
<path d="M118.325 60.4106C116.948 59.9109 115.829 58.3812 115.829 57.0069C115.829 55.6327 116.948 54.9188 118.325 55.4185C119.701 55.9208 120.821 57.448 120.821 58.8222C120.821 60.1965 119.701 60.9104 118.325 60.4106ZM118.325 54.391C116.382 53.6848 114.801 54.6893 114.801 56.6321C114.801 58.399 116.112 60.3393 117.81 61.2087V63.5441L118.832 63.9189V61.5809C120.535 61.9506 121.846 60.9639 121.846 59.1945C121.846 57.2517 120.265 55.0973 118.322 54.3885L118.325 54.391Z" fill="#13203D" stroke="#E9ECFF" stroke-width="0.122549" stroke-miterlimit="23.8"/>
<path d="M121.33 54.8246L122.498 53.2515L121.611 52.4101L120.44 53.9857C119.943 53.5804 119.405 53.2336 118.839 52.971V50.6381L117.812 50.2633V52.5962C117.236 52.4432 116.685 52.3973 116.18 52.4458L115.038 50.0186L114.145 50.1996L115.293 52.6421C114 53.1112 113.159 54.3274 113.159 56.0433L114.186 56.4181C114.186 54.1362 116.042 52.9557 118.324 53.7869C120.606 54.6181 122.462 57.1498 122.462 59.4317L123.49 59.8065C123.49 58.0804 122.636 56.2422 121.33 54.8271V54.8246Z" fill="#13203D" stroke="#E9ECFF" stroke-width="0.122549" stroke-miterlimit="23.8"/>
<path d="M118.31 60.4194C116.933 59.9197 115.813 58.3899 115.813 57.0157C115.813 55.6415 116.933 54.9276 118.31 55.4273C119.686 55.9296 120.806 57.4568 120.806 58.831C120.806 60.2053 119.686 60.9192 118.31 60.4194ZM118.31 54.3998C116.367 53.6936 114.786 54.6981 114.786 56.6409C114.786 58.4078 116.096 60.348 117.795 61.2175V63.5529L118.817 63.9277V61.5897C120.52 61.9594 121.831 60.9727 121.831 59.2033C121.831 57.2605 120.25 55.1061 118.307 54.3973L118.31 54.3998Z" fill="#13203D" stroke="#E9ECFF" stroke-width="0.122549" stroke-miterlimit="23.8"/>
<path d="M121.315 54.8363L122.483 53.2632L121.596 52.4218L120.425 53.9975C119.928 53.5921 119.39 53.2453 118.824 52.9827V50.6498L117.797 50.275V52.6079C117.22 52.455 116.67 52.4091 116.165 52.4575L115.023 50.0303L114.13 50.2113L115.278 52.6538C113.985 53.1229 113.144 54.3391 113.144 56.055L114.171 56.4298C114.171 54.1479 116.027 52.9674 118.309 53.7986C120.591 54.6298 122.447 57.1615 122.447 59.4434L123.475 59.8182C123.475 58.0921 122.621 56.2539 121.315 54.8388V54.8363Z" fill="#13203D" stroke="#E9ECFF" stroke-width="0.122549" stroke-miterlimit="23.8"/>
<path d="M118.299 60.4277C116.922 59.928 115.803 58.3982 115.803 57.024C115.803 55.6498 116.922 54.9359 118.299 55.4356C119.676 55.9379 120.795 57.4651 120.795 58.8393C120.795 60.2136 119.676 60.9275 118.299 60.4277V60.4277ZM118.299 54.4081C116.356 53.7019 114.775 54.7064 114.775 56.6492C114.775 58.4161 116.086 60.3563 117.784 61.2258V63.5612L118.806 63.936V61.598C120.509 61.9677 121.82 60.981 121.82 59.2116C121.82 57.2688 120.239 55.1144 118.296 54.4056L118.299 54.4081Z" fill="#13203D" stroke="#E9ECFF" stroke-width="0.122549" stroke-miterlimit="23.8"/>
<path d="M121.304 54.8417L122.472 53.2685L121.585 52.4272L120.415 54.0028C119.917 53.5974 119.379 53.2507 118.813 52.9881V50.6552L117.786 50.2804V52.6133C117.21 52.4603 116.659 52.4144 116.154 52.4629L115.012 50.0356L114.12 50.2167L115.267 52.6592C113.974 53.1283 113.133 54.3445 113.133 56.0604L114.16 56.4352C114.16 54.1533 116.017 52.9728 118.298 53.804C120.58 54.6351 122.436 57.1669 122.436 59.4488L123.464 59.8236C123.464 58.0975 122.61 56.2592 121.304 54.8442V54.8417Z" fill="#13203D" stroke="#E9ECFF" stroke-width="0.122549" stroke-miterlimit="23.8"/>
<path d="M118.294 60.4336C116.917 59.9339 115.798 58.4041 115.798 57.0299C115.798 55.6556 116.917 54.9417 118.294 55.4415C119.671 55.9437 120.79 57.471 120.79 58.8452C120.79 60.2194 119.671 60.9333 118.294 60.4336V60.4336ZM118.294 54.414C116.351 53.7077 114.77 54.7123 114.77 56.6551C114.77 58.422 116.081 60.3622 117.779 61.2316V63.5671L118.801 63.9419V61.6039C120.504 61.9736 121.815 60.9869 121.815 59.2174C121.815 57.2746 120.234 55.1202 118.291 54.4114L118.294 54.414Z" fill="#13203D" stroke="#E9ECFF" stroke-width="0.122549" stroke-miterlimit="23.8"/>
<path d="M121.297 54.8461L122.465 53.2729L121.577 52.4316L120.407 54.0072C119.91 53.6018 119.372 53.2551 118.806 52.9925V50.6596L117.778 50.2848V52.6177C117.202 52.4647 116.651 52.4188 116.147 52.4673L115.004 50.04L114.112 50.2211L115.259 52.6636C113.967 53.1327 113.125 54.3489 113.125 56.0648L114.153 56.4396C114.153 54.1577 116.009 52.9772 118.291 53.8084C120.573 54.6395 122.429 57.1713 122.429 59.4532L123.456 59.828C123.456 58.1019 122.602 56.2636 121.297 54.8486V54.8461Z" fill="#13203D" stroke="#E9ECFF" stroke-width="0.122549" stroke-miterlimit="23.8"/>
<path d="M118.282 60.4438C116.906 59.9441 115.786 58.4144 115.786 57.0401C115.786 55.6659 116.906 54.952 118.282 55.4517C119.659 55.954 120.779 57.4812 120.779 58.8554C120.779 60.2297 119.659 60.9436 118.282 60.4438V60.4438ZM118.282 54.4242C116.34 53.718 114.759 54.7225 114.759 56.6653C114.759 58.4322 116.069 60.3725 117.767 61.2419V63.5773L118.79 63.9521V61.6141C120.493 61.9838 121.803 60.9971 121.803 59.2277C121.803 57.2849 120.223 55.1305 118.28 54.4217L118.282 54.4242Z" fill="#13203D" stroke="#E9ECFF" stroke-width="0.122549" stroke-miterlimit="23.8"/>
<path d="M121.288 54.8524L122.456 53.2793L121.569 52.4379L120.398 54.0136C119.901 53.6082 119.363 53.2614 118.797 52.9988V50.6659L117.77 50.2912V52.624C117.193 52.4711 116.643 52.4252 116.138 52.4736L114.996 50.0464L114.103 50.2274L115.251 52.6699C113.958 53.1391 113.117 54.3552 113.117 56.0711L114.144 56.4459C114.144 54.164 116 52.9835 118.282 53.8147C120.564 54.6459 122.42 57.1776 122.42 59.4595L123.448 59.8343C123.448 58.1083 122.593 56.27 121.288 54.8549V54.8524Z" fill="#13203D" stroke="#E9ECFF" stroke-width="0.122549" stroke-miterlimit="23.8"/>
<path d="M118.267 60.4546C116.891 59.9549 115.771 58.4251 115.771 57.0509C115.771 55.6766 116.891 54.9627 118.267 55.4625C119.644 55.9647 120.763 57.4919 120.763 58.8662C120.763 60.2404 119.644 60.9543 118.267 60.4546V60.4546ZM118.267 54.435C116.325 53.7287 114.744 54.7333 114.744 56.6761C114.744 58.4429 116.054 60.3832 117.752 61.2526V63.5881L118.775 63.9629V61.6249C120.478 61.9946 121.788 61.0079 121.788 59.2384C121.788 57.2956 120.208 55.1412 118.265 54.4324L118.267 54.435Z" fill="#13203D" stroke="#E9ECFF" stroke-width="0.122549" stroke-miterlimit="23.8"/>
<path d="M121.273 54.867L122.441 53.2939L121.553 52.4526L120.383 54.0282C119.886 53.6228 119.348 53.2761 118.782 53.0135V50.6806L117.754 50.3058V52.6387C117.178 52.4857 116.628 52.4398 116.123 52.4883L114.981 50.061L114.088 50.2421L115.235 52.6846C113.943 53.1537 113.101 54.3699 113.101 56.0858L114.129 56.4606C114.129 54.1787 115.985 52.9982 118.267 53.8294C120.549 54.6605 122.405 57.1923 122.405 59.4742L123.432 59.849C123.432 58.1229 122.578 56.2846 121.273 54.8696V54.867Z" fill="#13203D" stroke="#E9ECFF" stroke-width="0.122549" stroke-miterlimit="23.8"/>
<path d="M118.264 60.4619C116.888 59.9622 115.768 58.4324 115.768 57.0582C115.768 55.6839 116.888 54.9701 118.264 55.4698C119.641 55.9721 120.76 57.4993 120.76 58.8735C120.76 60.2477 119.641 60.9616 118.264 60.4619ZM118.264 54.4423C116.322 53.736 114.741 54.7406 114.741 56.6834C114.741 58.4503 116.051 60.3905 117.749 61.2599V63.5954L118.772 63.9702V61.6322C120.475 62.0019 121.785 61.0152 121.785 59.2458C121.785 57.3029 120.205 55.1485 118.262 54.4397L118.264 54.4423Z" fill="#13203D" stroke="#E9ECFF" stroke-width="0.122549" stroke-miterlimit="23.8"/>
<path d="M121.262 54.8749L122.43 53.3018L121.543 52.4604L120.372 54.036C119.875 53.6307 119.337 53.2839 118.771 53.0213V50.6884L117.744 50.3136V52.6465C117.168 52.4935 116.617 52.4476 116.112 52.4961L114.97 50.0688L114.077 50.2499L115.225 52.6924C113.932 53.1615 113.091 54.3777 113.091 56.0936L114.118 56.4684C114.118 54.1865 115.974 53.006 118.256 53.8372C120.538 54.6683 122.394 57.2001 122.394 59.482L123.422 59.8568C123.422 58.1307 122.568 56.2924 121.262 54.8774V54.8749Z" fill="#13203D" stroke="#E9ECFF" stroke-width="0.122549" stroke-miterlimit="23.8"/>
<path d="M118.252 60.4673C116.875 59.9676 115.756 58.4378 115.756 57.0636C115.756 55.6893 116.875 54.9754 118.252 55.4752C119.628 55.9774 120.748 57.5046 120.748 58.8789C120.748 60.2531 119.628 60.967 118.252 60.4673ZM118.252 54.4477C116.309 53.7414 114.728 54.746 114.728 56.6888C114.728 58.4556 116.039 60.3959 117.737 61.2653V63.6008L118.759 63.9755V61.6376C120.462 62.0072 121.773 61.0206 121.773 59.2511C121.773 57.3083 120.192 55.1539 118.249 54.4451L118.252 54.4477Z" fill="#13203D" stroke="#E9ECFF" stroke-width="0.122549" stroke-miterlimit="23.8"/>
<path d="M121.255 54.8793L122.422 53.3061L121.535 52.4648L120.365 54.0404C119.868 53.635 119.33 53.2883 118.764 53.0257V50.6928L117.736 50.318V52.6509C117.16 52.4979 116.609 52.452 116.104 52.5005L114.962 50.0732L114.07 50.2543L115.217 52.6968C113.925 53.1659 113.083 54.3821 113.083 56.098L114.111 56.4728C114.111 54.1909 115.967 53.0104 118.249 53.8416C120.531 54.6727 122.387 57.2045 122.387 59.4864L123.414 59.8612C123.414 58.1351 122.56 56.2968 121.255 54.8818V54.8793Z" fill="#13203D" stroke="#E9ECFF" stroke-width="0.122549" stroke-miterlimit="23.8"/>
<path d="M118.242 60.4771C116.865 59.9773 115.745 58.4476 115.745 57.0733C115.745 55.6991 116.865 54.9852 118.242 55.4849C119.618 55.9872 120.738 57.5144 120.738 58.8886C120.738 60.2629 119.618 60.9768 118.242 60.4771ZM118.242 54.4574C116.299 53.7512 114.718 54.7557 114.718 56.6985C114.718 58.4654 116.028 60.4057 117.726 61.2751V63.6105L118.749 63.9853V61.6473C120.452 62.017 121.763 61.0303 121.763 59.2609C121.763 57.3181 120.182 55.1637 118.239 54.4549L118.242 54.4574Z" fill="#13203D" stroke="#E9ECFF" stroke-width="0.122549" stroke-miterlimit="23.8"/>
<path d="M121.247 54.8895L122.415 53.3164L121.528 52.475L120.357 54.0507C119.86 53.6453 119.322 53.2986 118.756 53.0359V50.703L117.729 50.3283V52.6612C117.152 52.5082 116.602 52.4623 116.097 52.5107L114.955 50.0835L114.062 50.2645L115.21 52.707C113.917 53.1762 113.076 54.3923 113.076 56.1082L114.103 56.483C114.103 54.2011 115.959 53.0206 118.241 53.8518C120.523 54.683 122.379 57.2148 122.379 59.4967L123.407 59.8714C123.407 58.1454 122.552 56.3071 121.247 54.8921V54.8895Z" fill="#13203D" stroke="#E9ECFF" stroke-width="0.122549" stroke-miterlimit="23.8"/>
<path d="M118.235 60.4839C116.859 59.9842 115.739 58.4544 115.739 57.0802C115.739 55.7059 116.859 54.992 118.235 55.4918C119.612 55.994 120.731 57.5212 120.731 58.8955C120.731 60.2697 119.612 60.9836 118.235 60.4839ZM118.235 54.4643C116.292 53.758 114.712 54.7626 114.712 56.7054C114.712 58.4722 116.022 60.4125 117.72 61.2819V63.6174L118.743 63.9921V61.6542C120.446 62.0239 121.756 61.0372 121.756 59.2677C121.756 57.3249 120.176 55.1705 118.233 54.4617L118.235 54.4643Z" fill="#13203D" stroke="#E9ECFF" stroke-width="0.122549" stroke-miterlimit="23.8"/>
<path d="M121.233 54.9007L122.401 53.3276L121.514 52.4863L120.343 54.0619C119.846 53.6565 119.308 53.3098 118.742 53.0472V50.7143L117.715 50.3395V52.6724C117.139 52.5194 116.588 52.4735 116.083 52.522L114.941 50.0947L114.048 50.2758L115.196 52.7183C113.903 53.1874 113.062 54.4036 113.062 56.1195L114.089 56.4942C114.089 54.2123 115.945 53.0319 118.227 53.863C120.509 54.6942 122.365 57.226 122.365 59.5079L123.393 59.8827C123.393 58.1566 122.539 56.3183 121.233 54.9033V54.9007Z" fill="#13203D" stroke="#E9ECFF" stroke-width="0.122549" stroke-miterlimit="23.8"/>
<path d="M118.219 60.4927C116.843 59.993 115.723 58.4632 115.723 57.0889C115.723 55.7147 116.843 55.0008 118.219 55.5005C119.596 56.0028 120.716 57.53 120.716 58.9043C120.716 60.2785 119.596 60.9924 118.219 60.4927V60.4927ZM118.219 54.473C116.277 53.7668 114.696 54.7714 114.696 56.7142C114.696 58.481 116.006 60.4213 117.704 61.2907V63.6261L118.727 64.0009V61.6629C120.43 62.0326 121.74 61.0459 121.74 59.2765C121.74 57.3337 120.16 55.1793 118.217 54.4705L118.219 54.473Z" fill="#13203D" stroke="#E9ECFF" stroke-width="0.122549" stroke-miterlimit="23.8"/>
<path d="M121.222 54.9066L122.39 53.3335L121.503 52.4921L120.333 54.0678C119.835 53.6624 119.298 53.3156 118.731 53.053V50.7201L117.704 50.3454V52.6782C117.128 52.5253 116.577 52.4794 116.072 52.5278L114.93 50.1006L114.038 50.2816L115.185 52.7241C113.892 53.1933 113.051 54.4094 113.051 56.1253L114.078 56.5001C114.078 54.2182 115.935 53.0377 118.216 53.8689C120.498 54.7001 122.354 57.2318 122.354 59.5137L123.382 59.8885C123.382 58.1625 122.528 56.3242 121.222 54.9091V54.9066Z" fill="#13203D" stroke="#E9ECFF" stroke-width="0.122549" stroke-miterlimit="23.8"/>
<path d="M118.204 60.4995C116.828 59.9998 115.708 58.47 115.708 57.0958C115.708 55.7215 116.828 55.0077 118.204 55.5074C119.581 56.0097 120.7 57.5369 120.7 58.9111C120.7 60.2853 119.581 60.9992 118.204 60.4995V60.4995ZM118.204 54.4799C116.262 53.7736 114.681 54.7782 114.681 56.721C114.681 58.4879 115.991 60.4281 117.689 61.2975V63.633L118.712 64.0078V61.6698C120.415 62.0395 121.725 61.0528 121.725 59.2833C121.725 57.3405 120.145 55.1861 118.202 54.4773L118.204 54.4799Z" fill="#13203D" stroke="#E9ECFF" stroke-width="0.122549" stroke-miterlimit="23.8"/>
<path d="M121.207 54.9129L122.375 53.3398L121.488 52.4985L120.318 54.0741C119.82 53.6687 119.282 53.322 118.716 53.0594V50.7265L117.689 50.3517V52.6846C117.113 52.5316 116.562 52.4857 116.057 52.5342L114.915 50.1069L114.023 50.288L115.17 52.7305C113.877 53.1996 113.036 54.4158 113.036 56.1317L114.063 56.5065C114.063 54.2246 115.919 53.0441 118.201 53.8753C120.483 54.7064 122.339 57.2382 122.339 59.5201L123.367 59.8949C123.367 58.1688 122.513 56.3305 121.207 54.9155V54.9129Z" fill="#13203D" stroke="#E9ECFF" stroke-width="0.122549" stroke-miterlimit="23.8"/>
<path d="M118.194 60.5171C116.817 60.0174 115.698 58.4876 115.698 57.1134C115.698 55.7391 116.817 55.0252 118.194 55.525C119.571 56.0272 120.69 57.5544 120.69 58.9287C120.69 60.3029 119.571 61.0168 118.194 60.5171ZM118.194 54.4975C116.251 53.7912 114.671 54.7958 114.671 56.7386C114.671 58.5054 115.981 60.4457 117.679 61.3151V63.6506L118.702 64.0254V61.6874C120.405 62.0571 121.715 61.0704 121.715 59.3009C121.715 57.3581 120.134 55.2037 118.192 54.4949L118.194 54.4975Z" fill="#13203D" stroke="#E9ECFF" stroke-width="0.122549" stroke-miterlimit="23.8"/>
<path d="M121.2 54.9256L122.368 53.3525L121.48 52.5112L120.31 54.0868C119.813 53.6814 119.275 53.3347 118.709 53.0721V50.7392L117.681 50.3644V52.6973C117.105 52.5443 116.554 52.4984 116.05 52.5469L114.907 50.1196L114.015 50.3007L115.162 52.7432C113.87 53.2123 113.028 54.4285 113.028 56.1444L114.056 56.5191C114.056 54.2372 115.912 53.0568 118.194 53.888C120.476 54.7191 122.332 57.2509 122.332 59.5328L123.359 59.9076C123.359 58.1815 122.505 56.3432 121.2 54.9282V54.9256Z" fill="#13203D" stroke="#E9ECFF" stroke-width="0.122549" stroke-miterlimit="23.8"/>
<path d="M118.191 60.5264C116.814 60.0266 115.695 58.4969 115.695 57.1226C115.695 55.7484 116.814 55.0345 118.191 55.5342C119.568 56.0365 120.687 57.5637 120.687 58.938C120.687 60.3122 119.568 61.0261 118.191 60.5264V60.5264ZM118.191 54.5067C116.248 53.8005 114.668 54.805 114.668 56.7478C114.668 58.5147 115.978 60.455 117.676 61.3244V63.6598L118.699 64.0346V61.6966C120.402 62.0663 121.712 61.0796 121.712 59.3102C121.712 57.3674 120.131 55.213 118.189 54.5042L118.191 54.5067Z" fill="#13203D" stroke="#E9ECFF" stroke-width="0.122549" stroke-miterlimit="23.8"/>
<path d="M121.189 54.9398L122.357 53.3667L121.469 52.5253L120.299 54.101C119.802 53.6956 119.264 53.3488 118.698 53.0862V50.7533L117.671 50.3785V52.7114C117.094 52.5585 116.544 52.5126 116.039 52.561L114.897 50.1338L114.004 50.3148L115.152 52.7573C113.859 53.2265 113.018 54.4426 113.018 56.1585L114.045 56.5333C114.045 54.2514 115.901 53.0709 118.183 53.9021C120.465 54.7333 122.321 57.265 122.321 59.5469L123.349 59.9217C123.349 58.1957 122.494 56.3574 121.189 54.9424V54.9398Z" fill="#13203D" stroke="#E9ECFF" stroke-width="0.122549" stroke-miterlimit="23.8"/>
<path d="M118.182 60.5313C116.806 60.0315 115.686 58.5018 115.686 57.1275C115.686 55.7533 116.806 55.0394 118.182 55.5391C119.559 56.0414 120.678 57.5686 120.678 58.9428C120.678 60.3171 119.559 61.031 118.182 60.5313ZM118.182 54.5116C116.24 53.8054 114.659 54.8099 114.659 56.7527C114.659 58.5196 115.969 60.4599 117.667 61.3293V63.6647L118.69 64.0395V61.7015C120.393 62.0712 121.703 61.0845 121.703 59.3151C121.703 57.3723 120.123 55.2179 118.18 54.5091L118.182 54.5116Z" fill="#13203D" stroke="#E9ECFF" stroke-width="0.122549" stroke-miterlimit="23.8"/>
<path d="M121.18 54.9408L122.348 53.3677L121.461 52.5263L120.29 54.102C119.793 53.6966 119.255 53.3498 118.689 53.0872V50.7543L117.662 50.3795V52.7124C117.086 52.5594 116.535 52.5136 116.03 52.562L114.888 50.1348L113.995 50.3158L115.143 52.7583C113.85 53.2274 113.009 54.4436 113.009 56.1595L114.036 56.5343C114.036 54.2524 115.892 53.0719 118.174 53.9031C120.456 54.7343 122.312 57.266 122.312 59.5479L123.34 59.9227C123.34 58.1966 122.486 56.3584 121.18 54.9433V54.9408Z" fill="#13203D" stroke="#E9ECFF" stroke-width="0.122549" stroke-miterlimit="23.8"/>
<path d="M118.163 60.5332C116.787 60.0335 115.667 58.5037 115.667 57.1295C115.667 55.7552 116.787 55.0413 118.163 55.5411C119.54 56.0433 120.659 57.5706 120.659 58.9448C120.659 60.319 119.54 61.0329 118.163 60.5332ZM118.163 54.5136C116.221 53.8073 114.64 54.8119 114.64 56.7547C114.64 58.5216 115.95 60.4618 117.648 61.3312V63.6667L118.671 64.0415V61.7035C120.374 62.0732 121.684 61.0865 121.684 59.317C121.684 57.3742 120.104 55.2198 118.161 54.511L118.163 54.5136Z" fill="#13203D" stroke="#E9ECFF" stroke-width="0.122549" stroke-miterlimit="23.8"/>
<path d="M121.166 54.9466L122.334 53.3735L121.447 52.5322L120.277 54.1078C119.779 53.7024 119.241 53.3557 118.675 53.0931V50.7602L117.648 50.3854V52.7183C117.072 52.5653 116.521 52.5194 116.016 52.5679L114.874 50.1406L113.982 50.3216L115.129 52.7642C113.836 53.2333 112.995 54.4495 112.995 56.1654L114.022 56.5401C114.022 54.2582 115.878 53.0778 118.16 53.9089C120.442 54.7401 122.298 57.2719 122.298 59.5538L123.326 59.9286C123.326 58.2025 122.472 56.3642 121.166 54.9492V54.9466Z" fill="#13203D" stroke="#E9ECFF" stroke-width="0.122549" stroke-miterlimit="23.8"/>
<path d="M118.153 60.5503C116.776 60.0506 115.657 58.5208 115.657 57.1466C115.657 55.7723 116.776 55.0584 118.153 55.5582C119.53 56.0604 120.649 57.5876 120.649 58.9619C120.649 60.3361 119.53 61.05 118.153 60.5503V60.5503ZM118.153 54.5307C116.21 53.8244 114.63 54.829 114.63 56.7718C114.63 58.5387 115.94 60.4789 117.638 61.3483V63.6838L118.661 64.0586V61.7206C120.364 62.0903 121.674 61.1036 121.674 59.3341C121.674 57.3913 120.093 55.2369 118.151 54.5281L118.153 54.5307Z" fill="#13203D" stroke="#E9ECFF" stroke-width="0.122549" stroke-miterlimit="23.8"/>
<path d="M121.159 54.9627L122.327 53.3896L121.439 52.5483L120.269 54.1239C119.772 53.7185 119.234 53.3718 118.668 53.1092V50.7763L117.64 50.4015V52.7344C117.064 52.5814 116.513 52.5355 116.009 52.584L114.866 50.1567L113.974 50.3378L115.121 52.7803C113.829 53.2494 112.987 54.4656 112.987 56.1815L114.015 56.5563C114.015 54.2744 115.871 53.0939 118.153 53.9251C120.435 54.7562 122.291 57.288 122.291 59.5699L123.318 59.9447C123.318 58.2186 122.464 56.3803 121.159 54.9653V54.9627Z" fill="#13203D" stroke="#E9ECFF" stroke-width="0.122549" stroke-miterlimit="23.8"/>
<path d="M118.149 60.5522C116.772 60.0525 115.653 58.5228 115.653 57.1485C115.653 55.7743 116.772 55.0604 118.149 55.5601C119.526 56.0624 120.645 57.5896 120.645 58.9638C120.645 60.3381 119.526 61.052 118.149 60.5522ZM118.149 54.5326C116.206 53.8264 114.625 54.8309 114.625 56.7737C114.625 58.5406 115.936 60.4809 117.634 61.3503V63.6857L118.656 64.0605V61.7225C120.359 62.0922 121.67 61.1055 121.67 59.3361C121.67 57.3933 120.089 55.2389 118.146 54.5301L118.149 54.5326Z" fill="#13203D" stroke="#E9ECFF" stroke-width="0.122549" stroke-miterlimit="23.8"/>
<path d="M121.147 54.9691L122.315 53.396L121.427 52.5546L120.257 54.1303C119.76 53.7249 119.222 53.3781 118.656 53.1155V50.7826L117.628 50.4078V52.7407C117.052 52.5878 116.501 52.5419 115.997 52.5903L114.854 50.1631L113.962 50.3441L115.109 52.7866C113.817 53.2558 112.975 54.4719 112.975 56.1878L114.003 56.5626C114.003 54.2807 115.859 53.1002 118.141 53.9314C120.423 54.7626 122.279 57.2943 122.279 59.5762L123.306 59.951C123.306 58.225 122.452 56.3867 121.147 54.9716V54.9691Z" fill="#13203D" stroke="#E9ECFF" stroke-width="0.122549" stroke-miterlimit="23.8"/>
<path d="M118.131 60.561C116.754 60.0613 115.634 58.5315 115.634 57.1573C115.634 55.7831 116.754 55.0692 118.131 55.5689C119.507 56.0712 120.627 57.5984 120.627 58.9726C120.627 60.3469 119.507 61.0608 118.131 60.561ZM118.131 54.5414C116.188 53.8352 114.607 54.8397 114.607 56.7825C114.607 58.5494 115.917 60.4896 117.616 61.3591V63.6945L118.638 64.0693V61.7313C120.341 62.101 121.652 61.1143 121.652 59.3449C121.652 57.4021 120.071 55.2477 118.128 54.5389L118.131 54.5414Z" fill="#13203D" stroke="#E9ECFF" stroke-width="0.122549" stroke-miterlimit="23.8"/>
<path d="M121.136 54.9735L122.304 53.4004L121.417 52.559L120.246 54.1347C119.749 53.7293 119.211 53.3825 118.645 53.1199V50.787L117.618 50.4122V52.7451C117.042 52.5922 116.491 52.5463 115.986 52.5947L114.844 50.1675L113.951 50.3485L115.099 52.791C113.806 53.2602 112.965 54.4763 112.965 56.1922L113.992 56.567C113.992 54.2851 115.848 53.1046 118.13 53.9358C120.412 54.767 122.268 57.2987 122.268 59.5806L123.296 59.9554C123.296 58.2293 122.442 56.3911 121.136 54.976V54.9735Z" fill="#13203D" stroke="#E9ECFF" stroke-width="0.122549" stroke-miterlimit="23.8"/>
<path d="M118.126 60.5664C116.749 60.0667 115.63 58.5369 115.63 57.1627C115.63 55.7884 116.749 55.0745 118.126 55.5743C119.503 56.0765 120.622 57.6038 120.622 58.978C120.622 60.3522 119.503 61.0661 118.126 60.5664V60.5664ZM118.126 54.5468C116.183 53.8405 114.603 54.8451 114.603 56.7879C114.603 58.5548 115.913 60.495 117.611 61.3644V63.6999L118.634 64.0747V61.7367C120.337 62.1064 121.647 61.1197 121.647 59.3502C121.647 57.4074 120.067 55.253 118.124 54.5442L118.126 54.5468Z" fill="#13203D" stroke="#E9ECFF" stroke-width="0.122549" stroke-miterlimit="23.8"/>
<path d="M121.124 54.9789L122.292 53.4058L121.405 52.5644L120.234 54.14C119.737 53.7347 119.199 53.3879 118.633 53.1253V50.7924L117.606 50.4176V52.7505C117.03 52.5975 116.479 52.5516 115.974 52.6001L114.832 50.1729L113.939 50.3539L115.087 52.7964C113.794 53.2655 112.953 54.4817 112.953 56.1976L113.98 56.5724C113.98 54.2905 115.836 53.11 118.118 53.9412C120.4 54.7723 122.256 57.3041 122.256 59.586L123.284 59.9608C123.284 58.2347 122.43 56.3964 121.124 54.9814V54.9789Z" fill="#13203D" stroke="#E9ECFF" stroke-width="0.122549" stroke-miterlimit="23.8"/>
<path d="M118.116 60.585C116.739 60.0852 115.619 58.5555 115.619 57.1812C115.619 55.807 116.739 55.0931 118.116 55.5928C119.492 56.0951 120.612 57.6223 120.612 58.9966C120.612 60.3708 119.492 61.0847 118.116 60.585ZM118.116 54.5653C116.173 53.8591 114.592 54.8636 114.592 56.8064C114.592 58.5733 115.902 60.5136 117.601 61.383V63.7184L118.623 64.0932V61.7552C120.326 62.1249 121.637 61.1382 121.637 59.3688C121.637 57.426 120.056 55.2716 118.113 54.5628L118.116 54.5653Z" fill="#13203D" stroke="#E9ECFF" stroke-width="0.122549" stroke-miterlimit="23.8"/>
<path d="M121.113 54.9979L122.281 53.4248L121.394 52.5834L120.224 54.1591C119.726 53.7537 119.188 53.407 118.622 53.1443V50.8115L117.595 50.4367V52.7695C117.019 52.6166 116.468 52.5707 115.963 52.6191L114.821 50.1919L113.929 50.3729L115.076 52.8154C113.783 53.2846 112.942 54.5007 112.942 56.2166L113.969 56.5914C113.969 54.3095 115.826 53.129 118.107 53.9602C120.389 54.7914 122.245 57.3232 122.245 59.6051L123.273 59.9798C123.273 58.2538 122.419 56.4155 121.113 55.0005V54.9979Z" fill="#13203D" stroke="#E9ECFF" stroke-width="0.122549" stroke-miterlimit="23.8"/>
<path d="M118.097 60.5903C116.72 60.0906 115.6 58.5608 115.6 57.1866C115.6 55.8124 116.72 55.0985 118.097 55.5982C119.473 56.1005 120.593 57.6277 120.593 59.0019C120.593 60.3762 119.473 61.0901 118.097 60.5903V60.5903ZM118.097 54.5707C116.154 53.8645 114.573 54.869 114.573 56.8118C114.573 58.5787 115.883 60.5189 117.581 61.3884V63.7238L118.604 64.0986V61.7606C120.307 62.1303 121.618 61.1436 121.618 59.3742C121.618 57.4314 120.037 55.2769 118.094 54.5682L118.097 54.5707Z" fill="#13203D" stroke="#E9ECFF" stroke-width="0.122549" stroke-miterlimit="23.8"/>
<path d="M121.1 55.0038L122.267 53.4307L121.38 52.5893L120.21 54.1649C119.713 53.7596 119.175 53.4128 118.609 53.1502V50.8173L117.581 50.4425V52.7754C117.005 52.6224 116.454 52.5765 115.949 52.625L114.807 50.1978L113.915 50.3788L115.062 52.8213C113.769 53.2904 112.928 54.5066 112.928 56.2225L113.956 56.5973C113.956 54.3154 115.812 53.1349 118.094 53.9661C120.375 54.7972 122.232 57.329 122.232 59.6109L123.259 59.9857C123.259 58.2596 122.405 56.4214 121.1 55.0063V55.0038Z" fill="#13203D" stroke="#E9ECFF" stroke-width="0.122549" stroke-miterlimit="23.8"/>
<path d="M118.09 60.5942C116.713 60.0945 115.594 58.5647 115.594 57.1905C115.594 55.8163 116.713 55.1024 118.09 55.6021C119.466 56.1044 120.586 57.6316 120.586 59.0058C120.586 60.3801 119.466 61.094 118.09 60.5942V60.5942ZM118.09 54.5746C116.147 53.8684 114.566 54.8729 114.566 56.8157C114.566 58.5826 115.877 60.5228 117.575 61.3923V63.7277L118.597 64.1025V61.7645C120.3 62.1342 121.611 61.1475 121.611 59.3781C121.611 57.4353 120.03 55.2809 118.087 54.5721L118.09 54.5746Z" fill="#13203D" stroke="#E9ECFF" stroke-width="0.122549" stroke-miterlimit="23.8"/>
<path d="M121.088 55.0072L122.255 53.4341L121.368 52.5927L120.198 54.1684C119.701 53.763 119.163 53.4162 118.597 53.1536V50.8207L117.569 50.4459V52.7788C116.993 52.6259 116.442 52.58 115.937 52.6284L114.795 50.2012L113.903 50.3822L115.05 52.8247C113.757 53.2939 112.916 54.51 112.916 56.2259L113.944 56.6007C113.944 54.3188 115.8 53.1383 118.082 53.9695C120.363 54.8007 122.22 57.3324 122.22 59.6143L123.247 59.9891C123.247 58.263 122.393 56.4248 121.088 55.0097V55.0072Z" fill="#13203D" stroke="#E9ECFF" stroke-width="0.122549" stroke-miterlimit="23.8"/>
<path d="M118.087 60.6011C116.71 60.1014 115.59 58.5716 115.59 57.1973C115.59 55.8231 116.71 55.1092 118.087 55.6089C119.463 56.1112 120.583 57.6384 120.583 59.0127C120.583 60.3869 119.463 61.1008 118.087 60.6011ZM118.087 54.5814C116.144 53.8752 114.563 54.8798 114.563 56.8226C114.563 58.5894 115.873 60.5297 117.571 61.3991V63.7345L118.594 64.1093V61.7713C120.297 62.141 121.608 61.1543 121.608 59.3849C121.608 57.4421 120.027 55.2877 118.084 54.5789L118.087 54.5814Z" fill="#13203D" stroke="#E9ECFF" stroke-width="0.122549" stroke-miterlimit="23.8"/>
<path d="M121.084 55.0145L122.252 53.4414L121.365 52.6L120.195 54.1757C119.697 53.7703 119.159 53.4236 118.593 53.1609V50.8281L117.566 50.4533V52.7862C116.99 52.6332 116.439 52.5873 115.934 52.6357L114.792 50.2085L113.9 50.3895L115.047 52.832C113.754 53.3012 112.913 54.5173 112.913 56.2332L113.94 56.608C113.94 54.3261 115.797 53.1456 118.078 53.9768C120.36 54.808 122.216 57.3398 122.216 59.6217L123.244 59.9964C123.244 58.2704 122.39 56.4321 121.084 55.0171V55.0145Z" fill="#13203D" stroke="#E9ECFF" stroke-width="0.122549" stroke-miterlimit="23.8"/>
<path d="M118.071 60.6123C116.695 60.1126 115.575 58.5828 115.575 57.2086C115.575 55.8343 116.695 55.1204 118.071 55.6202C119.448 56.1224 120.567 57.6497 120.567 59.0239C120.567 60.3981 119.448 61.112 118.071 60.6123ZM118.071 54.5927C116.129 53.8864 114.548 54.891 114.548 56.8338C114.548 58.6007 115.858 60.5409 117.556 61.4103V63.7458L118.579 64.1206V61.7826C120.282 62.1523 121.592 61.1656 121.592 59.3961C121.592 57.4533 120.012 55.2989 118.069 54.5901L118.071 54.5927Z" fill="#13203D" stroke="#E9ECFF" stroke-width="0.122549" stroke-miterlimit="23.8"/>
<path d="M121.069 55.0248L122.237 53.4517L121.35 52.6103L120.179 54.1859C119.682 53.7806 119.144 53.4338 118.578 53.1712V50.8383L117.551 50.4635V52.7964C116.975 52.6434 116.424 52.5975 115.919 52.646L114.777 50.2188L113.884 50.3998L115.032 52.8423C113.739 53.3114 112.898 54.5276 112.898 56.2435L113.925 56.6183C113.925 54.3364 115.781 53.1559 118.063 53.9871C120.345 54.8182 122.201 57.35 122.201 59.6319L123.229 60.0067C123.229 58.2806 122.375 56.4423 121.069 55.0273V55.0248Z" fill="#13203D" stroke="#E9ECFF" stroke-width="0.122549" stroke-miterlimit="23.8"/>
<path d="M118.054 60.6172C116.678 60.1175 115.558 58.5877 115.558 57.2135C115.558 55.8392 116.678 55.1253 118.054 55.6251C119.431 56.1273 120.55 57.6545 120.55 59.0288C120.55 60.403 119.431 61.1169 118.054 60.6172ZM118.054 54.5976C116.112 53.8913 114.531 54.8959 114.531 56.8387C114.531 58.6055 115.841 60.5458 117.539 61.4152V63.7507L118.562 64.1255V61.7875C120.265 62.1572 121.575 61.1705 121.575 59.401C121.575 57.4582 119.995 55.3038 118.052 54.595L118.054 54.5976Z" fill="#13203D" stroke="#E9ECFF" stroke-width="0.122549" stroke-miterlimit="23.8"/>
<path d="M121.057 55.034L122.225 53.4609L121.338 52.6196L120.168 54.1952C119.67 53.7898 119.132 53.4431 118.566 53.1805V50.8476L117.539 50.4728V52.8057C116.963 52.6527 116.412 52.6068 115.907 52.6553L114.765 50.228L113.873 50.4091L115.02 52.8516C113.727 53.3207 112.886 54.5369 112.886 56.2528L113.913 56.6275C113.913 54.3456 115.769 53.1652 118.051 53.9963C120.333 54.8275 122.189 57.3593 122.189 59.6412L123.217 60.016C123.217 58.2899 122.363 56.4516 121.057 55.0366V55.034Z" fill="#13203D" stroke="#E9ECFF" stroke-width="0.122549" stroke-miterlimit="23.8"/>
<path d="M118.046 60.625C116.669 60.1253 115.549 58.5955 115.549 57.2213C115.549 55.847 116.669 55.1331 118.046 55.6329C119.422 56.1351 120.542 57.6624 120.542 59.0366C120.542 60.4108 119.422 61.1247 118.046 60.625ZM118.046 54.6054C116.103 53.8991 114.522 54.9037 114.522 56.8465C114.522 58.6134 115.832 60.5536 117.531 61.423V63.7585L118.553 64.1333V61.7953C120.256 62.165 121.567 61.1783 121.567 59.4088C121.567 57.466 119.986 55.3116 118.043 54.6028L118.046 54.6054Z" fill="#13203D" stroke="#E9ECFF" stroke-width="0.122549" stroke-miterlimit="23.8"/>
<path d="M121.043 55.037L122.211 53.4639L121.324 52.6225L120.154 54.1981C119.656 53.7928 119.118 53.446 118.552 53.1834V50.8505L117.525 50.4757V52.8086C116.949 52.6556 116.398 52.6097 115.893 52.6582L114.751 50.231L113.859 50.412L115.006 52.8545C113.713 53.3236 112.872 54.5398 112.872 56.2557L113.899 56.6305C113.899 54.3486 115.756 53.1681 118.037 53.9993C120.319 54.8305 122.175 57.3622 122.175 59.6441L123.203 60.0189C123.203 58.2928 122.349 56.4546 121.043 55.0395V55.037Z" fill="#13203D" stroke="#E9ECFF" stroke-width="0.122549" stroke-miterlimit="23.8"/>
<path d="M118.037 60.6343C116.66 60.1346 115.541 58.6048 115.541 57.2305C115.541 55.8563 116.66 55.1424 118.037 55.6421C119.414 56.1444 120.533 57.6716 120.533 59.0459C120.533 60.4201 119.414 61.134 118.037 60.6343V60.6343ZM118.037 54.6147C116.094 53.9084 114.513 54.913 114.513 56.8558C114.513 58.6226 115.824 60.5629 117.522 61.4323V63.7677L118.544 64.1425V61.8045C120.247 62.1742 121.558 61.1875 121.558 59.4181C121.558 57.4753 119.977 55.3209 118.034 54.6121L118.037 54.6147Z" fill="#13203D" stroke="#E9ECFF" stroke-width="0.122549" stroke-miterlimit="23.8"/>
<path d="M121.035 55.0462L122.202 53.4731L121.315 52.6318L120.145 54.2074C119.648 53.802 119.11 53.4553 118.544 53.1927V50.8598L117.516 50.485V52.8179C116.94 52.6649 116.389 52.619 115.884 52.6675L114.742 50.2402L113.85 50.4213L114.997 52.8638C113.705 53.3329 112.863 54.5491 112.863 56.265L113.891 56.6398C113.891 54.3579 115.747 53.1774 118.029 54.0086C120.311 54.8397 122.167 57.3715 122.167 59.6534L123.194 60.0282C123.194 58.3021 122.34 56.4638 121.035 55.0488V55.0462Z" fill="#13203D" stroke="#E9ECFF" stroke-width="0.122549" stroke-miterlimit="23.8"/>
<path d="M118.034 60.6494C116.657 60.1497 115.538 58.6199 115.538 57.2457C115.538 55.8714 116.657 55.1576 118.034 55.6573C119.41 56.1596 120.53 57.6868 120.53 59.061C120.53 60.4352 119.41 61.1491 118.034 60.6494V60.6494ZM118.034 54.6298C116.091 53.9235 114.51 54.9281 114.51 56.8709C114.51 58.6378 115.821 60.578 117.519 61.4474V63.7829L118.541 64.1577V61.8197C120.244 62.1894 121.555 61.2027 121.555 59.4333C121.555 57.4904 119.974 55.336 118.031 54.6272L118.034 54.6298Z" fill="#13203D" stroke="#E9ECFF" stroke-width="0.122549" stroke-miterlimit="23.8"/>
<path d="M121.031 55.0628L122.199 53.4897L121.312 52.6484L120.142 54.224C119.645 53.8186 119.107 53.4719 118.541 53.2093V50.8764L117.513 50.5016V52.8345C116.937 52.6815 116.386 52.6356 115.881 52.6841L114.739 50.2568L113.847 50.4379L114.994 52.8804C113.701 53.3495 112.86 54.5657 112.86 56.2816L113.887 56.6564C113.887 54.3745 115.744 53.194 118.026 54.0252C120.307 54.8563 122.164 57.3881 122.164 59.67L123.191 60.0448C123.191 58.3187 122.337 56.4804 121.031 55.0654V55.0628Z" fill="#13203D" stroke="#E9ECFF" stroke-width="0.122549" stroke-miterlimit="23.8"/>
<path d="M118.012 60.6543C116.635 60.1546 115.516 58.6248 115.516 57.2506C115.516 55.8763 116.635 55.1624 118.012 55.6622C119.389 56.1644 120.508 57.6917 120.508 59.0659C120.508 60.4401 119.389 61.154 118.012 60.6543ZM118.012 54.6347C116.069 53.9284 114.488 54.933 114.488 56.8758C114.488 58.6427 115.799 60.5829 117.497 61.4523V63.7878L118.519 64.1626V61.8246C120.223 62.1943 121.533 61.2076 121.533 59.4381C121.533 57.4953 119.952 55.3409 118.009 54.6321L118.012 54.6347Z" fill="#13203D" stroke="#E9ECFF" stroke-width="0.122549" stroke-miterlimit="23.8"/>
<path d="M121.018 55.0682L122.185 53.4951L121.298 52.6537L120.128 54.2294C119.631 53.824 119.093 53.4773 118.527 53.2147V50.8818L117.499 50.507V52.8399C116.923 52.6869 116.372 52.641 115.867 52.6894L114.725 50.2622L113.833 50.4432L114.98 52.8858C113.687 53.3549 112.846 54.571 112.846 56.2869L113.874 56.6617C113.874 54.3798 115.73 53.1994 118.012 54.0305C120.294 54.8617 122.15 57.3935 122.15 59.6754L123.177 60.0502C123.177 58.3241 122.323 56.4858 121.018 55.0708V55.0682Z" fill="#13203D" stroke="#E9ECFF" stroke-width="0.122549" stroke-miterlimit="23.8"/>
<path d="M117.998 60.6577C116.621 60.158 115.502 58.6282 115.502 57.254C115.502 55.8797 116.621 55.1659 117.998 55.6656C119.375 56.1679 120.494 57.6951 120.494 59.0693C120.494 60.4435 119.375 61.1574 117.998 60.6577V60.6577ZM117.998 54.6381C116.055 53.9318 114.475 54.9364 114.475 56.8792C114.475 58.6461 115.785 60.5863 117.483 61.4557V63.7912L118.506 64.166V61.828C120.209 62.1977 121.519 61.211 121.519 59.4416C121.519 57.4987 119.938 55.3443 117.996 54.6355L117.998 54.6381Z" fill="#13203D" stroke="#E9ECFF" stroke-width="0.122549" stroke-miterlimit="23.8"/>
<path d="M121.001 55.0702L122.169 53.4971L121.282 52.6557L120.111 54.2314C119.614 53.826 119.076 53.4792 118.51 53.2166V50.8837L117.483 50.5089V52.8418C116.907 52.6888 116.356 52.6429 115.851 52.6914L114.709 50.2642L113.816 50.4452L114.964 52.8877C113.671 53.3568 112.83 54.573 112.83 56.2889L113.857 56.6637C113.857 54.3818 115.713 53.2013 117.995 54.0325C120.277 54.8637 122.133 57.3954 122.133 59.6773L123.161 60.0521C123.161 58.326 122.307 56.4878 121.001 55.0727V55.0702Z" fill="#13203D" stroke="#E9ECFF" stroke-width="0.122549" stroke-miterlimit="23.8"/>
<path d="M117.989 60.6685C116.613 60.1687 115.493 58.639 115.493 57.2647C115.493 55.8905 116.613 55.1766 117.989 55.6763C119.366 56.1786 120.485 57.7058 120.485 59.0801C120.485 60.4543 119.366 61.1682 117.989 60.6685ZM117.989 54.6488C116.047 53.9426 114.466 54.9471 114.466 56.8899C114.466 58.6568 115.776 60.5971 117.474 61.4665V63.8019L118.497 64.1767V61.8387C120.2 62.2084 121.51 61.2217 121.51 59.4523C121.51 57.5095 119.93 55.3551 117.987 54.6463L117.989 54.6488Z" fill="#13203D" stroke="#E9ECFF" stroke-width="0.122549" stroke-miterlimit="23.8"/>
<path d="M120.995 55.0853L122.163 53.5122L121.275 52.6708L120.105 54.2465C119.608 53.8411 119.07 53.4944 118.504 53.2317V50.8989L117.476 50.5241V52.857C116.9 52.704 116.35 52.6581 115.845 52.7065L114.702 50.2793L113.81 50.4603L114.957 52.9028C113.665 53.372 112.823 54.5881 112.823 56.304L113.851 56.6788C113.851 54.3969 115.707 53.2164 117.989 54.0476C120.271 54.8788 122.127 57.4106 122.127 59.6925L123.154 60.0672C123.154 58.3412 122.3 56.5029 120.995 55.0879V55.0853Z" fill="#13203D" stroke="#E9ECFF" stroke-width="0.122549" stroke-miterlimit="23.8"/>
<path d="M117.982 60.6797C116.605 60.18 115.486 58.6502 115.486 57.276C115.486 55.9017 116.605 55.1878 117.982 55.6876C119.359 56.1898 120.478 57.717 120.478 59.0913C120.478 60.4655 119.359 61.1794 117.982 60.6797ZM117.982 54.6601C116.039 53.9538 114.458 54.9584 114.458 56.9012C114.458 58.668 115.769 60.6083 117.467 61.4777V63.8132L118.489 64.1879V61.85C120.192 62.2197 121.503 61.233 121.503 59.4635C121.503 57.5207 119.922 55.3663 117.979 54.6575L117.982 54.6601Z" fill="#13203D" stroke="#E9ECFF" stroke-width="0.122549" stroke-miterlimit="23.8"/>
<path d="M120.987 55.0926L122.155 53.5195L121.268 52.6782L120.098 54.2538C119.6 53.8484 119.062 53.5017 118.496 53.2391V50.9062L117.469 50.5314V52.8643C116.893 52.7113 116.342 52.6654 115.837 52.7139L114.695 50.2866L113.803 50.4676L114.95 52.9102C113.657 53.3793 112.816 54.5955 112.816 56.3113L113.843 56.6861C113.843 54.4042 115.699 53.2238 117.981 54.0549C120.263 54.8861 122.119 57.4179 122.119 59.6998L123.147 60.0746C123.147 58.3485 122.293 56.5102 120.987 55.0952V55.0926Z" fill="#13203D" stroke="#E9ECFF" stroke-width="0.122549" stroke-miterlimit="23.8"/>
<path d="M117.967 60.6855C116.59 60.1858 115.471 58.6561 115.471 57.2818C115.471 55.9076 116.59 55.1937 117.967 55.6934C119.343 56.1957 120.463 57.7229 120.463 59.0971C120.463 60.4714 119.343 61.1853 117.967 60.6855V60.6855ZM117.967 54.6659C116.024 53.9597 114.443 54.9642 114.443 56.907C114.443 58.6739 115.754 60.6142 117.452 61.4836V63.819L118.474 64.1938V61.8558C120.177 62.2255 121.488 61.2388 121.488 59.4694C121.488 57.5266 119.907 55.3722 117.964 54.6634L117.967 54.6659Z" fill="#13203D" stroke="#E9ECFF" stroke-width="0.122549" stroke-miterlimit="23.8"/>
<path d="M120.972 55.1029L122.14 53.5298L121.253 52.6884L120.082 54.2641C119.585 53.8587 119.047 53.5119 118.481 53.2493V50.9164L117.454 50.5416V52.8745C116.878 52.7216 116.327 52.6757 115.822 52.7241L114.68 50.2969L113.787 50.4779L114.935 52.9204C113.642 53.3896 112.801 54.6057 112.801 56.3216L113.828 56.6964C113.828 54.4145 115.684 53.234 117.966 54.0652C120.248 54.8964 122.104 57.4281 122.104 59.71L123.132 60.0848C123.132 58.3587 122.278 56.5205 120.972 55.1054V55.1029Z" fill="#13203D" stroke="#E9ECFF" stroke-width="0.122549" stroke-miterlimit="23.8"/>
<path d="M117.967 60.6904C116.59 60.1907 115.471 58.6609 115.471 57.2867C115.471 55.9125 116.59 55.1986 117.967 55.6983C119.344 56.2006 120.463 57.7278 120.463 59.102C120.463 60.4763 119.344 61.1902 117.967 60.6904ZM117.967 54.6708C116.024 53.9646 114.443 54.9691 114.443 56.9119C114.443 58.6788 115.754 60.619 117.452 61.4885V63.8239L118.474 64.1987V61.8607C120.177 62.2304 121.488 61.2437 121.488 59.4743C121.488 57.5315 119.907 55.377 117.964 54.6683L117.967 54.6708Z" fill="#13203D" stroke="#E9ECFF" stroke-width="0.122549" stroke-miterlimit="23.8"/>
<path d="M120.965 55.1034L122.132 53.5303L121.245 52.6889L120.075 54.2646C119.578 53.8592 119.04 53.5124 118.474 53.2498V50.9169L117.446 50.5421V52.875C116.87 52.722 116.319 52.6761 115.814 52.7246L114.672 50.2974L113.78 50.4784L114.927 52.9209C113.634 53.39 112.793 54.6062 112.793 56.3221L113.821 56.6969C113.821 54.415 115.677 53.2345 117.959 54.0657C120.24 54.8969 122.097 57.4286 122.097 59.7105L123.124 60.0853C123.124 58.3592 122.27 56.521 120.965 55.1059V55.1034Z" fill="#13203D" stroke="#E9ECFF" stroke-width="0.122549" stroke-miterlimit="23.8"/>
<path d="M117.945 60.7017C116.568 60.2019 115.449 58.6722 115.449 57.2979C115.449 55.9237 116.568 55.2098 117.945 55.7095C119.322 56.2118 120.441 57.739 120.441 59.1133C120.441 60.4875 119.322 61.2014 117.945 60.7017ZM117.945 54.682C116.002 53.9758 114.422 54.9803 114.422 56.9231C114.422 58.69 115.732 60.6303 117.43 61.4997V63.8351L118.453 64.2099V61.8719C120.156 62.2416 121.466 61.2549 121.466 59.4855C121.466 57.5427 119.885 55.3883 117.943 54.6795L117.945 54.682Z" fill="#13203D" stroke="#E9ECFF" stroke-width="0.122549" stroke-miterlimit="23.8"/>
<path d="M120.951 55.1141L122.118 53.541L121.231 52.6996L120.061 54.2753C119.564 53.8699 119.026 53.5232 118.46 53.2606V50.9277L117.432 50.5529V52.8858C116.856 52.7328 116.305 52.6869 115.801 52.7353L114.658 50.3081L113.766 50.4891L114.913 52.9317C113.621 53.4008 112.779 54.6169 112.779 56.3328L113.807 56.7076C113.807 54.4257 115.663 53.2453 117.945 54.0764C120.227 54.9076 122.083 57.4394 122.083 59.7213L123.11 60.0961C123.11 58.37 122.256 56.5317 120.951 55.1167V55.1141Z" fill="#13203D" stroke="#E9ECFF" stroke-width="0.122549" stroke-miterlimit="23.8"/>
<path d="M117.936 60.7134C116.559 60.2137 115.44 58.6839 115.44 57.3097C115.44 55.9354 116.559 55.2215 117.936 55.7212C119.313 56.2235 120.432 57.7507 120.432 59.125C120.432 60.4992 119.313 61.2131 117.936 60.7134V60.7134ZM117.936 54.6938C115.993 53.9875 114.412 54.9921 114.412 56.9349C114.412 58.7017 115.723 60.642 117.421 61.5114V63.8469L118.443 64.2216V61.8837C120.146 62.2533 121.457 61.2666 121.457 59.4972C121.457 57.5544 119.876 55.4 117.933 54.6912L117.936 54.6938Z" fill="#13203D" stroke="#E9ECFF" stroke-width="0.122549" stroke-miterlimit="23.8"/>
<path d="M120.939 55.1258L122.107 53.5527L121.219 52.7114L120.049 54.287C119.552 53.8816 119.014 53.5349 118.448 53.2723V50.9394L117.42 50.5646V52.8975C116.844 52.7445 116.294 52.6986 115.789 52.7471L114.647 50.3198L113.754 50.5008L114.901 52.9434C113.609 53.4125 112.767 54.6287 112.767 56.3446L113.795 56.7193C113.795 54.4374 115.651 53.257 117.933 54.0881C120.215 54.9193 122.071 57.4511 122.071 59.733L123.098 60.1078C123.098 58.3817 122.244 56.5434 120.939 55.1284V55.1258Z" fill="#13203D" stroke="#E9ECFF" stroke-width="0.122549" stroke-miterlimit="23.8"/>
<path d="M117.917 60.7275C116.541 60.2278 115.421 58.6981 115.421 57.3238C115.421 55.9496 116.541 55.2357 117.917 55.7354C119.294 56.2377 120.413 57.7649 120.413 59.1391C120.413 60.5134 119.294 61.2273 117.917 60.7275ZM117.917 54.7079C115.975 54.0017 114.394 55.0062 114.394 56.949C114.394 58.7159 115.704 60.6562 117.402 61.5256V63.861L118.425 64.2358V61.8978C120.128 62.2675 121.438 61.2808 121.438 59.5114C121.438 57.5686 119.858 55.4142 117.915 54.7054L117.917 54.7079Z" fill="#13203D" stroke="#E9ECFF" stroke-width="0.122549" stroke-miterlimit="23.8"/>
<path d="M120.928 55.1356L122.096 53.5625L121.209 52.7211L120.038 54.2968C119.541 53.8914 119.003 53.5446 118.437 53.282V50.9491L117.41 50.5744V52.9072C116.833 52.7543 116.283 52.7084 115.778 52.7568L114.636 50.3296L113.743 50.5106L114.891 52.9531C113.598 53.4223 112.757 54.6384 112.757 56.3543L113.784 56.7291C113.784 54.4472 115.64 53.2667 117.922 54.0979C120.204 54.9291 122.06 57.4608 122.06 59.7427L123.088 60.1175C123.088 58.3915 122.233 56.5532 120.928 55.1382V55.1356Z" fill="#13203D" stroke="#E9ECFF" stroke-width="0.122549" stroke-miterlimit="23.8"/>
<path d="M117.921 60.7275C116.545 60.2278 115.425 58.6981 115.425 57.3238C115.425 55.9496 116.545 55.2357 117.921 55.7354C119.298 56.2377 120.417 57.7649 120.417 59.1391C120.417 60.5134 119.298 61.2273 117.921 60.7275V60.7275ZM117.921 54.7079C115.979 54.0017 114.398 55.0062 114.398 56.949C114.398 58.7159 115.708 60.6562 117.406 61.5256V63.861L118.429 64.2358V61.8978C120.132 62.2675 121.442 61.2808 121.442 59.5114C121.442 57.5686 119.862 55.4142 117.919 54.7054L117.921 54.7079Z" fill="#13203D" stroke="#E9ECFF" stroke-width="0.122549" stroke-miterlimit="23.8"/>
<path d="M120.919 55.141L122.087 53.5679L121.2 52.7265L120.029 54.3022C119.532 53.8968 118.994 53.55 118.428 53.2874V50.9545L117.401 50.5797V52.9126C116.825 52.7596 116.274 52.7137 115.769 52.7622L114.627 50.335L113.735 50.516L114.882 52.9585C113.589 53.4276 112.748 54.6438 112.748 56.3597L113.775 56.7345C113.775 54.4526 115.631 53.2721 117.913 54.1033C120.195 54.9345 122.051 57.4662 122.051 59.7481L123.079 60.1229C123.079 58.3968 122.225 56.5586 120.919 55.1435V55.141Z" fill="#13203D" stroke="#E9ECFF" stroke-width="0.122549" stroke-miterlimit="23.8"/>
<path d="M117.906 60.7407C116.529 60.241 115.409 58.7112 115.409 57.337C115.409 55.9628 116.529 55.2489 117.906 55.7486C119.282 56.2509 120.402 57.7781 120.402 59.1523C120.402 60.5266 119.282 61.2404 117.906 60.7407V60.7407ZM117.906 54.7211C115.963 54.0149 114.382 55.0194 114.382 56.9622C114.382 58.7291 115.692 60.6693 117.391 61.5388V63.8742L118.413 64.249V61.911C120.116 62.2807 121.427 61.294 121.427 59.5246C121.427 57.5818 119.846 55.4273 117.903 54.7185L117.906 54.7211Z" fill="#13203D" stroke="#E9ECFF" stroke-width="0.122549" stroke-miterlimit="23.8"/>
<path d="M120.909 55.1532L122.076 53.5801L121.189 52.7387L120.019 54.3144C119.522 53.909 118.984 53.5622 118.418 53.2996V50.9667L117.39 50.5919V52.9248C116.814 52.7718 116.263 52.726 115.758 52.7744L114.616 50.3472L113.724 50.5282L114.871 52.9707C113.578 53.4398 112.737 54.656 112.737 56.3719L113.765 56.7467C113.765 54.4648 115.621 53.2843 117.903 54.1155C120.184 54.9467 122.041 57.4784 122.041 59.7603L123.068 60.1351C123.068 58.409 122.214 56.5708 120.909 55.1557V55.1532Z" fill="#13203D" stroke="#E9ECFF" stroke-width="0.122549" stroke-miterlimit="23.8"/>
<path d="M117.897 60.7417C116.52 60.242 115.401 58.7122 115.401 57.338C115.401 55.9637 116.52 55.2498 117.897 55.7496C119.274 56.2518 120.393 57.7791 120.393 59.1533C120.393 60.5275 119.274 61.2414 117.897 60.7417ZM117.897 54.7221C115.954 54.0158 114.373 55.0204 114.373 56.9632C114.373 58.7301 115.684 60.6703 117.382 61.5397V63.8752L118.404 64.25V61.912C120.107 62.2817 121.418 61.295 121.418 59.5255C121.418 57.5827 119.837 55.4283 117.894 54.7195L117.897 54.7221Z" fill="#13203D" stroke="#E9ECFF" stroke-width="0.122549" stroke-miterlimit="23.8"/>
<path d="M120.895 55.159L122.062 53.5859L121.175 52.7446L120.005 54.3202C119.508 53.9148 118.97 53.5681 118.404 53.3055V50.9726L117.376 50.5978V52.9307C116.8 52.7777 116.249 52.7318 115.744 52.7803L114.602 50.353L113.71 50.534L114.857 52.9766C113.565 53.4457 112.723 54.6619 112.723 56.3778L113.751 56.7525C113.751 54.4706 115.607 53.2902 117.889 54.1213C120.171 54.9525 122.027 57.4843 122.027 59.7662L123.054 60.141C123.054 58.4149 122.2 56.5766 120.895 55.1616V55.159Z" fill="#13203D" stroke="#E9ECFF" stroke-width="0.122549" stroke-miterlimit="23.8"/>
<path d="M117.885 60.7515C116.508 60.2517 115.389 58.722 115.389 57.3477C115.389 55.9735 116.508 55.2596 117.885 55.7593C119.261 56.2616 120.381 57.7888 120.381 59.1631C120.381 60.5373 119.261 61.2512 117.885 60.7515V60.7515ZM117.885 54.7318C115.942 54.0256 114.361 55.0301 114.361 56.9729C114.361 58.7398 115.672 60.6801 117.37 61.5495V63.8849L118.392 64.2597V61.9217C120.095 62.2914 121.406 61.3047 121.406 59.5353C121.406 57.5925 119.825 55.4381 117.882 54.7293L117.885 54.7318Z" fill="#13203D" stroke="#E9ECFF" stroke-width="0.122549" stroke-miterlimit="23.8"/>
<path d="M120.89 55.1654L122.058 53.5923L121.171 52.7509L120 54.3266C119.503 53.9212 118.965 53.5744 118.399 53.3118V50.9789L117.372 50.6041V52.937C116.796 52.7841 116.245 52.7382 115.74 52.7866L114.598 50.3594L113.705 50.5404L114.853 52.9829C113.56 53.452 112.719 54.6682 112.719 56.3841L113.746 56.7589C113.746 54.477 115.602 53.2965 117.884 54.1277C120.166 54.9589 122.022 57.4906 122.022 59.7725L123.05 60.1473C123.05 58.4212 122.196 56.583 120.89 55.1679V55.1654Z" fill="#13203D" stroke="#E9ECFF" stroke-width="0.122549" stroke-miterlimit="23.8"/>
<path d="M117.877 60.7568C116.5 60.2571 115.381 58.7274 115.381 57.3531C115.381 55.9789 116.5 55.265 117.877 55.7647C119.254 56.267 120.373 57.7942 120.373 59.1684C120.373 60.5427 119.254 61.2566 117.877 60.7568ZM117.877 54.7372C115.934 54.031 114.354 55.0355 114.354 56.9783C114.354 58.7452 115.664 60.6854 117.362 61.5549V63.8903L118.385 64.2651V61.9271C120.088 62.2968 121.398 61.3101 121.398 59.5407C121.398 57.5979 119.818 55.4435 117.875 54.7347L117.877 54.7372Z" fill="#13203D" stroke="#E9ECFF" stroke-width="0.122549" stroke-miterlimit="23.8"/>
<path d="M120.875 55.1698L122.043 53.5967L121.156 52.7553L119.985 54.331C119.488 53.9256 118.95 53.5788 118.384 53.3162V50.9833L117.357 50.6085V52.9414C116.78 52.7884 116.23 52.7426 115.725 52.791L114.583 50.3638L113.69 50.5448L114.838 52.9873C113.545 53.4564 112.704 54.6726 112.704 56.3885L113.731 56.7633C113.731 54.4814 115.587 53.3009 117.869 54.1321C120.151 54.9633 122.007 57.495 122.007 59.7769L123.035 60.1517C123.035 58.4256 122.181 56.5874 120.875 55.1723V55.1698Z" fill="#13203D" stroke="#E9ECFF" stroke-width="0.122549" stroke-miterlimit="23.8"/>
<path d="M117.861 60.7783C116.485 60.2786 115.365 58.7488 115.365 57.3746C115.365 56.0004 116.485 55.2865 117.861 55.7862C119.238 56.2885 120.357 57.8157 120.357 59.1899C120.357 60.5642 119.238 61.278 117.861 60.7783ZM117.861 54.7587C115.919 54.0525 114.338 55.057 114.338 56.9998C114.338 58.7667 115.648 60.7069 117.346 61.5763V63.9118L118.369 64.2866V61.9486C120.072 62.3183 121.382 61.3316 121.382 59.5622C121.382 57.6194 119.802 55.4649 117.859 54.7561L117.861 54.7587Z" fill="#13203D" stroke="#E9ECFF" stroke-width="0.122549" stroke-miterlimit="23.8"/>
<path d="M120.865 55.1874L122.032 53.6143L121.145 52.7729L119.975 54.3485C119.478 53.9432 118.94 53.5964 118.374 53.3338V51.0009L117.346 50.6261V52.959C116.77 52.806 116.219 52.7601 115.714 52.8086L114.572 50.3813L113.68 50.5624L114.827 53.0049C113.535 53.474 112.693 54.6902 112.693 56.4061L113.721 56.7809C113.721 54.499 115.577 53.3185 117.859 54.1497C120.141 54.9808 121.997 57.5126 121.997 59.7945L123.024 60.1693C123.024 58.4432 122.17 56.6049 120.865 55.1899V55.1874Z" fill="#13203D" stroke="#E9ECFF" stroke-width="0.122549" stroke-miterlimit="23.8"/>
<path d="M117.856 60.7832C116.479 60.2835 115.36 58.7537 115.36 57.3795C115.36 56.0052 116.479 55.2913 117.856 55.7911C119.233 56.2933 120.352 57.8206 120.352 59.1948C120.352 60.569 119.233 61.2829 117.856 60.7832V60.7832ZM117.856 54.7636C115.913 54.0573 114.332 55.0619 114.332 57.0047C114.332 58.7716 115.643 60.7118 117.341 61.5812V63.9167L118.363 64.2915V61.9535C120.066 62.3232 121.377 61.3365 121.377 59.567C121.377 57.6242 119.796 55.4698 117.853 54.761L117.856 54.7636Z" fill="#13203D" stroke="#E9ECFF" stroke-width="0.122549" stroke-miterlimit="23.8"/>
<path d="M120.854 55.1966L122.021 53.6235L121.134 52.7822L119.964 54.3578C119.467 53.9524 118.929 53.6057 118.363 53.3431V51.0102L117.335 50.6354V52.9683C116.759 52.8153 116.208 52.7694 115.703 52.8179L114.561 50.3906L113.669 50.5716L114.816 53.0142C113.524 53.4833 112.682 54.6995 112.682 56.4154L113.71 56.7901C113.71 54.5082 115.566 53.3278 117.848 54.1589C120.13 54.9901 121.986 57.5219 121.986 59.8038L123.013 60.1786C123.013 58.4525 122.159 56.6142 120.854 55.1992V55.1966Z" fill="#13203D" stroke="#E9ECFF" stroke-width="0.122549" stroke-miterlimit="23.8"/>
<path d="M117.831 60.7847C116.454 60.2849 115.335 58.7552 115.335 57.3809C115.335 56.0067 116.454 55.2928 117.831 55.7925C119.208 56.2948 120.327 57.822 120.327 59.1963C120.327 60.5705 119.208 61.2844 117.831 60.7847ZM117.831 54.765C115.888 54.0588 114.307 55.0633 114.307 57.0061C114.307 58.773 115.618 60.7133 117.316 61.5827V63.9181L118.338 64.2929V61.9549C120.042 62.3246 121.352 61.3379 121.352 59.5685C121.352 57.6257 119.771 55.4713 117.828 54.7625L117.831 54.765Z" fill="#13203D" stroke="#E9ECFF" stroke-width="0.122549" stroke-miterlimit="23.8"/>
<path d="M120.842 55.1981L122.009 53.625L121.122 52.7836L119.952 54.3593C119.455 53.9539 118.917 53.6071 118.351 53.3445V51.0116L117.323 50.6369V52.9697C116.747 52.8168 116.196 52.7709 115.691 52.8193L114.549 50.3921L113.657 50.5731L114.804 53.0156C113.511 53.4848 112.67 54.7009 112.67 56.4168L113.698 56.7916C113.698 54.5097 115.554 53.3292 117.836 54.1604C120.117 54.9916 121.974 57.5233 121.974 59.8052L123.001 60.18C123.001 58.454 122.147 56.6157 120.842 55.2007V55.1981Z" fill="#13203D" stroke="#E9ECFF" stroke-width="0.122549" stroke-miterlimit="23.8"/>
<circle cx="210.727" cy="43.0002" r="1.31183" transform="rotate(180 210.727 43.0002)" fill="#E9ECFF"/>
<circle cx="200.888" cy="43.0005" r="1.96774" transform="rotate(180 200.888 43.0005)" fill="#E9ECFF"/>
<circle cx="189.738" cy="43.0004" r="2.62366" transform="rotate(180 189.738 43.0004)" fill="#E9ECFF"/>
<path d="M248.357 62.6857L266.17 49.7441C266.749 49.3229 267.181 48.7291 267.402 48.0477C267.623 47.3663 267.624 46.6323 267.402 45.9509L260.598 25.0126C260.377 24.3308 259.946 23.7366 259.366 23.3151C258.787 22.8936 258.088 22.6666 257.372 22.6665H235.356C234.639 22.6661 233.941 22.893 233.36 23.3145C232.78 23.736 232.349 24.3305 232.128 25.0126L225.324 45.9509C225.102 46.6323 225.102 47.3663 225.324 48.0477C225.545 48.7291 225.977 49.3229 226.556 49.7441L244.369 62.6857C244.949 63.1067 245.647 63.3335 246.363 63.3335C247.079 63.3335 247.777 63.1067 248.357 62.6857Z" fill="#C08AFF"/>
</svg>
