<svg width="42" height="29" viewBox="0 0 42 29" fill="none" xmlns="http://www.w3.org/2000/svg">
<path d="M0.672807 11.3984V10.6669L4.49738 5.07031H0.640847V4.12571H5.83971V4.85724L2.01514 10.4538H5.87167V11.3984H0.672807ZM8.13907 9.5483L8.13197 8.25213H8.31663L10.4899 5.94389H11.7612L9.28254 8.57173H9.11563L8.13907 9.5483ZM7.16251 11.3984V4.12571H8.2243V11.3984H7.16251ZM10.6071 11.3984L8.65399 8.80611L9.38552 8.06392L11.9104 11.3984H10.6071ZM15.4606 11.3984V4.12571H18.053C18.6188 4.12571 19.0875 4.22869 19.4592 4.43466C19.8309 4.64062 20.1091 4.92235 20.2937 5.27983C20.4784 5.63494 20.5707 6.03504 20.5707 6.48011C20.5707 6.92756 20.4772 7.33002 20.2902 7.6875C20.1055 8.04261 19.8262 8.32434 19.4521 8.53267C19.0804 8.73864 18.6129 8.84162 18.0494 8.84162H16.2667V7.91122H17.95C18.3075 7.91122 18.5975 7.84967 18.82 7.72656C19.0425 7.60109 19.2059 7.43063 19.3101 7.2152C19.4142 6.99976 19.4663 6.75473 19.4663 6.48011C19.4663 6.20549 19.4142 5.96165 19.3101 5.74858C19.2059 5.53551 19.0414 5.36861 18.8165 5.24787C18.5939 5.12713 18.3004 5.06676 17.9358 5.06676H16.5579V11.3984H15.4606ZM21.7719 11.3984V5.94389H22.7982V6.81037H22.855C22.9544 6.51681 23.1296 6.28598 23.3805 6.1179C23.6339 5.94744 23.9203 5.86222 24.2399 5.86222C24.3062 5.86222 24.3843 5.86458 24.4743 5.86932C24.5666 5.87405 24.6388 5.87997 24.6909 5.88707V6.9027C24.6483 6.89086 24.5725 6.87784 24.4636 6.86364C24.3547 6.84706 24.2458 6.83878 24.1369 6.83878C23.886 6.83878 23.6623 6.89205 23.4658 6.99858C23.2716 7.10275 23.1178 7.24834 23.0041 7.43537C22.8905 7.62003 22.8337 7.83073 22.8337 8.06747V11.3984H21.7719ZM27.712 11.5085C27.2007 11.5085 26.7544 11.3913 26.3733 11.157C25.9921 10.9226 25.6962 10.5947 25.4855 10.1733C25.2748 9.75189 25.1694 9.25947 25.1694 8.69602C25.1694 8.13021 25.2748 7.63542 25.4855 7.21165C25.6962 6.78788 25.9921 6.45881 26.3733 6.22443C26.7544 5.99006 27.2007 5.87287 27.712 5.87287C28.2234 5.87287 28.6697 5.99006 29.0508 6.22443C29.432 6.45881 29.7279 6.78788 29.9386 7.21165C30.1493 7.63542 30.2547 8.13021 30.2547 8.69602C30.2547 9.25947 30.1493 9.75189 29.9386 10.1733C29.7279 10.5947 29.432 10.9226 29.0508 11.157C28.6697 11.3913 28.2234 11.5085 27.712 11.5085ZM27.7156 10.6172C28.047 10.6172 28.3217 10.5296 28.5395 10.3544C28.7573 10.1792 28.9183 9.94602 29.0224 9.65483C29.129 9.36364 29.1822 9.04285 29.1822 8.69247C29.1822 8.34446 29.129 8.02486 29.0224 7.73366C28.9183 7.4401 28.7573 7.20455 28.5395 7.02699C28.3217 6.84943 28.047 6.76065 27.7156 6.76065C27.3818 6.76065 27.1048 6.84943 26.8846 7.02699C26.6668 7.20455 26.5047 7.4401 26.3981 7.73366C26.294 8.02486 26.2419 8.34446 26.2419 8.69247C26.2419 9.04285 26.294 9.36364 26.3981 9.65483C26.5047 9.94602 26.6668 10.1792 26.8846 10.3544C27.1048 10.5296 27.3818 10.6172 27.7156 10.6172ZM33.7374 11.5085C33.2261 11.5085 32.7798 11.3913 32.3987 11.157C32.0175 10.9226 31.7216 10.5947 31.5109 10.1733C31.3002 9.75189 31.1948 9.25947 31.1948 8.69602C31.1948 8.13021 31.3002 7.63542 31.5109 7.21165C31.7216 6.78788 32.0175 6.45881 32.3987 6.22443C32.7798 5.99006 33.2261 5.87287 33.7374 5.87287C34.2488 5.87287 34.6951 5.99006 35.0762 6.22443C35.4574 6.45881 35.7533 6.78788 35.964 7.21165C36.1747 7.63542 36.2801 8.13021 36.2801 8.69602C36.2801 9.25947 36.1747 9.75189 35.964 10.1733C35.7533 10.5947 35.4574 10.9226 35.0762 11.157C34.6951 11.3913 34.2488 11.5085 33.7374 11.5085ZM33.741 10.6172C34.0724 10.6172 34.347 10.5296 34.5649 10.3544C34.7827 10.1792 34.9436 9.94602 35.0478 9.65483C35.1543 9.36364 35.2076 9.04285 35.2076 8.69247C35.2076 8.34446 35.1543 8.02486 35.0478 7.73366C34.9436 7.4401 34.7827 7.20455 34.5649 7.02699C34.347 6.84943 34.0724 6.76065 33.741 6.76065C33.4072 6.76065 33.1302 6.84943 32.91 7.02699C32.6922 7.20455 32.5301 7.4401 32.4235 7.73366C32.3194 8.02486 32.2673 8.34446 32.2673 8.69247C32.2673 9.04285 32.3194 9.36364 32.4235 9.65483C32.5301 9.94602 32.6922 10.1792 32.91 10.3544C33.1302 10.5296 33.4072 10.6172 33.741 10.6172ZM40.0611 5.94389V6.79616H36.9787V5.94389H40.0611ZM37.8239 11.3984V5.31179C37.8239 4.97088 37.8985 4.68797 38.0476 4.46307C38.1968 4.2358 38.3945 4.06652 38.6407 3.95526C38.8869 3.84162 39.1544 3.7848 39.4432 3.7848C39.6563 3.7848 39.8386 3.80256 39.9901 3.83807C40.1416 3.87121 40.2541 3.90199 40.3275 3.9304L40.0789 4.78977C40.0292 4.77557 39.9652 4.759 39.8871 4.74006C39.809 4.71875 39.7143 4.7081 39.603 4.7081C39.345 4.7081 39.1603 4.77202 39.0491 4.89986C38.9401 5.0277 38.8857 5.21236 38.8857 5.45384V11.3984H37.8239Z" fill="#E2C488"/>
<path d="M24.3759 18.3647L16.7485 25.9921" stroke="#E2C488" stroke-width="1.51102" stroke-linecap="round" stroke-linejoin="round"/>
</svg>
