<svg width="59" height="24" viewBox="0 0 59 24" fill="none" xmlns="http://www.w3.org/2000/svg">
<path d="M0.243896 18.15V16.8887H3.59785V18.4023C3.59785 19.9789 4.30734 20.5465 5.43607 20.5465C6.56481 20.5465 7.30655 19.9789 7.30655 18.3392C7.30655 16.5103 6.53256 15.3751 4.21059 13.3885C1.24363 10.8344 0.243896 9.00545 0.243896 6.48282C0.243896 3.0142 2.08212 0.996094 5.53282 0.996094C8.98352 0.996094 10.6927 3.0142 10.6927 6.54588V7.46034H7.3388V6.32515C7.3388 4.74851 6.6938 4.14938 5.56507 4.14938C4.43634 4.14938 3.75909 4.74851 3.75909 6.26209C3.75909 7.87027 4.56533 9.00545 6.8873 10.992C9.85426 13.5462 10.8218 15.3436 10.8218 18.0869C10.8218 21.6817 8.95127 23.6998 5.46832 23.6998C1.98537 23.6998 0.243896 21.6817 0.243896 18.15Z" fill="white"/>
<path d="M12.8213 1.31152H16.3687V23.3846H12.8213V1.31152Z" fill="white"/>
<path d="M18.3989 18.15V16.8887H21.7529V18.4023C21.7529 19.9789 22.4624 20.5465 23.5911 20.5465C24.7198 20.5465 25.4616 19.9789 25.4616 18.3392C25.4616 16.5103 24.6876 15.3751 22.3656 13.3885C19.3987 10.8344 18.3989 9.00545 18.3989 6.48282C18.3989 3.0142 20.2372 0.996094 23.6879 0.996094C27.1386 0.996094 28.8478 3.0142 28.8478 6.54588V7.46034H25.4938V6.32515C25.4938 4.74851 24.8488 4.14938 23.7201 4.14938C22.5914 4.14938 21.9141 4.74851 21.9141 6.26209C21.9141 7.87027 22.7204 9.00545 25.0423 10.992C28.0093 13.5462 28.9768 15.3436 28.9768 18.0869C28.9768 21.6817 27.1063 23.6998 23.6234 23.6998C20.1404 23.6998 18.3989 21.6817 18.3989 18.15Z" fill="white"/>
<path d="M30.9763 1.31152H35.975L38.3292 17.3302L40.6834 1.31152H45.6821V23.3846H42.3282V6.67212L39.6837 23.3846H36.7167L34.0723 6.67212V23.3846H30.9763V1.31152Z" fill="white"/>
<path d="M48.0691 18.15V6.54588C48.0691 3.0142 49.9718 0.996094 53.4548 0.996094C56.9377 0.996094 58.8404 3.0142 58.8404 6.54588V18.15C58.8404 21.6817 56.9377 23.6998 53.4548 23.6998C49.9718 23.6998 48.0691 21.6817 48.0691 18.15ZM55.293 18.3707V6.32515C55.293 4.74851 54.5835 4.14938 53.4548 4.14938C52.326 4.14938 51.6165 4.74851 51.6165 6.32515V18.3707C51.6165 19.9474 52.326 20.5465 53.4548 20.5465C54.5835 20.5465 55.293 19.9474 55.293 18.3707Z" fill="white"/>
</svg>
